G04*
G04 #@! TF.GenerationSoftware,Altium Limited,Altium Designer,25.8.1 (18)*
G04*
G04 Layer_Physical_Order=4*
G04 Layer_Color=16711680*
%FSLAX25Y25*%
%MOIN*%
G70*
G04*
G04 #@! TF.SameCoordinates,9721EC4C-EEF9-411E-A6DD-BA43915A41D1*
G04*
G04*
G04 #@! TF.FilePolarity,Positive*
G04*
G01*
G75*
%ADD11C,0.01000*%
%ADD13C,0.00787*%
%ADD53R,0.15748X0.03937*%
%ADD76C,0.06299*%
%ADD78C,0.01673*%
%ADD80C,0.05906*%
%ADD85C,0.03937*%
%ADD90C,0.01968*%
%ADD92C,0.03150*%
%ADD93C,0.01575*%
%ADD102C,0.06000*%
D11*
X460902Y151847D02*
X461552D01*
X460975Y153240D02*
X467232Y159498D01*
Y162643D01*
X457829Y153240D02*
X460975D01*
X452696Y143641D02*
X460902Y151847D01*
X461552D02*
X468626Y158921D01*
X467232Y162643D02*
X470866Y166277D01*
X449624Y145035D02*
X457829Y153240D01*
X468626Y158921D02*
Y159571D01*
X478346Y169291D01*
X470866Y166277D02*
Y168898D01*
X449683Y143641D02*
X452696D01*
X478346Y169291D02*
Y179528D01*
X385547Y79504D02*
X449683Y143641D01*
X396591Y92520D02*
X449106Y145035D01*
X449624D01*
X282013Y92520D02*
X396591D01*
X199004Y79504D02*
X385547D01*
X281985Y92492D02*
X282013Y92520D01*
X277070Y92492D02*
X281985D01*
X277043Y92520D02*
X277070Y92492D01*
X199745Y92520D02*
X277043D01*
X197638Y80871D02*
Y81102D01*
Y80871D02*
X199004Y79504D01*
X189796Y82570D02*
X199745Y92520D01*
X187402Y79134D02*
X189796Y81528D01*
Y82570D01*
D13*
X382509Y67947D02*
G03*
X382518Y67956I-557J557D01*
G01*
X430975Y116408D02*
G03*
X428369Y114840I1702J-5778D01*
G01*
X432674Y115079D02*
G03*
X428331Y109679I4J-4449D01*
G01*
X287689Y109843D02*
G03*
X289383Y109528I1681J4331D01*
G01*
X135556Y133276D02*
G03*
X135600Y133165I4045J1546D01*
G01*
X428457Y109098D02*
G03*
X428457Y109102I-787J0D01*
G01*
X426676Y158268D02*
X451255D01*
X452436Y159449D01*
X452756D01*
X427165Y157087D02*
X457480D01*
X400000Y129921D02*
X427165Y157087D01*
X456409Y159339D02*
X462314D01*
X431890Y164567D02*
X451181D01*
X456409Y159339D01*
X426772Y159449D02*
X431890Y164567D01*
X400692Y132283D02*
X426676Y158268D01*
X395669Y132283D02*
X400692D01*
X463583Y160608D02*
Y171850D01*
X462314Y159339D02*
X463583Y160608D01*
X426187Y159449D02*
X426772D01*
X420281Y153543D02*
X426187Y159449D01*
X399213Y153543D02*
X420281D01*
X397638Y120743D02*
X429650Y152756D01*
X444969D01*
X430146Y154921D02*
X430315D01*
X389398Y114173D02*
X430146Y154921D01*
X457579Y161603D02*
X457677Y161505D01*
X461417D02*
Y171355D01*
X457480Y171653D02*
X457579Y171555D01*
Y161603D02*
Y171555D01*
X396063Y150394D02*
X399213Y153543D01*
X289370Y114173D02*
X389398D01*
X263816D02*
X289370D01*
X397638Y116142D02*
Y120743D01*
X417323Y127165D02*
X424409Y134252D01*
X431102D01*
X456299Y195276D02*
X468504Y207480D01*
X528740D01*
X531890Y204331D01*
X345655Y213972D02*
X349587Y210039D01*
X509252D01*
X509449Y210236D01*
X494319Y190776D02*
X505905Y202362D01*
X486533Y190776D02*
X494319D01*
X475591Y179834D02*
X486533Y190776D01*
X475591Y177165D02*
Y179834D01*
X463406Y173344D02*
Y173996D01*
X431102Y206299D02*
X463406Y173996D01*
X461417Y171355D02*
X463406Y173344D01*
X463583Y171850D02*
X475197Y183465D01*
X465945Y167520D02*
X475591Y177165D01*
X465945Y160031D02*
Y167520D01*
X460441Y154528D02*
X465945Y160031D01*
X446741Y154528D02*
X460441D01*
X444969Y152756D02*
X446741Y154528D01*
X136806Y213972D02*
X345655D01*
X123622Y200787D02*
X136806Y213972D01*
X474803Y143706D02*
X505900Y174803D01*
X514961D01*
X474803Y134252D02*
Y143706D01*
X462992Y122441D02*
X474803Y134252D01*
X443701Y120472D02*
X462694D01*
X466237Y124016D01*
X462205Y116339D02*
Y116535D01*
X468504Y122835D01*
X466237Y124016D02*
X479134D01*
X488189Y133071D01*
X447756Y122441D02*
X462992D01*
X486737Y121383D02*
X500787Y135433D01*
Y137795D01*
X480205Y121383D02*
X486737D01*
X497878Y138823D02*
Y140004D01*
X498032Y140157D01*
X481890Y122835D02*
X497878Y138823D01*
X468504Y122835D02*
X481890D01*
X492839Y107480D02*
X492913D01*
X478114Y119291D02*
X480205Y121383D01*
X481102Y119217D02*
X492839Y107480D01*
X472047Y119291D02*
X478114D01*
X447638Y122559D02*
X447756Y122441D01*
X472441Y150000D02*
X486614Y164173D01*
X472441Y138583D02*
Y150000D01*
X519926Y172594D02*
Y173775D01*
Y172594D02*
X520079Y172441D01*
X510433Y183268D02*
X519926Y173775D01*
X507283Y183268D02*
X510433D01*
X486614Y164173D02*
Y165748D01*
X432674Y115079D02*
X434765Y115080D01*
X486614Y165748D02*
X498032Y177165D01*
X483858Y164173D02*
Y174803D01*
X434765Y115080D02*
X483858Y164173D01*
X478259Y126772D02*
X493657Y142170D01*
X475984Y126772D02*
X478259D01*
X392200Y150787D02*
X392520D01*
X390120Y152006D02*
X390981D01*
X392200Y150787D01*
X396063Y154331D02*
Y161425D01*
X421654Y137402D02*
Y138189D01*
X410630Y127953D02*
X412205D01*
X421654Y137402D01*
X445232Y135827D02*
X450000Y140595D01*
X382518Y67956D02*
X428369Y114840D01*
X248031Y67716D02*
X382278D01*
X481102Y166535D02*
Y177559D01*
X430975Y116408D02*
X481102Y166535D01*
X248031Y57874D02*
X248684Y57874D01*
X377790Y58105D01*
X212761D02*
X212992Y57874D01*
X377790Y58105D02*
X428457Y108772D01*
X207874Y62992D02*
X212761Y58105D01*
X212992Y57874D02*
X248031Y57874D01*
X208661Y67716D02*
X248031D01*
X382278D02*
X382509Y67947D01*
X406378Y109528D02*
X427165Y130315D01*
X289383Y109528D02*
X406378D01*
X243796Y109843D02*
X287689D01*
X233858Y193307D02*
X238583Y198031D01*
X183268Y193307D02*
X233858D01*
X238854Y196457D02*
X240158D01*
X241129Y197638D02*
X320713D01*
X240158Y196667D02*
X241129Y197638D01*
X240158Y196457D02*
Y196667D01*
X426772Y206299D02*
X431102D01*
X421457Y200984D02*
X426772Y206299D01*
X396960Y200984D02*
X421457D01*
X395779Y202165D02*
X396960Y200984D01*
X325240Y202165D02*
X395779D01*
X320713Y197638D02*
X325240Y202165D01*
X180512Y196063D02*
X183268Y193307D01*
X125197Y196063D02*
X180512D01*
X118898Y189764D02*
X125197Y196063D01*
X131544Y158626D02*
X132593Y159675D01*
Y171344D01*
X130709Y173228D02*
X132593Y171344D01*
X129528Y154814D02*
Y170472D01*
Y154814D02*
X130090Y154251D01*
Y140776D02*
Y154251D01*
X131544Y150669D02*
Y158626D01*
Y150669D02*
X134993Y147220D01*
X135099D01*
X136700Y145620D01*
X137352D01*
X137771Y146039D01*
X231950D01*
X263816Y114173D01*
X407282Y105905D02*
X448683Y147306D01*
X306693Y105905D02*
X407282D01*
X531890Y204331D02*
X540551D01*
X526968Y199409D02*
X531890Y204331D01*
X526968Y188867D02*
Y199409D01*
X299213Y98425D02*
X306693Y105905D01*
X246063D02*
X306693D01*
X288316Y97371D02*
X289370Y98425D01*
X285043Y97371D02*
X288316D01*
X281452Y93779D02*
X285043Y97371D01*
X277603Y93779D02*
X281452D01*
X276107Y95276D02*
X277603Y93779D01*
X272047Y98425D02*
X279528D01*
X270472Y96850D02*
X272047Y98425D01*
X100000Y177165D02*
X123622Y200787D01*
X100000Y143307D02*
Y177165D01*
X192520Y100394D02*
X229528D01*
X234646Y95276D01*
X190157Y102756D02*
X192520Y100394D01*
X140551Y102756D02*
X190157D01*
X100000Y143307D02*
X140551Y102756D01*
X227362Y106693D02*
X237205Y96850D01*
X146850Y106693D02*
X227362D01*
X108661Y144882D02*
X146850Y106693D01*
X108661Y144882D02*
Y153150D01*
X234646Y95276D02*
X276107D01*
X237205Y96850D02*
X270472D01*
X108661Y153150D02*
X126378Y170866D01*
X377756Y164370D02*
X390120Y152006D01*
X323228Y183858D02*
X355512D01*
X391732Y147638D01*
X392520Y153937D02*
X396063Y150394D01*
X392520Y153937D02*
Y163298D01*
X364873Y190945D02*
X392520Y163298D01*
X377756Y164370D02*
Y172550D01*
X365363Y192126D02*
X396063Y161425D01*
X399213Y155905D02*
Y159946D01*
X365852Y193307D02*
X399213Y159946D01*
X272604Y193307D02*
X365852D01*
X260793Y181496D02*
X272604Y193307D01*
X169291Y181496D02*
X260793D01*
X273094Y192126D02*
X365363D01*
X260298Y179331D02*
X273094Y192126D01*
X168029Y179331D02*
X260298D01*
X167348Y180013D02*
X168029Y179331D01*
X164869Y180013D02*
X167348D01*
X328740Y175132D02*
X340795D01*
X311417Y175591D02*
X323622Y187795D01*
X281890Y132677D02*
X325526Y176313D01*
X273889Y120281D02*
X328740Y175132D01*
X323622Y187795D02*
X362511D01*
X309343Y177847D02*
X322441Y190945D01*
X341893Y177494D02*
X350489Y168898D01*
X282283Y137795D02*
X321983Y177494D01*
X341893D01*
X325526Y176313D02*
X341403D01*
X322441Y190945D02*
X364873D01*
X362511Y187795D02*
X377756Y172550D01*
X300787Y161417D02*
X323228Y183858D01*
X340795Y175132D02*
X348425Y167502D01*
X341403Y176313D02*
X352362Y165354D01*
X163608Y177847D02*
X309343D01*
X163276Y178179D02*
X163608Y177847D01*
X160798Y178179D02*
X163276D01*
X156299Y175591D02*
X311417D01*
X167410Y161417D02*
X300787D01*
X154812Y174016D02*
X167410Y161417D01*
X151575Y174016D02*
X154812D01*
X130090Y140776D02*
X135138Y135728D01*
Y133694D02*
Y135728D01*
X125028Y156992D02*
X126378Y158342D01*
Y158661D01*
X125028Y136783D02*
Y156992D01*
Y136783D02*
X138976Y122835D01*
X268898Y137795D02*
X282283D01*
X267717Y132677D02*
X281890D01*
X267508Y132469D02*
X267717Y132677D01*
X263577Y120281D02*
X273889D01*
X262002Y132092D02*
X267479Y137569D01*
X268672D01*
X267508Y130512D02*
Y132469D01*
X261609Y124612D02*
X267508Y130512D01*
X138976Y122835D02*
X218504D01*
X231496Y109843D01*
X135803Y131941D02*
X136033Y131710D01*
X135803Y131941D02*
Y132675D01*
X135600Y133165D02*
X135803Y132675D01*
X135138Y133694D02*
X135556Y133276D01*
X136033Y131710D02*
X140972Y126772D01*
X226867D01*
X243796Y109843D01*
X242126D02*
X246063Y105905D01*
X231496Y109843D02*
X242126D01*
X126378Y172441D02*
X131102Y177165D01*
X126378Y170866D02*
Y172441D01*
X131102Y177165D02*
X142520D01*
X507087Y183465D02*
X507283Y183268D01*
X348425Y164173D02*
X350394Y162205D01*
X348425Y164173D02*
Y167502D01*
X350489Y168898D02*
X354331D01*
X455512Y189241D02*
X456299Y190028D01*
X455512Y188976D02*
Y189241D01*
X456299Y190028D02*
Y195276D01*
X431496Y199606D02*
X446209Y184893D01*
X394882Y199606D02*
X431496D01*
X417549Y157706D02*
X419169Y159326D01*
X415974Y157706D02*
X417549D01*
X415748Y157480D02*
X415974Y157706D01*
X404160Y161247D02*
X405315Y162402D01*
X402586Y161247D02*
X404160D01*
X402360Y161021D02*
X402586Y161247D01*
X405315Y162402D02*
X407677D01*
X407874Y162205D01*
X419169Y159326D02*
X422564D01*
X523228Y167716D02*
Y167717D01*
X446209Y183319D02*
Y184893D01*
Y183319D02*
X450000Y179528D01*
X480010Y115050D02*
X483288D01*
X535039Y163386D02*
X537402Y165748D01*
X523228Y163386D02*
X535039D01*
X523228Y167717D02*
X529291Y173779D01*
X533946Y181890D02*
X545276D01*
X526968Y188867D02*
X533946Y181890D01*
X529291Y173779D02*
X540000D01*
X483288Y115050D02*
X488189Y110149D01*
Y108268D02*
Y110149D01*
X485039Y107087D02*
Y110236D01*
X483465Y111811D02*
X485039Y110236D01*
X489990Y115187D02*
X490648D01*
X520305Y171481D02*
Y172215D01*
X490648Y115187D02*
X520397Y144935D01*
Y171389D01*
X520305Y171481D02*
X520397Y171389D01*
X428331Y109679D02*
X428457Y109102D01*
Y108772D02*
Y109098D01*
X529134Y189764D02*
X545276D01*
X529528Y158268D02*
X545276D01*
D53*
Y181890D02*
D03*
Y174016D02*
D03*
Y166142D02*
D03*
Y189764D02*
D03*
Y158268D02*
D03*
D76*
X309055Y124016D02*
D03*
X299213D02*
D03*
X289370D02*
D03*
X421654Y138189D02*
D03*
X289370Y114173D02*
D03*
X238583Y198031D02*
D03*
X228740D02*
D03*
X218898D02*
D03*
X299213Y98425D02*
D03*
X289370D02*
D03*
X279528D02*
D03*
D78*
X537787Y216544D02*
D03*
D80*
X248031Y57087D02*
D03*
Y66929D02*
D03*
X455905Y217717D02*
D03*
X476378Y59055D02*
D03*
X466535D02*
D03*
X456693D02*
D03*
X474409Y114567D02*
D03*
X427165Y59055D02*
D03*
X437008D02*
D03*
X446850D02*
D03*
X513779Y66929D02*
D03*
X503937D02*
D03*
X494095D02*
D03*
X432677Y110630D02*
D03*
X500000Y114173D02*
D03*
D85*
X364173Y129921D02*
X370079D01*
X337795Y172047D02*
X339983D01*
X345669Y166361D01*
Y156128D02*
X366758Y135039D01*
X345669Y156128D02*
Y166361D01*
X366758Y135039D02*
X391732D01*
X340551Y153543D02*
Y165354D01*
Y153543D02*
X364173Y129921D01*
D90*
X456281Y85811D02*
D03*
X458840D02*
D03*
X456281Y82709D02*
D03*
X458840D02*
D03*
Y79807D02*
D03*
X456281D02*
D03*
X451163Y85811D02*
D03*
Y82709D02*
D03*
Y79807D02*
D03*
X448604D02*
D03*
Y85811D02*
D03*
Y82709D02*
D03*
X452756Y159449D02*
D03*
X402555Y137209D02*
D03*
X430315Y154921D02*
D03*
X395669Y132283D02*
D03*
X457480Y157087D02*
D03*
X461417Y161505D02*
D03*
X457677D02*
D03*
X400000Y129921D02*
D03*
X431102Y134252D02*
D03*
X417323Y127165D02*
D03*
X505905Y202362D02*
D03*
X475197Y183465D02*
D03*
X239764Y75590D02*
D03*
X376422Y123406D02*
D03*
X231496Y64173D02*
D03*
X462205Y116339D02*
D03*
X481102Y119217D02*
D03*
X466579Y129090D02*
D03*
X472441Y138583D02*
D03*
X460236Y130315D02*
D03*
X281496Y150394D02*
D03*
Y146063D02*
D03*
X518504Y194488D02*
D03*
X498032Y177165D02*
D03*
X503937Y118898D02*
D03*
X493701Y142126D02*
D03*
X498032Y140157D02*
D03*
X392520Y150787D02*
D03*
X396063Y154331D02*
D03*
X470866Y168898D02*
D03*
X22835Y151969D02*
D03*
X21654Y159843D02*
D03*
X279921Y140157D02*
D03*
X276378Y127559D02*
D03*
X269291Y122835D02*
D03*
X257480Y99213D02*
D03*
X252756Y137008D02*
D03*
X250394Y132283D02*
D03*
X252756Y99213D02*
D03*
X248031Y137008D02*
D03*
X245669Y113386D02*
D03*
X240945Y132283D02*
D03*
Y122835D02*
D03*
X243307Y118110D02*
D03*
X236221Y132283D02*
D03*
Y122835D02*
D03*
Y113386D02*
D03*
X233858Y137008D02*
D03*
X231496Y132283D02*
D03*
X229134Y137008D02*
D03*
X226772Y132283D02*
D03*
Y122835D02*
D03*
X224410Y137008D02*
D03*
X222047Y132283D02*
D03*
Y122835D02*
D03*
X219685Y137008D02*
D03*
X217323Y132283D02*
D03*
X214961Y137008D02*
D03*
X212598Y132283D02*
D03*
X210236Y137008D02*
D03*
X207874Y132283D02*
D03*
X205512Y137008D02*
D03*
X203150Y132283D02*
D03*
X200787Y137008D02*
D03*
X198425Y132283D02*
D03*
X196063Y137008D02*
D03*
X193701Y132283D02*
D03*
X191339Y137008D02*
D03*
X188976Y132283D02*
D03*
X186614Y137008D02*
D03*
X184252Y132283D02*
D03*
X181890Y137008D02*
D03*
X179528Y132283D02*
D03*
X177165Y137008D02*
D03*
X174803Y132283D02*
D03*
X170079Y141732D02*
D03*
X172441Y137008D02*
D03*
X170079Y132283D02*
D03*
X165354Y141732D02*
D03*
X167717Y137008D02*
D03*
X160630Y141732D02*
D03*
X162992Y137008D02*
D03*
X155905Y132283D02*
D03*
X151181D02*
D03*
X129921Y137008D02*
D03*
X122835Y141732D02*
D03*
X120473Y155905D02*
D03*
X118110Y151181D02*
D03*
X120473Y146457D02*
D03*
X118110Y141732D02*
D03*
X187402Y56299D02*
D03*
X201181Y55512D02*
D03*
X182618Y63090D02*
D03*
X410630Y127953D02*
D03*
X445232Y135827D02*
D03*
X450000Y140595D02*
D03*
X427165Y130315D02*
D03*
X118898Y189764D02*
D03*
X130709Y173228D02*
D03*
X129528Y170472D02*
D03*
X448683Y147306D02*
D03*
X457480Y171653D02*
D03*
X528740Y212992D02*
D03*
X197638Y81102D02*
D03*
X354724Y72835D02*
D03*
X363779Y155118D02*
D03*
X391732Y147638D02*
D03*
X396063Y150394D02*
D03*
X399213Y155905D02*
D03*
X164869Y180013D02*
D03*
X169291Y181496D02*
D03*
X160798Y178179D02*
D03*
X156299Y175591D02*
D03*
X151575Y174016D02*
D03*
X127925Y148819D02*
D03*
X135061Y150215D02*
D03*
X126378Y158661D02*
D03*
X133710Y154721D02*
D03*
X147638Y173228D02*
D03*
X262002Y132092D02*
D03*
X268898Y137795D02*
D03*
X267717Y132677D02*
D03*
X446457Y151181D02*
D03*
X126378Y170866D02*
D03*
X142520Y177165D02*
D03*
X123622Y200787D02*
D03*
X509449Y210236D02*
D03*
X502756Y219685D02*
D03*
X475591Y220472D02*
D03*
X507087Y183465D02*
D03*
X350394Y162205D02*
D03*
X263577Y120281D02*
D03*
X352362Y165354D02*
D03*
X261609Y124612D02*
D03*
X354331Y168898D02*
D03*
X440158Y202362D02*
D03*
X360239Y173822D02*
D03*
X153150Y137795D02*
D03*
X455512Y188976D02*
D03*
X389764Y200000D02*
D03*
X394882D02*
D03*
X415748Y157480D02*
D03*
X402360Y161021D02*
D03*
X407874Y162205D02*
D03*
X422564Y159326D02*
D03*
X507480Y159055D02*
D03*
X523228Y167716D02*
D03*
X503937Y159055D02*
D03*
X403150Y203150D02*
D03*
X381102Y171653D02*
D03*
X350787Y156299D02*
D03*
X368110Y138976D02*
D03*
X375590Y171653D02*
D03*
X338976Y119291D02*
D03*
X381102Y140157D02*
D03*
X127559Y144488D02*
D03*
X450000Y179528D02*
D03*
X500787Y137795D02*
D03*
X472047Y119291D02*
D03*
X475984Y126772D02*
D03*
X480010Y115050D02*
D03*
X523228Y163386D02*
D03*
X529921Y223228D02*
D03*
X488189Y108268D02*
D03*
X492876Y107480D02*
D03*
X483465Y111811D02*
D03*
X485039Y107087D02*
D03*
X187402Y79134D02*
D03*
X489764Y114961D02*
D03*
X520079Y172441D02*
D03*
X207874Y62992D02*
D03*
X483858Y174803D02*
D03*
X208661Y67716D02*
D03*
X481102Y177559D02*
D03*
X478346Y179528D02*
D03*
X464567Y192913D02*
D03*
X197638Y87142D02*
D03*
X38783Y150728D02*
D03*
X424410Y77166D02*
D03*
X425788Y79921D02*
D03*
X424410Y82677D02*
D03*
X425788Y85433D02*
D03*
X427166Y77166D02*
D03*
X428544Y79921D02*
D03*
X427166Y82677D02*
D03*
X428544Y85433D02*
D03*
X429922Y77166D02*
D03*
X431300Y79921D02*
D03*
X429922Y82677D02*
D03*
X432678Y77166D02*
D03*
X434056Y79921D02*
D03*
X435434Y77166D02*
D03*
X439568Y85433D02*
D03*
X442323D02*
D03*
X441644Y180371D02*
D03*
X529134Y189764D02*
D03*
X461811Y214961D02*
D03*
X479921Y212205D02*
D03*
X493307D02*
D03*
X436614Y184646D02*
D03*
X31956Y181577D02*
D03*
X505512Y187008D02*
D03*
X484646Y196063D02*
D03*
X490945Y200000D02*
D03*
X465749Y99213D02*
D03*
X467127Y101969D02*
D03*
X465749Y104725D02*
D03*
X467127Y107481D02*
D03*
X468505Y99213D02*
D03*
X469883Y101969D02*
D03*
X468505Y104725D02*
D03*
X469883Y107481D02*
D03*
X471261Y99213D02*
D03*
X472639Y101969D02*
D03*
X471261Y104725D02*
D03*
X472639Y107481D02*
D03*
X475394Y96457D02*
D03*
X474017Y99213D02*
D03*
X475394Y101969D02*
D03*
X474017Y104725D02*
D03*
X476772Y93701D02*
D03*
X478150Y96457D02*
D03*
X476772Y99213D02*
D03*
X479528Y88189D02*
D03*
Y93701D02*
D03*
X483858Y191732D02*
D03*
X441732Y108661D02*
D03*
X446457D02*
D03*
X451181D02*
D03*
X439764Y146063D02*
D03*
X437008Y108661D02*
D03*
X444095Y103937D02*
D03*
X448819D02*
D03*
X453543D02*
D03*
X451181Y99213D02*
D03*
X489370Y220866D02*
D03*
X540551Y204331D02*
D03*
X529528Y158268D02*
D03*
X450000Y190551D02*
D03*
X444044Y182760D02*
D03*
X439370Y187795D02*
D03*
X477559Y196457D02*
D03*
X482523Y98838D02*
D03*
X496850Y91339D02*
D03*
Y101181D02*
D03*
X479528Y108661D02*
D03*
X477165Y75591D02*
D03*
X479528Y70866D02*
D03*
X477165Y66142D02*
D03*
X472441Y75591D02*
D03*
X474803Y70866D02*
D03*
X472441Y66142D02*
D03*
X467717Y75591D02*
D03*
X470079Y70866D02*
D03*
X467717Y66142D02*
D03*
X462992Y75591D02*
D03*
X465354Y70866D02*
D03*
X462992Y66142D02*
D03*
X458268Y75591D02*
D03*
X460630Y70866D02*
D03*
X458268Y66142D02*
D03*
X455906Y70866D02*
D03*
X453543Y66142D02*
D03*
X451181Y70866D02*
D03*
X448819Y66142D02*
D03*
X446457Y99213D02*
D03*
Y70866D02*
D03*
X444095Y66142D02*
D03*
X439370Y103937D02*
D03*
Y66142D02*
D03*
X434646Y103937D02*
D03*
X437008Y99213D02*
D03*
X434646Y66142D02*
D03*
X432283Y99213D02*
D03*
X429921Y94488D02*
D03*
X432283Y70866D02*
D03*
X429921Y66142D02*
D03*
X427559Y99213D02*
D03*
X425197Y94488D02*
D03*
X427559Y70866D02*
D03*
X420472Y85039D02*
D03*
Y75591D02*
D03*
X422835Y70866D02*
D03*
X532677Y106299D02*
D03*
X524016D02*
D03*
Y84646D02*
D03*
X532677D02*
D03*
X509872Y96091D02*
D03*
X514961Y90551D02*
D03*
X497244Y85827D02*
D03*
X32283Y171228D02*
D03*
X24783Y164228D02*
D03*
X32283Y150728D02*
D03*
X24783Y161228D02*
D03*
X197638Y76142D02*
D03*
Y55642D02*
D03*
X190138Y69142D02*
D03*
Y66142D02*
D03*
X512599Y80315D02*
D03*
X510236Y75591D02*
D03*
X507874Y80315D02*
D03*
X505512Y75591D02*
D03*
X500787D02*
D03*
X496063D02*
D03*
X491339D02*
D03*
X486614D02*
D03*
X522872Y96091D02*
D03*
D92*
X370079Y129921D02*
D03*
X337795Y172047D02*
D03*
X340551Y165354D02*
D03*
X391732Y135039D02*
D03*
D93*
X397638Y116142D02*
D03*
X443701Y120472D02*
D03*
X488189Y133071D02*
D03*
X447638Y122559D02*
D03*
X514961Y174803D02*
D03*
D102*
X543701Y112598D02*
D03*
Y78583D02*
D03*
X528740Y112598D02*
D03*
Y78583D02*
D03*
M02*
