G04*
G04 #@! TF.GenerationSoftware,Altium Limited,Altium Designer,25.8.1 (18)*
G04*
G04 Layer_Color=8388736*
%FSLAX25Y25*%
%MOIN*%
G70*
G04*
G04 #@! TF.SameCoordinates,9721EC4C-EEF9-411E-A6DD-BA43915A41D1*
G04*
G04*
G04 #@! TF.FilePolarity,Negative*
G04*
G01*
G75*
G04:AMPARAMS|DCode=21|XSize=14mil|YSize=30mil|CornerRadius=0mil|HoleSize=0mil|Usage=FLASHONLY|Rotation=225.000|XOffset=0mil|YOffset=0mil|HoleType=Round|Shape=Rectangle|*
%AMROTATEDRECTD21*
4,1,4,-0.00566,0.01556,0.01556,-0.00566,0.00566,-0.01556,-0.01556,0.00566,-0.00566,0.01556,0.0*
%
%ADD21ROTATEDRECTD21*%

G04:AMPARAMS|DCode=22|XSize=14mil|YSize=41mil|CornerRadius=0mil|HoleSize=0mil|Usage=FLASHONLY|Rotation=225.000|XOffset=0mil|YOffset=0mil|HoleType=Round|Shape=Rectangle|*
%AMROTATEDRECTD22*
4,1,4,-0.00955,0.01945,0.01945,-0.00955,0.00955,-0.01945,-0.01945,0.00955,-0.00955,0.01945,0.0*
%
%ADD22ROTATEDRECTD22*%

%ADD28R,0.02953X0.02362*%
%ADD29R,0.02362X0.02953*%
%ADD30R,0.02756X0.01260*%
G04:AMPARAMS|DCode=31|XSize=30mil|YSize=32mil|CornerRadius=0mil|HoleSize=0mil|Usage=FLASHONLY|Rotation=135.000|XOffset=0mil|YOffset=0mil|HoleType=Round|Shape=Rectangle|*
%AMROTATEDRECTD31*
4,1,4,0.02192,0.00071,-0.00071,-0.02192,-0.02192,-0.00071,0.00071,0.02192,0.02192,0.00071,0.0*
%
%ADD31ROTATEDRECTD31*%

G04:AMPARAMS|DCode=32|XSize=43.31mil|YSize=58.27mil|CornerRadius=5.41mil|HoleSize=0mil|Usage=FLASHONLY|Rotation=135.000|XOffset=0mil|YOffset=0mil|HoleType=Round|Shape=RoundedRectangle|*
%AMROUNDEDRECTD32*
21,1,0.04331,0.04744,0,0,135.0*
21,1,0.03248,0.05827,0,0,135.0*
1,1,0.01083,0.00529,0.02826*
1,1,0.01083,0.02826,0.00529*
1,1,0.01083,-0.00529,-0.02826*
1,1,0.01083,-0.02826,-0.00529*
%
%ADD32ROUNDEDRECTD32*%
G04:AMPARAMS|DCode=33|XSize=58.07mil|YSize=11.81mil|CornerRadius=0mil|HoleSize=0mil|Usage=FLASHONLY|Rotation=315.000|XOffset=0mil|YOffset=0mil|HoleType=Round|Shape=Rectangle|*
%AMROTATEDRECTD33*
4,1,4,-0.02471,0.01636,-0.01636,0.02471,0.02471,-0.01636,0.01636,-0.02471,-0.02471,0.01636,0.0*
%
%ADD33ROTATEDRECTD33*%

G04:AMPARAMS|DCode=34|XSize=58.07mil|YSize=11.81mil|CornerRadius=0mil|HoleSize=0mil|Usage=FLASHONLY|Rotation=45.000|XOffset=0mil|YOffset=0mil|HoleType=Round|Shape=Rectangle|*
%AMROTATEDRECTD34*
4,1,4,-0.01636,-0.02471,-0.02471,-0.01636,0.01636,0.02471,0.02471,0.01636,-0.01636,-0.02471,0.0*
%
%ADD34ROTATEDRECTD34*%

G04:AMPARAMS|DCode=35|XSize=8.03mil|YSize=29.53mil|CornerRadius=0mil|HoleSize=0mil|Usage=FLASHONLY|Rotation=225.000|XOffset=0mil|YOffset=0mil|HoleType=Round|Shape=Rectangle|*
%AMROTATEDRECTD35*
4,1,4,-0.00760,0.01328,0.01328,-0.00760,0.00760,-0.01328,-0.01328,0.00760,-0.00760,0.01328,0.0*
%
%ADD35ROTATEDRECTD35*%

G04:AMPARAMS|DCode=36|XSize=30mil|YSize=32mil|CornerRadius=0mil|HoleSize=0mil|Usage=FLASHONLY|Rotation=45.000|XOffset=0mil|YOffset=0mil|HoleType=Round|Shape=Rectangle|*
%AMROTATEDRECTD36*
4,1,4,0.00071,-0.02192,-0.02192,0.00071,-0.00071,0.02192,0.02192,-0.00071,0.00071,-0.02192,0.0*
%
%ADD36ROTATEDRECTD36*%

G04:AMPARAMS|DCode=37|XSize=66.93mil|YSize=31.5mil|CornerRadius=0mil|HoleSize=0mil|Usage=FLASHONLY|Rotation=45.000|XOffset=0mil|YOffset=0mil|HoleType=Round|Shape=Rectangle|*
%AMROTATEDRECTD37*
4,1,4,-0.01253,-0.03480,-0.03480,-0.01253,0.01253,0.03480,0.03480,0.01253,-0.01253,-0.03480,0.0*
%
%ADD37ROTATEDRECTD37*%

G04:AMPARAMS|DCode=40|XSize=8.03mil|YSize=29.53mil|CornerRadius=0mil|HoleSize=0mil|Usage=FLASHONLY|Rotation=135.000|XOffset=0mil|YOffset=0mil|HoleType=Round|Shape=Rectangle|*
%AMROTATEDRECTD40*
4,1,4,0.01328,0.00760,-0.00760,-0.01328,-0.01328,-0.00760,0.00760,0.01328,0.01328,0.00760,0.0*
%
%ADD40ROTATEDRECTD40*%

%ADD41R,0.03500X0.01000*%
G04:AMPARAMS|DCode=42|XSize=23.62mil|YSize=21.26mil|CornerRadius=0mil|HoleSize=0mil|Usage=FLASHONLY|Rotation=45.000|XOffset=0mil|YOffset=0mil|HoleType=Round|Shape=Rectangle|*
%AMROTATEDRECTD42*
4,1,4,-0.00084,-0.01587,-0.01587,-0.00084,0.00084,0.01587,0.01587,0.00084,-0.00084,-0.01587,0.0*
%
%ADD42ROTATEDRECTD42*%

%ADD43R,0.08700X0.12200*%
%ADD44R,0.03200X0.06700*%
%ADD45R,0.03000X0.03200*%
G04:AMPARAMS|DCode=46|XSize=23.62mil|YSize=21.26mil|CornerRadius=0mil|HoleSize=0mil|Usage=FLASHONLY|Rotation=135.000|XOffset=0mil|YOffset=0mil|HoleType=Round|Shape=Rectangle|*
%AMROTATEDRECTD46*
4,1,4,0.01587,-0.00084,0.00084,-0.01587,-0.01587,0.00084,-0.00084,0.01587,0.01587,-0.00084,0.0*
%
%ADD46ROTATEDRECTD46*%

G04:AMPARAMS|DCode=47|XSize=53.94mil|YSize=107.09mil|CornerRadius=6.74mil|HoleSize=0mil|Usage=FLASHONLY|Rotation=270.000|XOffset=0mil|YOffset=0mil|HoleType=Round|Shape=RoundedRectangle|*
%AMROUNDEDRECTD47*
21,1,0.05394,0.09360,0,0,270.0*
21,1,0.04045,0.10709,0,0,270.0*
1,1,0.01348,-0.04680,-0.02023*
1,1,0.01348,-0.04680,0.02023*
1,1,0.01348,0.04680,0.02023*
1,1,0.01348,0.04680,-0.02023*
%
%ADD47ROUNDEDRECTD47*%
%ADD48R,0.01000X0.09800*%
%ADD49R,0.01968X0.01968*%
%ADD50R,0.03200X0.03000*%
%ADD51R,0.01181X0.03347*%
%ADD52R,0.03347X0.01181*%
%ADD53R,0.15748X0.03937*%
%ADD54R,0.01968X0.01968*%
G04:AMPARAMS|DCode=55|XSize=43.31mil|YSize=58.27mil|CornerRadius=5.41mil|HoleSize=0mil|Usage=FLASHONLY|Rotation=90.000|XOffset=0mil|YOffset=0mil|HoleType=Round|Shape=RoundedRectangle|*
%AMROUNDEDRECTD55*
21,1,0.04331,0.04744,0,0,90.0*
21,1,0.03248,0.05827,0,0,90.0*
1,1,0.01083,0.02372,0.01624*
1,1,0.01083,0.02372,-0.01624*
1,1,0.01083,-0.02372,-0.01624*
1,1,0.01083,-0.02372,0.01624*
%
%ADD55ROUNDEDRECTD55*%
%ADD56R,0.02362X0.02126*%
%ADD57R,0.02126X0.02362*%
%ADD58R,0.04700X0.03200*%
%ADD59R,0.03300X0.01600*%
%ADD60R,0.06102X0.06102*%
%ADD61R,0.04700X0.03000*%
%ADD62R,0.02756X0.01654*%
%ADD63R,0.04700X0.02800*%
%ADD64C,0.00129*%
%ADD65C,0.00063*%
%ADD66C,0.00072*%
%ADD67R,0.04537X0.01781*%
%ADD68R,0.03356X0.01781*%
%ADD69P,0.15556X4X360.0*%
%ADD70R,0.03150X0.01890*%
%ADD71R,0.04528X0.03740*%
%ADD72R,0.01673X0.01575*%
%ADD73C,0.00069*%
%ADD74R,0.05512X0.04331*%
%ADD75R,0.04331X0.05512*%
%ADD76C,0.06299*%
G04:AMPARAMS|DCode=77|XSize=31.5mil|YSize=43.31mil|CornerRadius=0mil|HoleSize=0mil|Usage=FLASHONLY|Rotation=315.000|XOffset=0mil|YOffset=0mil|HoleType=Round|Shape=Rectangle|*
%AMROTATEDRECTD77*
4,1,4,-0.02645,-0.00418,0.00418,0.02645,0.02645,0.00418,-0.00418,-0.02645,-0.02645,-0.00418,0.0*
%
%ADD77ROTATEDRECTD77*%

%ADD78C,0.01673*%
G04:AMPARAMS|DCode=79|XSize=62.99mil|YSize=137.8mil|CornerRadius=0mil|HoleSize=0mil|Usage=FLASHONLY|Rotation=315.000|XOffset=0mil|YOffset=0mil|HoleType=Round|Shape=Rectangle|*
%AMROTATEDRECTD79*
4,1,4,-0.07099,-0.02645,0.02645,0.07099,0.07099,0.02645,-0.02645,-0.07099,-0.07099,-0.02645,0.0*
%
%ADD79ROTATEDRECTD79*%

%ADD80C,0.05906*%
G36*
X453624Y96539D02*
Y94768D01*
X453230Y94374D01*
X452443D01*
X452049Y94768D01*
Y96539D01*
X452443Y96933D01*
X453230D01*
X453624Y96539D01*
D02*
G37*
G36*
X457758D02*
Y95752D01*
X457954Y95555D01*
X460809D01*
X461202Y95161D01*
X461202Y94571D01*
X460809Y94177D01*
X456380D01*
X455986Y94571D01*
Y96539D01*
X456380Y96933D01*
X457364D01*
X457758Y96539D01*
D02*
G37*
G36*
X451458D02*
Y94571D01*
X451065Y94177D01*
X446635D01*
X446242Y94571D01*
Y95161D01*
X446635Y95555D01*
X449490D01*
X449687Y95752D01*
Y96539D01*
X450080Y96933D01*
X451065D01*
X451458Y96539D01*
D02*
G37*
G36*
X449785Y93193D02*
Y92602D01*
X449391Y92209D01*
X446635D01*
X446242Y92602D01*
Y93193D01*
X446635Y93587D01*
X449391D01*
X449785Y93193D01*
D02*
G37*
G36*
X461005D02*
Y92602D01*
X460809Y92405D01*
X459628D01*
X459431Y92209D01*
Y91618D01*
X459628Y91421D01*
X460809D01*
X461005Y91224D01*
Y90634D01*
X460809Y90437D01*
X456478D01*
X456281Y90634D01*
Y93193D01*
X456478Y93390D01*
X460809D01*
X461005Y93193D01*
D02*
G37*
G36*
X449785Y91224D02*
Y90634D01*
X449391Y90240D01*
X446635D01*
X446242Y90634D01*
Y91224D01*
X446635Y91618D01*
X449391D01*
X449785Y91224D01*
D02*
G37*
G36*
X453427Y93390D02*
Y88569D01*
X453033Y88175D01*
X446635Y88175D01*
X446242Y88569D01*
X446242Y89258D01*
X446635Y89652D01*
X451336D01*
X451474Y89709D01*
X451990Y90228D01*
X452049Y90366D01*
Y93390D01*
X452443Y93783D01*
X453033D01*
X453427Y93390D01*
D02*
G37*
G36*
X459431Y86402D02*
Y85161D01*
X459628Y84965D01*
X460809D01*
X461005Y84768D01*
Y84177D01*
X460809Y83980D01*
X459628Y83980D01*
X459431Y83784D01*
Y83193D01*
X459628Y82996D01*
X460809D01*
X461005Y82799D01*
Y82209D01*
X460809Y82012D01*
X459628D01*
X459431Y81815D01*
Y81224D01*
X459628Y81028D01*
X460809D01*
X461005Y80831D01*
Y80240D01*
X460809Y80043D01*
X459628Y80043D01*
X459431Y79847D01*
Y79216D01*
X459234Y79020D01*
X455690D01*
X455494Y79216D01*
Y86402D01*
X455690Y86598D01*
X459234Y86598D01*
X459431Y86402D01*
D02*
G37*
G36*
X451754Y86598D02*
X451950Y86402D01*
X451950Y79216D01*
X451754Y79020D01*
X448210D01*
X448013Y79216D01*
Y79847D01*
X447817Y80043D01*
X446635D01*
X446439Y80240D01*
Y80831D01*
X446635Y81028D01*
X447817D01*
X448013Y81224D01*
Y81815D01*
X447817Y82012D01*
X446635D01*
X446439Y82209D01*
Y82799D01*
X446635Y82996D01*
X447817D01*
X448013Y83193D01*
Y83784D01*
X447817Y83980D01*
X446635D01*
X446439Y84177D01*
Y84768D01*
X446635Y84965D01*
X447817D01*
X448013Y85161D01*
Y86402D01*
X448210Y86598D01*
X451754Y86598D01*
D02*
G37*
G36*
X274393Y222439D02*
X274416Y222435D01*
X274443Y222428D01*
X274468Y222420D01*
X274494Y222409D01*
X274513Y222393D01*
X274515Y222391D01*
X274519Y222384D01*
X274527Y222374D01*
X274536Y222359D01*
X274544Y222342D01*
X274552Y222321D01*
X274557Y222298D01*
X274559Y222273D01*
Y222216D01*
Y222214D01*
Y222206D01*
X274557Y222191D01*
X274552Y222176D01*
X274548Y222157D01*
X274540Y222139D01*
X274527Y222120D01*
X274513Y222101D01*
X274510Y222099D01*
X274504Y222094D01*
X274492Y222086D01*
X274477Y222078D01*
X274454Y222069D01*
X274426Y222061D01*
X274393Y222057D01*
X274353Y222055D01*
X274334D01*
X274315Y222057D01*
X274290Y222061D01*
X274265Y222065D01*
X274237Y222073D01*
X274214Y222086D01*
X274193Y222101D01*
X274191Y222103D01*
X274187Y222109D01*
X274179Y222120D01*
X274172Y222132D01*
X274164Y222149D01*
X274155Y222170D01*
X274151Y222191D01*
X274149Y222216D01*
Y222273D01*
Y222277D01*
Y222286D01*
X274151Y222298D01*
X274155Y222315D01*
X274160Y222334D01*
X274168Y222353D01*
X274179Y222374D01*
X274193Y222393D01*
X274195Y222395D01*
X274202Y222401D01*
X274214Y222407D01*
X274231Y222418D01*
X274252Y222426D01*
X274279Y222432D01*
X274313Y222439D01*
X274353Y222441D01*
X274372D01*
X274393Y222439D01*
D02*
G37*
G36*
X268962D02*
X268985Y222435D01*
X269013Y222428D01*
X269038Y222420D01*
X269063Y222409D01*
X269082Y222393D01*
X269084Y222391D01*
X269088Y222384D01*
X269097Y222374D01*
X269105Y222359D01*
X269113Y222342D01*
X269122Y222321D01*
X269126Y222298D01*
X269128Y222273D01*
Y222216D01*
Y222214D01*
Y222206D01*
X269126Y222191D01*
X269122Y222176D01*
X269118Y222157D01*
X269109Y222139D01*
X269097Y222120D01*
X269082Y222101D01*
X269080Y222099D01*
X269074Y222094D01*
X269061Y222086D01*
X269046Y222078D01*
X269023Y222069D01*
X268996Y222061D01*
X268962Y222057D01*
X268922Y222055D01*
X268903D01*
X268884Y222057D01*
X268859Y222061D01*
X268834Y222065D01*
X268807Y222073D01*
X268784Y222086D01*
X268763Y222101D01*
X268761Y222103D01*
X268756Y222109D01*
X268748Y222120D01*
X268742Y222132D01*
X268733Y222149D01*
X268725Y222170D01*
X268721Y222191D01*
X268719Y222216D01*
Y222273D01*
Y222277D01*
Y222286D01*
X268721Y222298D01*
X268725Y222315D01*
X268729Y222334D01*
X268738Y222353D01*
X268748Y222374D01*
X268763Y222393D01*
X268765Y222395D01*
X268771Y222401D01*
X268784Y222407D01*
X268800Y222418D01*
X268822Y222426D01*
X268849Y222432D01*
X268882Y222439D01*
X268922Y222441D01*
X268941D01*
X268962Y222439D01*
D02*
G37*
G36*
X278030Y221773D02*
X278051Y221771D01*
X278074Y221767D01*
X278101Y221763D01*
X278129Y221756D01*
X278160Y221748D01*
X278190Y221737D01*
X278223Y221725D01*
X278255Y221710D01*
X278286Y221691D01*
X278318Y221670D01*
X278349Y221647D01*
X278377Y221620D01*
X278379Y221618D01*
X278383Y221614D01*
X278389Y221603D01*
X278400Y221592D01*
X278410Y221576D01*
X278423Y221557D01*
X278437Y221534D01*
X278450Y221509D01*
X278465Y221479D01*
X278477Y221445D01*
X278490Y221410D01*
X278500Y221370D01*
X278511Y221328D01*
X278517Y221284D01*
X278521Y221235D01*
X278523Y221183D01*
Y220181D01*
X278242D01*
Y221133D01*
Y221135D01*
Y221137D01*
Y221149D01*
X278240Y221170D01*
X278236Y221196D01*
X278232Y221227D01*
X278223Y221261D01*
X278213Y221296D01*
X278198Y221334D01*
X278181Y221372D01*
X278158Y221408D01*
X278129Y221443D01*
X278095Y221473D01*
X278057Y221498D01*
X278009Y221519D01*
X277957Y221532D01*
X277927Y221534D01*
X277896Y221536D01*
X277870D01*
X277854Y221534D01*
X277833Y221532D01*
X277810Y221530D01*
X277761Y221519D01*
X277759D01*
X277751Y221517D01*
X277738Y221513D01*
X277721Y221506D01*
X277705Y221498D01*
X277683Y221490D01*
X277644Y221464D01*
X277642Y221462D01*
X277635Y221458D01*
X277627Y221450D01*
X277614Y221439D01*
X277602Y221427D01*
X277587Y221412D01*
X277574Y221393D01*
X277562Y221374D01*
X277560Y221372D01*
X277557Y221366D01*
X277551Y221353D01*
X277547Y221338D01*
X277541Y221320D01*
X277534Y221299D01*
X277532Y221275D01*
X277530Y221248D01*
Y220181D01*
X277251D01*
Y221737D01*
X277530D01*
Y221477D01*
X277543D01*
X277545Y221479D01*
X277547Y221487D01*
X277553Y221498D01*
X277560Y221513D01*
X277568Y221530D01*
X277578Y221548D01*
X277604Y221588D01*
X277606Y221590D01*
X277610Y221597D01*
X277618Y221607D01*
X277629Y221620D01*
X277642Y221635D01*
X277658Y221651D01*
X277694Y221683D01*
X277696Y221685D01*
X277705Y221689D01*
X277715Y221697D01*
X277730Y221708D01*
X277749Y221719D01*
X277770Y221729D01*
X277795Y221740D01*
X277820Y221750D01*
X277824Y221752D01*
X277833Y221754D01*
X277849Y221758D01*
X277868Y221763D01*
X277893Y221767D01*
X277923Y221771D01*
X277954Y221775D01*
X278013D01*
X278030Y221773D01*
D02*
G37*
G36*
X267801Y221462D02*
X267480D01*
X267465Y221460D01*
X267448Y221458D01*
X267429Y221456D01*
X267406Y221452D01*
X267383Y221448D01*
X267331Y221433D01*
X267278Y221412D01*
X267251Y221399D01*
X267226Y221385D01*
X267200Y221366D01*
X267177Y221345D01*
X267175Y221343D01*
X267173Y221338D01*
X267167Y221332D01*
X267158Y221324D01*
X267150Y221313D01*
X267139Y221299D01*
X267129Y221282D01*
X267118Y221265D01*
X267108Y221244D01*
X267097Y221221D01*
X267078Y221170D01*
X267064Y221112D01*
X267062Y221080D01*
X267060Y221046D01*
Y220414D01*
X267648D01*
Y220181D01*
X266341D01*
Y220414D01*
X266778D01*
Y221504D01*
X266341D01*
Y221737D01*
X267060D01*
Y221334D01*
X267076D01*
Y221336D01*
X267078Y221343D01*
X267083Y221353D01*
X267087Y221366D01*
X267093Y221380D01*
X267099Y221399D01*
X267118Y221441D01*
X267144Y221490D01*
X267175Y221538D01*
X267213Y221586D01*
X267257Y221630D01*
X267259Y221632D01*
X267263Y221635D01*
X267270Y221641D01*
X267280Y221647D01*
X267293Y221656D01*
X267309Y221664D01*
X267326Y221674D01*
X267347Y221685D01*
X267370Y221693D01*
X267396Y221704D01*
X267423Y221712D01*
X267454Y221721D01*
X267486Y221727D01*
X267519Y221733D01*
X267557Y221735D01*
X267595Y221737D01*
X267801D01*
Y221462D01*
D02*
G37*
G36*
X270728Y221773D02*
X270749D01*
X270772Y221771D01*
X270798Y221767D01*
X270825Y221763D01*
X270886Y221750D01*
X270947Y221733D01*
X271010Y221708D01*
X271039Y221691D01*
X271066Y221674D01*
X271069Y221672D01*
X271073Y221670D01*
X271081Y221664D01*
X271090Y221656D01*
X271102Y221647D01*
X271117Y221635D01*
X271148Y221605D01*
X271182Y221567D01*
X271218Y221521D01*
X271251Y221471D01*
X271281Y221412D01*
X271060Y221292D01*
Y221294D01*
X271058Y221296D01*
X271056Y221303D01*
X271052Y221311D01*
X271041Y221332D01*
X271029Y221357D01*
X271010Y221387D01*
X270987Y221416D01*
X270957Y221445D01*
X270926Y221473D01*
X270921Y221475D01*
X270909Y221483D01*
X270890Y221494D01*
X270863Y221506D01*
X270827Y221519D01*
X270787Y221530D01*
X270741Y221538D01*
X270690Y221540D01*
X270672D01*
X270657Y221538D01*
X270640Y221536D01*
X270621Y221534D01*
X270600Y221530D01*
X270575Y221525D01*
X270525Y221509D01*
X270499Y221500D01*
X270474Y221487D01*
X270447Y221473D01*
X270424Y221456D01*
X270399Y221437D01*
X270378Y221414D01*
X270375Y221412D01*
X270373Y221408D01*
X270367Y221401D01*
X270361Y221391D01*
X270352Y221378D01*
X270344Y221364D01*
X270334Y221347D01*
X270323Y221326D01*
X270312Y221305D01*
X270302Y221280D01*
X270294Y221254D01*
X270285Y221225D01*
X270273Y221162D01*
X270270Y221128D01*
X270268Y221093D01*
Y220826D01*
Y220824D01*
Y220818D01*
Y220807D01*
X270270Y220795D01*
X270273Y220778D01*
X270275Y220757D01*
X270277Y220736D01*
X270283Y220713D01*
X270296Y220662D01*
X270315Y220608D01*
X270327Y220580D01*
X270342Y220555D01*
X270359Y220530D01*
X270378Y220505D01*
X270380Y220503D01*
X270384Y220498D01*
X270390Y220494D01*
X270399Y220486D01*
X270409Y220475D01*
X270424Y220465D01*
X270441Y220454D01*
X270460Y220444D01*
X270480Y220431D01*
X270504Y220421D01*
X270531Y220410D01*
X270560Y220400D01*
X270590Y220391D01*
X270623Y220387D01*
X270659Y220383D01*
X270697Y220381D01*
X270711D01*
X270722Y220383D01*
X270735D01*
X270749Y220385D01*
X270785Y220389D01*
X270823Y220398D01*
X270865Y220410D01*
X270907Y220427D01*
X270945Y220450D01*
X270947D01*
X270949Y220454D01*
X270961Y220463D01*
X270978Y220479D01*
X271001Y220500D01*
X271026Y220528D01*
X271052Y220561D01*
X271077Y220599D01*
X271102Y220643D01*
X271304Y220509D01*
Y220507D01*
X271300Y220503D01*
X271297Y220494D01*
X271291Y220482D01*
X271283Y220469D01*
X271274Y220452D01*
X271251Y220416D01*
X271220Y220374D01*
X271182Y220330D01*
X271136Y220286D01*
X271083Y220246D01*
X271081Y220244D01*
X271077Y220242D01*
X271069Y220238D01*
X271056Y220232D01*
X271041Y220223D01*
X271022Y220215D01*
X271001Y220206D01*
X270978Y220196D01*
X270951Y220188D01*
X270921Y220177D01*
X270890Y220169D01*
X270856Y220162D01*
X270819Y220154D01*
X270779Y220150D01*
X270739Y220148D01*
X270695Y220146D01*
X270665D01*
X270651Y220148D01*
X270634D01*
X270613Y220150D01*
X270592Y220152D01*
X270544Y220160D01*
X270493Y220169D01*
X270441Y220183D01*
X270388Y220202D01*
X270386D01*
X270382Y220204D01*
X270375Y220209D01*
X270365Y220213D01*
X270355Y220219D01*
X270340Y220225D01*
X270310Y220244D01*
X270275Y220267D01*
X270235Y220295D01*
X270197Y220328D01*
X270161Y220366D01*
Y220368D01*
X270157Y220370D01*
X270153Y220377D01*
X270147Y220385D01*
X270138Y220395D01*
X270130Y220408D01*
X270109Y220438D01*
X270086Y220475D01*
X270063Y220519D01*
X270040Y220568D01*
X270019Y220622D01*
Y220624D01*
X270016Y220629D01*
X270014Y220637D01*
X270010Y220650D01*
X270008Y220662D01*
X270004Y220679D01*
X270000Y220698D01*
X269995Y220721D01*
X269989Y220744D01*
X269985Y220771D01*
X269979Y220828D01*
X269972Y220891D01*
X269970Y220960D01*
Y220963D01*
Y220969D01*
Y220979D01*
Y220992D01*
X269972Y221007D01*
Y221025D01*
X269974Y221046D01*
X269976Y221072D01*
X269983Y221122D01*
X269991Y221179D01*
X270002Y221238D01*
X270019Y221294D01*
Y221296D01*
X270021Y221301D01*
X270025Y221309D01*
X270027Y221320D01*
X270033Y221332D01*
X270040Y221349D01*
X270056Y221382D01*
X270075Y221425D01*
X270100Y221466D01*
X270128Y221511D01*
X270161Y221553D01*
X270163Y221555D01*
X270165Y221557D01*
X270178Y221569D01*
X270197Y221590D01*
X270224Y221614D01*
X270258Y221639D01*
X270296Y221666D01*
X270340Y221693D01*
X270388Y221716D01*
X270390D01*
X270394Y221719D01*
X270401Y221723D01*
X270411Y221725D01*
X270424Y221731D01*
X270441Y221735D01*
X270457Y221740D01*
X270476Y221746D01*
X270520Y221756D01*
X270573Y221767D01*
X270630Y221773D01*
X270690Y221775D01*
X270714D01*
X270728Y221773D01*
D02*
G37*
G36*
X287587Y222061D02*
X287075D01*
Y220408D01*
X287587D01*
Y220181D01*
X286270D01*
Y220408D01*
X286785D01*
Y222061D01*
X286270D01*
Y222288D01*
X287587D01*
Y222061D01*
D02*
G37*
G36*
X285949Y220181D02*
X285638D01*
X285468Y220763D01*
X284760D01*
X284590Y220181D01*
X284292D01*
X284922Y222288D01*
X285317D01*
X285949Y220181D01*
D02*
G37*
G36*
X281638Y220414D02*
X282169D01*
Y220181D01*
X280827D01*
Y220414D01*
X281356D01*
Y222181D01*
X280827D01*
Y222414D01*
X281638D01*
Y220414D01*
D02*
G37*
G36*
X279681Y221773D02*
X279706Y221771D01*
X279733Y221767D01*
X279763Y221763D01*
X279796Y221758D01*
X279868Y221742D01*
X279905Y221729D01*
X279943Y221716D01*
X279979Y221700D01*
X280014Y221681D01*
X280050Y221660D01*
X280082Y221635D01*
X280084Y221632D01*
X280088Y221628D01*
X280096Y221620D01*
X280107Y221609D01*
X280119Y221595D01*
X280134Y221576D01*
X280149Y221557D01*
X280164Y221532D01*
X280178Y221506D01*
X280193Y221475D01*
X280208Y221443D01*
X280220Y221408D01*
X280231Y221370D01*
X280239Y221328D01*
X280243Y221284D01*
X280245Y221238D01*
Y220414D01*
X280455D01*
Y220181D01*
X280258D01*
X280248Y220183D01*
X280224Y220185D01*
X280193Y220190D01*
X280159Y220198D01*
X280126Y220211D01*
X280094Y220230D01*
X280067Y220253D01*
X280065Y220257D01*
X280057Y220265D01*
X280046Y220282D01*
X280033Y220303D01*
X280019Y220330D01*
X280006Y220362D01*
X279996Y220398D01*
X279987Y220440D01*
X279973D01*
Y220438D01*
X279970Y220433D01*
X279966Y220427D01*
X279962Y220416D01*
X279949Y220391D01*
X279933Y220362D01*
X279909Y220326D01*
X279880Y220290D01*
X279844Y220255D01*
X279804Y220223D01*
X279802D01*
X279800Y220219D01*
X279792Y220217D01*
X279784Y220211D01*
X279773Y220204D01*
X279758Y220198D01*
X279742Y220192D01*
X279725Y220185D01*
X279704Y220177D01*
X279681Y220171D01*
X279655Y220164D01*
X279628Y220158D01*
X279567Y220150D01*
X279500Y220146D01*
X279477D01*
X279460Y220148D01*
X279439Y220150D01*
X279416Y220152D01*
X279391Y220156D01*
X279361Y220160D01*
X279300Y220175D01*
X279269Y220185D01*
X279235Y220198D01*
X279204Y220213D01*
X279172Y220230D01*
X279143Y220249D01*
X279116Y220269D01*
X279114Y220272D01*
X279109Y220276D01*
X279103Y220282D01*
X279093Y220293D01*
X279082Y220305D01*
X279072Y220322D01*
X279057Y220339D01*
X279044Y220360D01*
X279032Y220383D01*
X279019Y220410D01*
X279007Y220438D01*
X278996Y220469D01*
X278986Y220503D01*
X278979Y220538D01*
X278975Y220576D01*
X278973Y220616D01*
Y220618D01*
Y220626D01*
X278975Y220637D01*
Y220652D01*
X278977Y220671D01*
X278981Y220694D01*
X278986Y220717D01*
X278994Y220742D01*
X279002Y220769D01*
X279013Y220797D01*
X279025Y220826D01*
X279042Y220853D01*
X279059Y220881D01*
X279082Y220908D01*
X279105Y220933D01*
X279135Y220956D01*
X279137Y220958D01*
X279143Y220960D01*
X279151Y220967D01*
X279166Y220975D01*
X279183Y220984D01*
X279206Y220994D01*
X279231Y221005D01*
X279261Y221017D01*
X279294Y221028D01*
X279332Y221038D01*
X279374Y221049D01*
X279420Y221057D01*
X279471Y221065D01*
X279527Y221072D01*
X279586Y221074D01*
X279649Y221076D01*
X279966D01*
Y221215D01*
Y221217D01*
Y221223D01*
Y221231D01*
X279964Y221242D01*
Y221256D01*
X279962Y221271D01*
X279956Y221307D01*
X279943Y221349D01*
X279926Y221389D01*
X279905Y221429D01*
X279891Y221445D01*
X279874Y221462D01*
X279870Y221466D01*
X279857Y221475D01*
X279836Y221490D01*
X279807Y221504D01*
X279771Y221519D01*
X279727Y221534D01*
X279674Y221542D01*
X279613Y221546D01*
X279588D01*
X279573Y221544D01*
X279559D01*
X279523Y221538D01*
X279483Y221532D01*
X279441Y221521D01*
X279399Y221506D01*
X279359Y221485D01*
X279355Y221483D01*
X279343Y221475D01*
X279326Y221462D01*
X279303Y221443D01*
X279279Y221420D01*
X279252Y221391D01*
X279227Y221359D01*
X279202Y221322D01*
X279023Y221464D01*
X279025Y221466D01*
X279030Y221475D01*
X279036Y221485D01*
X279046Y221500D01*
X279057Y221519D01*
X279072Y221538D01*
X279088Y221559D01*
X279107Y221580D01*
X279109Y221582D01*
X279118Y221590D01*
X279128Y221601D01*
X279145Y221614D01*
X279164Y221628D01*
X279185Y221645D01*
X279210Y221662D01*
X279238Y221679D01*
X279242Y221681D01*
X279250Y221687D01*
X279267Y221693D01*
X279288Y221704D01*
X279313Y221714D01*
X279343Y221727D01*
X279376Y221737D01*
X279412Y221748D01*
X279414D01*
X279416Y221750D01*
X279422D01*
X279429Y221752D01*
X279450Y221756D01*
X279477Y221763D01*
X279510Y221767D01*
X279548Y221771D01*
X279590Y221773D01*
X279634Y221775D01*
X279662D01*
X279681Y221773D01*
D02*
G37*
G36*
X274494Y220414D02*
X275006D01*
Y220181D01*
X273666D01*
Y220414D01*
X274212D01*
Y221504D01*
X273666D01*
Y221737D01*
X274494D01*
Y220414D01*
D02*
G37*
G36*
X272442Y221737D02*
X273133D01*
Y221504D01*
X272442D01*
Y220414D01*
X273133D01*
Y220181D01*
X272513D01*
X272501Y220183D01*
X272486Y220185D01*
X272467Y220188D01*
X272425Y220194D01*
X272379Y220206D01*
X272333Y220225D01*
X272310Y220236D01*
X272289Y220251D01*
X272270Y220265D01*
X272251Y220284D01*
Y220286D01*
X272247Y220288D01*
X272242Y220295D01*
X272236Y220303D01*
X272230Y220314D01*
X272221Y220326D01*
X272207Y220358D01*
X272190Y220395D01*
X272175Y220442D01*
X272165Y220494D01*
X272163Y220524D01*
X272161Y220553D01*
Y221504D01*
X271663D01*
Y221737D01*
X272037D01*
X272051Y221740D01*
X272070Y221742D01*
X272089Y221746D01*
X272108Y221750D01*
X272125Y221758D01*
X272140Y221769D01*
X272142Y221771D01*
X272146Y221775D01*
X272150Y221784D01*
X272158Y221796D01*
X272165Y221813D01*
X272169Y221832D01*
X272173Y221857D01*
X272175Y221886D01*
Y222288D01*
X272442D01*
Y221737D01*
D02*
G37*
G36*
X269063Y220414D02*
X269575D01*
Y220181D01*
X268236D01*
Y220414D01*
X268782D01*
Y221504D01*
X268236D01*
Y221737D01*
X269063D01*
Y220414D01*
D02*
G37*
G36*
X265907Y222038D02*
X264859D01*
Y221372D01*
X265816D01*
Y221122D01*
X264859D01*
Y220181D01*
X264567D01*
Y222288D01*
X265907D01*
Y222038D01*
D02*
G37*
G36*
X276111Y221773D02*
X276127D01*
X276146Y221771D01*
X276167Y221769D01*
X276214Y221761D01*
X276264Y221750D01*
X276316Y221735D01*
X276367Y221716D01*
X276369D01*
X276373Y221714D01*
X276379Y221710D01*
X276390Y221706D01*
X276400Y221700D01*
X276415Y221693D01*
X276447Y221674D01*
X276482Y221651D01*
X276520Y221624D01*
X276558Y221590D01*
X276596Y221553D01*
X276598Y221550D01*
X276600Y221548D01*
X276604Y221542D01*
X276610Y221534D01*
X276619Y221523D01*
X276627Y221511D01*
X276648Y221481D01*
X276671Y221443D01*
X276696Y221399D01*
X276720Y221351D01*
X276739Y221296D01*
Y221294D01*
X276741Y221290D01*
X276743Y221282D01*
X276747Y221271D01*
X276751Y221256D01*
X276755Y221240D01*
X276760Y221221D01*
X276764Y221198D01*
X276768Y221175D01*
X276772Y221149D01*
X276781Y221093D01*
X276787Y221028D01*
X276789Y220960D01*
Y220958D01*
Y220952D01*
Y220941D01*
Y220929D01*
X276787Y220912D01*
Y220893D01*
X276785Y220870D01*
X276783Y220847D01*
X276776Y220795D01*
X276768Y220738D01*
X276755Y220679D01*
X276739Y220620D01*
Y220618D01*
X276736Y220614D01*
X276734Y220605D01*
X276730Y220595D01*
X276724Y220582D01*
X276717Y220568D01*
X276703Y220532D01*
X276682Y220492D01*
X276659Y220450D01*
X276629Y220406D01*
X276596Y220364D01*
Y220362D01*
X276591Y220360D01*
X276579Y220347D01*
X276558Y220328D01*
X276533Y220305D01*
X276499Y220278D01*
X276459Y220251D01*
X276415Y220225D01*
X276367Y220202D01*
X276365D01*
X276361Y220200D01*
X276354Y220198D01*
X276344Y220194D01*
X276331Y220190D01*
X276316Y220183D01*
X276300Y220179D01*
X276281Y220175D01*
X276237Y220164D01*
X276186Y220154D01*
X276130Y220148D01*
X276069Y220146D01*
X276039D01*
X276025Y220148D01*
X276008D01*
X275989Y220150D01*
X275968Y220152D01*
X275920Y220160D01*
X275869Y220169D01*
X275817Y220183D01*
X275766Y220202D01*
X275764D01*
X275760Y220204D01*
X275754Y220209D01*
X275743Y220213D01*
X275733Y220219D01*
X275720Y220225D01*
X275689Y220244D01*
X275653Y220267D01*
X275615Y220295D01*
X275577Y220326D01*
X275539Y220364D01*
Y220366D01*
X275535Y220368D01*
X275531Y220374D01*
X275525Y220383D01*
X275516Y220393D01*
X275508Y220406D01*
X275487Y220435D01*
X275462Y220473D01*
X275439Y220517D01*
X275415Y220566D01*
X275395Y220620D01*
Y220622D01*
X275392Y220626D01*
X275390Y220635D01*
X275386Y220648D01*
X275384Y220660D01*
X275380Y220679D01*
X275376Y220698D01*
X275371Y220719D01*
X275365Y220744D01*
X275361Y220769D01*
X275355Y220828D01*
X275348Y220891D01*
X275346Y220960D01*
Y220963D01*
Y220969D01*
Y220979D01*
Y220992D01*
X275348Y221009D01*
Y221028D01*
X275350Y221049D01*
X275353Y221072D01*
X275359Y221124D01*
X275367Y221181D01*
X275378Y221240D01*
X275395Y221296D01*
Y221299D01*
X275397Y221303D01*
X275401Y221311D01*
X275403Y221322D01*
X275409Y221334D01*
X275415Y221349D01*
X275432Y221385D01*
X275451Y221425D01*
X275476Y221469D01*
X275506Y221511D01*
X275539Y221553D01*
X275541Y221555D01*
X275544Y221557D01*
X275556Y221569D01*
X275577Y221590D01*
X275602Y221614D01*
X275636Y221639D01*
X275676Y221666D01*
X275718Y221693D01*
X275766Y221716D01*
X275768D01*
X275773Y221719D01*
X275779Y221723D01*
X275789Y221725D01*
X275802Y221731D01*
X275817Y221735D01*
X275833Y221740D01*
X275854Y221746D01*
X275899Y221756D01*
X275949Y221767D01*
X276008Y221773D01*
X276069Y221775D01*
X276096D01*
X276111Y221773D01*
D02*
G37*
G36*
X283650Y219084D02*
X283671Y219082D01*
X283694Y219078D01*
X283721Y219073D01*
X283748Y219067D01*
X283780Y219059D01*
X283809Y219048D01*
X283843Y219036D01*
X283874Y219021D01*
X283906Y219002D01*
X283937Y218981D01*
X283969Y218958D01*
X283996Y218931D01*
X283998Y218929D01*
X284002Y218924D01*
X284009Y218914D01*
X284019Y218903D01*
X284030Y218886D01*
X284042Y218868D01*
X284057Y218845D01*
X284070Y218819D01*
X284084Y218790D01*
X284097Y218756D01*
X284109Y218721D01*
X284120Y218681D01*
X284131Y218639D01*
X284137Y218595D01*
X284141Y218546D01*
X284143Y218494D01*
Y217492D01*
X283862D01*
Y218443D01*
Y218445D01*
Y218448D01*
Y218460D01*
X283860Y218481D01*
X283855Y218506D01*
X283851Y218538D01*
X283843Y218571D01*
X283832Y218607D01*
X283818Y218645D01*
X283801Y218683D01*
X283778Y218719D01*
X283748Y218754D01*
X283715Y218784D01*
X283677Y218809D01*
X283629Y218830D01*
X283576Y218842D01*
X283547Y218845D01*
X283515Y218847D01*
X283490D01*
X283473Y218845D01*
X283452Y218842D01*
X283429Y218840D01*
X283381Y218830D01*
X283379D01*
X283370Y218828D01*
X283358Y218824D01*
X283341Y218817D01*
X283324Y218809D01*
X283303Y218800D01*
X283263Y218775D01*
X283261Y218773D01*
X283255Y218769D01*
X283246Y218760D01*
X283234Y218750D01*
X283221Y218737D01*
X283207Y218723D01*
X283194Y218704D01*
X283181Y218685D01*
X283179Y218683D01*
X283177Y218676D01*
X283171Y218664D01*
X283167Y218649D01*
X283160Y218630D01*
X283154Y218609D01*
X283152Y218586D01*
X283150Y218559D01*
Y217492D01*
X282871D01*
Y219048D01*
X283150D01*
Y218788D01*
X283162D01*
X283165Y218790D01*
X283167Y218798D01*
X283173Y218809D01*
X283179Y218824D01*
X283188Y218840D01*
X283198Y218859D01*
X283223Y218899D01*
X283225Y218901D01*
X283230Y218907D01*
X283238Y218918D01*
X283248Y218931D01*
X283261Y218945D01*
X283278Y218962D01*
X283314Y218994D01*
X283316Y218996D01*
X283324Y219000D01*
X283335Y219008D01*
X283349Y219019D01*
X283368Y219029D01*
X283389Y219040D01*
X283414Y219050D01*
X283440Y219061D01*
X283444Y219063D01*
X283452Y219065D01*
X283469Y219069D01*
X283488Y219073D01*
X283513Y219078D01*
X283542Y219082D01*
X283574Y219086D01*
X283633D01*
X283650Y219084D01*
D02*
G37*
G36*
X278706Y217492D02*
X278427D01*
Y217753D01*
X278410D01*
Y217750D01*
X278408Y217746D01*
X278404Y217738D01*
X278397Y217729D01*
X278391Y217717D01*
X278383Y217702D01*
X278362Y217671D01*
X278334Y217635D01*
X278303Y217599D01*
X278265Y217564D01*
X278223Y217532D01*
X278221D01*
X278217Y217528D01*
X278211Y217526D01*
X278202Y217519D01*
X278192Y217515D01*
X278177Y217509D01*
X278160Y217500D01*
X278143Y217494D01*
X278101Y217479D01*
X278051Y217469D01*
X277996Y217461D01*
X277933Y217456D01*
X277921D01*
X277906Y217459D01*
X277887Y217461D01*
X277864Y217463D01*
X277837Y217467D01*
X277805Y217473D01*
X277774Y217484D01*
X277738Y217494D01*
X277702Y217507D01*
X277667Y217526D01*
X277629Y217545D01*
X277593Y217570D01*
X277557Y217597D01*
X277524Y217629D01*
X277492Y217666D01*
X277490Y217669D01*
X277486Y217677D01*
X277478Y217689D01*
X277467Y217706D01*
X277455Y217727D01*
X277442Y217755D01*
X277427Y217786D01*
X277413Y217822D01*
X277396Y217862D01*
X277381Y217908D01*
X277368Y217956D01*
X277356Y218011D01*
X277345Y218070D01*
X277337Y218133D01*
X277333Y218200D01*
X277331Y218271D01*
Y218273D01*
Y218275D01*
Y218288D01*
X277333Y218309D01*
Y218336D01*
X277335Y218368D01*
X277339Y218406D01*
X277343Y218448D01*
X277352Y218494D01*
X277360Y218540D01*
X277371Y218590D01*
X277383Y218641D01*
X277400Y218691D01*
X277417Y218740D01*
X277440Y218788D01*
X277463Y218832D01*
X277492Y218874D01*
X277495Y218876D01*
X277501Y218882D01*
X277509Y218893D01*
X277522Y218907D01*
X277539Y218922D01*
X277557Y218941D01*
X277581Y218960D01*
X277608Y218981D01*
X277637Y219000D01*
X277671Y219019D01*
X277707Y219038D01*
X277747Y219052D01*
X277788Y219067D01*
X277835Y219078D01*
X277883Y219084D01*
X277933Y219086D01*
X277950D01*
X277963Y219084D01*
X277977D01*
X277994Y219082D01*
X278034Y219075D01*
X278080Y219067D01*
X278129Y219052D01*
X278177Y219034D01*
X278223Y219008D01*
X278225D01*
X278229Y219004D01*
X278234Y219000D01*
X278242Y218994D01*
X278263Y218977D01*
X278290Y218952D01*
X278320Y218922D01*
X278351Y218884D01*
X278383Y218838D01*
X278410Y218788D01*
X278427D01*
Y219724D01*
X278706D01*
Y217492D01*
D02*
G37*
G36*
X274607Y219084D02*
X274626Y219082D01*
X274649Y219080D01*
X274676Y219075D01*
X274708Y219069D01*
X274739Y219059D01*
X274775Y219048D01*
X274811Y219034D01*
X274846Y219017D01*
X274884Y218996D01*
X274920Y218973D01*
X274956Y218943D01*
X274989Y218912D01*
X275021Y218874D01*
X275023Y218872D01*
X275027Y218863D01*
X275035Y218851D01*
X275046Y218834D01*
X275059Y218813D01*
X275071Y218786D01*
X275086Y218754D01*
X275103Y218719D01*
X275117Y218679D01*
X275132Y218635D01*
X275145Y218584D01*
X275157Y218530D01*
X275168Y218473D01*
X275176Y218410D01*
X275180Y218343D01*
X275182Y218271D01*
Y218269D01*
Y218267D01*
Y218254D01*
Y218233D01*
X275180Y218206D01*
X275178Y218175D01*
X275174Y218137D01*
X275170Y218095D01*
X275161Y218049D01*
X275153Y218000D01*
X275143Y217952D01*
X275130Y217902D01*
X275115Y217851D01*
X275096Y217801D01*
X275073Y217753D01*
X275050Y217708D01*
X275021Y217666D01*
X275019Y217664D01*
X275012Y217658D01*
X275004Y217648D01*
X274991Y217633D01*
X274974Y217618D01*
X274956Y217599D01*
X274933Y217580D01*
X274905Y217561D01*
X274876Y217543D01*
X274842Y217524D01*
X274806Y217505D01*
X274767Y217490D01*
X274725Y217475D01*
X274678Y217465D01*
X274630Y217459D01*
X274580Y217456D01*
X274563D01*
X274550Y217459D01*
X274536D01*
X274519Y217461D01*
X274479Y217467D01*
X274433Y217475D01*
X274384Y217488D01*
X274336Y217507D01*
X274290Y217532D01*
X274288D01*
X274286Y217536D01*
X274279Y217540D01*
X274271Y217547D01*
X274250Y217564D01*
X274223Y217589D01*
X274193Y217618D01*
X274162Y217658D01*
X274130Y217702D01*
X274103Y217753D01*
X274088D01*
Y216889D01*
X273807D01*
Y219048D01*
X274088D01*
Y218788D01*
X274103D01*
Y218790D01*
X274107Y218794D01*
X274109Y218802D01*
X274116Y218811D01*
X274122Y218824D01*
X274130Y218838D01*
X274153Y218870D01*
X274179Y218905D01*
X274212Y218941D01*
X274248Y218977D01*
X274290Y219008D01*
X274292D01*
X274296Y219012D01*
X274303Y219015D01*
X274311Y219021D01*
X274324Y219027D01*
X274336Y219034D01*
X274353Y219040D01*
X274370Y219048D01*
X274412Y219061D01*
X274462Y219073D01*
X274519Y219082D01*
X274580Y219086D01*
X274592D01*
X274607Y219084D01*
D02*
G37*
G36*
X270917D02*
X270938D01*
X270961Y219082D01*
X270987Y219078D01*
X271014Y219073D01*
X271075Y219061D01*
X271136Y219044D01*
X271199Y219019D01*
X271228Y219002D01*
X271255Y218985D01*
X271257Y218983D01*
X271262Y218981D01*
X271270Y218975D01*
X271279Y218966D01*
X271291Y218958D01*
X271306Y218945D01*
X271337Y218916D01*
X271371Y218878D01*
X271407Y218832D01*
X271440Y218781D01*
X271470Y218723D01*
X271249Y218603D01*
Y218605D01*
X271247Y218607D01*
X271245Y218614D01*
X271241Y218622D01*
X271230Y218643D01*
X271218Y218668D01*
X271199Y218698D01*
X271176Y218727D01*
X271146Y218756D01*
X271115Y218784D01*
X271111Y218786D01*
X271098Y218794D01*
X271079Y218805D01*
X271052Y218817D01*
X271016Y218830D01*
X270976Y218840D01*
X270930Y218849D01*
X270880Y218851D01*
X270861D01*
X270846Y218849D01*
X270829Y218847D01*
X270810Y218845D01*
X270789Y218840D01*
X270764Y218836D01*
X270714Y218819D01*
X270688Y218811D01*
X270663Y218798D01*
X270636Y218784D01*
X270613Y218767D01*
X270588Y218748D01*
X270567Y218725D01*
X270565Y218723D01*
X270562Y218719D01*
X270556Y218712D01*
X270550Y218702D01*
X270541Y218689D01*
X270533Y218674D01*
X270522Y218658D01*
X270512Y218637D01*
X270501Y218616D01*
X270491Y218590D01*
X270483Y218565D01*
X270474Y218536D01*
X270462Y218473D01*
X270460Y218439D01*
X270457Y218404D01*
Y218137D01*
Y218135D01*
Y218128D01*
Y218118D01*
X270460Y218105D01*
X270462Y218089D01*
X270464Y218068D01*
X270466Y218046D01*
X270472Y218023D01*
X270485Y217973D01*
X270504Y217918D01*
X270516Y217891D01*
X270531Y217866D01*
X270548Y217841D01*
X270567Y217815D01*
X270569Y217813D01*
X270573Y217809D01*
X270579Y217805D01*
X270588Y217797D01*
X270598Y217786D01*
X270613Y217776D01*
X270630Y217765D01*
X270649Y217755D01*
X270670Y217742D01*
X270693Y217731D01*
X270720Y217721D01*
X270749Y217710D01*
X270779Y217702D01*
X270812Y217698D01*
X270848Y217694D01*
X270886Y217692D01*
X270901D01*
X270911Y217694D01*
X270924D01*
X270938Y217696D01*
X270974Y217700D01*
X271012Y217708D01*
X271054Y217721D01*
X271096Y217738D01*
X271134Y217761D01*
X271136D01*
X271138Y217765D01*
X271150Y217774D01*
X271167Y217790D01*
X271190Y217811D01*
X271216Y217839D01*
X271241Y217872D01*
X271266Y217910D01*
X271291Y217954D01*
X271493Y217820D01*
Y217818D01*
X271488Y217813D01*
X271486Y217805D01*
X271480Y217792D01*
X271472Y217780D01*
X271463Y217763D01*
X271440Y217727D01*
X271409Y217685D01*
X271371Y217641D01*
X271325Y217597D01*
X271272Y217557D01*
X271270Y217555D01*
X271266Y217553D01*
X271257Y217549D01*
X271245Y217543D01*
X271230Y217534D01*
X271211Y217526D01*
X271190Y217517D01*
X271167Y217507D01*
X271140Y217498D01*
X271111Y217488D01*
X271079Y217479D01*
X271045Y217473D01*
X271008Y217465D01*
X270968Y217461D01*
X270928Y217459D01*
X270884Y217456D01*
X270854D01*
X270840Y217459D01*
X270823D01*
X270802Y217461D01*
X270781Y217463D01*
X270732Y217471D01*
X270682Y217479D01*
X270630Y217494D01*
X270577Y217513D01*
X270575D01*
X270571Y217515D01*
X270565Y217519D01*
X270554Y217524D01*
X270544Y217530D01*
X270529Y217536D01*
X270499Y217555D01*
X270464Y217578D01*
X270424Y217605D01*
X270386Y217639D01*
X270350Y217677D01*
Y217679D01*
X270346Y217681D01*
X270342Y217687D01*
X270336Y217696D01*
X270327Y217706D01*
X270319Y217719D01*
X270298Y217748D01*
X270275Y217786D01*
X270252Y217830D01*
X270229Y217879D01*
X270208Y217933D01*
Y217935D01*
X270205Y217939D01*
X270203Y217948D01*
X270199Y217960D01*
X270197Y217973D01*
X270193Y217990D01*
X270189Y218009D01*
X270184Y218032D01*
X270178Y218055D01*
X270174Y218082D01*
X270168Y218139D01*
X270161Y218202D01*
X270159Y218271D01*
Y218273D01*
Y218280D01*
Y218290D01*
Y218303D01*
X270161Y218317D01*
Y218336D01*
X270163Y218357D01*
X270165Y218383D01*
X270172Y218433D01*
X270180Y218490D01*
X270191Y218548D01*
X270208Y218605D01*
Y218607D01*
X270210Y218611D01*
X270214Y218620D01*
X270216Y218630D01*
X270222Y218643D01*
X270229Y218660D01*
X270245Y218693D01*
X270264Y218735D01*
X270289Y218777D01*
X270317Y218821D01*
X270350Y218863D01*
X270352Y218865D01*
X270355Y218868D01*
X270367Y218880D01*
X270386Y218901D01*
X270413Y218924D01*
X270447Y218950D01*
X270485Y218977D01*
X270529Y219004D01*
X270577Y219027D01*
X270579D01*
X270583Y219029D01*
X270590Y219034D01*
X270600Y219036D01*
X270613Y219042D01*
X270630Y219046D01*
X270646Y219050D01*
X270665Y219057D01*
X270709Y219067D01*
X270762Y219078D01*
X270819Y219084D01*
X270880Y219086D01*
X270903D01*
X270917Y219084D01*
D02*
G37*
G36*
X269643Y217492D02*
X269363D01*
Y217753D01*
X269351D01*
Y217750D01*
X269346Y217742D01*
X269342Y217729D01*
X269334Y217715D01*
X269325Y217698D01*
X269315Y217679D01*
X269290Y217637D01*
X269288Y217635D01*
X269284Y217629D01*
X269275Y217618D01*
X269265Y217605D01*
X269250Y217591D01*
X269235Y217576D01*
X269197Y217545D01*
X269195Y217543D01*
X269189Y217538D01*
X269176Y217530D01*
X269162Y217522D01*
X269143Y217511D01*
X269122Y217500D01*
X269099Y217490D01*
X269071Y217482D01*
X269067D01*
X269059Y217477D01*
X269044Y217473D01*
X269023Y217469D01*
X269000Y217465D01*
X268971Y217461D01*
X268939Y217459D01*
X268903Y217456D01*
X268893D01*
X268880Y217459D01*
X268864D01*
X268843Y217461D01*
X268819Y217465D01*
X268792Y217469D01*
X268765Y217475D01*
X268733Y217484D01*
X268702Y217494D01*
X268670Y217507D01*
X268637Y217522D01*
X268605Y217538D01*
X268574Y217559D01*
X268544Y217582D01*
X268515Y217610D01*
X268513Y217612D01*
X268509Y217616D01*
X268502Y217627D01*
X268492Y217639D01*
X268481Y217654D01*
X268469Y217673D01*
X268456Y217696D01*
X268443Y217721D01*
X268429Y217750D01*
X268416Y217784D01*
X268404Y217820D01*
X268393Y217860D01*
X268383Y217902D01*
X268376Y217946D01*
X268372Y217994D01*
X268370Y218046D01*
Y219048D01*
X268651D01*
Y218095D01*
Y218093D01*
Y218091D01*
Y218078D01*
X268653Y218057D01*
X268658Y218032D01*
X268662Y218002D01*
X268670Y217969D01*
X268681Y217933D01*
X268695Y217895D01*
X268712Y217858D01*
X268735Y217822D01*
X268765Y217788D01*
X268798Y217759D01*
X268838Y217734D01*
X268884Y217713D01*
X268937Y217700D01*
X268966Y217698D01*
X268998Y217696D01*
X269023D01*
X269040Y217698D01*
X269061Y217700D01*
X269084Y217702D01*
X269132Y217710D01*
X269134D01*
X269143Y217715D01*
X269155Y217717D01*
X269172Y217723D01*
X269189Y217731D01*
X269208Y217740D01*
X269248Y217763D01*
X269250Y217765D01*
X269256Y217769D01*
X269267Y217778D01*
X269277Y217788D01*
X269292Y217801D01*
X269304Y217818D01*
X269332Y217853D01*
X269334Y217855D01*
X269336Y217864D01*
X269342Y217874D01*
X269349Y217889D01*
X269353Y217908D01*
X269359Y217931D01*
X269361Y217954D01*
X269363Y217981D01*
Y219048D01*
X269643D01*
Y217492D01*
D02*
G37*
G36*
X281354Y218340D02*
X281371D01*
X281629Y218595D01*
X282112Y219048D01*
X282448D01*
X281810Y218437D01*
X282524Y217492D01*
X282180D01*
X281602Y218275D01*
X281354Y218049D01*
Y217492D01*
X281075D01*
Y219724D01*
X281354D01*
Y218340D01*
D02*
G37*
G36*
X276249Y219084D02*
X276274Y219082D01*
X276302Y219078D01*
X276331Y219073D01*
X276365Y219069D01*
X276436Y219052D01*
X276474Y219040D01*
X276512Y219027D01*
X276547Y219010D01*
X276583Y218991D01*
X276619Y218970D01*
X276650Y218945D01*
X276652Y218943D01*
X276657Y218939D01*
X276665Y218931D01*
X276676Y218920D01*
X276688Y218905D01*
X276703Y218886D01*
X276717Y218868D01*
X276732Y218842D01*
X276747Y218817D01*
X276762Y218786D01*
X276776Y218754D01*
X276789Y218719D01*
X276799Y218681D01*
X276808Y218639D01*
X276812Y218595D01*
X276814Y218548D01*
Y217725D01*
X277024D01*
Y217492D01*
X276827D01*
X276816Y217494D01*
X276793Y217496D01*
X276762Y217500D01*
X276728Y217509D01*
X276694Y217522D01*
X276663Y217540D01*
X276636Y217564D01*
X276634Y217568D01*
X276625Y217576D01*
X276615Y217593D01*
X276602Y217614D01*
X276587Y217641D01*
X276575Y217673D01*
X276564Y217708D01*
X276556Y217750D01*
X276541D01*
Y217748D01*
X276539Y217744D01*
X276535Y217738D01*
X276531Y217727D01*
X276518Y217702D01*
X276501Y217673D01*
X276478Y217637D01*
X276449Y217601D01*
X276413Y217566D01*
X276373Y217534D01*
X276371D01*
X276369Y217530D01*
X276361Y217528D01*
X276352Y217522D01*
X276342Y217515D01*
X276327Y217509D01*
X276310Y217503D01*
X276293Y217496D01*
X276272Y217488D01*
X276249Y217482D01*
X276224Y217475D01*
X276197Y217469D01*
X276136Y217461D01*
X276069Y217456D01*
X276045D01*
X276029Y217459D01*
X276008Y217461D01*
X275985Y217463D01*
X275959Y217467D01*
X275930Y217471D01*
X275869Y217486D01*
X275838Y217496D01*
X275804Y217509D01*
X275773Y217524D01*
X275741Y217540D01*
X275712Y217559D01*
X275684Y217580D01*
X275682Y217582D01*
X275678Y217587D01*
X275672Y217593D01*
X275661Y217603D01*
X275651Y217616D01*
X275640Y217633D01*
X275625Y217650D01*
X275613Y217671D01*
X275600Y217694D01*
X275588Y217721D01*
X275575Y217748D01*
X275565Y217780D01*
X275554Y217813D01*
X275548Y217849D01*
X275544Y217887D01*
X275541Y217927D01*
Y217929D01*
Y217937D01*
X275544Y217948D01*
Y217963D01*
X275546Y217981D01*
X275550Y218004D01*
X275554Y218028D01*
X275563Y218053D01*
X275571Y218080D01*
X275581Y218107D01*
X275594Y218137D01*
X275611Y218164D01*
X275628Y218191D01*
X275651Y218219D01*
X275674Y218244D01*
X275703Y218267D01*
X275705Y218269D01*
X275712Y218271D01*
X275720Y218278D01*
X275735Y218286D01*
X275751Y218294D01*
X275775Y218305D01*
X275800Y218315D01*
X275829Y218328D01*
X275863Y218338D01*
X275901Y218349D01*
X275943Y218359D01*
X275989Y218368D01*
X276039Y218376D01*
X276096Y218383D01*
X276155Y218385D01*
X276218Y218387D01*
X276535D01*
Y218525D01*
Y218527D01*
Y218534D01*
Y218542D01*
X276533Y218553D01*
Y218567D01*
X276531Y218582D01*
X276524Y218618D01*
X276512Y218660D01*
X276495Y218700D01*
X276474Y218740D01*
X276459Y218756D01*
X276442Y218773D01*
X276438Y218777D01*
X276426Y218786D01*
X276405Y218800D01*
X276375Y218815D01*
X276340Y218830D01*
X276295Y218845D01*
X276243Y218853D01*
X276182Y218857D01*
X276157D01*
X276142Y218855D01*
X276127D01*
X276092Y218849D01*
X276052Y218842D01*
X276010Y218832D01*
X275968Y218817D01*
X275928Y218796D01*
X275924Y218794D01*
X275911Y218786D01*
X275894Y218773D01*
X275871Y218754D01*
X275848Y218731D01*
X275821Y218702D01*
X275796Y218670D01*
X275770Y218632D01*
X275592Y218775D01*
X275594Y218777D01*
X275598Y218786D01*
X275605Y218796D01*
X275615Y218811D01*
X275625Y218830D01*
X275640Y218849D01*
X275657Y218870D01*
X275676Y218891D01*
X275678Y218893D01*
X275686Y218901D01*
X275697Y218912D01*
X275714Y218924D01*
X275733Y218939D01*
X275754Y218956D01*
X275779Y218973D01*
X275806Y218989D01*
X275810Y218991D01*
X275819Y218998D01*
X275835Y219004D01*
X275856Y219015D01*
X275882Y219025D01*
X275911Y219038D01*
X275945Y219048D01*
X275980Y219059D01*
X275982D01*
X275985Y219061D01*
X275991D01*
X275997Y219063D01*
X276018Y219067D01*
X276045Y219073D01*
X276079Y219078D01*
X276117Y219082D01*
X276159Y219084D01*
X276203Y219086D01*
X276230D01*
X276249Y219084D01*
D02*
G37*
G36*
X272289Y218788D02*
X272301D01*
X272303Y218790D01*
X272305Y218798D01*
X272312Y218809D01*
X272318Y218824D01*
X272326Y218840D01*
X272337Y218859D01*
X272362Y218899D01*
X272364Y218901D01*
X272368Y218907D01*
X272377Y218918D01*
X272387Y218931D01*
X272400Y218945D01*
X272417Y218962D01*
X272452Y218994D01*
X272455Y218996D01*
X272463Y219000D01*
X272473Y219008D01*
X272488Y219019D01*
X272507Y219029D01*
X272528Y219040D01*
X272553Y219050D01*
X272578Y219061D01*
X272583Y219063D01*
X272591Y219065D01*
X272608Y219069D01*
X272627Y219073D01*
X272652Y219078D01*
X272681Y219082D01*
X272713Y219086D01*
X272772D01*
X272788Y219084D01*
X272809Y219082D01*
X272832Y219078D01*
X272860Y219073D01*
X272887Y219067D01*
X272919Y219059D01*
X272948Y219048D01*
X272982Y219036D01*
X273013Y219021D01*
X273045Y219002D01*
X273076Y218981D01*
X273108Y218958D01*
X273135Y218931D01*
X273137Y218929D01*
X273141Y218924D01*
X273148Y218914D01*
X273158Y218903D01*
X273168Y218886D01*
X273181Y218868D01*
X273196Y218845D01*
X273208Y218819D01*
X273223Y218790D01*
X273236Y218756D01*
X273248Y218721D01*
X273259Y218681D01*
X273269Y218639D01*
X273276Y218595D01*
X273280Y218546D01*
X273282Y218494D01*
Y217492D01*
X273001D01*
Y218443D01*
Y218445D01*
Y218448D01*
Y218460D01*
X272998Y218481D01*
X272994Y218506D01*
X272990Y218538D01*
X272982Y218571D01*
X272971Y218607D01*
X272956Y218645D01*
X272940Y218683D01*
X272917Y218719D01*
X272887Y218754D01*
X272853Y218784D01*
X272816Y218809D01*
X272767Y218830D01*
X272715Y218842D01*
X272686Y218845D01*
X272654Y218847D01*
X272629D01*
X272612Y218845D01*
X272591Y218842D01*
X272568Y218840D01*
X272520Y218830D01*
X272517D01*
X272509Y218828D01*
X272497Y218824D01*
X272480Y218817D01*
X272463Y218809D01*
X272442Y218800D01*
X272402Y218775D01*
X272400Y218773D01*
X272394Y218769D01*
X272385Y218760D01*
X272373Y218750D01*
X272360Y218737D01*
X272345Y218723D01*
X272333Y218704D01*
X272320Y218685D01*
X272318Y218683D01*
X272316Y218676D01*
X272310Y218664D01*
X272305Y218649D01*
X272299Y218630D01*
X272293Y218609D01*
X272291Y218586D01*
X272289Y218559D01*
Y217492D01*
X272009D01*
Y219724D01*
X272289D01*
Y218788D01*
D02*
G37*
G36*
X266226Y219349D02*
X265541D01*
Y217492D01*
X265251D01*
Y219349D01*
X264565D01*
Y219598D01*
X266226D01*
Y219349D01*
D02*
G37*
G36*
X286760Y218788D02*
X286774D01*
Y218790D01*
X286779Y218794D01*
X286781Y218802D01*
X286787Y218811D01*
X286793Y218824D01*
X286802Y218838D01*
X286825Y218870D01*
X286850Y218905D01*
X286884Y218941D01*
X286919Y218977D01*
X286961Y219008D01*
X286963D01*
X286968Y219012D01*
X286974Y219015D01*
X286982Y219021D01*
X286995Y219027D01*
X287007Y219034D01*
X287024Y219040D01*
X287041Y219048D01*
X287083Y219061D01*
X287134Y219073D01*
X287190Y219082D01*
X287251Y219086D01*
X287264D01*
X287278Y219084D01*
X287297Y219082D01*
X287320Y219080D01*
X287348Y219075D01*
X287379Y219069D01*
X287411Y219059D01*
X287446Y219048D01*
X287482Y219034D01*
X287518Y219017D01*
X287556Y218996D01*
X287591Y218973D01*
X287627Y218943D01*
X287661Y218912D01*
X287692Y218874D01*
X287694Y218872D01*
X287698Y218863D01*
X287707Y218851D01*
X287717Y218834D01*
X287730Y218813D01*
X287742Y218786D01*
X287757Y218754D01*
X287774Y218719D01*
X287789Y218679D01*
X287803Y218635D01*
X287816Y218584D01*
X287829Y218530D01*
X287839Y218473D01*
X287847Y218410D01*
X287852Y218343D01*
X287854Y218271D01*
Y218269D01*
Y218267D01*
Y218254D01*
Y218233D01*
X287852Y218206D01*
X287850Y218175D01*
X287845Y218137D01*
X287841Y218095D01*
X287833Y218049D01*
X287824Y218000D01*
X287814Y217952D01*
X287801Y217902D01*
X287787Y217851D01*
X287768Y217801D01*
X287745Y217753D01*
X287721Y217708D01*
X287692Y217666D01*
X287690Y217664D01*
X287684Y217658D01*
X287675Y217648D01*
X287663Y217633D01*
X287646Y217618D01*
X287627Y217599D01*
X287604Y217580D01*
X287577Y217561D01*
X287547Y217543D01*
X287514Y217524D01*
X287478Y217505D01*
X287438Y217490D01*
X287396Y217475D01*
X287350Y217465D01*
X287301Y217459D01*
X287251Y217456D01*
X287234D01*
X287222Y217459D01*
X287207D01*
X287190Y217461D01*
X287150Y217467D01*
X287104Y217475D01*
X287056Y217488D01*
X287007Y217507D01*
X286961Y217532D01*
X286959D01*
X286957Y217536D01*
X286951Y217540D01*
X286942Y217547D01*
X286921Y217564D01*
X286894Y217589D01*
X286865Y217618D01*
X286833Y217658D01*
X286802Y217702D01*
X286774Y217753D01*
X286760D01*
Y217492D01*
X286478D01*
Y219724D01*
X286760D01*
Y218788D01*
D02*
G37*
G36*
X285351Y219084D02*
X285367D01*
X285386Y219082D01*
X285407Y219080D01*
X285454Y219071D01*
X285504Y219061D01*
X285556Y219046D01*
X285607Y219027D01*
X285609D01*
X285613Y219025D01*
X285619Y219021D01*
X285630Y219017D01*
X285640Y219010D01*
X285655Y219004D01*
X285687Y218985D01*
X285722Y218962D01*
X285760Y218935D01*
X285798Y218901D01*
X285836Y218863D01*
X285838Y218861D01*
X285840Y218859D01*
X285844Y218853D01*
X285850Y218845D01*
X285859Y218834D01*
X285867Y218821D01*
X285888Y218792D01*
X285911Y218754D01*
X285936Y218710D01*
X285960Y218662D01*
X285979Y218607D01*
Y218605D01*
X285981Y218601D01*
X285983Y218593D01*
X285987Y218582D01*
X285991Y218567D01*
X285995Y218550D01*
X285999Y218532D01*
X286004Y218509D01*
X286008Y218485D01*
X286012Y218460D01*
X286020Y218404D01*
X286027Y218338D01*
X286029Y218271D01*
Y218269D01*
Y218263D01*
Y218252D01*
Y218240D01*
X286027Y218223D01*
Y218204D01*
X286025Y218181D01*
X286023Y218158D01*
X286016Y218105D01*
X286008Y218049D01*
X285995Y217990D01*
X285979Y217931D01*
Y217929D01*
X285976Y217925D01*
X285974Y217916D01*
X285970Y217906D01*
X285964Y217893D01*
X285958Y217879D01*
X285943Y217843D01*
X285922Y217803D01*
X285899Y217761D01*
X285869Y217717D01*
X285836Y217675D01*
Y217673D01*
X285831Y217671D01*
X285819Y217658D01*
X285798Y217639D01*
X285773Y217616D01*
X285739Y217589D01*
X285699Y217561D01*
X285655Y217536D01*
X285607Y217513D01*
X285605D01*
X285600Y217511D01*
X285594Y217509D01*
X285584Y217505D01*
X285571Y217500D01*
X285556Y217494D01*
X285540Y217490D01*
X285521Y217486D01*
X285477Y217475D01*
X285426Y217465D01*
X285369Y217459D01*
X285309Y217456D01*
X285279D01*
X285264Y217459D01*
X285248D01*
X285229Y217461D01*
X285208Y217463D01*
X285159Y217471D01*
X285109Y217479D01*
X285057Y217494D01*
X285006Y217513D01*
X285004D01*
X285000Y217515D01*
X284994Y217519D01*
X284983Y217524D01*
X284973Y217530D01*
X284960Y217536D01*
X284928Y217555D01*
X284893Y217578D01*
X284855Y217605D01*
X284817Y217637D01*
X284779Y217675D01*
Y217677D01*
X284775Y217679D01*
X284771Y217685D01*
X284765Y217694D01*
X284756Y217704D01*
X284748Y217717D01*
X284727Y217746D01*
X284702Y217784D01*
X284679Y217828D01*
X284655Y217876D01*
X284634Y217931D01*
Y217933D01*
X284632Y217937D01*
X284630Y217946D01*
X284626Y217958D01*
X284624Y217971D01*
X284620Y217990D01*
X284616Y218009D01*
X284611Y218030D01*
X284605Y218055D01*
X284601Y218080D01*
X284595Y218139D01*
X284588Y218202D01*
X284586Y218271D01*
Y218273D01*
Y218280D01*
Y218290D01*
Y218303D01*
X284588Y218320D01*
Y218338D01*
X284590Y218359D01*
X284593Y218383D01*
X284599Y218435D01*
X284607Y218492D01*
X284618Y218550D01*
X284634Y218607D01*
Y218609D01*
X284637Y218614D01*
X284641Y218622D01*
X284643Y218632D01*
X284649Y218645D01*
X284655Y218660D01*
X284672Y218695D01*
X284691Y218735D01*
X284716Y218779D01*
X284746Y218821D01*
X284779Y218863D01*
X284782Y218865D01*
X284784Y218868D01*
X284796Y218880D01*
X284817Y218901D01*
X284842Y218924D01*
X284876Y218950D01*
X284916Y218977D01*
X284958Y219004D01*
X285006Y219027D01*
X285008D01*
X285013Y219029D01*
X285019Y219034D01*
X285029Y219036D01*
X285042Y219042D01*
X285057Y219046D01*
X285073Y219050D01*
X285094Y219057D01*
X285139Y219067D01*
X285189Y219078D01*
X285248Y219084D01*
X285309Y219086D01*
X285336D01*
X285351Y219084D01*
D02*
G37*
G36*
X267249D02*
X267265D01*
X267284Y219082D01*
X267305Y219080D01*
X267352Y219071D01*
X267402Y219061D01*
X267454Y219046D01*
X267505Y219027D01*
X267507D01*
X267511Y219025D01*
X267517Y219021D01*
X267528Y219017D01*
X267538Y219010D01*
X267553Y219004D01*
X267585Y218985D01*
X267620Y218962D01*
X267658Y218935D01*
X267696Y218901D01*
X267734Y218863D01*
X267736Y218861D01*
X267738Y218859D01*
X267742Y218853D01*
X267748Y218845D01*
X267757Y218834D01*
X267765Y218821D01*
X267786Y218792D01*
X267809Y218754D01*
X267834Y218710D01*
X267858Y218662D01*
X267877Y218607D01*
Y218605D01*
X267879Y218601D01*
X267881Y218593D01*
X267885Y218582D01*
X267889Y218567D01*
X267893Y218550D01*
X267898Y218532D01*
X267902Y218509D01*
X267906Y218485D01*
X267910Y218460D01*
X267918Y218404D01*
X267925Y218338D01*
X267927Y218271D01*
Y218269D01*
Y218263D01*
Y218252D01*
Y218240D01*
X267925Y218223D01*
Y218204D01*
X267923Y218181D01*
X267921Y218158D01*
X267914Y218105D01*
X267906Y218049D01*
X267893Y217990D01*
X267877Y217931D01*
Y217929D01*
X267874Y217925D01*
X267872Y217916D01*
X267868Y217906D01*
X267862Y217893D01*
X267856Y217879D01*
X267841Y217843D01*
X267820Y217803D01*
X267797Y217761D01*
X267767Y217717D01*
X267734Y217675D01*
Y217673D01*
X267729Y217671D01*
X267717Y217658D01*
X267696Y217639D01*
X267671Y217616D01*
X267637Y217589D01*
X267597Y217561D01*
X267553Y217536D01*
X267505Y217513D01*
X267503D01*
X267498Y217511D01*
X267492Y217509D01*
X267482Y217505D01*
X267469Y217500D01*
X267454Y217494D01*
X267438Y217490D01*
X267419Y217486D01*
X267375Y217475D01*
X267324Y217465D01*
X267267Y217459D01*
X267207Y217456D01*
X267177D01*
X267162Y217459D01*
X267146D01*
X267127Y217461D01*
X267106Y217463D01*
X267057Y217471D01*
X267007Y217479D01*
X266955Y217494D01*
X266904Y217513D01*
X266902D01*
X266898Y217515D01*
X266892Y217519D01*
X266881Y217524D01*
X266871Y217530D01*
X266858Y217536D01*
X266827Y217555D01*
X266791Y217578D01*
X266753Y217605D01*
X266715Y217637D01*
X266677Y217675D01*
Y217677D01*
X266673Y217679D01*
X266669Y217685D01*
X266663Y217694D01*
X266654Y217704D01*
X266646Y217717D01*
X266625Y217746D01*
X266600Y217784D01*
X266577Y217828D01*
X266553Y217876D01*
X266532Y217931D01*
Y217933D01*
X266530Y217937D01*
X266528Y217946D01*
X266524Y217958D01*
X266522Y217971D01*
X266518Y217990D01*
X266514Y218009D01*
X266509Y218030D01*
X266503Y218055D01*
X266499Y218080D01*
X266493Y218139D01*
X266486Y218202D01*
X266484Y218271D01*
Y218273D01*
Y218280D01*
Y218290D01*
Y218303D01*
X266486Y218320D01*
Y218338D01*
X266488Y218359D01*
X266491Y218383D01*
X266497Y218435D01*
X266505Y218492D01*
X266516Y218550D01*
X266532Y218607D01*
Y218609D01*
X266535Y218614D01*
X266539Y218622D01*
X266541Y218632D01*
X266547Y218645D01*
X266553Y218660D01*
X266570Y218695D01*
X266589Y218735D01*
X266614Y218779D01*
X266644Y218821D01*
X266677Y218863D01*
X266680Y218865D01*
X266682Y218868D01*
X266694Y218880D01*
X266715Y218901D01*
X266740Y218924D01*
X266774Y218950D01*
X266814Y218977D01*
X266856Y219004D01*
X266904Y219027D01*
X266906D01*
X266911Y219029D01*
X266917Y219034D01*
X266927Y219036D01*
X266940Y219042D01*
X266955Y219046D01*
X266971Y219050D01*
X266992Y219057D01*
X267037Y219067D01*
X267087Y219078D01*
X267146Y219084D01*
X267207Y219086D01*
X267234D01*
X267249Y219084D01*
D02*
G37*
G36*
X287039Y216376D02*
X287054D01*
X287089Y216374D01*
X287129Y216367D01*
X287171Y216361D01*
X287215Y216351D01*
X287257Y216336D01*
X287260D01*
X287262Y216334D01*
X287268Y216332D01*
X287276Y216330D01*
X287295Y216319D01*
X287322Y216306D01*
X287352Y216292D01*
X287383Y216273D01*
X287415Y216252D01*
X287444Y216227D01*
X287449Y216225D01*
X287457Y216214D01*
X287472Y216201D01*
X287491Y216182D01*
X287511Y216159D01*
X287535Y216132D01*
X287556Y216103D01*
X287577Y216071D01*
X287579Y216067D01*
X287585Y216056D01*
X287596Y216040D01*
X287608Y216017D01*
X287623Y215989D01*
X287640Y215958D01*
X287654Y215924D01*
X287669Y215889D01*
X287413Y215788D01*
X287411Y215792D01*
X287409Y215800D01*
X287402Y215813D01*
X287396Y215830D01*
X287386Y215851D01*
X287375Y215872D01*
X287352Y215918D01*
X287350Y215920D01*
X287346Y215928D01*
X287339Y215941D01*
X287329Y215956D01*
X287316Y215972D01*
X287304Y215991D01*
X287270Y216027D01*
X287268Y216029D01*
X287262Y216036D01*
X287251Y216044D01*
X287239Y216054D01*
X287222Y216067D01*
X287203Y216080D01*
X287182Y216092D01*
X287157Y216103D01*
X287155Y216105D01*
X287146Y216107D01*
X287131Y216111D01*
X287112Y216117D01*
X287089Y216122D01*
X287062Y216126D01*
X287033Y216128D01*
X286999Y216130D01*
X286980D01*
X286957Y216128D01*
X286930Y216124D01*
X286896Y216117D01*
X286863Y216109D01*
X286827Y216098D01*
X286793Y216082D01*
X286789Y216080D01*
X286779Y216073D01*
X286762Y216063D01*
X286743Y216048D01*
X286720Y216029D01*
X286695Y216006D01*
X286671Y215979D01*
X286648Y215947D01*
X286646Y215943D01*
X286640Y215933D01*
X286630Y215914D01*
X286617Y215889D01*
X286602Y215859D01*
X286588Y215823D01*
X286575Y215781D01*
X286562Y215737D01*
Y215735D01*
X286560Y215731D01*
Y215725D01*
X286558Y215716D01*
X286556Y215704D01*
X286554Y215691D01*
X286548Y215657D01*
X286541Y215616D01*
X286537Y215569D01*
X286535Y215517D01*
X286533Y215462D01*
Y215114D01*
Y215111D01*
Y215107D01*
Y215099D01*
Y215088D01*
Y215076D01*
X286535Y215059D01*
X286537Y215023D01*
X286539Y214979D01*
X286545Y214933D01*
X286552Y214887D01*
X286562Y214839D01*
Y214836D01*
X286564Y214832D01*
X286566Y214826D01*
X286569Y214818D01*
X286575Y214794D01*
X286583Y214765D01*
X286596Y214731D01*
X286611Y214698D01*
X286630Y214660D01*
X286648Y214626D01*
X286650Y214622D01*
X286659Y214612D01*
X286671Y214597D01*
X286688Y214578D01*
X286709Y214557D01*
X286735Y214534D01*
X286762Y214513D01*
X286793Y214494D01*
X286797Y214492D01*
X286808Y214488D01*
X286827Y214479D01*
X286852Y214471D01*
X286881Y214463D01*
X286917Y214454D01*
X286957Y214450D01*
X286999Y214448D01*
X287014D01*
X287033Y214450D01*
X287054Y214452D01*
X287079Y214454D01*
X287104Y214458D01*
X287131Y214465D01*
X287157Y214473D01*
X287159Y214475D01*
X287167Y214477D01*
X287180Y214484D01*
X287196Y214492D01*
X287213Y214503D01*
X287232Y214515D01*
X287270Y214547D01*
X287272Y214549D01*
X287278Y214555D01*
X287287Y214565D01*
X287299Y214578D01*
X287312Y214595D01*
X287325Y214614D01*
X287352Y214656D01*
X287354Y214658D01*
X287358Y214666D01*
X287365Y214679D01*
X287373Y214696D01*
X287381Y214717D01*
X287392Y214738D01*
X287413Y214788D01*
X287669Y214687D01*
X287667Y214683D01*
X287663Y214670D01*
X287654Y214652D01*
X287644Y214629D01*
X287629Y214599D01*
X287614Y214570D01*
X287577Y214503D01*
X287575Y214498D01*
X287568Y214488D01*
X287556Y214471D01*
X287541Y214450D01*
X287522Y214427D01*
X287499Y214402D01*
X287474Y214374D01*
X287444Y214347D01*
X287440Y214345D01*
X287430Y214337D01*
X287415Y214324D01*
X287392Y214309D01*
X287365Y214293D01*
X287333Y214274D01*
X287297Y214257D01*
X287257Y214240D01*
X287255D01*
X287253Y214238D01*
X287247Y214236D01*
X287239Y214234D01*
X287228Y214232D01*
X287215Y214227D01*
X287186Y214221D01*
X287148Y214213D01*
X287104Y214206D01*
X287056Y214202D01*
X287001Y214200D01*
X286984D01*
X286963Y214202D01*
X286936Y214204D01*
X286905Y214209D01*
X286867Y214215D01*
X286825Y214223D01*
X286781Y214236D01*
X286732Y214250D01*
X286684Y214269D01*
X286636Y214293D01*
X286588Y214320D01*
X286539Y214351D01*
X286493Y214389D01*
X286451Y214431D01*
X286413Y214481D01*
X286411Y214486D01*
X286405Y214494D01*
X286396Y214511D01*
X286384Y214534D01*
X286369Y214563D01*
X286352Y214599D01*
X286335Y214639D01*
X286319Y214687D01*
X286300Y214742D01*
X286283Y214803D01*
X286266Y214868D01*
X286251Y214941D01*
X286239Y215019D01*
X286230Y215103D01*
X286224Y215193D01*
X286222Y215288D01*
Y215290D01*
Y215294D01*
Y215300D01*
Y215311D01*
Y215324D01*
X286224Y215338D01*
Y215355D01*
Y215374D01*
X286228Y215418D01*
X286233Y215469D01*
X286239Y215525D01*
X286245Y215586D01*
X286256Y215649D01*
X286268Y215716D01*
X286285Y215784D01*
X286302Y215851D01*
X286325Y215916D01*
X286350Y215979D01*
X286380Y216040D01*
X286413Y216094D01*
X286415Y216098D01*
X286422Y216107D01*
X286434Y216120D01*
X286449Y216138D01*
X286470Y216159D01*
X286495Y216185D01*
X286525Y216210D01*
X286560Y216237D01*
X286598Y216262D01*
X286642Y216287D01*
X286690Y216313D01*
X286743Y216334D01*
X286800Y216353D01*
X286863Y216365D01*
X286930Y216376D01*
X287001Y216378D01*
X287026D01*
X287039Y216376D01*
D02*
G37*
G36*
X294948Y215788D02*
X294593D01*
Y215695D01*
X294595D01*
X294597Y215693D01*
X294607Y215683D01*
X294624Y215668D01*
X294645Y215647D01*
X294668Y215622D01*
X294691Y215592D01*
X294714Y215559D01*
X294736Y215521D01*
Y215519D01*
X294738Y215517D01*
X294740Y215511D01*
X294744Y215502D01*
X294752Y215481D01*
X294761Y215454D01*
X294769Y215418D01*
X294777Y215380D01*
X294784Y215336D01*
X294786Y215288D01*
Y215286D01*
Y215282D01*
Y215275D01*
Y215267D01*
X294784Y215244D01*
X294780Y215214D01*
X294775Y215179D01*
X294767Y215141D01*
X294754Y215101D01*
X294740Y215063D01*
Y215061D01*
X294738Y215059D01*
X294731Y215046D01*
X294721Y215027D01*
X294708Y215004D01*
X294689Y214979D01*
X294668Y214950D01*
X294643Y214922D01*
X294614Y214895D01*
X294609Y214893D01*
X294599Y214885D01*
X294582Y214872D01*
X294559Y214855D01*
X294530Y214839D01*
X294496Y214820D01*
X294458Y214803D01*
X294416Y214786D01*
X294414D01*
X294412Y214784D01*
X294406Y214782D01*
X294397Y214780D01*
X294385Y214778D01*
X294372Y214773D01*
X294343Y214767D01*
X294305Y214761D01*
X294263Y214755D01*
X294215Y214750D01*
X294164Y214748D01*
X294110D01*
X294078Y214750D01*
X294072D01*
X294063Y214752D01*
X294053D01*
X294028Y214757D01*
X293998Y214763D01*
X293996D01*
X293992Y214761D01*
X293986Y214759D01*
X293977Y214757D01*
X293956Y214748D01*
X293931Y214740D01*
X293929D01*
X293925Y214738D01*
X293919Y214736D01*
X293910Y214731D01*
X293891Y214723D01*
X293868Y214708D01*
X293866D01*
X293864Y214704D01*
X293851Y214694D01*
X293835Y214679D01*
X293820Y214660D01*
Y214658D01*
X293818Y214656D01*
X293814Y214650D01*
X293811Y214641D01*
X293803Y214622D01*
X293801Y214597D01*
Y214595D01*
X293803Y214586D01*
X293805Y214574D01*
X293809Y214559D01*
X293818Y214542D01*
X293830Y214528D01*
X293847Y214515D01*
X293870Y214505D01*
X293875D01*
X293883Y214500D01*
X293898Y214498D01*
X293919Y214494D01*
X293944Y214490D01*
X293975Y214488D01*
X294009Y214484D01*
X294423D01*
X294444Y214481D01*
X294469Y214479D01*
X294498Y214477D01*
X294530Y214473D01*
X294565Y214469D01*
X294637Y214456D01*
X294710Y214435D01*
X294746Y214423D01*
X294780Y214406D01*
X294811Y214389D01*
X294838Y214368D01*
X294841Y214366D01*
X294845Y214362D01*
X294851Y214355D01*
X294859Y214347D01*
X294870Y214335D01*
X294882Y214322D01*
X294893Y214305D01*
X294908Y214286D01*
X294920Y214265D01*
X294931Y214242D01*
X294943Y214217D01*
X294954Y214190D01*
X294962Y214160D01*
X294969Y214129D01*
X294973Y214097D01*
X294975Y214061D01*
Y214059D01*
Y214051D01*
X294973Y214038D01*
Y214022D01*
X294969Y214003D01*
X294964Y213980D01*
X294958Y213954D01*
X294950Y213927D01*
X294939Y213900D01*
X294927Y213870D01*
X294910Y213841D01*
X294891Y213812D01*
X294870Y213784D01*
X294843Y213757D01*
X294813Y213732D01*
X294777Y213709D01*
X294775Y213707D01*
X294769Y213704D01*
X294757Y213698D01*
X294740Y213692D01*
X294719Y213684D01*
X294693Y213673D01*
X294664Y213663D01*
X294628Y213652D01*
X294588Y213642D01*
X294544Y213631D01*
X294494Y213623D01*
X294442Y213612D01*
X294383Y213606D01*
X294318Y213599D01*
X294250Y213597D01*
X294177Y213595D01*
X294127D01*
X294108Y213597D01*
X294085D01*
X294061Y213599D01*
X294009Y213602D01*
X293952Y213608D01*
X293898Y213614D01*
X293843Y213623D01*
X293841D01*
X293837Y213625D01*
X293830D01*
X293820Y213627D01*
X293797Y213633D01*
X293765Y213642D01*
X293730Y213652D01*
X293694Y213665D01*
X293656Y213681D01*
X293622Y213698D01*
X293618Y213700D01*
X293608Y213707D01*
X293593Y213717D01*
X293576Y213732D01*
X293555Y213749D01*
X293534Y213770D01*
X293515Y213793D01*
X293499Y213818D01*
X293496Y213822D01*
X293492Y213830D01*
X293486Y213845D01*
X293480Y213864D01*
X293473Y213887D01*
X293467Y213914D01*
X293463Y213944D01*
X293461Y213978D01*
Y213980D01*
Y213984D01*
Y213990D01*
X293463Y213999D01*
X293465Y214022D01*
X293469Y214049D01*
X293478Y214080D01*
X293490Y214114D01*
X293505Y214145D01*
X293528Y214175D01*
X293532Y214177D01*
X293541Y214185D01*
X293557Y214198D01*
X293578Y214213D01*
X293606Y214229D01*
X293639Y214246D01*
X293679Y214263D01*
X293723Y214276D01*
Y214309D01*
X293719Y214311D01*
X293711Y214316D01*
X293698Y214322D01*
X293681Y214332D01*
X293662Y214343D01*
X293643Y214358D01*
X293627Y214374D01*
X293610Y214393D01*
X293608Y214395D01*
X293604Y214404D01*
X293597Y214414D01*
X293591Y214429D01*
X293583Y214450D01*
X293576Y214473D01*
X293572Y214498D01*
X293570Y214528D01*
Y214530D01*
Y214534D01*
Y214538D01*
X293572Y214547D01*
X293574Y214570D01*
X293581Y214595D01*
X293589Y214624D01*
X293604Y214654D01*
X293622Y214681D01*
X293648Y214706D01*
X293652Y214708D01*
X293662Y214717D01*
X293679Y214727D01*
X293702Y214740D01*
X293732Y214755D01*
X293765Y214769D01*
X293805Y214784D01*
X293849Y214796D01*
Y214811D01*
X293847D01*
X293843Y214813D01*
X293835Y214818D01*
X293826Y214824D01*
X293814Y214830D01*
X293799Y214839D01*
X293767Y214857D01*
X293732Y214885D01*
X293694Y214916D01*
X293658Y214954D01*
X293627Y214996D01*
Y214998D01*
X293622Y215002D01*
X293620Y215009D01*
X293614Y215019D01*
X293608Y215030D01*
X293601Y215044D01*
X293595Y215061D01*
X293589Y215080D01*
X293574Y215122D01*
X293562Y215172D01*
X293553Y215227D01*
X293549Y215288D01*
Y215290D01*
Y215294D01*
Y215300D01*
Y215309D01*
X293551Y215332D01*
X293555Y215361D01*
X293560Y215395D01*
X293566Y215433D01*
X293576Y215473D01*
X293591Y215511D01*
Y215513D01*
X293593Y215515D01*
X293599Y215527D01*
X293610Y215546D01*
X293622Y215569D01*
X293641Y215597D01*
X293662Y215624D01*
X293688Y215653D01*
X293717Y215681D01*
X293721Y215683D01*
X293732Y215691D01*
X293748Y215704D01*
X293772Y215721D01*
X293801Y215737D01*
X293835Y215756D01*
X293872Y215773D01*
X293912Y215790D01*
X293914D01*
X293917Y215792D01*
X293923Y215794D01*
X293933Y215796D01*
X293944Y215798D01*
X293956Y215802D01*
X293986Y215811D01*
X294024Y215817D01*
X294066Y215823D01*
X294114Y215828D01*
X294164Y215830D01*
X294194D01*
X294211Y215828D01*
X294227D01*
X294246Y215826D01*
X294269Y215823D01*
X294316Y215815D01*
X294366Y215805D01*
X294416Y215790D01*
X294465Y215771D01*
Y215811D01*
Y215813D01*
Y215815D01*
Y215826D01*
X294467Y215842D01*
X294471Y215863D01*
X294475Y215889D01*
X294483Y215914D01*
X294496Y215939D01*
X294511Y215962D01*
X294513Y215964D01*
X294519Y215972D01*
X294532Y215981D01*
X294549Y215993D01*
X294570Y216004D01*
X294597Y216015D01*
X294628Y216021D01*
X294664Y216023D01*
X294948D01*
Y215788D01*
D02*
G37*
G36*
X284086D02*
X283732D01*
Y215695D01*
X283734D01*
X283736Y215693D01*
X283746Y215683D01*
X283763Y215668D01*
X283784Y215647D01*
X283807Y215622D01*
X283830Y215592D01*
X283853Y215559D01*
X283874Y215521D01*
Y215519D01*
X283876Y215517D01*
X283878Y215511D01*
X283883Y215502D01*
X283891Y215481D01*
X283899Y215454D01*
X283908Y215418D01*
X283916Y215380D01*
X283923Y215336D01*
X283925Y215288D01*
Y215286D01*
Y215282D01*
Y215275D01*
Y215267D01*
X283923Y215244D01*
X283918Y215214D01*
X283914Y215179D01*
X283906Y215141D01*
X283893Y215101D01*
X283878Y215063D01*
Y215061D01*
X283876Y215059D01*
X283870Y215046D01*
X283860Y215027D01*
X283847Y215004D01*
X283828Y214979D01*
X283807Y214950D01*
X283782Y214922D01*
X283752Y214895D01*
X283748Y214893D01*
X283738Y214885D01*
X283721Y214872D01*
X283698Y214855D01*
X283668Y214839D01*
X283635Y214820D01*
X283597Y214803D01*
X283555Y214786D01*
X283553D01*
X283551Y214784D01*
X283545Y214782D01*
X283536Y214780D01*
X283524Y214778D01*
X283511Y214773D01*
X283482Y214767D01*
X283444Y214761D01*
X283402Y214755D01*
X283353Y214750D01*
X283303Y214748D01*
X283248D01*
X283217Y214750D01*
X283211D01*
X283202Y214752D01*
X283192D01*
X283167Y214757D01*
X283137Y214763D01*
X283135D01*
X283131Y214761D01*
X283125Y214759D01*
X283116Y214757D01*
X283095Y214748D01*
X283070Y214740D01*
X283068D01*
X283064Y214738D01*
X283057Y214736D01*
X283049Y214731D01*
X283030Y214723D01*
X283007Y214708D01*
X283005D01*
X283003Y214704D01*
X282990Y214694D01*
X282973Y214679D01*
X282959Y214660D01*
Y214658D01*
X282957Y214656D01*
X282952Y214650D01*
X282950Y214641D01*
X282942Y214622D01*
X282940Y214597D01*
Y214595D01*
X282942Y214586D01*
X282944Y214574D01*
X282948Y214559D01*
X282957Y214542D01*
X282969Y214528D01*
X282986Y214515D01*
X283009Y214505D01*
X283013D01*
X283022Y214500D01*
X283036Y214498D01*
X283057Y214494D01*
X283083Y214490D01*
X283114Y214488D01*
X283148Y214484D01*
X283561D01*
X283582Y214481D01*
X283608Y214479D01*
X283637Y214477D01*
X283668Y214473D01*
X283704Y214469D01*
X283776Y214456D01*
X283849Y214435D01*
X283885Y214423D01*
X283918Y214406D01*
X283950Y214389D01*
X283977Y214368D01*
X283979Y214366D01*
X283983Y214362D01*
X283990Y214355D01*
X283998Y214347D01*
X284009Y214335D01*
X284021Y214322D01*
X284032Y214305D01*
X284047Y214286D01*
X284059Y214265D01*
X284070Y214242D01*
X284082Y214217D01*
X284093Y214190D01*
X284101Y214160D01*
X284107Y214129D01*
X284112Y214097D01*
X284114Y214061D01*
Y214059D01*
Y214051D01*
X284112Y214038D01*
Y214022D01*
X284107Y214003D01*
X284103Y213980D01*
X284097Y213954D01*
X284088Y213927D01*
X284078Y213900D01*
X284065Y213870D01*
X284049Y213841D01*
X284030Y213812D01*
X284009Y213784D01*
X283981Y213757D01*
X283952Y213732D01*
X283916Y213709D01*
X283914Y213707D01*
X283908Y213704D01*
X283895Y213698D01*
X283878Y213692D01*
X283857Y213684D01*
X283832Y213673D01*
X283803Y213663D01*
X283767Y213652D01*
X283727Y213642D01*
X283683Y213631D01*
X283633Y213623D01*
X283580Y213612D01*
X283522Y213606D01*
X283456Y213599D01*
X283389Y213597D01*
X283316Y213595D01*
X283265D01*
X283246Y213597D01*
X283223D01*
X283200Y213599D01*
X283148Y213602D01*
X283091Y213608D01*
X283036Y213614D01*
X282982Y213623D01*
X282980D01*
X282976Y213625D01*
X282969D01*
X282959Y213627D01*
X282936Y213633D01*
X282904Y213642D01*
X282868Y213652D01*
X282833Y213665D01*
X282795Y213681D01*
X282761Y213698D01*
X282757Y213700D01*
X282747Y213707D01*
X282732Y213717D01*
X282715Y213732D01*
X282694Y213749D01*
X282673Y213770D01*
X282654Y213793D01*
X282637Y213818D01*
X282635Y213822D01*
X282631Y213830D01*
X282625Y213845D01*
X282618Y213864D01*
X282612Y213887D01*
X282606Y213914D01*
X282602Y213944D01*
X282600Y213978D01*
Y213980D01*
Y213984D01*
Y213990D01*
X282602Y213999D01*
X282604Y214022D01*
X282608Y214049D01*
X282616Y214080D01*
X282629Y214114D01*
X282644Y214145D01*
X282667Y214175D01*
X282671Y214177D01*
X282679Y214185D01*
X282696Y214198D01*
X282717Y214213D01*
X282745Y214229D01*
X282778Y214246D01*
X282818Y214263D01*
X282862Y214276D01*
Y214309D01*
X282858Y214311D01*
X282850Y214316D01*
X282837Y214322D01*
X282820Y214332D01*
X282801Y214343D01*
X282782Y214358D01*
X282766Y214374D01*
X282749Y214393D01*
X282747Y214395D01*
X282742Y214404D01*
X282736Y214414D01*
X282730Y214429D01*
X282721Y214450D01*
X282715Y214473D01*
X282711Y214498D01*
X282709Y214528D01*
Y214530D01*
Y214534D01*
Y214538D01*
X282711Y214547D01*
X282713Y214570D01*
X282719Y214595D01*
X282728Y214624D01*
X282742Y214654D01*
X282761Y214681D01*
X282786Y214706D01*
X282791Y214708D01*
X282801Y214717D01*
X282818Y214727D01*
X282841Y214740D01*
X282871Y214755D01*
X282904Y214769D01*
X282944Y214784D01*
X282988Y214796D01*
Y214811D01*
X282986D01*
X282982Y214813D01*
X282973Y214818D01*
X282965Y214824D01*
X282952Y214830D01*
X282938Y214839D01*
X282906Y214857D01*
X282871Y214885D01*
X282833Y214916D01*
X282797Y214954D01*
X282766Y214996D01*
Y214998D01*
X282761Y215002D01*
X282759Y215009D01*
X282753Y215019D01*
X282747Y215030D01*
X282740Y215044D01*
X282734Y215061D01*
X282728Y215080D01*
X282713Y215122D01*
X282700Y215172D01*
X282692Y215227D01*
X282688Y215288D01*
Y215290D01*
Y215294D01*
Y215300D01*
Y215309D01*
X282690Y215332D01*
X282694Y215361D01*
X282698Y215395D01*
X282705Y215433D01*
X282715Y215473D01*
X282730Y215511D01*
Y215513D01*
X282732Y215515D01*
X282738Y215527D01*
X282749Y215546D01*
X282761Y215569D01*
X282780Y215597D01*
X282801Y215624D01*
X282826Y215653D01*
X282856Y215681D01*
X282860Y215683D01*
X282871Y215691D01*
X282887Y215704D01*
X282910Y215721D01*
X282940Y215737D01*
X282973Y215756D01*
X283011Y215773D01*
X283051Y215790D01*
X283053D01*
X283055Y215792D01*
X283062Y215794D01*
X283072Y215796D01*
X283083Y215798D01*
X283095Y215802D01*
X283125Y215811D01*
X283162Y215817D01*
X283204Y215823D01*
X283253Y215828D01*
X283303Y215830D01*
X283332D01*
X283349Y215828D01*
X283366D01*
X283385Y215826D01*
X283408Y215823D01*
X283454Y215815D01*
X283505Y215805D01*
X283555Y215790D01*
X283603Y215771D01*
Y215811D01*
Y215813D01*
Y215815D01*
Y215826D01*
X283606Y215842D01*
X283610Y215863D01*
X283614Y215889D01*
X283622Y215914D01*
X283635Y215939D01*
X283650Y215962D01*
X283652Y215964D01*
X283658Y215972D01*
X283671Y215981D01*
X283687Y215993D01*
X283708Y216004D01*
X283736Y216015D01*
X283767Y216021D01*
X283803Y216023D01*
X284086D01*
Y215788D01*
D02*
G37*
G36*
X292518Y215828D02*
X292539Y215826D01*
X292562Y215821D01*
X292589Y215817D01*
X292617Y215811D01*
X292648Y215802D01*
X292677Y215792D01*
X292711Y215779D01*
X292743Y215765D01*
X292774Y215746D01*
X292806Y215725D01*
X292837Y215702D01*
X292864Y215674D01*
X292866Y215672D01*
X292871Y215668D01*
X292877Y215657D01*
X292887Y215647D01*
X292898Y215630D01*
X292911Y215611D01*
X292925Y215588D01*
X292938Y215563D01*
X292953Y215534D01*
X292965Y215500D01*
X292978Y215464D01*
X292988Y215424D01*
X292999Y215382D01*
X293005Y215338D01*
X293009Y215290D01*
X293011Y215237D01*
Y214236D01*
X292730D01*
Y215187D01*
Y215189D01*
Y215191D01*
Y215204D01*
X292728Y215225D01*
X292724Y215250D01*
X292720Y215282D01*
X292711Y215315D01*
X292701Y215351D01*
X292686Y215389D01*
X292669Y215426D01*
X292646Y215462D01*
X292617Y215498D01*
X292583Y215527D01*
X292545Y215552D01*
X292497Y215574D01*
X292444Y215586D01*
X292415Y215588D01*
X292384Y215590D01*
X292358D01*
X292341Y215588D01*
X292320Y215586D01*
X292297Y215584D01*
X292249Y215574D01*
X292247D01*
X292239Y215571D01*
X292226Y215567D01*
X292209Y215561D01*
X292192Y215552D01*
X292171Y215544D01*
X292131Y215519D01*
X292129Y215517D01*
X292123Y215513D01*
X292115Y215504D01*
X292102Y215494D01*
X292090Y215481D01*
X292075Y215466D01*
X292062Y215447D01*
X292050Y215429D01*
X292048Y215426D01*
X292045Y215420D01*
X292039Y215408D01*
X292035Y215393D01*
X292029Y215374D01*
X292022Y215353D01*
X292020Y215330D01*
X292018Y215303D01*
Y214236D01*
X291739D01*
Y215792D01*
X292018D01*
Y215531D01*
X292031D01*
X292033Y215534D01*
X292035Y215542D01*
X292041Y215552D01*
X292048Y215567D01*
X292056Y215584D01*
X292066Y215603D01*
X292092Y215643D01*
X292094Y215645D01*
X292098Y215651D01*
X292106Y215662D01*
X292117Y215674D01*
X292129Y215689D01*
X292146Y215706D01*
X292182Y215737D01*
X292184Y215739D01*
X292192Y215744D01*
X292203Y215752D01*
X292218Y215762D01*
X292236Y215773D01*
X292257Y215784D01*
X292283Y215794D01*
X292308Y215805D01*
X292312Y215807D01*
X292320Y215809D01*
X292337Y215813D01*
X292356Y215817D01*
X292381Y215821D01*
X292411Y215826D01*
X292442Y215830D01*
X292501D01*
X292518Y215828D01*
D02*
G37*
G36*
X281657D02*
X281678Y215826D01*
X281701Y215821D01*
X281728Y215817D01*
X281755Y215811D01*
X281787Y215802D01*
X281816Y215792D01*
X281850Y215779D01*
X281881Y215765D01*
X281913Y215746D01*
X281944Y215725D01*
X281976Y215702D01*
X282003Y215674D01*
X282005Y215672D01*
X282010Y215668D01*
X282016Y215657D01*
X282026Y215647D01*
X282037Y215630D01*
X282049Y215611D01*
X282064Y215588D01*
X282077Y215563D01*
X282091Y215534D01*
X282104Y215500D01*
X282117Y215464D01*
X282127Y215424D01*
X282138Y215382D01*
X282144Y215338D01*
X282148Y215290D01*
X282150Y215237D01*
Y214236D01*
X281869D01*
Y215187D01*
Y215189D01*
Y215191D01*
Y215204D01*
X281867Y215225D01*
X281862Y215250D01*
X281858Y215282D01*
X281850Y215315D01*
X281839Y215351D01*
X281825Y215389D01*
X281808Y215426D01*
X281785Y215462D01*
X281755Y215498D01*
X281722Y215527D01*
X281684Y215552D01*
X281636Y215574D01*
X281583Y215586D01*
X281554Y215588D01*
X281522Y215590D01*
X281497D01*
X281480Y215588D01*
X281459Y215586D01*
X281436Y215584D01*
X281388Y215574D01*
X281386D01*
X281377Y215571D01*
X281365Y215567D01*
X281348Y215561D01*
X281331Y215552D01*
X281310Y215544D01*
X281270Y215519D01*
X281268Y215517D01*
X281262Y215513D01*
X281254Y215504D01*
X281241Y215494D01*
X281228Y215481D01*
X281214Y215466D01*
X281201Y215447D01*
X281188Y215429D01*
X281186Y215426D01*
X281184Y215420D01*
X281178Y215408D01*
X281174Y215393D01*
X281167Y215374D01*
X281161Y215353D01*
X281159Y215330D01*
X281157Y215303D01*
Y214236D01*
X280878D01*
Y215792D01*
X281157D01*
Y215531D01*
X281170D01*
X281172Y215534D01*
X281174Y215542D01*
X281180Y215552D01*
X281186Y215567D01*
X281195Y215584D01*
X281205Y215603D01*
X281230Y215643D01*
X281233Y215645D01*
X281237Y215651D01*
X281245Y215662D01*
X281256Y215674D01*
X281268Y215689D01*
X281285Y215706D01*
X281321Y215737D01*
X281323Y215739D01*
X281331Y215744D01*
X281342Y215752D01*
X281356Y215762D01*
X281375Y215773D01*
X281396Y215784D01*
X281421Y215794D01*
X281447Y215805D01*
X281451Y215807D01*
X281459Y215809D01*
X281476Y215813D01*
X281495Y215817D01*
X281520Y215821D01*
X281550Y215826D01*
X281581Y215830D01*
X281640D01*
X281657Y215828D01*
D02*
G37*
G36*
X268985D02*
X269006Y215826D01*
X269029Y215821D01*
X269057Y215817D01*
X269084Y215811D01*
X269115Y215802D01*
X269145Y215792D01*
X269179Y215779D01*
X269210Y215765D01*
X269241Y215746D01*
X269273Y215725D01*
X269304Y215702D01*
X269332Y215674D01*
X269334Y215672D01*
X269338Y215668D01*
X269344Y215657D01*
X269355Y215647D01*
X269365Y215630D01*
X269378Y215611D01*
X269393Y215588D01*
X269405Y215563D01*
X269420Y215534D01*
X269433Y215500D01*
X269445Y215464D01*
X269456Y215424D01*
X269466Y215382D01*
X269473Y215338D01*
X269477Y215290D01*
X269479Y215237D01*
Y214236D01*
X269197D01*
Y215187D01*
Y215189D01*
Y215191D01*
Y215204D01*
X269195Y215225D01*
X269191Y215250D01*
X269187Y215282D01*
X269179Y215315D01*
X269168Y215351D01*
X269153Y215389D01*
X269137Y215426D01*
X269113Y215462D01*
X269084Y215498D01*
X269050Y215527D01*
X269013Y215552D01*
X268964Y215574D01*
X268912Y215586D01*
X268882Y215588D01*
X268851Y215590D01*
X268826D01*
X268809Y215588D01*
X268788Y215586D01*
X268765Y215584D01*
X268717Y215574D01*
X268714D01*
X268706Y215571D01*
X268693Y215567D01*
X268677Y215561D01*
X268660Y215552D01*
X268639Y215544D01*
X268599Y215519D01*
X268597Y215517D01*
X268590Y215513D01*
X268582Y215504D01*
X268569Y215494D01*
X268557Y215481D01*
X268542Y215466D01*
X268530Y215447D01*
X268517Y215429D01*
X268515Y215426D01*
X268513Y215420D01*
X268507Y215408D01*
X268502Y215393D01*
X268496Y215374D01*
X268490Y215353D01*
X268488Y215330D01*
X268485Y215303D01*
Y214236D01*
X268206D01*
Y215792D01*
X268485D01*
Y215531D01*
X268498D01*
X268500Y215534D01*
X268502Y215542D01*
X268509Y215552D01*
X268515Y215567D01*
X268523Y215584D01*
X268534Y215603D01*
X268559Y215643D01*
X268561Y215645D01*
X268565Y215651D01*
X268574Y215662D01*
X268584Y215674D01*
X268597Y215689D01*
X268614Y215706D01*
X268649Y215737D01*
X268651Y215739D01*
X268660Y215744D01*
X268670Y215752D01*
X268685Y215762D01*
X268704Y215773D01*
X268725Y215784D01*
X268750Y215794D01*
X268775Y215805D01*
X268779Y215807D01*
X268788Y215809D01*
X268805Y215813D01*
X268824Y215817D01*
X268849Y215821D01*
X268878Y215826D01*
X268910Y215830D01*
X268969D01*
X268985Y215828D01*
D02*
G37*
G36*
X276146D02*
X276167Y215826D01*
X276192Y215823D01*
X276218Y215821D01*
X276276Y215813D01*
X276340Y215802D01*
X276402Y215786D01*
X276463Y215762D01*
X276466D01*
X276470Y215760D01*
X276478Y215756D01*
X276491Y215750D01*
X276503Y215744D01*
X276518Y215735D01*
X276556Y215714D01*
X276598Y215689D01*
X276642Y215657D01*
X276686Y215622D01*
X276728Y215582D01*
X276556Y215412D01*
X276554Y215414D01*
X276552Y215418D01*
X276545Y215424D01*
X276537Y215433D01*
X276516Y215454D01*
X276486Y215479D01*
X276484Y215481D01*
X276478Y215485D01*
X276470Y215492D01*
X276459Y215500D01*
X276445Y215511D01*
X276428Y215521D01*
X276388Y215542D01*
X276386Y215544D01*
X276377Y215546D01*
X276367Y215552D01*
X276350Y215559D01*
X276331Y215565D01*
X276308Y215574D01*
X276283Y215582D01*
X276255Y215588D01*
X276251D01*
X276243Y215590D01*
X276226Y215595D01*
X276205Y215599D01*
X276180Y215601D01*
X276148Y215605D01*
X276115Y215607D01*
X276052D01*
X276037Y215605D01*
X276020D01*
X275982Y215599D01*
X275938Y215592D01*
X275894Y215582D01*
X275852Y215567D01*
X275815Y215546D01*
X275810Y215544D01*
X275800Y215536D01*
X275785Y215521D01*
X275770Y215502D01*
X275754Y215479D01*
X275739Y215450D01*
X275728Y215416D01*
X275726Y215397D01*
X275724Y215376D01*
Y215374D01*
Y215368D01*
X275726Y215357D01*
Y215342D01*
X275733Y215313D01*
X275745Y215282D01*
Y215280D01*
X275749Y215275D01*
X275754Y215269D01*
X275760Y215261D01*
X275779Y215242D01*
X275802Y215221D01*
X275804D01*
X275808Y215216D01*
X275817Y215212D01*
X275825Y215208D01*
X275838Y215202D01*
X275852Y215195D01*
X275884Y215185D01*
X275886D01*
X275892Y215183D01*
X275903Y215181D01*
X275915Y215179D01*
X275930Y215175D01*
X275947Y215172D01*
X275982Y215164D01*
X276228Y215128D01*
X276232D01*
X276243Y215126D01*
X276260Y215124D01*
X276283Y215120D01*
X276310Y215114D01*
X276342Y215107D01*
X276373Y215099D01*
X276409Y215090D01*
X276413D01*
X276426Y215086D01*
X276442Y215080D01*
X276466Y215074D01*
X276493Y215063D01*
X276520Y215051D01*
X276550Y215038D01*
X276579Y215021D01*
X276583Y215019D01*
X276591Y215013D01*
X276606Y215002D01*
X276623Y214988D01*
X276644Y214971D01*
X276665Y214948D01*
X276686Y214925D01*
X276705Y214895D01*
X276707Y214891D01*
X276713Y214880D01*
X276722Y214864D01*
X276730Y214841D01*
X276739Y214811D01*
X276747Y214778D01*
X276753Y214738D01*
X276755Y214694D01*
Y214691D01*
Y214683D01*
X276753Y214670D01*
Y214656D01*
X276749Y214635D01*
X276745Y214612D01*
X276741Y214586D01*
X276732Y214559D01*
X276724Y214532D01*
X276711Y214500D01*
X276696Y214471D01*
X276680Y214440D01*
X276659Y214410D01*
X276634Y214381D01*
X276606Y214353D01*
X276575Y214328D01*
X276573Y214326D01*
X276566Y214322D01*
X276556Y214316D01*
X276541Y214309D01*
X276524Y214299D01*
X276501Y214288D01*
X276476Y214276D01*
X276447Y214265D01*
X276413Y214253D01*
X276377Y214240D01*
X276337Y214229D01*
X276293Y214221D01*
X276245Y214213D01*
X276197Y214206D01*
X276142Y214202D01*
X276085Y214200D01*
X276062D01*
X276043Y214202D01*
X276022D01*
X275997Y214204D01*
X275970Y214206D01*
X275938Y214211D01*
X275907Y214215D01*
X275871Y214219D01*
X275800Y214234D01*
X275726Y214253D01*
X275657Y214280D01*
X275655D01*
X275649Y214284D01*
X275640Y214288D01*
X275628Y214295D01*
X275611Y214303D01*
X275594Y214314D01*
X275552Y214339D01*
X275506Y214370D01*
X275455Y214408D01*
X275407Y214452D01*
X275361Y214500D01*
X275539Y214660D01*
X275541Y214658D01*
X275544Y214656D01*
X275550Y214650D01*
X275558Y214641D01*
X275579Y214620D01*
X275609Y214595D01*
X275644Y214568D01*
X275684Y214538D01*
X275728Y214509D01*
X275777Y214484D01*
X275779D01*
X275783Y214481D01*
X275791Y214477D01*
X275800Y214475D01*
X275812Y214469D01*
X275829Y214465D01*
X275846Y214458D01*
X275867Y214454D01*
X275888Y214448D01*
X275913Y214442D01*
X275966Y214433D01*
X276027Y214425D01*
X276092Y214423D01*
X276121D01*
X276136Y214425D01*
X276153Y214427D01*
X276190Y214431D01*
X276237Y214437D01*
X276283Y214448D01*
X276329Y214463D01*
X276371Y214481D01*
X276373D01*
X276375Y214484D01*
X276388Y214494D01*
X276405Y214507D01*
X276426Y214528D01*
X276445Y214555D01*
X276461Y214589D01*
X276474Y214626D01*
X276476Y214650D01*
X276478Y214673D01*
Y214675D01*
Y214681D01*
Y214691D01*
X276476Y214704D01*
X276470Y214736D01*
X276457Y214765D01*
Y214767D01*
X276453Y214771D01*
X276449Y214778D01*
X276442Y214786D01*
X276424Y214807D01*
X276398Y214826D01*
X276396Y214828D01*
X276392Y214830D01*
X276384Y214834D01*
X276375Y214839D01*
X276363Y214845D01*
X276348Y214849D01*
X276316Y214860D01*
X276314D01*
X276308Y214862D01*
X276300Y214864D01*
X276287Y214868D01*
X276272Y214870D01*
X276255Y214874D01*
X276218Y214880D01*
X275974Y214918D01*
X275970D01*
X275959Y214920D01*
X275940Y214922D01*
X275917Y214927D01*
X275890Y214931D01*
X275861Y214937D01*
X275827Y214944D01*
X275791Y214952D01*
X275787Y214954D01*
X275777Y214956D01*
X275758Y214962D01*
X275735Y214969D01*
X275710Y214979D01*
X275680Y214992D01*
X275651Y215006D01*
X275621Y215023D01*
X275617Y215025D01*
X275609Y215032D01*
X275594Y215042D01*
X275577Y215057D01*
X275558Y215076D01*
X275537Y215097D01*
X275516Y215122D01*
X275495Y215149D01*
X275493Y215154D01*
X275487Y215164D01*
X275481Y215181D01*
X275472Y215204D01*
X275462Y215233D01*
X275455Y215269D01*
X275449Y215309D01*
X275447Y215353D01*
Y215355D01*
Y215359D01*
Y215364D01*
Y215372D01*
X275449Y215395D01*
X275453Y215422D01*
X275458Y215456D01*
X275466Y215490D01*
X275479Y215525D01*
X275493Y215559D01*
X275495Y215563D01*
X275502Y215574D01*
X275512Y215590D01*
X275527Y215611D01*
X275546Y215634D01*
X275569Y215660D01*
X275596Y215685D01*
X275625Y215708D01*
X275630Y215710D01*
X275640Y215718D01*
X275659Y215729D01*
X275684Y215741D01*
X275714Y215756D01*
X275749Y215771D01*
X275787Y215786D01*
X275831Y215798D01*
X275833D01*
X275838Y215800D01*
X275844D01*
X275852Y215802D01*
X275863Y215807D01*
X275877Y215809D01*
X275909Y215815D01*
X275947Y215819D01*
X275991Y215826D01*
X276039Y215828D01*
X276092Y215830D01*
X276127D01*
X276146Y215828D01*
D02*
G37*
G36*
X288398Y215531D02*
X288410D01*
X288412Y215534D01*
X288415Y215542D01*
X288421Y215552D01*
X288427Y215567D01*
X288436Y215584D01*
X288446Y215603D01*
X288471Y215643D01*
X288473Y215645D01*
X288477Y215651D01*
X288486Y215662D01*
X288496Y215674D01*
X288509Y215689D01*
X288526Y215706D01*
X288562Y215737D01*
X288564Y215739D01*
X288572Y215744D01*
X288582Y215752D01*
X288597Y215762D01*
X288616Y215773D01*
X288637Y215784D01*
X288662Y215794D01*
X288687Y215805D01*
X288692Y215807D01*
X288700Y215809D01*
X288717Y215813D01*
X288736Y215817D01*
X288761Y215821D01*
X288790Y215826D01*
X288822Y215830D01*
X288881D01*
X288897Y215828D01*
X288918Y215826D01*
X288942Y215821D01*
X288969Y215817D01*
X288996Y215811D01*
X289028Y215802D01*
X289057Y215792D01*
X289091Y215779D01*
X289122Y215765D01*
X289154Y215746D01*
X289185Y215725D01*
X289217Y215702D01*
X289244Y215674D01*
X289246Y215672D01*
X289250Y215668D01*
X289257Y215657D01*
X289267Y215647D01*
X289278Y215630D01*
X289290Y215611D01*
X289305Y215588D01*
X289317Y215563D01*
X289332Y215534D01*
X289345Y215500D01*
X289357Y215464D01*
X289368Y215424D01*
X289378Y215382D01*
X289385Y215338D01*
X289389Y215290D01*
X289391Y215237D01*
Y214236D01*
X289110D01*
Y215187D01*
Y215189D01*
Y215191D01*
Y215204D01*
X289107Y215225D01*
X289103Y215250D01*
X289099Y215282D01*
X289091Y215315D01*
X289080Y215351D01*
X289066Y215389D01*
X289049Y215426D01*
X289026Y215462D01*
X288996Y215498D01*
X288963Y215527D01*
X288925Y215552D01*
X288877Y215574D01*
X288824Y215586D01*
X288795Y215588D01*
X288763Y215590D01*
X288738D01*
X288721Y215588D01*
X288700Y215586D01*
X288677Y215584D01*
X288629Y215574D01*
X288627D01*
X288618Y215571D01*
X288606Y215567D01*
X288589Y215561D01*
X288572Y215552D01*
X288551Y215544D01*
X288511Y215519D01*
X288509Y215517D01*
X288503Y215513D01*
X288494Y215504D01*
X288482Y215494D01*
X288469Y215481D01*
X288454Y215466D01*
X288442Y215447D01*
X288429Y215429D01*
X288427Y215426D01*
X288425Y215420D01*
X288419Y215408D01*
X288415Y215393D01*
X288408Y215374D01*
X288402Y215353D01*
X288400Y215330D01*
X288398Y215303D01*
Y214236D01*
X288118D01*
Y216468D01*
X288398D01*
Y215531D01*
D02*
G37*
G36*
X277537D02*
X277549D01*
X277551Y215534D01*
X277553Y215542D01*
X277560Y215552D01*
X277566Y215567D01*
X277574Y215584D01*
X277585Y215603D01*
X277610Y215643D01*
X277612Y215645D01*
X277616Y215651D01*
X277625Y215662D01*
X277635Y215674D01*
X277648Y215689D01*
X277665Y215706D01*
X277700Y215737D01*
X277702Y215739D01*
X277711Y215744D01*
X277721Y215752D01*
X277736Y215762D01*
X277755Y215773D01*
X277776Y215784D01*
X277801Y215794D01*
X277826Y215805D01*
X277831Y215807D01*
X277839Y215809D01*
X277856Y215813D01*
X277875Y215817D01*
X277900Y215821D01*
X277929Y215826D01*
X277961Y215830D01*
X278019D01*
X278036Y215828D01*
X278057Y215826D01*
X278080Y215821D01*
X278108Y215817D01*
X278135Y215811D01*
X278167Y215802D01*
X278196Y215792D01*
X278229Y215779D01*
X278261Y215765D01*
X278292Y215746D01*
X278324Y215725D01*
X278356Y215702D01*
X278383Y215674D01*
X278385Y215672D01*
X278389Y215668D01*
X278395Y215657D01*
X278406Y215647D01*
X278416Y215630D01*
X278429Y215611D01*
X278444Y215588D01*
X278456Y215563D01*
X278471Y215534D01*
X278484Y215500D01*
X278496Y215464D01*
X278507Y215424D01*
X278517Y215382D01*
X278523Y215338D01*
X278528Y215290D01*
X278530Y215237D01*
Y214236D01*
X278248D01*
Y215187D01*
Y215189D01*
Y215191D01*
Y215204D01*
X278246Y215225D01*
X278242Y215250D01*
X278238Y215282D01*
X278229Y215315D01*
X278219Y215351D01*
X278204Y215389D01*
X278187Y215426D01*
X278164Y215462D01*
X278135Y215498D01*
X278101Y215527D01*
X278064Y215552D01*
X278015Y215574D01*
X277963Y215586D01*
X277933Y215588D01*
X277902Y215590D01*
X277877D01*
X277860Y215588D01*
X277839Y215586D01*
X277816Y215584D01*
X277767Y215574D01*
X277765D01*
X277757Y215571D01*
X277744Y215567D01*
X277728Y215561D01*
X277711Y215552D01*
X277690Y215544D01*
X277650Y215519D01*
X277648Y215517D01*
X277642Y215513D01*
X277633Y215504D01*
X277621Y215494D01*
X277608Y215481D01*
X277593Y215466D01*
X277581Y215447D01*
X277568Y215429D01*
X277566Y215426D01*
X277564Y215420D01*
X277557Y215408D01*
X277553Y215393D01*
X277547Y215374D01*
X277541Y215353D01*
X277539Y215330D01*
X277537Y215303D01*
Y214236D01*
X277257D01*
Y216468D01*
X277537D01*
Y215531D01*
D02*
G37*
G36*
X272635Y216340D02*
X272660Y216338D01*
X272690Y216334D01*
X272721Y216327D01*
X272755Y216321D01*
X272791Y216313D01*
X272828Y216302D01*
X272866Y216290D01*
X272904Y216273D01*
X272942Y216254D01*
X272977Y216233D01*
X273009Y216208D01*
X273040Y216178D01*
X273042Y216176D01*
X273047Y216170D01*
X273055Y216161D01*
X273066Y216149D01*
X273076Y216132D01*
X273089Y216111D01*
X273103Y216088D01*
X273118Y216061D01*
X273133Y216029D01*
X273148Y215996D01*
X273160Y215958D01*
X273171Y215918D01*
X273181Y215874D01*
X273189Y215826D01*
X273194Y215775D01*
X273196Y215723D01*
Y215718D01*
Y215710D01*
Y215695D01*
X273194Y215674D01*
X273192Y215649D01*
X273187Y215622D01*
X273183Y215590D01*
X273177Y215557D01*
X273168Y215521D01*
X273158Y215483D01*
X273145Y215445D01*
X273131Y215408D01*
X273112Y215370D01*
X273091Y215334D01*
X273068Y215298D01*
X273040Y215267D01*
X273038Y215265D01*
X273034Y215261D01*
X273024Y215252D01*
X273011Y215242D01*
X272996Y215229D01*
X272975Y215216D01*
X272952Y215202D01*
X272925Y215187D01*
X272896Y215170D01*
X272862Y215156D01*
X272824Y215143D01*
X272784Y215130D01*
X272740Y215120D01*
X272692Y215111D01*
X272641Y215107D01*
X272587Y215105D01*
X272104D01*
Y214236D01*
X271810D01*
Y216342D01*
X272616D01*
X272635Y216340D01*
D02*
G37*
G36*
X265331D02*
X265354Y216338D01*
X265382Y216334D01*
X265413Y216330D01*
X265445Y216323D01*
X265480Y216315D01*
X265516Y216306D01*
X265552Y216294D01*
X265587Y216279D01*
X265623Y216262D01*
X265659Y216241D01*
X265692Y216220D01*
X265722Y216193D01*
X265724Y216191D01*
X265728Y216187D01*
X265737Y216178D01*
X265747Y216166D01*
X265758Y216151D01*
X265770Y216134D01*
X265785Y216113D01*
X265800Y216088D01*
X265814Y216061D01*
X265829Y216031D01*
X265842Y215998D01*
X265852Y215962D01*
X265863Y215924D01*
X265871Y215884D01*
X265875Y215840D01*
X265877Y215794D01*
Y215792D01*
Y215786D01*
Y215775D01*
X265875Y215762D01*
Y215748D01*
X265873Y215729D01*
X265867Y215687D01*
X265854Y215639D01*
X265837Y215590D01*
X265816Y215542D01*
X265802Y215519D01*
X265785Y215498D01*
Y215496D01*
X265781Y215494D01*
X265768Y215481D01*
X265749Y215462D01*
X265722Y215439D01*
X265686Y215414D01*
X265646Y215387D01*
X265598Y215364D01*
X265546Y215342D01*
Y215332D01*
X265548D01*
X265554Y215330D01*
X265562Y215328D01*
X265575Y215324D01*
X265592Y215319D01*
X265609Y215313D01*
X265651Y215296D01*
X265697Y215275D01*
X265745Y215248D01*
X265795Y215212D01*
X265840Y215172D01*
X265842Y215170D01*
X265844Y215166D01*
X265850Y215160D01*
X265856Y215151D01*
X265867Y215139D01*
X265875Y215124D01*
X265886Y215105D01*
X265896Y215086D01*
X265907Y215063D01*
X265917Y215038D01*
X265928Y215011D01*
X265936Y214979D01*
X265942Y214948D01*
X265949Y214912D01*
X265951Y214874D01*
X265953Y214834D01*
Y214832D01*
Y214828D01*
Y214822D01*
Y214813D01*
X265951Y214801D01*
Y214788D01*
X265947Y214757D01*
X265942Y214721D01*
X265934Y214681D01*
X265924Y214639D01*
X265909Y214597D01*
Y214595D01*
X265907Y214593D01*
X265905Y214586D01*
X265900Y214578D01*
X265892Y214559D01*
X265877Y214532D01*
X265861Y214503D01*
X265842Y214471D01*
X265816Y214437D01*
X265789Y214406D01*
X265785Y214402D01*
X265776Y214393D01*
X265760Y214379D01*
X265739Y214360D01*
X265711Y214341D01*
X265680Y214320D01*
X265644Y214299D01*
X265606Y214280D01*
X265604D01*
X265602Y214278D01*
X265596Y214276D01*
X265587Y214274D01*
X265566Y214265D01*
X265537Y214259D01*
X265504Y214250D01*
X265464Y214242D01*
X265420Y214238D01*
X265373Y214236D01*
X264567D01*
Y216342D01*
X265312D01*
X265331Y216340D01*
D02*
G37*
G36*
X290607Y215828D02*
X290622D01*
X290662Y215823D01*
X290706Y215815D01*
X290754Y215807D01*
X290804Y215792D01*
X290855Y215773D01*
X290857D01*
X290861Y215771D01*
X290867Y215767D01*
X290876Y215762D01*
X290901Y215750D01*
X290930Y215731D01*
X290966Y215710D01*
X291002Y215683D01*
X291039Y215649D01*
X291075Y215613D01*
X291077Y215611D01*
X291079Y215609D01*
X291084Y215603D01*
X291090Y215595D01*
X291107Y215574D01*
X291128Y215546D01*
X291151Y215511D01*
X291174Y215469D01*
X291197Y215422D01*
X291218Y215372D01*
Y215370D01*
X291220Y215366D01*
X291222Y215357D01*
X291226Y215347D01*
X291231Y215334D01*
X291235Y215319D01*
X291239Y215300D01*
X291243Y215282D01*
X291252Y215235D01*
X291260Y215183D01*
X291266Y215124D01*
X291268Y215063D01*
Y214946D01*
X290132D01*
Y214880D01*
Y214878D01*
Y214872D01*
Y214862D01*
X290134Y214849D01*
X290137Y214832D01*
X290139Y214811D01*
X290143Y214790D01*
X290147Y214767D01*
X290162Y214717D01*
X290172Y214689D01*
X290183Y214662D01*
X290197Y214635D01*
X290212Y214610D01*
X290231Y214584D01*
X290252Y214559D01*
X290254Y214557D01*
X290258Y214553D01*
X290265Y214549D01*
X290275Y214540D01*
X290288Y214530D01*
X290302Y214519D01*
X290319Y214509D01*
X290340Y214498D01*
X290363Y214486D01*
X290388Y214475D01*
X290416Y214465D01*
X290445Y214454D01*
X290477Y214446D01*
X290512Y214442D01*
X290548Y214437D01*
X290588Y214435D01*
X290603D01*
X290613Y214437D01*
X290628D01*
X290643Y214440D01*
X290680Y214444D01*
X290722Y214452D01*
X290767Y214465D01*
X290811Y214479D01*
X290855Y214503D01*
X290857D01*
X290859Y214507D01*
X290865Y214509D01*
X290874Y214515D01*
X290893Y214530D01*
X290918Y214551D01*
X290947Y214578D01*
X290974Y214612D01*
X291004Y214650D01*
X291029Y214691D01*
X291220Y214542D01*
Y214540D01*
X291216Y214536D01*
X291212Y214528D01*
X291205Y214517D01*
X291197Y214505D01*
X291189Y214490D01*
X291161Y214454D01*
X291130Y214416D01*
X291088Y214374D01*
X291039Y214332D01*
X290983Y214295D01*
X290981D01*
X290977Y214290D01*
X290966Y214286D01*
X290953Y214280D01*
X290939Y214274D01*
X290920Y214265D01*
X290897Y214257D01*
X290874Y214248D01*
X290844Y214238D01*
X290815Y214229D01*
X290781Y214221D01*
X290748Y214215D01*
X290710Y214209D01*
X290670Y214204D01*
X290630Y214202D01*
X290586Y214200D01*
X290557D01*
X290542Y214202D01*
X290525D01*
X290504Y214204D01*
X290483Y214206D01*
X290435Y214215D01*
X290382Y214223D01*
X290328Y214238D01*
X290275Y214257D01*
X290273D01*
X290269Y214259D01*
X290263Y214263D01*
X290252Y214267D01*
X290239Y214274D01*
X290227Y214280D01*
X290193Y214299D01*
X290158Y214322D01*
X290118Y214349D01*
X290078Y214381D01*
X290040Y214419D01*
Y214421D01*
X290036Y214423D01*
X290032Y214429D01*
X290025Y214437D01*
X290017Y214448D01*
X290006Y214460D01*
X289985Y214490D01*
X289962Y214528D01*
X289939Y214572D01*
X289914Y214620D01*
X289893Y214675D01*
Y214677D01*
X289891Y214681D01*
X289889Y214689D01*
X289884Y214702D01*
X289880Y214715D01*
X289876Y214731D01*
X289872Y214750D01*
X289868Y214773D01*
X289863Y214796D01*
X289859Y214822D01*
X289851Y214878D01*
X289845Y214944D01*
X289843Y215011D01*
Y215013D01*
Y215019D01*
Y215030D01*
Y215042D01*
X289845Y215059D01*
Y215078D01*
X289847Y215099D01*
X289849Y215124D01*
X289855Y215175D01*
X289866Y215233D01*
X289878Y215290D01*
X289895Y215349D01*
Y215351D01*
X289897Y215355D01*
X289901Y215364D01*
X289906Y215374D01*
X289910Y215387D01*
X289918Y215403D01*
X289935Y215437D01*
X289956Y215479D01*
X289981Y215521D01*
X290010Y215565D01*
X290044Y215607D01*
X290046Y215609D01*
X290048Y215611D01*
X290061Y215624D01*
X290082Y215645D01*
X290107Y215668D01*
X290141Y215693D01*
X290181Y215721D01*
X290223Y215748D01*
X290271Y215771D01*
X290273D01*
X290277Y215773D01*
X290283Y215777D01*
X290294Y215779D01*
X290307Y215786D01*
X290321Y215790D01*
X290338Y215794D01*
X290359Y215800D01*
X290401Y215811D01*
X290452Y215821D01*
X290506Y215828D01*
X290565Y215830D01*
X290592D01*
X290607Y215828D01*
D02*
G37*
G36*
X279746D02*
X279760D01*
X279800Y215823D01*
X279844Y215815D01*
X279893Y215807D01*
X279943Y215792D01*
X279994Y215773D01*
X279996D01*
X280000Y215771D01*
X280006Y215767D01*
X280014Y215762D01*
X280040Y215750D01*
X280069Y215731D01*
X280105Y215710D01*
X280140Y215683D01*
X280178Y215649D01*
X280214Y215613D01*
X280216Y215611D01*
X280218Y215609D01*
X280222Y215603D01*
X280229Y215595D01*
X280245Y215574D01*
X280266Y215546D01*
X280290Y215511D01*
X280313Y215469D01*
X280336Y215422D01*
X280357Y215372D01*
Y215370D01*
X280359Y215366D01*
X280361Y215357D01*
X280365Y215347D01*
X280369Y215334D01*
X280374Y215319D01*
X280378Y215300D01*
X280382Y215282D01*
X280390Y215235D01*
X280399Y215183D01*
X280405Y215124D01*
X280407Y215063D01*
Y214946D01*
X279271D01*
Y214880D01*
Y214878D01*
Y214872D01*
Y214862D01*
X279273Y214849D01*
X279275Y214832D01*
X279277Y214811D01*
X279282Y214790D01*
X279286Y214767D01*
X279300Y214717D01*
X279311Y214689D01*
X279322Y214662D01*
X279336Y214635D01*
X279351Y214610D01*
X279370Y214584D01*
X279391Y214559D01*
X279393Y214557D01*
X279397Y214553D01*
X279403Y214549D01*
X279414Y214540D01*
X279427Y214530D01*
X279441Y214519D01*
X279458Y214509D01*
X279479Y214498D01*
X279502Y214486D01*
X279527Y214475D01*
X279555Y214465D01*
X279584Y214454D01*
X279615Y214446D01*
X279651Y214442D01*
X279687Y214437D01*
X279727Y214435D01*
X279742D01*
X279752Y214437D01*
X279767D01*
X279781Y214440D01*
X279819Y214444D01*
X279861Y214452D01*
X279905Y214465D01*
X279949Y214479D01*
X279994Y214503D01*
X279996D01*
X279998Y214507D01*
X280004Y214509D01*
X280012Y214515D01*
X280031Y214530D01*
X280057Y214551D01*
X280086Y214578D01*
X280113Y214612D01*
X280143Y214650D01*
X280168Y214691D01*
X280359Y214542D01*
Y214540D01*
X280355Y214536D01*
X280350Y214528D01*
X280344Y214517D01*
X280336Y214505D01*
X280327Y214490D01*
X280300Y214454D01*
X280269Y214416D01*
X280227Y214374D01*
X280178Y214332D01*
X280122Y214295D01*
X280119D01*
X280115Y214290D01*
X280105Y214286D01*
X280092Y214280D01*
X280078Y214274D01*
X280059Y214265D01*
X280035Y214257D01*
X280012Y214248D01*
X279983Y214238D01*
X279954Y214229D01*
X279920Y214221D01*
X279886Y214215D01*
X279849Y214209D01*
X279809Y214204D01*
X279769Y214202D01*
X279725Y214200D01*
X279695D01*
X279681Y214202D01*
X279664D01*
X279643Y214204D01*
X279622Y214206D01*
X279573Y214215D01*
X279521Y214223D01*
X279466Y214238D01*
X279414Y214257D01*
X279412D01*
X279408Y214259D01*
X279401Y214263D01*
X279391Y214267D01*
X279378Y214274D01*
X279366Y214280D01*
X279332Y214299D01*
X279296Y214322D01*
X279256Y214349D01*
X279217Y214381D01*
X279179Y214419D01*
Y214421D01*
X279174Y214423D01*
X279170Y214429D01*
X279164Y214437D01*
X279156Y214448D01*
X279145Y214460D01*
X279124Y214490D01*
X279101Y214528D01*
X279078Y214572D01*
X279053Y214620D01*
X279032Y214675D01*
Y214677D01*
X279030Y214681D01*
X279028Y214689D01*
X279023Y214702D01*
X279019Y214715D01*
X279015Y214731D01*
X279011Y214750D01*
X279007Y214773D01*
X279002Y214796D01*
X278998Y214822D01*
X278990Y214878D01*
X278983Y214944D01*
X278981Y215011D01*
Y215013D01*
Y215019D01*
Y215030D01*
Y215042D01*
X278983Y215059D01*
Y215078D01*
X278986Y215099D01*
X278988Y215124D01*
X278994Y215175D01*
X279004Y215233D01*
X279017Y215290D01*
X279034Y215349D01*
Y215351D01*
X279036Y215355D01*
X279040Y215364D01*
X279044Y215374D01*
X279048Y215387D01*
X279057Y215403D01*
X279074Y215437D01*
X279095Y215479D01*
X279120Y215521D01*
X279149Y215565D01*
X279183Y215607D01*
X279185Y215609D01*
X279187Y215611D01*
X279200Y215624D01*
X279221Y215645D01*
X279246Y215668D01*
X279279Y215693D01*
X279319Y215721D01*
X279361Y215748D01*
X279410Y215771D01*
X279412D01*
X279416Y215773D01*
X279422Y215777D01*
X279433Y215779D01*
X279445Y215786D01*
X279460Y215790D01*
X279477Y215794D01*
X279498Y215800D01*
X279540Y215811D01*
X279590Y215821D01*
X279645Y215828D01*
X279704Y215830D01*
X279731D01*
X279746Y215828D01*
D02*
G37*
G36*
X274307D02*
X274324D01*
X274342Y215826D01*
X274363Y215823D01*
X274410Y215815D01*
X274460Y215805D01*
X274513Y215790D01*
X274563Y215771D01*
X274565D01*
X274569Y215769D01*
X274575Y215765D01*
X274586Y215760D01*
X274597Y215754D01*
X274611Y215748D01*
X274643Y215729D01*
X274678Y215706D01*
X274716Y215679D01*
X274754Y215645D01*
X274792Y215607D01*
X274794Y215605D01*
X274796Y215603D01*
X274800Y215597D01*
X274806Y215588D01*
X274815Y215578D01*
X274823Y215565D01*
X274844Y215536D01*
X274867Y215498D01*
X274893Y215454D01*
X274916Y215406D01*
X274935Y215351D01*
Y215349D01*
X274937Y215345D01*
X274939Y215336D01*
X274943Y215326D01*
X274947Y215311D01*
X274951Y215294D01*
X274956Y215275D01*
X274960Y215252D01*
X274964Y215229D01*
X274968Y215204D01*
X274977Y215147D01*
X274983Y215082D01*
X274985Y215015D01*
Y215013D01*
Y215006D01*
Y214996D01*
Y214983D01*
X274983Y214967D01*
Y214948D01*
X274981Y214925D01*
X274979Y214901D01*
X274972Y214849D01*
X274964Y214792D01*
X274951Y214734D01*
X274935Y214675D01*
Y214673D01*
X274933Y214668D01*
X274930Y214660D01*
X274926Y214650D01*
X274920Y214637D01*
X274914Y214622D01*
X274899Y214586D01*
X274878Y214547D01*
X274855Y214505D01*
X274825Y214460D01*
X274792Y214419D01*
Y214416D01*
X274788Y214414D01*
X274775Y214402D01*
X274754Y214383D01*
X274729Y214360D01*
X274695Y214332D01*
X274655Y214305D01*
X274611Y214280D01*
X274563Y214257D01*
X274561D01*
X274557Y214255D01*
X274550Y214253D01*
X274540Y214248D01*
X274527Y214244D01*
X274513Y214238D01*
X274496Y214234D01*
X274477Y214229D01*
X274433Y214219D01*
X274382Y214209D01*
X274326Y214202D01*
X274265Y214200D01*
X274235D01*
X274221Y214202D01*
X274204D01*
X274185Y214204D01*
X274164Y214206D01*
X274116Y214215D01*
X274065Y214223D01*
X274013Y214238D01*
X273962Y214257D01*
X273960D01*
X273956Y214259D01*
X273950Y214263D01*
X273939Y214267D01*
X273929Y214274D01*
X273916Y214280D01*
X273885Y214299D01*
X273849Y214322D01*
X273811Y214349D01*
X273773Y214381D01*
X273735Y214419D01*
Y214421D01*
X273731Y214423D01*
X273727Y214429D01*
X273721Y214437D01*
X273712Y214448D01*
X273704Y214460D01*
X273683Y214490D01*
X273658Y214528D01*
X273635Y214572D01*
X273612Y214620D01*
X273591Y214675D01*
Y214677D01*
X273588Y214681D01*
X273586Y214689D01*
X273582Y214702D01*
X273580Y214715D01*
X273576Y214734D01*
X273572Y214752D01*
X273568Y214773D01*
X273561Y214799D01*
X273557Y214824D01*
X273551Y214883D01*
X273544Y214946D01*
X273542Y215015D01*
Y215017D01*
Y215023D01*
Y215034D01*
Y215046D01*
X273544Y215063D01*
Y215082D01*
X273547Y215103D01*
X273549Y215126D01*
X273555Y215179D01*
X273563Y215235D01*
X273574Y215294D01*
X273591Y215351D01*
Y215353D01*
X273593Y215357D01*
X273597Y215366D01*
X273599Y215376D01*
X273605Y215389D01*
X273612Y215403D01*
X273628Y215439D01*
X273647Y215479D01*
X273673Y215523D01*
X273702Y215565D01*
X273735Y215607D01*
X273738Y215609D01*
X273740Y215611D01*
X273752Y215624D01*
X273773Y215645D01*
X273798Y215668D01*
X273832Y215693D01*
X273872Y215721D01*
X273914Y215748D01*
X273962Y215771D01*
X273964D01*
X273969Y215773D01*
X273975Y215777D01*
X273985Y215779D01*
X273998Y215786D01*
X274013Y215790D01*
X274029Y215794D01*
X274050Y215800D01*
X274095Y215811D01*
X274145Y215821D01*
X274204Y215828D01*
X274265Y215830D01*
X274292D01*
X274307Y215828D01*
D02*
G37*
G36*
X267074D02*
X267089D01*
X267129Y215823D01*
X267173Y215815D01*
X267221Y215807D01*
X267272Y215792D01*
X267322Y215773D01*
X267324D01*
X267328Y215771D01*
X267335Y215767D01*
X267343Y215762D01*
X267368Y215750D01*
X267398Y215731D01*
X267433Y215710D01*
X267469Y215683D01*
X267507Y215649D01*
X267543Y215613D01*
X267545Y215611D01*
X267547Y215609D01*
X267551Y215603D01*
X267557Y215595D01*
X267574Y215574D01*
X267595Y215546D01*
X267618Y215511D01*
X267641Y215469D01*
X267664Y215422D01*
X267685Y215372D01*
Y215370D01*
X267688Y215366D01*
X267690Y215357D01*
X267694Y215347D01*
X267698Y215334D01*
X267702Y215319D01*
X267706Y215300D01*
X267711Y215282D01*
X267719Y215235D01*
X267727Y215183D01*
X267734Y215124D01*
X267736Y215063D01*
Y214946D01*
X266600D01*
Y214880D01*
Y214878D01*
Y214872D01*
Y214862D01*
X266602Y214849D01*
X266604Y214832D01*
X266606Y214811D01*
X266610Y214790D01*
X266614Y214767D01*
X266629Y214717D01*
X266640Y214689D01*
X266650Y214662D01*
X266665Y214635D01*
X266680Y214610D01*
X266698Y214584D01*
X266719Y214559D01*
X266722Y214557D01*
X266726Y214553D01*
X266732Y214549D01*
X266742Y214540D01*
X266755Y214530D01*
X266770Y214519D01*
X266787Y214509D01*
X266808Y214498D01*
X266831Y214486D01*
X266856Y214475D01*
X266883Y214465D01*
X266913Y214454D01*
X266944Y214446D01*
X266980Y214442D01*
X267016Y214437D01*
X267055Y214435D01*
X267070D01*
X267081Y214437D01*
X267095D01*
X267110Y214440D01*
X267148Y214444D01*
X267190Y214452D01*
X267234Y214465D01*
X267278Y214479D01*
X267322Y214503D01*
X267324D01*
X267326Y214507D01*
X267333Y214509D01*
X267341Y214515D01*
X267360Y214530D01*
X267385Y214551D01*
X267414Y214578D01*
X267442Y214612D01*
X267471Y214650D01*
X267496Y214691D01*
X267688Y214542D01*
Y214540D01*
X267683Y214536D01*
X267679Y214528D01*
X267673Y214517D01*
X267664Y214505D01*
X267656Y214490D01*
X267629Y214454D01*
X267597Y214416D01*
X267555Y214374D01*
X267507Y214332D01*
X267450Y214295D01*
X267448D01*
X267444Y214290D01*
X267433Y214286D01*
X267421Y214280D01*
X267406Y214274D01*
X267387Y214265D01*
X267364Y214257D01*
X267341Y214248D01*
X267312Y214238D01*
X267282Y214229D01*
X267249Y214221D01*
X267215Y214215D01*
X267177Y214209D01*
X267137Y214204D01*
X267097Y214202D01*
X267053Y214200D01*
X267024D01*
X267009Y214202D01*
X266992D01*
X266971Y214204D01*
X266950Y214206D01*
X266902Y214215D01*
X266850Y214223D01*
X266795Y214238D01*
X266742Y214257D01*
X266740D01*
X266736Y214259D01*
X266730Y214263D01*
X266719Y214267D01*
X266707Y214274D01*
X266694Y214280D01*
X266661Y214299D01*
X266625Y214322D01*
X266585Y214349D01*
X266545Y214381D01*
X266507Y214419D01*
Y214421D01*
X266503Y214423D01*
X266499Y214429D01*
X266493Y214437D01*
X266484Y214448D01*
X266474Y214460D01*
X266453Y214490D01*
X266430Y214528D01*
X266406Y214572D01*
X266381Y214620D01*
X266360Y214675D01*
Y214677D01*
X266358Y214681D01*
X266356Y214689D01*
X266352Y214702D01*
X266348Y214715D01*
X266343Y214731D01*
X266339Y214750D01*
X266335Y214773D01*
X266331Y214796D01*
X266327Y214822D01*
X266318Y214878D01*
X266312Y214944D01*
X266310Y215011D01*
Y215013D01*
Y215019D01*
Y215030D01*
Y215042D01*
X266312Y215059D01*
Y215078D01*
X266314Y215099D01*
X266316Y215124D01*
X266322Y215175D01*
X266333Y215233D01*
X266346Y215290D01*
X266362Y215349D01*
Y215351D01*
X266365Y215355D01*
X266369Y215364D01*
X266373Y215374D01*
X266377Y215387D01*
X266386Y215403D01*
X266402Y215437D01*
X266423Y215479D01*
X266448Y215521D01*
X266478Y215565D01*
X266512Y215607D01*
X266514Y215609D01*
X266516Y215611D01*
X266528Y215624D01*
X266549Y215645D01*
X266575Y215668D01*
X266608Y215693D01*
X266648Y215721D01*
X266690Y215748D01*
X266738Y215771D01*
X266740D01*
X266745Y215773D01*
X266751Y215777D01*
X266761Y215779D01*
X266774Y215786D01*
X266789Y215790D01*
X266806Y215794D01*
X266827Y215800D01*
X266868Y215811D01*
X266919Y215821D01*
X266973Y215828D01*
X267032Y215830D01*
X267060D01*
X267074Y215828D01*
D02*
G37*
G36*
X317127Y224797D02*
X317140Y224781D01*
X317165Y224753D01*
X317197Y224718D01*
X317238Y224674D01*
X317285Y224623D01*
X317339Y224566D01*
X317402Y224506D01*
X317468Y224443D01*
X317544Y224377D01*
X317623Y224310D01*
X317705Y224241D01*
X317791Y224174D01*
X317882Y224108D01*
X317977Y224045D01*
X318072Y223988D01*
Y224544D01*
X318976D01*
X319061Y224613D01*
X319355Y224389D01*
X319358Y224383D01*
X319368Y224370D01*
X319380Y224351D01*
X319387Y224329D01*
X319390Y224304D01*
X319383Y224294D01*
X319377Y224285D01*
X319368Y224279D01*
X319352Y224272D01*
X319330Y224266D01*
X319304D01*
X318852Y223106D01*
X318856D01*
X318859Y223100D01*
X318878Y223087D01*
X318906Y223062D01*
X318944Y223027D01*
X318988Y222986D01*
X319039Y222936D01*
X319093Y222879D01*
X319149Y222812D01*
X319203Y222743D01*
X319257Y222667D01*
X319307Y222585D01*
X319352Y222499D01*
X319390Y222408D01*
X319418Y222313D01*
X319437Y222218D01*
X319440Y222168D01*
X319443Y222117D01*
Y222114D01*
Y222111D01*
Y222101D01*
Y222089D01*
X319440Y222054D01*
X319434Y222013D01*
X319424Y221959D01*
X319412Y221902D01*
X319390Y221842D01*
X319364Y221779D01*
X319333Y221716D01*
X319292Y221656D01*
X319241Y221599D01*
X319181Y221545D01*
X319108Y221504D01*
X319067Y221485D01*
X319023Y221469D01*
X318979Y221457D01*
X318928Y221447D01*
X318875Y221444D01*
X318818Y221441D01*
X318663D01*
X318559Y221823D01*
X318780D01*
X318796Y221826D01*
X318814Y221830D01*
X318837Y221836D01*
X318859Y221845D01*
X318887Y221858D01*
X318916Y221877D01*
X318941Y221899D01*
X318969Y221924D01*
X318991Y221959D01*
X319017Y222000D01*
X319033Y222048D01*
X319048Y222101D01*
X319058Y222168D01*
X319061Y222240D01*
Y222244D01*
Y222253D01*
X319058Y222269D01*
X319052Y222291D01*
X319045Y222323D01*
X319033Y222357D01*
X319017Y222401D01*
X318995Y222449D01*
X318969Y222506D01*
X318935Y222569D01*
X318890Y222639D01*
X318840Y222714D01*
X318783Y222797D01*
X318710Y222888D01*
X318631Y222983D01*
X318540Y223087D01*
X318887Y224215D01*
X318420D01*
Y220803D01*
X318072D01*
Y223921D01*
X317866Y223694D01*
X317863Y223697D01*
X317857Y223700D01*
X317844Y223710D01*
X317829Y223719D01*
X317810Y223735D01*
X317788Y223751D01*
X317759Y223770D01*
X317727Y223795D01*
X317693Y223820D01*
X317655Y223849D01*
X317573Y223915D01*
X317481Y223991D01*
X317380Y224076D01*
Y223921D01*
X317121D01*
Y223659D01*
X317674D01*
Y222171D01*
X316808D01*
Y221962D01*
X317952D01*
Y221684D01*
X316827D01*
X316833Y221681D01*
X316849Y221675D01*
X316877Y221662D01*
X316915Y221643D01*
X316963Y221621D01*
X317017Y221596D01*
X317080Y221564D01*
X317146Y221529D01*
X317222Y221492D01*
X317301Y221447D01*
X317383Y221400D01*
X317468Y221349D01*
X317557Y221296D01*
X317649Y221239D01*
X317832Y221115D01*
X317588Y220787D01*
X317582Y220793D01*
X317566Y220806D01*
X317541Y220828D01*
X317506Y220856D01*
X317462Y220891D01*
X317415Y220929D01*
X317358Y220973D01*
X317295Y221021D01*
X317228Y221071D01*
X317159Y221125D01*
X317010Y221232D01*
X316855Y221334D01*
X316779Y221381D01*
X316704Y221425D01*
X316701Y221419D01*
X316694Y221406D01*
X316678Y221384D01*
X316656Y221352D01*
X316628Y221315D01*
X316593Y221273D01*
X316549Y221226D01*
X316498Y221179D01*
X316438Y221125D01*
X316369Y221071D01*
X316290Y221018D01*
X316201Y220967D01*
X316100Y220916D01*
X315989Y220869D01*
X315866Y220825D01*
X315734Y220787D01*
X315579Y221150D01*
X315582D01*
X315588Y221153D01*
X315598D01*
X315610Y221160D01*
X315629Y221163D01*
X315648Y221169D01*
X315696Y221182D01*
X315756Y221201D01*
X315822Y221223D01*
X315892Y221251D01*
X315967Y221280D01*
X316043Y221318D01*
X316119Y221356D01*
X316195Y221400D01*
X316264Y221447D01*
X316328Y221501D01*
X316381Y221558D01*
X316429Y221618D01*
X316444Y221650D01*
X316460Y221684D01*
X315544D01*
Y221962D01*
X316514D01*
Y222171D01*
X315734D01*
Y223659D01*
X316321D01*
Y223921D01*
X315977D01*
Y224023D01*
X315974Y224020D01*
X315967Y224013D01*
X315958Y224001D01*
X315945Y223982D01*
X315926Y223963D01*
X315907Y223937D01*
X315857Y223880D01*
X315800Y223817D01*
X315734Y223748D01*
X315664Y223675D01*
X315595Y223609D01*
X315351Y223868D01*
X315357Y223871D01*
X315370Y223887D01*
X315392Y223909D01*
X315424Y223937D01*
X315459Y223975D01*
X315503Y224023D01*
X315550Y224073D01*
X315604Y224133D01*
X315658Y224196D01*
X315715Y224266D01*
X315775Y224342D01*
X315835Y224424D01*
X315895Y224509D01*
X315952Y224598D01*
X316008Y224693D01*
X316062Y224787D01*
X316321Y224629D01*
X316324D01*
X316328Y224626D01*
X316340Y224617D01*
X316356Y224604D01*
X316372Y224588D01*
X316378Y224569D01*
Y224560D01*
X316372Y224550D01*
X316366Y224538D01*
X316350Y224528D01*
X316331Y224519D01*
X316305Y224509D01*
X316081Y224196D01*
X317260D01*
X317257Y224200D01*
X317253Y224203D01*
X317244Y224212D01*
X317231Y224225D01*
X317216Y224241D01*
X317197Y224263D01*
X317178Y224285D01*
X317152Y224313D01*
X317127Y224342D01*
X317099Y224377D01*
X317067Y224414D01*
X317032Y224452D01*
X316998Y224497D01*
X316960Y224544D01*
X316918Y224595D01*
X316877Y224648D01*
X317121Y224803D01*
X317127Y224797D01*
D02*
G37*
G36*
X315809Y220296D02*
X315822Y220289D01*
X315844Y220280D01*
X315873Y220267D01*
X315911Y220248D01*
X315952Y220226D01*
X315999Y220201D01*
X316053Y220172D01*
X316110Y220141D01*
X316170Y220103D01*
X316230Y220065D01*
X316293Y220021D01*
X316359Y219973D01*
X316422Y219923D01*
X316486Y219869D01*
X316549Y219812D01*
X316324Y219449D01*
X316321Y219452D01*
X316309Y219464D01*
X316286Y219483D01*
X316258Y219506D01*
X316223Y219534D01*
X316185Y219569D01*
X316138Y219603D01*
X316087Y219644D01*
X316034Y219686D01*
X315974Y219730D01*
X315847Y219815D01*
X315715Y219897D01*
X315648Y219935D01*
X315579Y219970D01*
X315803Y220299D01*
X315809Y220296D01*
D02*
G37*
G36*
X315689Y219272D02*
X315702Y219268D01*
X315724Y219256D01*
X315753Y219243D01*
X315790Y219227D01*
X315831Y219205D01*
X315879Y219180D01*
X315933Y219152D01*
X315989Y219120D01*
X316050Y219085D01*
X316110Y219047D01*
X316173Y219006D01*
X316239Y218962D01*
X316302Y218911D01*
X316429Y218807D01*
X316185Y218463D01*
X316182Y218466D01*
X316173Y218475D01*
X316157Y218488D01*
X316132Y218510D01*
X316103Y218532D01*
X316072Y218561D01*
X316031Y218592D01*
X315986Y218627D01*
X315936Y218662D01*
X315882Y218703D01*
X315825Y218741D01*
X315762Y218782D01*
X315696Y218823D01*
X315626Y218867D01*
X315550Y218905D01*
X315474Y218946D01*
X315683Y219275D01*
X315689Y219272D01*
D02*
G37*
G36*
X318040Y220403D02*
X318043Y220400D01*
X318050Y220393D01*
X318056Y220381D01*
X318059Y220365D01*
Y220352D01*
X318047Y220337D01*
X318037Y220330D01*
X318024Y220324D01*
X318009Y220318D01*
X317987Y220314D01*
X317797Y219657D01*
X318976D01*
Y216627D01*
X318628D01*
Y216870D01*
X317086D01*
Y216611D01*
X316738D01*
Y219657D01*
X317434D01*
X317588Y220472D01*
X318040Y220403D01*
D02*
G37*
G36*
X316375Y217891D02*
Y217888D01*
X316372Y217884D01*
X316369Y217872D01*
X316362Y217859D01*
X316356Y217843D01*
X316347Y217824D01*
X316324Y217774D01*
X316296Y217714D01*
X316264Y217644D01*
X316227Y217565D01*
X316189Y217480D01*
X316141Y217388D01*
X316094Y217290D01*
X316043Y217189D01*
X315989Y217088D01*
X315873Y216880D01*
X315812Y216778D01*
X315753Y216680D01*
Y216677D01*
X315756Y216665D01*
X315759Y216649D01*
Y216630D01*
X315756Y216614D01*
X315746Y216598D01*
X315727Y216592D01*
X315699D01*
X315354Y216936D01*
Y216940D01*
X315361Y216943D01*
X315376Y216962D01*
X315399Y216993D01*
X315433Y217034D01*
X315471Y217085D01*
X315519Y217148D01*
X315569Y217218D01*
X315623Y217297D01*
X315680Y217385D01*
X315743Y217480D01*
X315803Y217581D01*
X315866Y217688D01*
X315929Y217802D01*
X315989Y217919D01*
X316046Y218039D01*
X316100Y218166D01*
X316375Y217891D01*
D02*
G37*
G36*
X318682Y215604D02*
Y215598D01*
X318685Y215586D01*
X318688Y215567D01*
X318698Y215545D01*
X318710Y215522D01*
X318732Y215503D01*
X318761Y215491D01*
X318802Y215484D01*
X318944D01*
X318954Y215488D01*
X318969Y215491D01*
X318985Y215497D01*
X319004Y215510D01*
X319020Y215529D01*
X319036Y215554D01*
X319045Y215589D01*
X319061Y215728D01*
X319304Y215639D01*
X319270Y215484D01*
Y215481D01*
X319266Y215475D01*
X319263Y215465D01*
X319257Y215453D01*
X319241Y215418D01*
X319216Y215380D01*
X319181Y215342D01*
X319159Y215323D01*
X319134Y215307D01*
X319102Y215295D01*
X319071Y215285D01*
X319036Y215279D01*
X318995Y215276D01*
X318739D01*
X318723Y215279D01*
X318704D01*
X318679Y215285D01*
X318653Y215292D01*
X318625Y215301D01*
X318597Y215314D01*
X318565Y215330D01*
X318536Y215349D01*
X318511Y215371D01*
X318489Y215399D01*
X318467Y215434D01*
X318451Y215472D01*
X318442Y215519D01*
X318439Y215570D01*
Y215728D01*
X317917D01*
Y215623D01*
Y215620D01*
Y215608D01*
X317914Y215589D01*
X317911Y215564D01*
X317908Y215532D01*
X317898Y215497D01*
X317889Y215459D01*
X317873Y215418D01*
X317857Y215374D01*
X317832Y215333D01*
X317807Y215292D01*
X317772Y215251D01*
X317734Y215213D01*
X317686Y215178D01*
X317633Y215146D01*
X317573Y215121D01*
X317415Y215311D01*
X317418D01*
X317427Y215314D01*
X317440Y215320D01*
X317456Y215326D01*
X317497Y215349D01*
X317522Y215361D01*
X317547Y215380D01*
X317569Y215402D01*
X317595Y215428D01*
X317617Y215456D01*
X317636Y215488D01*
X317652Y215522D01*
X317664Y215564D01*
X317674Y215608D01*
X317677Y215658D01*
Y216003D01*
X318682D01*
Y215604D01*
D02*
G37*
G36*
X316656Y216139D02*
X316675Y216132D01*
X316691Y216123D01*
X316704Y216110D01*
Y216101D01*
Y216091D01*
X316697Y216078D01*
X316688Y216066D01*
X316672Y216053D01*
X316653Y216037D01*
Y215867D01*
X317434D01*
Y215658D01*
X316653D01*
Y215465D01*
X317314D01*
Y215260D01*
X315667D01*
Y215465D01*
X316359D01*
Y215658D01*
X315474D01*
Y215867D01*
X316359D01*
Y216142D01*
X316644D01*
X316656Y216139D01*
D02*
G37*
G36*
X319026Y214998D02*
X319029D01*
X319033Y214995D01*
X319045Y214982D01*
X319061Y214966D01*
X319077Y214947D01*
X319083Y214931D01*
Y214925D01*
X319077Y214919D01*
X319071Y214913D01*
X319055Y214909D01*
X319036D01*
X319010Y214913D01*
X319007Y214909D01*
X319001Y214900D01*
X318988Y214887D01*
X318972Y214868D01*
X318950Y214846D01*
X318925Y214821D01*
X318897Y214792D01*
X318865Y214764D01*
X318792Y214698D01*
X318710Y214628D01*
X318619Y214559D01*
X318524Y214495D01*
X318527D01*
X318540Y214489D01*
X318555Y214483D01*
X318581Y214473D01*
X318612Y214461D01*
X318653Y214448D01*
X318698Y214435D01*
X318751Y214420D01*
X318808Y214404D01*
X318875Y214388D01*
X318944Y214372D01*
X319023Y214356D01*
X319105Y214344D01*
X319197Y214328D01*
X319292Y214315D01*
X319393Y214306D01*
X319235Y214028D01*
X319229D01*
X319210Y214034D01*
X319178Y214040D01*
X319140Y214050D01*
X319089Y214062D01*
X319033Y214078D01*
X318966Y214094D01*
X318897Y214116D01*
X318821Y214138D01*
X318742Y214164D01*
X318578Y214217D01*
X318410Y214284D01*
X318328Y214318D01*
X318249Y214356D01*
X318243Y214353D01*
X318227Y214347D01*
X318201Y214334D01*
X318167Y214322D01*
X318126Y214303D01*
X318078Y214284D01*
X318024Y214262D01*
X317965Y214239D01*
X317901Y214214D01*
X317835Y214192D01*
X317699Y214145D01*
X317563Y214107D01*
X317497Y214094D01*
X317434Y214081D01*
X317295Y214322D01*
X317298D01*
X317314Y214325D01*
X317333Y214328D01*
X317361Y214331D01*
X317396Y214337D01*
X317437Y214347D01*
X317484Y214356D01*
X317535Y214366D01*
X317588Y214378D01*
X317649Y214391D01*
X317769Y214426D01*
X317895Y214467D01*
X318021Y214514D01*
X318018Y214517D01*
X318012Y214521D01*
X318002Y214530D01*
X317990Y214543D01*
X317955Y214574D01*
X317911Y214616D01*
X317857Y214666D01*
X317803Y214726D01*
X317746Y214789D01*
X317693Y214859D01*
X317484D01*
Y215067D01*
X318786D01*
X318837Y215137D01*
X319026Y214998D01*
D02*
G37*
G36*
X317348Y214391D02*
X316012D01*
Y214388D01*
X316005Y214375D01*
X315996Y214356D01*
X315983Y214331D01*
X315967Y214299D01*
X315948Y214262D01*
X315926Y214224D01*
X315898Y214182D01*
X315869Y214138D01*
X315831Y214094D01*
X315794Y214050D01*
X315749Y214006D01*
X315702Y213961D01*
X315648Y213923D01*
X315591Y213885D01*
X315528Y213854D01*
X315354Y214097D01*
X315357Y214100D01*
X315370Y214107D01*
X315389Y214116D01*
X315414Y214132D01*
X315443Y214151D01*
X315474Y214173D01*
X315509Y214201D01*
X315544Y214230D01*
X315579Y214265D01*
X315613Y214303D01*
X315645Y214344D01*
X315673Y214388D01*
X315699Y214439D01*
X315718Y214489D01*
X315730Y214543D01*
X315734Y214600D01*
Y215102D01*
X317348D01*
Y214391D01*
D02*
G37*
G36*
X318906Y213784D02*
X318423D01*
Y212745D01*
X319339Y212799D01*
Y212539D01*
X318423Y212489D01*
Y212106D01*
X318075D01*
Y212473D01*
X315528Y212369D01*
X315525Y212362D01*
X315515Y212350D01*
X315500Y212331D01*
X315481Y212315D01*
X315465Y212302D01*
X315446D01*
X315440Y212305D01*
X315433Y212315D01*
X315427Y212331D01*
X315424Y212350D01*
X315389Y212659D01*
X316290Y212675D01*
Y213784D01*
X315873D01*
Y214062D01*
X318906D01*
Y213784D01*
D02*
G37*
%LPC*%
G36*
X285128Y221985D02*
X285101D01*
X284823Y221011D01*
X285405D01*
X285128Y221985D01*
D02*
G37*
G36*
X279966Y220883D02*
X279618D01*
X279603Y220881D01*
X279584D01*
X279540Y220876D01*
X279492Y220868D01*
X279443Y220858D01*
X279397Y220843D01*
X279376Y220834D01*
X279357Y220824D01*
X279353Y220822D01*
X279343Y220813D01*
X279328Y220801D01*
X279311Y220782D01*
X279292Y220759D01*
X279277Y220729D01*
X279267Y220696D01*
X279265Y220677D01*
X279263Y220658D01*
Y220595D01*
Y220593D01*
Y220591D01*
Y220585D01*
X279265Y220576D01*
X279267Y220555D01*
X279273Y220530D01*
X279282Y220503D01*
X279296Y220473D01*
X279315Y220446D01*
X279343Y220423D01*
X279347Y220421D01*
X279357Y220414D01*
X279376Y220404D01*
X279401Y220395D01*
X279433Y220385D01*
X279473Y220374D01*
X279517Y220368D01*
X279567Y220366D01*
X279584D01*
X279597Y220368D01*
X279611D01*
X279628Y220370D01*
X279668Y220377D01*
X279714Y220385D01*
X279760Y220400D01*
X279809Y220419D01*
X279853Y220444D01*
X279855D01*
X279857Y220448D01*
X279870Y220459D01*
X279889Y220475D01*
X279909Y220498D01*
X279930Y220526D01*
X279949Y220559D01*
X279962Y220597D01*
X279964Y220618D01*
X279966Y220639D01*
Y220883D01*
D02*
G37*
G36*
X276069Y221542D02*
X276050D01*
X276037Y221540D01*
X276020Y221538D01*
X276001Y221536D01*
X275980Y221532D01*
X275957Y221527D01*
X275909Y221513D01*
X275856Y221492D01*
X275831Y221479D01*
X275806Y221464D01*
X275783Y221445D01*
X275760Y221425D01*
X275758Y221422D01*
X275756Y221418D01*
X275749Y221412D01*
X275741Y221404D01*
X275733Y221391D01*
X275724Y221376D01*
X275714Y221357D01*
X275703Y221338D01*
X275691Y221313D01*
X275680Y221288D01*
X275672Y221259D01*
X275663Y221227D01*
X275655Y221194D01*
X275649Y221156D01*
X275646Y221116D01*
X275644Y221074D01*
Y220845D01*
Y220843D01*
Y220834D01*
Y220822D01*
X275646Y220807D01*
X275649Y220786D01*
X275651Y220765D01*
X275655Y220740D01*
X275659Y220713D01*
X275672Y220656D01*
X275693Y220597D01*
X275707Y220570D01*
X275722Y220543D01*
X275739Y220517D01*
X275760Y220494D01*
X275762Y220492D01*
X275766Y220490D01*
X275773Y220484D01*
X275781Y220475D01*
X275794Y220467D01*
X275806Y220459D01*
X275823Y220448D01*
X275842Y220438D01*
X275863Y220425D01*
X275886Y220414D01*
X275911Y220406D01*
X275938Y220398D01*
X275999Y220383D01*
X276033Y220381D01*
X276069Y220379D01*
X276087D01*
X276100Y220381D01*
X276117Y220383D01*
X276136Y220385D01*
X276157Y220389D01*
X276178Y220393D01*
X276228Y220406D01*
X276279Y220427D01*
X276304Y220442D01*
X276329Y220456D01*
X276352Y220473D01*
X276375Y220494D01*
X276377Y220496D01*
X276379Y220500D01*
X276386Y220507D01*
X276394Y220515D01*
X276402Y220528D01*
X276411Y220543D01*
X276421Y220561D01*
X276434Y220582D01*
X276445Y220605D01*
X276455Y220631D01*
X276463Y220660D01*
X276472Y220692D01*
X276480Y220725D01*
X276486Y220763D01*
X276489Y220803D01*
X276491Y220845D01*
Y221074D01*
Y221076D01*
Y221084D01*
Y221097D01*
X276489Y221112D01*
X276486Y221133D01*
X276484Y221154D01*
X276480Y221179D01*
X276476Y221206D01*
X276463Y221263D01*
X276442Y221322D01*
X276430Y221349D01*
X276413Y221376D01*
X276396Y221401D01*
X276375Y221425D01*
X276373Y221427D01*
X276369Y221429D01*
X276363Y221435D01*
X276354Y221443D01*
X276342Y221452D01*
X276329Y221462D01*
X276312Y221473D01*
X276293Y221483D01*
X276272Y221494D01*
X276249Y221504D01*
X276224Y221515D01*
X276197Y221523D01*
X276136Y221538D01*
X276104Y221540D01*
X276069Y221542D01*
D02*
G37*
G36*
X278076Y218847D02*
X278030D01*
X278015Y218845D01*
X277998Y218842D01*
X277980Y218840D01*
X277959Y218836D01*
X277936Y218832D01*
X277885Y218817D01*
X277860Y218807D01*
X277835Y218794D01*
X277807Y218779D01*
X277784Y218765D01*
X277759Y218744D01*
X277738Y218723D01*
X277736Y218721D01*
X277734Y218716D01*
X277728Y218710D01*
X277721Y218700D01*
X277713Y218689D01*
X277705Y218674D01*
X277694Y218655D01*
X277683Y218637D01*
X277673Y218616D01*
X277662Y218590D01*
X277654Y218563D01*
X277646Y218536D01*
X277639Y218504D01*
X277633Y218471D01*
X277631Y218437D01*
X277629Y218399D01*
Y218141D01*
Y218139D01*
Y218133D01*
Y218122D01*
X277631Y218107D01*
X277633Y218091D01*
X277635Y218072D01*
X277637Y218049D01*
X277644Y218025D01*
X277656Y217973D01*
X277675Y217920D01*
X277688Y217893D01*
X277702Y217866D01*
X277719Y217841D01*
X277738Y217818D01*
X277740Y217815D01*
X277742Y217813D01*
X277751Y217807D01*
X277759Y217799D01*
X277770Y217790D01*
X277784Y217780D01*
X277801Y217767D01*
X277818Y217757D01*
X277839Y217746D01*
X277862Y217734D01*
X277889Y217723D01*
X277917Y217715D01*
X277946Y217706D01*
X277977Y217702D01*
X278013Y217698D01*
X278049Y217696D01*
X278062D01*
X278076Y217698D01*
X278095D01*
X278116Y217700D01*
X278141Y217704D01*
X278192Y217715D01*
X278194D01*
X278202Y217719D01*
X278215Y217723D01*
X278232Y217729D01*
X278251Y217738D01*
X278272Y217746D01*
X278311Y217771D01*
X278313Y217774D01*
X278320Y217778D01*
X278330Y217786D01*
X278343Y217797D01*
X278356Y217811D01*
X278370Y217828D01*
X278383Y217845D01*
X278395Y217866D01*
X278397Y217868D01*
X278400Y217876D01*
X278406Y217889D01*
X278412Y217904D01*
X278416Y217925D01*
X278423Y217946D01*
X278425Y217971D01*
X278427Y217998D01*
Y218542D01*
Y218546D01*
Y218555D01*
X278425Y218569D01*
X278423Y218586D01*
X278418Y218607D01*
X278414Y218628D01*
X278406Y218651D01*
X278395Y218672D01*
X278393Y218674D01*
X278389Y218683D01*
X278383Y218693D01*
X278374Y218706D01*
X278362Y218721D01*
X278347Y218735D01*
X278330Y218752D01*
X278311Y218767D01*
X278309Y218769D01*
X278303Y218773D01*
X278290Y218781D01*
X278278Y218790D01*
X278259Y218798D01*
X278238Y218809D01*
X278217Y218817D01*
X278192Y218826D01*
X278190D01*
X278179Y218830D01*
X278167Y218832D01*
X278150Y218836D01*
X278127Y218840D01*
X278103Y218842D01*
X278076Y218847D01*
D02*
G37*
G36*
X274464D02*
X274437D01*
X274418Y218845D01*
X274397Y218842D01*
X274372Y218838D01*
X274321Y218826D01*
X274319D01*
X274311Y218821D01*
X274298Y218817D01*
X274282Y218811D01*
X274263Y218802D01*
X274242Y218792D01*
X274200Y218767D01*
X274198Y218765D01*
X274191Y218760D01*
X274181Y218752D01*
X274170Y218742D01*
X274158Y218727D01*
X274143Y218710D01*
X274130Y218693D01*
X274118Y218672D01*
X274116Y218670D01*
X274113Y218662D01*
X274109Y218651D01*
X274103Y218635D01*
X274097Y218616D01*
X274093Y218593D01*
X274090Y218569D01*
X274088Y218542D01*
Y217998D01*
Y217994D01*
Y217986D01*
X274090Y217971D01*
X274093Y217954D01*
X274095Y217933D01*
X274101Y217912D01*
X274107Y217889D01*
X274118Y217866D01*
X274120Y217864D01*
X274124Y217858D01*
X274130Y217847D01*
X274139Y217832D01*
X274151Y217818D01*
X274164Y217803D01*
X274181Y217786D01*
X274200Y217771D01*
X274202Y217769D01*
X274210Y217765D01*
X274221Y217759D01*
X274235Y217750D01*
X274254Y217742D01*
X274273Y217731D01*
X274296Y217723D01*
X274321Y217715D01*
X274324D01*
X274334Y217713D01*
X274347Y217708D01*
X274365Y217706D01*
X274387Y217702D01*
X274410Y217698D01*
X274437Y217696D01*
X274483D01*
X274498Y217698D01*
X274515Y217700D01*
X274534Y217702D01*
X274554Y217706D01*
X274578Y217710D01*
X274628Y217725D01*
X274653Y217736D01*
X274678Y217748D01*
X274704Y217761D01*
X274729Y217778D01*
X274752Y217797D01*
X274773Y217818D01*
X274775Y217820D01*
X274777Y217824D01*
X274783Y217830D01*
X274790Y217841D01*
X274798Y217851D01*
X274809Y217866D01*
X274819Y217885D01*
X274830Y217904D01*
X274838Y217927D01*
X274849Y217950D01*
X274859Y217977D01*
X274867Y218004D01*
X274874Y218036D01*
X274880Y218070D01*
X274882Y218103D01*
X274884Y218141D01*
Y218399D01*
Y218401D01*
Y218408D01*
Y218418D01*
X274882Y218433D01*
X274880Y218450D01*
X274878Y218469D01*
X274876Y218492D01*
X274869Y218515D01*
X274857Y218567D01*
X274838Y218622D01*
X274825Y218647D01*
X274811Y218674D01*
X274792Y218700D01*
X274773Y218723D01*
X274771Y218725D01*
X274769Y218729D01*
X274762Y218733D01*
X274752Y218742D01*
X274741Y218752D01*
X274729Y218763D01*
X274712Y218773D01*
X274693Y218786D01*
X274672Y218796D01*
X274649Y218807D01*
X274624Y218817D01*
X274597Y218828D01*
X274567Y218836D01*
X274536Y218840D01*
X274500Y218845D01*
X274464Y218847D01*
D02*
G37*
G36*
X276535Y218194D02*
X276186D01*
X276171Y218191D01*
X276153D01*
X276109Y218187D01*
X276060Y218179D01*
X276012Y218168D01*
X275966Y218154D01*
X275945Y218145D01*
X275926Y218135D01*
X275922Y218133D01*
X275911Y218124D01*
X275896Y218112D01*
X275880Y218093D01*
X275861Y218070D01*
X275846Y218040D01*
X275835Y218007D01*
X275833Y217988D01*
X275831Y217969D01*
Y217906D01*
Y217904D01*
Y217902D01*
Y217895D01*
X275833Y217887D01*
X275835Y217866D01*
X275842Y217841D01*
X275850Y217813D01*
X275865Y217784D01*
X275884Y217757D01*
X275911Y217734D01*
X275915Y217731D01*
X275926Y217725D01*
X275945Y217715D01*
X275970Y217706D01*
X276001Y217696D01*
X276041Y217685D01*
X276085Y217679D01*
X276136Y217677D01*
X276153D01*
X276165Y217679D01*
X276180D01*
X276197Y217681D01*
X276237Y217687D01*
X276283Y217696D01*
X276329Y217710D01*
X276377Y217729D01*
X276421Y217755D01*
X276424D01*
X276426Y217759D01*
X276438Y217769D01*
X276457Y217786D01*
X276478Y217809D01*
X276499Y217836D01*
X276518Y217870D01*
X276531Y217908D01*
X276533Y217929D01*
X276535Y217950D01*
Y218194D01*
D02*
G37*
G36*
X287136Y218847D02*
X287108D01*
X287089Y218845D01*
X287068Y218842D01*
X287043Y218838D01*
X286993Y218826D01*
X286991D01*
X286982Y218821D01*
X286970Y218817D01*
X286953Y218811D01*
X286934Y218802D01*
X286913Y218792D01*
X286871Y218767D01*
X286869Y218765D01*
X286863Y218760D01*
X286852Y218752D01*
X286842Y218742D01*
X286829Y218727D01*
X286814Y218710D01*
X286802Y218693D01*
X286789Y218672D01*
X286787Y218670D01*
X286785Y218662D01*
X286781Y218651D01*
X286774Y218635D01*
X286768Y218616D01*
X286764Y218593D01*
X286762Y218569D01*
X286760Y218542D01*
Y217998D01*
Y217994D01*
Y217986D01*
X286762Y217971D01*
X286764Y217954D01*
X286766Y217933D01*
X286772Y217912D01*
X286779Y217889D01*
X286789Y217866D01*
X286791Y217864D01*
X286795Y217858D01*
X286802Y217847D01*
X286810Y217832D01*
X286823Y217818D01*
X286835Y217803D01*
X286852Y217786D01*
X286871Y217771D01*
X286873Y217769D01*
X286881Y217765D01*
X286892Y217759D01*
X286907Y217750D01*
X286926Y217742D01*
X286945Y217731D01*
X286968Y217723D01*
X286993Y217715D01*
X286995D01*
X287005Y217713D01*
X287018Y217708D01*
X287037Y217706D01*
X287058Y217702D01*
X287081Y217698D01*
X287108Y217696D01*
X287155D01*
X287169Y217698D01*
X287186Y217700D01*
X287205Y217702D01*
X287226Y217706D01*
X287249Y217710D01*
X287299Y217725D01*
X287325Y217736D01*
X287350Y217748D01*
X287375Y217761D01*
X287400Y217778D01*
X287423Y217797D01*
X287444Y217818D01*
X287446Y217820D01*
X287449Y217824D01*
X287455Y217830D01*
X287461Y217841D01*
X287470Y217851D01*
X287480Y217866D01*
X287491Y217885D01*
X287501Y217904D01*
X287509Y217927D01*
X287520Y217950D01*
X287530Y217977D01*
X287539Y218004D01*
X287545Y218036D01*
X287551Y218070D01*
X287554Y218103D01*
X287556Y218141D01*
Y218399D01*
Y218401D01*
Y218408D01*
Y218418D01*
X287554Y218433D01*
X287551Y218450D01*
X287549Y218469D01*
X287547Y218492D01*
X287541Y218515D01*
X287528Y218567D01*
X287509Y218622D01*
X287497Y218647D01*
X287482Y218674D01*
X287463Y218700D01*
X287444Y218723D01*
X287442Y218725D01*
X287440Y218729D01*
X287434Y218733D01*
X287423Y218742D01*
X287413Y218752D01*
X287400Y218763D01*
X287383Y218773D01*
X287365Y218786D01*
X287344Y218796D01*
X287320Y218807D01*
X287295Y218817D01*
X287268Y218828D01*
X287239Y218836D01*
X287207Y218840D01*
X287171Y218845D01*
X287136Y218847D01*
D02*
G37*
G36*
X285309Y218853D02*
X285290D01*
X285277Y218851D01*
X285260Y218849D01*
X285241Y218847D01*
X285220Y218842D01*
X285197Y218838D01*
X285149Y218824D01*
X285097Y218802D01*
X285071Y218790D01*
X285046Y218775D01*
X285023Y218756D01*
X285000Y218735D01*
X284998Y218733D01*
X284996Y218729D01*
X284989Y218723D01*
X284981Y218714D01*
X284973Y218702D01*
X284964Y218687D01*
X284954Y218668D01*
X284943Y218649D01*
X284931Y218624D01*
X284920Y218599D01*
X284912Y218569D01*
X284903Y218538D01*
X284895Y218504D01*
X284889Y218466D01*
X284887Y218427D01*
X284884Y218385D01*
Y218156D01*
Y218154D01*
Y218145D01*
Y218133D01*
X284887Y218118D01*
X284889Y218097D01*
X284891Y218076D01*
X284895Y218051D01*
X284899Y218023D01*
X284912Y217967D01*
X284933Y217908D01*
X284947Y217881D01*
X284962Y217853D01*
X284979Y217828D01*
X285000Y217805D01*
X285002Y217803D01*
X285006Y217801D01*
X285013Y217794D01*
X285021Y217786D01*
X285033Y217778D01*
X285046Y217769D01*
X285063Y217759D01*
X285082Y217748D01*
X285103Y217736D01*
X285126Y217725D01*
X285151Y217717D01*
X285178Y217708D01*
X285239Y217694D01*
X285273Y217692D01*
X285309Y217689D01*
X285328D01*
X285340Y217692D01*
X285357Y217694D01*
X285376Y217696D01*
X285397Y217700D01*
X285418Y217704D01*
X285468Y217717D01*
X285519Y217738D01*
X285544Y217753D01*
X285569Y217767D01*
X285592Y217784D01*
X285615Y217805D01*
X285617Y217807D01*
X285619Y217811D01*
X285626Y217818D01*
X285634Y217826D01*
X285643Y217839D01*
X285651Y217853D01*
X285661Y217872D01*
X285674Y217893D01*
X285684Y217916D01*
X285695Y217941D01*
X285703Y217971D01*
X285712Y218002D01*
X285720Y218036D01*
X285726Y218074D01*
X285729Y218114D01*
X285731Y218156D01*
Y218385D01*
Y218387D01*
Y218395D01*
Y218408D01*
X285729Y218422D01*
X285726Y218443D01*
X285724Y218464D01*
X285720Y218490D01*
X285716Y218517D01*
X285703Y218574D01*
X285682Y218632D01*
X285670Y218660D01*
X285653Y218687D01*
X285636Y218712D01*
X285615Y218735D01*
X285613Y218737D01*
X285609Y218740D01*
X285603Y218746D01*
X285594Y218754D01*
X285582Y218763D01*
X285569Y218773D01*
X285552Y218784D01*
X285533Y218794D01*
X285512Y218805D01*
X285489Y218815D01*
X285464Y218826D01*
X285437Y218834D01*
X285376Y218849D01*
X285344Y218851D01*
X285309Y218853D01*
D02*
G37*
G36*
X267207D02*
X267188D01*
X267175Y218851D01*
X267158Y218849D01*
X267139Y218847D01*
X267118Y218842D01*
X267095Y218838D01*
X267047Y218824D01*
X266995Y218802D01*
X266969Y218790D01*
X266944Y218775D01*
X266921Y218756D01*
X266898Y218735D01*
X266896Y218733D01*
X266894Y218729D01*
X266887Y218723D01*
X266879Y218714D01*
X266871Y218702D01*
X266862Y218687D01*
X266852Y218668D01*
X266841Y218649D01*
X266829Y218624D01*
X266818Y218599D01*
X266810Y218569D01*
X266801Y218538D01*
X266793Y218504D01*
X266787Y218466D01*
X266785Y218427D01*
X266782Y218385D01*
Y218156D01*
Y218154D01*
Y218145D01*
Y218133D01*
X266785Y218118D01*
X266787Y218097D01*
X266789Y218076D01*
X266793Y218051D01*
X266797Y218023D01*
X266810Y217967D01*
X266831Y217908D01*
X266845Y217881D01*
X266860Y217853D01*
X266877Y217828D01*
X266898Y217805D01*
X266900Y217803D01*
X266904Y217801D01*
X266911Y217794D01*
X266919Y217786D01*
X266932Y217778D01*
X266944Y217769D01*
X266961Y217759D01*
X266980Y217748D01*
X267001Y217736D01*
X267024Y217725D01*
X267049Y217717D01*
X267076Y217708D01*
X267137Y217694D01*
X267171Y217692D01*
X267207Y217689D01*
X267226D01*
X267238Y217692D01*
X267255Y217694D01*
X267274Y217696D01*
X267295Y217700D01*
X267316Y217704D01*
X267366Y217717D01*
X267417Y217738D01*
X267442Y217753D01*
X267467Y217767D01*
X267490Y217784D01*
X267513Y217805D01*
X267515Y217807D01*
X267517Y217811D01*
X267524Y217818D01*
X267532Y217826D01*
X267541Y217839D01*
X267549Y217853D01*
X267559Y217872D01*
X267572Y217893D01*
X267583Y217916D01*
X267593Y217941D01*
X267601Y217971D01*
X267610Y218002D01*
X267618Y218036D01*
X267624Y218074D01*
X267627Y218114D01*
X267629Y218156D01*
Y218385D01*
Y218387D01*
Y218395D01*
Y218408D01*
X267627Y218422D01*
X267624Y218443D01*
X267622Y218464D01*
X267618Y218490D01*
X267614Y218517D01*
X267601Y218574D01*
X267580Y218632D01*
X267568Y218660D01*
X267551Y218687D01*
X267534Y218712D01*
X267513Y218735D01*
X267511Y218737D01*
X267507Y218740D01*
X267501Y218746D01*
X267492Y218754D01*
X267480Y218763D01*
X267467Y218773D01*
X267450Y218784D01*
X267431Y218794D01*
X267410Y218805D01*
X267387Y218815D01*
X267362Y218826D01*
X267335Y218834D01*
X267274Y218849D01*
X267242Y218851D01*
X267207Y218853D01*
D02*
G37*
G36*
X294196Y215624D02*
X294147D01*
X294137Y215622D01*
X294122D01*
X294106Y215620D01*
X294068Y215613D01*
X294028Y215605D01*
X293986Y215590D01*
X293946Y215569D01*
X293929Y215557D01*
X293912Y215542D01*
X293908Y215538D01*
X293900Y215527D01*
X293887Y215511D01*
X293875Y215485D01*
X293860Y215456D01*
X293847Y215418D01*
X293839Y215376D01*
X293835Y215330D01*
Y215246D01*
Y215244D01*
Y215240D01*
Y215233D01*
X293837Y215225D01*
X293839Y215200D01*
X293845Y215170D01*
X293853Y215137D01*
X293868Y215101D01*
X293887Y215065D01*
X293912Y215034D01*
X293917Y215030D01*
X293927Y215021D01*
X293946Y215009D01*
X293973Y214994D01*
X294009Y214979D01*
X294053Y214967D01*
X294078Y214962D01*
X294103Y214958D01*
X294133Y214954D01*
X294181D01*
X294192Y214956D01*
X294206D01*
X294223Y214958D01*
X294261Y214965D01*
X294301Y214973D01*
X294343Y214988D01*
X294383Y215006D01*
X294399Y215019D01*
X294416Y215034D01*
X294421Y215038D01*
X294429Y215049D01*
X294442Y215065D01*
X294458Y215090D01*
X294473Y215120D01*
X294486Y215158D01*
X294494Y215200D01*
X294498Y215246D01*
Y215330D01*
Y215332D01*
Y215336D01*
Y215342D01*
X294496Y215351D01*
X294494Y215376D01*
X294488Y215406D01*
X294479Y215439D01*
X294465Y215475D01*
X294444Y215511D01*
X294416Y215542D01*
X294412Y215546D01*
X294402Y215555D01*
X294383Y215567D01*
X294355Y215584D01*
X294320Y215599D01*
X294276Y215611D01*
X294252Y215616D01*
X294225Y215620D01*
X294196Y215624D01*
D02*
G37*
G36*
X294425Y214236D02*
X293853D01*
X293849Y214234D01*
X293843Y214229D01*
X293835Y214225D01*
X293811Y214211D01*
X293786Y214190D01*
X293761Y214164D01*
X293738Y214131D01*
X293730Y214112D01*
X293723Y214091D01*
X293719Y214068D01*
X293717Y214045D01*
Y214040D01*
X293719Y214028D01*
X293721Y214011D01*
X293727Y213988D01*
X293736Y213963D01*
X293748Y213933D01*
X293767Y213906D01*
X293793Y213879D01*
X293797Y213877D01*
X293807Y213868D01*
X293826Y213856D01*
X293839Y213849D01*
X293856Y213843D01*
X293872Y213837D01*
X293891Y213830D01*
X293912Y213824D01*
X293935Y213818D01*
X293963Y213814D01*
X293990Y213809D01*
X294022Y213807D01*
X294330D01*
X294347Y213809D01*
X294366Y213812D01*
X294387D01*
X294410Y213816D01*
X294458Y213822D01*
X294511Y213833D01*
X294559Y213847D01*
X294582Y213858D01*
X294603Y213868D01*
X294605D01*
X294607Y213870D01*
X294620Y213879D01*
X294637Y213894D01*
X294658Y213914D01*
X294679Y213940D01*
X294696Y213969D01*
X294708Y214005D01*
X294710Y214026D01*
X294712Y214047D01*
Y214051D01*
Y214061D01*
X294708Y214076D01*
X294704Y214095D01*
X294696Y214116D01*
X294683Y214139D01*
X294664Y214162D01*
X294641Y214183D01*
X294637Y214185D01*
X294628Y214192D01*
X294609Y214200D01*
X294584Y214211D01*
X294567Y214215D01*
X294551Y214219D01*
X294530Y214223D01*
X294507Y214227D01*
X294481Y214232D01*
X294456Y214234D01*
X294425Y214236D01*
D02*
G37*
G36*
X283335Y215624D02*
X283286D01*
X283276Y215622D01*
X283261D01*
X283244Y215620D01*
X283207Y215613D01*
X283167Y215605D01*
X283125Y215590D01*
X283085Y215569D01*
X283068Y215557D01*
X283051Y215542D01*
X283047Y215538D01*
X283038Y215527D01*
X283026Y215511D01*
X283013Y215485D01*
X282999Y215456D01*
X282986Y215418D01*
X282978Y215376D01*
X282973Y215330D01*
Y215246D01*
Y215244D01*
Y215240D01*
Y215233D01*
X282976Y215225D01*
X282978Y215200D01*
X282984Y215170D01*
X282992Y215137D01*
X283007Y215101D01*
X283026Y215065D01*
X283051Y215034D01*
X283055Y215030D01*
X283066Y215021D01*
X283085Y215009D01*
X283112Y214994D01*
X283148Y214979D01*
X283192Y214967D01*
X283217Y214962D01*
X283242Y214958D01*
X283272Y214954D01*
X283320D01*
X283330Y214956D01*
X283345D01*
X283362Y214958D01*
X283400Y214965D01*
X283440Y214973D01*
X283482Y214988D01*
X283522Y215006D01*
X283538Y215019D01*
X283555Y215034D01*
X283559Y215038D01*
X283568Y215049D01*
X283580Y215065D01*
X283597Y215090D01*
X283612Y215120D01*
X283624Y215158D01*
X283633Y215200D01*
X283637Y215246D01*
Y215330D01*
Y215332D01*
Y215336D01*
Y215342D01*
X283635Y215351D01*
X283633Y215376D01*
X283627Y215406D01*
X283618Y215439D01*
X283603Y215475D01*
X283582Y215511D01*
X283555Y215542D01*
X283551Y215546D01*
X283540Y215555D01*
X283522Y215567D01*
X283494Y215584D01*
X283458Y215599D01*
X283414Y215611D01*
X283391Y215616D01*
X283364Y215620D01*
X283335Y215624D01*
D02*
G37*
G36*
X283563Y214236D02*
X282992D01*
X282988Y214234D01*
X282982Y214229D01*
X282973Y214225D01*
X282950Y214211D01*
X282925Y214190D01*
X282900Y214164D01*
X282877Y214131D01*
X282868Y214112D01*
X282862Y214091D01*
X282858Y214068D01*
X282856Y214045D01*
Y214040D01*
X282858Y214028D01*
X282860Y214011D01*
X282866Y213988D01*
X282875Y213963D01*
X282887Y213933D01*
X282906Y213906D01*
X282931Y213879D01*
X282936Y213877D01*
X282946Y213868D01*
X282965Y213856D01*
X282978Y213849D01*
X282994Y213843D01*
X283011Y213837D01*
X283030Y213830D01*
X283051Y213824D01*
X283074Y213818D01*
X283102Y213814D01*
X283129Y213809D01*
X283160Y213807D01*
X283469D01*
X283486Y213809D01*
X283505Y213812D01*
X283526D01*
X283549Y213816D01*
X283597Y213822D01*
X283650Y213833D01*
X283698Y213847D01*
X283721Y213858D01*
X283742Y213868D01*
X283744D01*
X283746Y213870D01*
X283759Y213879D01*
X283776Y213894D01*
X283797Y213914D01*
X283818Y213940D01*
X283834Y213969D01*
X283847Y214005D01*
X283849Y214026D01*
X283851Y214047D01*
Y214051D01*
Y214061D01*
X283847Y214076D01*
X283843Y214095D01*
X283834Y214116D01*
X283822Y214139D01*
X283803Y214162D01*
X283780Y214183D01*
X283776Y214185D01*
X283767Y214192D01*
X283748Y214200D01*
X283723Y214211D01*
X283706Y214215D01*
X283689Y214219D01*
X283668Y214223D01*
X283645Y214227D01*
X283620Y214232D01*
X283595Y214234D01*
X283563Y214236D01*
D02*
G37*
G36*
X272559Y216094D02*
X272104D01*
Y215353D01*
X272574D01*
X272587Y215355D01*
X272599D01*
X272614Y215357D01*
X272650Y215364D01*
X272690Y215372D01*
X272730Y215385D01*
X272769Y215403D01*
X272803Y215429D01*
X272807Y215433D01*
X272816Y215443D01*
X272830Y215460D01*
X272845Y215485D01*
X272860Y215517D01*
X272874Y215555D01*
X272883Y215601D01*
X272887Y215651D01*
Y215794D01*
Y215796D01*
Y215800D01*
Y215809D01*
X272885Y215817D01*
Y215830D01*
X272883Y215844D01*
X272877Y215876D01*
X272866Y215912D01*
X272851Y215949D01*
X272830Y215985D01*
X272803Y216017D01*
X272799Y216021D01*
X272788Y216029D01*
X272767Y216042D01*
X272742Y216056D01*
X272707Y216069D01*
X272664Y216082D01*
X272616Y216090D01*
X272559Y216094D01*
D02*
G37*
G36*
X265239Y216103D02*
X264857D01*
Y215431D01*
X265254D01*
X265266Y215433D01*
X265279D01*
X265296Y215435D01*
X265331Y215439D01*
X265371Y215447D01*
X265411Y215460D01*
X265451Y215475D01*
X265487Y215498D01*
X265491Y215502D01*
X265501Y215511D01*
X265514Y215527D01*
X265531Y215550D01*
X265548Y215580D01*
X265560Y215616D01*
X265571Y215660D01*
X265575Y215710D01*
Y215821D01*
Y215823D01*
Y215828D01*
Y215836D01*
X265573Y215844D01*
X265571Y215872D01*
X265564Y215903D01*
X265554Y215937D01*
X265537Y215972D01*
X265516Y216006D01*
X265487Y216033D01*
X265482Y216036D01*
X265470Y216044D01*
X265451Y216054D01*
X265424Y216069D01*
X265388Y216082D01*
X265346Y216092D01*
X265296Y216101D01*
X265239Y216103D01*
D02*
G37*
G36*
X265285Y215204D02*
X264857D01*
Y214475D01*
X265302D01*
X265315Y214477D01*
X265327D01*
X265344Y214479D01*
X265384Y214484D01*
X265426Y214494D01*
X265470Y214507D01*
X265514Y214524D01*
X265552Y214549D01*
X265554D01*
X265556Y214553D01*
X265566Y214563D01*
X265581Y214580D01*
X265600Y214605D01*
X265617Y214639D01*
X265632Y214679D01*
X265642Y214725D01*
X265646Y214752D01*
Y214782D01*
Y214899D01*
Y214901D01*
Y214906D01*
Y214914D01*
X265644Y214925D01*
Y214937D01*
X265642Y214952D01*
X265634Y214985D01*
X265623Y215023D01*
X265606Y215061D01*
X265583Y215097D01*
X265569Y215114D01*
X265552Y215128D01*
X265548Y215132D01*
X265541Y215135D01*
X265535Y215141D01*
X265525Y215145D01*
X265512Y215151D01*
X265482Y215166D01*
X265445Y215181D01*
X265399Y215191D01*
X265346Y215200D01*
X265285Y215204D01*
D02*
G37*
G36*
X290567Y215607D02*
X290550D01*
X290533Y215605D01*
X290508Y215603D01*
X290483Y215599D01*
X290454Y215592D01*
X290422Y215584D01*
X290393Y215574D01*
X290388Y215571D01*
X290380Y215567D01*
X290365Y215559D01*
X290347Y215550D01*
X290325Y215536D01*
X290302Y215521D01*
X290279Y215502D01*
X290256Y215481D01*
X290254Y215479D01*
X290246Y215471D01*
X290235Y215458D01*
X290223Y215441D01*
X290208Y215420D01*
X290193Y215397D01*
X290178Y215370D01*
X290164Y215340D01*
X290162Y215336D01*
X290160Y215326D01*
X290153Y215309D01*
X290149Y215288D01*
X290143Y215261D01*
X290137Y215231D01*
X290134Y215198D01*
X290132Y215162D01*
Y215139D01*
X290974D01*
Y215170D01*
Y215172D01*
Y215179D01*
Y215189D01*
X290972Y215204D01*
X290970Y215221D01*
X290968Y215240D01*
X290966Y215261D01*
X290960Y215284D01*
X290947Y215334D01*
X290928Y215387D01*
X290916Y215414D01*
X290901Y215439D01*
X290882Y215464D01*
X290863Y215487D01*
X290861Y215490D01*
X290859Y215492D01*
X290853Y215498D01*
X290842Y215506D01*
X290832Y215515D01*
X290819Y215525D01*
X290802Y215536D01*
X290785Y215548D01*
X290764Y215559D01*
X290741Y215569D01*
X290691Y215588D01*
X290664Y215597D01*
X290632Y215603D01*
X290601Y215605D01*
X290567Y215607D01*
D02*
G37*
G36*
X279706D02*
X279689D01*
X279672Y215605D01*
X279647Y215603D01*
X279622Y215599D01*
X279592Y215592D01*
X279561Y215584D01*
X279532Y215574D01*
X279527Y215571D01*
X279519Y215567D01*
X279504Y215559D01*
X279485Y215550D01*
X279464Y215536D01*
X279441Y215521D01*
X279418Y215502D01*
X279395Y215481D01*
X279393Y215479D01*
X279384Y215471D01*
X279374Y215458D01*
X279361Y215441D01*
X279347Y215420D01*
X279332Y215397D01*
X279317Y215370D01*
X279303Y215340D01*
X279300Y215336D01*
X279298Y215326D01*
X279292Y215309D01*
X279288Y215288D01*
X279282Y215261D01*
X279275Y215231D01*
X279273Y215198D01*
X279271Y215162D01*
Y215139D01*
X280113D01*
Y215170D01*
Y215172D01*
Y215179D01*
Y215189D01*
X280111Y215204D01*
X280109Y215221D01*
X280107Y215240D01*
X280105Y215261D01*
X280099Y215284D01*
X280086Y215334D01*
X280067Y215387D01*
X280054Y215414D01*
X280040Y215439D01*
X280021Y215464D01*
X280002Y215487D01*
X280000Y215490D01*
X279998Y215492D01*
X279991Y215498D01*
X279981Y215506D01*
X279970Y215515D01*
X279958Y215525D01*
X279941Y215536D01*
X279924Y215548D01*
X279903Y215559D01*
X279880Y215569D01*
X279830Y215588D01*
X279802Y215597D01*
X279771Y215603D01*
X279739Y215605D01*
X279706Y215607D01*
D02*
G37*
G36*
X274265Y215597D02*
X274246D01*
X274233Y215595D01*
X274216Y215592D01*
X274198Y215590D01*
X274177Y215586D01*
X274153Y215582D01*
X274105Y215567D01*
X274053Y215546D01*
X274027Y215534D01*
X274002Y215519D01*
X273979Y215500D01*
X273956Y215479D01*
X273954Y215477D01*
X273952Y215473D01*
X273945Y215466D01*
X273937Y215458D01*
X273929Y215445D01*
X273920Y215431D01*
X273910Y215412D01*
X273899Y215393D01*
X273887Y215368D01*
X273876Y215342D01*
X273868Y215313D01*
X273859Y215282D01*
X273851Y215248D01*
X273845Y215210D01*
X273843Y215170D01*
X273840Y215128D01*
Y214899D01*
Y214897D01*
Y214889D01*
Y214876D01*
X273843Y214862D01*
X273845Y214841D01*
X273847Y214820D01*
X273851Y214794D01*
X273855Y214767D01*
X273868Y214710D01*
X273889Y214652D01*
X273903Y214624D01*
X273918Y214597D01*
X273935Y214572D01*
X273956Y214549D01*
X273958Y214547D01*
X273962Y214545D01*
X273969Y214538D01*
X273977Y214530D01*
X273990Y214521D01*
X274002Y214513D01*
X274019Y214503D01*
X274038Y214492D01*
X274059Y214479D01*
X274082Y214469D01*
X274107Y214460D01*
X274134Y214452D01*
X274195Y214437D01*
X274229Y214435D01*
X274265Y214433D01*
X274284D01*
X274296Y214435D01*
X274313Y214437D01*
X274332Y214440D01*
X274353Y214444D01*
X274374Y214448D01*
X274424Y214460D01*
X274475Y214481D01*
X274500Y214496D01*
X274525Y214511D01*
X274548Y214528D01*
X274571Y214549D01*
X274573Y214551D01*
X274575Y214555D01*
X274582Y214561D01*
X274590Y214570D01*
X274599Y214582D01*
X274607Y214597D01*
X274618Y214616D01*
X274630Y214637D01*
X274641Y214660D01*
X274651Y214685D01*
X274659Y214715D01*
X274668Y214746D01*
X274676Y214780D01*
X274683Y214818D01*
X274685Y214857D01*
X274687Y214899D01*
Y215128D01*
Y215130D01*
Y215139D01*
Y215151D01*
X274685Y215166D01*
X274683Y215187D01*
X274680Y215208D01*
X274676Y215233D01*
X274672Y215261D01*
X274659Y215317D01*
X274639Y215376D01*
X274626Y215403D01*
X274609Y215431D01*
X274592Y215456D01*
X274571Y215479D01*
X274569Y215481D01*
X274565Y215483D01*
X274559Y215490D01*
X274550Y215498D01*
X274538Y215506D01*
X274525Y215517D01*
X274508Y215527D01*
X274489Y215538D01*
X274468Y215548D01*
X274445Y215559D01*
X274420Y215569D01*
X274393Y215578D01*
X274332Y215592D01*
X274300Y215595D01*
X274265Y215597D01*
D02*
G37*
G36*
X267034Y215607D02*
X267018D01*
X267001Y215605D01*
X266976Y215603D01*
X266950Y215599D01*
X266921Y215592D01*
X266890Y215584D01*
X266860Y215574D01*
X266856Y215571D01*
X266847Y215567D01*
X266833Y215559D01*
X266814Y215550D01*
X266793Y215536D01*
X266770Y215521D01*
X266747Y215502D01*
X266724Y215481D01*
X266722Y215479D01*
X266713Y215471D01*
X266703Y215458D01*
X266690Y215441D01*
X266675Y215420D01*
X266661Y215397D01*
X266646Y215370D01*
X266631Y215340D01*
X266629Y215336D01*
X266627Y215326D01*
X266621Y215309D01*
X266617Y215288D01*
X266610Y215261D01*
X266604Y215231D01*
X266602Y215198D01*
X266600Y215162D01*
Y215139D01*
X267442D01*
Y215170D01*
Y215172D01*
Y215179D01*
Y215189D01*
X267440Y215204D01*
X267438Y215221D01*
X267436Y215240D01*
X267433Y215261D01*
X267427Y215284D01*
X267414Y215334D01*
X267396Y215387D01*
X267383Y215414D01*
X267368Y215439D01*
X267349Y215464D01*
X267331Y215487D01*
X267328Y215490D01*
X267326Y215492D01*
X267320Y215498D01*
X267309Y215506D01*
X267299Y215515D01*
X267286Y215525D01*
X267270Y215536D01*
X267253Y215548D01*
X267232Y215559D01*
X267209Y215569D01*
X267158Y215588D01*
X267131Y215597D01*
X267099Y215603D01*
X267068Y215605D01*
X267034Y215607D01*
D02*
G37*
G36*
X316827Y223921D02*
X316618D01*
Y223659D01*
X316827D01*
Y223921D01*
D02*
G37*
G36*
X317380Y223451D02*
X317121D01*
Y223296D01*
Y223289D01*
X317124Y223277D01*
X317130Y223258D01*
X317140Y223236D01*
X317159Y223214D01*
X317187Y223195D01*
X317203Y223188D01*
X317225Y223182D01*
X317247Y223176D01*
X317380D01*
Y223451D01*
D02*
G37*
G36*
X316305D02*
X316027D01*
Y223141D01*
X316037D01*
X316050Y223144D01*
X316065Y223147D01*
X316103Y223163D01*
X316125Y223173D01*
X316147Y223185D01*
X316173Y223204D01*
X316195Y223223D01*
X316220Y223248D01*
X316242Y223277D01*
X316261Y223312D01*
X316280Y223353D01*
X316293Y223400D01*
X316305Y223451D01*
D02*
G37*
G36*
X316827D02*
X316599D01*
Y223444D01*
X316596Y223429D01*
X316593Y223403D01*
X316590Y223372D01*
X316580Y223331D01*
X316565Y223286D01*
X316546Y223239D01*
X316524Y223188D01*
X316492Y223138D01*
X316454Y223087D01*
X316407Y223037D01*
X316353Y222989D01*
X316286Y222948D01*
X316211Y222914D01*
X316125Y222885D01*
X316078Y222872D01*
X316027Y222863D01*
Y222793D01*
X317380D01*
Y222967D01*
X317089D01*
X317076Y222970D01*
X317058D01*
X317039Y222977D01*
X317017Y222983D01*
X316991Y222992D01*
X316966Y223005D01*
X316937Y223021D01*
X316915Y223040D01*
X316890Y223062D01*
X316871Y223090D01*
X316852Y223125D01*
X316840Y223163D01*
X316830Y223211D01*
X316827Y223261D01*
Y223451D01*
D02*
G37*
G36*
X317380Y222585D02*
X316027D01*
Y222376D01*
X317380D01*
Y222585D01*
D02*
G37*
G36*
X318628Y219328D02*
X317086D01*
Y218444D01*
X318628D01*
Y219328D01*
D02*
G37*
G36*
Y218115D02*
X317086D01*
Y217196D01*
X318628D01*
Y218115D01*
D02*
G37*
G36*
X318593Y214859D02*
X318021D01*
X318024Y214852D01*
X318037Y214837D01*
X318059Y214811D01*
X318088Y214777D01*
X318126Y214742D01*
X318170Y214701D01*
X318224Y214660D01*
X318284Y214619D01*
X318287Y214622D01*
X318293Y214625D01*
X318306Y214631D01*
X318322Y214641D01*
X318359Y214669D01*
X318407Y214701D01*
X318457Y214739D01*
X318508Y214780D01*
X318555Y214821D01*
X318574Y214840D01*
X318593Y214859D01*
D02*
G37*
G36*
X317051Y214894D02*
X316688D01*
Y214600D01*
X317051D01*
Y214894D01*
D02*
G37*
G36*
X316394D02*
X316031D01*
Y214600D01*
X316394D01*
Y214894D01*
D02*
G37*
G36*
X318075Y213784D02*
X316637D01*
Y213595D01*
X318075D01*
Y213784D01*
D02*
G37*
G36*
Y213386D02*
X316637D01*
Y213162D01*
X318075D01*
Y213386D01*
D02*
G37*
G36*
Y212953D02*
X316637D01*
Y212694D01*
X318075Y212729D01*
Y212953D01*
D02*
G37*
%LPD*%
D21*
X234922Y74976D02*
D03*
X233530Y73585D02*
D03*
X232138Y72193D02*
D03*
X230746Y70801D02*
D03*
X229354Y69409D02*
D03*
D22*
X229744Y84553D02*
D03*
X219778Y74587D02*
D03*
D28*
X511614Y174803D02*
D03*
X507283D02*
D03*
D29*
X490551Y137598D02*
D03*
Y133268D02*
D03*
D30*
X472047Y219803D02*
D03*
Y217323D02*
D03*
Y214843D02*
D03*
X465984D02*
D03*
Y217323D02*
D03*
Y219803D02*
D03*
X479921D02*
D03*
Y217323D02*
D03*
Y214843D02*
D03*
X485984D02*
D03*
Y217323D02*
D03*
Y219803D02*
D03*
X499213D02*
D03*
Y217323D02*
D03*
Y214843D02*
D03*
X493150D02*
D03*
Y217323D02*
D03*
Y219803D02*
D03*
D31*
X399401Y140363D02*
D03*
X395087Y144676D02*
D03*
X447039Y195087D02*
D03*
X145481Y145070D02*
D03*
X442725Y199401D02*
D03*
X149794Y140757D02*
D03*
D32*
X363571Y168319D02*
D03*
X358476Y173413D02*
D03*
D33*
X466003Y187733D02*
D03*
X464611Y186341D02*
D03*
X463219Y184949D02*
D03*
X461827Y183557D02*
D03*
X460435Y182165D02*
D03*
X459044Y180773D02*
D03*
X457652Y179381D02*
D03*
X456260Y177989D02*
D03*
X450692Y172422D02*
D03*
X478464Y136298D02*
D03*
X479856Y137690D02*
D03*
X481248Y139082D02*
D03*
X482640Y140474D02*
D03*
X484032Y141866D02*
D03*
X485424Y143257D02*
D03*
X486816Y144650D02*
D03*
X488207Y146041D02*
D03*
X489599Y147433D02*
D03*
X490991Y148825D02*
D03*
X492383Y150217D02*
D03*
X493775Y151609D02*
D03*
X495167Y153001D02*
D03*
X496559Y154393D02*
D03*
X453476Y175205D02*
D03*
X467395Y189125D02*
D03*
X499343Y157177D02*
D03*
X446516Y168246D02*
D03*
X449300Y171030D02*
D03*
X454868Y176597D02*
D03*
X447908Y169638D02*
D03*
X452084Y173813D02*
D03*
X497951Y155785D02*
D03*
D34*
X450692Y153001D02*
D03*
X456260Y147433D02*
D03*
X457652Y146041D02*
D03*
X461827Y141866D02*
D03*
X464611Y139082D02*
D03*
X499343Y168246D02*
D03*
X497951Y169638D02*
D03*
X496559Y171030D02*
D03*
X495167Y172422D02*
D03*
X493775Y173813D02*
D03*
X492383Y175205D02*
D03*
X489599Y177989D02*
D03*
X488207Y179381D02*
D03*
X486816Y180773D02*
D03*
X485424Y182165D02*
D03*
X484032Y183557D02*
D03*
X482640Y184949D02*
D03*
X481248Y186341D02*
D03*
X453476Y150217D02*
D03*
X446516Y157177D02*
D03*
X449300Y154393D02*
D03*
X467395Y136298D02*
D03*
X478464Y189125D02*
D03*
X459044Y144650D02*
D03*
X460435Y143257D02*
D03*
X490991Y176597D02*
D03*
X463219Y140474D02*
D03*
X452084Y151609D02*
D03*
X454868Y148825D02*
D03*
X447908Y155785D02*
D03*
X466003Y137690D02*
D03*
X479856Y187733D02*
D03*
D35*
X141316Y169943D02*
D03*
X140203Y168829D02*
D03*
X144488Y151181D02*
D03*
X145602Y152295D02*
D03*
X146715Y153408D02*
D03*
X139089Y167716D02*
D03*
X137976Y166602D02*
D03*
X136862Y165489D02*
D03*
X135749Y164375D02*
D03*
X134635Y163261D02*
D03*
X133521Y162148D02*
D03*
X147829Y154522D02*
D03*
X148942Y155635D02*
D03*
X150056Y156749D02*
D03*
X151170Y157862D02*
D03*
X152283Y158976D02*
D03*
D36*
X435227Y189952D02*
D03*
X253940Y111432D02*
D03*
X258253Y115745D02*
D03*
X252759Y125211D02*
D03*
Y117337D02*
D03*
X257072Y121651D02*
D03*
Y129525D02*
D03*
X430914Y185639D02*
D03*
X136802Y146251D02*
D03*
X132489Y141938D02*
D03*
D37*
X533054Y221276D02*
D03*
X542520Y211811D02*
D03*
D40*
X141316Y151181D02*
D03*
X133521Y158976D02*
D03*
X134635Y157862D02*
D03*
X135749Y156749D02*
D03*
X136862Y155635D02*
D03*
X137976Y154522D02*
D03*
X139089Y153408D02*
D03*
X140203Y152295D02*
D03*
X152283Y162148D02*
D03*
X151170Y163261D02*
D03*
X150056Y164375D02*
D03*
X148942Y165489D02*
D03*
X147829Y166602D02*
D03*
X146715Y167716D02*
D03*
X145602Y168829D02*
D03*
X144488Y169943D02*
D03*
D41*
X369094Y157284D02*
D03*
Y159253D02*
D03*
Y161222D02*
D03*
X387598Y149408D02*
D03*
Y151377D02*
D03*
Y153346D02*
D03*
Y155315D02*
D03*
Y157284D02*
D03*
Y159253D02*
D03*
Y161222D02*
D03*
Y163191D02*
D03*
X369094D02*
D03*
Y155315D02*
D03*
Y153346D02*
D03*
Y151377D02*
D03*
Y149408D02*
D03*
D42*
X454472Y185545D02*
D03*
X452078Y187939D02*
D03*
X464977Y130693D02*
D03*
X476410Y192488D02*
D03*
X474016Y194882D02*
D03*
X462582Y133087D02*
D03*
D43*
X409842Y219274D02*
D03*
X379921D02*
D03*
X333071Y53955D02*
D03*
X362992D02*
D03*
D44*
X389961Y207856D02*
D03*
X394882Y207856D02*
D03*
X399803Y207856D02*
D03*
X352953Y65372D02*
D03*
X348031D02*
D03*
X343110D02*
D03*
D45*
X130609Y152362D02*
D03*
X124509D02*
D03*
X353643Y153150D02*
D03*
X359743D02*
D03*
X495769Y187008D02*
D03*
X501869D02*
D03*
D46*
X364189Y149622D02*
D03*
X361795Y147228D02*
D03*
X459068Y133845D02*
D03*
X444110Y150410D02*
D03*
X443291Y178724D02*
D03*
X439354Y182661D02*
D03*
X441748Y185055D02*
D03*
X445685Y181118D02*
D03*
X441716Y148015D02*
D03*
X456674Y131451D02*
D03*
D47*
X381102Y135906D02*
D03*
Y124724D02*
D03*
X467717Y92598D02*
D03*
Y81417D02*
D03*
D48*
X383859Y162402D02*
D03*
X381103D02*
D03*
X378346D02*
D03*
X375590D02*
D03*
X372834D02*
D03*
Y150197D02*
D03*
X375590D02*
D03*
X378346D02*
D03*
X381103D02*
D03*
X383859D02*
D03*
D49*
X35433Y167528D02*
D03*
X29134D02*
D03*
X194488Y72441D02*
D03*
X200787D02*
D03*
X29134Y154929D02*
D03*
X35433D02*
D03*
X194488Y59842D02*
D03*
X200787D02*
D03*
X32283Y167528D02*
D03*
Y154929D02*
D03*
X197638Y72441D02*
D03*
Y59842D02*
D03*
D50*
X35783Y174178D02*
D03*
X28784D02*
D03*
X194138Y79092D02*
D03*
X490945Y190257D02*
D03*
X201138Y79092D02*
D03*
X490945Y196357D02*
D03*
X28784Y180278D02*
D03*
X194138Y85192D02*
D03*
X35783Y180278D02*
D03*
X201138Y85192D02*
D03*
X433943Y85206D02*
D03*
Y91306D02*
D03*
X458268Y106200D02*
D03*
X501092Y83706D02*
D03*
X440945Y98326D02*
D03*
X507592Y83706D02*
D03*
Y89806D02*
D03*
X458268Y100100D02*
D03*
X440945Y92226D02*
D03*
X501092Y89806D02*
D03*
D51*
X489694Y101768D02*
D03*
X493632D02*
D03*
X489694Y90350D02*
D03*
X491663Y101768D02*
D03*
X493632Y90350D02*
D03*
X491663D02*
D03*
D52*
X485954Y98027D02*
D03*
Y94090D02*
D03*
Y96059D02*
D03*
X497372Y98027D02*
D03*
Y96059D02*
D03*
Y94090D02*
D03*
D53*
X545276Y174016D02*
D03*
Y181890D02*
D03*
Y158268D02*
D03*
Y166142D02*
D03*
Y189764D02*
D03*
D54*
X200787Y62992D02*
D03*
X35433Y158079D02*
D03*
X200787Y66142D02*
D03*
X35433Y161228D02*
D03*
X29134Y164378D02*
D03*
Y161228D02*
D03*
Y158079D02*
D03*
X194488Y69291D02*
D03*
Y66142D02*
D03*
Y62992D02*
D03*
X35433Y164378D02*
D03*
X200787Y69291D02*
D03*
D55*
X440942Y80858D02*
D03*
Y73654D02*
D03*
D56*
X20472Y154213D02*
D03*
X185039Y59331D02*
D03*
X24803Y154213D02*
D03*
X189764Y59331D02*
D03*
X481496Y194370D02*
D03*
X475902Y90861D02*
D03*
X481496Y197756D02*
D03*
X475902Y87475D02*
D03*
X519372Y89398D02*
D03*
Y102784D02*
D03*
X185039Y62717D02*
D03*
X189764D02*
D03*
X20472Y157598D02*
D03*
X24803D02*
D03*
X519372Y99398D02*
D03*
Y92783D02*
D03*
D57*
X503908Y155629D02*
D03*
X507294D02*
D03*
X506565Y96091D02*
D03*
X503179D02*
D03*
D58*
X528425Y106417D02*
D03*
X528426Y84764D02*
D03*
D59*
X519291Y85121D02*
D03*
Y81021D02*
D03*
D60*
X491663Y96059D02*
D03*
D61*
X528425Y101575D02*
D03*
X528426Y89607D02*
D03*
D62*
X519226Y96091D02*
D03*
X513517D02*
D03*
D63*
X528425Y97559D02*
D03*
Y93622D02*
D03*
D64*
X456921Y95112D02*
D03*
D65*
X450572Y96146D02*
D03*
D66*
X452468Y89187D02*
D03*
D67*
X262402Y146496D02*
D03*
Y174370D02*
D03*
D68*
X272835Y149606D02*
D03*
Y151575D02*
D03*
Y153543D02*
D03*
Y155512D02*
D03*
Y157480D02*
D03*
X272835Y159449D02*
D03*
X272835Y161417D02*
D03*
Y163386D02*
D03*
Y165354D02*
D03*
Y167323D02*
D03*
Y169291D02*
D03*
Y171260D02*
D03*
D69*
X142902Y160562D02*
D03*
D70*
X488031Y85394D02*
D03*
D71*
Y81378D02*
D03*
D72*
X484331Y80118D02*
D03*
Y82677D02*
D03*
Y85236D02*
D03*
X491732D02*
D03*
Y82677D02*
D03*
Y80118D02*
D03*
D73*
X456281Y85811D02*
D03*
X458840D02*
D03*
X456281Y82709D02*
D03*
X458840D02*
D03*
Y79807D02*
D03*
X456281D02*
D03*
X451163Y85811D02*
D03*
Y82709D02*
D03*
Y79807D02*
D03*
X448604D02*
D03*
Y85811D02*
D03*
Y82709D02*
D03*
D74*
X518504Y190551D02*
D03*
Y179134D02*
D03*
D75*
X499606Y122441D02*
D03*
X488189D02*
D03*
D76*
X309055Y124016D02*
D03*
X299213D02*
D03*
X289370D02*
D03*
X421654Y138189D02*
D03*
X289370Y114173D02*
D03*
X238583Y198031D02*
D03*
X228740D02*
D03*
X218898D02*
D03*
X299213Y98425D02*
D03*
X289370D02*
D03*
X279528D02*
D03*
D77*
X533194Y211950D02*
D03*
D78*
X537787Y216544D02*
D03*
D79*
X344810Y117644D02*
D03*
X359842Y132677D02*
D03*
D80*
X248031Y57087D02*
D03*
Y66929D02*
D03*
X455905Y217717D02*
D03*
X476378Y59055D02*
D03*
X466535D02*
D03*
X456693D02*
D03*
X474409Y114567D02*
D03*
X427165Y59055D02*
D03*
X437008D02*
D03*
X446850D02*
D03*
X513779Y66929D02*
D03*
X503937D02*
D03*
X494095D02*
D03*
X432677Y110630D02*
D03*
X500000Y114173D02*
D03*
M02*
