G04*
G04 #@! TF.GenerationSoftware,Altium Limited,Altium Designer,26.4.1 (12)*
G04*
G04 Layer_Color=65535*
%FSLAX25Y25*%
%MOIN*%
G70*
G04*
G04 #@! TF.SameCoordinates,E3BD8395-FA69-4F9B-937B-00DA43433777*
G04*
G04*
G04 #@! TF.FilePolarity,Positive*
G04*
G01*
G75*
%ADD10C,0.02000*%
%ADD11C,0.00600*%
%ADD12C,0.00602*%
G36*
X36047Y30188D02*
X27165D01*
Y34646D01*
X36047D01*
Y30188D01*
D02*
G37*
G36*
X33456Y35413D02*
X27165D01*
Y39764D01*
X33456D01*
Y35413D01*
D02*
G37*
G36*
X36092Y40424D02*
X27165D01*
Y44882D01*
X36092D01*
Y40424D01*
D02*
G37*
%LPC*%
G36*
X32919Y34001D02*
X32392D01*
X31968Y32402D01*
X31693Y31325D01*
X31665D01*
X31387Y32402D01*
X30970Y34001D01*
X30420D01*
X31314Y30832D01*
X32025D01*
X32919Y34001D01*
D02*
G37*
G36*
X34392Y34055D02*
X34354D01*
X34281Y34052D01*
X34212Y34049D01*
X34152Y34043D01*
X34098Y34033D01*
X34054Y34023D01*
X34022Y34017D01*
X34010Y34014D01*
X34000D01*
X33997Y34011D01*
X33994D01*
X33937Y33992D01*
X33883Y33976D01*
X33836Y33954D01*
X33795Y33938D01*
X33760Y33922D01*
X33735Y33910D01*
X33719Y33900D01*
X33713Y33897D01*
X33668Y33869D01*
X33627Y33840D01*
X33589Y33815D01*
X33558Y33786D01*
X33532Y33764D01*
X33510Y33745D01*
X33498Y33733D01*
X33494Y33730D01*
X33460Y33695D01*
X33428Y33660D01*
X33400Y33625D01*
X33374Y33594D01*
X33355Y33569D01*
X33340Y33549D01*
X33330Y33537D01*
X33327Y33531D01*
X33671Y33237D01*
X33716Y33300D01*
X33760Y33357D01*
X33807Y33407D01*
X33848Y33445D01*
X33886Y33480D01*
X33918Y33502D01*
X33937Y33518D01*
X33940Y33521D01*
X33943D01*
X34006Y33556D01*
X34073Y33584D01*
X34139Y33603D01*
X34199Y33616D01*
X34253Y33622D01*
X34278Y33625D01*
X34297Y33628D01*
X34335D01*
X34420Y33622D01*
X34496Y33610D01*
X34563Y33591D01*
X34616Y33572D01*
X34661Y33549D01*
X34692Y33531D01*
X34702Y33521D01*
X34711Y33518D01*
X34717Y33512D01*
X34743Y33490D01*
X34765Y33464D01*
X34803Y33411D01*
X34828Y33354D01*
X34844Y33300D01*
X34856Y33253D01*
X34860Y33230D01*
Y33211D01*
X34863Y33199D01*
Y33186D01*
Y33180D01*
Y33177D01*
Y33145D01*
Y33110D01*
X34856Y33075D01*
X34841Y33012D01*
X34815Y32955D01*
X34790Y32908D01*
X34762Y32870D01*
X34736Y32842D01*
X34721Y32826D01*
X34717Y32823D01*
X34714Y32820D01*
X34686Y32797D01*
X34651Y32778D01*
X34582Y32747D01*
X34506Y32725D01*
X34433Y32709D01*
X34367Y32699D01*
X34338Y32696D01*
X34313D01*
X34291Y32693D01*
X33934D01*
Y32267D01*
X34332D01*
X34386Y32260D01*
X34436Y32254D01*
X34480Y32248D01*
X34525Y32238D01*
X34563Y32225D01*
X34600Y32213D01*
X34632Y32203D01*
X34661Y32191D01*
X34683Y32178D01*
X34705Y32169D01*
X34721Y32156D01*
X34736Y32150D01*
X34746Y32143D01*
X34749Y32137D01*
X34752D01*
X34781Y32112D01*
X34809Y32083D01*
X34831Y32055D01*
X34850Y32023D01*
X34879Y31960D01*
X34898Y31900D01*
X34910Y31846D01*
X34913Y31821D01*
X34916Y31802D01*
X34920Y31783D01*
Y31770D01*
Y31764D01*
Y31761D01*
Y31726D01*
X34916Y31682D01*
X34913Y31638D01*
X34894Y31562D01*
X34869Y31495D01*
X34841Y31442D01*
X34812Y31398D01*
X34787Y31366D01*
X34777Y31356D01*
X34768Y31347D01*
X34765Y31344D01*
X34762Y31341D01*
X34730Y31315D01*
X34695Y31296D01*
X34623Y31262D01*
X34547Y31240D01*
X34474Y31221D01*
X34408Y31211D01*
X34379Y31208D01*
X34354D01*
X34332Y31205D01*
X34303D01*
X34202Y31211D01*
X34117Y31224D01*
X34076Y31233D01*
X34041Y31243D01*
X34006Y31252D01*
X33978Y31265D01*
X33950Y31277D01*
X33927Y31287D01*
X33908Y31296D01*
X33889Y31306D01*
X33877Y31315D01*
X33867Y31319D01*
X33864Y31325D01*
X33861D01*
X33804Y31372D01*
X33750Y31423D01*
X33700Y31477D01*
X33659Y31524D01*
X33627Y31568D01*
X33602Y31603D01*
X33592Y31616D01*
X33586Y31625D01*
X33580Y31631D01*
Y31635D01*
X33204Y31344D01*
X33261Y31265D01*
X33289Y31230D01*
X33318Y31198D01*
X33340Y31170D01*
X33359Y31151D01*
X33371Y31138D01*
X33374Y31132D01*
X33412Y31094D01*
X33450Y31063D01*
X33488Y31031D01*
X33526Y31006D01*
X33555Y30984D01*
X33580Y30965D01*
X33596Y30955D01*
X33602Y30952D01*
X33652Y30924D01*
X33706Y30898D01*
X33757Y30876D01*
X33804Y30860D01*
X33845Y30845D01*
X33877Y30835D01*
X33889Y30832D01*
X33899Y30829D01*
X33902Y30826D01*
X33905D01*
X33972Y30810D01*
X34038Y30797D01*
X34104Y30791D01*
X34164Y30784D01*
X34218Y30781D01*
X34240Y30778D01*
X34297D01*
X34395Y30781D01*
X34484Y30788D01*
X34566Y30797D01*
X34635Y30810D01*
X34667Y30816D01*
X34692Y30822D01*
X34717Y30826D01*
X34736Y30832D01*
X34752Y30835D01*
X34765Y30838D01*
X34771Y30841D01*
X34774D01*
X34853Y30870D01*
X34923Y30898D01*
X34986Y30930D01*
X35040Y30961D01*
X35081Y30990D01*
X35112Y31012D01*
X35125Y31018D01*
X35135Y31025D01*
X35138Y31031D01*
X35141D01*
X35195Y31078D01*
X35242Y31129D01*
X35283Y31176D01*
X35315Y31224D01*
X35340Y31262D01*
X35359Y31293D01*
X35365Y31306D01*
X35372Y31315D01*
X35375Y31319D01*
Y31322D01*
X35403Y31388D01*
X35422Y31454D01*
X35438Y31518D01*
X35447Y31574D01*
X35454Y31625D01*
Y31647D01*
X35457Y31666D01*
Y31701D01*
X35454Y31764D01*
X35447Y31821D01*
X35438Y31875D01*
X35428Y31919D01*
X35419Y31957D01*
X35409Y31985D01*
X35403Y32001D01*
X35400Y32007D01*
X35378Y32058D01*
X35356Y32102D01*
X35330Y32140D01*
X35305Y32175D01*
X35283Y32200D01*
X35267Y32222D01*
X35255Y32235D01*
X35251Y32238D01*
X35214Y32273D01*
X35179Y32304D01*
X35141Y32330D01*
X35106Y32355D01*
X35078Y32371D01*
X35056Y32387D01*
X35040Y32393D01*
X35033Y32396D01*
X34986Y32418D01*
X34942Y32437D01*
X34898Y32453D01*
X34856Y32466D01*
X34825Y32475D01*
X34796Y32481D01*
X34781Y32488D01*
X34774D01*
Y32510D01*
X34822Y32522D01*
X34866Y32535D01*
X34907Y32551D01*
X34942Y32564D01*
X34973Y32576D01*
X34995Y32586D01*
X35008Y32592D01*
X35014Y32595D01*
X35056Y32620D01*
X35093Y32646D01*
X35125Y32671D01*
X35157Y32693D01*
X35179Y32715D01*
X35195Y32731D01*
X35207Y32744D01*
X35210Y32747D01*
X35242Y32785D01*
X35267Y32820D01*
X35289Y32857D01*
X35308Y32892D01*
X35324Y32921D01*
X35334Y32943D01*
X35340Y32959D01*
X35343Y32965D01*
X35359Y33012D01*
X35372Y33060D01*
X35381Y33104D01*
X35387Y33148D01*
X35390Y33183D01*
X35394Y33211D01*
Y33230D01*
Y33233D01*
Y33237D01*
X35390Y33306D01*
X35381Y33369D01*
X35368Y33429D01*
X35356Y33480D01*
X35340Y33521D01*
X35327Y33553D01*
X35321Y33562D01*
X35318Y33572D01*
X35315Y33575D01*
Y33578D01*
X35283Y33635D01*
X35248Y33685D01*
X35214Y33730D01*
X35179Y33764D01*
X35147Y33796D01*
X35119Y33818D01*
X35103Y33834D01*
X35100Y33837D01*
X35097D01*
X35043Y33875D01*
X34986Y33907D01*
X34929Y33935D01*
X34879Y33957D01*
X34834Y33976D01*
X34796Y33989D01*
X34784Y33992D01*
X34774Y33995D01*
X34768Y33998D01*
X34765D01*
X34692Y34017D01*
X34619Y34030D01*
X34553Y34043D01*
X34490Y34049D01*
X34433Y34052D01*
X34411D01*
X34392Y34055D01*
D02*
G37*
G36*
X28944D02*
X28906D01*
X28833Y34052D01*
X28764Y34049D01*
X28704Y34043D01*
X28650Y34033D01*
X28606Y34023D01*
X28574Y34017D01*
X28562Y34014D01*
X28552D01*
X28549Y34011D01*
X28546D01*
X28489Y33992D01*
X28435Y33976D01*
X28388Y33954D01*
X28347Y33938D01*
X28312Y33922D01*
X28287Y33910D01*
X28271Y33900D01*
X28265Y33897D01*
X28220Y33869D01*
X28179Y33840D01*
X28141Y33815D01*
X28110Y33786D01*
X28084Y33764D01*
X28062Y33745D01*
X28050Y33733D01*
X28047Y33730D01*
X28012Y33695D01*
X27980Y33660D01*
X27952Y33625D01*
X27926Y33594D01*
X27908Y33569D01*
X27892Y33549D01*
X27882Y33537D01*
X27879Y33531D01*
X28224Y33237D01*
X28268Y33300D01*
X28312Y33357D01*
X28359Y33407D01*
X28400Y33445D01*
X28438Y33480D01*
X28470Y33502D01*
X28489Y33518D01*
X28492Y33521D01*
X28495D01*
X28558Y33556D01*
X28625Y33584D01*
X28691Y33603D01*
X28751Y33616D01*
X28805Y33622D01*
X28830Y33625D01*
X28849Y33628D01*
X28887D01*
X28973Y33622D01*
X29048Y33610D01*
X29115Y33591D01*
X29168Y33572D01*
X29213Y33549D01*
X29244Y33531D01*
X29254Y33521D01*
X29263Y33518D01*
X29269Y33512D01*
X29295Y33490D01*
X29317Y33464D01*
X29355Y33411D01*
X29380Y33354D01*
X29396Y33300D01*
X29409Y33253D01*
X29412Y33230D01*
Y33211D01*
X29415Y33199D01*
Y33186D01*
Y33180D01*
Y33177D01*
Y33145D01*
Y33110D01*
X29409Y33075D01*
X29393Y33012D01*
X29368Y32955D01*
X29342Y32908D01*
X29314Y32870D01*
X29289Y32842D01*
X29273Y32826D01*
X29269Y32823D01*
X29266Y32820D01*
X29238Y32797D01*
X29203Y32778D01*
X29134Y32747D01*
X29058Y32725D01*
X28985Y32709D01*
X28919Y32699D01*
X28890Y32696D01*
X28865D01*
X28843Y32693D01*
X28486D01*
Y32267D01*
X28884D01*
X28938Y32260D01*
X28988Y32254D01*
X29032Y32248D01*
X29077Y32238D01*
X29115Y32225D01*
X29153Y32213D01*
X29184Y32203D01*
X29213Y32191D01*
X29235Y32178D01*
X29257Y32169D01*
X29273Y32156D01*
X29289Y32150D01*
X29298Y32143D01*
X29301Y32137D01*
X29304D01*
X29333Y32112D01*
X29361Y32083D01*
X29383Y32055D01*
X29402Y32023D01*
X29431Y31960D01*
X29450Y31900D01*
X29462Y31846D01*
X29465Y31821D01*
X29469Y31802D01*
X29472Y31783D01*
Y31770D01*
Y31764D01*
Y31761D01*
Y31726D01*
X29469Y31682D01*
X29465Y31638D01*
X29447Y31562D01*
X29421Y31495D01*
X29393Y31442D01*
X29364Y31398D01*
X29339Y31366D01*
X29330Y31356D01*
X29320Y31347D01*
X29317Y31344D01*
X29314Y31341D01*
X29282Y31315D01*
X29247Y31296D01*
X29175Y31262D01*
X29099Y31240D01*
X29026Y31221D01*
X28960Y31211D01*
X28931Y31208D01*
X28906D01*
X28884Y31205D01*
X28856D01*
X28754Y31211D01*
X28669Y31224D01*
X28628Y31233D01*
X28593Y31243D01*
X28558Y31252D01*
X28530Y31265D01*
X28502Y31277D01*
X28479Y31287D01*
X28461Y31296D01*
X28442Y31306D01*
X28429Y31315D01*
X28420Y31319D01*
X28416Y31325D01*
X28413D01*
X28356Y31372D01*
X28303Y31423D01*
X28252Y31477D01*
X28211Y31524D01*
X28179Y31568D01*
X28154Y31603D01*
X28145Y31616D01*
X28138Y31625D01*
X28132Y31631D01*
Y31635D01*
X27756Y31344D01*
X27813Y31265D01*
X27841Y31230D01*
X27870Y31198D01*
X27892Y31170D01*
X27911Y31151D01*
X27923Y31138D01*
X27926Y31132D01*
X27964Y31094D01*
X28002Y31063D01*
X28040Y31031D01*
X28078Y31006D01*
X28107Y30984D01*
X28132Y30965D01*
X28148Y30955D01*
X28154Y30952D01*
X28205Y30924D01*
X28258Y30898D01*
X28309Y30876D01*
X28356Y30860D01*
X28397Y30845D01*
X28429Y30835D01*
X28442Y30832D01*
X28451Y30829D01*
X28454Y30826D01*
X28457D01*
X28524Y30810D01*
X28590Y30797D01*
X28657Y30791D01*
X28716Y30784D01*
X28770Y30781D01*
X28792Y30778D01*
X28849D01*
X28947Y30781D01*
X29036Y30788D01*
X29118Y30797D01*
X29187Y30810D01*
X29219Y30816D01*
X29244Y30822D01*
X29269Y30826D01*
X29289Y30832D01*
X29304Y30835D01*
X29317Y30838D01*
X29323Y30841D01*
X29326D01*
X29405Y30870D01*
X29475Y30898D01*
X29538Y30930D01*
X29592Y30961D01*
X29633Y30990D01*
X29664Y31012D01*
X29677Y31018D01*
X29687Y31025D01*
X29690Y31031D01*
X29693D01*
X29747Y31078D01*
X29794Y31129D01*
X29835Y31176D01*
X29867Y31224D01*
X29892Y31262D01*
X29911Y31293D01*
X29917Y31306D01*
X29924Y31315D01*
X29927Y31319D01*
Y31322D01*
X29955Y31388D01*
X29974Y31454D01*
X29990Y31518D01*
X30000Y31574D01*
X30006Y31625D01*
Y31647D01*
X30009Y31666D01*
Y31701D01*
X30006Y31764D01*
X30000Y31821D01*
X29990Y31875D01*
X29980Y31919D01*
X29971Y31957D01*
X29962Y31985D01*
X29955Y32001D01*
X29952Y32007D01*
X29930Y32058D01*
X29908Y32102D01*
X29883Y32140D01*
X29857Y32175D01*
X29835Y32200D01*
X29819Y32222D01*
X29807Y32235D01*
X29804Y32238D01*
X29766Y32273D01*
X29731Y32304D01*
X29693Y32330D01*
X29658Y32355D01*
X29630Y32371D01*
X29608Y32387D01*
X29592Y32393D01*
X29585Y32396D01*
X29538Y32418D01*
X29494Y32437D01*
X29450Y32453D01*
X29409Y32466D01*
X29377Y32475D01*
X29348Y32481D01*
X29333Y32488D01*
X29326D01*
Y32510D01*
X29374Y32522D01*
X29418Y32535D01*
X29459Y32551D01*
X29494Y32564D01*
X29526Y32576D01*
X29548Y32586D01*
X29560Y32592D01*
X29567Y32595D01*
X29608Y32620D01*
X29646Y32646D01*
X29677Y32671D01*
X29709Y32693D01*
X29731Y32715D01*
X29747Y32731D01*
X29759Y32744D01*
X29763Y32747D01*
X29794Y32785D01*
X29819Y32820D01*
X29842Y32857D01*
X29860Y32892D01*
X29876Y32921D01*
X29886Y32943D01*
X29892Y32959D01*
X29895Y32965D01*
X29911Y33012D01*
X29924Y33060D01*
X29933Y33104D01*
X29939Y33148D01*
X29943Y33183D01*
X29946Y33211D01*
Y33230D01*
Y33233D01*
Y33237D01*
X29943Y33306D01*
X29933Y33369D01*
X29921Y33429D01*
X29908Y33480D01*
X29892Y33521D01*
X29879Y33553D01*
X29873Y33562D01*
X29870Y33572D01*
X29867Y33575D01*
Y33578D01*
X29835Y33635D01*
X29800Y33685D01*
X29766Y33730D01*
X29731Y33764D01*
X29699Y33796D01*
X29671Y33818D01*
X29655Y33834D01*
X29652Y33837D01*
X29649D01*
X29595Y33875D01*
X29538Y33907D01*
X29481Y33935D01*
X29431Y33957D01*
X29386Y33976D01*
X29348Y33989D01*
X29336Y33992D01*
X29326Y33995D01*
X29320Y33998D01*
X29317D01*
X29244Y34017D01*
X29172Y34030D01*
X29105Y34043D01*
X29042Y34049D01*
X28985Y34052D01*
X28963D01*
X28944Y34055D01*
D02*
G37*
G36*
X30255Y39173D02*
X29829D01*
X29709Y37328D01*
X29658Y36516D01*
X29623D01*
X29263Y38405D01*
X28761D01*
X28400Y36516D01*
X28366D01*
X28315Y37328D01*
X28201Y39173D01*
X27756D01*
X27983Y36004D01*
X28666D01*
X28988Y37837D01*
X29023D01*
X29345Y36004D01*
X30028D01*
X30255Y39173D01*
D02*
G37*
G36*
X31952D02*
X30748D01*
Y36004D01*
X31257D01*
Y37265D01*
X31933D01*
X32016Y37268D01*
X32095Y37274D01*
X32167Y37287D01*
X32234Y37306D01*
X32297Y37325D01*
X32354Y37344D01*
X32404Y37369D01*
X32452Y37391D01*
X32490Y37413D01*
X32528Y37438D01*
X32556Y37457D01*
X32581Y37479D01*
X32600Y37495D01*
X32616Y37508D01*
X32622Y37514D01*
X32625Y37517D01*
X32667Y37568D01*
X32704Y37622D01*
X32736Y37679D01*
X32765Y37735D01*
X32787Y37792D01*
X32806Y37852D01*
X32825Y37909D01*
X32837Y37963D01*
X32847Y38017D01*
X32853Y38064D01*
X32859Y38108D01*
X32862Y38146D01*
X32866Y38175D01*
Y38219D01*
X32862Y38301D01*
X32856Y38377D01*
X32844Y38446D01*
X32828Y38516D01*
X32809Y38576D01*
X32790Y38633D01*
X32768Y38687D01*
X32746Y38734D01*
X32723Y38775D01*
X32701Y38813D01*
X32682Y38845D01*
X32663Y38870D01*
X32648Y38892D01*
X32635Y38905D01*
X32629Y38914D01*
X32625Y38917D01*
X32578Y38961D01*
X32528Y39003D01*
X32474Y39037D01*
X32417Y39066D01*
X32360Y39091D01*
X32303Y39110D01*
X32246Y39129D01*
X32189Y39142D01*
X32139Y39151D01*
X32091Y39161D01*
X32047Y39167D01*
X32009Y39170D01*
X31978D01*
X31952Y39173D01*
D02*
G37*
%LPD*%
G36*
X31940Y38743D02*
X32012Y38731D01*
X32076Y38709D01*
X32129Y38683D01*
X32177Y38649D01*
X32215Y38614D01*
X32246Y38573D01*
X32268Y38535D01*
X32291Y38494D01*
X32303Y38453D01*
X32313Y38418D01*
X32322Y38383D01*
X32325Y38358D01*
X32328Y38336D01*
Y38323D01*
Y38317D01*
Y38121D01*
X32322Y38045D01*
X32309Y37979D01*
X32284Y37922D01*
X32256Y37871D01*
X32218Y37830D01*
X32180Y37792D01*
X32136Y37764D01*
X32095Y37742D01*
X32050Y37726D01*
X32006Y37710D01*
X31968Y37701D01*
X31930Y37694D01*
X31902Y37691D01*
X31877Y37688D01*
X31257D01*
Y38750D01*
X31858D01*
X31940Y38743D01*
D02*
G37*
%LPC*%
G36*
X28957Y44291D02*
X28919D01*
X28811Y44288D01*
X28710Y44272D01*
X28619Y44250D01*
X28533Y44225D01*
X28454Y44190D01*
X28382Y44155D01*
X28315Y44118D01*
X28258Y44076D01*
X28208Y44035D01*
X28163Y43997D01*
X28126Y43963D01*
X28094Y43928D01*
X28072Y43903D01*
X28053Y43881D01*
X28043Y43868D01*
X28040Y43862D01*
X27990Y43776D01*
X27946Y43688D01*
X27908Y43590D01*
X27876Y43489D01*
X27847Y43388D01*
X27825Y43283D01*
X27806Y43182D01*
X27791Y43084D01*
X27781Y42993D01*
X27772Y42907D01*
X27765Y42828D01*
X27759Y42762D01*
Y42733D01*
Y42705D01*
X27756Y42683D01*
Y42629D01*
X27759Y42490D01*
X27765Y42357D01*
X27778Y42234D01*
X27794Y42117D01*
X27813Y42010D01*
X27835Y41912D01*
X27857Y41823D01*
X27882Y41744D01*
X27904Y41672D01*
X27926Y41609D01*
X27949Y41558D01*
X27968Y41514D01*
X27983Y41479D01*
X27996Y41454D01*
X28002Y41441D01*
X28005Y41435D01*
X28056Y41362D01*
X28110Y41296D01*
X28167Y41239D01*
X28227Y41191D01*
X28290Y41150D01*
X28350Y41119D01*
X28413Y41090D01*
X28473Y41068D01*
X28530Y41049D01*
X28581Y41036D01*
X28628Y41027D01*
X28669Y41021D01*
X28704Y41018D01*
X28729Y41014D01*
X28751D01*
X28808Y41018D01*
X28859Y41021D01*
X28906Y41027D01*
X28944Y41036D01*
X28979Y41043D01*
X29001Y41049D01*
X29017Y41052D01*
X29023Y41056D01*
X29064Y41071D01*
X29102Y41087D01*
X29137Y41106D01*
X29165Y41122D01*
X29190Y41138D01*
X29206Y41150D01*
X29219Y41157D01*
X29222Y41160D01*
X29254Y41185D01*
X29279Y41214D01*
X29304Y41242D01*
X29326Y41264D01*
X29342Y41286D01*
X29355Y41302D01*
X29361Y41315D01*
X29364Y41318D01*
X29402Y41384D01*
X29421Y41416D01*
X29434Y41444D01*
X29447Y41466D01*
X29456Y41485D01*
X29459Y41498D01*
X29462Y41501D01*
X29494D01*
Y41068D01*
X29958D01*
Y42689D01*
X28881D01*
Y42307D01*
X29494D01*
Y42019D01*
Y41972D01*
X29488Y41928D01*
X29472Y41846D01*
X29447Y41773D01*
X29421Y41710D01*
X29405Y41684D01*
X29393Y41662D01*
X29380Y41643D01*
X29368Y41624D01*
X29358Y41612D01*
X29352Y41602D01*
X29348Y41599D01*
X29345Y41596D01*
X29317Y41567D01*
X29285Y41542D01*
X29254Y41520D01*
X29219Y41501D01*
X29146Y41473D01*
X29080Y41454D01*
X29017Y41441D01*
X28991Y41438D01*
X28969Y41435D01*
X28947Y41431D01*
X28922D01*
X28862Y41435D01*
X28805Y41441D01*
X28754Y41454D01*
X28710Y41466D01*
X28675Y41479D01*
X28650Y41492D01*
X28634Y41498D01*
X28628Y41501D01*
X28584Y41530D01*
X28546Y41564D01*
X28514Y41596D01*
X28486Y41631D01*
X28464Y41659D01*
X28445Y41681D01*
X28435Y41697D01*
X28432Y41703D01*
X28407Y41754D01*
X28385Y41808D01*
X28366Y41858D01*
X28353Y41906D01*
X28341Y41950D01*
X28334Y41981D01*
X28331Y41997D01*
Y42007D01*
X28328Y42010D01*
Y42013D01*
X28318Y42083D01*
X28309Y42152D01*
X28303Y42222D01*
X28299Y42282D01*
Y42335D01*
X28296Y42357D01*
Y42376D01*
Y42392D01*
Y42405D01*
Y42411D01*
Y42414D01*
Y42917D01*
X28299Y42996D01*
X28303Y43072D01*
X28309Y43141D01*
X28318Y43207D01*
X28331Y43271D01*
X28344Y43328D01*
X28356Y43378D01*
X28369Y43426D01*
X28382Y43470D01*
X28394Y43505D01*
X28407Y43536D01*
X28420Y43561D01*
X28429Y43584D01*
X28435Y43596D01*
X28442Y43606D01*
Y43609D01*
X28470Y43653D01*
X28505Y43694D01*
X28543Y43729D01*
X28581Y43757D01*
X28619Y43783D01*
X28660Y43805D01*
X28698Y43821D01*
X28739Y43836D01*
X28773Y43846D01*
X28808Y43855D01*
X28840Y43862D01*
X28868Y43865D01*
X28890D01*
X28906Y43868D01*
X28922D01*
X28969Y43865D01*
X29014Y43862D01*
X29052Y43855D01*
X29083Y43849D01*
X29111Y43839D01*
X29131Y43833D01*
X29143Y43830D01*
X29146Y43827D01*
X29181Y43811D01*
X29213Y43792D01*
X29238Y43773D01*
X29263Y43754D01*
X29282Y43738D01*
X29295Y43726D01*
X29304Y43716D01*
X29307Y43713D01*
X29352Y43656D01*
X29371Y43628D01*
X29386Y43602D01*
X29399Y43580D01*
X29412Y43561D01*
X29415Y43549D01*
X29418Y43546D01*
X29450Y43476D01*
X29462Y43444D01*
X29475Y43413D01*
X29484Y43388D01*
X29494Y43369D01*
X29497Y43356D01*
X29500Y43350D01*
X29958Y43505D01*
X29939Y43561D01*
X29917Y43618D01*
X29895Y43669D01*
X29873Y43713D01*
X29854Y43751D01*
X29838Y43779D01*
X29829Y43798D01*
X29826Y43805D01*
X29794Y43855D01*
X29759Y43903D01*
X29725Y43947D01*
X29693Y43982D01*
X29664Y44013D01*
X29642Y44035D01*
X29627Y44048D01*
X29620Y44054D01*
X29573Y44092D01*
X29522Y44127D01*
X29475Y44155D01*
X29427Y44181D01*
X29386Y44200D01*
X29352Y44212D01*
X29339Y44219D01*
X29333Y44222D01*
X29326Y44225D01*
X29323D01*
X29257Y44247D01*
X29187Y44263D01*
X29118Y44276D01*
X29055Y44282D01*
X29001Y44288D01*
X28979D01*
X28957Y44291D01*
D02*
G37*
G36*
X32663Y44238D02*
X32218D01*
Y41798D01*
X32177D01*
X31248Y44238D01*
X30594D01*
Y41068D01*
X31039D01*
Y43505D01*
X31080D01*
X32009Y41068D01*
X32663D01*
Y44238D01*
D02*
G37*
G36*
X34335D02*
X33362D01*
Y41068D01*
X34307D01*
X34417Y41071D01*
X34521Y41084D01*
X34616Y41106D01*
X34705Y41131D01*
X34787Y41160D01*
X34860Y41194D01*
X34926Y41232D01*
X34986Y41270D01*
X35037Y41305D01*
X35084Y41343D01*
X35122Y41378D01*
X35153Y41406D01*
X35176Y41431D01*
X35195Y41454D01*
X35204Y41466D01*
X35207Y41469D01*
X35258Y41548D01*
X35305Y41637D01*
X35343Y41729D01*
X35378Y41823D01*
X35406Y41921D01*
X35428Y42022D01*
X35447Y42117D01*
X35463Y42212D01*
X35476Y42301D01*
X35485Y42383D01*
X35492Y42459D01*
X35498Y42525D01*
Y42553D01*
Y42575D01*
X35501Y42598D01*
Y42651D01*
X35498Y42794D01*
X35488Y42926D01*
X35473Y43049D01*
X35457Y43163D01*
X35432Y43271D01*
X35409Y43365D01*
X35381Y43454D01*
X35356Y43533D01*
X35327Y43602D01*
X35299Y43666D01*
X35277Y43716D01*
X35255Y43757D01*
X35236Y43792D01*
X35220Y43814D01*
X35210Y43830D01*
X35207Y43833D01*
X35150Y43906D01*
X35084Y43966D01*
X35018Y44020D01*
X34945Y44067D01*
X34869Y44105D01*
X34793Y44140D01*
X34721Y44165D01*
X34648Y44187D01*
X34578Y44203D01*
X34515Y44216D01*
X34458Y44225D01*
X34408Y44231D01*
X34363Y44234D01*
X34335Y44238D01*
D02*
G37*
%LPD*%
G36*
X34338Y43817D02*
X34398Y43811D01*
X34452Y43798D01*
X34506Y43783D01*
X34550Y43767D01*
X34594Y43745D01*
X34632Y43726D01*
X34667Y43704D01*
X34698Y43681D01*
X34724Y43659D01*
X34746Y43637D01*
X34765Y43621D01*
X34777Y43606D01*
X34787Y43593D01*
X34793Y43587D01*
X34796Y43584D01*
X34828Y43536D01*
X34853Y43489D01*
X34875Y43435D01*
X34894Y43381D01*
X34926Y43268D01*
X34945Y43160D01*
X34954Y43110D01*
X34958Y43065D01*
X34961Y43021D01*
X34964Y42986D01*
X34967Y42955D01*
Y42933D01*
Y42920D01*
Y42914D01*
Y42389D01*
X34964Y42310D01*
X34961Y42234D01*
X34951Y42165D01*
X34942Y42101D01*
X34929Y42041D01*
X34913Y41985D01*
X34898Y41934D01*
X34882Y41890D01*
X34866Y41852D01*
X34850Y41817D01*
X34837Y41785D01*
X34822Y41763D01*
X34812Y41744D01*
X34803Y41729D01*
X34800Y41722D01*
X34796Y41719D01*
X34762Y41678D01*
X34724Y41643D01*
X34686Y41612D01*
X34642Y41583D01*
X34600Y41561D01*
X34556Y41542D01*
X34512Y41526D01*
X34471Y41514D01*
X34433Y41504D01*
X34395Y41498D01*
X34360Y41492D01*
X34332Y41488D01*
X34310D01*
X34291Y41485D01*
X33867D01*
Y43821D01*
X34275D01*
X34338Y43817D01*
D02*
G37*
D10*
X23435Y60811D02*
G03*
X23435Y60811I-1500J0D01*
G01*
D11*
X1750Y54750D02*
X3108D01*
X17928Y20250D02*
X19250D01*
Y45331D02*
Y54750D01*
X1750Y20250D02*
X3108D01*
X1750D02*
Y54750D01*
X17928D02*
X19250D01*
Y20250D02*
Y29669D01*
D12*
X23622Y53936D02*
X22310D01*
X22966D01*
Y50657D01*
X22310Y50001D01*
X21654D01*
X20998Y50657D01*
X24934Y50001D02*
X26246D01*
X25590D01*
Y53936D01*
X24934Y53280D01*
M02*
