G04*
G04 #@! TF.GenerationSoftware,Altium Limited,Altium Designer,26.4.1 (12)*
G04*
G04 Layer_Color=8388736*
%FSLAX25Y25*%
%MOIN*%
G70*
G04*
G04 #@! TF.SameCoordinates,E3BD8395-FA69-4F9B-937B-00DA43433777*
G04*
G04*
G04 #@! TF.FilePolarity,Positive*
G04*
G01*
G75*
%ADD18C,0.00787*%
D18*
X275590Y23622D02*
G03*
X271654Y19685I0J-3937D01*
G01*
X279528D02*
G03*
X275590Y23622I-3937J0D01*
G01*
Y15748D02*
G03*
X279528Y19685I0J3937D01*
G01*
X271654D02*
G03*
X275590Y15748I3937J0D01*
G01*
X33465Y23622D02*
G03*
X29528Y19685I0J-3937D01*
G01*
X37402D02*
G03*
X33465Y23622I-3937J0D01*
G01*
Y15748D02*
G03*
X37402Y19685I0J3937D01*
G01*
X29528D02*
G03*
X33465Y15748I3937J0D01*
G01*
X147638Y57087D02*
G03*
X143701Y53150I0J-3937D01*
G01*
X151575D02*
G03*
X147638Y57087I-3937J0D01*
G01*
Y49213D02*
G03*
X151575Y53150I0J3937D01*
G01*
X143701D02*
G03*
X147638Y49213I3937J0D01*
G01*
X212598Y57087D02*
G03*
X208661Y53150I0J-3937D01*
G01*
X216535D02*
G03*
X212598Y57087I-3937J0D01*
G01*
Y49213D02*
G03*
X216535Y53150I0J3937D01*
G01*
X208661D02*
G03*
X212598Y49213I3937J0D01*
G01*
X83366Y49661D02*
G03*
X83366Y56354I0J3347D01*
G01*
X82185D02*
G03*
X82185Y49661I0J-3347D01*
G01*
X0Y15748D02*
G03*
X7874Y7874I7874J-0D01*
G01*
X279528Y7874D02*
G03*
X287402Y15748I0J7874D01*
G01*
X82185Y49661D02*
X83366D01*
X82185Y56354D02*
X83366D01*
X0Y15748D02*
Y61024D01*
X269685D01*
X287402Y43307D01*
Y15748D02*
Y43307D01*
X7874Y7874D02*
X279528Y7874D01*
M02*
