G04*
G04 #@! TF.GenerationSoftware,Altium Limited,Altium Designer,26.4.1 (12)*
G04*
G04 Layer_Color=16711935*
%FSLAX25Y25*%
%MOIN*%
G70*
G04*
G04 #@! TF.SameCoordinates,E3BD8395-FA69-4F9B-937B-00DA43433777*
G04*
G04*
G04 #@! TF.FilePolarity,Negative*
G04*
G01*
G75*
%ADD15C,0.06299*%
G36*
X172099Y51814D02*
X172058Y51760D01*
X172017Y51709D01*
X171979Y51662D01*
X171944Y51618D01*
X171909Y51580D01*
X171878Y51542D01*
X171849Y51507D01*
X171824Y51479D01*
X171799Y51450D01*
X171780Y51428D01*
X171761Y51406D01*
X171745Y51390D01*
X171732Y51378D01*
X171723Y51368D01*
X171720Y51365D01*
X171717Y51362D01*
X172895D01*
X172671Y51675D01*
X172646Y51684D01*
X172627Y51694D01*
X172611Y51703D01*
X172605Y51716D01*
X172598Y51725D01*
Y51735D01*
X172605Y51754D01*
X172620Y51769D01*
X172636Y51782D01*
X172649Y51792D01*
X172652Y51795D01*
X172655D01*
X172914Y51953D01*
X172968Y51858D01*
X173025Y51763D01*
X173082Y51675D01*
X173142Y51589D01*
X173202Y51507D01*
X173262Y51431D01*
X173319Y51362D01*
X173372Y51299D01*
X173426Y51239D01*
X173474Y51188D01*
X173518Y51141D01*
X173553Y51103D01*
X173584Y51074D01*
X173606Y51052D01*
X173619Y51036D01*
X173625Y51033D01*
X173382Y50774D01*
X173312Y50840D01*
X173243Y50913D01*
X173177Y50983D01*
X173120Y51046D01*
X173069Y51103D01*
X173050Y51128D01*
X173031Y51147D01*
X173019Y51166D01*
X173009Y51178D01*
X173003Y51185D01*
X173000Y51188D01*
Y51087D01*
X172655D01*
Y50825D01*
X173243D01*
Y49336D01*
X172462D01*
Y49128D01*
X173432D01*
Y48850D01*
X172516D01*
X172532Y48815D01*
X172548Y48783D01*
X172595Y48723D01*
X172649Y48666D01*
X172712Y48613D01*
X172782Y48565D01*
X172857Y48521D01*
X172933Y48483D01*
X173009Y48445D01*
X173085Y48417D01*
X173154Y48388D01*
X173221Y48366D01*
X173281Y48347D01*
X173328Y48335D01*
X173347Y48328D01*
X173366Y48325D01*
X173379Y48319D01*
X173388D01*
X173395Y48316D01*
X173398D01*
X173243Y47952D01*
X173110Y47990D01*
X172987Y48034D01*
X172876Y48082D01*
X172775Y48132D01*
X172687Y48183D01*
X172608Y48237D01*
X172538Y48290D01*
X172478Y48344D01*
X172428Y48391D01*
X172383Y48439D01*
X172349Y48480D01*
X172320Y48518D01*
X172298Y48549D01*
X172282Y48572D01*
X172276Y48584D01*
X172273Y48590D01*
X172197Y48546D01*
X172121Y48499D01*
X171966Y48398D01*
X171818Y48290D01*
X171748Y48237D01*
X171682Y48186D01*
X171619Y48139D01*
X171562Y48094D01*
X171514Y48056D01*
X171470Y48022D01*
X171435Y47993D01*
X171410Y47971D01*
X171394Y47958D01*
X171388Y47952D01*
X171145Y48281D01*
X171328Y48404D01*
X171420Y48461D01*
X171508Y48515D01*
X171593Y48565D01*
X171676Y48613D01*
X171755Y48657D01*
X171830Y48695D01*
X171897Y48730D01*
X171960Y48761D01*
X172014Y48786D01*
X172061Y48809D01*
X172099Y48827D01*
X172127Y48840D01*
X172143Y48846D01*
X172150Y48850D01*
X171025D01*
Y49128D01*
X172169D01*
Y49336D01*
X171303D01*
Y50825D01*
X171856D01*
Y51087D01*
X171597D01*
Y51242D01*
X171495Y51156D01*
X171404Y51081D01*
X171322Y51014D01*
X171284Y50986D01*
X171249Y50960D01*
X171217Y50935D01*
X171189Y50916D01*
X171167Y50900D01*
X171148Y50885D01*
X171132Y50875D01*
X171119Y50866D01*
X171113Y50862D01*
X171110Y50859D01*
X170904Y51087D01*
Y47968D01*
X170557D01*
Y51381D01*
X170089D01*
X170437Y50253D01*
X170345Y50148D01*
X170266Y50054D01*
X170194Y49962D01*
X170137Y49880D01*
X170086Y49804D01*
X170042Y49734D01*
X170007Y49671D01*
X169982Y49614D01*
X169960Y49567D01*
X169944Y49523D01*
X169931Y49488D01*
X169925Y49456D01*
X169919Y49434D01*
X169915Y49418D01*
Y49409D01*
Y49406D01*
X169919Y49333D01*
X169928Y49267D01*
X169944Y49213D01*
X169960Y49166D01*
X169985Y49125D01*
X170007Y49090D01*
X170035Y49064D01*
X170061Y49042D01*
X170089Y49023D01*
X170118Y49011D01*
X170140Y49001D01*
X170162Y48995D01*
X170181Y48992D01*
X170197Y48989D01*
X170418D01*
X170314Y48606D01*
X170159D01*
X170102Y48609D01*
X170048Y48613D01*
X169998Y48622D01*
X169953Y48635D01*
X169909Y48651D01*
X169868Y48669D01*
X169795Y48711D01*
X169735Y48764D01*
X169685Y48821D01*
X169644Y48881D01*
X169612Y48944D01*
X169587Y49008D01*
X169565Y49068D01*
X169552Y49125D01*
X169543Y49178D01*
X169536Y49219D01*
X169533Y49254D01*
Y49267D01*
Y49276D01*
Y49279D01*
Y49283D01*
X169536Y49333D01*
X169539Y49384D01*
X169558Y49478D01*
X169587Y49573D01*
X169625Y49665D01*
X169669Y49750D01*
X169720Y49832D01*
X169773Y49908D01*
X169827Y49978D01*
X169884Y50044D01*
X169938Y50101D01*
X169988Y50151D01*
X170032Y50193D01*
X170070Y50227D01*
X170099Y50253D01*
X170118Y50265D01*
X170121Y50272D01*
X170124D01*
X169672Y51431D01*
X169647D01*
X169625Y51438D01*
X169609Y51444D01*
X169599Y51450D01*
X169593Y51460D01*
X169587Y51469D01*
X169590Y51494D01*
X169596Y51517D01*
X169609Y51536D01*
X169618Y51548D01*
X169622Y51555D01*
X169915Y51779D01*
X170001Y51709D01*
X170904D01*
Y51153D01*
X170999Y51210D01*
X171094Y51273D01*
X171186Y51340D01*
X171271Y51406D01*
X171353Y51476D01*
X171432Y51542D01*
X171508Y51608D01*
X171574Y51671D01*
X171638Y51731D01*
X171691Y51788D01*
X171739Y51839D01*
X171780Y51883D01*
X171811Y51918D01*
X171837Y51946D01*
X171849Y51962D01*
X171856Y51968D01*
X172099Y51814D01*
D02*
G37*
G36*
X172617Y43032D02*
X173502D01*
Y42824D01*
X172617D01*
Y42631D01*
X173309D01*
Y42426D01*
X171663D01*
Y42631D01*
X172323D01*
Y42824D01*
X171543D01*
Y43032D01*
X172323D01*
Y43203D01*
X172304Y43219D01*
X172289Y43231D01*
X172279Y43244D01*
X172273Y43257D01*
Y43266D01*
Y43275D01*
X172285Y43288D01*
X172301Y43298D01*
X172320Y43304D01*
X172333Y43307D01*
X172617D01*
Y43032D01*
D02*
G37*
G36*
X171300Y42824D02*
X171303Y42773D01*
X171312Y42729D01*
X171325Y42688D01*
X171341Y42653D01*
X171360Y42621D01*
X171382Y42593D01*
X171407Y42568D01*
X171429Y42546D01*
X171454Y42527D01*
X171480Y42514D01*
X171521Y42492D01*
X171536Y42485D01*
X171549Y42479D01*
X171559Y42476D01*
X171562D01*
X171404Y42286D01*
X171344Y42312D01*
X171290Y42343D01*
X171243Y42378D01*
X171205Y42416D01*
X171170Y42457D01*
X171145Y42498D01*
X171119Y42539D01*
X171104Y42583D01*
X171088Y42625D01*
X171078Y42663D01*
X171069Y42697D01*
X171066Y42729D01*
X171062Y42754D01*
X171059Y42773D01*
Y42786D01*
Y42789D01*
Y42893D01*
X170538D01*
Y42735D01*
X170535Y42685D01*
X170525Y42637D01*
X170509Y42599D01*
X170487Y42564D01*
X170465Y42536D01*
X170440Y42514D01*
X170412Y42495D01*
X170380Y42479D01*
X170351Y42467D01*
X170323Y42457D01*
X170298Y42451D01*
X170273Y42444D01*
X170254D01*
X170238Y42441D01*
X169982D01*
X169941Y42444D01*
X169906Y42451D01*
X169874Y42460D01*
X169843Y42473D01*
X169817Y42489D01*
X169795Y42508D01*
X169761Y42546D01*
X169735Y42583D01*
X169720Y42618D01*
X169713Y42631D01*
X169710Y42640D01*
X169707Y42647D01*
Y42650D01*
X169672Y42805D01*
X169915Y42893D01*
X169931Y42754D01*
X169941Y42719D01*
X169956Y42694D01*
X169972Y42675D01*
X169991Y42663D01*
X170007Y42656D01*
X170023Y42653D01*
X170032Y42650D01*
X170175D01*
X170216Y42656D01*
X170244Y42669D01*
X170266Y42688D01*
X170279Y42710D01*
X170288Y42732D01*
X170291Y42751D01*
X170295Y42764D01*
Y42770D01*
Y43168D01*
X171300D01*
Y42824D01*
D02*
G37*
G36*
X170190Y42233D02*
X171492D01*
Y42024D01*
X171284D01*
X171230Y41955D01*
X171173Y41891D01*
X171119Y41831D01*
X171066Y41781D01*
X171021Y41740D01*
X170987Y41708D01*
X170974Y41695D01*
X170965Y41686D01*
X170958Y41683D01*
X170955Y41680D01*
X171081Y41632D01*
X171208Y41591D01*
X171328Y41557D01*
X171388Y41544D01*
X171442Y41531D01*
X171492Y41522D01*
X171540Y41512D01*
X171581Y41503D01*
X171616Y41496D01*
X171644Y41493D01*
X171663Y41490D01*
X171679Y41487D01*
X171682D01*
X171543Y41247D01*
X171480Y41259D01*
X171413Y41272D01*
X171277Y41310D01*
X171142Y41357D01*
X171075Y41379D01*
X171012Y41405D01*
X170952Y41427D01*
X170898Y41449D01*
X170851Y41468D01*
X170810Y41487D01*
X170775Y41500D01*
X170750Y41512D01*
X170734Y41519D01*
X170728Y41522D01*
X170649Y41484D01*
X170566Y41449D01*
X170399Y41383D01*
X170235Y41329D01*
X170156Y41304D01*
X170080Y41282D01*
X170010Y41259D01*
X169944Y41244D01*
X169887Y41228D01*
X169836Y41215D01*
X169799Y41206D01*
X169767Y41199D01*
X169748Y41193D01*
X169742D01*
X169584Y41471D01*
X169685Y41481D01*
X169780Y41493D01*
X169871Y41509D01*
X169953Y41522D01*
X170032Y41537D01*
X170102Y41553D01*
X170168Y41569D01*
X170225Y41585D01*
X170279Y41601D01*
X170323Y41613D01*
X170364Y41626D01*
X170396Y41639D01*
X170421Y41648D01*
X170437Y41654D01*
X170449Y41661D01*
X170453D01*
X170358Y41724D01*
X170266Y41794D01*
X170184Y41863D01*
X170111Y41929D01*
X170080Y41958D01*
X170051Y41986D01*
X170026Y42011D01*
X170004Y42034D01*
X169988Y42053D01*
X169975Y42065D01*
X169969Y42075D01*
X169966Y42078D01*
X169941Y42075D01*
X169922D01*
X169906Y42078D01*
X169900Y42084D01*
X169893Y42090D01*
Y42097D01*
X169900Y42113D01*
X169915Y42132D01*
X169931Y42147D01*
X169944Y42160D01*
X169947Y42163D01*
X169950D01*
X170140Y42302D01*
X170190Y42233D01*
D02*
G37*
G36*
X173243Y41765D02*
X173246Y41708D01*
X173259Y41654D01*
X173278Y41604D01*
X173303Y41553D01*
X173331Y41509D01*
X173363Y41468D01*
X173398Y41430D01*
X173432Y41395D01*
X173467Y41367D01*
X173502Y41338D01*
X173534Y41316D01*
X173562Y41297D01*
X173587Y41282D01*
X173606Y41272D01*
X173619Y41266D01*
X173622Y41263D01*
X173448Y41019D01*
X173385Y41051D01*
X173328Y41089D01*
X173275Y41127D01*
X173227Y41171D01*
X173183Y41215D01*
X173145Y41259D01*
X173107Y41304D01*
X173079Y41348D01*
X173050Y41389D01*
X173028Y41427D01*
X173009Y41465D01*
X172993Y41496D01*
X172981Y41522D01*
X172971Y41541D01*
X172965Y41553D01*
Y41557D01*
X171628D01*
Y42268D01*
X173243D01*
Y41765D01*
D02*
G37*
G36*
X173104Y40950D02*
X172687D01*
Y39841D01*
X173587Y39825D01*
X173553Y39515D01*
X173549Y39496D01*
X173543Y39480D01*
X173537Y39471D01*
X173530Y39468D01*
X173511D01*
X173496Y39480D01*
X173477Y39496D01*
X173461Y39515D01*
X173451Y39528D01*
X173448Y39534D01*
X170901Y39638D01*
Y39272D01*
X170554D01*
Y39654D01*
X169637Y39705D01*
Y39964D01*
X170554Y39910D01*
Y40950D01*
X170070D01*
Y41228D01*
X173104D01*
Y40950D01*
D02*
G37*
G36*
X173398Y47135D02*
X173328Y47101D01*
X173262Y47063D01*
X173129Y46981D01*
X173003Y46895D01*
X172943Y46851D01*
X172889Y46810D01*
X172838Y46769D01*
X172791Y46734D01*
X172753Y46699D01*
X172718Y46671D01*
X172690Y46649D01*
X172668Y46630D01*
X172655Y46617D01*
X172652Y46614D01*
X172428Y46977D01*
X172491Y47034D01*
X172554Y47088D01*
X172617Y47139D01*
X172684Y47186D01*
X172747Y47230D01*
X172807Y47268D01*
X172867Y47306D01*
X172924Y47338D01*
X172977Y47366D01*
X173025Y47391D01*
X173066Y47413D01*
X173104Y47432D01*
X173132Y47445D01*
X173154Y47455D01*
X173167Y47461D01*
X173173Y47464D01*
X173398Y47135D01*
D02*
G37*
G36*
X173502Y46112D02*
X173426Y46070D01*
X173350Y46033D01*
X173281Y45988D01*
X173214Y45947D01*
X173151Y45906D01*
X173094Y45868D01*
X173041Y45827D01*
X172990Y45792D01*
X172946Y45758D01*
X172905Y45726D01*
X172873Y45698D01*
X172845Y45675D01*
X172819Y45653D01*
X172804Y45641D01*
X172794Y45631D01*
X172791Y45628D01*
X172548Y45972D01*
X172674Y46077D01*
X172737Y46127D01*
X172804Y46172D01*
X172867Y46213D01*
X172927Y46251D01*
X172987Y46285D01*
X173044Y46317D01*
X173098Y46345D01*
X173145Y46371D01*
X173186Y46393D01*
X173224Y46409D01*
X173252Y46421D01*
X173275Y46434D01*
X173287Y46437D01*
X173293Y46440D01*
X173502Y46112D01*
D02*
G37*
G36*
X171543Y46823D02*
X172238D01*
Y43776D01*
X171890D01*
Y44035D01*
X170348D01*
Y43792D01*
X170001D01*
Y46823D01*
X171179D01*
X170990Y47480D01*
X170968Y47483D01*
X170952Y47489D01*
X170939Y47496D01*
X170930Y47502D01*
X170917Y47518D01*
Y47530D01*
X170920Y47546D01*
X170927Y47559D01*
X170933Y47565D01*
X170936Y47568D01*
X171388Y47638D01*
X171543Y46823D01*
D02*
G37*
G36*
X172930Y45205D02*
X172987Y45085D01*
X173047Y44968D01*
X173110Y44854D01*
X173173Y44746D01*
X173233Y44645D01*
X173297Y44550D01*
X173353Y44462D01*
X173407Y44383D01*
X173458Y44313D01*
X173505Y44250D01*
X173543Y44200D01*
X173578Y44159D01*
X173600Y44127D01*
X173616Y44108D01*
X173622Y44105D01*
Y44102D01*
X173278Y43757D01*
X173249D01*
X173230Y43764D01*
X173221Y43779D01*
X173218Y43795D01*
Y43814D01*
X173221Y43830D01*
X173224Y43843D01*
Y43846D01*
X173164Y43944D01*
X173104Y44045D01*
X172987Y44253D01*
X172933Y44355D01*
X172883Y44456D01*
X172835Y44554D01*
X172788Y44645D01*
X172750Y44731D01*
X172712Y44810D01*
X172680Y44879D01*
X172652Y44939D01*
X172630Y44990D01*
X172620Y45009D01*
X172614Y45024D01*
X172608Y45037D01*
X172605Y45050D01*
X172601Y45053D01*
Y45056D01*
X172876Y45331D01*
X172930Y45205D01*
D02*
G37*
G36*
X118519Y49604D02*
X118553Y49598D01*
X118580Y49592D01*
X118601Y49583D01*
X118618Y49573D01*
X118630Y49566D01*
X118637Y49560D01*
X118639Y49558D01*
X118654Y49539D01*
X118664Y49518D01*
X118673Y49499D01*
X118677Y49480D01*
X118681Y49463D01*
X118683Y49451D01*
Y49442D01*
Y49438D01*
Y49382D01*
X118681Y49356D01*
X118677Y49335D01*
X118668Y49314D01*
X118660Y49298D01*
X118654Y49285D01*
X118645Y49275D01*
X118641Y49268D01*
X118639Y49266D01*
X118618Y49251D01*
X118595Y49239D01*
X118568Y49230D01*
X118542Y49226D01*
X118517Y49222D01*
X118498Y49220D01*
X118479D01*
X118439Y49222D01*
X118406Y49226D01*
X118378Y49235D01*
X118355Y49243D01*
X118341Y49251D01*
X118328Y49260D01*
X118322Y49264D01*
X118320Y49266D01*
X118305Y49285D01*
X118292Y49304D01*
X118284Y49323D01*
X118280Y49342D01*
X118275Y49356D01*
X118273Y49371D01*
Y49380D01*
Y49382D01*
Y49438D01*
X118275Y49463D01*
X118280Y49487D01*
X118288Y49508D01*
X118297Y49524D01*
X118305Y49539D01*
X118313Y49550D01*
X118318Y49556D01*
X118320Y49558D01*
X118339Y49575D01*
X118364Y49585D01*
X118389Y49594D01*
X118416Y49600D01*
X118439Y49604D01*
X118460Y49606D01*
X118479D01*
X118519Y49604D01*
D02*
G37*
G36*
X113089D02*
X113122Y49598D01*
X113149Y49592D01*
X113171Y49583D01*
X113187Y49573D01*
X113200Y49566D01*
X113206Y49560D01*
X113208Y49558D01*
X113223Y49539D01*
X113233Y49518D01*
X113242Y49499D01*
X113246Y49480D01*
X113250Y49463D01*
X113252Y49451D01*
Y49442D01*
Y49438D01*
Y49382D01*
X113250Y49356D01*
X113246Y49335D01*
X113238Y49314D01*
X113229Y49298D01*
X113223Y49285D01*
X113215Y49275D01*
X113210Y49268D01*
X113208Y49266D01*
X113187Y49251D01*
X113164Y49239D01*
X113137Y49230D01*
X113112Y49226D01*
X113086Y49222D01*
X113068Y49220D01*
X113049D01*
X113009Y49222D01*
X112975Y49226D01*
X112948Y49235D01*
X112925Y49243D01*
X112910Y49251D01*
X112898Y49260D01*
X112891Y49264D01*
X112889Y49266D01*
X112874Y49285D01*
X112862Y49304D01*
X112853Y49323D01*
X112849Y49342D01*
X112845Y49356D01*
X112843Y49371D01*
Y49380D01*
Y49382D01*
Y49438D01*
X112845Y49463D01*
X112849Y49487D01*
X112857Y49508D01*
X112866Y49524D01*
X112874Y49539D01*
X112883Y49550D01*
X112887Y49556D01*
X112889Y49558D01*
X112908Y49575D01*
X112933Y49585D01*
X112958Y49594D01*
X112986Y49600D01*
X113009Y49604D01*
X113030Y49606D01*
X113049D01*
X113089Y49604D01*
D02*
G37*
G36*
X121060Y48670D02*
X120623D01*
Y47580D01*
X121060D01*
Y47347D01*
X119754D01*
Y47580D01*
X120342D01*
Y48212D01*
X120340Y48245D01*
X120338Y48277D01*
X120323Y48336D01*
X120304Y48386D01*
X120294Y48409D01*
X120283Y48430D01*
X120273Y48447D01*
X120262Y48464D01*
X120252Y48479D01*
X120243Y48489D01*
X120235Y48498D01*
X120229Y48504D01*
X120226Y48508D01*
X120224Y48510D01*
X120201Y48531D01*
X120176Y48550D01*
X120151Y48565D01*
X120124Y48577D01*
X120071Y48598D01*
X120019Y48613D01*
X119995Y48617D01*
X119972Y48621D01*
X119953Y48623D01*
X119937Y48626D01*
X119922Y48628D01*
X119601D01*
Y48903D01*
X119806D01*
X119844Y48901D01*
X119882Y48899D01*
X119916Y48892D01*
X119947Y48886D01*
X119979Y48878D01*
X120006Y48869D01*
X120031Y48859D01*
X120054Y48850D01*
X120075Y48840D01*
X120092Y48829D01*
X120109Y48821D01*
X120122Y48812D01*
X120132Y48806D01*
X120138Y48800D01*
X120142Y48798D01*
X120145Y48796D01*
X120189Y48752D01*
X120226Y48703D01*
X120258Y48655D01*
X120283Y48607D01*
X120302Y48565D01*
X120308Y48546D01*
X120315Y48531D01*
X120319Y48518D01*
X120323Y48508D01*
X120325Y48502D01*
Y48500D01*
X120342D01*
Y48903D01*
X121060D01*
Y48670D01*
D02*
G37*
G36*
X107811Y48939D02*
X107853Y48936D01*
X107891Y48932D01*
X107925Y48928D01*
X107952Y48922D01*
X107973Y48917D01*
X107979Y48915D01*
X107985D01*
X107988Y48913D01*
X107990D01*
X108026Y48903D01*
X108059Y48892D01*
X108088Y48880D01*
X108114Y48869D01*
X108135Y48859D01*
X108151Y48852D01*
X108160Y48846D01*
X108164Y48844D01*
X108191Y48827D01*
X108217Y48810D01*
X108238Y48794D01*
X108256Y48779D01*
X108273Y48766D01*
X108284Y48756D01*
X108292Y48747D01*
X108294Y48745D01*
X108313Y48724D01*
X108330Y48703D01*
X108345Y48684D01*
X108355Y48665D01*
X108366Y48651D01*
X108372Y48640D01*
X108376Y48632D01*
X108378Y48630D01*
X108200Y48487D01*
X108175Y48525D01*
X108149Y48556D01*
X108122Y48586D01*
X108099Y48609D01*
X108076Y48628D01*
X108059Y48640D01*
X108046Y48649D01*
X108042Y48651D01*
X108002Y48672D01*
X107960Y48687D01*
X107918Y48697D01*
X107878Y48703D01*
X107843Y48710D01*
X107828D01*
X107813Y48712D01*
X107788D01*
X107727Y48708D01*
X107675Y48699D01*
X107631Y48684D01*
X107595Y48670D01*
X107566Y48655D01*
X107545Y48640D01*
X107532Y48632D01*
X107528Y48628D01*
X107511Y48611D01*
X107496Y48594D01*
X107475Y48554D01*
X107458Y48514D01*
X107446Y48472D01*
X107440Y48437D01*
X107437Y48422D01*
Y48407D01*
X107435Y48397D01*
Y48388D01*
Y48382D01*
Y48380D01*
Y48241D01*
X107752D01*
X107816Y48239D01*
X107874Y48237D01*
X107931Y48231D01*
X107981Y48222D01*
X108028Y48214D01*
X108070Y48204D01*
X108107Y48193D01*
X108141Y48182D01*
X108170Y48170D01*
X108196Y48159D01*
X108219Y48149D01*
X108235Y48140D01*
X108250Y48132D01*
X108258Y48126D01*
X108265Y48124D01*
X108267Y48122D01*
X108296Y48098D01*
X108319Y48073D01*
X108343Y48046D01*
X108359Y48019D01*
X108376Y47991D01*
X108389Y47962D01*
X108399Y47935D01*
X108408Y47907D01*
X108416Y47882D01*
X108420Y47859D01*
X108424Y47836D01*
X108426Y47817D01*
Y47802D01*
X108429Y47792D01*
Y47783D01*
Y47781D01*
X108426Y47741D01*
X108422Y47704D01*
X108416Y47668D01*
X108405Y47634D01*
X108395Y47603D01*
X108382Y47576D01*
X108370Y47548D01*
X108357Y47525D01*
X108345Y47504D01*
X108330Y47487D01*
X108319Y47471D01*
X108309Y47458D01*
X108299Y47447D01*
X108292Y47441D01*
X108288Y47437D01*
X108286Y47435D01*
X108258Y47414D01*
X108229Y47395D01*
X108198Y47378D01*
X108166Y47363D01*
X108133Y47351D01*
X108101Y47340D01*
X108040Y47326D01*
X108011Y47322D01*
X107985Y47317D01*
X107962Y47315D01*
X107941Y47313D01*
X107925Y47311D01*
X107902D01*
X107834Y47315D01*
X107773Y47324D01*
X107746Y47330D01*
X107721Y47336D01*
X107698Y47343D01*
X107677Y47351D01*
X107660Y47357D01*
X107643Y47363D01*
X107629Y47370D01*
X107618Y47376D01*
X107610Y47382D01*
X107601Y47385D01*
X107599Y47389D01*
X107597D01*
X107557Y47420D01*
X107521Y47456D01*
X107492Y47492D01*
X107469Y47527D01*
X107452Y47557D01*
X107440Y47582D01*
X107435Y47592D01*
X107431Y47599D01*
X107429Y47603D01*
Y47605D01*
X107414D01*
X107406Y47563D01*
X107396Y47527D01*
X107383Y47496D01*
X107368Y47469D01*
X107355Y47447D01*
X107345Y47431D01*
X107337Y47422D01*
X107334Y47418D01*
X107307Y47395D01*
X107276Y47376D01*
X107242Y47363D01*
X107209Y47355D01*
X107177Y47351D01*
X107154Y47349D01*
X107143Y47347D01*
X106946D01*
Y47580D01*
X107156D01*
Y48403D01*
X107158Y48449D01*
X107162Y48493D01*
X107171Y48535D01*
X107181Y48573D01*
X107194Y48609D01*
X107209Y48640D01*
X107223Y48672D01*
X107238Y48697D01*
X107253Y48722D01*
X107267Y48741D01*
X107282Y48760D01*
X107295Y48775D01*
X107305Y48785D01*
X107314Y48794D01*
X107318Y48798D01*
X107320Y48800D01*
X107351Y48825D01*
X107387Y48846D01*
X107423Y48865D01*
X107458Y48882D01*
X107496Y48894D01*
X107534Y48907D01*
X107605Y48924D01*
X107639Y48928D01*
X107668Y48932D01*
X107696Y48936D01*
X107721Y48939D01*
X107740Y48941D01*
X107767D01*
X107811Y48939D01*
D02*
G37*
G36*
X116772D02*
X116829Y48932D01*
X116881Y48922D01*
X116925Y48911D01*
X116944Y48905D01*
X116961Y48901D01*
X116978Y48897D01*
X116990Y48890D01*
X117001Y48888D01*
X117007Y48884D01*
X117011Y48882D01*
X117013D01*
X117062Y48859D01*
X117106Y48831D01*
X117144Y48804D01*
X117177Y48779D01*
X117204Y48756D01*
X117224Y48735D01*
X117236Y48722D01*
X117238Y48720D01*
X117240Y48718D01*
X117274Y48676D01*
X117301Y48632D01*
X117326Y48590D01*
X117345Y48548D01*
X117362Y48514D01*
X117368Y48498D01*
X117375Y48485D01*
X117377Y48474D01*
X117381Y48466D01*
X117383Y48462D01*
Y48460D01*
X117400Y48403D01*
X117410Y48344D01*
X117419Y48287D01*
X117425Y48237D01*
X117427Y48212D01*
X117429Y48191D01*
Y48172D01*
X117431Y48157D01*
Y48145D01*
Y48134D01*
Y48128D01*
Y48126D01*
X117429Y48057D01*
X117423Y47993D01*
X117417Y47937D01*
X117412Y47910D01*
X117406Y47886D01*
X117402Y47863D01*
X117398Y47844D01*
X117394Y47828D01*
X117392Y47815D01*
X117387Y47802D01*
X117385Y47794D01*
X117383Y47790D01*
Y47788D01*
X117362Y47733D01*
X117339Y47685D01*
X117316Y47641D01*
X117293Y47603D01*
X117272Y47574D01*
X117263Y47561D01*
X117255Y47550D01*
X117249Y47542D01*
X117245Y47536D01*
X117240Y47534D01*
Y47532D01*
X117204Y47494D01*
X117167Y47460D01*
X117127Y47433D01*
X117091Y47410D01*
X117062Y47391D01*
X117047Y47385D01*
X117037Y47378D01*
X117026Y47374D01*
X117020Y47370D01*
X117016Y47368D01*
X117013D01*
X116961Y47349D01*
X116908Y47334D01*
X116858Y47326D01*
X116810Y47317D01*
X116789Y47315D01*
X116768Y47313D01*
X116751D01*
X116736Y47311D01*
X116707D01*
X116663Y47313D01*
X116623Y47315D01*
X116583Y47319D01*
X116545Y47328D01*
X116512Y47334D01*
X116480Y47343D01*
X116451Y47353D01*
X116423Y47361D01*
X116400Y47372D01*
X116379Y47380D01*
X116360Y47389D01*
X116346Y47397D01*
X116333Y47403D01*
X116325Y47408D01*
X116321Y47410D01*
X116318Y47412D01*
X116266Y47452D01*
X116220Y47496D01*
X116182Y47540D01*
X116150Y47582D01*
X116127Y47618D01*
X116119Y47634D01*
X116110Y47647D01*
X116104Y47660D01*
X116102Y47668D01*
X116098Y47672D01*
Y47674D01*
X116299Y47809D01*
X116325Y47765D01*
X116350Y47727D01*
X116375Y47693D01*
X116400Y47666D01*
X116423Y47645D01*
X116440Y47628D01*
X116453Y47620D01*
X116455Y47616D01*
X116457D01*
X116495Y47592D01*
X116537Y47576D01*
X116579Y47563D01*
X116617Y47555D01*
X116652Y47550D01*
X116667Y47548D01*
X116680D01*
X116690Y47546D01*
X116705D01*
X116743Y47548D01*
X116778Y47552D01*
X116812Y47557D01*
X116841Y47565D01*
X116871Y47576D01*
X116898Y47586D01*
X116921Y47597D01*
X116942Y47609D01*
X116961Y47620D01*
X116978Y47630D01*
X116992Y47641D01*
X117003Y47651D01*
X117011Y47660D01*
X117018Y47664D01*
X117022Y47668D01*
X117024Y47670D01*
X117043Y47695D01*
X117060Y47721D01*
X117074Y47746D01*
X117087Y47773D01*
X117106Y47828D01*
X117119Y47878D01*
X117125Y47901D01*
X117127Y47922D01*
X117129Y47943D01*
X117131Y47960D01*
X117133Y47973D01*
Y47983D01*
Y47989D01*
Y47991D01*
Y48258D01*
X117131Y48294D01*
X117129Y48327D01*
X117116Y48390D01*
X117108Y48420D01*
X117099Y48445D01*
X117089Y48470D01*
X117078Y48491D01*
X117068Y48512D01*
X117058Y48529D01*
X117049Y48544D01*
X117041Y48556D01*
X117034Y48567D01*
X117028Y48573D01*
X117026Y48577D01*
X117024Y48579D01*
X117003Y48603D01*
X116978Y48621D01*
X116955Y48638D01*
X116927Y48653D01*
X116902Y48665D01*
X116877Y48674D01*
X116826Y48691D01*
X116801Y48695D01*
X116780Y48699D01*
X116761Y48701D01*
X116745Y48703D01*
X116730Y48705D01*
X116711D01*
X116661Y48703D01*
X116614Y48695D01*
X116575Y48684D01*
X116539Y48672D01*
X116512Y48659D01*
X116493Y48649D01*
X116480Y48640D01*
X116476Y48638D01*
X116444Y48611D01*
X116415Y48581D01*
X116392Y48552D01*
X116373Y48523D01*
X116360Y48498D01*
X116350Y48476D01*
X116346Y48468D01*
X116344Y48462D01*
X116341Y48460D01*
Y48458D01*
X116121Y48577D01*
X116150Y48636D01*
X116184Y48687D01*
X116220Y48733D01*
X116253Y48770D01*
X116285Y48800D01*
X116299Y48812D01*
X116312Y48821D01*
X116321Y48829D01*
X116329Y48836D01*
X116333Y48838D01*
X116335Y48840D01*
X116362Y48857D01*
X116392Y48873D01*
X116455Y48899D01*
X116516Y48915D01*
X116577Y48928D01*
X116604Y48932D01*
X116629Y48936D01*
X116652Y48939D01*
X116673D01*
X116688Y48941D01*
X116711D01*
X116772Y48939D01*
D02*
G37*
G36*
X122835Y47347D02*
X122543D01*
Y48287D01*
X121585D01*
Y48537D01*
X122543D01*
Y49203D01*
X121495D01*
Y49453D01*
X122835D01*
Y47347D01*
D02*
G37*
G36*
X119166Y48670D02*
X118620D01*
Y47580D01*
X119166D01*
Y47347D01*
X117826D01*
Y47580D01*
X118339D01*
Y48903D01*
X119166D01*
Y48670D01*
D02*
G37*
G36*
X115226Y49052D02*
X115228Y49022D01*
X115233Y48997D01*
X115237Y48978D01*
X115243Y48962D01*
X115252Y48949D01*
X115256Y48941D01*
X115260Y48936D01*
X115262Y48934D01*
X115277Y48924D01*
X115294Y48915D01*
X115312Y48911D01*
X115331Y48907D01*
X115350Y48905D01*
X115365Y48903D01*
X115739D01*
Y48670D01*
X115241D01*
Y47718D01*
X115239Y47689D01*
X115237Y47660D01*
X115226Y47607D01*
X115212Y47561D01*
X115195Y47523D01*
X115180Y47492D01*
X115172Y47479D01*
X115165Y47469D01*
X115159Y47460D01*
X115155Y47454D01*
X115151Y47452D01*
Y47450D01*
X115132Y47431D01*
X115113Y47416D01*
X115092Y47401D01*
X115069Y47391D01*
X115023Y47372D01*
X114976Y47359D01*
X114934Y47353D01*
X114916Y47351D01*
X114901Y47349D01*
X114888Y47347D01*
X114269D01*
Y47580D01*
X114960D01*
Y48670D01*
X114269D01*
Y48903D01*
X114960D01*
Y49453D01*
X115226D01*
Y49052D01*
D02*
G37*
G36*
X113735Y48670D02*
X113189D01*
Y47580D01*
X113735D01*
Y47347D01*
X112396D01*
Y47580D01*
X112908D01*
Y48903D01*
X113735D01*
Y48670D01*
D02*
G37*
G36*
X109479Y48936D02*
X109508Y48932D01*
X109533Y48928D01*
X109552Y48924D01*
X109569Y48920D01*
X109577Y48917D01*
X109581Y48915D01*
X109607Y48905D01*
X109632Y48894D01*
X109653Y48884D01*
X109672Y48873D01*
X109687Y48863D01*
X109697Y48855D01*
X109705Y48850D01*
X109707Y48848D01*
X109743Y48817D01*
X109760Y48800D01*
X109773Y48785D01*
X109783Y48773D01*
X109792Y48762D01*
X109796Y48756D01*
X109798Y48754D01*
X109823Y48714D01*
X109834Y48695D01*
X109842Y48678D01*
X109848Y48663D01*
X109854Y48653D01*
X109857Y48645D01*
X109859Y48642D01*
X109871D01*
Y48903D01*
X110151D01*
Y47347D01*
X109871D01*
Y48414D01*
X109869Y48441D01*
X109867Y48464D01*
X109861Y48485D01*
X109854Y48504D01*
X109850Y48518D01*
X109844Y48531D01*
X109842Y48537D01*
X109840Y48540D01*
X109827Y48558D01*
X109815Y48577D01*
X109800Y48592D01*
X109787Y48605D01*
X109775Y48615D01*
X109766Y48623D01*
X109760Y48628D01*
X109758Y48630D01*
X109718Y48655D01*
X109697Y48663D01*
X109680Y48672D01*
X109663Y48678D01*
X109651Y48682D01*
X109643Y48684D01*
X109640D01*
X109592Y48695D01*
X109569Y48697D01*
X109548Y48699D01*
X109531Y48701D01*
X109506D01*
X109475Y48699D01*
X109445Y48697D01*
X109393Y48684D01*
X109344Y48663D01*
X109306Y48638D01*
X109273Y48609D01*
X109244Y48573D01*
X109220Y48537D01*
X109204Y48500D01*
X109189Y48462D01*
X109178Y48426D01*
X109170Y48393D01*
X109166Y48361D01*
X109162Y48336D01*
X109159Y48315D01*
Y48302D01*
Y48300D01*
Y48298D01*
Y47347D01*
X108878D01*
Y48348D01*
X108880Y48401D01*
X108884Y48449D01*
X108891Y48493D01*
X108901Y48535D01*
X108912Y48575D01*
X108924Y48611D01*
X108937Y48645D01*
X108951Y48674D01*
X108964Y48699D01*
X108979Y48722D01*
X108992Y48741D01*
X109002Y48758D01*
X109012Y48768D01*
X109019Y48779D01*
X109023Y48783D01*
X109025Y48785D01*
X109052Y48812D01*
X109084Y48836D01*
X109115Y48857D01*
X109147Y48875D01*
X109178Y48890D01*
X109212Y48903D01*
X109241Y48913D01*
X109273Y48922D01*
X109300Y48928D01*
X109327Y48932D01*
X109351Y48936D01*
X109372Y48939D01*
X109388Y48941D01*
X109447D01*
X109479Y48936D01*
D02*
G37*
G36*
X106574Y49346D02*
X106045D01*
Y47580D01*
X106574D01*
Y47347D01*
X105232D01*
Y47580D01*
X105764D01*
Y49579D01*
X106574D01*
Y49346D01*
D02*
G37*
G36*
X103109Y47347D02*
X102811D01*
X102641Y47928D01*
X101933D01*
X101763Y47347D01*
X101452D01*
X102085Y49453D01*
X102479D01*
X103109Y47347D01*
D02*
G37*
G36*
X101131Y49226D02*
X100617D01*
Y47574D01*
X101131D01*
Y47347D01*
X99814D01*
Y47574D01*
X100327D01*
Y49226D01*
X99814D01*
Y49453D01*
X101131D01*
Y49226D01*
D02*
G37*
G36*
X111394Y48939D02*
X111453Y48932D01*
X111503Y48922D01*
X111547Y48911D01*
X111568Y48905D01*
X111585Y48901D01*
X111600Y48897D01*
X111612Y48890D01*
X111623Y48888D01*
X111629Y48884D01*
X111633Y48882D01*
X111635D01*
X111684Y48859D01*
X111726Y48831D01*
X111766Y48804D01*
X111799Y48779D01*
X111824Y48756D01*
X111845Y48735D01*
X111858Y48722D01*
X111860Y48720D01*
X111862Y48718D01*
X111896Y48676D01*
X111925Y48634D01*
X111950Y48590D01*
X111969Y48550D01*
X111986Y48514D01*
X111992Y48500D01*
X111999Y48487D01*
X112001Y48476D01*
X112005Y48468D01*
X112007Y48464D01*
Y48462D01*
X112024Y48405D01*
X112034Y48346D01*
X112043Y48290D01*
X112049Y48237D01*
X112051Y48214D01*
X112053Y48193D01*
Y48174D01*
X112055Y48157D01*
Y48145D01*
Y48134D01*
Y48128D01*
Y48126D01*
X112053Y48057D01*
X112047Y47993D01*
X112041Y47935D01*
X112036Y47910D01*
X112030Y47884D01*
X112026Y47863D01*
X112022Y47844D01*
X112018Y47826D01*
X112015Y47813D01*
X112011Y47800D01*
X112009Y47792D01*
X112007Y47788D01*
Y47786D01*
X111986Y47731D01*
X111963Y47683D01*
X111940Y47639D01*
X111915Y47601D01*
X111894Y47571D01*
X111885Y47559D01*
X111877Y47548D01*
X111871Y47540D01*
X111866Y47534D01*
X111862Y47532D01*
Y47529D01*
X111824Y47492D01*
X111787Y47460D01*
X111749Y47433D01*
X111713Y47410D01*
X111681Y47391D01*
X111669Y47385D01*
X111658Y47378D01*
X111648Y47374D01*
X111642Y47370D01*
X111637Y47368D01*
X111635D01*
X111585Y47349D01*
X111532Y47334D01*
X111482Y47326D01*
X111434Y47317D01*
X111413Y47315D01*
X111394Y47313D01*
X111377D01*
X111362Y47311D01*
X111333D01*
X111272Y47313D01*
X111215Y47319D01*
X111165Y47330D01*
X111121Y47340D01*
X111102Y47345D01*
X111085Y47349D01*
X111071Y47355D01*
X111058Y47359D01*
X111047Y47363D01*
X111041Y47366D01*
X111037Y47368D01*
X111035D01*
X110986Y47391D01*
X110942Y47416D01*
X110902Y47443D01*
X110869Y47471D01*
X110844Y47494D01*
X110823Y47513D01*
X110810Y47525D01*
X110806Y47527D01*
Y47529D01*
X110772Y47571D01*
X110743Y47616D01*
X110720Y47657D01*
X110699Y47697D01*
X110684Y47733D01*
X110678Y47748D01*
X110671Y47760D01*
X110667Y47771D01*
X110665Y47779D01*
X110663Y47783D01*
Y47786D01*
X110646Y47844D01*
X110634Y47903D01*
X110625Y47960D01*
X110619Y48012D01*
X110617Y48035D01*
X110615Y48059D01*
Y48077D01*
X110613Y48094D01*
Y48107D01*
Y48117D01*
Y48124D01*
Y48126D01*
X110615Y48193D01*
X110621Y48258D01*
X110629Y48315D01*
X110634Y48340D01*
X110638Y48363D01*
X110642Y48386D01*
X110646Y48405D01*
X110651Y48422D01*
X110655Y48437D01*
X110659Y48447D01*
X110661Y48456D01*
X110663Y48460D01*
Y48462D01*
X110682Y48516D01*
X110705Y48565D01*
X110730Y48609D01*
X110753Y48647D01*
X110774Y48676D01*
X110783Y48689D01*
X110791Y48699D01*
X110798Y48708D01*
X110802Y48714D01*
X110804Y48716D01*
X110806Y48718D01*
X110844Y48756D01*
X110881Y48789D01*
X110919Y48817D01*
X110955Y48840D01*
X110986Y48859D01*
X111001Y48865D01*
X111012Y48871D01*
X111022Y48875D01*
X111028Y48880D01*
X111033Y48882D01*
X111035D01*
X111085Y48901D01*
X111138Y48915D01*
X111188Y48926D01*
X111234Y48934D01*
X111255Y48936D01*
X111274Y48939D01*
X111291D01*
X111306Y48941D01*
X111333D01*
X111394Y48939D01*
D02*
G37*
G36*
X111276Y46888D02*
X111310Y46881D01*
X111337Y46875D01*
X111358Y46867D01*
X111375Y46856D01*
X111388Y46850D01*
X111394Y46843D01*
X111396Y46841D01*
X111411Y46823D01*
X111421Y46801D01*
X111430Y46783D01*
X111434Y46764D01*
X111438Y46747D01*
X111440Y46734D01*
Y46726D01*
Y46722D01*
Y46665D01*
X111438Y46640D01*
X111434Y46619D01*
X111425Y46598D01*
X111417Y46581D01*
X111411Y46568D01*
X111402Y46558D01*
X111398Y46552D01*
X111396Y46549D01*
X111375Y46535D01*
X111352Y46522D01*
X111325Y46514D01*
X111299Y46510D01*
X111274Y46505D01*
X111255Y46503D01*
X111236D01*
X111196Y46505D01*
X111163Y46510D01*
X111135Y46518D01*
X111112Y46526D01*
X111098Y46535D01*
X111085Y46543D01*
X111079Y46547D01*
X111077Y46549D01*
X111062Y46568D01*
X111049Y46587D01*
X111041Y46606D01*
X111037Y46625D01*
X111033Y46640D01*
X111030Y46654D01*
Y46663D01*
Y46665D01*
Y46722D01*
X111033Y46747D01*
X111037Y46770D01*
X111045Y46791D01*
X111054Y46808D01*
X111062Y46823D01*
X111071Y46833D01*
X111075Y46839D01*
X111077Y46841D01*
X111096Y46858D01*
X111121Y46869D01*
X111146Y46877D01*
X111173Y46883D01*
X111196Y46888D01*
X111217Y46890D01*
X111236D01*
X111276Y46888D01*
D02*
G37*
G36*
X89554D02*
X89587Y46881D01*
X89615Y46875D01*
X89636Y46867D01*
X89653Y46856D01*
X89665Y46850D01*
X89671Y46843D01*
X89674Y46841D01*
X89688Y46823D01*
X89699Y46801D01*
X89707Y46783D01*
X89711Y46764D01*
X89715Y46747D01*
X89718Y46734D01*
Y46726D01*
Y46722D01*
Y46665D01*
X89715Y46640D01*
X89711Y46619D01*
X89703Y46598D01*
X89695Y46581D01*
X89688Y46568D01*
X89680Y46558D01*
X89676Y46552D01*
X89674Y46549D01*
X89653Y46535D01*
X89629Y46522D01*
X89602Y46514D01*
X89577Y46510D01*
X89552Y46505D01*
X89533Y46503D01*
X89514D01*
X89474Y46505D01*
X89440Y46510D01*
X89413Y46518D01*
X89390Y46526D01*
X89375Y46535D01*
X89363Y46543D01*
X89356Y46547D01*
X89354Y46549D01*
X89340Y46568D01*
X89327Y46587D01*
X89319Y46606D01*
X89314Y46625D01*
X89310Y46640D01*
X89308Y46654D01*
Y46663D01*
Y46665D01*
Y46722D01*
X89310Y46747D01*
X89314Y46770D01*
X89323Y46791D01*
X89331Y46808D01*
X89340Y46823D01*
X89348Y46833D01*
X89352Y46839D01*
X89354Y46841D01*
X89373Y46858D01*
X89398Y46869D01*
X89424Y46877D01*
X89451Y46883D01*
X89474Y46888D01*
X89495Y46890D01*
X89514D01*
X89554Y46888D01*
D02*
G37*
G36*
X107952Y46222D02*
X107992Y46213D01*
X108023Y46203D01*
X108051Y46190D01*
X108074Y46178D01*
X108088Y46167D01*
X108097Y46159D01*
X108101Y46157D01*
X108124Y46132D01*
X108145Y46104D01*
X108162Y46077D01*
X108177Y46052D01*
X108189Y46031D01*
X108198Y46012D01*
X108202Y46001D01*
X108204Y45999D01*
Y45997D01*
X108219D01*
Y46186D01*
X108469D01*
Y44630D01*
X108219D01*
Y45768D01*
X108217Y45808D01*
X108210Y45844D01*
X108200Y45873D01*
X108189Y45896D01*
X108181Y45915D01*
X108170Y45930D01*
X108164Y45938D01*
X108162Y45941D01*
X108139Y45961D01*
X108114Y45976D01*
X108088Y45987D01*
X108065Y45993D01*
X108044Y45999D01*
X108028Y46001D01*
X108013D01*
X107979Y45999D01*
X107950Y45991D01*
X107927Y45978D01*
X107908Y45966D01*
X107893Y45953D01*
X107885Y45941D01*
X107878Y45932D01*
X107876Y45930D01*
X107868Y45915D01*
X107862Y45899D01*
X107851Y45861D01*
X107845Y45819D01*
X107839Y45777D01*
X107836Y45739D01*
Y45722D01*
X107834Y45707D01*
Y45695D01*
Y45686D01*
Y45680D01*
Y45678D01*
Y44630D01*
X107584D01*
Y45768D01*
X107582Y45808D01*
X107576Y45844D01*
X107566Y45873D01*
X107555Y45896D01*
X107547Y45915D01*
X107536Y45930D01*
X107530Y45938D01*
X107528Y45941D01*
X107505Y45961D01*
X107482Y45976D01*
X107456Y45987D01*
X107433Y45993D01*
X107414Y45999D01*
X107398Y46001D01*
X107383D01*
X107347Y45999D01*
X107318Y45991D01*
X107295Y45978D01*
X107274Y45966D01*
X107261Y45953D01*
X107250Y45941D01*
X107244Y45932D01*
X107242Y45930D01*
X107236Y45915D01*
X107229Y45899D01*
X107219Y45861D01*
X107213Y45819D01*
X107206Y45777D01*
X107204Y45739D01*
Y45722D01*
X107202Y45707D01*
Y45695D01*
Y45686D01*
Y45680D01*
Y45678D01*
Y44630D01*
X106950D01*
Y45716D01*
Y45760D01*
X106952Y45804D01*
X106957Y45842D01*
X106961Y45880D01*
X106967Y45913D01*
X106971Y45945D01*
X106977Y45972D01*
X106984Y45997D01*
X106992Y46020D01*
X106999Y46039D01*
X107003Y46056D01*
X107009Y46071D01*
X107013Y46081D01*
X107018Y46088D01*
X107020Y46092D01*
Y46094D01*
X107034Y46117D01*
X107051Y46136D01*
X107068Y46155D01*
X107089Y46169D01*
X107110Y46182D01*
X107131Y46192D01*
X107173Y46207D01*
X107211Y46218D01*
X107229Y46220D01*
X107244Y46222D01*
X107257Y46224D01*
X107274D01*
X107322Y46222D01*
X107366Y46213D01*
X107404Y46201D01*
X107433Y46188D01*
X107458Y46176D01*
X107475Y46163D01*
X107486Y46155D01*
X107490Y46153D01*
X107517Y46125D01*
X107540Y46096D01*
X107561Y46066D01*
X107578Y46037D01*
X107593Y46014D01*
X107601Y45993D01*
X107607Y45980D01*
X107610Y45978D01*
Y45976D01*
X107620D01*
X107629Y46016D01*
X107641Y46052D01*
X107656Y46081D01*
X107671Y46106D01*
X107685Y46127D01*
X107698Y46142D01*
X107704Y46153D01*
X107708Y46155D01*
X107738Y46178D01*
X107769Y46195D01*
X107803Y46207D01*
X107834Y46216D01*
X107864Y46220D01*
X107887Y46224D01*
X107908D01*
X107952Y46222D01*
D02*
G37*
G36*
X101146Y45953D02*
X100709D01*
Y44863D01*
X101146D01*
Y44630D01*
X99840D01*
Y44863D01*
X100428D01*
Y45495D01*
X100426Y45529D01*
X100424Y45560D01*
X100409Y45619D01*
X100390Y45670D01*
X100379Y45693D01*
X100369Y45714D01*
X100358Y45731D01*
X100348Y45747D01*
X100337Y45762D01*
X100329Y45772D01*
X100321Y45781D01*
X100314Y45787D01*
X100312Y45791D01*
X100310Y45794D01*
X100287Y45814D01*
X100262Y45833D01*
X100236Y45848D01*
X100209Y45861D01*
X100157Y45882D01*
X100104Y45896D01*
X100081Y45901D01*
X100058Y45905D01*
X100039Y45907D01*
X100022Y45909D01*
X100008Y45911D01*
X99686D01*
Y46186D01*
X99892D01*
X99930Y46184D01*
X99968Y46182D01*
X100001Y46176D01*
X100033Y46169D01*
X100064Y46161D01*
X100092Y46153D01*
X100117Y46142D01*
X100140Y46134D01*
X100161Y46123D01*
X100178Y46113D01*
X100195Y46104D01*
X100207Y46096D01*
X100218Y46090D01*
X100224Y46083D01*
X100228Y46081D01*
X100230Y46079D01*
X100274Y46035D01*
X100312Y45987D01*
X100344Y45938D01*
X100369Y45890D01*
X100388Y45848D01*
X100394Y45829D01*
X100400Y45814D01*
X100405Y45802D01*
X100409Y45791D01*
X100411Y45785D01*
Y45783D01*
X100428D01*
Y46186D01*
X101146D01*
Y45953D01*
D02*
G37*
G36*
X93905D02*
X93468D01*
Y44863D01*
X93905D01*
Y44630D01*
X92599D01*
Y44863D01*
X93187D01*
Y45495D01*
X93185Y45529D01*
X93183Y45560D01*
X93168Y45619D01*
X93149Y45670D01*
X93138Y45693D01*
X93128Y45714D01*
X93118Y45731D01*
X93107Y45747D01*
X93097Y45762D01*
X93088Y45772D01*
X93080Y45781D01*
X93073Y45787D01*
X93071Y45791D01*
X93069Y45794D01*
X93046Y45814D01*
X93021Y45833D01*
X92996Y45848D01*
X92968Y45861D01*
X92916Y45882D01*
X92864Y45896D01*
X92840Y45901D01*
X92817Y45905D01*
X92798Y45907D01*
X92782Y45909D01*
X92767Y45911D01*
X92446D01*
Y46186D01*
X92651D01*
X92689Y46184D01*
X92727Y46182D01*
X92761Y46176D01*
X92792Y46169D01*
X92824Y46161D01*
X92851Y46153D01*
X92876Y46142D01*
X92899Y46134D01*
X92920Y46123D01*
X92937Y46113D01*
X92954Y46104D01*
X92966Y46096D01*
X92977Y46090D01*
X92983Y46083D01*
X92987Y46081D01*
X92989Y46079D01*
X93034Y46035D01*
X93071Y45987D01*
X93103Y45938D01*
X93128Y45890D01*
X93147Y45848D01*
X93153Y45829D01*
X93160Y45814D01*
X93164Y45802D01*
X93168Y45791D01*
X93170Y45785D01*
Y45783D01*
X93187D01*
Y46186D01*
X93905D01*
Y45953D01*
D02*
G37*
G36*
X92095D02*
X91658D01*
Y44863D01*
X92095D01*
Y44630D01*
X90789D01*
Y44863D01*
X91377D01*
Y45495D01*
X91374Y45529D01*
X91373Y45560D01*
X91358Y45619D01*
X91339Y45670D01*
X91328Y45693D01*
X91318Y45714D01*
X91307Y45731D01*
X91297Y45747D01*
X91286Y45762D01*
X91278Y45772D01*
X91270Y45781D01*
X91263Y45787D01*
X91261Y45791D01*
X91259Y45794D01*
X91236Y45814D01*
X91211Y45833D01*
X91186Y45848D01*
X91158Y45861D01*
X91106Y45882D01*
X91053Y45896D01*
X91030Y45901D01*
X91007Y45905D01*
X90988Y45907D01*
X90971Y45909D01*
X90957Y45911D01*
X90635D01*
Y46186D01*
X90841D01*
X90879Y46184D01*
X90917Y46182D01*
X90950Y46176D01*
X90982Y46169D01*
X91013Y46161D01*
X91041Y46153D01*
X91066Y46142D01*
X91089Y46134D01*
X91110Y46123D01*
X91127Y46113D01*
X91144Y46104D01*
X91156Y46096D01*
X91167Y46090D01*
X91173Y46083D01*
X91177Y46081D01*
X91179Y46079D01*
X91223Y46035D01*
X91261Y45987D01*
X91293Y45938D01*
X91318Y45890D01*
X91337Y45848D01*
X91343Y45829D01*
X91349Y45814D01*
X91353Y45802D01*
X91358Y45791D01*
X91360Y45785D01*
Y45783D01*
X91377D01*
Y46186D01*
X92095D01*
Y45953D01*
D02*
G37*
G36*
X86664D02*
X86227D01*
Y44863D01*
X86664D01*
Y44630D01*
X85358D01*
Y44863D01*
X85946D01*
Y45495D01*
X85944Y45529D01*
X85942Y45560D01*
X85927Y45619D01*
X85908Y45670D01*
X85898Y45693D01*
X85887Y45714D01*
X85877Y45731D01*
X85866Y45747D01*
X85856Y45762D01*
X85847Y45772D01*
X85839Y45781D01*
X85833Y45787D01*
X85831Y45791D01*
X85828Y45794D01*
X85805Y45814D01*
X85780Y45833D01*
X85755Y45848D01*
X85728Y45861D01*
X85675Y45882D01*
X85623Y45896D01*
X85599Y45901D01*
X85576Y45905D01*
X85558Y45907D01*
X85541Y45909D01*
X85526Y45911D01*
X85205D01*
Y46186D01*
X85411D01*
X85448Y46184D01*
X85486Y46182D01*
X85520Y46176D01*
X85551Y46169D01*
X85583Y46161D01*
X85610Y46153D01*
X85635Y46142D01*
X85658Y46134D01*
X85679Y46123D01*
X85696Y46113D01*
X85713Y46104D01*
X85725Y46096D01*
X85736Y46090D01*
X85742Y46083D01*
X85747Y46081D01*
X85749Y46079D01*
X85793Y46035D01*
X85831Y45987D01*
X85862Y45938D01*
X85887Y45890D01*
X85906Y45848D01*
X85913Y45829D01*
X85919Y45814D01*
X85923Y45802D01*
X85927Y45791D01*
X85929Y45785D01*
Y45783D01*
X85946D01*
Y46186D01*
X86664D01*
Y45953D01*
D02*
G37*
G36*
X95138Y46222D02*
X95180Y46220D01*
X95218Y46216D01*
X95251Y46211D01*
X95278Y46205D01*
X95300Y46201D01*
X95306Y46199D01*
X95312D01*
X95314Y46197D01*
X95316D01*
X95352Y46186D01*
X95386Y46176D01*
X95415Y46163D01*
X95440Y46153D01*
X95461Y46142D01*
X95478Y46136D01*
X95486Y46130D01*
X95490Y46127D01*
X95518Y46111D01*
X95543Y46094D01*
X95564Y46077D01*
X95583Y46062D01*
X95600Y46050D01*
X95610Y46039D01*
X95619Y46031D01*
X95621Y46029D01*
X95640Y46008D01*
X95656Y45987D01*
X95671Y45968D01*
X95682Y45949D01*
X95692Y45934D01*
X95698Y45924D01*
X95703Y45915D01*
X95705Y45913D01*
X95526Y45770D01*
X95501Y45808D01*
X95476Y45840D01*
X95449Y45869D01*
X95425Y45892D01*
X95402Y45911D01*
X95386Y45924D01*
X95373Y45932D01*
X95369Y45934D01*
X95329Y45955D01*
X95287Y45970D01*
X95245Y45980D01*
X95205Y45987D01*
X95169Y45993D01*
X95155D01*
X95140Y45995D01*
X95115D01*
X95054Y45991D01*
X95001Y45983D01*
X94957Y45968D01*
X94921Y45953D01*
X94892Y45938D01*
X94871Y45924D01*
X94858Y45915D01*
X94854Y45911D01*
X94837Y45894D01*
X94823Y45878D01*
X94802Y45838D01*
X94785Y45798D01*
X94772Y45756D01*
X94766Y45720D01*
X94764Y45705D01*
Y45691D01*
X94762Y45680D01*
Y45672D01*
Y45665D01*
Y45663D01*
Y45525D01*
X95079D01*
X95142Y45523D01*
X95201Y45520D01*
X95257Y45514D01*
X95308Y45506D01*
X95354Y45497D01*
X95396Y45487D01*
X95434Y45476D01*
X95467Y45466D01*
X95497Y45453D01*
X95522Y45443D01*
X95545Y45432D01*
X95562Y45424D01*
X95577Y45415D01*
X95585Y45409D01*
X95591Y45407D01*
X95593Y45405D01*
X95623Y45382D01*
X95646Y45357D01*
X95669Y45329D01*
X95686Y45302D01*
X95703Y45275D01*
X95715Y45245D01*
X95726Y45218D01*
X95734Y45191D01*
X95743Y45166D01*
X95747Y45142D01*
X95751Y45119D01*
X95753Y45101D01*
Y45086D01*
X95755Y45075D01*
Y45067D01*
Y45065D01*
X95753Y45025D01*
X95749Y44987D01*
X95743Y44951D01*
X95732Y44918D01*
X95722Y44886D01*
X95709Y44859D01*
X95696Y44832D01*
X95684Y44809D01*
X95671Y44788D01*
X95656Y44771D01*
X95646Y44754D01*
X95635Y44741D01*
X95625Y44731D01*
X95619Y44725D01*
X95614Y44720D01*
X95612Y44718D01*
X95585Y44697D01*
X95556Y44678D01*
X95524Y44662D01*
X95493Y44647D01*
X95459Y44634D01*
X95428Y44624D01*
X95367Y44609D01*
X95337Y44605D01*
X95312Y44601D01*
X95289Y44599D01*
X95268Y44596D01*
X95251Y44594D01*
X95228D01*
X95161Y44599D01*
X95100Y44607D01*
X95073Y44613D01*
X95047Y44620D01*
X95024Y44626D01*
X95003Y44634D01*
X94986Y44641D01*
X94970Y44647D01*
X94955Y44653D01*
X94945Y44660D01*
X94936Y44666D01*
X94928Y44668D01*
X94926Y44672D01*
X94924D01*
X94884Y44704D01*
X94848Y44739D01*
X94819Y44775D01*
X94796Y44811D01*
X94779Y44840D01*
X94766Y44865D01*
X94762Y44876D01*
X94758Y44882D01*
X94756Y44886D01*
Y44888D01*
X94741D01*
X94732Y44846D01*
X94722Y44811D01*
X94709Y44779D01*
X94695Y44752D01*
X94682Y44731D01*
X94672Y44714D01*
X94663Y44706D01*
X94661Y44701D01*
X94634Y44678D01*
X94602Y44660D01*
X94569Y44647D01*
X94535Y44638D01*
X94503Y44634D01*
X94480Y44632D01*
X94470Y44630D01*
X94273D01*
Y44863D01*
X94483D01*
Y45686D01*
X94485Y45733D01*
X94489Y45777D01*
X94497Y45819D01*
X94508Y45856D01*
X94520Y45892D01*
X94535Y45924D01*
X94550Y45955D01*
X94564Y45980D01*
X94579Y46006D01*
X94594Y46025D01*
X94609Y46043D01*
X94621Y46058D01*
X94632Y46069D01*
X94640Y46077D01*
X94644Y46081D01*
X94646Y46083D01*
X94678Y46108D01*
X94713Y46130D01*
X94749Y46148D01*
X94785Y46165D01*
X94823Y46178D01*
X94861Y46190D01*
X94932Y46207D01*
X94965Y46211D01*
X94995Y46216D01*
X95022Y46220D01*
X95047Y46222D01*
X95066Y46224D01*
X95094D01*
X95138Y46222D01*
D02*
G37*
G36*
X116812D02*
X116867Y46216D01*
X116917Y46205D01*
X116959Y46195D01*
X116980Y46188D01*
X116997Y46184D01*
X117011Y46180D01*
X117024Y46174D01*
X117034Y46172D01*
X117041Y46167D01*
X117045Y46165D01*
X117047D01*
X117095Y46142D01*
X117137Y46115D01*
X117177Y46088D01*
X117211Y46062D01*
X117236Y46039D01*
X117257Y46018D01*
X117270Y46006D01*
X117272Y46003D01*
X117274Y46001D01*
X117307Y45959D01*
X117337Y45915D01*
X117362Y45873D01*
X117383Y45831D01*
X117400Y45798D01*
X117408Y45781D01*
X117412Y45768D01*
X117417Y45758D01*
X117421Y45749D01*
X117423Y45745D01*
Y45743D01*
X117440Y45684D01*
X117452Y45628D01*
X117463Y45569D01*
X117469Y45518D01*
X117471Y45493D01*
X117473Y45472D01*
Y45453D01*
X117475Y45436D01*
Y45424D01*
Y45413D01*
Y45407D01*
Y45405D01*
X117473Y45338D01*
X117467Y45273D01*
X117459Y45216D01*
X117454Y45191D01*
X117450Y45168D01*
X117446Y45145D01*
X117442Y45126D01*
X117438Y45109D01*
X117433Y45096D01*
X117429Y45084D01*
X117427Y45075D01*
X117425Y45071D01*
Y45069D01*
X117404Y45014D01*
X117379Y44966D01*
X117356Y44922D01*
X117333Y44884D01*
X117312Y44855D01*
X117301Y44842D01*
X117293Y44832D01*
X117286Y44823D01*
X117282Y44817D01*
X117278Y44815D01*
Y44813D01*
X117240Y44775D01*
X117200Y44743D01*
X117160Y44716D01*
X117125Y44693D01*
X117091Y44674D01*
X117078Y44668D01*
X117066Y44662D01*
X117055Y44657D01*
X117049Y44653D01*
X117045Y44651D01*
X117043D01*
X116990Y44632D01*
X116936Y44618D01*
X116883Y44609D01*
X116835Y44601D01*
X116814Y44599D01*
X116793Y44596D01*
X116776D01*
X116761Y44594D01*
X116732D01*
X116688Y44596D01*
X116648Y44599D01*
X116608Y44603D01*
X116570Y44609D01*
X116537Y44615D01*
X116503Y44624D01*
X116474Y44632D01*
X116444Y44643D01*
X116421Y44651D01*
X116398Y44660D01*
X116379Y44668D01*
X116365Y44674D01*
X116352Y44681D01*
X116341Y44685D01*
X116337Y44689D01*
X116335D01*
X116278Y44727D01*
X116230Y44769D01*
X116188Y44811D01*
X116157Y44848D01*
X116129Y44884D01*
X116121Y44899D01*
X116113Y44912D01*
X116106Y44922D01*
X116102Y44930D01*
X116098Y44935D01*
Y44937D01*
X116289Y45086D01*
X116314Y45044D01*
X116344Y45006D01*
X116371Y44972D01*
X116400Y44945D01*
X116426Y44924D01*
X116444Y44909D01*
X116453Y44903D01*
X116459Y44901D01*
X116461Y44897D01*
X116463D01*
X116507Y44874D01*
X116551Y44859D01*
X116596Y44846D01*
X116638Y44838D01*
X116675Y44834D01*
X116690Y44832D01*
X116705D01*
X116715Y44830D01*
X116730D01*
X116770Y44832D01*
X116806Y44836D01*
X116841Y44840D01*
X116873Y44848D01*
X116902Y44859D01*
X116929Y44870D01*
X116955Y44880D01*
X116978Y44893D01*
X116999Y44903D01*
X117016Y44914D01*
X117030Y44924D01*
X117043Y44935D01*
X117053Y44943D01*
X117060Y44947D01*
X117064Y44951D01*
X117066Y44954D01*
X117087Y44979D01*
X117106Y45004D01*
X117121Y45029D01*
X117135Y45056D01*
X117146Y45084D01*
X117156Y45111D01*
X117171Y45161D01*
X117175Y45184D01*
X117179Y45206D01*
X117181Y45226D01*
X117183Y45243D01*
X117186Y45256D01*
Y45266D01*
Y45273D01*
Y45275D01*
Y45340D01*
X116050D01*
Y45458D01*
X116052Y45518D01*
X116058Y45577D01*
X116066Y45630D01*
X116075Y45676D01*
X116079Y45695D01*
X116083Y45714D01*
X116087Y45728D01*
X116092Y45741D01*
X116096Y45752D01*
X116098Y45760D01*
X116100Y45764D01*
Y45766D01*
X116121Y45817D01*
X116144Y45863D01*
X116167Y45905D01*
X116190Y45941D01*
X116211Y45968D01*
X116228Y45989D01*
X116234Y45997D01*
X116239Y46003D01*
X116241Y46006D01*
X116243Y46008D01*
X116278Y46043D01*
X116316Y46077D01*
X116352Y46104D01*
X116388Y46125D01*
X116417Y46144D01*
X116442Y46157D01*
X116451Y46161D01*
X116457Y46165D01*
X116461Y46167D01*
X116463D01*
X116514Y46186D01*
X116564Y46201D01*
X116612Y46209D01*
X116656Y46218D01*
X116696Y46222D01*
X116711D01*
X116726Y46224D01*
X116753D01*
X116812Y46222D01*
D02*
G37*
G36*
X105951D02*
X106005Y46216D01*
X106056Y46205D01*
X106098Y46195D01*
X106119Y46188D01*
X106135Y46184D01*
X106150Y46180D01*
X106163Y46174D01*
X106173Y46172D01*
X106179Y46167D01*
X106184Y46165D01*
X106186D01*
X106234Y46142D01*
X106276Y46115D01*
X106316Y46088D01*
X106350Y46062D01*
X106375Y46039D01*
X106396Y46018D01*
X106408Y46006D01*
X106411Y46003D01*
X106413Y46001D01*
X106446Y45959D01*
X106476Y45915D01*
X106501Y45873D01*
X106522Y45831D01*
X106539Y45798D01*
X106547Y45781D01*
X106551Y45768D01*
X106555Y45758D01*
X106560Y45749D01*
X106562Y45745D01*
Y45743D01*
X106579Y45684D01*
X106591Y45628D01*
X106602Y45569D01*
X106608Y45518D01*
X106610Y45493D01*
X106612Y45472D01*
Y45453D01*
X106614Y45436D01*
Y45424D01*
Y45413D01*
Y45407D01*
Y45405D01*
X106612Y45338D01*
X106606Y45273D01*
X106597Y45216D01*
X106593Y45191D01*
X106589Y45168D01*
X106585Y45145D01*
X106581Y45126D01*
X106576Y45109D01*
X106572Y45096D01*
X106568Y45084D01*
X106566Y45075D01*
X106564Y45071D01*
Y45069D01*
X106543Y45014D01*
X106518Y44966D01*
X106495Y44922D01*
X106472Y44884D01*
X106450Y44855D01*
X106440Y44842D01*
X106431Y44832D01*
X106425Y44823D01*
X106421Y44817D01*
X106417Y44815D01*
Y44813D01*
X106379Y44775D01*
X106339Y44743D01*
X106299Y44716D01*
X106264Y44693D01*
X106230Y44674D01*
X106217Y44668D01*
X106205Y44662D01*
X106194Y44657D01*
X106188Y44653D01*
X106184Y44651D01*
X106182D01*
X106129Y44632D01*
X106075Y44618D01*
X106022Y44609D01*
X105974Y44601D01*
X105953Y44599D01*
X105932Y44596D01*
X105915D01*
X105900Y44594D01*
X105871D01*
X105827Y44596D01*
X105787Y44599D01*
X105747Y44603D01*
X105709Y44609D01*
X105675Y44615D01*
X105642Y44624D01*
X105613Y44632D01*
X105583Y44643D01*
X105560Y44651D01*
X105537Y44660D01*
X105518Y44668D01*
X105503Y44674D01*
X105491Y44681D01*
X105480Y44685D01*
X105476Y44689D01*
X105474D01*
X105417Y44727D01*
X105369Y44769D01*
X105327Y44811D01*
X105296Y44848D01*
X105268Y44884D01*
X105260Y44899D01*
X105251Y44912D01*
X105245Y44922D01*
X105241Y44930D01*
X105237Y44935D01*
Y44937D01*
X105428Y45086D01*
X105453Y45044D01*
X105482Y45006D01*
X105510Y44972D01*
X105539Y44945D01*
X105564Y44924D01*
X105583Y44909D01*
X105592Y44903D01*
X105598Y44901D01*
X105600Y44897D01*
X105602D01*
X105646Y44874D01*
X105690Y44859D01*
X105734Y44846D01*
X105776Y44838D01*
X105814Y44834D01*
X105829Y44832D01*
X105844D01*
X105854Y44830D01*
X105869D01*
X105909Y44832D01*
X105944Y44836D01*
X105980Y44840D01*
X106012Y44848D01*
X106041Y44859D01*
X106068Y44870D01*
X106094Y44880D01*
X106117Y44893D01*
X106138Y44903D01*
X106154Y44914D01*
X106169Y44924D01*
X106182Y44935D01*
X106192Y44943D01*
X106199Y44947D01*
X106203Y44951D01*
X106205Y44954D01*
X106226Y44979D01*
X106245Y45004D01*
X106259Y45029D01*
X106274Y45056D01*
X106284Y45084D01*
X106295Y45111D01*
X106310Y45161D01*
X106314Y45184D01*
X106318Y45206D01*
X106320Y45226D01*
X106322Y45243D01*
X106325Y45256D01*
Y45266D01*
Y45273D01*
Y45275D01*
Y45340D01*
X105188D01*
Y45458D01*
X105191Y45518D01*
X105197Y45577D01*
X105205Y45630D01*
X105214Y45676D01*
X105218Y45695D01*
X105222Y45714D01*
X105226Y45728D01*
X105230Y45741D01*
X105235Y45752D01*
X105237Y45760D01*
X105239Y45764D01*
Y45766D01*
X105260Y45817D01*
X105283Y45863D01*
X105306Y45905D01*
X105329Y45941D01*
X105350Y45968D01*
X105367Y45989D01*
X105373Y45997D01*
X105377Y46003D01*
X105379Y46006D01*
X105382Y46008D01*
X105417Y46043D01*
X105455Y46077D01*
X105491Y46104D01*
X105526Y46125D01*
X105556Y46144D01*
X105581Y46157D01*
X105589Y46161D01*
X105596Y46165D01*
X105600Y46167D01*
X105602D01*
X105652Y46186D01*
X105703Y46201D01*
X105751Y46209D01*
X105795Y46218D01*
X105835Y46222D01*
X105850D01*
X105865Y46224D01*
X105892D01*
X105951Y46222D01*
D02*
G37*
G36*
X102330D02*
X102385Y46216D01*
X102435Y46205D01*
X102477Y46195D01*
X102498Y46188D01*
X102515Y46184D01*
X102530Y46180D01*
X102542Y46174D01*
X102553Y46172D01*
X102559Y46167D01*
X102563Y46165D01*
X102566D01*
X102614Y46142D01*
X102656Y46115D01*
X102696Y46088D01*
X102729Y46062D01*
X102754Y46039D01*
X102776Y46018D01*
X102788Y46006D01*
X102790Y46003D01*
X102792Y46001D01*
X102826Y45959D01*
X102855Y45915D01*
X102880Y45873D01*
X102901Y45831D01*
X102918Y45798D01*
X102927Y45781D01*
X102931Y45768D01*
X102935Y45758D01*
X102939Y45749D01*
X102941Y45745D01*
Y45743D01*
X102958Y45684D01*
X102971Y45628D01*
X102981Y45569D01*
X102988Y45518D01*
X102990Y45493D01*
X102992Y45472D01*
Y45453D01*
X102994Y45436D01*
Y45424D01*
Y45413D01*
Y45407D01*
Y45405D01*
X102992Y45338D01*
X102985Y45273D01*
X102977Y45216D01*
X102973Y45191D01*
X102969Y45168D01*
X102964Y45145D01*
X102960Y45126D01*
X102956Y45109D01*
X102952Y45096D01*
X102948Y45084D01*
X102946Y45075D01*
X102944Y45071D01*
Y45069D01*
X102922Y45014D01*
X102897Y44966D01*
X102874Y44922D01*
X102851Y44884D01*
X102830Y44855D01*
X102820Y44842D01*
X102811Y44832D01*
X102805Y44823D01*
X102801Y44817D01*
X102796Y44815D01*
Y44813D01*
X102759Y44775D01*
X102719Y44743D01*
X102679Y44716D01*
X102643Y44693D01*
X102610Y44674D01*
X102597Y44668D01*
X102584Y44662D01*
X102574Y44657D01*
X102568Y44653D01*
X102563Y44651D01*
X102561D01*
X102509Y44632D01*
X102454Y44618D01*
X102402Y44609D01*
X102353Y44601D01*
X102332Y44599D01*
X102311Y44596D01*
X102295D01*
X102280Y44594D01*
X102251D01*
X102206Y44596D01*
X102166Y44599D01*
X102127Y44603D01*
X102089Y44609D01*
X102055Y44615D01*
X102022Y44624D01*
X101992Y44632D01*
X101963Y44643D01*
X101940Y44651D01*
X101917Y44660D01*
X101898Y44668D01*
X101883Y44674D01*
X101870Y44681D01*
X101860Y44685D01*
X101856Y44689D01*
X101854D01*
X101797Y44727D01*
X101749Y44769D01*
X101707Y44811D01*
X101675Y44848D01*
X101648Y44884D01*
X101639Y44899D01*
X101631Y44912D01*
X101625Y44922D01*
X101620Y44930D01*
X101616Y44935D01*
Y44937D01*
X101807Y45086D01*
X101833Y45044D01*
X101862Y45006D01*
X101889Y44972D01*
X101919Y44945D01*
X101944Y44924D01*
X101963Y44909D01*
X101971Y44903D01*
X101977Y44901D01*
X101979Y44897D01*
X101982D01*
X102026Y44874D01*
X102070Y44859D01*
X102114Y44846D01*
X102156Y44838D01*
X102194Y44834D01*
X102208Y44832D01*
X102223D01*
X102234Y44830D01*
X102248D01*
X102288Y44832D01*
X102324Y44836D01*
X102360Y44840D01*
X102391Y44848D01*
X102421Y44859D01*
X102448Y44870D01*
X102473Y44880D01*
X102496Y44893D01*
X102517Y44903D01*
X102534Y44914D01*
X102549Y44924D01*
X102561Y44935D01*
X102572Y44943D01*
X102578Y44947D01*
X102582Y44951D01*
X102584Y44954D01*
X102605Y44979D01*
X102624Y45004D01*
X102639Y45029D01*
X102654Y45056D01*
X102664Y45084D01*
X102675Y45111D01*
X102689Y45161D01*
X102694Y45184D01*
X102698Y45206D01*
X102700Y45226D01*
X102702Y45243D01*
X102704Y45256D01*
Y45266D01*
Y45273D01*
Y45275D01*
Y45340D01*
X101568D01*
Y45458D01*
X101570Y45518D01*
X101576Y45577D01*
X101585Y45630D01*
X101593Y45676D01*
X101597Y45695D01*
X101602Y45714D01*
X101606Y45728D01*
X101610Y45741D01*
X101614Y45752D01*
X101616Y45760D01*
X101618Y45764D01*
Y45766D01*
X101639Y45817D01*
X101663Y45863D01*
X101686Y45905D01*
X101709Y45941D01*
X101730Y45968D01*
X101746Y45989D01*
X101753Y45997D01*
X101757Y46003D01*
X101759Y46006D01*
X101761Y46008D01*
X101797Y46043D01*
X101835Y46077D01*
X101870Y46104D01*
X101906Y46125D01*
X101936Y46144D01*
X101961Y46157D01*
X101969Y46161D01*
X101975Y46165D01*
X101979Y46167D01*
X101982D01*
X102032Y46186D01*
X102082Y46201D01*
X102131Y46209D01*
X102175Y46218D01*
X102215Y46222D01*
X102229D01*
X102244Y46224D01*
X102271D01*
X102330Y46222D01*
D02*
G37*
G36*
X96858D02*
X96914Y46216D01*
X96967Y46205D01*
X97011Y46195D01*
X97030Y46188D01*
X97047Y46184D01*
X97063Y46180D01*
X97076Y46174D01*
X97087Y46172D01*
X97093Y46167D01*
X97097Y46165D01*
X97099D01*
X97148Y46142D01*
X97192Y46115D01*
X97229Y46088D01*
X97263Y46062D01*
X97290Y46039D01*
X97309Y46018D01*
X97322Y46006D01*
X97324Y46003D01*
X97326Y46001D01*
X97360Y45959D01*
X97387Y45915D01*
X97412Y45873D01*
X97431Y45831D01*
X97448Y45798D01*
X97454Y45781D01*
X97460Y45768D01*
X97462Y45758D01*
X97467Y45749D01*
X97469Y45745D01*
Y45743D01*
X97486Y45686D01*
X97496Y45628D01*
X97504Y45571D01*
X97511Y45520D01*
X97513Y45495D01*
X97515Y45474D01*
Y45455D01*
X97517Y45441D01*
Y45428D01*
Y45418D01*
Y45411D01*
Y45409D01*
X97515Y45340D01*
X97509Y45277D01*
X97502Y45220D01*
X97498Y45193D01*
X97492Y45170D01*
X97488Y45147D01*
X97483Y45128D01*
X97479Y45111D01*
X97477Y45098D01*
X97473Y45086D01*
X97471Y45077D01*
X97469Y45073D01*
Y45071D01*
X97448Y45017D01*
X97425Y44968D01*
X97401Y44924D01*
X97378Y44886D01*
X97357Y44857D01*
X97349Y44844D01*
X97341Y44834D01*
X97334Y44825D01*
X97330Y44819D01*
X97326Y44817D01*
Y44815D01*
X97290Y44777D01*
X97252Y44743D01*
X97212Y44716D01*
X97177Y44693D01*
X97148Y44674D01*
X97133Y44668D01*
X97122Y44662D01*
X97112Y44657D01*
X97105Y44653D01*
X97101Y44651D01*
X97099D01*
X97047Y44632D01*
X96994Y44618D01*
X96944Y44609D01*
X96895Y44601D01*
X96874Y44599D01*
X96853Y44596D01*
X96837D01*
X96822Y44594D01*
X96793D01*
X96749Y44596D01*
X96709Y44599D01*
X96669Y44603D01*
X96631Y44611D01*
X96597Y44618D01*
X96566Y44626D01*
X96536Y44636D01*
X96509Y44645D01*
X96486Y44655D01*
X96465Y44664D01*
X96446Y44672D01*
X96431Y44681D01*
X96419Y44687D01*
X96410Y44691D01*
X96406Y44693D01*
X96404Y44695D01*
X96351Y44735D01*
X96305Y44779D01*
X96268Y44823D01*
X96236Y44865D01*
X96213Y44901D01*
X96205Y44918D01*
X96196Y44930D01*
X96190Y44943D01*
X96188Y44951D01*
X96184Y44956D01*
Y44958D01*
X96385Y45092D01*
X96410Y45048D01*
X96436Y45010D01*
X96461Y44977D01*
X96486Y44949D01*
X96509Y44928D01*
X96526Y44912D01*
X96539Y44903D01*
X96540Y44899D01*
X96543D01*
X96580Y44876D01*
X96623Y44859D01*
X96664Y44846D01*
X96702Y44838D01*
X96738Y44834D01*
X96753Y44832D01*
X96765D01*
X96776Y44830D01*
X96790D01*
X96828Y44832D01*
X96864Y44836D01*
X96898Y44840D01*
X96927Y44848D01*
X96956Y44859D01*
X96984Y44870D01*
X97007Y44880D01*
X97028Y44893D01*
X97047Y44903D01*
X97063Y44914D01*
X97078Y44924D01*
X97089Y44935D01*
X97097Y44943D01*
X97103Y44947D01*
X97108Y44951D01*
X97110Y44954D01*
X97128Y44979D01*
X97145Y45004D01*
X97160Y45029D01*
X97173Y45056D01*
X97192Y45111D01*
X97204Y45161D01*
X97211Y45184D01*
X97212Y45206D01*
X97215Y45226D01*
X97217Y45243D01*
X97219Y45256D01*
Y45266D01*
Y45273D01*
Y45275D01*
Y45542D01*
X97217Y45577D01*
X97215Y45611D01*
X97202Y45674D01*
X97194Y45703D01*
X97185Y45728D01*
X97175Y45754D01*
X97164Y45775D01*
X97154Y45796D01*
X97143Y45812D01*
X97135Y45827D01*
X97126Y45840D01*
X97120Y45850D01*
X97114Y45856D01*
X97112Y45861D01*
X97110Y45863D01*
X97089Y45886D01*
X97063Y45905D01*
X97040Y45922D01*
X97013Y45936D01*
X96988Y45949D01*
X96963Y45957D01*
X96912Y45974D01*
X96887Y45978D01*
X96866Y45983D01*
X96847Y45985D01*
X96830Y45987D01*
X96816Y45989D01*
X96797D01*
X96746Y45987D01*
X96700Y45978D01*
X96660Y45968D01*
X96624Y45955D01*
X96597Y45943D01*
X96578Y45932D01*
X96566Y45924D01*
X96561Y45922D01*
X96530Y45894D01*
X96501Y45865D01*
X96478Y45836D01*
X96459Y45806D01*
X96446Y45781D01*
X96436Y45760D01*
X96431Y45752D01*
X96429Y45745D01*
X96427Y45743D01*
Y45741D01*
X96207Y45861D01*
X96236Y45919D01*
X96270Y45970D01*
X96305Y46016D01*
X96339Y46054D01*
X96371Y46083D01*
X96385Y46096D01*
X96398Y46104D01*
X96406Y46113D01*
X96415Y46119D01*
X96419Y46121D01*
X96421Y46123D01*
X96448Y46140D01*
X96478Y46157D01*
X96540Y46182D01*
X96601Y46199D01*
X96662Y46211D01*
X96690Y46216D01*
X96715Y46220D01*
X96738Y46222D01*
X96759D01*
X96774Y46224D01*
X96797D01*
X96858Y46222D01*
D02*
G37*
G36*
X87849D02*
X87903Y46216D01*
X87954Y46205D01*
X87996Y46195D01*
X88017Y46188D01*
X88033Y46184D01*
X88048Y46180D01*
X88061Y46174D01*
X88071Y46172D01*
X88077Y46167D01*
X88082Y46165D01*
X88084D01*
X88132Y46142D01*
X88174Y46115D01*
X88214Y46088D01*
X88248Y46062D01*
X88273Y46039D01*
X88294Y46018D01*
X88306Y46006D01*
X88309Y46003D01*
X88311Y46001D01*
X88344Y45959D01*
X88374Y45915D01*
X88399Y45873D01*
X88420Y45831D01*
X88437Y45798D01*
X88445Y45781D01*
X88449Y45768D01*
X88453Y45758D01*
X88458Y45749D01*
X88460Y45745D01*
Y45743D01*
X88477Y45684D01*
X88489Y45628D01*
X88500Y45569D01*
X88506Y45518D01*
X88508Y45493D01*
X88510Y45472D01*
Y45453D01*
X88512Y45436D01*
Y45424D01*
Y45413D01*
Y45407D01*
Y45405D01*
X88510Y45338D01*
X88504Y45273D01*
X88495Y45216D01*
X88491Y45191D01*
X88487Y45168D01*
X88483Y45145D01*
X88479Y45126D01*
X88475Y45109D01*
X88470Y45096D01*
X88466Y45084D01*
X88464Y45075D01*
X88462Y45071D01*
Y45069D01*
X88441Y45014D01*
X88416Y44966D01*
X88393Y44922D01*
X88369Y44884D01*
X88349Y44855D01*
X88338Y44842D01*
X88329Y44832D01*
X88323Y44823D01*
X88319Y44817D01*
X88315Y44815D01*
Y44813D01*
X88277Y44775D01*
X88237Y44743D01*
X88197Y44716D01*
X88161Y44693D01*
X88128Y44674D01*
X88115Y44668D01*
X88103Y44662D01*
X88092Y44657D01*
X88086Y44653D01*
X88082Y44651D01*
X88080D01*
X88027Y44632D01*
X87973Y44618D01*
X87920Y44609D01*
X87872Y44601D01*
X87851Y44599D01*
X87830Y44596D01*
X87813D01*
X87798Y44594D01*
X87769D01*
X87725Y44596D01*
X87685Y44599D01*
X87645Y44603D01*
X87607Y44609D01*
X87574Y44615D01*
X87540Y44624D01*
X87511Y44632D01*
X87481Y44643D01*
X87458Y44651D01*
X87435Y44660D01*
X87416Y44668D01*
X87401Y44674D01*
X87389Y44681D01*
X87378Y44685D01*
X87374Y44689D01*
X87372D01*
X87315Y44727D01*
X87267Y44769D01*
X87225Y44811D01*
X87193Y44848D01*
X87166Y44884D01*
X87158Y44899D01*
X87149Y44912D01*
X87143Y44922D01*
X87139Y44930D01*
X87135Y44935D01*
Y44937D01*
X87326Y45086D01*
X87351Y45044D01*
X87380Y45006D01*
X87408Y44972D01*
X87437Y44945D01*
X87462Y44924D01*
X87481Y44909D01*
X87489Y44903D01*
X87496Y44901D01*
X87498Y44897D01*
X87500D01*
X87544Y44874D01*
X87588Y44859D01*
X87632Y44846D01*
X87674Y44838D01*
X87712Y44834D01*
X87727Y44832D01*
X87742D01*
X87752Y44830D01*
X87767D01*
X87807Y44832D01*
X87842Y44836D01*
X87878Y44840D01*
X87910Y44848D01*
X87939Y44859D01*
X87966Y44870D01*
X87991Y44880D01*
X88015Y44893D01*
X88036Y44903D01*
X88052Y44914D01*
X88067Y44924D01*
X88080Y44935D01*
X88090Y44943D01*
X88096Y44947D01*
X88101Y44951D01*
X88103Y44954D01*
X88124Y44979D01*
X88143Y45004D01*
X88157Y45029D01*
X88172Y45056D01*
X88183Y45084D01*
X88193Y45111D01*
X88208Y45161D01*
X88212Y45184D01*
X88216Y45206D01*
X88218Y45226D01*
X88220Y45243D01*
X88222Y45256D01*
Y45266D01*
Y45273D01*
Y45275D01*
Y45340D01*
X87086D01*
Y45458D01*
X87089Y45518D01*
X87095Y45577D01*
X87103Y45630D01*
X87112Y45676D01*
X87116Y45695D01*
X87120Y45714D01*
X87124Y45728D01*
X87128Y45741D01*
X87133Y45752D01*
X87135Y45760D01*
X87137Y45764D01*
Y45766D01*
X87158Y45817D01*
X87181Y45863D01*
X87204Y45905D01*
X87227Y45941D01*
X87248Y45968D01*
X87265Y45989D01*
X87271Y45997D01*
X87275Y46003D01*
X87277Y46006D01*
X87279Y46008D01*
X87315Y46043D01*
X87353Y46077D01*
X87389Y46104D01*
X87424Y46125D01*
X87454Y46144D01*
X87479Y46157D01*
X87488Y46161D01*
X87494Y46165D01*
X87498Y46167D01*
X87500D01*
X87550Y46186D01*
X87601Y46201D01*
X87649Y46209D01*
X87693Y46218D01*
X87733Y46222D01*
X87748D01*
X87762Y46224D01*
X87790D01*
X87849Y46222D01*
D02*
G37*
G36*
X122837Y44630D02*
X122543D01*
Y45500D01*
X122060D01*
X122005Y45502D01*
X121955Y45506D01*
X121906Y45514D01*
X121862Y45525D01*
X121823Y45537D01*
X121785Y45550D01*
X121751Y45565D01*
X121722Y45581D01*
X121694Y45596D01*
X121671Y45611D01*
X121650Y45623D01*
X121635Y45636D01*
X121623Y45647D01*
X121612Y45655D01*
X121608Y45659D01*
X121606Y45661D01*
X121579Y45693D01*
X121556Y45728D01*
X121535Y45764D01*
X121516Y45802D01*
X121501Y45840D01*
X121489Y45878D01*
X121478Y45915D01*
X121470Y45951D01*
X121463Y45985D01*
X121459Y46016D01*
X121455Y46043D01*
X121453Y46069D01*
X121451Y46090D01*
Y46104D01*
Y46113D01*
Y46117D01*
X121453Y46169D01*
X121457Y46220D01*
X121466Y46268D01*
X121476Y46312D01*
X121486Y46352D01*
X121499Y46390D01*
X121514Y46424D01*
X121528Y46455D01*
X121543Y46482D01*
X121558Y46505D01*
X121571Y46526D01*
X121581Y46543D01*
X121591Y46556D01*
X121600Y46564D01*
X121604Y46571D01*
X121606Y46573D01*
X121638Y46602D01*
X121669Y46627D01*
X121705Y46648D01*
X121743Y46667D01*
X121780Y46684D01*
X121818Y46696D01*
X121856Y46707D01*
X121892Y46715D01*
X121925Y46722D01*
X121957Y46728D01*
X121986Y46732D01*
X122011Y46734D01*
X122030Y46736D01*
X122837D01*
Y44630D01*
D02*
G37*
G36*
X118845Y46335D02*
X118847Y46306D01*
X118851Y46281D01*
X118855Y46262D01*
X118861Y46245D01*
X118870Y46232D01*
X118874Y46224D01*
X118878Y46220D01*
X118880Y46218D01*
X118895Y46207D01*
X118912Y46199D01*
X118931Y46195D01*
X118950Y46190D01*
X118969Y46188D01*
X118983Y46186D01*
X119357D01*
Y45953D01*
X118859D01*
Y45002D01*
X118857Y44972D01*
X118855Y44943D01*
X118845Y44890D01*
X118830Y44844D01*
X118813Y44807D01*
X118798Y44775D01*
X118790Y44762D01*
X118784Y44752D01*
X118777Y44743D01*
X118773Y44737D01*
X118769Y44735D01*
Y44733D01*
X118750Y44714D01*
X118731Y44699D01*
X118710Y44685D01*
X118687Y44674D01*
X118641Y44655D01*
X118595Y44643D01*
X118553Y44636D01*
X118534Y44634D01*
X118519Y44632D01*
X118507Y44630D01*
X117887D01*
Y44863D01*
X118578D01*
Y45953D01*
X117887D01*
Y46186D01*
X118578D01*
Y46736D01*
X118845D01*
Y46335D01*
D02*
G37*
G36*
X114907Y46220D02*
X114937Y46216D01*
X114962Y46211D01*
X114981Y46207D01*
X114997Y46203D01*
X115006Y46201D01*
X115010Y46199D01*
X115035Y46188D01*
X115060Y46178D01*
X115081Y46167D01*
X115100Y46157D01*
X115115Y46146D01*
X115126Y46138D01*
X115134Y46134D01*
X115136Y46132D01*
X115172Y46100D01*
X115189Y46083D01*
X115201Y46069D01*
X115212Y46056D01*
X115220Y46046D01*
X115224Y46039D01*
X115226Y46037D01*
X115252Y45997D01*
X115262Y45978D01*
X115270Y45961D01*
X115277Y45947D01*
X115283Y45936D01*
X115285Y45928D01*
X115287Y45926D01*
X115300D01*
Y46186D01*
X115579D01*
Y44630D01*
X115300D01*
Y45697D01*
X115298Y45724D01*
X115296Y45747D01*
X115289Y45768D01*
X115283Y45787D01*
X115279Y45802D01*
X115273Y45814D01*
X115270Y45821D01*
X115268Y45823D01*
X115256Y45842D01*
X115243Y45861D01*
X115228Y45875D01*
X115216Y45888D01*
X115203Y45899D01*
X115195Y45907D01*
X115189Y45911D01*
X115186Y45913D01*
X115147Y45938D01*
X115126Y45947D01*
X115109Y45955D01*
X115092Y45961D01*
X115079Y45966D01*
X115071Y45968D01*
X115069D01*
X115021Y45978D01*
X114997Y45980D01*
X114976Y45983D01*
X114960Y45985D01*
X114934D01*
X114903Y45983D01*
X114874Y45980D01*
X114821Y45968D01*
X114773Y45947D01*
X114735Y45922D01*
X114701Y45892D01*
X114672Y45856D01*
X114649Y45821D01*
X114632Y45783D01*
X114617Y45745D01*
X114607Y45709D01*
X114599Y45676D01*
X114594Y45644D01*
X114590Y45619D01*
X114588Y45598D01*
Y45586D01*
Y45584D01*
Y45581D01*
Y44630D01*
X114306D01*
Y45632D01*
X114309Y45684D01*
X114313Y45733D01*
X114319Y45777D01*
X114330Y45819D01*
X114340Y45859D01*
X114353Y45894D01*
X114365Y45928D01*
X114380Y45957D01*
X114393Y45983D01*
X114407Y46006D01*
X114420Y46025D01*
X114430Y46041D01*
X114441Y46052D01*
X114447Y46062D01*
X114451Y46066D01*
X114453Y46069D01*
X114481Y46096D01*
X114512Y46119D01*
X114544Y46140D01*
X114575Y46159D01*
X114607Y46174D01*
X114640Y46186D01*
X114670Y46197D01*
X114701Y46205D01*
X114729Y46211D01*
X114756Y46216D01*
X114779Y46220D01*
X114800Y46222D01*
X114817Y46224D01*
X114876D01*
X114907Y46220D01*
D02*
G37*
G36*
X113414Y46335D02*
X113416Y46306D01*
X113420Y46281D01*
X113425Y46262D01*
X113431Y46245D01*
X113439Y46232D01*
X113444Y46224D01*
X113448Y46220D01*
X113450Y46218D01*
X113464Y46207D01*
X113481Y46199D01*
X113500Y46195D01*
X113519Y46190D01*
X113538Y46188D01*
X113553Y46186D01*
X113926D01*
Y45953D01*
X113429D01*
Y45002D01*
X113427Y44972D01*
X113425Y44943D01*
X113414Y44890D01*
X113399Y44844D01*
X113382Y44807D01*
X113368Y44775D01*
X113359Y44762D01*
X113353Y44752D01*
X113347Y44743D01*
X113343Y44737D01*
X113338Y44735D01*
Y44733D01*
X113320Y44714D01*
X113301Y44699D01*
X113280Y44685D01*
X113257Y44674D01*
X113210Y44655D01*
X113164Y44643D01*
X113122Y44636D01*
X113103Y44634D01*
X113089Y44632D01*
X113076Y44630D01*
X112456D01*
Y44863D01*
X113147D01*
Y45953D01*
X112456D01*
Y46186D01*
X113147D01*
Y46736D01*
X113414D01*
Y46335D01*
D02*
G37*
G36*
X111923Y45953D02*
X111377D01*
Y44863D01*
X111923D01*
Y44630D01*
X110583D01*
Y44863D01*
X111096D01*
Y46186D01*
X111923D01*
Y45953D01*
D02*
G37*
G36*
X104363Y46335D02*
X104365Y46306D01*
X104369Y46281D01*
X104374Y46262D01*
X104380Y46245D01*
X104388Y46232D01*
X104393Y46224D01*
X104397Y46220D01*
X104399Y46218D01*
X104413Y46207D01*
X104430Y46199D01*
X104449Y46195D01*
X104468Y46190D01*
X104487Y46188D01*
X104502Y46186D01*
X104876D01*
Y45953D01*
X104378D01*
Y45002D01*
X104376Y44972D01*
X104374Y44943D01*
X104363Y44890D01*
X104348Y44844D01*
X104332Y44807D01*
X104317Y44775D01*
X104308Y44762D01*
X104302Y44752D01*
X104296Y44743D01*
X104292Y44737D01*
X104287Y44735D01*
Y44733D01*
X104269Y44714D01*
X104250Y44699D01*
X104229Y44685D01*
X104206Y44674D01*
X104159Y44655D01*
X104113Y44643D01*
X104071Y44636D01*
X104052Y44634D01*
X104038Y44632D01*
X104025Y44630D01*
X103405D01*
Y44863D01*
X104096D01*
Y45953D01*
X103405D01*
Y46186D01*
X104096D01*
Y46736D01*
X104363D01*
Y46335D01*
D02*
G37*
G36*
X90201Y45953D02*
X89655D01*
Y44863D01*
X90201D01*
Y44630D01*
X88861D01*
Y44863D01*
X89373D01*
Y46186D01*
X90201D01*
Y45953D01*
D02*
G37*
G36*
X120443Y46222D02*
X120501Y46216D01*
X120552Y46205D01*
X120596Y46195D01*
X120617Y46188D01*
X120634Y46184D01*
X120649Y46180D01*
X120661Y46174D01*
X120672Y46172D01*
X120678Y46167D01*
X120682Y46165D01*
X120684D01*
X120732Y46142D01*
X120774Y46115D01*
X120815Y46088D01*
X120848Y46062D01*
X120873Y46039D01*
X120894Y46018D01*
X120907Y46006D01*
X120909Y46003D01*
X120911Y46001D01*
X120945Y45959D01*
X120974Y45917D01*
X120999Y45873D01*
X121018Y45833D01*
X121035Y45798D01*
X121041Y45783D01*
X121048Y45770D01*
X121050Y45760D01*
X121054Y45752D01*
X121056Y45747D01*
Y45745D01*
X121073Y45689D01*
X121083Y45630D01*
X121092Y45573D01*
X121098Y45520D01*
X121100Y45497D01*
X121102Y45476D01*
Y45458D01*
X121104Y45441D01*
Y45428D01*
Y45418D01*
Y45411D01*
Y45409D01*
X121102Y45340D01*
X121096Y45277D01*
X121090Y45218D01*
X121085Y45193D01*
X121079Y45168D01*
X121075Y45147D01*
X121071Y45128D01*
X121066Y45109D01*
X121064Y45096D01*
X121060Y45084D01*
X121058Y45075D01*
X121056Y45071D01*
Y45069D01*
X121035Y45014D01*
X121012Y44966D01*
X120989Y44922D01*
X120964Y44884D01*
X120943Y44855D01*
X120934Y44842D01*
X120926Y44832D01*
X120920Y44823D01*
X120915Y44817D01*
X120911Y44815D01*
Y44813D01*
X120873Y44775D01*
X120835Y44743D01*
X120798Y44716D01*
X120762Y44693D01*
X120730Y44674D01*
X120718Y44668D01*
X120707Y44662D01*
X120697Y44657D01*
X120691Y44653D01*
X120686Y44651D01*
X120684D01*
X120634Y44632D01*
X120581Y44618D01*
X120531Y44609D01*
X120483Y44601D01*
X120462Y44599D01*
X120443Y44596D01*
X120426D01*
X120411Y44594D01*
X120382D01*
X120321Y44596D01*
X120264Y44603D01*
X120214Y44613D01*
X120170Y44624D01*
X120151Y44628D01*
X120134Y44632D01*
X120119Y44638D01*
X120107Y44643D01*
X120096Y44647D01*
X120090Y44649D01*
X120086Y44651D01*
X120084D01*
X120035Y44674D01*
X119991Y44699D01*
X119951Y44727D01*
X119918Y44754D01*
X119893Y44777D01*
X119872Y44796D01*
X119859Y44809D01*
X119855Y44811D01*
Y44813D01*
X119821Y44855D01*
X119792Y44899D01*
X119769Y44941D01*
X119748Y44981D01*
X119733Y45017D01*
X119727Y45031D01*
X119720Y45044D01*
X119716Y45054D01*
X119714Y45063D01*
X119712Y45067D01*
Y45069D01*
X119695Y45128D01*
X119683Y45187D01*
X119674Y45243D01*
X119668Y45296D01*
X119666Y45319D01*
X119664Y45342D01*
Y45361D01*
X119662Y45378D01*
Y45390D01*
Y45401D01*
Y45407D01*
Y45409D01*
X119664Y45476D01*
X119670Y45542D01*
X119678Y45598D01*
X119683Y45623D01*
X119687Y45647D01*
X119691Y45670D01*
X119695Y45689D01*
X119699Y45705D01*
X119703Y45720D01*
X119708Y45731D01*
X119710Y45739D01*
X119712Y45743D01*
Y45745D01*
X119731Y45800D01*
X119754Y45848D01*
X119779Y45892D01*
X119802Y45930D01*
X119823Y45959D01*
X119832Y45972D01*
X119840Y45983D01*
X119846Y45991D01*
X119851Y45997D01*
X119853Y45999D01*
X119855Y46001D01*
X119893Y46039D01*
X119930Y46073D01*
X119968Y46100D01*
X120004Y46123D01*
X120035Y46142D01*
X120050Y46148D01*
X120061Y46155D01*
X120071Y46159D01*
X120077Y46163D01*
X120081Y46165D01*
X120084D01*
X120134Y46184D01*
X120187Y46199D01*
X120237Y46209D01*
X120283Y46218D01*
X120304Y46220D01*
X120323Y46222D01*
X120340D01*
X120354Y46224D01*
X120382D01*
X120443Y46222D01*
D02*
G37*
G36*
X109581D02*
X109640Y46216D01*
X109691Y46205D01*
X109735Y46195D01*
X109756Y46188D01*
X109773Y46184D01*
X109787Y46180D01*
X109800Y46174D01*
X109810Y46172D01*
X109817Y46167D01*
X109821Y46165D01*
X109823D01*
X109871Y46142D01*
X109913Y46115D01*
X109953Y46088D01*
X109987Y46062D01*
X110012Y46039D01*
X110033Y46018D01*
X110046Y46006D01*
X110048Y46003D01*
X110050Y46001D01*
X110083Y45959D01*
X110113Y45917D01*
X110138Y45873D01*
X110157Y45833D01*
X110174Y45798D01*
X110180Y45783D01*
X110186Y45770D01*
X110188Y45760D01*
X110193Y45752D01*
X110195Y45747D01*
Y45745D01*
X110212Y45689D01*
X110222Y45630D01*
X110230Y45573D01*
X110237Y45520D01*
X110239Y45497D01*
X110241Y45476D01*
Y45458D01*
X110243Y45441D01*
Y45428D01*
Y45418D01*
Y45411D01*
Y45409D01*
X110241Y45340D01*
X110235Y45277D01*
X110228Y45218D01*
X110224Y45193D01*
X110218Y45168D01*
X110214Y45147D01*
X110209Y45128D01*
X110205Y45109D01*
X110203Y45096D01*
X110199Y45084D01*
X110197Y45075D01*
X110195Y45071D01*
Y45069D01*
X110174Y45014D01*
X110151Y44966D01*
X110127Y44922D01*
X110102Y44884D01*
X110081Y44855D01*
X110073Y44842D01*
X110065Y44832D01*
X110058Y44823D01*
X110054Y44817D01*
X110050Y44815D01*
Y44813D01*
X110012Y44775D01*
X109974Y44743D01*
X109936Y44716D01*
X109901Y44693D01*
X109869Y44674D01*
X109857Y44668D01*
X109846Y44662D01*
X109836Y44657D01*
X109829Y44653D01*
X109825Y44651D01*
X109823D01*
X109773Y44632D01*
X109720Y44618D01*
X109670Y44609D01*
X109622Y44601D01*
X109600Y44599D01*
X109581Y44596D01*
X109565D01*
X109550Y44594D01*
X109521D01*
X109460Y44596D01*
X109403Y44603D01*
X109353Y44613D01*
X109309Y44624D01*
X109290Y44628D01*
X109273Y44632D01*
X109258Y44638D01*
X109246Y44643D01*
X109235Y44647D01*
X109229Y44649D01*
X109224Y44651D01*
X109222D01*
X109174Y44674D01*
X109130Y44699D01*
X109090Y44727D01*
X109056Y44754D01*
X109031Y44777D01*
X109010Y44796D01*
X108998Y44809D01*
X108994Y44811D01*
Y44813D01*
X108960Y44855D01*
X108931Y44899D01*
X108907Y44941D01*
X108886Y44981D01*
X108872Y45017D01*
X108865Y45031D01*
X108859Y45044D01*
X108855Y45054D01*
X108853Y45063D01*
X108851Y45067D01*
Y45069D01*
X108834Y45128D01*
X108821Y45187D01*
X108813Y45243D01*
X108807Y45296D01*
X108805Y45319D01*
X108802Y45342D01*
Y45361D01*
X108800Y45378D01*
Y45390D01*
Y45401D01*
Y45407D01*
Y45409D01*
X108802Y45476D01*
X108809Y45542D01*
X108817Y45598D01*
X108821Y45623D01*
X108826Y45647D01*
X108830Y45670D01*
X108834Y45689D01*
X108838Y45705D01*
X108842Y45720D01*
X108847Y45731D01*
X108849Y45739D01*
X108851Y45743D01*
Y45745D01*
X108870Y45800D01*
X108893Y45848D01*
X108918Y45892D01*
X108941Y45930D01*
X108962Y45959D01*
X108970Y45972D01*
X108979Y45983D01*
X108985Y45991D01*
X108989Y45997D01*
X108992Y45999D01*
X108994Y46001D01*
X109031Y46039D01*
X109069Y46073D01*
X109107Y46100D01*
X109143Y46123D01*
X109174Y46142D01*
X109189Y46148D01*
X109199Y46155D01*
X109210Y46159D01*
X109216Y46163D01*
X109220Y46165D01*
X109222D01*
X109273Y46184D01*
X109325Y46199D01*
X109376Y46209D01*
X109422Y46218D01*
X109443Y46220D01*
X109462Y46222D01*
X109479D01*
X109493Y46224D01*
X109521D01*
X109581Y46222D01*
D02*
G37*
G36*
X110144Y41941D02*
X109865D01*
Y43008D01*
X109863Y43035D01*
X109861Y43058D01*
X109854Y43079D01*
X109848Y43098D01*
X109844Y43113D01*
X109838Y43125D01*
X109836Y43132D01*
X109834Y43134D01*
X109821Y43153D01*
X109808Y43172D01*
X109794Y43186D01*
X109781Y43199D01*
X109768Y43209D01*
X109760Y43218D01*
X109754Y43222D01*
X109752Y43224D01*
X109712Y43249D01*
X109691Y43258D01*
X109674Y43266D01*
X109657Y43272D01*
X109645Y43277D01*
X109636Y43279D01*
X109634D01*
X109586Y43289D01*
X109563Y43291D01*
X109542Y43293D01*
X109525Y43295D01*
X109500D01*
X109468Y43293D01*
X109439Y43291D01*
X109386Y43279D01*
X109338Y43258D01*
X109300Y43232D01*
X109267Y43203D01*
X109237Y43167D01*
X109214Y43132D01*
X109197Y43094D01*
X109183Y43056D01*
X109172Y43020D01*
X109164Y42987D01*
X109159Y42955D01*
X109155Y42930D01*
X109153Y42909D01*
Y42896D01*
Y42894D01*
Y42892D01*
Y41941D01*
X108872D01*
Y42943D01*
X108874Y42995D01*
X108878Y43043D01*
X108884Y43088D01*
X108895Y43130D01*
X108905Y43169D01*
X108918Y43205D01*
X108931Y43239D01*
X108945Y43268D01*
X108958Y43293D01*
X108973Y43316D01*
X108985Y43335D01*
X108996Y43352D01*
X109006Y43363D01*
X109012Y43373D01*
X109017Y43377D01*
X109019Y43379D01*
X109046Y43407D01*
X109078Y43430D01*
X109109Y43451D01*
X109141Y43470D01*
X109172Y43484D01*
X109206Y43497D01*
X109235Y43508D01*
X109267Y43516D01*
X109294Y43522D01*
X109321Y43526D01*
X109344Y43531D01*
X109365Y43533D01*
X109382Y43535D01*
X109441D01*
X109472Y43531D01*
X109502Y43526D01*
X109527Y43522D01*
X109546Y43518D01*
X109563Y43514D01*
X109571Y43512D01*
X109575Y43510D01*
X109600Y43499D01*
X109626Y43489D01*
X109647Y43478D01*
X109666Y43468D01*
X109680Y43457D01*
X109691Y43449D01*
X109699Y43444D01*
X109701Y43442D01*
X109737Y43411D01*
X109754Y43394D01*
X109766Y43379D01*
X109777Y43367D01*
X109785Y43356D01*
X109790Y43350D01*
X109792Y43348D01*
X109817Y43308D01*
X109827Y43289D01*
X109836Y43272D01*
X109842Y43258D01*
X109848Y43247D01*
X109850Y43239D01*
X109852Y43237D01*
X109865D01*
Y44173D01*
X110144D01*
Y41941D01*
D02*
G37*
G36*
X99283D02*
X99004D01*
Y43008D01*
X99002Y43035D01*
X99000Y43058D01*
X98993Y43079D01*
X98987Y43098D01*
X98983Y43113D01*
X98976Y43125D01*
X98975Y43132D01*
X98972Y43134D01*
X98960Y43153D01*
X98947Y43172D01*
X98932Y43186D01*
X98920Y43199D01*
X98907Y43209D01*
X98899Y43218D01*
X98893Y43222D01*
X98890Y43224D01*
X98851Y43249D01*
X98830Y43258D01*
X98813Y43266D01*
X98796Y43272D01*
X98783Y43277D01*
X98775Y43279D01*
X98773D01*
X98725Y43289D01*
X98701Y43291D01*
X98680Y43293D01*
X98664Y43295D01*
X98638D01*
X98607Y43293D01*
X98577Y43291D01*
X98525Y43279D01*
X98477Y43258D01*
X98439Y43232D01*
X98405Y43203D01*
X98376Y43167D01*
X98353Y43132D01*
X98336Y43094D01*
X98321Y43056D01*
X98311Y43020D01*
X98302Y42987D01*
X98298Y42955D01*
X98294Y42930D01*
X98292Y42909D01*
Y42896D01*
Y42894D01*
Y42892D01*
Y41941D01*
X98011D01*
Y42943D01*
X98013Y42995D01*
X98017Y43043D01*
X98023Y43088D01*
X98034Y43130D01*
X98044Y43169D01*
X98057Y43205D01*
X98069Y43239D01*
X98084Y43268D01*
X98097Y43293D01*
X98111Y43316D01*
X98124Y43335D01*
X98134Y43352D01*
X98145Y43363D01*
X98151Y43373D01*
X98155Y43377D01*
X98158Y43379D01*
X98185Y43407D01*
X98216Y43430D01*
X98248Y43451D01*
X98279Y43470D01*
X98311Y43484D01*
X98344Y43497D01*
X98374Y43508D01*
X98405Y43516D01*
X98433Y43522D01*
X98460Y43526D01*
X98483Y43531D01*
X98504Y43533D01*
X98521Y43535D01*
X98580D01*
X98611Y43531D01*
X98641Y43526D01*
X98666Y43522D01*
X98685Y43518D01*
X98701Y43514D01*
X98710Y43512D01*
X98714Y43510D01*
X98739Y43499D01*
X98764Y43489D01*
X98786Y43478D01*
X98804Y43468D01*
X98819Y43457D01*
X98830Y43449D01*
X98838Y43444D01*
X98840Y43442D01*
X98876Y43411D01*
X98893Y43394D01*
X98905Y43379D01*
X98916Y43367D01*
X98924Y43356D01*
X98928Y43350D01*
X98930Y43348D01*
X98956Y43308D01*
X98966Y43289D01*
X98975Y43272D01*
X98981Y43258D01*
X98987Y43247D01*
X98989Y43239D01*
X98991Y43237D01*
X99004D01*
Y44173D01*
X99283D01*
Y41941D01*
D02*
G37*
G36*
X100472Y44081D02*
X100539Y44070D01*
X100602Y44058D01*
X100659Y44039D01*
X100711Y44018D01*
X100759Y43993D01*
X100803Y43967D01*
X100841Y43942D01*
X100877Y43915D01*
X100906Y43890D01*
X100932Y43865D01*
X100953Y43843D01*
X100967Y43825D01*
X100980Y43812D01*
X100986Y43804D01*
X100988Y43799D01*
X101022Y43745D01*
X101051Y43684D01*
X101076Y43621D01*
X101100Y43556D01*
X101116Y43489D01*
X101133Y43421D01*
X101146Y43354D01*
X101156Y43291D01*
X101163Y43230D01*
X101169Y43174D01*
X101173Y43123D01*
X101177Y43079D01*
Y43060D01*
Y43043D01*
X101179Y43029D01*
Y43016D01*
Y43006D01*
Y42999D01*
Y42995D01*
Y42993D01*
X101177Y42898D01*
X101171Y42808D01*
X101163Y42724D01*
X101150Y42647D01*
X101135Y42573D01*
X101119Y42508D01*
X101102Y42447D01*
X101083Y42392D01*
X101066Y42344D01*
X101049Y42304D01*
X101032Y42268D01*
X101018Y42239D01*
X101005Y42216D01*
X100997Y42199D01*
X100990Y42191D01*
X100988Y42187D01*
X100951Y42136D01*
X100909Y42094D01*
X100862Y42056D01*
X100814Y42025D01*
X100766Y41998D01*
X100717Y41974D01*
X100669Y41956D01*
X100621Y41941D01*
X100577Y41928D01*
X100535Y41920D01*
X100497Y41914D01*
X100465Y41909D01*
X100438Y41907D01*
X100417Y41905D01*
X100400D01*
X100346Y41907D01*
X100297Y41912D01*
X100253Y41918D01*
X100215Y41926D01*
X100186Y41932D01*
X100174Y41937D01*
X100163Y41939D01*
X100155Y41941D01*
X100148Y41943D01*
X100146Y41945D01*
X100144D01*
X100104Y41962D01*
X100069Y41979D01*
X100037Y41998D01*
X100010Y42014D01*
X99987Y42029D01*
X99972Y42042D01*
X99962Y42050D01*
X99957Y42052D01*
X99928Y42079D01*
X99903Y42107D01*
X99879Y42132D01*
X99861Y42155D01*
X99846Y42176D01*
X99833Y42193D01*
X99827Y42203D01*
X99825Y42208D01*
X99787Y42275D01*
X99773Y42304D01*
X99758Y42334D01*
X99747Y42357D01*
X99739Y42376D01*
X99735Y42388D01*
X99733Y42392D01*
X99989Y42493D01*
X100010Y42443D01*
X100020Y42422D01*
X100029Y42401D01*
X100037Y42384D01*
X100043Y42371D01*
X100048Y42363D01*
X100050Y42361D01*
X100077Y42319D01*
X100090Y42300D01*
X100102Y42283D01*
X100115Y42271D01*
X100123Y42260D01*
X100129Y42254D01*
X100132Y42252D01*
X100169Y42220D01*
X100188Y42208D01*
X100205Y42197D01*
X100222Y42189D01*
X100234Y42182D01*
X100243Y42180D01*
X100245Y42178D01*
X100270Y42170D01*
X100297Y42164D01*
X100323Y42159D01*
X100348Y42157D01*
X100369Y42155D01*
X100388Y42153D01*
X100402D01*
X100444Y42155D01*
X100484Y42159D01*
X100520Y42168D01*
X100549Y42176D01*
X100575Y42184D01*
X100594Y42193D01*
X100604Y42197D01*
X100608Y42199D01*
X100640Y42218D01*
X100667Y42239D01*
X100692Y42262D01*
X100713Y42283D01*
X100730Y42302D01*
X100743Y42317D01*
X100751Y42327D01*
X100753Y42331D01*
X100772Y42365D01*
X100791Y42403D01*
X100806Y42437D01*
X100818Y42470D01*
X100827Y42500D01*
X100833Y42523D01*
X100835Y42531D01*
X100837Y42537D01*
X100839Y42542D01*
Y42544D01*
X100850Y42592D01*
X100856Y42638D01*
X100862Y42684D01*
X100864Y42728D01*
X100866Y42764D01*
X100869Y42781D01*
Y42794D01*
Y42804D01*
Y42812D01*
Y42817D01*
Y42819D01*
Y43167D01*
X100866Y43222D01*
X100864Y43274D01*
X100860Y43321D01*
X100854Y43363D01*
X100848Y43396D01*
X100846Y43409D01*
X100843Y43421D01*
X100841Y43430D01*
Y43436D01*
X100839Y43440D01*
Y43442D01*
X100827Y43486D01*
X100814Y43529D01*
X100799Y43564D01*
X100785Y43594D01*
X100772Y43619D01*
X100761Y43638D01*
X100755Y43648D01*
X100753Y43652D01*
X100730Y43684D01*
X100707Y43711D01*
X100682Y43734D01*
X100659Y43753D01*
X100640Y43768D01*
X100623Y43778D01*
X100612Y43785D01*
X100608Y43787D01*
X100575Y43804D01*
X100539Y43814D01*
X100505Y43823D01*
X100472Y43829D01*
X100444Y43833D01*
X100421Y43835D01*
X100402D01*
X100369Y43833D01*
X100339Y43831D01*
X100312Y43827D01*
X100289Y43823D01*
X100270Y43816D01*
X100255Y43812D01*
X100247Y43810D01*
X100245Y43808D01*
X100220Y43797D01*
X100199Y43785D01*
X100180Y43772D01*
X100163Y43760D01*
X100151Y43749D01*
X100140Y43741D01*
X100134Y43734D01*
X100132Y43732D01*
X100098Y43696D01*
X100085Y43678D01*
X100073Y43661D01*
X100062Y43646D01*
X100056Y43633D01*
X100052Y43625D01*
X100050Y43623D01*
X100027Y43577D01*
X100016Y43556D01*
X100006Y43535D01*
X99999Y43518D01*
X99993Y43505D01*
X99991Y43497D01*
X99989Y43493D01*
X99733Y43594D01*
X99747Y43629D01*
X99762Y43663D01*
X99779Y43694D01*
X99793Y43722D01*
X99806Y43745D01*
X99817Y43762D01*
X99823Y43772D01*
X99825Y43776D01*
X99846Y43808D01*
X99867Y43837D01*
X99890Y43865D01*
X99911Y43888D01*
X99930Y43907D01*
X99945Y43919D01*
X99953Y43930D01*
X99957Y43932D01*
X99987Y43957D01*
X100018Y43978D01*
X100050Y43997D01*
X100079Y44012D01*
X100106Y44024D01*
X100125Y44035D01*
X100134Y44037D01*
X100140Y44039D01*
X100142Y44041D01*
X100144D01*
X100186Y44056D01*
X100230Y44066D01*
X100272Y44072D01*
X100312Y44079D01*
X100348Y44081D01*
X100363D01*
X100375Y44083D01*
X100400D01*
X100472Y44081D01*
D02*
G37*
G36*
X120428Y43533D02*
X120483Y43526D01*
X120533Y43516D01*
X120575Y43505D01*
X120596Y43499D01*
X120613Y43495D01*
X120627Y43491D01*
X120640Y43484D01*
X120651Y43482D01*
X120657Y43478D01*
X120661Y43476D01*
X120663D01*
X120712Y43453D01*
X120754Y43426D01*
X120793Y43398D01*
X120827Y43373D01*
X120852Y43350D01*
X120873Y43329D01*
X120886Y43316D01*
X120888Y43314D01*
X120890Y43312D01*
X120924Y43270D01*
X120953Y43226D01*
X120978Y43184D01*
X120999Y43142D01*
X121016Y43108D01*
X121025Y43092D01*
X121029Y43079D01*
X121033Y43069D01*
X121037Y43060D01*
X121039Y43056D01*
Y43054D01*
X121056Y42995D01*
X121069Y42938D01*
X121079Y42880D01*
X121085Y42829D01*
X121087Y42804D01*
X121090Y42783D01*
Y42764D01*
X121092Y42747D01*
Y42735D01*
Y42724D01*
Y42718D01*
Y42716D01*
X121090Y42649D01*
X121083Y42584D01*
X121075Y42527D01*
X121071Y42502D01*
X121066Y42478D01*
X121062Y42455D01*
X121058Y42437D01*
X121054Y42420D01*
X121050Y42407D01*
X121045Y42395D01*
X121043Y42386D01*
X121041Y42382D01*
Y42380D01*
X121020Y42325D01*
X120995Y42277D01*
X120972Y42233D01*
X120949Y42195D01*
X120928Y42166D01*
X120917Y42153D01*
X120909Y42143D01*
X120903Y42134D01*
X120898Y42128D01*
X120894Y42126D01*
Y42124D01*
X120856Y42086D01*
X120817Y42054D01*
X120777Y42027D01*
X120741Y42004D01*
X120707Y41985D01*
X120695Y41979D01*
X120682Y41972D01*
X120672Y41968D01*
X120665Y41964D01*
X120661Y41962D01*
X120659D01*
X120607Y41943D01*
X120552Y41928D01*
X120500Y41920D01*
X120451Y41912D01*
X120430Y41909D01*
X120409Y41907D01*
X120392D01*
X120378Y41905D01*
X120348D01*
X120304Y41907D01*
X120264Y41909D01*
X120224Y41914D01*
X120187Y41920D01*
X120153Y41926D01*
X120119Y41935D01*
X120090Y41943D01*
X120061Y41954D01*
X120037Y41962D01*
X120014Y41970D01*
X119995Y41979D01*
X119981Y41985D01*
X119968Y41991D01*
X119958Y41995D01*
X119953Y42000D01*
X119951D01*
X119895Y42037D01*
X119846Y42079D01*
X119804Y42121D01*
X119773Y42159D01*
X119746Y42195D01*
X119737Y42210D01*
X119729Y42222D01*
X119722Y42233D01*
X119718Y42241D01*
X119714Y42245D01*
Y42248D01*
X119905Y42397D01*
X119930Y42355D01*
X119960Y42317D01*
X119987Y42283D01*
X120017Y42256D01*
X120042Y42235D01*
X120061Y42220D01*
X120069Y42214D01*
X120075Y42212D01*
X120077Y42208D01*
X120079D01*
X120124Y42184D01*
X120168Y42170D01*
X120212Y42157D01*
X120254Y42149D01*
X120292Y42145D01*
X120306Y42143D01*
X120321D01*
X120331Y42140D01*
X120346D01*
X120386Y42143D01*
X120422Y42147D01*
X120457Y42151D01*
X120489Y42159D01*
X120518Y42170D01*
X120546Y42180D01*
X120571Y42191D01*
X120594Y42203D01*
X120615Y42214D01*
X120632Y42224D01*
X120647Y42235D01*
X120659Y42245D01*
X120670Y42254D01*
X120676Y42258D01*
X120680Y42262D01*
X120682Y42264D01*
X120703Y42290D01*
X120722Y42315D01*
X120737Y42340D01*
X120751Y42367D01*
X120762Y42395D01*
X120773Y42422D01*
X120787Y42472D01*
X120791Y42495D01*
X120796Y42516D01*
X120798Y42537D01*
X120800Y42554D01*
X120802Y42567D01*
Y42577D01*
Y42584D01*
Y42586D01*
Y42651D01*
X119666D01*
Y42768D01*
X119668Y42829D01*
X119674Y42888D01*
X119683Y42941D01*
X119691Y42987D01*
X119695Y43006D01*
X119699Y43025D01*
X119703Y43039D01*
X119708Y43052D01*
X119712Y43062D01*
X119714Y43071D01*
X119716Y43075D01*
Y43077D01*
X119737Y43127D01*
X119760Y43174D01*
X119783Y43216D01*
X119806Y43251D01*
X119827Y43279D01*
X119844Y43300D01*
X119851Y43308D01*
X119855Y43314D01*
X119857Y43316D01*
X119859Y43319D01*
X119895Y43354D01*
X119932Y43388D01*
X119968Y43415D01*
X120004Y43436D01*
X120033Y43455D01*
X120058Y43468D01*
X120067Y43472D01*
X120073Y43476D01*
X120077Y43478D01*
X120079D01*
X120130Y43497D01*
X120180Y43512D01*
X120229Y43520D01*
X120273Y43529D01*
X120313Y43533D01*
X120327D01*
X120342Y43535D01*
X120369D01*
X120428Y43533D01*
D02*
G37*
G36*
X107757D02*
X107811Y43526D01*
X107862Y43516D01*
X107904Y43505D01*
X107925Y43499D01*
X107941Y43495D01*
X107956Y43491D01*
X107969Y43484D01*
X107979Y43482D01*
X107985Y43478D01*
X107990Y43476D01*
X107992D01*
X108040Y43453D01*
X108082Y43426D01*
X108122Y43398D01*
X108156Y43373D01*
X108181Y43350D01*
X108202Y43329D01*
X108214Y43316D01*
X108217Y43314D01*
X108219Y43312D01*
X108252Y43270D01*
X108282Y43226D01*
X108307Y43184D01*
X108328Y43142D01*
X108345Y43108D01*
X108353Y43092D01*
X108357Y43079D01*
X108361Y43069D01*
X108366Y43060D01*
X108368Y43056D01*
Y43054D01*
X108385Y42995D01*
X108397Y42938D01*
X108408Y42880D01*
X108414Y42829D01*
X108416Y42804D01*
X108418Y42783D01*
Y42764D01*
X108420Y42747D01*
Y42735D01*
Y42724D01*
Y42718D01*
Y42716D01*
X108418Y42649D01*
X108412Y42584D01*
X108403Y42527D01*
X108399Y42502D01*
X108395Y42478D01*
X108391Y42455D01*
X108387Y42437D01*
X108382Y42420D01*
X108378Y42407D01*
X108374Y42395D01*
X108372Y42386D01*
X108370Y42382D01*
Y42380D01*
X108349Y42325D01*
X108324Y42277D01*
X108300Y42233D01*
X108277Y42195D01*
X108256Y42166D01*
X108246Y42153D01*
X108238Y42143D01*
X108231Y42134D01*
X108227Y42128D01*
X108223Y42126D01*
Y42124D01*
X108185Y42086D01*
X108145Y42054D01*
X108105Y42027D01*
X108070Y42004D01*
X108036Y41985D01*
X108023Y41979D01*
X108011Y41972D01*
X108000Y41968D01*
X107994Y41964D01*
X107990Y41962D01*
X107988D01*
X107935Y41943D01*
X107880Y41928D01*
X107828Y41920D01*
X107780Y41912D01*
X107759Y41909D01*
X107738Y41907D01*
X107721D01*
X107706Y41905D01*
X107677D01*
X107633Y41907D01*
X107593Y41909D01*
X107553Y41914D01*
X107515Y41920D01*
X107482Y41926D01*
X107448Y41935D01*
X107419Y41943D01*
X107389Y41954D01*
X107366Y41962D01*
X107343Y41970D01*
X107324Y41979D01*
X107309Y41985D01*
X107297Y41991D01*
X107286Y41995D01*
X107282Y42000D01*
X107280D01*
X107223Y42037D01*
X107175Y42079D01*
X107133Y42121D01*
X107101Y42159D01*
X107074Y42195D01*
X107066Y42210D01*
X107057Y42222D01*
X107051Y42233D01*
X107047Y42241D01*
X107043Y42245D01*
Y42248D01*
X107234Y42397D01*
X107259Y42355D01*
X107288Y42317D01*
X107316Y42283D01*
X107345Y42256D01*
X107370Y42235D01*
X107389Y42220D01*
X107398Y42214D01*
X107404Y42212D01*
X107406Y42208D01*
X107408D01*
X107452Y42184D01*
X107496Y42170D01*
X107540Y42157D01*
X107582Y42149D01*
X107620Y42145D01*
X107635Y42143D01*
X107650D01*
X107660Y42140D01*
X107675D01*
X107715Y42143D01*
X107750Y42147D01*
X107786Y42151D01*
X107818Y42159D01*
X107847Y42170D01*
X107874Y42180D01*
X107899Y42191D01*
X107923Y42203D01*
X107944Y42214D01*
X107960Y42224D01*
X107975Y42235D01*
X107988Y42245D01*
X107998Y42254D01*
X108004Y42258D01*
X108009Y42262D01*
X108011Y42264D01*
X108032Y42290D01*
X108051Y42315D01*
X108065Y42340D01*
X108080Y42367D01*
X108091Y42395D01*
X108101Y42422D01*
X108116Y42472D01*
X108120Y42495D01*
X108124Y42516D01*
X108126Y42537D01*
X108128Y42554D01*
X108130Y42567D01*
Y42577D01*
Y42584D01*
Y42586D01*
Y42651D01*
X106994D01*
Y42768D01*
X106997Y42829D01*
X107003Y42888D01*
X107011Y42941D01*
X107020Y42987D01*
X107024Y43006D01*
X107028Y43025D01*
X107032Y43039D01*
X107036Y43052D01*
X107041Y43062D01*
X107043Y43071D01*
X107045Y43075D01*
Y43077D01*
X107066Y43127D01*
X107089Y43174D01*
X107112Y43216D01*
X107135Y43251D01*
X107156Y43279D01*
X107173Y43300D01*
X107179Y43308D01*
X107183Y43314D01*
X107185Y43316D01*
X107188Y43319D01*
X107223Y43354D01*
X107261Y43388D01*
X107297Y43415D01*
X107332Y43436D01*
X107362Y43455D01*
X107387Y43468D01*
X107396Y43472D01*
X107402Y43476D01*
X107406Y43478D01*
X107408D01*
X107458Y43497D01*
X107509Y43512D01*
X107557Y43520D01*
X107601Y43529D01*
X107641Y43533D01*
X107656D01*
X107671Y43535D01*
X107698D01*
X107757Y43533D01*
D02*
G37*
G36*
X96895D02*
X96950Y43526D01*
X97000Y43516D01*
X97042Y43505D01*
X97063Y43499D01*
X97080Y43495D01*
X97095Y43491D01*
X97108Y43484D01*
X97118Y43482D01*
X97124Y43478D01*
X97128Y43476D01*
X97131D01*
X97179Y43453D01*
X97221Y43426D01*
X97261Y43398D01*
X97294Y43373D01*
X97320Y43350D01*
X97341Y43329D01*
X97353Y43316D01*
X97355Y43314D01*
X97357Y43312D01*
X97391Y43270D01*
X97421Y43226D01*
X97446Y43184D01*
X97467Y43142D01*
X97483Y43108D01*
X97492Y43092D01*
X97496Y43079D01*
X97500Y43069D01*
X97504Y43060D01*
X97507Y43056D01*
Y43054D01*
X97523Y42995D01*
X97536Y42938D01*
X97546Y42880D01*
X97553Y42829D01*
X97555Y42804D01*
X97557Y42783D01*
Y42764D01*
X97559Y42747D01*
Y42735D01*
Y42724D01*
Y42718D01*
Y42716D01*
X97557Y42649D01*
X97551Y42584D01*
X97542Y42527D01*
X97538Y42502D01*
X97534Y42478D01*
X97530Y42455D01*
X97526Y42437D01*
X97521Y42420D01*
X97517Y42407D01*
X97513Y42395D01*
X97511Y42386D01*
X97509Y42382D01*
Y42380D01*
X97488Y42325D01*
X97462Y42277D01*
X97439Y42233D01*
X97416Y42195D01*
X97395Y42166D01*
X97385Y42153D01*
X97376Y42143D01*
X97370Y42134D01*
X97366Y42128D01*
X97362Y42126D01*
Y42124D01*
X97324Y42086D01*
X97284Y42054D01*
X97244Y42027D01*
X97208Y42004D01*
X97175Y41985D01*
X97162Y41979D01*
X97149Y41972D01*
X97139Y41968D01*
X97133Y41964D01*
X97128Y41962D01*
X97126D01*
X97074Y41943D01*
X97019Y41928D01*
X96967Y41920D01*
X96919Y41912D01*
X96898Y41909D01*
X96877Y41907D01*
X96860D01*
X96845Y41905D01*
X96816D01*
X96772Y41907D01*
X96732Y41909D01*
X96692Y41914D01*
X96654Y41920D01*
X96620Y41926D01*
X96587Y41935D01*
X96557Y41943D01*
X96528Y41954D01*
X96505Y41962D01*
X96482Y41970D01*
X96463Y41979D01*
X96448Y41985D01*
X96436Y41991D01*
X96425Y41995D01*
X96421Y42000D01*
X96419D01*
X96362Y42037D01*
X96314Y42079D01*
X96272Y42121D01*
X96240Y42159D01*
X96213Y42195D01*
X96205Y42210D01*
X96196Y42222D01*
X96190Y42233D01*
X96186Y42241D01*
X96181Y42245D01*
Y42248D01*
X96373Y42397D01*
X96398Y42355D01*
X96427Y42317D01*
X96454Y42283D01*
X96484Y42256D01*
X96509Y42235D01*
X96528Y42220D01*
X96536Y42214D01*
X96543Y42212D01*
X96545Y42208D01*
X96547D01*
X96591Y42184D01*
X96635Y42170D01*
X96679Y42157D01*
X96721Y42149D01*
X96759Y42145D01*
X96774Y42143D01*
X96788D01*
X96799Y42140D01*
X96813D01*
X96853Y42143D01*
X96889Y42147D01*
X96925Y42151D01*
X96956Y42159D01*
X96986Y42170D01*
X97013Y42180D01*
X97038Y42191D01*
X97061Y42203D01*
X97082Y42214D01*
X97099Y42224D01*
X97114Y42235D01*
X97126Y42245D01*
X97137Y42254D01*
X97143Y42258D01*
X97148Y42262D01*
X97149Y42264D01*
X97171Y42290D01*
X97189Y42315D01*
X97204Y42340D01*
X97219Y42367D01*
X97229Y42395D01*
X97240Y42422D01*
X97255Y42472D01*
X97259Y42495D01*
X97263Y42516D01*
X97265Y42537D01*
X97267Y42554D01*
X97269Y42567D01*
Y42577D01*
Y42584D01*
Y42586D01*
Y42651D01*
X96133D01*
Y42768D01*
X96135Y42829D01*
X96141Y42888D01*
X96150Y42941D01*
X96158Y42987D01*
X96162Y43006D01*
X96167Y43025D01*
X96171Y43039D01*
X96175Y43052D01*
X96179Y43062D01*
X96181Y43071D01*
X96184Y43075D01*
Y43077D01*
X96205Y43127D01*
X96228Y43174D01*
X96251Y43216D01*
X96274Y43251D01*
X96295Y43279D01*
X96312Y43300D01*
X96318Y43308D01*
X96322Y43314D01*
X96324Y43316D01*
X96326Y43319D01*
X96362Y43354D01*
X96400Y43388D01*
X96436Y43415D01*
X96471Y43436D01*
X96501Y43455D01*
X96526Y43468D01*
X96534Y43472D01*
X96540Y43476D01*
X96545Y43478D01*
X96547D01*
X96597Y43497D01*
X96648Y43512D01*
X96696Y43520D01*
X96740Y43529D01*
X96780Y43533D01*
X96795D01*
X96809Y43535D01*
X96837D01*
X96895Y43533D01*
D02*
G37*
G36*
X122835Y41941D02*
X122028D01*
X121982Y41943D01*
X121938Y41947D01*
X121898Y41956D01*
X121864Y41964D01*
X121835Y41970D01*
X121814Y41979D01*
X121806Y41981D01*
X121799Y41983D01*
X121797Y41985D01*
X121795D01*
X121757Y42004D01*
X121722Y42025D01*
X121690Y42046D01*
X121663Y42065D01*
X121642Y42084D01*
X121625Y42098D01*
X121617Y42107D01*
X121612Y42111D01*
X121585Y42143D01*
X121560Y42176D01*
X121541Y42208D01*
X121524Y42237D01*
X121510Y42264D01*
X121501Y42283D01*
X121497Y42292D01*
X121495Y42298D01*
X121493Y42300D01*
Y42302D01*
X121478Y42344D01*
X121468Y42386D01*
X121459Y42426D01*
X121455Y42462D01*
X121451Y42493D01*
Y42506D01*
X121449Y42518D01*
Y42527D01*
Y42533D01*
Y42537D01*
Y42539D01*
X121451Y42579D01*
X121453Y42617D01*
X121459Y42653D01*
X121466Y42684D01*
X121474Y42716D01*
X121484Y42743D01*
X121495Y42768D01*
X121505Y42791D01*
X121516Y42810D01*
X121526Y42829D01*
X121535Y42844D01*
X121545Y42856D01*
X121552Y42865D01*
X121558Y42871D01*
X121560Y42875D01*
X121562Y42878D01*
X121606Y42917D01*
X121657Y42953D01*
X121705Y42980D01*
X121751Y43001D01*
X121793Y43018D01*
X121810Y43025D01*
X121827Y43029D01*
X121839Y43033D01*
X121848Y43035D01*
X121854Y43037D01*
X121856D01*
Y43048D01*
X121803Y43069D01*
X121755Y43092D01*
X121715Y43119D01*
X121680Y43144D01*
X121652Y43167D01*
X121633Y43186D01*
X121621Y43199D01*
X121617Y43201D01*
Y43203D01*
X121600Y43224D01*
X121585Y43247D01*
X121564Y43295D01*
X121547Y43344D01*
X121535Y43392D01*
X121528Y43434D01*
X121526Y43453D01*
Y43468D01*
X121524Y43480D01*
Y43491D01*
Y43497D01*
Y43499D01*
X121526Y43545D01*
X121530Y43589D01*
X121539Y43629D01*
X121549Y43667D01*
X121560Y43703D01*
X121573Y43736D01*
X121587Y43766D01*
X121602Y43793D01*
X121617Y43818D01*
X121631Y43839D01*
X121644Y43856D01*
X121654Y43871D01*
X121665Y43883D01*
X121673Y43892D01*
X121677Y43896D01*
X121680Y43898D01*
X121709Y43925D01*
X121743Y43946D01*
X121778Y43967D01*
X121814Y43984D01*
X121850Y43999D01*
X121885Y44012D01*
X121921Y44020D01*
X121957Y44028D01*
X121988Y44035D01*
X122020Y44039D01*
X122047Y44043D01*
X122070Y44045D01*
X122089Y44047D01*
X122835D01*
Y41941D01*
D02*
G37*
G36*
X118523Y43531D02*
X118553Y43526D01*
X118578Y43522D01*
X118597Y43518D01*
X118614Y43514D01*
X118622Y43512D01*
X118626Y43510D01*
X118651Y43499D01*
X118677Y43489D01*
X118698Y43478D01*
X118717Y43468D01*
X118731Y43457D01*
X118742Y43449D01*
X118750Y43444D01*
X118752Y43442D01*
X118788Y43411D01*
X118805Y43394D01*
X118817Y43379D01*
X118828Y43367D01*
X118836Y43356D01*
X118841Y43350D01*
X118843Y43348D01*
X118868Y43308D01*
X118878Y43289D01*
X118887Y43272D01*
X118893Y43258D01*
X118899Y43247D01*
X118901Y43239D01*
X118903Y43237D01*
X118916D01*
Y43497D01*
X119195D01*
Y41941D01*
X118916D01*
Y43008D01*
X118914Y43035D01*
X118912Y43058D01*
X118905Y43079D01*
X118899Y43098D01*
X118895Y43113D01*
X118889Y43125D01*
X118887Y43132D01*
X118885Y43134D01*
X118872Y43153D01*
X118859Y43172D01*
X118845Y43186D01*
X118832Y43199D01*
X118819Y43209D01*
X118811Y43218D01*
X118805Y43222D01*
X118803Y43224D01*
X118763Y43249D01*
X118742Y43258D01*
X118725Y43266D01*
X118708Y43272D01*
X118696Y43277D01*
X118687Y43279D01*
X118685D01*
X118637Y43289D01*
X118614Y43291D01*
X118593Y43293D01*
X118576Y43295D01*
X118551D01*
X118519Y43293D01*
X118490Y43291D01*
X118437Y43279D01*
X118389Y43258D01*
X118351Y43232D01*
X118318Y43203D01*
X118288Y43167D01*
X118265Y43132D01*
X118248Y43094D01*
X118234Y43056D01*
X118223Y43020D01*
X118215Y42987D01*
X118210Y42955D01*
X118206Y42930D01*
X118204Y42909D01*
Y42896D01*
Y42894D01*
Y42892D01*
Y41941D01*
X117923D01*
Y42943D01*
X117925Y42995D01*
X117929Y43043D01*
X117935Y43088D01*
X117946Y43130D01*
X117956Y43169D01*
X117969Y43205D01*
X117982Y43239D01*
X117996Y43268D01*
X118009Y43293D01*
X118024Y43316D01*
X118036Y43335D01*
X118047Y43352D01*
X118057Y43363D01*
X118063Y43373D01*
X118068Y43377D01*
X118070Y43379D01*
X118097Y43407D01*
X118129Y43430D01*
X118160Y43451D01*
X118192Y43470D01*
X118223Y43484D01*
X118257Y43497D01*
X118286Y43508D01*
X118318Y43516D01*
X118345Y43522D01*
X118372Y43526D01*
X118395Y43531D01*
X118416Y43533D01*
X118433Y43535D01*
X118492D01*
X118523Y43531D01*
D02*
G37*
G36*
X115592Y41941D02*
X115298D01*
Y42810D01*
X114815D01*
X114760Y42812D01*
X114710Y42817D01*
X114661Y42825D01*
X114617Y42836D01*
X114577Y42848D01*
X114540Y42861D01*
X114506Y42875D01*
X114477Y42892D01*
X114449Y42907D01*
X114426Y42922D01*
X114405Y42934D01*
X114391Y42947D01*
X114378Y42957D01*
X114367Y42966D01*
X114363Y42970D01*
X114361Y42972D01*
X114334Y43003D01*
X114311Y43039D01*
X114290Y43075D01*
X114271Y43113D01*
X114256Y43150D01*
X114244Y43188D01*
X114233Y43226D01*
X114225Y43262D01*
X114218Y43295D01*
X114214Y43327D01*
X114210Y43354D01*
X114208Y43379D01*
X114206Y43400D01*
Y43415D01*
Y43424D01*
Y43428D01*
X114208Y43480D01*
X114212Y43531D01*
X114220Y43579D01*
X114231Y43623D01*
X114242Y43663D01*
X114254Y43701D01*
X114269Y43734D01*
X114283Y43766D01*
X114298Y43793D01*
X114313Y43816D01*
X114325Y43837D01*
X114336Y43854D01*
X114347Y43867D01*
X114355Y43875D01*
X114359Y43881D01*
X114361Y43883D01*
X114393Y43913D01*
X114424Y43938D01*
X114460Y43959D01*
X114498Y43978D01*
X114535Y43995D01*
X114573Y44007D01*
X114611Y44018D01*
X114647Y44026D01*
X114680Y44032D01*
X114712Y44039D01*
X114741Y44043D01*
X114767Y44045D01*
X114785Y44047D01*
X115592D01*
Y41941D01*
D02*
G37*
G36*
X105852Y43531D02*
X105881Y43526D01*
X105906Y43522D01*
X105926Y43518D01*
X105942Y43514D01*
X105951Y43512D01*
X105955Y43510D01*
X105980Y43499D01*
X106005Y43489D01*
X106026Y43478D01*
X106045Y43468D01*
X106060Y43457D01*
X106070Y43449D01*
X106079Y43444D01*
X106081Y43442D01*
X106117Y43411D01*
X106133Y43394D01*
X106146Y43379D01*
X106156Y43367D01*
X106165Y43356D01*
X106169Y43350D01*
X106171Y43348D01*
X106196Y43308D01*
X106207Y43289D01*
X106215Y43272D01*
X106222Y43258D01*
X106228Y43247D01*
X106230Y43239D01*
X106232Y43237D01*
X106245D01*
Y43497D01*
X106524D01*
Y41941D01*
X106245D01*
Y43008D01*
X106243Y43035D01*
X106240Y43058D01*
X106234Y43079D01*
X106228Y43098D01*
X106224Y43113D01*
X106217Y43125D01*
X106215Y43132D01*
X106213Y43134D01*
X106201Y43153D01*
X106188Y43172D01*
X106173Y43186D01*
X106161Y43199D01*
X106148Y43209D01*
X106140Y43218D01*
X106133Y43222D01*
X106131Y43224D01*
X106091Y43249D01*
X106070Y43258D01*
X106053Y43266D01*
X106037Y43272D01*
X106024Y43277D01*
X106016Y43279D01*
X106014D01*
X105965Y43289D01*
X105942Y43291D01*
X105921Y43293D01*
X105904Y43295D01*
X105879D01*
X105848Y43293D01*
X105818Y43291D01*
X105766Y43279D01*
X105718Y43258D01*
X105680Y43232D01*
X105646Y43203D01*
X105617Y43167D01*
X105594Y43132D01*
X105577Y43094D01*
X105562Y43056D01*
X105552Y43020D01*
X105543Y42987D01*
X105539Y42955D01*
X105535Y42930D01*
X105533Y42909D01*
Y42896D01*
Y42894D01*
Y42892D01*
Y41941D01*
X105251D01*
Y42943D01*
X105253Y42995D01*
X105258Y43043D01*
X105264Y43088D01*
X105274Y43130D01*
X105285Y43169D01*
X105298Y43205D01*
X105310Y43239D01*
X105325Y43268D01*
X105337Y43293D01*
X105352Y43316D01*
X105365Y43335D01*
X105375Y43352D01*
X105386Y43363D01*
X105392Y43373D01*
X105396Y43377D01*
X105398Y43379D01*
X105426Y43407D01*
X105457Y43430D01*
X105489Y43451D01*
X105520Y43470D01*
X105552Y43484D01*
X105585Y43497D01*
X105615Y43508D01*
X105646Y43516D01*
X105674Y43522D01*
X105701Y43526D01*
X105724Y43531D01*
X105745Y43533D01*
X105762Y43535D01*
X105821D01*
X105852Y43531D01*
D02*
G37*
G36*
X94991D02*
X95020Y43526D01*
X95045Y43522D01*
X95064Y43518D01*
X95081Y43514D01*
X95089Y43512D01*
X95094Y43510D01*
X95119Y43499D01*
X95144Y43489D01*
X95165Y43478D01*
X95184Y43468D01*
X95199Y43457D01*
X95209Y43449D01*
X95218Y43444D01*
X95220Y43442D01*
X95255Y43411D01*
X95272Y43394D01*
X95285Y43379D01*
X95295Y43367D01*
X95304Y43356D01*
X95308Y43350D01*
X95310Y43348D01*
X95335Y43308D01*
X95346Y43289D01*
X95354Y43272D01*
X95360Y43258D01*
X95367Y43247D01*
X95369Y43239D01*
X95371Y43237D01*
X95384D01*
Y43497D01*
X95663D01*
Y41941D01*
X95384D01*
Y43008D01*
X95381Y43035D01*
X95379Y43058D01*
X95373Y43079D01*
X95367Y43098D01*
X95363Y43113D01*
X95356Y43125D01*
X95354Y43132D01*
X95352Y43134D01*
X95339Y43153D01*
X95327Y43172D01*
X95312Y43186D01*
X95300Y43199D01*
X95287Y43209D01*
X95278Y43218D01*
X95272Y43222D01*
X95270Y43224D01*
X95230Y43249D01*
X95209Y43258D01*
X95192Y43266D01*
X95175Y43272D01*
X95163Y43277D01*
X95155Y43279D01*
X95152D01*
X95104Y43289D01*
X95081Y43291D01*
X95060Y43293D01*
X95043Y43295D01*
X95018D01*
X94986Y43293D01*
X94957Y43291D01*
X94905Y43279D01*
X94856Y43258D01*
X94819Y43232D01*
X94785Y43203D01*
X94756Y43167D01*
X94732Y43132D01*
X94716Y43094D01*
X94701Y43056D01*
X94690Y43020D01*
X94682Y42987D01*
X94678Y42955D01*
X94674Y42930D01*
X94672Y42909D01*
Y42896D01*
Y42894D01*
Y42892D01*
Y41941D01*
X94390D01*
Y42943D01*
X94392Y42995D01*
X94397Y43043D01*
X94403Y43088D01*
X94413Y43130D01*
X94424Y43169D01*
X94436Y43205D01*
X94449Y43239D01*
X94464Y43268D01*
X94476Y43293D01*
X94491Y43316D01*
X94503Y43335D01*
X94514Y43352D01*
X94525Y43363D01*
X94531Y43373D01*
X94535Y43377D01*
X94537Y43379D01*
X94564Y43407D01*
X94596Y43430D01*
X94627Y43451D01*
X94659Y43470D01*
X94690Y43484D01*
X94724Y43497D01*
X94753Y43508D01*
X94785Y43516D01*
X94812Y43522D01*
X94840Y43526D01*
X94863Y43531D01*
X94884Y43533D01*
X94901Y43535D01*
X94959D01*
X94991Y43531D01*
D02*
G37*
G36*
X113198Y43533D02*
X113257Y43526D01*
X113307Y43516D01*
X113351Y43505D01*
X113372Y43499D01*
X113389Y43495D01*
X113403Y43491D01*
X113416Y43484D01*
X113427Y43482D01*
X113433Y43478D01*
X113437Y43476D01*
X113439D01*
X113488Y43453D01*
X113530Y43426D01*
X113569Y43398D01*
X113603Y43373D01*
X113628Y43350D01*
X113649Y43329D01*
X113662Y43316D01*
X113664Y43314D01*
X113666Y43312D01*
X113700Y43270D01*
X113729Y43228D01*
X113754Y43184D01*
X113773Y43144D01*
X113790Y43108D01*
X113796Y43094D01*
X113803Y43081D01*
X113805Y43071D01*
X113809Y43062D01*
X113811Y43058D01*
Y43056D01*
X113828Y42999D01*
X113838Y42941D01*
X113847Y42884D01*
X113853Y42831D01*
X113855Y42808D01*
X113857Y42787D01*
Y42768D01*
X113859Y42752D01*
Y42739D01*
Y42728D01*
Y42722D01*
Y42720D01*
X113857Y42651D01*
X113851Y42588D01*
X113845Y42529D01*
X113840Y42504D01*
X113834Y42478D01*
X113830Y42458D01*
X113826Y42439D01*
X113821Y42420D01*
X113819Y42407D01*
X113815Y42395D01*
X113813Y42386D01*
X113811Y42382D01*
Y42380D01*
X113790Y42325D01*
X113767Y42277D01*
X113744Y42233D01*
X113719Y42195D01*
X113698Y42166D01*
X113689Y42153D01*
X113681Y42143D01*
X113674Y42134D01*
X113670Y42128D01*
X113666Y42126D01*
Y42124D01*
X113628Y42086D01*
X113591Y42054D01*
X113553Y42027D01*
X113517Y42004D01*
X113485Y41985D01*
X113473Y41979D01*
X113462Y41972D01*
X113452Y41968D01*
X113446Y41964D01*
X113441Y41962D01*
X113439D01*
X113389Y41943D01*
X113336Y41928D01*
X113286Y41920D01*
X113238Y41912D01*
X113217Y41909D01*
X113198Y41907D01*
X113181D01*
X113166Y41905D01*
X113137D01*
X113076Y41907D01*
X113019Y41914D01*
X112969Y41924D01*
X112925Y41935D01*
X112906Y41939D01*
X112889Y41943D01*
X112874Y41949D01*
X112862Y41954D01*
X112851Y41958D01*
X112845Y41960D01*
X112841Y41962D01*
X112839D01*
X112790Y41985D01*
X112746Y42010D01*
X112706Y42037D01*
X112673Y42065D01*
X112648Y42088D01*
X112627Y42107D01*
X112614Y42119D01*
X112610Y42121D01*
Y42124D01*
X112576Y42166D01*
X112547Y42210D01*
X112524Y42252D01*
X112503Y42292D01*
X112488Y42327D01*
X112482Y42342D01*
X112475Y42355D01*
X112471Y42365D01*
X112469Y42373D01*
X112467Y42378D01*
Y42380D01*
X112450Y42439D01*
X112438Y42497D01*
X112429Y42554D01*
X112423Y42607D01*
X112421Y42630D01*
X112419Y42653D01*
Y42672D01*
X112417Y42689D01*
Y42701D01*
Y42712D01*
Y42718D01*
Y42720D01*
X112419Y42787D01*
X112425Y42852D01*
X112433Y42909D01*
X112438Y42934D01*
X112442Y42957D01*
X112446Y42980D01*
X112450Y42999D01*
X112454Y43016D01*
X112459Y43031D01*
X112463Y43041D01*
X112465Y43050D01*
X112467Y43054D01*
Y43056D01*
X112486Y43111D01*
X112509Y43159D01*
X112534Y43203D01*
X112557Y43241D01*
X112578Y43270D01*
X112587Y43283D01*
X112595Y43293D01*
X112601Y43302D01*
X112606Y43308D01*
X112608Y43310D01*
X112610Y43312D01*
X112648Y43350D01*
X112685Y43384D01*
X112723Y43411D01*
X112759Y43434D01*
X112790Y43453D01*
X112805Y43459D01*
X112816Y43466D01*
X112826Y43470D01*
X112832Y43474D01*
X112837Y43476D01*
X112839D01*
X112889Y43495D01*
X112942Y43510D01*
X112992Y43520D01*
X113038Y43529D01*
X113059Y43531D01*
X113078Y43533D01*
X113095D01*
X113110Y43535D01*
X113137D01*
X113198Y43533D01*
D02*
G37*
G36*
X111362D02*
X111411Y43531D01*
X111455Y43524D01*
X111493Y43520D01*
X111524Y43514D01*
X111539Y43512D01*
X111549Y43508D01*
X111558Y43505D01*
X111564D01*
X111568Y43503D01*
X111570D01*
X111614Y43491D01*
X111652Y43476D01*
X111688Y43461D01*
X111717Y43447D01*
X111742Y43434D01*
X111761Y43424D01*
X111772Y43415D01*
X111776Y43413D01*
X111805Y43390D01*
X111833Y43365D01*
X111856Y43339D01*
X111875Y43316D01*
X111890Y43295D01*
X111900Y43279D01*
X111906Y43268D01*
X111908Y43264D01*
X111923Y43230D01*
X111936Y43195D01*
X111944Y43161D01*
X111948Y43127D01*
X111952Y43100D01*
X111954Y43077D01*
Y43069D01*
Y43064D01*
Y43060D01*
Y43058D01*
X111952Y43014D01*
X111946Y42974D01*
X111940Y42938D01*
X111929Y42909D01*
X111921Y42886D01*
X111915Y42869D01*
X111908Y42859D01*
X111906Y42854D01*
X111885Y42827D01*
X111864Y42802D01*
X111843Y42781D01*
X111824Y42762D01*
X111808Y42747D01*
X111793Y42737D01*
X111784Y42731D01*
X111780Y42728D01*
X111751Y42712D01*
X111722Y42697D01*
X111692Y42684D01*
X111667Y42674D01*
X111644Y42667D01*
X111625Y42661D01*
X111614Y42659D01*
X111610Y42657D01*
X111574Y42649D01*
X111541Y42642D01*
X111511Y42636D01*
X111484Y42632D01*
X111461Y42628D01*
X111442Y42625D01*
X111432Y42623D01*
X111427D01*
X111184Y42586D01*
X111146Y42579D01*
X111129Y42575D01*
X111115Y42573D01*
X111102Y42569D01*
X111094Y42567D01*
X111087Y42565D01*
X111085D01*
X111054Y42554D01*
X111039Y42550D01*
X111026Y42544D01*
X111018Y42539D01*
X111010Y42535D01*
X111005Y42533D01*
X111003Y42531D01*
X110978Y42512D01*
X110959Y42491D01*
X110953Y42483D01*
X110949Y42476D01*
X110944Y42472D01*
Y42470D01*
X110932Y42441D01*
X110925Y42409D01*
X110924Y42397D01*
Y42386D01*
Y42380D01*
Y42378D01*
X110925Y42355D01*
X110928Y42331D01*
X110940Y42294D01*
X110957Y42260D01*
X110976Y42233D01*
X110997Y42212D01*
X111014Y42199D01*
X111026Y42189D01*
X111028Y42187D01*
X111030D01*
X111073Y42168D01*
X111119Y42153D01*
X111165Y42143D01*
X111211Y42136D01*
X111249Y42132D01*
X111266Y42130D01*
X111280Y42128D01*
X111310D01*
X111375Y42130D01*
X111436Y42138D01*
X111488Y42147D01*
X111514Y42153D01*
X111535Y42159D01*
X111556Y42164D01*
X111572Y42170D01*
X111589Y42174D01*
X111602Y42180D01*
X111610Y42182D01*
X111619Y42187D01*
X111623Y42189D01*
X111625D01*
X111673Y42214D01*
X111717Y42243D01*
X111757Y42273D01*
X111793Y42300D01*
X111822Y42325D01*
X111843Y42346D01*
X111852Y42355D01*
X111858Y42361D01*
X111860Y42363D01*
X111862Y42365D01*
X112041Y42206D01*
X111995Y42157D01*
X111946Y42113D01*
X111896Y42075D01*
X111849Y42044D01*
X111808Y42019D01*
X111791Y42008D01*
X111774Y42000D01*
X111761Y41993D01*
X111753Y41989D01*
X111747Y41985D01*
X111745D01*
X111675Y41958D01*
X111602Y41939D01*
X111530Y41924D01*
X111495Y41920D01*
X111463Y41916D01*
X111432Y41912D01*
X111404Y41909D01*
X111379Y41907D01*
X111358D01*
X111339Y41905D01*
X111316D01*
X111259Y41907D01*
X111205Y41912D01*
X111156Y41918D01*
X111108Y41926D01*
X111064Y41935D01*
X111024Y41945D01*
X110989Y41958D01*
X110955Y41970D01*
X110925Y41981D01*
X110900Y41993D01*
X110877Y42004D01*
X110860Y42014D01*
X110846Y42021D01*
X110835Y42027D01*
X110829Y42031D01*
X110827Y42033D01*
X110795Y42059D01*
X110768Y42086D01*
X110743Y42115D01*
X110722Y42145D01*
X110705Y42176D01*
X110690Y42206D01*
X110678Y42237D01*
X110669Y42264D01*
X110661Y42292D01*
X110657Y42317D01*
X110652Y42340D01*
X110648Y42361D01*
Y42376D01*
X110646Y42388D01*
Y42397D01*
Y42399D01*
X110648Y42443D01*
X110655Y42483D01*
X110663Y42516D01*
X110671Y42546D01*
X110680Y42569D01*
X110688Y42586D01*
X110695Y42596D01*
X110697Y42600D01*
X110716Y42630D01*
X110737Y42653D01*
X110758Y42676D01*
X110778Y42693D01*
X110795Y42707D01*
X110810Y42718D01*
X110819Y42724D01*
X110823Y42726D01*
X110852Y42743D01*
X110881Y42756D01*
X110909Y42768D01*
X110936Y42779D01*
X110959Y42785D01*
X110976Y42791D01*
X110989Y42796D01*
X110993D01*
X111028Y42804D01*
X111060Y42812D01*
X111091Y42819D01*
X111119Y42825D01*
X111142Y42829D01*
X111159Y42831D01*
X111169Y42833D01*
X111173D01*
X111419Y42869D01*
X111455Y42878D01*
X111472Y42880D01*
X111486Y42884D01*
X111499Y42886D01*
X111509Y42888D01*
X111516Y42890D01*
X111518D01*
X111549Y42901D01*
X111564Y42907D01*
X111576Y42913D01*
X111585Y42917D01*
X111593Y42922D01*
X111598Y42926D01*
X111600D01*
X111623Y42947D01*
X111642Y42966D01*
X111648Y42974D01*
X111652Y42980D01*
X111656Y42985D01*
Y42987D01*
X111669Y43018D01*
X111675Y43048D01*
Y43062D01*
X111677Y43073D01*
Y43079D01*
Y43081D01*
X111675Y43102D01*
X111673Y43121D01*
X111663Y43155D01*
X111648Y43184D01*
X111631Y43207D01*
X111617Y43226D01*
X111602Y43241D01*
X111591Y43249D01*
X111587Y43251D01*
X111549Y43272D01*
X111507Y43287D01*
X111463Y43297D01*
X111419Y43304D01*
X111381Y43310D01*
X111364D01*
X111350Y43312D01*
X111287D01*
X111253Y43310D01*
X111222Y43306D01*
X111196Y43304D01*
X111176Y43300D01*
X111159Y43295D01*
X111150Y43293D01*
X111146D01*
X111119Y43287D01*
X111094Y43279D01*
X111071Y43270D01*
X111051Y43264D01*
X111035Y43258D01*
X111024Y43251D01*
X111016Y43249D01*
X111014Y43247D01*
X110974Y43226D01*
X110957Y43216D01*
X110942Y43205D01*
X110932Y43197D01*
X110924Y43190D01*
X110917Y43186D01*
X110915Y43184D01*
X110886Y43159D01*
X110865Y43138D01*
X110856Y43130D01*
X110850Y43123D01*
X110848Y43119D01*
X110846Y43117D01*
X110674Y43287D01*
X110716Y43327D01*
X110760Y43363D01*
X110804Y43394D01*
X110846Y43419D01*
X110883Y43440D01*
X110898Y43449D01*
X110911Y43455D01*
X110924Y43461D01*
X110932Y43466D01*
X110936Y43468D01*
X110938D01*
X110999Y43491D01*
X111062Y43508D01*
X111125Y43518D01*
X111184Y43526D01*
X111209Y43529D01*
X111234Y43531D01*
X111255Y43533D01*
X111274Y43535D01*
X111310D01*
X111362Y43533D01*
D02*
G37*
G36*
X103634Y43726D02*
X103666Y43720D01*
X103693Y43709D01*
X103714Y43699D01*
X103731Y43686D01*
X103744Y43678D01*
X103750Y43669D01*
X103752Y43667D01*
X103767Y43644D01*
X103779Y43619D01*
X103788Y43594D01*
X103792Y43568D01*
X103796Y43547D01*
X103798Y43531D01*
Y43520D01*
Y43518D01*
Y43516D01*
Y43476D01*
X103847Y43495D01*
X103897Y43510D01*
X103947Y43520D01*
X103993Y43529D01*
X104017Y43531D01*
X104035Y43533D01*
X104052D01*
X104069Y43535D01*
X104098D01*
X104149Y43533D01*
X104197Y43529D01*
X104239Y43522D01*
X104277Y43516D01*
X104306Y43508D01*
X104319Y43503D01*
X104329Y43501D01*
X104340Y43499D01*
X104346Y43497D01*
X104348Y43495D01*
X104350D01*
X104390Y43478D01*
X104428Y43461D01*
X104462Y43442D01*
X104491Y43426D01*
X104514Y43409D01*
X104531Y43396D01*
X104542Y43388D01*
X104546Y43386D01*
X104575Y43358D01*
X104600Y43329D01*
X104621Y43302D01*
X104640Y43274D01*
X104653Y43251D01*
X104663Y43232D01*
X104670Y43220D01*
X104672Y43218D01*
Y43216D01*
X104686Y43178D01*
X104697Y43138D01*
X104703Y43100D01*
X104707Y43066D01*
X104712Y43037D01*
X104714Y43014D01*
Y43006D01*
Y42999D01*
Y42995D01*
Y42993D01*
X104709Y42932D01*
X104701Y42878D01*
X104689Y42827D01*
X104674Y42785D01*
X104668Y42766D01*
X104661Y42749D01*
X104655Y42735D01*
X104649Y42724D01*
X104642Y42714D01*
X104640Y42707D01*
X104636Y42703D01*
Y42701D01*
X104604Y42659D01*
X104569Y42621D01*
X104531Y42590D01*
X104495Y42562D01*
X104464Y42544D01*
X104449Y42535D01*
X104437Y42529D01*
X104428Y42523D01*
X104420Y42518D01*
X104416Y42516D01*
X104413D01*
Y42502D01*
X104457Y42489D01*
X104498Y42474D01*
X104531Y42460D01*
X104560Y42445D01*
X104584Y42432D01*
X104600Y42422D01*
X104611Y42413D01*
X104615Y42411D01*
X104640Y42386D01*
X104659Y42359D01*
X104674Y42329D01*
X104682Y42300D01*
X104689Y42275D01*
X104691Y42252D01*
X104693Y42243D01*
Y42239D01*
Y42235D01*
Y42233D01*
X104691Y42203D01*
X104686Y42178D01*
X104680Y42155D01*
X104672Y42134D01*
X104666Y42119D01*
X104659Y42109D01*
X104655Y42101D01*
X104653Y42098D01*
X104636Y42079D01*
X104619Y42063D01*
X104600Y42048D01*
X104581Y42037D01*
X104565Y42027D01*
X104552Y42021D01*
X104544Y42017D01*
X104540Y42014D01*
Y41981D01*
X104584Y41968D01*
X104623Y41951D01*
X104657Y41935D01*
X104684Y41918D01*
X104705Y41903D01*
X104722Y41890D01*
X104730Y41882D01*
X104735Y41880D01*
X104758Y41851D01*
X104773Y41819D01*
X104785Y41785D01*
X104794Y41754D01*
X104798Y41727D01*
X104800Y41704D01*
X104802Y41695D01*
Y41689D01*
Y41685D01*
Y41683D01*
X104800Y41649D01*
X104796Y41620D01*
X104789Y41592D01*
X104783Y41569D01*
X104777Y41550D01*
X104771Y41536D01*
X104766Y41527D01*
X104764Y41523D01*
X104747Y41498D01*
X104728Y41475D01*
X104707Y41454D01*
X104686Y41437D01*
X104670Y41422D01*
X104655Y41412D01*
X104645Y41405D01*
X104640Y41403D01*
X104607Y41387D01*
X104569Y41370D01*
X104533Y41357D01*
X104498Y41347D01*
X104466Y41338D01*
X104443Y41332D01*
X104432Y41330D01*
X104426D01*
X104422Y41328D01*
X104420D01*
X104365Y41319D01*
X104311Y41313D01*
X104254Y41307D01*
X104201Y41305D01*
X104178Y41302D01*
X104155D01*
X104136Y41300D01*
X104086D01*
X104012Y41302D01*
X103945Y41305D01*
X103880Y41311D01*
X103821Y41317D01*
X103769Y41328D01*
X103718Y41336D01*
X103674Y41347D01*
X103634Y41357D01*
X103599Y41368D01*
X103569Y41378D01*
X103544Y41389D01*
X103523Y41397D01*
X103506Y41403D01*
X103494Y41410D01*
X103487Y41412D01*
X103485Y41414D01*
X103449Y41437D01*
X103420Y41462D01*
X103393Y41489D01*
X103372Y41517D01*
X103353Y41546D01*
X103336Y41576D01*
X103324Y41605D01*
X103313Y41632D01*
X103305Y41660D01*
X103298Y41685D01*
X103294Y41708D01*
X103290Y41727D01*
Y41743D01*
X103288Y41756D01*
Y41765D01*
Y41767D01*
X103290Y41802D01*
X103294Y41834D01*
X103300Y41865D01*
X103309Y41895D01*
X103319Y41922D01*
X103332Y41947D01*
X103342Y41970D01*
X103355Y41991D01*
X103370Y42010D01*
X103380Y42027D01*
X103393Y42040D01*
X103403Y42052D01*
X103412Y42061D01*
X103418Y42067D01*
X103422Y42071D01*
X103424Y42073D01*
X103452Y42094D01*
X103483Y42111D01*
X103517Y42128D01*
X103552Y42140D01*
X103626Y42161D01*
X103697Y42174D01*
X103733Y42178D01*
X103765Y42182D01*
X103794Y42184D01*
X103819Y42187D01*
X103840Y42189D01*
X104254D01*
X104287Y42193D01*
X104319Y42195D01*
X104344Y42199D01*
X104365Y42203D01*
X104380Y42206D01*
X104388Y42210D01*
X104393D01*
X104416Y42220D01*
X104432Y42233D01*
X104445Y42248D01*
X104453Y42264D01*
X104457Y42279D01*
X104460Y42292D01*
X104462Y42300D01*
Y42302D01*
X104460Y42327D01*
X104451Y42346D01*
X104449Y42355D01*
X104445Y42361D01*
X104443Y42363D01*
Y42365D01*
X104428Y42384D01*
X104411Y42399D01*
X104399Y42409D01*
X104397Y42413D01*
X104395D01*
X104372Y42428D01*
X104352Y42437D01*
X104344Y42441D01*
X104338Y42443D01*
X104334Y42445D01*
X104332D01*
X104306Y42453D01*
X104285Y42462D01*
X104277Y42464D01*
X104271Y42466D01*
X104267Y42468D01*
X104264D01*
X104235Y42462D01*
X104210Y42458D01*
X104199D01*
X104191Y42455D01*
X104184D01*
X104153Y42453D01*
X104098D01*
X104048Y42455D01*
X104000Y42460D01*
X103958Y42466D01*
X103920Y42472D01*
X103891Y42478D01*
X103878Y42483D01*
X103865Y42485D01*
X103857Y42487D01*
X103851Y42489D01*
X103849Y42491D01*
X103847D01*
X103804Y42508D01*
X103767Y42525D01*
X103733Y42544D01*
X103704Y42560D01*
X103681Y42577D01*
X103664Y42590D01*
X103653Y42598D01*
X103649Y42600D01*
X103620Y42628D01*
X103595Y42655D01*
X103574Y42684D01*
X103554Y42709D01*
X103542Y42733D01*
X103531Y42752D01*
X103525Y42764D01*
X103523Y42766D01*
Y42768D01*
X103508Y42806D01*
X103496Y42846D01*
X103487Y42884D01*
X103483Y42919D01*
X103479Y42949D01*
X103477Y42972D01*
Y42980D01*
Y42987D01*
Y42991D01*
Y42993D01*
X103479Y43041D01*
X103485Y43085D01*
X103494Y43123D01*
X103502Y43159D01*
X103510Y43186D01*
X103519Y43207D01*
X103523Y43216D01*
X103525Y43222D01*
X103527Y43224D01*
Y43226D01*
X103548Y43264D01*
X103571Y43297D01*
X103595Y43327D01*
X103618Y43352D01*
X103639Y43373D01*
X103655Y43388D01*
X103666Y43398D01*
X103668Y43400D01*
X103670D01*
Y43493D01*
X103315D01*
Y43728D01*
X103599D01*
X103634Y43726D01*
D02*
G37*
G36*
X92773D02*
X92805Y43720D01*
X92832Y43709D01*
X92853Y43699D01*
X92870Y43686D01*
X92882Y43678D01*
X92889Y43669D01*
X92891Y43667D01*
X92905Y43644D01*
X92918Y43619D01*
X92926Y43594D01*
X92931Y43568D01*
X92935Y43547D01*
X92937Y43531D01*
Y43520D01*
Y43518D01*
Y43516D01*
Y43476D01*
X92985Y43495D01*
X93036Y43510D01*
X93086Y43520D01*
X93132Y43529D01*
X93155Y43531D01*
X93174Y43533D01*
X93191D01*
X93208Y43535D01*
X93237D01*
X93288Y43533D01*
X93336Y43529D01*
X93378Y43522D01*
X93416Y43516D01*
X93445Y43508D01*
X93458Y43503D01*
X93468Y43501D01*
X93479Y43499D01*
X93485Y43497D01*
X93487Y43495D01*
X93489D01*
X93529Y43478D01*
X93567Y43461D01*
X93600Y43442D01*
X93630Y43426D01*
X93653Y43409D01*
X93670Y43396D01*
X93680Y43388D01*
X93685Y43386D01*
X93714Y43358D01*
X93739Y43329D01*
X93760Y43302D01*
X93779Y43274D01*
X93792Y43251D01*
X93802Y43232D01*
X93809Y43220D01*
X93811Y43218D01*
Y43216D01*
X93825Y43178D01*
X93836Y43138D01*
X93842Y43100D01*
X93846Y43066D01*
X93850Y43037D01*
X93853Y43014D01*
Y43006D01*
Y42999D01*
Y42995D01*
Y42993D01*
X93848Y42932D01*
X93840Y42878D01*
X93827Y42827D01*
X93813Y42785D01*
X93806Y42766D01*
X93800Y42749D01*
X93794Y42735D01*
X93787Y42724D01*
X93781Y42714D01*
X93779Y42707D01*
X93775Y42703D01*
Y42701D01*
X93743Y42659D01*
X93708Y42621D01*
X93670Y42590D01*
X93634Y42562D01*
X93603Y42544D01*
X93588Y42535D01*
X93575Y42529D01*
X93567Y42523D01*
X93559Y42518D01*
X93554Y42516D01*
X93552D01*
Y42502D01*
X93596Y42489D01*
X93636Y42474D01*
X93670Y42460D01*
X93699Y42445D01*
X93722Y42432D01*
X93739Y42422D01*
X93750Y42413D01*
X93754Y42411D01*
X93779Y42386D01*
X93798Y42359D01*
X93813Y42329D01*
X93821Y42300D01*
X93827Y42275D01*
X93829Y42252D01*
X93832Y42243D01*
Y42239D01*
Y42235D01*
Y42233D01*
X93829Y42203D01*
X93825Y42178D01*
X93819Y42155D01*
X93811Y42134D01*
X93804Y42119D01*
X93798Y42109D01*
X93794Y42101D01*
X93792Y42098D01*
X93775Y42079D01*
X93758Y42063D01*
X93739Y42048D01*
X93720Y42037D01*
X93703Y42027D01*
X93691Y42021D01*
X93682Y42017D01*
X93678Y42014D01*
Y41981D01*
X93722Y41968D01*
X93762Y41951D01*
X93796Y41935D01*
X93823Y41918D01*
X93844Y41903D01*
X93861Y41890D01*
X93869Y41882D01*
X93874Y41880D01*
X93897Y41851D01*
X93911Y41819D01*
X93924Y41785D01*
X93932Y41754D01*
X93937Y41727D01*
X93939Y41704D01*
X93941Y41695D01*
Y41689D01*
Y41685D01*
Y41683D01*
X93939Y41649D01*
X93935Y41620D01*
X93928Y41592D01*
X93922Y41569D01*
X93915Y41550D01*
X93909Y41536D01*
X93905Y41527D01*
X93903Y41523D01*
X93886Y41498D01*
X93867Y41475D01*
X93846Y41454D01*
X93825Y41437D01*
X93809Y41422D01*
X93794Y41412D01*
X93783Y41405D01*
X93779Y41403D01*
X93745Y41387D01*
X93708Y41370D01*
X93672Y41357D01*
X93636Y41347D01*
X93605Y41338D01*
X93582Y41332D01*
X93571Y41330D01*
X93565D01*
X93561Y41328D01*
X93559D01*
X93504Y41319D01*
X93449Y41313D01*
X93393Y41307D01*
X93340Y41305D01*
X93317Y41302D01*
X93294D01*
X93275Y41300D01*
X93225D01*
X93151Y41302D01*
X93084Y41305D01*
X93019Y41311D01*
X92960Y41317D01*
X92908Y41328D01*
X92857Y41336D01*
X92813Y41347D01*
X92773Y41357D01*
X92738Y41368D01*
X92708Y41378D01*
X92683Y41389D01*
X92662Y41397D01*
X92645Y41403D01*
X92632Y41410D01*
X92626Y41412D01*
X92624Y41414D01*
X92588Y41437D01*
X92559Y41462D01*
X92532Y41489D01*
X92511Y41517D01*
X92492Y41546D01*
X92475Y41576D01*
X92462Y41605D01*
X92452Y41632D01*
X92443Y41660D01*
X92437Y41685D01*
X92433Y41708D01*
X92429Y41727D01*
Y41743D01*
X92427Y41756D01*
Y41765D01*
Y41767D01*
X92429Y41802D01*
X92433Y41834D01*
X92439Y41865D01*
X92448Y41895D01*
X92458Y41922D01*
X92471Y41947D01*
X92481Y41970D01*
X92494Y41991D01*
X92509Y42010D01*
X92519Y42027D01*
X92532Y42040D01*
X92542Y42052D01*
X92550Y42061D01*
X92557Y42067D01*
X92561Y42071D01*
X92563Y42073D01*
X92590Y42094D01*
X92622Y42111D01*
X92656Y42128D01*
X92691Y42140D01*
X92765Y42161D01*
X92836Y42174D01*
X92872Y42178D01*
X92903Y42182D01*
X92933Y42184D01*
X92958Y42187D01*
X92979Y42189D01*
X93393D01*
X93426Y42193D01*
X93458Y42195D01*
X93483Y42199D01*
X93504Y42203D01*
X93519Y42206D01*
X93527Y42210D01*
X93531D01*
X93554Y42220D01*
X93571Y42233D01*
X93584Y42248D01*
X93592Y42264D01*
X93596Y42279D01*
X93599Y42292D01*
X93600Y42300D01*
Y42302D01*
X93599Y42327D01*
X93590Y42346D01*
X93588Y42355D01*
X93584Y42361D01*
X93582Y42363D01*
Y42365D01*
X93567Y42384D01*
X93550Y42399D01*
X93537Y42409D01*
X93536Y42413D01*
X93533D01*
X93510Y42428D01*
X93491Y42437D01*
X93483Y42441D01*
X93477Y42443D01*
X93472Y42445D01*
X93470D01*
X93445Y42453D01*
X93424Y42462D01*
X93416Y42464D01*
X93410Y42466D01*
X93405Y42468D01*
X93403D01*
X93374Y42462D01*
X93349Y42458D01*
X93338D01*
X93330Y42455D01*
X93323D01*
X93292Y42453D01*
X93237D01*
X93187Y42455D01*
X93138Y42460D01*
X93097Y42466D01*
X93059Y42472D01*
X93029Y42478D01*
X93017Y42483D01*
X93004Y42485D01*
X92996Y42487D01*
X92989Y42489D01*
X92987Y42491D01*
X92985D01*
X92943Y42508D01*
X92905Y42525D01*
X92872Y42544D01*
X92842Y42560D01*
X92819Y42577D01*
X92803Y42590D01*
X92792Y42598D01*
X92788Y42600D01*
X92759Y42628D01*
X92733Y42655D01*
X92712Y42684D01*
X92693Y42709D01*
X92681Y42733D01*
X92670Y42752D01*
X92664Y42764D01*
X92662Y42766D01*
Y42768D01*
X92647Y42806D01*
X92635Y42846D01*
X92626Y42884D01*
X92622Y42919D01*
X92618Y42949D01*
X92616Y42972D01*
Y42980D01*
Y42987D01*
Y42991D01*
Y42993D01*
X92618Y43041D01*
X92624Y43085D01*
X92632Y43123D01*
X92641Y43159D01*
X92649Y43186D01*
X92658Y43207D01*
X92662Y43216D01*
X92664Y43222D01*
X92666Y43224D01*
Y43226D01*
X92687Y43264D01*
X92710Y43297D01*
X92733Y43327D01*
X92756Y43352D01*
X92777Y43373D01*
X92794Y43388D01*
X92805Y43398D01*
X92807Y43400D01*
X92809D01*
Y43493D01*
X92454D01*
Y43728D01*
X92738D01*
X92773Y43726D01*
D02*
G37*
%LPC*%
G36*
X172358Y51087D02*
X172150D01*
Y50825D01*
X172358D01*
Y51087D01*
D02*
G37*
G36*
X171856Y50616D02*
X171597D01*
Y50341D01*
X171729D01*
X171751Y50347D01*
X171774Y50354D01*
X171789Y50360D01*
X171818Y50379D01*
X171837Y50401D01*
X171846Y50423D01*
X171852Y50442D01*
X171856Y50455D01*
Y50461D01*
Y50616D01*
D02*
G37*
G36*
X172949D02*
X172671D01*
X172684Y50565D01*
X172696Y50518D01*
X172715Y50477D01*
X172734Y50442D01*
X172756Y50414D01*
X172782Y50388D01*
X172804Y50370D01*
X172829Y50351D01*
X172851Y50338D01*
X172873Y50328D01*
X172911Y50313D01*
X172927Y50309D01*
X172940Y50306D01*
X172949D01*
Y50616D01*
D02*
G37*
G36*
X172377D02*
X172150D01*
Y50426D01*
X172146Y50376D01*
X172137Y50328D01*
X172124Y50291D01*
X172105Y50256D01*
X172086Y50227D01*
X172061Y50205D01*
X172039Y50186D01*
X172010Y50170D01*
X171985Y50158D01*
X171960Y50148D01*
X171938Y50142D01*
X171919Y50136D01*
X171900D01*
X171887Y50133D01*
X171597D01*
Y49959D01*
X172949D01*
Y50028D01*
X172898Y50038D01*
X172851Y50050D01*
X172766Y50079D01*
X172690Y50114D01*
X172624Y50155D01*
X172570Y50202D01*
X172522Y50253D01*
X172484Y50303D01*
X172453Y50354D01*
X172431Y50404D01*
X172412Y50452D01*
X172396Y50496D01*
X172387Y50537D01*
X172383Y50569D01*
X172380Y50594D01*
X172377Y50610D01*
Y50616D01*
D02*
G37*
G36*
X172949Y49750D02*
X171597D01*
Y49542D01*
X172949D01*
Y49750D01*
D02*
G37*
G36*
X170955Y42024D02*
X170383D01*
X170402Y42005D01*
X170421Y41986D01*
X170468Y41945D01*
X170519Y41904D01*
X170570Y41866D01*
X170617Y41835D01*
X170655Y41806D01*
X170671Y41797D01*
X170683Y41790D01*
X170690Y41787D01*
X170693Y41784D01*
X170753Y41825D01*
X170807Y41866D01*
X170851Y41907D01*
X170889Y41942D01*
X170917Y41977D01*
X170939Y42002D01*
X170952Y42018D01*
X170955Y42024D01*
D02*
G37*
G36*
X172946Y42059D02*
X172582D01*
Y41765D01*
X172946D01*
Y42059D01*
D02*
G37*
G36*
X172289D02*
X171925D01*
Y41765D01*
X172289D01*
Y42059D01*
D02*
G37*
G36*
X172339Y40950D02*
X170901D01*
Y40760D01*
X172339D01*
Y40950D01*
D02*
G37*
G36*
Y40552D02*
X170901D01*
Y40327D01*
X172339D01*
Y40552D01*
D02*
G37*
G36*
Y40119D02*
X170901D01*
Y39894D01*
X172339Y39860D01*
Y40119D01*
D02*
G37*
G36*
X171890Y46494D02*
X170348D01*
Y45609D01*
X171890D01*
Y46494D01*
D02*
G37*
G36*
Y45280D02*
X170348D01*
Y44361D01*
X171890D01*
Y45280D01*
D02*
G37*
G36*
X107784Y48048D02*
X107435D01*
Y47804D01*
X107437Y47783D01*
X107440Y47763D01*
X107452Y47725D01*
X107471Y47691D01*
X107492Y47664D01*
X107513Y47641D01*
X107532Y47624D01*
X107545Y47613D01*
X107547Y47609D01*
X107549D01*
X107593Y47584D01*
X107641Y47565D01*
X107687Y47550D01*
X107734Y47542D01*
X107773Y47536D01*
X107790Y47534D01*
X107805D01*
X107818Y47532D01*
X107834D01*
X107885Y47534D01*
X107929Y47540D01*
X107969Y47550D01*
X108000Y47561D01*
X108026Y47569D01*
X108044Y47580D01*
X108055Y47586D01*
X108059Y47588D01*
X108086Y47611D01*
X108105Y47639D01*
X108120Y47668D01*
X108128Y47695D01*
X108135Y47721D01*
X108137Y47741D01*
X108139Y47750D01*
Y47756D01*
Y47758D01*
Y47760D01*
Y47823D01*
X108137Y47842D01*
X108135Y47861D01*
X108124Y47895D01*
X108109Y47924D01*
X108091Y47947D01*
X108074Y47966D01*
X108059Y47979D01*
X108049Y47987D01*
X108044Y47989D01*
X108026Y48000D01*
X108004Y48008D01*
X107958Y48023D01*
X107910Y48033D01*
X107862Y48042D01*
X107818Y48046D01*
X107799D01*
X107784Y48048D01*
D02*
G37*
G36*
X102301Y49151D02*
X102274D01*
X101996Y48176D01*
X102578D01*
X102301Y49151D01*
D02*
G37*
G36*
X111352Y48708D02*
X111333D01*
X111297Y48705D01*
X111266Y48703D01*
X111205Y48689D01*
X111178Y48680D01*
X111152Y48670D01*
X111129Y48659D01*
X111108Y48649D01*
X111089Y48638D01*
X111073Y48628D01*
X111060Y48617D01*
X111047Y48609D01*
X111039Y48600D01*
X111033Y48594D01*
X111028Y48592D01*
X111026Y48590D01*
X111005Y48567D01*
X110989Y48542D01*
X110972Y48514D01*
X110959Y48487D01*
X110938Y48428D01*
X110925Y48371D01*
X110921Y48344D01*
X110917Y48319D01*
X110915Y48298D01*
X110913Y48277D01*
X110911Y48262D01*
Y48250D01*
Y48241D01*
Y48239D01*
Y48010D01*
X110913Y47968D01*
X110915Y47928D01*
X110921Y47891D01*
X110930Y47857D01*
X110938Y47826D01*
X110947Y47796D01*
X110957Y47771D01*
X110968Y47748D01*
X110980Y47727D01*
X110991Y47708D01*
X110999Y47693D01*
X111007Y47681D01*
X111016Y47672D01*
X111022Y47666D01*
X111024Y47662D01*
X111026Y47660D01*
X111049Y47639D01*
X111073Y47622D01*
X111098Y47607D01*
X111123Y47592D01*
X111173Y47571D01*
X111224Y47559D01*
X111245Y47555D01*
X111266Y47550D01*
X111285Y47548D01*
X111301Y47546D01*
X111314Y47544D01*
X111333D01*
X111369Y47546D01*
X111402Y47548D01*
X111463Y47563D01*
X111490Y47571D01*
X111516Y47580D01*
X111539Y47590D01*
X111560Y47603D01*
X111579Y47613D01*
X111595Y47624D01*
X111608Y47632D01*
X111621Y47641D01*
X111629Y47649D01*
X111635Y47655D01*
X111640Y47657D01*
X111642Y47660D01*
X111663Y47683D01*
X111679Y47708D01*
X111694Y47735D01*
X111709Y47763D01*
X111730Y47821D01*
X111742Y47878D01*
X111747Y47905D01*
X111751Y47930D01*
X111753Y47951D01*
X111755Y47973D01*
X111757Y47987D01*
Y48000D01*
Y48008D01*
Y48010D01*
Y48239D01*
X111755Y48281D01*
X111753Y48321D01*
X111747Y48359D01*
X111738Y48393D01*
X111730Y48424D01*
X111722Y48453D01*
X111711Y48479D01*
X111698Y48504D01*
X111688Y48523D01*
X111677Y48542D01*
X111669Y48556D01*
X111661Y48569D01*
X111652Y48577D01*
X111646Y48584D01*
X111644Y48588D01*
X111642Y48590D01*
X111619Y48611D01*
X111595Y48630D01*
X111570Y48645D01*
X111545Y48657D01*
X111493Y48678D01*
X111444Y48693D01*
X111421Y48697D01*
X111400Y48701D01*
X111381Y48703D01*
X111364Y48705D01*
X111352Y48708D01*
D02*
G37*
G36*
X95110Y45331D02*
X94762D01*
Y45088D01*
X94764Y45067D01*
X94766Y45046D01*
X94779Y45008D01*
X94798Y44974D01*
X94819Y44947D01*
X94840Y44924D01*
X94858Y44907D01*
X94871Y44897D01*
X94873Y44893D01*
X94875D01*
X94919Y44867D01*
X94968Y44848D01*
X95014Y44834D01*
X95060Y44825D01*
X95100Y44819D01*
X95117Y44817D01*
X95131D01*
X95144Y44815D01*
X95161D01*
X95211Y44817D01*
X95255Y44823D01*
X95295Y44834D01*
X95327Y44844D01*
X95352Y44853D01*
X95371Y44863D01*
X95381Y44870D01*
X95386Y44872D01*
X95413Y44895D01*
X95432Y44922D01*
X95446Y44951D01*
X95455Y44979D01*
X95461Y45004D01*
X95463Y45025D01*
X95465Y45033D01*
Y45040D01*
Y45042D01*
Y45044D01*
Y45107D01*
X95463Y45126D01*
X95461Y45145D01*
X95451Y45178D01*
X95436Y45208D01*
X95417Y45231D01*
X95400Y45250D01*
X95386Y45262D01*
X95375Y45271D01*
X95371Y45273D01*
X95352Y45283D01*
X95331Y45292D01*
X95285Y45306D01*
X95236Y45317D01*
X95188Y45325D01*
X95144Y45329D01*
X95125D01*
X95110Y45331D01*
D02*
G37*
G36*
X116768Y46001D02*
X116751D01*
X116717Y45999D01*
X116686Y45997D01*
X116654Y45991D01*
X116627Y45983D01*
X116577Y45964D01*
X116553Y45953D01*
X116533Y45943D01*
X116516Y45930D01*
X116499Y45919D01*
X116486Y45909D01*
X116476Y45901D01*
X116465Y45892D01*
X116459Y45886D01*
X116457Y45884D01*
X116455Y45882D01*
X116436Y45859D01*
X116417Y45833D01*
X116402Y45808D01*
X116390Y45781D01*
X116371Y45728D01*
X116358Y45678D01*
X116352Y45655D01*
X116350Y45634D01*
X116348Y45615D01*
X116346Y45598D01*
X116344Y45584D01*
Y45573D01*
Y45567D01*
Y45565D01*
Y45533D01*
X117186D01*
Y45556D01*
X117183Y45592D01*
X117181Y45625D01*
X117175Y45655D01*
X117169Y45682D01*
X117165Y45703D01*
X117158Y45720D01*
X117156Y45731D01*
X117154Y45735D01*
X117139Y45764D01*
X117125Y45791D01*
X117110Y45814D01*
X117095Y45836D01*
X117083Y45852D01*
X117072Y45865D01*
X117064Y45873D01*
X117062Y45875D01*
X117039Y45896D01*
X117016Y45915D01*
X116992Y45930D01*
X116972Y45945D01*
X116953Y45953D01*
X116938Y45961D01*
X116929Y45966D01*
X116925Y45968D01*
X116896Y45978D01*
X116864Y45987D01*
X116835Y45993D01*
X116810Y45997D01*
X116785Y45999D01*
X116768Y46001D01*
D02*
G37*
G36*
X105906D02*
X105890D01*
X105856Y45999D01*
X105825Y45997D01*
X105793Y45991D01*
X105766Y45983D01*
X105716Y45964D01*
X105692Y45953D01*
X105671Y45943D01*
X105655Y45930D01*
X105638Y45919D01*
X105625Y45909D01*
X105615Y45901D01*
X105604Y45892D01*
X105598Y45886D01*
X105596Y45884D01*
X105594Y45882D01*
X105575Y45859D01*
X105556Y45833D01*
X105541Y45808D01*
X105528Y45781D01*
X105510Y45728D01*
X105497Y45678D01*
X105491Y45655D01*
X105489Y45634D01*
X105487Y45615D01*
X105484Y45598D01*
X105482Y45584D01*
Y45573D01*
Y45567D01*
Y45565D01*
Y45533D01*
X106325D01*
Y45556D01*
X106322Y45592D01*
X106320Y45625D01*
X106314Y45655D01*
X106308Y45682D01*
X106303Y45703D01*
X106297Y45720D01*
X106295Y45731D01*
X106293Y45735D01*
X106278Y45764D01*
X106264Y45791D01*
X106249Y45814D01*
X106234Y45836D01*
X106222Y45852D01*
X106211Y45865D01*
X106203Y45873D01*
X106201Y45875D01*
X106177Y45896D01*
X106154Y45915D01*
X106131Y45930D01*
X106110Y45945D01*
X106091Y45953D01*
X106077Y45961D01*
X106068Y45966D01*
X106064Y45968D01*
X106035Y45978D01*
X106003Y45987D01*
X105974Y45993D01*
X105949Y45997D01*
X105923Y45999D01*
X105906Y46001D01*
D02*
G37*
G36*
X102286D02*
X102269D01*
X102236Y45999D01*
X102204Y45997D01*
X102173Y45991D01*
X102146Y45983D01*
X102095Y45964D01*
X102072Y45953D01*
X102051Y45943D01*
X102034Y45930D01*
X102017Y45919D01*
X102005Y45909D01*
X101994Y45901D01*
X101984Y45892D01*
X101977Y45886D01*
X101975Y45884D01*
X101973Y45882D01*
X101954Y45859D01*
X101936Y45833D01*
X101921Y45808D01*
X101908Y45781D01*
X101889Y45728D01*
X101877Y45678D01*
X101870Y45655D01*
X101868Y45634D01*
X101866Y45615D01*
X101864Y45598D01*
X101862Y45584D01*
Y45573D01*
Y45567D01*
Y45565D01*
Y45533D01*
X102704D01*
Y45556D01*
X102702Y45592D01*
X102700Y45625D01*
X102694Y45655D01*
X102687Y45682D01*
X102683Y45703D01*
X102677Y45720D01*
X102675Y45731D01*
X102673Y45735D01*
X102658Y45764D01*
X102643Y45791D01*
X102628Y45814D01*
X102614Y45836D01*
X102601Y45852D01*
X102591Y45865D01*
X102582Y45873D01*
X102580Y45875D01*
X102557Y45896D01*
X102534Y45915D01*
X102511Y45930D01*
X102490Y45945D01*
X102471Y45953D01*
X102456Y45961D01*
X102448Y45966D01*
X102444Y45968D01*
X102414Y45978D01*
X102383Y45987D01*
X102353Y45993D01*
X102328Y45997D01*
X102303Y45999D01*
X102286Y46001D01*
D02*
G37*
G36*
X87805D02*
X87788D01*
X87754Y45999D01*
X87723Y45997D01*
X87691Y45991D01*
X87664Y45983D01*
X87613Y45964D01*
X87590Y45953D01*
X87569Y45943D01*
X87552Y45930D01*
X87536Y45919D01*
X87523Y45909D01*
X87513Y45901D01*
X87502Y45892D01*
X87496Y45886D01*
X87494Y45884D01*
X87492Y45882D01*
X87473Y45859D01*
X87454Y45833D01*
X87439Y45808D01*
X87427Y45781D01*
X87408Y45728D01*
X87395Y45678D01*
X87389Y45655D01*
X87387Y45634D01*
X87385Y45615D01*
X87382Y45598D01*
X87380Y45584D01*
Y45573D01*
Y45567D01*
Y45565D01*
Y45533D01*
X88222D01*
Y45556D01*
X88220Y45592D01*
X88218Y45625D01*
X88212Y45655D01*
X88206Y45682D01*
X88201Y45703D01*
X88195Y45720D01*
X88193Y45731D01*
X88191Y45735D01*
X88176Y45764D01*
X88161Y45791D01*
X88147Y45814D01*
X88132Y45836D01*
X88120Y45852D01*
X88109Y45865D01*
X88101Y45873D01*
X88099Y45875D01*
X88076Y45896D01*
X88052Y45915D01*
X88029Y45930D01*
X88008Y45945D01*
X87989Y45953D01*
X87975Y45961D01*
X87966Y45966D01*
X87962Y45968D01*
X87933Y45978D01*
X87901Y45987D01*
X87872Y45993D01*
X87847Y45997D01*
X87821Y45999D01*
X87805Y46001D01*
D02*
G37*
G36*
X122543Y46489D02*
X122087D01*
X122030Y46484D01*
X121982Y46476D01*
X121940Y46463D01*
X121904Y46451D01*
X121879Y46436D01*
X121858Y46424D01*
X121848Y46415D01*
X121844Y46411D01*
X121816Y46379D01*
X121795Y46344D01*
X121780Y46306D01*
X121770Y46270D01*
X121764Y46239D01*
X121762Y46224D01*
Y46211D01*
X121759Y46203D01*
Y46195D01*
Y46190D01*
Y46188D01*
Y46046D01*
X121764Y45995D01*
X121772Y45949D01*
X121787Y45911D01*
X121801Y45880D01*
X121816Y45854D01*
X121831Y45838D01*
X121839Y45827D01*
X121844Y45823D01*
X121877Y45798D01*
X121917Y45779D01*
X121957Y45766D01*
X121997Y45758D01*
X122032Y45752D01*
X122047Y45749D01*
X122060D01*
X122072Y45747D01*
X122543D01*
Y46489D01*
D02*
G37*
G36*
X120401Y45991D02*
X120382D01*
X120346Y45989D01*
X120315Y45987D01*
X120254Y45972D01*
X120226Y45964D01*
X120201Y45953D01*
X120178Y45943D01*
X120157Y45932D01*
X120138Y45922D01*
X120122Y45911D01*
X120109Y45901D01*
X120096Y45892D01*
X120088Y45884D01*
X120081Y45878D01*
X120077Y45875D01*
X120075Y45873D01*
X120054Y45850D01*
X120037Y45825D01*
X120021Y45798D01*
X120008Y45770D01*
X119987Y45712D01*
X119975Y45655D01*
X119970Y45628D01*
X119966Y45602D01*
X119964Y45581D01*
X119962Y45560D01*
X119960Y45546D01*
Y45533D01*
Y45525D01*
Y45523D01*
Y45294D01*
X119962Y45252D01*
X119964Y45212D01*
X119970Y45174D01*
X119979Y45140D01*
X119987Y45109D01*
X119995Y45079D01*
X120006Y45054D01*
X120017Y45031D01*
X120029Y45010D01*
X120040Y44991D01*
X120048Y44977D01*
X120056Y44964D01*
X120065Y44956D01*
X120071Y44949D01*
X120073Y44945D01*
X120075Y44943D01*
X120098Y44922D01*
X120122Y44905D01*
X120147Y44890D01*
X120172Y44876D01*
X120222Y44855D01*
X120273Y44842D01*
X120294Y44838D01*
X120315Y44834D01*
X120334Y44832D01*
X120350Y44830D01*
X120363Y44827D01*
X120382D01*
X120418Y44830D01*
X120451Y44832D01*
X120512Y44846D01*
X120539Y44855D01*
X120565Y44863D01*
X120588Y44874D01*
X120609Y44886D01*
X120627Y44897D01*
X120644Y44907D01*
X120657Y44916D01*
X120670Y44924D01*
X120678Y44932D01*
X120684Y44939D01*
X120688Y44941D01*
X120691Y44943D01*
X120712Y44966D01*
X120728Y44991D01*
X120743Y45019D01*
X120758Y45046D01*
X120779Y45105D01*
X120791Y45161D01*
X120796Y45189D01*
X120800Y45214D01*
X120802Y45235D01*
X120804Y45256D01*
X120806Y45271D01*
Y45283D01*
Y45292D01*
Y45294D01*
Y45523D01*
X120804Y45565D01*
X120802Y45605D01*
X120796Y45642D01*
X120787Y45676D01*
X120779Y45707D01*
X120770Y45737D01*
X120760Y45762D01*
X120747Y45787D01*
X120737Y45806D01*
X120726Y45825D01*
X120718Y45840D01*
X120709Y45852D01*
X120701Y45861D01*
X120695Y45867D01*
X120693Y45871D01*
X120691Y45873D01*
X120668Y45894D01*
X120644Y45913D01*
X120619Y45928D01*
X120594Y45941D01*
X120542Y45961D01*
X120493Y45976D01*
X120470Y45980D01*
X120449Y45985D01*
X120430Y45987D01*
X120413Y45989D01*
X120401Y45991D01*
D02*
G37*
G36*
X109540D02*
X109521D01*
X109485Y45989D01*
X109453Y45987D01*
X109393Y45972D01*
X109365Y45964D01*
X109340Y45953D01*
X109317Y45943D01*
X109296Y45932D01*
X109277Y45922D01*
X109260Y45911D01*
X109248Y45901D01*
X109235Y45892D01*
X109227Y45884D01*
X109220Y45878D01*
X109216Y45875D01*
X109214Y45873D01*
X109193Y45850D01*
X109176Y45825D01*
X109159Y45798D01*
X109147Y45770D01*
X109126Y45712D01*
X109113Y45655D01*
X109109Y45628D01*
X109105Y45602D01*
X109103Y45581D01*
X109101Y45560D01*
X109099Y45546D01*
Y45533D01*
Y45525D01*
Y45523D01*
Y45294D01*
X109101Y45252D01*
X109103Y45212D01*
X109109Y45174D01*
X109117Y45140D01*
X109126Y45109D01*
X109134Y45079D01*
X109145Y45054D01*
X109155Y45031D01*
X109168Y45010D01*
X109178Y44991D01*
X109187Y44977D01*
X109195Y44964D01*
X109204Y44956D01*
X109210Y44949D01*
X109212Y44945D01*
X109214Y44943D01*
X109237Y44922D01*
X109260Y44905D01*
X109285Y44890D01*
X109311Y44876D01*
X109361Y44855D01*
X109411Y44842D01*
X109432Y44838D01*
X109453Y44834D01*
X109472Y44832D01*
X109489Y44830D01*
X109502Y44827D01*
X109521D01*
X109556Y44830D01*
X109590Y44832D01*
X109651Y44846D01*
X109678Y44855D01*
X109703Y44863D01*
X109726Y44874D01*
X109748Y44886D01*
X109766Y44897D01*
X109783Y44907D01*
X109796Y44916D01*
X109808Y44924D01*
X109817Y44932D01*
X109823Y44939D01*
X109827Y44941D01*
X109829Y44943D01*
X109850Y44966D01*
X109867Y44991D01*
X109882Y45019D01*
X109897Y45046D01*
X109918Y45105D01*
X109930Y45161D01*
X109934Y45189D01*
X109939Y45214D01*
X109941Y45235D01*
X109943Y45256D01*
X109945Y45271D01*
Y45283D01*
Y45292D01*
Y45294D01*
Y45523D01*
X109943Y45565D01*
X109941Y45605D01*
X109934Y45642D01*
X109926Y45676D01*
X109918Y45707D01*
X109909Y45737D01*
X109899Y45762D01*
X109886Y45787D01*
X109876Y45806D01*
X109865Y45825D01*
X109857Y45840D01*
X109848Y45852D01*
X109840Y45861D01*
X109834Y45867D01*
X109831Y45871D01*
X109829Y45873D01*
X109806Y45894D01*
X109783Y45913D01*
X109758Y45928D01*
X109733Y45941D01*
X109680Y45961D01*
X109632Y45976D01*
X109609Y45980D01*
X109588Y45985D01*
X109569Y45987D01*
X109552Y45989D01*
X109540Y45991D01*
D02*
G37*
G36*
X120384Y43312D02*
X120367D01*
X120334Y43310D01*
X120302Y43308D01*
X120271Y43302D01*
X120243Y43293D01*
X120193Y43274D01*
X120170Y43264D01*
X120149Y43253D01*
X120132Y43241D01*
X120115Y43230D01*
X120103Y43220D01*
X120092Y43211D01*
X120081Y43203D01*
X120075Y43197D01*
X120073Y43195D01*
X120071Y43192D01*
X120052Y43169D01*
X120033Y43144D01*
X120019Y43119D01*
X120006Y43092D01*
X119987Y43039D01*
X119975Y42989D01*
X119968Y42966D01*
X119966Y42945D01*
X119964Y42926D01*
X119962Y42909D01*
X119960Y42894D01*
Y42884D01*
Y42878D01*
Y42875D01*
Y42844D01*
X120802D01*
Y42867D01*
X120800Y42903D01*
X120798Y42936D01*
X120791Y42966D01*
X120785Y42993D01*
X120781Y43014D01*
X120774Y43031D01*
X120773Y43041D01*
X120770Y43045D01*
X120756Y43075D01*
X120741Y43102D01*
X120726Y43125D01*
X120712Y43146D01*
X120699Y43163D01*
X120688Y43176D01*
X120680Y43184D01*
X120678Y43186D01*
X120655Y43207D01*
X120632Y43226D01*
X120609Y43241D01*
X120588Y43255D01*
X120569Y43264D01*
X120554Y43272D01*
X120546Y43277D01*
X120542Y43279D01*
X120512Y43289D01*
X120481Y43297D01*
X120451Y43304D01*
X120426Y43308D01*
X120401Y43310D01*
X120384Y43312D01*
D02*
G37*
G36*
X107713D02*
X107696D01*
X107662Y43310D01*
X107631Y43308D01*
X107599Y43302D01*
X107572Y43293D01*
X107521Y43274D01*
X107498Y43264D01*
X107477Y43253D01*
X107460Y43241D01*
X107444Y43230D01*
X107431Y43220D01*
X107421Y43211D01*
X107410Y43203D01*
X107404Y43197D01*
X107402Y43195D01*
X107400Y43192D01*
X107381Y43169D01*
X107362Y43144D01*
X107347Y43119D01*
X107334Y43092D01*
X107316Y43039D01*
X107303Y42989D01*
X107297Y42966D01*
X107295Y42945D01*
X107293Y42926D01*
X107290Y42909D01*
X107288Y42894D01*
Y42884D01*
Y42878D01*
Y42875D01*
Y42844D01*
X108130D01*
Y42867D01*
X108128Y42903D01*
X108126Y42936D01*
X108120Y42966D01*
X108114Y42993D01*
X108109Y43014D01*
X108103Y43031D01*
X108101Y43041D01*
X108099Y43045D01*
X108084Y43075D01*
X108070Y43102D01*
X108055Y43125D01*
X108040Y43146D01*
X108028Y43163D01*
X108017Y43176D01*
X108009Y43184D01*
X108007Y43186D01*
X107983Y43207D01*
X107960Y43226D01*
X107937Y43241D01*
X107916Y43255D01*
X107897Y43264D01*
X107883Y43272D01*
X107874Y43277D01*
X107870Y43279D01*
X107841Y43289D01*
X107809Y43297D01*
X107780Y43304D01*
X107755Y43308D01*
X107729Y43310D01*
X107713Y43312D01*
D02*
G37*
G36*
X96851D02*
X96835D01*
X96801Y43310D01*
X96769Y43308D01*
X96738Y43302D01*
X96711Y43293D01*
X96660Y43274D01*
X96637Y43264D01*
X96616Y43253D01*
X96599Y43241D01*
X96583Y43230D01*
X96570Y43220D01*
X96560Y43211D01*
X96549Y43203D01*
X96543Y43197D01*
X96540Y43195D01*
X96539Y43192D01*
X96520Y43169D01*
X96501Y43144D01*
X96486Y43119D01*
X96473Y43092D01*
X96454Y43039D01*
X96442Y42989D01*
X96436Y42966D01*
X96434Y42945D01*
X96431Y42926D01*
X96429Y42909D01*
X96427Y42894D01*
Y42884D01*
Y42878D01*
Y42875D01*
Y42844D01*
X97269D01*
Y42867D01*
X97267Y42903D01*
X97265Y42936D01*
X97259Y42966D01*
X97252Y42993D01*
X97248Y43014D01*
X97242Y43031D01*
X97240Y43041D01*
X97238Y43045D01*
X97223Y43075D01*
X97208Y43102D01*
X97194Y43125D01*
X97179Y43146D01*
X97166Y43163D01*
X97156Y43176D01*
X97148Y43184D01*
X97145Y43186D01*
X97122Y43207D01*
X97099Y43226D01*
X97076Y43241D01*
X97055Y43255D01*
X97036Y43264D01*
X97022Y43272D01*
X97013Y43277D01*
X97009Y43279D01*
X96979Y43289D01*
X96948Y43297D01*
X96919Y43304D01*
X96893Y43308D01*
X96868Y43310D01*
X96851Y43312D01*
D02*
G37*
G36*
X122545Y43808D02*
X122163D01*
X122106Y43806D01*
X122055Y43797D01*
X122014Y43787D01*
X121978Y43774D01*
X121950Y43760D01*
X121932Y43749D01*
X121919Y43741D01*
X121915Y43738D01*
X121885Y43711D01*
X121864Y43678D01*
X121848Y43642D01*
X121837Y43608D01*
X121831Y43577D01*
X121829Y43549D01*
X121827Y43541D01*
Y43533D01*
Y43529D01*
Y43526D01*
Y43415D01*
X121831Y43365D01*
X121841Y43321D01*
X121854Y43285D01*
X121871Y43255D01*
X121888Y43232D01*
X121900Y43216D01*
X121911Y43207D01*
X121915Y43203D01*
X121950Y43180D01*
X121991Y43165D01*
X122030Y43153D01*
X122070Y43144D01*
X122106Y43140D01*
X122123Y43138D01*
X122135D01*
X122148Y43136D01*
X122545D01*
Y43808D01*
D02*
G37*
G36*
Y42909D02*
X122116D01*
X122055Y42905D01*
X122003Y42896D01*
X121957Y42886D01*
X121919Y42871D01*
X121890Y42856D01*
X121877Y42850D01*
X121867Y42846D01*
X121860Y42840D01*
X121854Y42838D01*
X121850Y42833D01*
X121833Y42819D01*
X121818Y42802D01*
X121795Y42766D01*
X121778Y42728D01*
X121768Y42691D01*
X121759Y42657D01*
X121757Y42642D01*
Y42630D01*
X121755Y42619D01*
Y42611D01*
Y42607D01*
Y42605D01*
Y42487D01*
Y42458D01*
X121759Y42430D01*
X121770Y42384D01*
X121785Y42344D01*
X121801Y42311D01*
X121820Y42285D01*
X121835Y42268D01*
X121846Y42258D01*
X121848Y42254D01*
X121850D01*
X121888Y42229D01*
X121932Y42212D01*
X121976Y42199D01*
X122018Y42189D01*
X122058Y42184D01*
X122074Y42182D01*
X122087D01*
X122100Y42180D01*
X122545D01*
Y42909D01*
D02*
G37*
G36*
X115298Y43799D02*
X114842D01*
X114785Y43795D01*
X114737Y43787D01*
X114695Y43774D01*
X114659Y43762D01*
X114634Y43747D01*
X114613Y43734D01*
X114603Y43726D01*
X114599Y43722D01*
X114571Y43690D01*
X114550Y43655D01*
X114535Y43617D01*
X114525Y43581D01*
X114519Y43549D01*
X114517Y43535D01*
Y43522D01*
X114515Y43514D01*
Y43505D01*
Y43501D01*
Y43499D01*
Y43356D01*
X114519Y43306D01*
X114527Y43260D01*
X114542Y43222D01*
X114556Y43190D01*
X114571Y43165D01*
X114586Y43148D01*
X114594Y43138D01*
X114599Y43134D01*
X114632Y43108D01*
X114672Y43090D01*
X114712Y43077D01*
X114752Y43069D01*
X114787Y43062D01*
X114802Y43060D01*
X114815D01*
X114827Y43058D01*
X115298D01*
Y43799D01*
D02*
G37*
G36*
X113156Y43302D02*
X113137D01*
X113101Y43300D01*
X113070Y43297D01*
X113009Y43283D01*
X112981Y43274D01*
X112956Y43264D01*
X112933Y43253D01*
X112912Y43243D01*
X112893Y43232D01*
X112876Y43222D01*
X112864Y43211D01*
X112851Y43203D01*
X112843Y43195D01*
X112837Y43188D01*
X112832Y43186D01*
X112830Y43184D01*
X112809Y43161D01*
X112793Y43136D01*
X112776Y43108D01*
X112763Y43081D01*
X112742Y43022D01*
X112729Y42966D01*
X112725Y42938D01*
X112721Y42913D01*
X112719Y42892D01*
X112717Y42871D01*
X112715Y42856D01*
Y42844D01*
Y42836D01*
Y42833D01*
Y42605D01*
X112717Y42562D01*
X112719Y42523D01*
X112725Y42485D01*
X112734Y42451D01*
X112742Y42420D01*
X112750Y42390D01*
X112761Y42365D01*
X112771Y42342D01*
X112784Y42321D01*
X112795Y42302D01*
X112803Y42287D01*
X112811Y42275D01*
X112820Y42266D01*
X112826Y42260D01*
X112828Y42256D01*
X112830Y42254D01*
X112853Y42233D01*
X112876Y42216D01*
X112902Y42201D01*
X112927Y42187D01*
X112977Y42166D01*
X113028Y42153D01*
X113049Y42149D01*
X113070Y42145D01*
X113089Y42143D01*
X113105Y42140D01*
X113118Y42138D01*
X113137D01*
X113173Y42140D01*
X113206Y42143D01*
X113267Y42157D01*
X113294Y42166D01*
X113320Y42174D01*
X113343Y42184D01*
X113364Y42197D01*
X113382Y42208D01*
X113399Y42218D01*
X113412Y42226D01*
X113425Y42235D01*
X113433Y42243D01*
X113439Y42250D01*
X113444Y42252D01*
X113446Y42254D01*
X113467Y42277D01*
X113483Y42302D01*
X113498Y42329D01*
X113513Y42357D01*
X113534Y42415D01*
X113546Y42472D01*
X113550Y42500D01*
X113555Y42525D01*
X113557Y42546D01*
X113559Y42567D01*
X113561Y42581D01*
Y42594D01*
Y42602D01*
Y42605D01*
Y42833D01*
X113559Y42875D01*
X113557Y42915D01*
X113550Y42953D01*
X113542Y42987D01*
X113534Y43018D01*
X113525Y43048D01*
X113515Y43073D01*
X113502Y43098D01*
X113492Y43117D01*
X113481Y43136D01*
X113473Y43150D01*
X113464Y43163D01*
X113456Y43172D01*
X113450Y43178D01*
X113448Y43182D01*
X113446Y43184D01*
X113423Y43205D01*
X113399Y43224D01*
X113374Y43239D01*
X113349Y43251D01*
X113296Y43272D01*
X113248Y43287D01*
X113225Y43291D01*
X113204Y43295D01*
X113185Y43297D01*
X113168Y43300D01*
X113156Y43302D01*
D02*
G37*
G36*
X104115Y43329D02*
X104067D01*
X104038Y43325D01*
X104010Y43321D01*
X103987Y43316D01*
X103943Y43304D01*
X103907Y43289D01*
X103880Y43272D01*
X103861Y43260D01*
X103851Y43251D01*
X103847Y43247D01*
X103819Y43216D01*
X103798Y43180D01*
X103783Y43144D01*
X103775Y43111D01*
X103769Y43081D01*
X103767Y43056D01*
X103765Y43048D01*
Y43041D01*
Y43037D01*
Y43035D01*
Y42951D01*
X103769Y42905D01*
X103777Y42863D01*
X103790Y42825D01*
X103804Y42796D01*
X103821Y42770D01*
X103834Y42754D01*
X103842Y42743D01*
X103847Y42739D01*
X103863Y42724D01*
X103880Y42712D01*
X103920Y42693D01*
X103962Y42678D01*
X104002Y42670D01*
X104040Y42663D01*
X104056Y42661D01*
X104071D01*
X104082Y42659D01*
X104130D01*
X104159Y42663D01*
X104184Y42667D01*
X104210Y42672D01*
X104254Y42684D01*
X104290Y42699D01*
X104317Y42714D01*
X104336Y42726D01*
X104346Y42735D01*
X104350Y42739D01*
X104376Y42770D01*
X104395Y42806D01*
X104409Y42842D01*
X104418Y42875D01*
X104424Y42905D01*
X104426Y42930D01*
X104428Y42938D01*
Y42945D01*
Y42949D01*
Y42951D01*
Y43035D01*
X104424Y43081D01*
X104416Y43123D01*
X104403Y43161D01*
X104388Y43190D01*
X104376Y43216D01*
X104363Y43232D01*
X104355Y43243D01*
X104350Y43247D01*
X104334Y43262D01*
X104317Y43274D01*
X104277Y43295D01*
X104235Y43310D01*
X104195Y43319D01*
X104157Y43325D01*
X104140Y43327D01*
X104126D01*
X104115Y43329D01*
D02*
G37*
G36*
X104409Y41941D02*
X103838D01*
X103806Y41939D01*
X103781Y41937D01*
X103756Y41932D01*
X103733Y41928D01*
X103712Y41924D01*
X103695Y41920D01*
X103678Y41916D01*
X103653Y41905D01*
X103634Y41897D01*
X103626Y41890D01*
X103622Y41888D01*
X103599Y41867D01*
X103580Y41844D01*
X103567Y41821D01*
X103559Y41800D01*
X103554Y41781D01*
X103550Y41767D01*
Y41756D01*
Y41752D01*
X103552Y41731D01*
X103554Y41710D01*
X103567Y41674D01*
X103584Y41645D01*
X103605Y41620D01*
X103626Y41599D01*
X103643Y41584D01*
X103655Y41576D01*
X103657Y41573D01*
X103659D01*
X103681Y41563D01*
X103704Y41552D01*
X103752Y41538D01*
X103804Y41527D01*
X103853Y41521D01*
X103876Y41517D01*
X103897D01*
X103916Y41515D01*
X103932Y41513D01*
X104241D01*
X104273Y41515D01*
X104300Y41519D01*
X104327Y41523D01*
X104350Y41529D01*
X104372Y41536D01*
X104390Y41542D01*
X104407Y41548D01*
X104424Y41554D01*
X104437Y41561D01*
X104455Y41573D01*
X104466Y41582D01*
X104470Y41584D01*
X104495Y41611D01*
X104514Y41638D01*
X104527Y41668D01*
X104535Y41693D01*
X104542Y41716D01*
X104544Y41733D01*
X104546Y41746D01*
Y41750D01*
X104544Y41773D01*
X104540Y41796D01*
X104533Y41817D01*
X104525Y41836D01*
X104502Y41870D01*
X104476Y41895D01*
X104451Y41916D01*
X104428Y41930D01*
X104420Y41935D01*
X104413Y41939D01*
X104409Y41941D01*
D02*
G37*
G36*
X93254Y43329D02*
X93206D01*
X93176Y43325D01*
X93149Y43321D01*
X93126Y43316D01*
X93082Y43304D01*
X93046Y43289D01*
X93019Y43272D01*
X93000Y43260D01*
X92989Y43251D01*
X92985Y43247D01*
X92958Y43216D01*
X92937Y43180D01*
X92922Y43144D01*
X92914Y43111D01*
X92908Y43081D01*
X92905Y43056D01*
X92903Y43048D01*
Y43041D01*
Y43037D01*
Y43035D01*
Y42951D01*
X92908Y42905D01*
X92916Y42863D01*
X92928Y42825D01*
X92943Y42796D01*
X92960Y42770D01*
X92973Y42754D01*
X92981Y42743D01*
X92985Y42739D01*
X93002Y42724D01*
X93019Y42712D01*
X93059Y42693D01*
X93101Y42678D01*
X93141Y42670D01*
X93178Y42663D01*
X93195Y42661D01*
X93210D01*
X93221Y42659D01*
X93269D01*
X93298Y42663D01*
X93323Y42667D01*
X93349Y42672D01*
X93393Y42684D01*
X93428Y42699D01*
X93456Y42714D01*
X93475Y42726D01*
X93485Y42735D01*
X93489Y42739D01*
X93514Y42770D01*
X93533Y42806D01*
X93548Y42842D01*
X93556Y42875D01*
X93563Y42905D01*
X93565Y42930D01*
X93567Y42938D01*
Y42945D01*
Y42949D01*
Y42951D01*
Y43035D01*
X93563Y43081D01*
X93554Y43123D01*
X93542Y43161D01*
X93527Y43190D01*
X93514Y43216D01*
X93502Y43232D01*
X93493Y43243D01*
X93489Y43247D01*
X93472Y43262D01*
X93456Y43274D01*
X93416Y43295D01*
X93374Y43310D01*
X93334Y43319D01*
X93296Y43325D01*
X93279Y43327D01*
X93265D01*
X93254Y43329D01*
D02*
G37*
G36*
X93548Y41941D02*
X92977D01*
X92945Y41939D01*
X92920Y41937D01*
X92895Y41932D01*
X92872Y41928D01*
X92851Y41924D01*
X92834Y41920D01*
X92817Y41916D01*
X92792Y41905D01*
X92773Y41897D01*
X92765Y41890D01*
X92761Y41888D01*
X92738Y41867D01*
X92719Y41844D01*
X92706Y41821D01*
X92698Y41800D01*
X92693Y41781D01*
X92689Y41767D01*
Y41756D01*
Y41752D01*
X92691Y41731D01*
X92693Y41710D01*
X92706Y41674D01*
X92723Y41645D01*
X92744Y41620D01*
X92765Y41599D01*
X92782Y41584D01*
X92794Y41576D01*
X92796Y41573D01*
X92798D01*
X92819Y41563D01*
X92842Y41552D01*
X92891Y41538D01*
X92943Y41527D01*
X92992Y41521D01*
X93015Y41517D01*
X93036D01*
X93054Y41515D01*
X93071Y41513D01*
X93380D01*
X93411Y41515D01*
X93439Y41519D01*
X93466Y41523D01*
X93489Y41529D01*
X93510Y41536D01*
X93529Y41542D01*
X93546Y41548D01*
X93563Y41554D01*
X93575Y41561D01*
X93594Y41573D01*
X93605Y41582D01*
X93609Y41584D01*
X93634Y41611D01*
X93653Y41638D01*
X93666Y41668D01*
X93674Y41693D01*
X93680Y41716D01*
X93682Y41733D01*
X93685Y41746D01*
Y41750D01*
X93682Y41773D01*
X93678Y41796D01*
X93672Y41817D01*
X93664Y41836D01*
X93640Y41870D01*
X93615Y41895D01*
X93590Y41916D01*
X93567Y41930D01*
X93559Y41935D01*
X93552Y41939D01*
X93548Y41941D01*
D02*
G37*
%LPD*%
D15*
X251969Y39370D02*
D03*
Y29528D02*
D03*
Y19685D02*
D03*
M02*
