0
SECTION
2
HEADER
9
$INSUNITS
70
4
9
$ACADVER
1
AC1014
9
$HANDSEED
5
FFFF
0
ENDSEC
0
SECTION
2
TABLES
0
TABLE
2
VPORT
5
8
100
AcDbSymbolTable
0
ENDTAB
0
TABLE
2
LTYPE
5
5
100
AcDbSymbolTable
0
LTYPE
5
14
100
AcDbSymbolTableRecord
100
AcDbLinetypeTableRecord
2
BYBLOCK
70
0
0
LTYPE
5
15
100
AcDbSymbolTableRecord
100
AcDbLinetypeTableRecord
2
BYLAYER
70
0
0
LTYPE
5
16
100
AcDbSymbolTableRecord
100
AcDbLinetypeTableRecord
2
DASHED
70
0
3
Dashed __ __ __ __ __ __ __ __ __ __ __ __ __ _
72
65
73
2
40
0.75
49
0.5
74
0
49
-0.25
74
0
0
ENDTAB
0
TABLE
2
LAYER
5
2
100
AcDbSymbolTable
70
2
0
LAYER
5
50
100
AcDbSymbolTableRecord
100
AcDbLayerTableRecord
2
0
70
0
62
7
6
CONTINUOUS
0
ENDTAB
0
TABLE
2
STYLE
5
3
100
AcDbSymbolTable
70
1
0
STYLE
5
11
100
AcDbSymbolTableRecord
100
AcDbTextStyleTableRecord
2
STANDARD
70
0
0
ENDTAB
0
TABLE
2
VIEW
5
6
100
AcDbSymbolTable
70
0
0
ENDTAB
0
TABLE
2
UCS
5
7
100
AcDbSymbolTable
70
0
0
ENDTAB
0
TABLE
2
APPID
5
9
100
AcDbSymbolTable
70
2
0
APPID
5
12
100
AcDbSymbolTableRecord
100
AcDbRegAppTableRecord
2
ACAD
70
0
0
ENDTAB
0
TABLE
2
DIMSTYLE
5
A
100
AcDbSymbolTable
70
1
0
ENDTAB
0
TABLE
2
BLOCK_RECORD
5
1
100
AcDbSymbolTable
70
1
0
BLOCK_RECORD
5
1F
100
AcDbSymbolTableRecord
100
AcDbBlockTableRecord
2
*MODEL_SPACE
0
BLOCK_RECORD
5
1B
100
AcDbSymbolTableRecord
100
AcDbBlockTableRecord
2
*PAPER_SPACE
0
ENDTAB
0
ENDSEC
0
SECTION
2
BLOCKS
0
BLOCK
5
20
100
AcDbEntity
100
AcDbBlockBegin
2
*MODEL_SPACE
0
ENDBLK
5
21
100
AcDbEntity
100
AcDbBlockEnd
0
BLOCK
5
1C
100
AcDbEntity
100
AcDbBlockBegin
2
*PAPER_SPACE
0
ENDBLK
5
1D
100
AcDbEntity
100
AcDbBlockEnd
0
ENDSEC
0
SECTION
2
ENTITIES
0
SPLINE
5
100
100
AcDbEntity
8
0
100
AcDbSpline
70
0
71
3
72
14
73
10
74
0
42
0.000000001
43
0.0000000001
44
0.0000000001
40
0
40
0
40
0
40
0
40
0.82202686104923572
40
0.82202686104923572
40
1.58399686188438
40
1.58399686188438
40
2.2137727066414161
40
2.2137727066414161
40
2.8240631493849824
40
2.8240631493849824
40
2.8240631493849824
40
2.8240631493849824
10
-12.999999999999998
20
-8.4635000000002947
30
0
10
-10.848250919872218
20
-7.8357883718695565
30
0
10
-8.4090986239946339
20
-7.2576721452599191
30
0
10
-3.3709787519683552
20
-6.5399307970035281
30
0
10
-0.85304954683442435
20
-6.3904621968518249
30
0
10
3.7805571361472983
20
-6.5903780696462722
30
0
10
5.8242454026947623
20
-6.8485074362414888
30
0
10
9.6385124488946534
20
-7.5573055184992111
30
0
10
11.399641737426123
20
-7.9966409689535212
30
0
10
13.000000000000004
20
-8.4635000000002947
30
0
0
LINE
5
101
100
AcDbEntity
8
0
100
AcDbLine
10
-12.999999999999998
20
-42.463500000000032
30
0
11
-12.999999999999998
21
-8.4635000000002591
31
0
0
LINE
5
102
100
AcDbEntity
8
0
100
AcDbLine
10
13.000000000000004
20
-8.4635000000002591
30
0
11
13.000000000000004
21
-42.463500000000032
31
0
0
SPLINE
5
103
100
AcDbEntity
8
0
100
AcDbSpline
70
0
71
3
72
14
73
10
74
0
42
0.000000001
43
0.0000000001
44
0.0000000001
40
0
40
0
40
0
40
0
40
0.82202686104799894
40
0.82202686104799894
40
1.5839968618832865
40
1.5839968618832865
40
2.2137727066405071
40
2.2137727066405071
40
2.824063149385232
40
2.824063149385232
40
2.824063149385232
40
2.824063149385232
10
13.000000000000004
20
-42.463499999999982
30
0
10
10.848250919875138
20
-43.091211628128086
30
0
10
8.4090986240016399
20
-43.669327854736288
30
0
10
3.3709787519805507
20
-44.387069202993544
30
0
10
0.85304954684547263
20
-44.536537803147212
30
0
10
-3.7805571361378618
20
-44.336621930358518
30
0
10
-5.8242454026860919
20
-44.078492563766353
30
0
10
-9.6385124488902996
20
-43.369694481509164
30
0
10
-11.399641737424293
20
-42.930359031052049
30
0
10
-12.999999999999998
20
-42.463499999999982
30
0
0
SPLINE
5
104
100
AcDbEntity
8
0
100
AcDbSpline
70
0
71
3
72
14
73
10
74
0
42
0.000000001
43
0.0000000001
44
0.0000000001
40
0
40
0
40
0
40
0
40
0.82202686104923572
40
0.82202686104923572
40
1.58399686188438
40
1.58399686188438
40
2.2137727066414161
40
2.2137727066414161
40
2.8240631493849824
40
2.8240631493849824
40
2.8240631493849824
40
2.8240631493849824
10
-12.999999999999998
20
-82.237000000000307
30
0
10
-10.848250919872218
20
-81.609288371869582
30
0
10
-8.4090986239946339
20
-81.031172145259944
30
0
10
-3.3709787519683561
20
-80.313430797003548
30
0
10
-0.8530495468344248
20
-80.163962196851841
30
0
10
3.7805571361472978
20
-80.36387806964629
30
0
10
5.8242454026947605
20
-80.622007436241489
30
0
10
9.6385124488946534
20
-81.330805518499218
30
0
10
11.399641737426123
20
-81.770140968953541
30
0
10
13.000000000000004
20
-82.237000000000307
30
0
0
LINE
5
105
100
AcDbEntity
8
0
100
AcDbLine
10
-12.999999999999998
20
-116.23700000000005
30
0
11
-12.999999999999998
21
-82.237000000000279
31
0
0
SPLINE
5
106
100
AcDbEntity
8
0
100
AcDbSpline
70
0
71
3
72
14
73
10
74
0
42
0.000000001
43
0.0000000001
44
0.0000000001
40
0
40
0
40
0
40
0
40
0.82202686104799894
40
0.82202686104799894
40
1.5839968618832865
40
1.5839968618832865
40
2.2137727066405071
40
2.2137727066405071
40
2.824063149385232
40
2.824063149385232
40
2.824063149385232
40
2.824063149385232
10
13.000000000000004
20
-116.23699999999999
30
0
10
10.848250919875138
20
-116.86471162812809
30
0
10
8.4090986240016399
20
-117.44282785473629
30
0
10
3.3709787519805499
20
-118.16056920299357
30
0
10
0.85304954684547218
20
-118.31003780314724
30
0
10
-3.7805571361378627
20
-118.11012193035853
30
0
10
-5.8242454026860919
20
-117.85199256376636
30
0
10
-9.6385124488902996
20
-117.14319448150918
30
0
10
-11.399641737424293
20
-116.70385903105206
30
0
10
-12.999999999999998
20
-116.23699999999999
30
0
0
LINE
5
107
100
AcDbEntity
8
0
100
AcDbLine
10
13.000000000000004
20
-82.237000000000279
30
0
11
13.000000000000004
21
-116.23700000000005
31
0
0
SPLINE
5
108
100
AcDbEntity
8
0
100
AcDbSpline
70
0
71
3
72
14
73
10
74
0
42
0.000000001
43
0.0000000001
44
0.0000000001
40
0
40
0
40
0
40
0
40
0.82202686104923572
40
0.82202686104923572
40
1.58399686188438
40
1.58399686188438
40
2.2137727066414161
40
2.2137727066414161
40
2.8240631493849824
40
2.8240631493849824
40
2.8240631493849824
40
2.8240631493849824
10
-12.999999999999998
20
-155.96350000000029
30
0
10
-10.848250919872218
20
-155.33578837186954
30
0
10
-8.4090986239946339
20
-154.7576721452599
30
0
10
-3.3709787519683552
20
-154.03993079700354
30
0
10
-0.85304954683442435
20
-153.89046219685181
30
0
10
3.7805571361472983
20
-154.09037806964625
30
0
10
5.8242454026947623
20
-154.3485074362415
30
0
10
9.6385124488946534
20
-155.05730551849922
30
0
10
11.399641737426123
20
-155.49664096895353
30
0
10
13.000000000000004
20
-155.96350000000029
30
0
0
LINE
5
109
100
AcDbEntity
8
0
100
AcDbLine
10
-12.999999999999998
20
-189.96350000000004
30
0
11
-12.999999999999998
21
-155.96350000000027
31
0
0
SPLINE
5
110
100
AcDbEntity
8
0
100
AcDbSpline
70
0
71
3
72
14
73
10
74
0
42
0.000000001
43
0.0000000001
44
0.0000000001
40
0
40
0
40
0
40
0
40
0.82202686104799894
40
0.82202686104799894
40
1.5839968618832865
40
1.5839968618832865
40
2.2137727066405071
40
2.2137727066405071
40
2.824063149385232
40
2.824063149385232
40
2.824063149385232
40
2.824063149385232
10
13.000000000000004
20
-189.96350000000001
30
0
10
10.848250919875138
20
-190.59121162812806
30
0
10
8.4090986240016399
20
-191.16932785473631
30
0
10
3.3709787519805507
20
-191.88706920299356
30
0
10
0.85304954684547263
20
-192.03653780314721
30
0
10
-3.7805571361378618
20
-191.83662193035855
30
0
10
-5.8242454026860919
20
-191.57849256376636
30
0
10
-9.6385124488902996
20
-190.86969448150916
30
0
10
-11.399641737424293
20
-190.43035903105206
30
0
10
-12.999999999999998
20
-189.96350000000001
30
0
0
LINE
5
111
100
AcDbEntity
8
0
100
AcDbLine
10
13.000000000000004
20
-155.96350000000027
30
0
11
13.000000000000004
21
-189.96350000000004
31
0
0
LINE
5
112
100
AcDbEntity
8
0
100
AcDbLine
10
-22.5
20
-214.78700000000001
30
0
11
22.5
21
-214.78700000000001
31
0
0
LINE
5
113
100
AcDbEntity
8
0
100
AcDbLine
10
-22.5
20
16.286500000000004
30
0
11
22.5
21
16.286500000000004
31
0
0
ENDSEC
0
SECTION
2
OBJECTS
0
DICTIONARY
5
C
100
AcDbDictionary
3
ACAD_GROUP
350
D
3
ACAD_MLINESTYLE
350
17
0
DICTIONARY
5
D
100
AcDbDictionary
0
DICTIONARY
5
1A
330
C
100
AcDbDictionary
0
DICTIONARY
5
17
100
AcDbDictionary
0
ENDSEC
0
EOF
