G04*
G04 #@! TF.GenerationSoftware,Altium Limited,Altium Designer,26.4.1 (12)*
G04*
G04 Layer_Color=16711935*
%FSLAX25Y25*%
%MOIN*%
G70*
G04*
G04 #@! TF.SameCoordinates,829859B1-F3E1-4271-8A9D-D630370F8615*
G04*
G04*
G04 #@! TF.FilePolarity,Negative*
G04*
G01*
G75*
%ADD56R,0.15748X0.03937*%
%ADD61C,0.05906*%
%ADD62C,0.00069*%
%ADD63C,0.01673*%
%ADD66C,0.06299*%
D56*
X545276Y189764D02*
D03*
Y158268D02*
D03*
Y181890D02*
D03*
Y174016D02*
D03*
Y166142D02*
D03*
D61*
X476378Y59055D02*
D03*
X456693D02*
D03*
X466535D02*
D03*
X248031Y66929D02*
D03*
Y57087D02*
D03*
X446850Y59055D02*
D03*
X437008D02*
D03*
X427165D02*
D03*
X377953Y102362D02*
D03*
X368110D02*
D03*
X358268D02*
D03*
X311024Y145669D02*
D03*
X262205Y122047D02*
D03*
X255512Y133465D02*
D03*
X293307Y188976D02*
D03*
X474409Y114567D02*
D03*
X513779Y66929D02*
D03*
X503937D02*
D03*
X494095D02*
D03*
X414173Y173228D02*
D03*
X455905Y217717D02*
D03*
X432677Y110630D02*
D03*
X500000Y114173D02*
D03*
D62*
X451163Y79807D02*
D03*
Y85811D02*
D03*
X448604Y82709D02*
D03*
Y85811D02*
D03*
X451163Y82709D02*
D03*
X448604Y79807D02*
D03*
X458840D02*
D03*
Y82709D02*
D03*
Y85811D02*
D03*
X456281D02*
D03*
Y82709D02*
D03*
Y79807D02*
D03*
D63*
X537787Y216544D02*
D03*
D66*
X338583Y102362D02*
D03*
X328740D02*
D03*
X348425D02*
D03*
M02*
