G04*
G04 #@! TF.GenerationSoftware,Altium Limited,Altium Designer,25.8.1 (18)*
G04*
G04 Layer_Color=65535*
%FSLAX25Y25*%
%MOIN*%
G70*
G04*
G04 #@! TF.SameCoordinates,D27407CD-D78C-41D9-847E-CAA4598150C8*
G04*
G04*
G04 #@! TF.FilePolarity,Positive*
G04*
G01*
G75*
%ADD10C,0.01000*%
%ADD11C,0.00787*%
%ADD12C,0.00984*%
%ADD13C,0.00600*%
%ADD14C,0.02000*%
%ADD15C,0.00500*%
%ADD16C,0.00394*%
%ADD17C,0.00591*%
%ADD18C,0.00300*%
%ADD19C,0.00602*%
G36*
X27150Y165974D02*
Y164474D01*
X26150D01*
Y165974D01*
X27150D01*
D02*
G37*
G36*
X192504Y70041D02*
Y68541D01*
X191504D01*
Y70041D01*
X192504D01*
D02*
G37*
G36*
X429508Y171133D02*
X418110D01*
Y175591D01*
X429508D01*
Y171133D01*
D02*
G37*
G36*
X535708Y204056D02*
X532555Y200904D01*
X522438Y211021D01*
X525591Y214173D01*
X535708Y204056D01*
D02*
G37*
G36*
X330500Y94075D02*
X326772D01*
Y98425D01*
X330500D01*
Y94075D01*
D02*
G37*
G36*
X340300D02*
X337008D01*
Y98425D01*
X340300D01*
Y94075D01*
D02*
G37*
G36*
X350323D02*
X346850D01*
Y98425D01*
X350323D01*
Y94075D01*
D02*
G37*
G36*
X389528Y109995D02*
X383074Y103541D01*
X379921Y106693D01*
X386376Y113148D01*
X389528Y109995D01*
D02*
G37*
G36*
X381055Y112152D02*
X372837Y103934D01*
X369685Y107087D01*
X377903Y115304D01*
X381055Y112152D01*
D02*
G37*
G36*
X370705Y112826D02*
X362601Y104722D01*
X359449Y107874D01*
X367553Y115978D01*
X370705Y112826D01*
D02*
G37*
G36*
X321090Y143573D02*
X314961D01*
Y148031D01*
X321090D01*
Y143573D01*
D02*
G37*
G36*
X276451Y133337D02*
X267323D01*
Y137795D01*
X276451D01*
Y133337D01*
D02*
G37*
G36*
X278783Y120345D02*
X267323D01*
Y124803D01*
X278783D01*
Y120345D01*
D02*
G37*
G36*
X309260Y186881D02*
X297638D01*
Y191339D01*
X309260D01*
Y186881D01*
D02*
G37*
G36*
X261260Y54597D02*
X252362D01*
Y59055D01*
X261260D01*
Y54597D01*
D02*
G37*
G36*
X261453Y64440D02*
X252362D01*
Y68898D01*
X261453D01*
Y64440D01*
D02*
G37*
G36*
X448690Y50660D02*
X439764D01*
Y55118D01*
X448690D01*
Y50660D01*
D02*
G37*
G36*
X480142D02*
X471260D01*
Y55118D01*
X480142D01*
Y50660D01*
D02*
G37*
G36*
X484536Y112578D02*
X478346D01*
Y116929D01*
X484536D01*
Y112578D01*
D02*
G37*
G36*
X516847Y58534D02*
X505118D01*
Y62992D01*
X516847D01*
Y58534D01*
D02*
G37*
G36*
X428775Y108534D02*
X422835D01*
Y112992D01*
X428775D01*
Y108534D01*
D02*
G37*
G36*
X512787Y112185D02*
X503937D01*
Y116535D01*
X512787D01*
Y112185D01*
D02*
G37*
%LPC*%
G36*
X427915Y175000D02*
X427877D01*
X427770Y174997D01*
X427669Y174981D01*
X427577Y174959D01*
X427492Y174934D01*
X427413Y174899D01*
X427340Y174864D01*
X427274Y174826D01*
X427217Y174785D01*
X427166Y174744D01*
X427122Y174706D01*
X427084Y174671D01*
X427053Y174637D01*
X427031Y174611D01*
X427012Y174589D01*
X427002Y174577D01*
X426999Y174570D01*
X426948Y174485D01*
X426904Y174396D01*
X426866Y174299D01*
X426835Y174197D01*
X426806Y174096D01*
X426784Y173992D01*
X426765Y173891D01*
X426749Y173793D01*
X426740Y173701D01*
X426730Y173616D01*
X426724Y173537D01*
X426718Y173471D01*
Y173442D01*
Y173414D01*
X426715Y173392D01*
Y173338D01*
X426718Y173199D01*
X426724Y173066D01*
X426737Y172943D01*
X426753Y172826D01*
X426771Y172719D01*
X426793Y172620D01*
X426816Y172532D01*
X426841Y172453D01*
X426863Y172380D01*
X426885Y172317D01*
X426907Y172267D01*
X426926Y172222D01*
X426942Y172188D01*
X426955Y172162D01*
X426961Y172150D01*
X426964Y172143D01*
X427015Y172071D01*
X427069Y172004D01*
X427125Y171947D01*
X427185Y171900D01*
X427249Y171859D01*
X427309Y171827D01*
X427372Y171799D01*
X427432Y171777D01*
X427489Y171758D01*
X427539Y171745D01*
X427587Y171736D01*
X427628Y171729D01*
X427663Y171726D01*
X427688Y171723D01*
X427710D01*
X427767Y171726D01*
X427817Y171729D01*
X427865Y171736D01*
X427903Y171745D01*
X427938Y171751D01*
X427960Y171758D01*
X427975Y171761D01*
X427982Y171764D01*
X428023Y171780D01*
X428061Y171796D01*
X428095Y171815D01*
X428124Y171830D01*
X428149Y171846D01*
X428165Y171859D01*
X428178Y171865D01*
X428181Y171868D01*
X428212Y171894D01*
X428238Y171922D01*
X428263Y171951D01*
X428285Y171973D01*
X428301Y171995D01*
X428313Y172011D01*
X428320Y172023D01*
X428323Y172026D01*
X428361Y172093D01*
X428380Y172124D01*
X428393Y172153D01*
X428405Y172175D01*
X428415Y172194D01*
X428418Y172207D01*
X428421Y172210D01*
X428452D01*
Y171777D01*
X428917D01*
Y173398D01*
X427840D01*
Y173015D01*
X428452D01*
Y172728D01*
Y172681D01*
X428446Y172636D01*
X428430Y172554D01*
X428405Y172482D01*
X428380Y172418D01*
X428364Y172393D01*
X428351Y172371D01*
X428339Y172352D01*
X428326Y172333D01*
X428317Y172320D01*
X428310Y172311D01*
X428307Y172308D01*
X428304Y172304D01*
X428276Y172276D01*
X428244Y172251D01*
X428212Y172229D01*
X428178Y172210D01*
X428105Y172181D01*
X428039Y172162D01*
X427975Y172150D01*
X427950Y172146D01*
X427928Y172143D01*
X427906Y172140D01*
X427881D01*
X427821Y172143D01*
X427764Y172150D01*
X427713Y172162D01*
X427669Y172175D01*
X427634Y172188D01*
X427609Y172200D01*
X427593Y172207D01*
X427587Y172210D01*
X427542Y172238D01*
X427505Y172273D01*
X427473Y172304D01*
X427445Y172339D01*
X427422Y172368D01*
X427403Y172390D01*
X427394Y172406D01*
X427391Y172412D01*
X427365Y172462D01*
X427343Y172516D01*
X427324Y172567D01*
X427312Y172614D01*
X427299Y172658D01*
X427293Y172690D01*
X427290Y172706D01*
Y172715D01*
X427286Y172719D01*
Y172722D01*
X427277Y172791D01*
X427268Y172861D01*
X427261Y172930D01*
X427258Y172990D01*
Y173044D01*
X427255Y173066D01*
Y173085D01*
Y173101D01*
Y173114D01*
Y173120D01*
Y173123D01*
Y173625D01*
X427258Y173704D01*
X427261Y173780D01*
X427268Y173850D01*
X427277Y173916D01*
X427290Y173979D01*
X427302Y174036D01*
X427315Y174087D01*
X427328Y174134D01*
X427340Y174178D01*
X427353Y174213D01*
X427365Y174245D01*
X427378Y174270D01*
X427388Y174292D01*
X427394Y174305D01*
X427400Y174314D01*
Y174317D01*
X427429Y174362D01*
X427463Y174403D01*
X427501Y174437D01*
X427539Y174466D01*
X427577Y174491D01*
X427618Y174513D01*
X427656Y174529D01*
X427697Y174545D01*
X427732Y174554D01*
X427767Y174564D01*
X427798Y174570D01*
X427827Y174573D01*
X427849D01*
X427865Y174577D01*
X427881D01*
X427928Y174573D01*
X427972Y174570D01*
X428010Y174564D01*
X428042Y174558D01*
X428070Y174548D01*
X428089Y174542D01*
X428102Y174539D01*
X428105Y174536D01*
X428140Y174520D01*
X428171Y174501D01*
X428197Y174482D01*
X428222Y174463D01*
X428241Y174447D01*
X428254Y174434D01*
X428263Y174425D01*
X428266Y174422D01*
X428310Y174365D01*
X428329Y174336D01*
X428345Y174311D01*
X428358Y174289D01*
X428370Y174270D01*
X428373Y174257D01*
X428377Y174254D01*
X428408Y174185D01*
X428421Y174153D01*
X428434Y174121D01*
X428443Y174096D01*
X428452Y174077D01*
X428456Y174065D01*
X428459Y174058D01*
X428917Y174213D01*
X428898Y174270D01*
X428876Y174327D01*
X428854Y174378D01*
X428832Y174422D01*
X428813Y174460D01*
X428797Y174488D01*
X428788Y174507D01*
X428784Y174513D01*
X428753Y174564D01*
X428718Y174611D01*
X428683Y174656D01*
X428652Y174690D01*
X428623Y174722D01*
X428601Y174744D01*
X428585Y174757D01*
X428579Y174763D01*
X428532Y174801D01*
X428481Y174836D01*
X428434Y174864D01*
X428386Y174889D01*
X428345Y174908D01*
X428310Y174921D01*
X428298Y174927D01*
X428291Y174931D01*
X428285Y174934D01*
X428282D01*
X428216Y174956D01*
X428146Y174972D01*
X428077Y174984D01*
X428013Y174990D01*
X427960Y174997D01*
X427938D01*
X427915Y175000D01*
D02*
G37*
G36*
X425489Y174946D02*
X424793D01*
X423867Y171777D01*
X424386D01*
X424626Y172620D01*
X425634D01*
X425874Y171777D01*
X426414D01*
X425489Y174946D01*
D02*
G37*
G36*
X423416D02*
X421415D01*
Y174561D01*
X422161D01*
Y172162D01*
X421415D01*
Y171777D01*
X423416D01*
Y172162D01*
X422670D01*
Y174561D01*
X423416D01*
Y174946D01*
D02*
G37*
G36*
X419674D02*
X418701D01*
Y171777D01*
X419646D01*
X419756Y171780D01*
X419861Y171793D01*
X419955Y171815D01*
X420044Y171840D01*
X420126Y171868D01*
X420199Y171903D01*
X420265Y171941D01*
X420325Y171979D01*
X420376Y172014D01*
X420423Y172052D01*
X420461Y172087D01*
X420493Y172115D01*
X420515Y172140D01*
X420534Y172162D01*
X420543Y172175D01*
X420546Y172178D01*
X420597Y172257D01*
X420644Y172346D01*
X420682Y172437D01*
X420717Y172532D01*
X420745Y172630D01*
X420767Y172731D01*
X420786Y172826D01*
X420802Y172921D01*
X420815Y173009D01*
X420824Y173091D01*
X420831Y173167D01*
X420837Y173234D01*
Y173262D01*
Y173284D01*
X420840Y173306D01*
Y173360D01*
X420837Y173502D01*
X420827Y173635D01*
X420812Y173758D01*
X420796Y173872D01*
X420771Y173979D01*
X420749Y174074D01*
X420720Y174163D01*
X420695Y174242D01*
X420666Y174311D01*
X420638Y174374D01*
X420616Y174425D01*
X420594Y174466D01*
X420575Y174501D01*
X420559Y174523D01*
X420549Y174539D01*
X420546Y174542D01*
X420489Y174615D01*
X420423Y174674D01*
X420357Y174728D01*
X420284Y174776D01*
X420208Y174814D01*
X420132Y174848D01*
X420060Y174874D01*
X419987Y174896D01*
X419917Y174911D01*
X419854Y174924D01*
X419797Y174934D01*
X419747Y174940D01*
X419702Y174943D01*
X419674Y174946D01*
D02*
G37*
%LPD*%
G36*
X425539Y173044D02*
X424721D01*
X425112Y174431D01*
X425147D01*
X425539Y173044D01*
D02*
G37*
G36*
X419677Y174526D02*
X419737Y174520D01*
X419791Y174507D01*
X419845Y174491D01*
X419889Y174475D01*
X419933Y174453D01*
X419971Y174434D01*
X420006Y174412D01*
X420038Y174390D01*
X420063Y174368D01*
X420085Y174346D01*
X420104Y174330D01*
X420117Y174314D01*
X420126Y174302D01*
X420132Y174295D01*
X420135Y174292D01*
X420167Y174245D01*
X420192Y174197D01*
X420214Y174144D01*
X420233Y174090D01*
X420265Y173976D01*
X420284Y173869D01*
X420293Y173818D01*
X420297Y173774D01*
X420300Y173730D01*
X420303Y173695D01*
X420306Y173663D01*
Y173641D01*
Y173629D01*
Y173622D01*
Y173098D01*
X420303Y173019D01*
X420300Y172943D01*
X420290Y172873D01*
X420281Y172810D01*
X420268Y172750D01*
X420252Y172693D01*
X420236Y172643D01*
X420221Y172598D01*
X420205Y172561D01*
X420189Y172526D01*
X420177Y172494D01*
X420161Y172472D01*
X420151Y172453D01*
X420142Y172437D01*
X420139Y172431D01*
X420135Y172428D01*
X420101Y172387D01*
X420063Y172352D01*
X420025Y172320D01*
X419981Y172292D01*
X419940Y172270D01*
X419895Y172251D01*
X419851Y172235D01*
X419810Y172222D01*
X419772Y172213D01*
X419734Y172207D01*
X419699Y172200D01*
X419671Y172197D01*
X419649D01*
X419630Y172194D01*
X419206D01*
Y174529D01*
X419614D01*
X419677Y174526D01*
D02*
G37*
%LPC*%
G36*
X525553Y213300D02*
X523311Y211059D01*
X523669Y210701D01*
X524576Y211609D01*
X524873Y211311D01*
X524442Y209928D01*
X524840Y209530D01*
X525262Y210985D01*
X525314Y210952D01*
X525365Y210923D01*
X525416Y210898D01*
X525463Y210878D01*
X525515Y210862D01*
X525559Y210849D01*
X525604Y210840D01*
X525646Y210833D01*
X525684Y210831D01*
X525720Y210826D01*
X525749Y210824D01*
X525776D01*
X525796Y210826D01*
X525812Y210829D01*
X525821D01*
X525825D01*
X525881Y210840D01*
X525935Y210853D01*
X525984Y210871D01*
X526033Y210894D01*
X526127Y210943D01*
X526209Y210994D01*
X526245Y211021D01*
X526279Y211046D01*
X526306Y211068D01*
X526330Y211088D01*
X526350Y211104D01*
X526364Y211117D01*
X526373Y211126D01*
X526375Y211128D01*
X526431Y211189D01*
X526480Y211247D01*
X526522Y211307D01*
X526558Y211365D01*
X526589Y211423D01*
X526616Y211477D01*
X526636Y211528D01*
X526654Y211577D01*
X526670Y211624D01*
X526679Y211664D01*
X526688Y211700D01*
X526692Y211732D01*
X526697Y211758D01*
Y211776D01*
X526699Y211787D01*
Y211792D01*
X526697Y211857D01*
X526690Y211921D01*
X526677Y211984D01*
X526656Y212044D01*
X526634Y212102D01*
X526607Y212156D01*
X526580Y212210D01*
X526549Y212259D01*
X526520Y212301D01*
X526493Y212341D01*
X526467Y212377D01*
X526442Y212406D01*
X526419Y212429D01*
X526404Y212449D01*
X525553Y213300D01*
D02*
G37*
G36*
X527485Y211367D02*
X525244Y209126D01*
X526648Y207723D01*
X526949Y208025D01*
X525906Y209068D01*
X526589Y209752D01*
X527595Y208746D01*
X527896Y209048D01*
X526891Y210053D01*
X527543Y210706D01*
X528587Y209662D01*
X528889Y209964D01*
X527485Y211367D01*
D02*
G37*
G36*
X529353Y209177D02*
X529286Y209173D01*
X529222Y209166D01*
X529159Y209149D01*
X529099Y209128D01*
X529040Y209106D01*
X528987Y209079D01*
X528940Y209050D01*
X528893Y209021D01*
X528853Y208994D01*
X528817Y208967D01*
X528788Y208947D01*
X528766Y208925D01*
X528746Y208909D01*
X528737Y208900D01*
X528732Y208896D01*
X528694Y208854D01*
X528656Y208811D01*
X528625Y208771D01*
X528598Y208731D01*
X528576Y208699D01*
X528560Y208675D01*
X528549Y208659D01*
Y208655D01*
X528547Y208652D01*
X528524Y208603D01*
X528504Y208552D01*
X528489Y208505D01*
X528477Y208463D01*
X528471Y208424D01*
X528466Y208398D01*
X528464Y208378D01*
X528462Y208371D01*
X528460Y208315D01*
X528462Y208259D01*
X528466Y208206D01*
X528475Y208156D01*
X528482Y208114D01*
X528491Y208083D01*
X528495Y208060D01*
Y208056D01*
X528498Y208054D01*
X528520Y207991D01*
X528549Y207926D01*
X528580Y207868D01*
X528612Y207815D01*
X528641Y207768D01*
X528652Y207747D01*
X528663Y207732D01*
X528672Y207718D01*
X528681Y207710D01*
X528683Y207703D01*
X528685Y207700D01*
X528889Y207417D01*
X528918Y207374D01*
X528947Y207332D01*
X528969Y207292D01*
X528987Y207256D01*
X529005Y207220D01*
X529018Y207184D01*
X529029Y207155D01*
X529038Y207129D01*
X529045Y207104D01*
X529052Y207079D01*
X529056Y207062D01*
X529058Y207046D01*
X529061Y207026D01*
Y207017D01*
X529058Y206956D01*
X529043Y206901D01*
X529020Y206847D01*
X528994Y206802D01*
X528969Y206764D01*
X528947Y206737D01*
X528938Y206724D01*
X528931Y206717D01*
X528927Y206713D01*
X528924Y206711D01*
X528889Y206679D01*
X528857Y206653D01*
X528788Y206610D01*
X528723Y206581D01*
X528663Y206565D01*
X528609Y206557D01*
X528569Y206552D01*
X528542D01*
X528538D01*
X528533D01*
X528493Y206557D01*
X528455Y206568D01*
X528379Y206594D01*
X528310Y206632D01*
X528243Y206673D01*
X528189Y206713D01*
X528167Y206731D01*
X528151Y206746D01*
X528133Y206760D01*
X528113Y206780D01*
X528048Y206849D01*
X527995Y206921D01*
X527950Y206988D01*
X527917Y207048D01*
X527901Y207077D01*
X527890Y207102D01*
X527881Y207124D01*
X527870Y207144D01*
X527865Y207157D01*
X527861Y207171D01*
X527858Y207178D01*
X527856Y207180D01*
X527834Y207265D01*
X527818Y207347D01*
X527809Y207432D01*
X527807Y207511D01*
X527805Y207580D01*
Y207607D01*
X527807Y207631D01*
Y207649D01*
X527809Y207665D01*
Y207674D01*
Y207678D01*
X527356Y207689D01*
X527347Y207578D01*
X527347Y207470D01*
X527356Y207368D01*
X527369Y207278D01*
X527376Y207236D01*
X527385Y207200D01*
X527391Y207167D01*
X527396Y207140D01*
X527403Y207120D01*
X527407Y207102D01*
X527412Y207093D01*
Y207088D01*
X527432Y207032D01*
X527456Y206977D01*
X527512Y206867D01*
X527577Y206767D01*
X527608Y206722D01*
X527642Y206679D01*
X527673Y206639D01*
X527702Y206601D01*
X527729Y206570D01*
X527753Y206545D01*
X527771Y206523D01*
X527800Y206494D01*
X527874Y206425D01*
X527946Y206362D01*
X528013Y206313D01*
X528044Y206291D01*
X528073Y206271D01*
X528100Y206253D01*
X528124Y206237D01*
X528147Y206224D01*
X528165Y206215D01*
X528178Y206206D01*
X528189Y206199D01*
X528196Y206197D01*
X528198Y206194D01*
X528272Y206161D01*
X528346Y206132D01*
X528410Y206112D01*
X528471Y206096D01*
X528520Y206087D01*
X528558Y206081D01*
X528571D01*
X528582Y206078D01*
X528589Y206081D01*
X528591Y206078D01*
X528665Y206076D01*
X528734Y206083D01*
X528797Y206092D01*
X528853Y206103D01*
X528902Y206116D01*
X528938Y206125D01*
X528953Y206132D01*
X528962Y206136D01*
X528967D01*
X528969Y206139D01*
X529036Y206170D01*
X529099Y206206D01*
X529154Y206244D01*
X529204Y206279D01*
X529246Y206313D01*
X529262Y206329D01*
X529277Y206340D01*
X529304Y206367D01*
X529347Y206414D01*
X529385Y206460D01*
X529416Y206505D01*
X529445Y206552D01*
X529472Y206597D01*
X529492Y206644D01*
X529512Y206686D01*
X529528Y206729D01*
X529539Y206767D01*
X529550Y206800D01*
X529557Y206834D01*
X529563Y206858D01*
X529566Y206878D01*
X529570Y206896D01*
Y206905D01*
Y206909D01*
X529572Y206965D01*
X529568Y207024D01*
X529561Y207084D01*
X529548Y207142D01*
X529532Y207198D01*
X529512Y207254D01*
X529470Y207354D01*
X529447Y207399D01*
X529427Y207441D01*
X529405Y207477D01*
X529387Y207508D01*
X529371Y207533D01*
X529360Y207553D01*
X529353Y207564D01*
X529349Y207569D01*
X529154Y207848D01*
X529123Y207893D01*
X529096Y207937D01*
X529074Y207978D01*
X529054Y208016D01*
X529036Y208051D01*
X529020Y208085D01*
X529009Y208114D01*
X529000Y208145D01*
X528991Y208168D01*
X528987Y208190D01*
X528980Y208210D01*
X528978Y208226D01*
X528976Y208246D01*
Y208255D01*
X528980Y208313D01*
X528996Y208369D01*
X529018Y208418D01*
X529043Y208460D01*
X529067Y208498D01*
X529090Y208525D01*
X529096Y208536D01*
X529103Y208543D01*
X529108Y208547D01*
X529110Y208550D01*
X529141Y208576D01*
X529172Y208603D01*
X529235Y208644D01*
X529295Y208668D01*
X529351Y208684D01*
X529396Y208693D01*
X529434Y208695D01*
X529456D01*
X529465D01*
X529537Y208681D01*
X529606Y208652D01*
X529673Y208617D01*
X529731Y208576D01*
X529780Y208541D01*
X529803Y208523D01*
X529818Y208507D01*
X529836Y208494D01*
X529854Y208476D01*
X529919Y208407D01*
X529970Y208337D01*
X530013Y208273D01*
X530046Y208217D01*
X530059Y208190D01*
X530071Y208165D01*
X530077Y208145D01*
X530086Y208127D01*
X530091Y208114D01*
X530093Y208103D01*
X530095Y208096D01*
X530097Y208094D01*
X530118Y208020D01*
X530126Y207948D01*
X530133Y207879D01*
X530135Y207819D01*
X530138Y207768D01*
X530135Y207725D01*
X530133Y207700D01*
X530135Y207694D01*
X530133Y207692D01*
X530585D01*
X530591Y207792D01*
Y207891D01*
X530580Y207982D01*
X530567Y208063D01*
X530549Y208134D01*
X530542Y208163D01*
X530535Y208188D01*
X530529Y208208D01*
X530524Y208221D01*
X530522Y208232D01*
X530520Y208235D01*
X530475Y208337D01*
X530421Y208436D01*
X530361Y208527D01*
X530299Y208608D01*
X530269Y208646D01*
X530243Y208677D01*
X530218Y208706D01*
X530196Y208728D01*
X530180Y208749D01*
X530153Y208775D01*
X530086Y208838D01*
X530019Y208896D01*
X529952Y208945D01*
X529887Y208988D01*
X529825Y209028D01*
X529765Y209061D01*
X529706Y209088D01*
X529653Y209110D01*
X529604Y209128D01*
X529559Y209142D01*
X529519Y209155D01*
X529487Y209164D01*
X529461Y209169D01*
X529438Y209173D01*
X529427Y209175D01*
X529423D01*
X529353Y209177D01*
D02*
G37*
G36*
X531338Y207515D02*
X529096Y205274D01*
X530500Y203871D01*
X530801Y204172D01*
X529758Y205216D01*
X530442Y205900D01*
X531447Y204894D01*
X531749Y205196D01*
X530743Y206201D01*
X531396Y206854D01*
X532439Y205810D01*
X532741Y206112D01*
X531338Y207515D01*
D02*
G37*
G36*
X533067Y205786D02*
X532765Y205484D01*
X533469Y204780D01*
X531530Y202841D01*
X531889Y202481D01*
X533829Y204420D01*
X534533Y203716D01*
X534834Y204018D01*
X533067Y205786D01*
D02*
G37*
%LPD*%
G36*
X526040Y212214D02*
X526093Y212152D01*
X526138Y212089D01*
X526167Y212029D01*
X526187Y211973D01*
X526194Y211917D01*
X526196Y211865D01*
X526189Y211814D01*
X526181Y211770D01*
X526165Y211727D01*
X526147Y211687D01*
X526129Y211655D01*
X526111Y211624D01*
X526095Y211604D01*
X526082Y211586D01*
X526073Y211577D01*
X526069Y211573D01*
X525932Y211437D01*
X525874Y211387D01*
X525818Y211349D01*
X525760Y211327D01*
X525704Y211311D01*
X525649Y211309D01*
X525597Y211311D01*
X525546Y211323D01*
X525499Y211338D01*
X525454Y211356D01*
X525414Y211378D01*
X525381Y211399D01*
X525349Y211421D01*
X525327Y211439D01*
X525307Y211454D01*
X524864Y211897D01*
X525611Y212643D01*
X526040Y212214D01*
D02*
G37*
%LPC*%
G36*
X328983Y97835D02*
X328288D01*
X327362Y94665D01*
X327880D01*
X328121Y95509D01*
X329129D01*
X329369Y94665D01*
X329909D01*
X328983Y97835D01*
D02*
G37*
%LPD*%
G36*
X329034Y95932D02*
X328215D01*
X328607Y97320D01*
X328642D01*
X329034Y95932D01*
D02*
G37*
%LPC*%
G36*
X338733Y97835D02*
X337598D01*
Y94665D01*
X338815D01*
X338888Y94668D01*
X338957Y94675D01*
X339017Y94684D01*
X339071Y94697D01*
X339115Y94709D01*
X339150Y94719D01*
X339163Y94722D01*
X339172Y94725D01*
X339175Y94728D01*
X339178D01*
X339239Y94757D01*
X339292Y94785D01*
X339343Y94817D01*
X339384Y94845D01*
X339419Y94874D01*
X339441Y94896D01*
X339457Y94908D01*
X339463Y94915D01*
X339504Y94962D01*
X339542Y95010D01*
X339573Y95057D01*
X339599Y95101D01*
X339621Y95142D01*
X339633Y95171D01*
X339640Y95183D01*
X339643Y95193D01*
X339646Y95196D01*
Y95199D01*
X339668Y95262D01*
X339684Y95326D01*
X339693Y95386D01*
X339703Y95442D01*
X339706Y95490D01*
Y95509D01*
X339709Y95528D01*
Y95560D01*
X339706Y95619D01*
X339703Y95673D01*
X339693Y95727D01*
X339684Y95774D01*
X339671Y95822D01*
X339656Y95863D01*
X339640Y95901D01*
X339627Y95935D01*
X339611Y95964D01*
X339596Y95992D01*
X339580Y96014D01*
X339567Y96034D01*
X339558Y96046D01*
X339548Y96056D01*
X339545Y96062D01*
X339542Y96065D01*
X339475Y96128D01*
X339403Y96179D01*
X339327Y96220D01*
X339257Y96255D01*
X339194Y96280D01*
X339166Y96289D01*
X339144Y96296D01*
X339125Y96302D01*
X339109Y96305D01*
X339099Y96308D01*
X339096D01*
Y96330D01*
X339178Y96359D01*
X339251Y96394D01*
X339314Y96432D01*
X339365Y96469D01*
X339409Y96504D01*
X339438Y96536D01*
X339457Y96555D01*
X339463Y96558D01*
Y96561D01*
X339488Y96593D01*
X339507Y96627D01*
X339542Y96700D01*
X339567Y96773D01*
X339583Y96846D01*
X339592Y96906D01*
X339596Y96934D01*
Y96956D01*
X339599Y96978D01*
Y96991D01*
Y97000D01*
Y97004D01*
X339596Y97073D01*
X339589Y97139D01*
X339577Y97203D01*
X339561Y97263D01*
X339545Y97316D01*
X339523Y97364D01*
X339504Y97411D01*
X339482Y97452D01*
X339460Y97487D01*
X339438Y97519D01*
X339415Y97547D01*
X339400Y97569D01*
X339384Y97588D01*
X339371Y97601D01*
X339365Y97607D01*
X339362Y97610D01*
X339314Y97651D01*
X339264Y97683D01*
X339213Y97715D01*
X339156Y97740D01*
X339103Y97762D01*
X339046Y97781D01*
X338992Y97794D01*
X338938Y97806D01*
X338888Y97816D01*
X338840Y97822D01*
X338799Y97828D01*
X338765Y97831D01*
X338733Y97835D01*
D02*
G37*
%LPD*%
G36*
X338673Y97440D02*
X338745Y97427D01*
X338809Y97414D01*
X338859Y97395D01*
X338900Y97380D01*
X338929Y97364D01*
X338945Y97351D01*
X338951Y97348D01*
X338992Y97307D01*
X339024Y97259D01*
X339046Y97209D01*
X339061Y97158D01*
X339071Y97111D01*
X339074Y97073D01*
X339077Y97061D01*
Y97048D01*
Y97041D01*
Y97038D01*
Y96874D01*
X339071Y96798D01*
X339058Y96735D01*
X339036Y96681D01*
X339014Y96637D01*
X338992Y96605D01*
X338970Y96583D01*
X338957Y96567D01*
X338951Y96564D01*
X338900Y96533D01*
X338843Y96511D01*
X338783Y96495D01*
X338723Y96485D01*
X338670Y96479D01*
X338648Y96476D01*
X338629Y96473D01*
X338098D01*
Y97443D01*
X338587D01*
X338673Y97440D01*
D02*
G37*
G36*
X338749Y96097D02*
X338828Y96084D01*
X338894Y96068D01*
X338951Y96049D01*
X338992Y96027D01*
X339024Y96011D01*
X339042Y95999D01*
X339049Y95995D01*
X339074Y95973D01*
X339096Y95951D01*
X339128Y95898D01*
X339153Y95844D01*
X339172Y95787D01*
X339182Y95736D01*
X339185Y95714D01*
Y95695D01*
X339188Y95679D01*
Y95667D01*
Y95661D01*
Y95657D01*
Y95496D01*
Y95455D01*
X339182Y95417D01*
X339166Y95348D01*
X339144Y95288D01*
X339118Y95243D01*
X339093Y95205D01*
X339071Y95180D01*
X339055Y95168D01*
X339052Y95161D01*
X339049D01*
X338992Y95126D01*
X338932Y95101D01*
X338866Y95082D01*
X338802Y95070D01*
X338749Y95063D01*
X338723Y95060D01*
X338701D01*
X338685Y95057D01*
X338098D01*
Y96100D01*
X338660D01*
X338749Y96097D01*
D02*
G37*
%LPC*%
G36*
X349666Y97835D02*
X347504D01*
Y97408D01*
X349109D01*
X347441Y95114D01*
Y94665D01*
X349732D01*
Y95092D01*
X348000D01*
X349666Y97383D01*
Y97835D01*
D02*
G37*
G36*
X386385Y112246D02*
X385972Y111832D01*
X386124Y110581D01*
X386222Y109937D01*
X386204Y109920D01*
X385132Y110992D01*
X384774Y110635D01*
X387015Y108393D01*
X388655Y110033D01*
X388655D01*
X386591Y110561D01*
X386385Y112246D01*
D02*
G37*
G36*
X384300Y109852D02*
X384269D01*
X384249Y109850D01*
X384240D01*
X384180Y109844D01*
X384119Y109832D01*
X384063Y109817D01*
X384016Y109801D01*
X383974Y109785D01*
X383941Y109774D01*
X383929Y109767D01*
X383920Y109763D01*
X383916D01*
X383914Y109761D01*
X383851Y109730D01*
X383793Y109694D01*
X383739Y109654D01*
X383688Y109616D01*
X383646Y109578D01*
X383630Y109562D01*
X383612Y109549D01*
X383585Y109521D01*
X383509Y109441D01*
X383449Y109359D01*
X383398Y109276D01*
X383353Y109195D01*
X383322Y109115D01*
X383293Y109037D01*
X383272Y108963D01*
X383259Y108892D01*
X383252Y108827D01*
X383248Y108769D01*
X383243Y108715D01*
X383248Y108670D01*
Y108635D01*
X383250Y108606D01*
X383252Y108590D01*
X383255Y108583D01*
X383279Y108487D01*
X383310Y108393D01*
X383348Y108297D01*
X383398Y108203D01*
X383449Y108112D01*
X383500Y108025D01*
X383558Y107940D01*
X383616Y107864D01*
X383672Y107790D01*
X383724Y107725D01*
X383773Y107667D01*
X383815Y107616D01*
X383836Y107596D01*
X383853Y107578D01*
X383867Y107560D01*
X383905Y107522D01*
X384008Y107424D01*
X384110Y107334D01*
X384209Y107258D01*
X384302Y107187D01*
X384396Y107124D01*
X384484Y107073D01*
X384566Y107026D01*
X384642Y106990D01*
X384714Y106959D01*
X384776Y106932D01*
X384832Y106912D01*
X384879Y106896D01*
X384917Y106885D01*
X384944Y106876D01*
X384959Y106874D01*
X384966Y106872D01*
X385062Y106860D01*
X385154Y106858D01*
X385243Y106867D01*
X385328Y106885D01*
X385409Y106907D01*
X385487Y106937D01*
X385558Y106968D01*
X385625Y107003D01*
X385688Y107039D01*
X385741Y107075D01*
X385788Y107108D01*
X385829Y107140D01*
X385860Y107167D01*
X385884Y107187D01*
X385062Y106364D01*
X385062D01*
X386637Y107940D01*
X386637Y107940D01*
X385902Y107205D01*
X385961Y107267D01*
X386010Y107325D01*
X386052Y107381D01*
X386083Y107430D01*
X386110Y107471D01*
X386119Y107488D01*
X386130Y107504D01*
X386137Y107515D01*
X386141Y107524D01*
Y107529D01*
X386144Y107531D01*
X386171Y107593D01*
X386191Y107649D01*
X386206Y107705D01*
X386217Y107756D01*
X386226Y107797D01*
X386231Y107828D01*
Y107850D01*
X386233Y107857D01*
X386235Y107917D01*
X386233Y107978D01*
X386229Y108031D01*
X386222Y108078D01*
X386215Y108121D01*
X386209Y108150D01*
X386204Y108172D01*
X386202Y108179D01*
X386186Y108239D01*
X386164Y108297D01*
X386146Y108351D01*
X386126Y108398D01*
X386110Y108436D01*
X386097Y108467D01*
X386090Y108478D01*
X386086Y108487D01*
Y108492D01*
X386083Y108494D01*
X385650Y108279D01*
X385683Y108206D01*
X385699Y108172D01*
X385712Y108141D01*
X385721Y108114D01*
X385733Y108094D01*
X385737Y108080D01*
Y108076D01*
X385748Y108038D01*
X385759Y108004D01*
X385764Y107969D01*
X385768Y107942D01*
X385771Y107917D01*
X385773Y107897D01*
Y107884D01*
Y107879D01*
X385766Y107810D01*
X385755Y107750D01*
X385748Y107725D01*
X385741Y107705D01*
X385735Y107694D01*
Y107689D01*
X385719Y107656D01*
X385699Y107622D01*
X385677Y107591D01*
X385652Y107562D01*
X385632Y107537D01*
X385616Y107517D01*
X385601Y107502D01*
X385556Y107462D01*
X385509Y107428D01*
X385462Y107399D01*
X385418Y107377D01*
X385371Y107357D01*
X385328Y107345D01*
X385286Y107334D01*
X385245Y107330D01*
X385210Y107325D01*
X385176Y107323D01*
X385147Y107325D01*
X385120D01*
X385098Y107330D01*
X385082Y107332D01*
X385076Y107334D01*
X385071D01*
X385017Y107352D01*
X384962Y107372D01*
X384857Y107424D01*
X384756Y107488D01*
X384667Y107551D01*
X384624Y107585D01*
X384591Y107614D01*
X384555Y107640D01*
X384530Y107665D01*
X384506Y107685D01*
X384490Y107701D01*
X384481Y107710D01*
X384477Y107714D01*
X384097Y108094D01*
X384043Y108152D01*
X383992Y108208D01*
X383947Y108262D01*
X383909Y108317D01*
X383874Y108367D01*
X383842Y108416D01*
X383815Y108465D01*
X383793Y108505D01*
X383773Y108547D01*
X383757Y108581D01*
X383744Y108612D01*
X383735Y108639D01*
X383726Y108661D01*
X383721Y108675D01*
X383717Y108684D01*
Y108688D01*
X383708Y108742D01*
X383704Y108795D01*
X383706Y108847D01*
X383713Y108894D01*
X383724Y108941D01*
X383737Y108985D01*
X383755Y109026D01*
X383771Y109064D01*
X383791Y109097D01*
X383811Y109131D01*
X383829Y109158D01*
X383847Y109180D01*
X383862Y109195D01*
X383871Y109209D01*
X383882Y109220D01*
X383918Y109251D01*
X383952Y109280D01*
X383985Y109305D01*
X384012Y109323D01*
X384039Y109336D01*
X384057Y109345D01*
X384068Y109352D01*
X384072D01*
X384108Y109365D01*
X384144Y109374D01*
X384175Y109379D01*
X384204Y109385D01*
X384229Y109388D01*
X384264D01*
X384336Y109383D01*
X384369Y109377D01*
X384399Y109370D01*
X384423Y109363D01*
X384446Y109359D01*
X384457Y109352D01*
X384461D01*
X384535Y109323D01*
X384568Y109312D01*
X384600Y109298D01*
X384627Y109285D01*
X384644Y109276D01*
X384658Y109272D01*
X384662Y109267D01*
X384877Y109701D01*
X384819Y109727D01*
X384763Y109752D01*
X384711Y109772D01*
X384665Y109788D01*
X384622Y109799D01*
X384593Y109810D01*
X384571Y109815D01*
X384564Y109817D01*
X384504Y109832D01*
X384446Y109841D01*
X384390Y109848D01*
X384343Y109850D01*
X384300Y109852D01*
D02*
G37*
G36*
X382595Y107987D02*
X382497D01*
X382405Y107975D01*
X382325Y107962D01*
X382254Y107944D01*
X382224Y107938D01*
X382200Y107931D01*
X382180Y107924D01*
X382166Y107920D01*
X382155Y107917D01*
X382153Y107915D01*
X382050Y107870D01*
X381952Y107817D01*
X381860Y107756D01*
X381780Y107694D01*
X381742Y107665D01*
X381711Y107638D01*
X381681Y107614D01*
X381659Y107591D01*
X381639Y107576D01*
X381612Y107548D01*
X381550Y107482D01*
X381492Y107415D01*
X381442Y107348D01*
X381400Y107283D01*
X381360Y107220D01*
X381326Y107160D01*
X381299Y107102D01*
X381277Y107048D01*
X381259Y106999D01*
X381246Y106954D01*
X381232Y106914D01*
X381223Y106883D01*
X381219Y106856D01*
X381214Y106834D01*
X381212Y106823D01*
Y106818D01*
X381210Y106749D01*
X381214Y106682D01*
X381221Y106617D01*
X381239Y106554D01*
X381259Y106494D01*
X381281Y106436D01*
X381308Y106382D01*
X381337Y106335D01*
X381366Y106289D01*
X381393Y106248D01*
X381420Y106212D01*
X381440Y106183D01*
X381463Y106161D01*
X381478Y106141D01*
X381487Y106132D01*
X381492Y106128D01*
X381534Y106090D01*
X381576Y106052D01*
X381617Y106020D01*
X381657Y105993D01*
X381688Y105971D01*
X381713Y105956D01*
X381728Y105944D01*
X381733D01*
X381735Y105942D01*
X381784Y105920D01*
X381836Y105900D01*
X381883Y105884D01*
X381925Y105873D01*
X381963Y105866D01*
X381990Y105862D01*
X382010Y105859D01*
X382017Y105857D01*
X382072Y105855D01*
X382128Y105857D01*
X382182Y105862D01*
X382231Y105871D01*
X382274Y105877D01*
X382305Y105886D01*
X382327Y105891D01*
X382332D01*
X382334Y105893D01*
X382397Y105915D01*
X382461Y105944D01*
X382519Y105976D01*
X382573Y106007D01*
X382620Y106036D01*
X382640Y106047D01*
X382656Y106058D01*
X382669Y106067D01*
X382678Y106076D01*
X382685Y106078D01*
X382687Y106081D01*
X382971Y106284D01*
X383013Y106313D01*
X383056Y106342D01*
X383096Y106364D01*
X383132Y106382D01*
X383167Y106400D01*
X383203Y106414D01*
X383232Y106425D01*
X383259Y106434D01*
X383284Y106440D01*
X383308Y106447D01*
X383326Y106452D01*
X383342Y106454D01*
X383362Y106456D01*
X383371D01*
X383431Y106454D01*
X383487Y106438D01*
X383541Y106416D01*
X383585Y106389D01*
X383623Y106364D01*
X383650Y106342D01*
X383663Y106333D01*
X383670Y106326D01*
X383675Y106322D01*
X383677Y106320D01*
X383708Y106284D01*
X383735Y106253D01*
X383777Y106183D01*
X383806Y106119D01*
X383822Y106058D01*
X383831Y106005D01*
X383836Y105965D01*
Y105938D01*
Y105933D01*
Y105929D01*
X383831Y105888D01*
X383820Y105851D01*
X383793Y105774D01*
X383755Y105705D01*
X383715Y105638D01*
X383675Y105585D01*
X383657Y105562D01*
X383641Y105547D01*
X383628Y105529D01*
X383608Y105509D01*
X383538Y105444D01*
X383467Y105390D01*
X383400Y105345D01*
X383339Y105312D01*
X383310Y105296D01*
X383286Y105285D01*
X383263Y105276D01*
X383243Y105265D01*
X383230Y105261D01*
X383217Y105256D01*
X383210Y105254D01*
X383208Y105252D01*
X383123Y105229D01*
X383040Y105214D01*
X382955Y105205D01*
X382877Y105202D01*
X382808Y105200D01*
X382781D01*
X382756Y105202D01*
X382738D01*
X382723Y105205D01*
X382709D01*
X382698Y104751D01*
X382810Y104742D01*
X382917D01*
X383020Y104751D01*
X383109Y104765D01*
X383152Y104771D01*
X383188Y104780D01*
X383221Y104787D01*
X383248Y104791D01*
X383268Y104798D01*
X383286Y104803D01*
X383295Y104807D01*
X383299D01*
X383355Y104827D01*
X383411Y104852D01*
X383520Y104908D01*
X383621Y104972D01*
X383666Y105004D01*
X383708Y105037D01*
X383748Y105069D01*
X383786Y105097D01*
X383818Y105124D01*
X383842Y105149D01*
X383864Y105167D01*
X383073Y104376D01*
X383073Y104376D01*
X384709Y106011D01*
Y106011D01*
X383894Y105196D01*
X383963Y105270D01*
X384025Y105341D01*
X384075Y105408D01*
X384097Y105439D01*
X384117Y105468D01*
X384135Y105495D01*
X384151Y105520D01*
X384164Y105542D01*
X384173Y105560D01*
X384182Y105573D01*
X384189Y105585D01*
X384191Y105591D01*
X384193Y105594D01*
X384226Y105667D01*
X384256Y105741D01*
X384276Y105806D01*
X384291Y105866D01*
X384300Y105915D01*
X384307Y105953D01*
Y105967D01*
X384309Y105978D01*
X384307Y105985D01*
X384309Y105987D01*
X384311Y106061D01*
X384305Y106130D01*
X384296Y106192D01*
X384285Y106248D01*
X384271Y106297D01*
X384262Y106333D01*
X384256Y106349D01*
X384251Y106358D01*
Y106362D01*
X384249Y106364D01*
X384218Y106431D01*
X384182Y106494D01*
X384144Y106550D01*
X384108Y106599D01*
X384075Y106641D01*
X384059Y106657D01*
X384048Y106673D01*
X384021Y106700D01*
X383974Y106742D01*
X383927Y106780D01*
X383882Y106811D01*
X383836Y106840D01*
X383791Y106867D01*
X383744Y106887D01*
X383701Y106907D01*
X383659Y106923D01*
X383621Y106934D01*
X383588Y106945D01*
X383554Y106952D01*
X383529Y106959D01*
X383509Y106961D01*
X383491Y106965D01*
X383478D01*
X383422Y106968D01*
X383364Y106963D01*
X383304Y106957D01*
X383246Y106943D01*
X383190Y106928D01*
X383134Y106907D01*
X383033Y106865D01*
X382989Y106843D01*
X382946Y106823D01*
X382910Y106800D01*
X382879Y106782D01*
X382855Y106767D01*
X382835Y106755D01*
X382823Y106749D01*
X382819Y106744D01*
X382540Y106550D01*
X382495Y106519D01*
X382450Y106492D01*
X382410Y106470D01*
X382372Y106449D01*
X382336Y106431D01*
X382303Y106416D01*
X382274Y106405D01*
X382242Y106396D01*
X382220Y106387D01*
X382198Y106382D01*
X382177Y106376D01*
X382162Y106373D01*
X382142Y106371D01*
X382133D01*
X382075Y106376D01*
X382019Y106391D01*
X381970Y106414D01*
X381927Y106438D01*
X381889Y106463D01*
X381862Y106485D01*
X381851Y106492D01*
X381845Y106499D01*
X381840Y106503D01*
X381838Y106505D01*
X381811Y106536D01*
X381784Y106568D01*
X381744Y106630D01*
X381719Y106691D01*
X381704Y106746D01*
X381695Y106791D01*
X381693Y106829D01*
Y106852D01*
Y106860D01*
X381706Y106932D01*
X381735Y107001D01*
X381771Y107068D01*
X381811Y107126D01*
X381847Y107176D01*
X381865Y107198D01*
X381880Y107213D01*
X381894Y107231D01*
X381912Y107249D01*
X381981Y107314D01*
X382050Y107366D01*
X382115Y107408D01*
X382171Y107441D01*
X382198Y107455D01*
X382222Y107466D01*
X382242Y107473D01*
X382260Y107482D01*
X382274Y107486D01*
X382285Y107488D01*
X382292Y107491D01*
X382294Y107493D01*
X382367Y107513D01*
X382439Y107522D01*
X382508Y107529D01*
X382569Y107531D01*
X382620Y107533D01*
X382662Y107531D01*
X382687Y107529D01*
X382694Y107531D01*
X382696Y107529D01*
Y107980D01*
X382595Y107987D01*
D02*
G37*
%LPD*%
G36*
X388244Y109622D02*
X387373Y108751D01*
X386680Y109443D01*
X386615Y110049D01*
X388244Y109622D01*
D02*
G37*
%LPC*%
G36*
X377903Y114469D02*
X377903D01*
X379063Y113310D01*
X378962Y113406D01*
X378911Y113453D01*
X378864Y113495D01*
X378817Y113533D01*
X378772Y113569D01*
X378730Y113602D01*
X378692Y113631D01*
X378656Y113658D01*
X378622Y113683D01*
X378593Y113703D01*
X378569Y113718D01*
X378551Y113732D01*
X378535Y113743D01*
X378526Y113748D01*
X378524Y113750D01*
X378426Y113808D01*
X378334Y113855D01*
X378287Y113875D01*
X378247Y113893D01*
X378204Y113908D01*
X378169Y113922D01*
X378135Y113933D01*
X378104Y113942D01*
X378077Y113951D01*
X378055Y113955D01*
X378037Y113960D01*
X378024Y113964D01*
X378017Y113967D01*
X378012D01*
X377921Y113978D01*
X377831Y113982D01*
X377751Y113978D01*
X377679Y113969D01*
X377619Y113958D01*
X377592Y113953D01*
X377570Y113949D01*
X377554Y113942D01*
X377541Y113937D01*
X377532D01*
X377530Y113935D01*
X377443Y113902D01*
X377360Y113859D01*
X377284Y113810D01*
X377217Y113765D01*
X377188Y113741D01*
X377161Y113718D01*
X377139Y113701D01*
X377121Y113683D01*
X377103Y113669D01*
X377083Y113649D01*
X377011Y113569D01*
X376949Y113488D01*
X376897Y113415D01*
X376877Y113377D01*
X376859Y113345D01*
X376841Y113314D01*
X376830Y113285D01*
X376819Y113260D01*
X376808Y113240D01*
X376803Y113222D01*
X376797Y113211D01*
Y113202D01*
X376795Y113200D01*
X376770Y113113D01*
X376759Y113026D01*
X376750Y112945D01*
Y112869D01*
X376752Y112809D01*
X376757Y112760D01*
X376761Y112742D01*
Y112729D01*
X376763Y112722D01*
Y112717D01*
X376786Y112624D01*
X376817Y112534D01*
X376853Y112445D01*
X376888Y112369D01*
X376906Y112333D01*
X376922Y112300D01*
X376938Y112275D01*
X376951Y112248D01*
X376962Y112228D01*
X376971Y112215D01*
X376976Y112206D01*
X376978Y112204D01*
X377045Y112105D01*
X377119Y112009D01*
X377192Y111917D01*
X377228Y111877D01*
X377264Y111837D01*
X377295Y111801D01*
X377324Y111768D01*
X377353Y111739D01*
X377373Y111714D01*
X377420Y111667D01*
X377523Y111569D01*
X377572Y111524D01*
X377621Y111479D01*
X377668Y111442D01*
X377713Y111406D01*
X377755Y111372D01*
X377793Y111343D01*
X377829Y111312D01*
X377860Y111290D01*
X377889Y111269D01*
X377914Y111254D01*
X377932Y111240D01*
X377947Y111229D01*
X377957Y111225D01*
X377959Y111223D01*
X378055Y111167D01*
X378151Y111120D01*
X378193Y111100D01*
X378236Y111084D01*
X378276Y111066D01*
X378314Y111055D01*
X378347Y111044D01*
X378379Y111035D01*
X378406Y111026D01*
X378428Y111021D01*
X378446Y111017D01*
X378459Y111012D01*
X378468D01*
X378470Y111010D01*
X378562Y110999D01*
X378651Y110995D01*
X378732Y110999D01*
X378803Y111008D01*
X378866Y111021D01*
X378890Y111024D01*
X378911Y111030D01*
X378928Y111035D01*
X378942Y111039D01*
X378951D01*
X378953Y111042D01*
X379040Y111075D01*
X379121Y111120D01*
X379197Y111169D01*
X379266Y111216D01*
X379295Y111240D01*
X379320Y111261D01*
X379344Y111281D01*
X379362Y111299D01*
X379380Y111312D01*
X379400Y111332D01*
X379471Y111413D01*
X379532Y111491D01*
X379583Y111565D01*
X379606Y111600D01*
X379621Y111634D01*
X379639Y111665D01*
X379652Y111692D01*
X379664Y111716D01*
X379673Y111739D01*
X379679Y111754D01*
X379684Y111768D01*
X379686Y111775D01*
X379688Y111777D01*
X379713Y111864D01*
X379726Y111953D01*
X379733Y112031D01*
Y112107D01*
X379731Y112168D01*
X379726Y112217D01*
X379722Y112235D01*
Y112248D01*
Y112257D01*
X379719Y112259D01*
X379697Y112353D01*
X379666Y112443D01*
X379632Y112530D01*
X379594Y112608D01*
X379579Y112642D01*
X379561Y112673D01*
X379545Y112702D01*
X379532Y112724D01*
X379521Y112744D01*
X379512Y112758D01*
X379507Y112767D01*
X379505Y112769D01*
X379438Y112867D01*
X379366Y112966D01*
X379293Y113057D01*
X379257Y113097D01*
X379221Y113137D01*
X379188Y113175D01*
X379159Y113209D01*
X379132Y113236D01*
X379110Y113263D01*
X380220Y112152D01*
Y112152D01*
X377903Y114469D01*
D02*
G37*
G36*
X375952Y112519D02*
X375952D01*
X377581Y110890D01*
X377534Y110932D01*
X377487Y110970D01*
X377443Y111001D01*
X377396Y111030D01*
X377351Y111057D01*
X377304Y111077D01*
X377262Y111098D01*
X377219Y111113D01*
X377181Y111124D01*
X377148Y111135D01*
X377114Y111142D01*
X377090Y111149D01*
X377069Y111151D01*
X377051Y111155D01*
X377038D01*
X376982Y111158D01*
X376924Y111153D01*
X376864Y111147D01*
X376806Y111133D01*
X376750Y111118D01*
X376694Y111098D01*
X376593Y111055D01*
X376549Y111033D01*
X376506Y111012D01*
X376471Y110990D01*
X376439Y110972D01*
X376415Y110957D01*
X376395Y110945D01*
X376383Y110939D01*
X376379Y110934D01*
X376100Y110740D01*
X376055Y110709D01*
X376010Y110682D01*
X375970Y110660D01*
X375932Y110639D01*
X375896Y110622D01*
X375863Y110606D01*
X375834Y110595D01*
X375802Y110586D01*
X375780Y110577D01*
X375758Y110572D01*
X375738Y110566D01*
X375722Y110563D01*
X375702Y110561D01*
X375693D01*
X375635Y110566D01*
X375579Y110581D01*
X375530Y110604D01*
X375487Y110628D01*
X375449Y110653D01*
X375423Y110675D01*
X375411Y110682D01*
X375405Y110688D01*
X375400Y110693D01*
X375398Y110695D01*
X375371Y110726D01*
X375344Y110758D01*
X375304Y110820D01*
X375280Y110881D01*
X375264Y110937D01*
X375255Y110981D01*
X375253Y111019D01*
Y111042D01*
Y111050D01*
X375266Y111122D01*
X375295Y111191D01*
X375331Y111258D01*
X375371Y111316D01*
X375407Y111366D01*
X375425Y111388D01*
X375441Y111404D01*
X375454Y111422D01*
X375472Y111439D01*
X375541Y111504D01*
X375610Y111556D01*
X375675Y111598D01*
X375731Y111632D01*
X375758Y111645D01*
X375782Y111656D01*
X375802Y111663D01*
X375820Y111672D01*
X375834Y111676D01*
X375845Y111678D01*
X375852Y111681D01*
X375854Y111683D01*
X375928Y111703D01*
X375999Y111712D01*
X376068Y111719D01*
X376129Y111721D01*
X376180Y111723D01*
X376222Y111721D01*
X376247Y111719D01*
X376254Y111721D01*
X376256Y111719D01*
Y112170D01*
X376155Y112177D01*
X376057D01*
X375966Y112165D01*
X375885Y112152D01*
X375814Y112134D01*
X375785Y112127D01*
X375760Y112121D01*
X375740Y112114D01*
X375727Y112110D01*
X375715Y112107D01*
X375713Y112105D01*
X375610Y112060D01*
X375512Y112007D01*
X375420Y111946D01*
X375340Y111884D01*
X375302Y111855D01*
X375271Y111828D01*
X375242Y111803D01*
X375219Y111781D01*
X375199Y111766D01*
X375172Y111739D01*
X375110Y111672D01*
X375052Y111605D01*
X375003Y111538D01*
X374960Y111473D01*
X374920Y111410D01*
X374886Y111350D01*
X374859Y111292D01*
X374837Y111238D01*
X374819Y111189D01*
X374806Y111144D01*
X374793Y111104D01*
X374784Y111073D01*
X374779Y111046D01*
X374775Y111024D01*
X374772Y111012D01*
Y111008D01*
X374770Y110939D01*
X374775Y110872D01*
X374781Y110807D01*
X374799Y110744D01*
X374819Y110684D01*
X374842Y110626D01*
X374868Y110572D01*
X374898Y110525D01*
X374927Y110478D01*
X374953Y110438D01*
X374980Y110403D01*
X375000Y110373D01*
X375023Y110351D01*
X375038Y110331D01*
X375047Y110322D01*
X375052Y110318D01*
X375094Y110280D01*
X375137Y110242D01*
X375177Y110210D01*
X375217Y110184D01*
X375248Y110161D01*
X375273Y110146D01*
X375289Y110134D01*
X375293D01*
X375295Y110132D01*
X375344Y110110D01*
X375396Y110090D01*
X375443Y110074D01*
X375485Y110063D01*
X375523Y110056D01*
X375550Y110052D01*
X375570Y110049D01*
X375577Y110047D01*
X375633Y110045D01*
X375689Y110047D01*
X375742Y110052D01*
X375791Y110061D01*
X375834Y110067D01*
X375865Y110076D01*
X375887Y110081D01*
X375892D01*
X375894Y110083D01*
X375957Y110105D01*
X376021Y110134D01*
X376080Y110166D01*
X376133Y110197D01*
X376180Y110226D01*
X376200Y110237D01*
X376216Y110248D01*
X376229Y110257D01*
X376238Y110266D01*
X376245Y110268D01*
X376247Y110271D01*
X376531Y110474D01*
X376573Y110503D01*
X376616Y110532D01*
X376656Y110555D01*
X376692Y110572D01*
X376728Y110590D01*
X376763Y110604D01*
X376792Y110615D01*
X376819Y110624D01*
X376844Y110630D01*
X376868Y110637D01*
X376886Y110642D01*
X376902Y110644D01*
X376922Y110646D01*
X376931D01*
X376991Y110644D01*
X377047Y110628D01*
X377101Y110606D01*
X377145Y110579D01*
X377183Y110555D01*
X377210Y110532D01*
X377224Y110523D01*
X377230Y110517D01*
X377235Y110512D01*
X377237Y110510D01*
X377268Y110474D01*
X377295Y110443D01*
X377338Y110373D01*
X377367Y110309D01*
X377382Y110248D01*
X377391Y110195D01*
X377396Y110154D01*
Y110128D01*
Y110123D01*
Y110119D01*
X377391Y110079D01*
X377380Y110041D01*
X377353Y109965D01*
X377315Y109895D01*
X377275Y109828D01*
X377235Y109775D01*
X377217Y109752D01*
X377201Y109737D01*
X377188Y109719D01*
X377168Y109699D01*
X377098Y109634D01*
X377027Y109580D01*
X376960Y109536D01*
X376900Y109502D01*
X376870Y109486D01*
X376846Y109475D01*
X376824Y109466D01*
X376803Y109455D01*
X376790Y109451D01*
X376777Y109446D01*
X376770Y109444D01*
X376768Y109442D01*
X376683Y109419D01*
X376600Y109404D01*
X376515Y109395D01*
X376437Y109393D01*
X376368Y109390D01*
X376341D01*
X376316Y109393D01*
X376298D01*
X376283Y109395D01*
X376270D01*
X376258Y108941D01*
X376258Y108941D01*
X376370Y108932D01*
X376477D01*
X376580Y108941D01*
X376669Y108955D01*
X376712Y108961D01*
X376748Y108970D01*
X376781Y108977D01*
X376808Y108981D01*
X376828Y108988D01*
X376846Y108993D01*
X376855Y108997D01*
X376859D01*
X376915Y109017D01*
X376971Y109042D01*
X377081Y109098D01*
X377181Y109162D01*
X377226Y109194D01*
X377268Y109227D01*
X377309Y109258D01*
X377346Y109288D01*
X377378Y109314D01*
X377402Y109339D01*
X377425Y109357D01*
X377454Y109386D01*
X377523Y109460D01*
X377586Y109531D01*
X377635Y109598D01*
X377657Y109629D01*
X377677Y109659D01*
X377695Y109685D01*
X377711Y109710D01*
X377724Y109732D01*
X377733Y109750D01*
X377742Y109764D01*
X377749Y109775D01*
X377751Y109781D01*
X377753Y109784D01*
X377787Y109857D01*
X377816Y109931D01*
X377836Y109996D01*
X377852Y110056D01*
X377860Y110105D01*
X377867Y110143D01*
Y110157D01*
X377869Y110168D01*
X377867Y110175D01*
X377869Y110177D01*
X377872Y110251D01*
X377865Y110320D01*
X377856Y110382D01*
X377845Y110438D01*
X377831Y110487D01*
X377822Y110523D01*
X377816Y110539D01*
X377811Y110548D01*
Y110552D01*
X377809Y110555D01*
X377778Y110622D01*
X377742Y110684D01*
X377704Y110740D01*
X377668Y110789D01*
X377635Y110831D01*
X377619Y110847D01*
X377608Y110863D01*
X378269Y110201D01*
X378269Y110201D01*
X375952Y112519D01*
D02*
G37*
G36*
X373975Y110465D02*
X372560Y109051D01*
X372833Y108778D01*
X373360Y109305D01*
X375056Y107609D01*
X374529Y107082D01*
X374801Y106809D01*
X376216Y108224D01*
X373975Y110465D01*
D02*
G37*
G36*
X372125Y108615D02*
X371711Y108202D01*
X372254Y106966D01*
X372232Y106944D01*
X370998Y107489D01*
X370558Y107049D01*
X372799Y104807D01*
X373117Y105125D01*
X372046Y106195D01*
X371363Y106861D01*
X371387Y106886D01*
X372989Y106186D01*
X372288Y107786D01*
X372312Y107811D01*
X372978Y107127D01*
X374048Y106056D01*
X374366Y106374D01*
X372125Y108615D01*
D02*
G37*
%LPD*%
G36*
X377854Y113513D02*
X377874Y113511D01*
X377889Y113508D01*
X377901Y113506D01*
X377903Y113504D01*
X377957Y113486D01*
X378010Y113464D01*
X378113Y113410D01*
X378213Y113345D01*
X378301Y113280D01*
X378341Y113249D01*
X378379Y113220D01*
X378412Y113191D01*
X378437Y113167D01*
X378462Y113146D01*
X378477Y113131D01*
X378486Y113122D01*
X378490Y113117D01*
X378866Y112742D01*
X378922Y112686D01*
X378971Y112628D01*
X379018Y112572D01*
X379058Y112519D01*
X379096Y112467D01*
X379127Y112418D01*
X379154Y112373D01*
X379179Y112331D01*
X379197Y112291D01*
X379215Y112255D01*
X379228Y112224D01*
X379239Y112199D01*
X379248Y112177D01*
X379253Y112163D01*
X379257Y112154D01*
Y112150D01*
X379268Y112099D01*
X379275Y112047D01*
Y111998D01*
X379268Y111951D01*
X379259Y111906D01*
X379243Y111864D01*
X379228Y111821D01*
X379210Y111786D01*
X379190Y111752D01*
X379172Y111721D01*
X379152Y111696D01*
X379136Y111672D01*
X379121Y111656D01*
X379112Y111643D01*
X379100Y111632D01*
X379056Y111591D01*
X379007Y111556D01*
X378962Y111529D01*
X378917Y111506D01*
X378873Y111488D01*
X378828Y111475D01*
X378788Y111466D01*
X378748Y111462D01*
X378712Y111457D01*
X378680D01*
X378651Y111459D01*
X378627Y111462D01*
X378605Y111466D01*
X378589Y111468D01*
X378582Y111471D01*
X378578D01*
X378524Y111488D01*
X378473Y111513D01*
X378370Y111567D01*
X378269Y111632D01*
X378182Y111696D01*
X378140Y111730D01*
X378104Y111757D01*
X378070Y111786D01*
X378046Y111810D01*
X378021Y111830D01*
X378006Y111846D01*
X377997Y111855D01*
X377992Y111859D01*
X377612Y112239D01*
X377559Y112297D01*
X377507Y112353D01*
X377463Y112407D01*
X377422Y112460D01*
X377387Y112510D01*
X377355Y112559D01*
X377326Y112606D01*
X377304Y112646D01*
X377282Y112686D01*
X377266Y112720D01*
X377253Y112751D01*
X377241Y112776D01*
X377233Y112798D01*
X377228Y112811D01*
X377226Y112822D01*
X377224Y112825D01*
X377212Y112876D01*
X377208Y112930D01*
Y112979D01*
X377215Y113026D01*
X377224Y113070D01*
X377237Y113115D01*
X377255Y113155D01*
X377271Y113193D01*
X377291Y113227D01*
X377309Y113258D01*
X377329Y113287D01*
X377344Y113307D01*
X377362Y113325D01*
X377371Y113339D01*
X377382Y113350D01*
X377427Y113390D01*
X377472Y113426D01*
X377521Y113453D01*
X377566Y113475D01*
X377608Y113491D01*
X377653Y113504D01*
X377693Y113513D01*
X377733Y113517D01*
X377831D01*
X377854Y113513D01*
D02*
G37*
G36*
X375943Y108496D02*
X375416Y107969D01*
X373720Y109665D01*
X374247Y110193D01*
X375943Y108496D01*
D02*
G37*
%LPC*%
G36*
X365919Y112964D02*
X365821D01*
X365729Y112953D01*
X365649Y112940D01*
X365577Y112922D01*
X365548Y112915D01*
X365524Y112908D01*
X365504Y112901D01*
X365490Y112897D01*
X365479Y112895D01*
X365477Y112893D01*
X365374Y112848D01*
X365276Y112794D01*
X365184Y112734D01*
X365104Y112671D01*
X365066Y112642D01*
X365034Y112616D01*
X365005Y112591D01*
X364983Y112569D01*
X364963Y112553D01*
X364936Y112526D01*
X364874Y112459D01*
X364815Y112392D01*
X364766Y112325D01*
X364724Y112260D01*
X364684Y112198D01*
X364650Y112137D01*
X364623Y112079D01*
X364601Y112026D01*
X364583Y111977D01*
X364570Y111932D01*
X364556Y111892D01*
X364547Y111860D01*
X364543Y111834D01*
X364538Y111811D01*
X364536Y111800D01*
Y111795D01*
X364534Y111726D01*
X364538Y111659D01*
X364545Y111594D01*
X364563Y111532D01*
X364583Y111471D01*
X364605Y111413D01*
X364632Y111360D01*
X364661Y111313D01*
X364690Y111266D01*
X364717Y111226D01*
X364744Y111190D01*
X364764Y111161D01*
X364786Y111139D01*
X364802Y111118D01*
X364811Y111109D01*
X364815Y111105D01*
X364858Y111067D01*
X364900Y111029D01*
X364941Y110998D01*
X364981Y110971D01*
X365012Y110949D01*
X365037Y110933D01*
X365052Y110922D01*
X365057D01*
X365059Y110920D01*
X365108Y110897D01*
X365160Y110877D01*
X365207Y110862D01*
X365249Y110850D01*
X365287Y110844D01*
X365314Y110839D01*
X365334Y110837D01*
X365341Y110835D01*
X365396Y110832D01*
X365452Y110835D01*
X365506Y110839D01*
X365555Y110848D01*
X365598Y110855D01*
X365629Y110864D01*
X365651Y110868D01*
X365656D01*
X365658Y110870D01*
X365720Y110893D01*
X365785Y110922D01*
X365843Y110953D01*
X365897Y110984D01*
X365944Y111013D01*
X365964Y111025D01*
X365980Y111036D01*
X365993Y111045D01*
X366002Y111054D01*
X366009Y111056D01*
X366011Y111058D01*
X366295Y111261D01*
X366337Y111291D01*
X366380Y111319D01*
X366420Y111342D01*
X366456Y111360D01*
X366491Y111378D01*
X366527Y111391D01*
X366556Y111402D01*
X366583Y111411D01*
X366607Y111418D01*
X366632Y111425D01*
X366650Y111429D01*
X366666Y111431D01*
X366686Y111433D01*
X366695D01*
X366755Y111431D01*
X366811Y111416D01*
X366864Y111393D01*
X366909Y111366D01*
X366947Y111342D01*
X366974Y111319D01*
X366987Y111311D01*
X366994Y111304D01*
X366999Y111299D01*
X367001Y111297D01*
X367032Y111261D01*
X367059Y111230D01*
X367101Y111161D01*
X367130Y111096D01*
X367146Y111036D01*
X367155Y110982D01*
X367159Y110942D01*
Y110915D01*
Y110911D01*
Y110906D01*
X367155Y110866D01*
X367144Y110828D01*
X367117Y110752D01*
X367079Y110683D01*
X367039Y110616D01*
X366999Y110562D01*
X366981Y110540D01*
X366965Y110524D01*
X366952Y110506D01*
X366932Y110486D01*
X366862Y110421D01*
X366791Y110368D01*
X366724Y110323D01*
X366663Y110290D01*
X366634Y110274D01*
X366610Y110263D01*
X366587Y110254D01*
X366567Y110242D01*
X366554Y110238D01*
X366541Y110234D01*
X366534Y110231D01*
X366531Y110229D01*
X366447Y110207D01*
X366364Y110191D01*
X366279Y110182D01*
X366201Y110180D01*
X366132Y110178D01*
X366105D01*
X366080Y110180D01*
X366062D01*
X366047Y110182D01*
X366033D01*
X366022Y109729D01*
X366134Y109720D01*
X366241D01*
X366344Y109729D01*
X366433Y109742D01*
X366476Y109749D01*
X366511Y109758D01*
X366545Y109764D01*
X366572Y109769D01*
X366592Y109775D01*
X366610Y109780D01*
X366619Y109784D01*
X366623D01*
X366679Y109805D01*
X366735Y109829D01*
X366844Y109885D01*
X366945Y109950D01*
X366990Y109981D01*
X367032Y110015D01*
X367072Y110046D01*
X367110Y110075D01*
X367142Y110102D01*
X367166Y110126D01*
X367189Y110144D01*
X367217Y110173D01*
X367287Y110247D01*
X367349Y110319D01*
X367399Y110386D01*
X367421Y110417D01*
X367441Y110446D01*
X367459Y110473D01*
X367475Y110497D01*
X367488Y110520D01*
X367497Y110538D01*
X367506Y110551D01*
X367512Y110562D01*
X367515Y110569D01*
X367517Y110571D01*
X367550Y110645D01*
X367580Y110719D01*
X367600Y110783D01*
X367615Y110844D01*
X367624Y110893D01*
X367631Y110931D01*
Y110944D01*
X367633Y110955D01*
X367631Y110962D01*
X367633Y110964D01*
X367635Y111038D01*
X367629Y111107D01*
X367620Y111170D01*
X367608Y111226D01*
X367595Y111275D01*
X367586Y111311D01*
X367580Y111326D01*
X367575Y111335D01*
Y111340D01*
X367573Y111342D01*
X367542Y111409D01*
X367506Y111471D01*
X367468Y111527D01*
X367432Y111576D01*
X367399Y111619D01*
X367383Y111635D01*
X367372Y111650D01*
X367345Y111677D01*
X367298Y111720D01*
X367251Y111758D01*
X367206Y111789D01*
X367159Y111818D01*
X367115Y111845D01*
X367068Y111865D01*
X367025Y111885D01*
X366983Y111900D01*
X366945Y111912D01*
X366911Y111923D01*
X366878Y111930D01*
X366853Y111936D01*
X366833Y111939D01*
X366815Y111943D01*
X366802D01*
X366746Y111945D01*
X366688Y111941D01*
X366628Y111934D01*
X366569Y111921D01*
X366514Y111905D01*
X366458Y111885D01*
X366357Y111842D01*
X366313Y111820D01*
X366270Y111800D01*
X366234Y111778D01*
X366203Y111760D01*
X366178Y111744D01*
X366158Y111733D01*
X366147Y111726D01*
X366143Y111722D01*
X365863Y111527D01*
X365819Y111496D01*
X365774Y111469D01*
X365734Y111447D01*
X365696Y111427D01*
X365660Y111409D01*
X365627Y111393D01*
X365598Y111382D01*
X365566Y111373D01*
X365544Y111364D01*
X365522Y111360D01*
X365501Y111353D01*
X365486Y111351D01*
X365466Y111349D01*
X365457D01*
X365399Y111353D01*
X365343Y111369D01*
X365294Y111391D01*
X365251Y111416D01*
X365213Y111440D01*
X365186Y111463D01*
X365175Y111469D01*
X365168Y111476D01*
X365164Y111480D01*
X365162Y111483D01*
X365135Y111514D01*
X365108Y111545D01*
X365068Y111608D01*
X365043Y111668D01*
X365028Y111724D01*
X365019Y111769D01*
X365017Y111807D01*
Y111829D01*
Y111838D01*
X365030Y111909D01*
X365059Y111979D01*
X365095Y112046D01*
X365135Y112104D01*
X365171Y112153D01*
X365189Y112175D01*
X365204Y112191D01*
X365218Y112209D01*
X365235Y112227D01*
X365305Y112292D01*
X365374Y112343D01*
X365439Y112385D01*
X365495Y112419D01*
X365522Y112432D01*
X365546Y112443D01*
X365566Y112450D01*
X365584Y112459D01*
X365598Y112464D01*
X365609Y112466D01*
X365615Y112468D01*
X365618Y112470D01*
X365691Y112490D01*
X365763Y112499D01*
X365832Y112506D01*
X365893Y112508D01*
X365944Y112511D01*
X365986Y112508D01*
X366011Y112506D01*
X366018Y112508D01*
X366020Y112506D01*
Y112957D01*
X365919Y112964D01*
D02*
G37*
G36*
X367591Y115105D02*
X366176Y113690D01*
X366449Y113418D01*
X366976Y113945D01*
X368672Y112249D01*
X368145Y111722D01*
X368417Y111449D01*
X369832Y112864D01*
X369559Y113136D01*
X369032Y112609D01*
X367336Y114305D01*
X367863Y114832D01*
X367591Y115105D01*
D02*
G37*
G36*
X363743Y110917D02*
X363663Y110913D01*
X363591Y110904D01*
X363531Y110893D01*
X363504Y110888D01*
X363481Y110884D01*
X363466Y110877D01*
X363452Y110873D01*
X363443D01*
X363441Y110870D01*
X363354Y110837D01*
X363271Y110794D01*
X363195Y110745D01*
X363128Y110701D01*
X363099Y110676D01*
X363073Y110654D01*
X363050Y110636D01*
X363032Y110618D01*
X363015Y110605D01*
X362994Y110584D01*
X362923Y110504D01*
X362860Y110424D01*
X362809Y110350D01*
X362789Y110312D01*
X362771Y110281D01*
X362753Y110249D01*
X362742Y110220D01*
X362731Y110196D01*
X362719Y110176D01*
X362715Y110158D01*
X362708Y110146D01*
Y110137D01*
X362706Y110135D01*
X362682Y110048D01*
X362670Y109961D01*
X362662Y109880D01*
Y109805D01*
X362664Y109744D01*
X362668Y109695D01*
X362673Y109677D01*
Y109664D01*
X362675Y109657D01*
Y109653D01*
X362697Y109559D01*
X362729Y109469D01*
X362764Y109380D01*
X362800Y109304D01*
X362818Y109268D01*
X362833Y109235D01*
X362849Y109210D01*
X362863Y109183D01*
X362874Y109163D01*
X362883Y109150D01*
X362887Y109141D01*
X362889Y109139D01*
X362956Y109040D01*
X363030Y108944D01*
X363104Y108853D01*
X363140Y108812D01*
X363175Y108772D01*
X363207Y108737D01*
X363236Y108703D01*
X363265Y108674D01*
X363285Y108649D01*
X363332Y108602D01*
X363435Y108504D01*
X363484Y108459D01*
X363533Y108415D01*
X363580Y108377D01*
X363625Y108341D01*
X363667Y108308D01*
X363705Y108278D01*
X363741Y108247D01*
X363772Y108225D01*
X363801Y108205D01*
X363826Y108189D01*
X363843Y108176D01*
X363859Y108165D01*
X363868Y108160D01*
X363870Y108158D01*
X363966Y108102D01*
X364062Y108055D01*
X364105Y108035D01*
X364147Y108019D01*
X364188Y108001D01*
X364226Y107990D01*
X364259Y107979D01*
X364290Y107970D01*
X364317Y107961D01*
X364339Y107957D01*
X364357Y107952D01*
X364371Y107948D01*
X364380D01*
X364382Y107946D01*
X364474Y107934D01*
X364563Y107930D01*
X364643Y107934D01*
X364715Y107943D01*
X364777Y107957D01*
X364802Y107959D01*
X364822Y107966D01*
X364840Y107970D01*
X364854Y107975D01*
X364862D01*
X364865Y107977D01*
X364952Y108010D01*
X365032Y108055D01*
X365108Y108104D01*
X365177Y108151D01*
X365207Y108176D01*
X365231Y108196D01*
X365256Y108216D01*
X365273Y108234D01*
X365291Y108247D01*
X365312Y108267D01*
X365383Y108348D01*
X365443Y108426D01*
X365495Y108500D01*
X365517Y108535D01*
X365533Y108569D01*
X365551Y108600D01*
X365564Y108627D01*
X365575Y108652D01*
X365584Y108674D01*
X365591Y108690D01*
X365595Y108703D01*
X365598Y108710D01*
X365600Y108712D01*
X365624Y108799D01*
X365638Y108888D01*
X365645Y108967D01*
Y109043D01*
X365642Y109103D01*
X365638Y109152D01*
X365633Y109170D01*
Y109183D01*
Y109192D01*
X365631Y109195D01*
X365609Y109288D01*
X365577Y109378D01*
X365544Y109465D01*
X365506Y109543D01*
X365490Y109577D01*
X365472Y109608D01*
X365457Y109637D01*
X365443Y109659D01*
X365432Y109679D01*
X365423Y109693D01*
X365419Y109702D01*
X365417Y109704D01*
X365350Y109802D01*
X365278Y109901D01*
X365204Y109992D01*
X365168Y110032D01*
X365133Y110073D01*
X365099Y110111D01*
X365070Y110144D01*
X365043Y110171D01*
X365021Y110198D01*
X364974Y110245D01*
X364874Y110341D01*
X364822Y110388D01*
X364775Y110430D01*
X364728Y110468D01*
X364684Y110504D01*
X364641Y110538D01*
X364603Y110566D01*
X364567Y110593D01*
X364534Y110618D01*
X364505Y110638D01*
X364480Y110654D01*
X364462Y110667D01*
X364447Y110678D01*
X364438Y110683D01*
X364436Y110685D01*
X364337Y110743D01*
X364246Y110790D01*
X364199Y110810D01*
X364159Y110828D01*
X364116Y110844D01*
X364080Y110857D01*
X364047Y110868D01*
X364016Y110877D01*
X363989Y110886D01*
X363966Y110890D01*
X363948Y110895D01*
X363935Y110899D01*
X363928Y110902D01*
X363924D01*
X363832Y110913D01*
X363743Y110917D01*
D02*
G37*
G36*
X361888Y109402D02*
X361475Y108989D01*
X362018Y107753D01*
X361996Y107731D01*
X360762Y108276D01*
X360322Y107836D01*
X362563Y105595D01*
X362880Y105912D01*
X361810Y106983D01*
X361126Y107648D01*
X361151Y107673D01*
X362753Y106974D01*
X362051Y108573D01*
X362076Y108598D01*
X362742Y107914D01*
X363812Y106844D01*
X364129Y107161D01*
X361888Y109402D01*
D02*
G37*
%LPD*%
G36*
X363765Y110448D02*
X363785Y110446D01*
X363801Y110444D01*
X363812Y110441D01*
X363814Y110439D01*
X363868Y110421D01*
X363922Y110399D01*
X364024Y110345D01*
X364125Y110281D01*
X364212Y110216D01*
X364252Y110184D01*
X364290Y110155D01*
X364324Y110126D01*
X364349Y110102D01*
X364373Y110082D01*
X364389Y110066D01*
X364398Y110057D01*
X364402Y110053D01*
X364777Y109677D01*
X364833Y109621D01*
X364882Y109563D01*
X364929Y109507D01*
X364970Y109454D01*
X365008Y109402D01*
X365039Y109353D01*
X365066Y109309D01*
X365090Y109266D01*
X365108Y109226D01*
X365126Y109190D01*
X365140Y109159D01*
X365151Y109134D01*
X365160Y109112D01*
X365164Y109098D01*
X365168Y109090D01*
Y109085D01*
X365180Y109034D01*
X365186Y108982D01*
Y108933D01*
X365180Y108886D01*
X365171Y108842D01*
X365155Y108799D01*
X365140Y108757D01*
X365122Y108721D01*
X365102Y108687D01*
X365084Y108656D01*
X365064Y108632D01*
X365048Y108607D01*
X365032Y108591D01*
X365023Y108578D01*
X365012Y108567D01*
X364967Y108527D01*
X364918Y108491D01*
X364874Y108464D01*
X364829Y108442D01*
X364784Y108424D01*
X364739Y108410D01*
X364699Y108401D01*
X364659Y108397D01*
X364623Y108392D01*
X364592D01*
X364563Y108395D01*
X364538Y108397D01*
X364516Y108401D01*
X364500Y108404D01*
X364494Y108406D01*
X364489D01*
X364436Y108424D01*
X364384Y108448D01*
X364281Y108502D01*
X364181Y108567D01*
X364094Y108632D01*
X364051Y108665D01*
X364016Y108692D01*
X363982Y108721D01*
X363957Y108745D01*
X363933Y108766D01*
X363917Y108781D01*
X363908Y108790D01*
X363904Y108795D01*
X363524Y109175D01*
X363470Y109233D01*
X363419Y109288D01*
X363374Y109342D01*
X363334Y109396D01*
X363298Y109445D01*
X363267Y109494D01*
X363238Y109541D01*
X363216Y109581D01*
X363193Y109621D01*
X363178Y109655D01*
X363164Y109686D01*
X363153Y109711D01*
X363144Y109733D01*
X363140Y109747D01*
X363137Y109758D01*
X363135Y109760D01*
X363124Y109811D01*
X363120Y109865D01*
Y109914D01*
X363126Y109961D01*
X363135Y110006D01*
X363149Y110050D01*
X363166Y110091D01*
X363182Y110129D01*
X363202Y110162D01*
X363220Y110193D01*
X363240Y110222D01*
X363256Y110242D01*
X363274Y110260D01*
X363283Y110274D01*
X363294Y110285D01*
X363338Y110325D01*
X363383Y110361D01*
X363432Y110388D01*
X363477Y110410D01*
X363520Y110426D01*
X363564Y110439D01*
X363604Y110448D01*
X363645Y110453D01*
X363743D01*
X363765Y110448D01*
D02*
G37*
%LPC*%
G36*
X319435Y147441D02*
X319397D01*
X319305Y147438D01*
X319217Y147432D01*
X319135Y147419D01*
X319059Y147403D01*
X318986Y147387D01*
X318920Y147368D01*
X318860Y147346D01*
X318806Y147324D01*
X318759Y147302D01*
X318718Y147280D01*
X318680Y147261D01*
X318651Y147245D01*
X318629Y147229D01*
X318610Y147217D01*
X318601Y147210D01*
X318597Y147207D01*
X318547Y147160D01*
X318503Y147109D01*
X318461Y147059D01*
X318430Y147002D01*
X318402Y146945D01*
X318376Y146888D01*
X318357Y146831D01*
X318345Y146777D01*
X318332Y146724D01*
X318322Y146676D01*
X318316Y146632D01*
X318310Y146597D01*
Y146566D01*
X318307Y146540D01*
Y146528D01*
Y146521D01*
X318310Y146465D01*
X318313Y146408D01*
X318319Y146357D01*
X318329Y146310D01*
X318335Y146272D01*
X318341Y146243D01*
X318345Y146224D01*
X318348Y146221D01*
Y146218D01*
X318367Y146168D01*
X318389Y146117D01*
X318411Y146073D01*
X318433Y146035D01*
X318455Y146003D01*
X318471Y145981D01*
X318484Y145965D01*
X318487Y145959D01*
X318525Y145918D01*
X318566Y145880D01*
X318607Y145845D01*
X318648Y145817D01*
X318683Y145791D01*
X318711Y145776D01*
X318730Y145763D01*
X318733Y145760D01*
X318737D01*
X318796Y145731D01*
X318863Y145706D01*
X318926Y145687D01*
X318986Y145671D01*
X319040Y145659D01*
X319062Y145652D01*
X319081Y145649D01*
X319097Y145646D01*
X319109D01*
X319116Y145643D01*
X319119D01*
X319463Y145586D01*
X319514Y145577D01*
X319564Y145567D01*
X319609Y145554D01*
X319647Y145542D01*
X319685Y145529D01*
X319719Y145513D01*
X319748Y145501D01*
X319773Y145488D01*
X319795Y145475D01*
X319817Y145463D01*
X319833Y145453D01*
X319846Y145444D01*
X319861Y145431D01*
X319868Y145425D01*
X319909Y145381D01*
X319937Y145330D01*
X319959Y145276D01*
X319972Y145226D01*
X319982Y145182D01*
X319985Y145147D01*
X319988Y145131D01*
Y145122D01*
Y145115D01*
Y145112D01*
X319985Y145065D01*
X319982Y145024D01*
X319963Y144945D01*
X319937Y144878D01*
X319906Y144825D01*
X319874Y144780D01*
X319849Y144749D01*
X319830Y144730D01*
X319827Y144727D01*
X319824Y144723D01*
X319792Y144698D01*
X319757Y144679D01*
X319685Y144644D01*
X319609Y144622D01*
X319533Y144603D01*
X319466Y144594D01*
X319438Y144591D01*
X319416D01*
X319394Y144588D01*
X319365D01*
X319270Y144591D01*
X319182Y144603D01*
X319103Y144619D01*
X319037Y144638D01*
X319005Y144648D01*
X318980Y144657D01*
X318958Y144667D01*
X318935Y144673D01*
X318923Y144679D01*
X318910Y144685D01*
X318904Y144689D01*
X318901D01*
X318825Y144733D01*
X318755Y144780D01*
X318689Y144834D01*
X318632Y144888D01*
X318582Y144935D01*
X318563Y144954D01*
X318547Y144973D01*
X318534Y144986D01*
X318525Y144998D01*
X318518Y145005D01*
X318515Y145008D01*
X318187Y144695D01*
X318259Y144610D01*
X318335Y144534D01*
X318414Y144467D01*
X318487Y144414D01*
X318522Y144388D01*
X318553Y144369D01*
X318582Y144351D01*
X318604Y144335D01*
X318623Y144325D01*
X318638Y144316D01*
X318648Y144313D01*
X318651Y144309D01*
X318705Y144284D01*
X318762Y144262D01*
X318879Y144224D01*
X318996Y144199D01*
X319049Y144189D01*
X319103Y144183D01*
X319154Y144177D01*
X319201Y144170D01*
X319242Y144167D01*
X319277D01*
X319305Y144164D01*
X319346D01*
X319447Y144167D01*
X319542Y144174D01*
X319624Y144186D01*
X319662Y144193D01*
X319697Y144199D01*
X319729Y144205D01*
X319757Y144211D01*
X319782Y144218D01*
X319801Y144224D01*
X319817Y144227D01*
X319830Y144230D01*
X319836Y144234D01*
X319839D01*
X319915Y144262D01*
X319988Y144294D01*
X320048Y144325D01*
X320102Y144357D01*
X320143Y144385D01*
X320174Y144407D01*
X320184Y144417D01*
X320193Y144423D01*
X320196Y144430D01*
X320199D01*
X320253Y144480D01*
X320298Y144534D01*
X320335Y144584D01*
X320367Y144632D01*
X320392Y144676D01*
X320411Y144708D01*
X320418Y144723D01*
X320421Y144733D01*
X320424Y144736D01*
Y144739D01*
X320449Y144809D01*
X320468Y144878D01*
X320481Y144945D01*
X320490Y145005D01*
X320497Y145058D01*
Y145080D01*
X320500Y145099D01*
Y145137D01*
X320497Y145201D01*
X320490Y145261D01*
X320481Y145314D01*
X320468Y145368D01*
X320456Y145419D01*
X320437Y145466D01*
X320421Y145510D01*
X320402Y145551D01*
X320383Y145586D01*
X320367Y145618D01*
X320348Y145646D01*
X320335Y145668D01*
X320323Y145684D01*
X320313Y145700D01*
X320307Y145706D01*
X320304Y145709D01*
X320266Y145750D01*
X320222Y145788D01*
X320174Y145826D01*
X320124Y145858D01*
X320073Y145886D01*
X320019Y145912D01*
X319918Y145953D01*
X319871Y145968D01*
X319827Y145984D01*
X319786Y145994D01*
X319751Y146003D01*
X319722Y146010D01*
X319700Y146016D01*
X319688Y146019D01*
X319681D01*
X319346Y146079D01*
X319293Y146089D01*
X319242Y146101D01*
X319198Y146114D01*
X319157Y146126D01*
X319119Y146139D01*
X319084Y146152D01*
X319056Y146164D01*
X319027Y146180D01*
X319005Y146190D01*
X318986Y146202D01*
X318967Y146212D01*
X318954Y146221D01*
X318939Y146234D01*
X318932Y146240D01*
X318895Y146284D01*
X318866Y146335D01*
X318847Y146386D01*
X318834Y146433D01*
X318825Y146477D01*
X318822Y146512D01*
X318819Y146525D01*
Y146534D01*
Y146540D01*
Y146544D01*
X318822Y146585D01*
X318825Y146626D01*
X318841Y146698D01*
X318866Y146758D01*
X318895Y146809D01*
X318920Y146847D01*
X318945Y146875D01*
X318961Y146891D01*
X318967Y146897D01*
X319027Y146939D01*
X319097Y146967D01*
X319169Y146989D01*
X319239Y147002D01*
X319299Y147011D01*
X319327Y147014D01*
X319350D01*
X319372Y147018D01*
X319397D01*
X319492Y147014D01*
X319577Y147002D01*
X319653Y146986D01*
X319716Y146970D01*
X319744Y146961D01*
X319770Y146951D01*
X319789Y146942D01*
X319808Y146935D01*
X319820Y146929D01*
X319830Y146923D01*
X319836Y146920D01*
X319839D01*
X319906Y146882D01*
X319963Y146837D01*
X320016Y146793D01*
X320060Y146752D01*
X320098Y146717D01*
X320127Y146686D01*
X320143Y146667D01*
X320149Y146664D01*
Y146660D01*
X320468Y146980D01*
X320402Y147055D01*
X320332Y147125D01*
X320260Y147182D01*
X320193Y147229D01*
X320130Y147267D01*
X320105Y147283D01*
X320083Y147296D01*
X320064Y147305D01*
X320051Y147311D01*
X320041Y147318D01*
X320038D01*
X319934Y147359D01*
X319827Y147390D01*
X319719Y147413D01*
X319618Y147425D01*
X319571Y147432D01*
X319530Y147435D01*
X319492Y147438D01*
X319460D01*
X319435Y147441D01*
D02*
G37*
G36*
X316777D02*
X316739D01*
X316629Y147438D01*
X316528Y147422D01*
X316433Y147400D01*
X316344Y147375D01*
X316265Y147340D01*
X316190Y147305D01*
X316123Y147267D01*
X316063Y147226D01*
X316013Y147185D01*
X315968Y147147D01*
X315927Y147112D01*
X315899Y147078D01*
X315874Y147052D01*
X315855Y147030D01*
X315845Y147018D01*
X315842Y147011D01*
X315791Y146926D01*
X315747Y146837D01*
X315706Y146743D01*
X315674Y146642D01*
X315646Y146540D01*
X315621Y146442D01*
X315602Y146341D01*
X315589Y146247D01*
X315577Y146155D01*
X315567Y146073D01*
X315561Y145997D01*
X315554Y145931D01*
Y145902D01*
Y145877D01*
X315551Y145855D01*
Y145801D01*
X315554Y145659D01*
X315564Y145523D01*
X315580Y145400D01*
X315595Y145283D01*
X315617Y145172D01*
X315643Y145074D01*
X315668Y144983D01*
X315697Y144904D01*
X315725Y144831D01*
X315750Y144768D01*
X315775Y144714D01*
X315798Y144670D01*
X315817Y144635D01*
X315829Y144610D01*
X315839Y144597D01*
X315842Y144591D01*
X315902Y144515D01*
X315965Y144448D01*
X316035Y144392D01*
X316107Y144344D01*
X316180Y144303D01*
X316256Y144268D01*
X316329Y144240D01*
X316401Y144218D01*
X316471Y144199D01*
X316534Y144186D01*
X316591Y144177D01*
X316641Y144170D01*
X316683Y144167D01*
X316714Y144164D01*
X316739D01*
X316825Y144167D01*
X316900Y144174D01*
X316970Y144183D01*
X317027Y144196D01*
X317074Y144205D01*
X317093Y144211D01*
X317112Y144215D01*
X317125Y144218D01*
X317134Y144221D01*
X317138Y144224D01*
X317141D01*
X317204Y144249D01*
X317258Y144275D01*
X317308Y144303D01*
X317352Y144332D01*
X317387Y144354D01*
X317412Y144373D01*
X317428Y144388D01*
X317435Y144392D01*
X317479Y144433D01*
X317520Y144477D01*
X317555Y144518D01*
X317583Y144556D01*
X317608Y144591D01*
X317624Y144616D01*
X317637Y144635D01*
X317640Y144641D01*
X317671Y144695D01*
X317697Y144752D01*
X317722Y144802D01*
X317741Y144850D01*
X317757Y144888D01*
X317770Y144919D01*
X317773Y144932D01*
X317776Y144941D01*
X317779Y144945D01*
Y144948D01*
X317321Y145103D01*
X317292Y145027D01*
X317280Y144992D01*
X317267Y144960D01*
X317254Y144935D01*
X317248Y144913D01*
X317242Y144900D01*
X317239Y144897D01*
X317220Y144862D01*
X317204Y144831D01*
X317182Y144802D01*
X317166Y144780D01*
X317150Y144761D01*
X317138Y144746D01*
X317128Y144736D01*
X317125Y144733D01*
X317071Y144689D01*
X317021Y144654D01*
X316999Y144641D01*
X316980Y144632D01*
X316967Y144629D01*
X316964Y144625D01*
X316929Y144613D01*
X316891Y144603D01*
X316853Y144597D01*
X316815Y144594D01*
X316784Y144591D01*
X316758Y144588D01*
X316736D01*
X316676Y144591D01*
X316619Y144600D01*
X316565Y144613D01*
X316518Y144629D01*
X316471Y144648D01*
X316433Y144670D01*
X316395Y144692D01*
X316363Y144717D01*
X316335Y144739D01*
X316310Y144761D01*
X316291Y144783D01*
X316272Y144802D01*
X316259Y144821D01*
X316249Y144834D01*
X316246Y144840D01*
X316243Y144843D01*
X316218Y144894D01*
X316193Y144948D01*
X316155Y145058D01*
X316129Y145175D01*
X316110Y145283D01*
X316104Y145336D01*
X316101Y145381D01*
X316095Y145425D01*
Y145460D01*
X316091Y145491D01*
Y145513D01*
Y145526D01*
Y145532D01*
Y146070D01*
X316095Y146149D01*
X316098Y146224D01*
X316104Y146294D01*
X316117Y146360D01*
X316126Y146420D01*
X316139Y146477D01*
X316155Y146531D01*
X316167Y146575D01*
X316183Y146619D01*
X316196Y146654D01*
X316209Y146686D01*
X316221Y146711D01*
X316231Y146733D01*
X316237Y146746D01*
X316240Y146755D01*
X316243Y146758D01*
X316275Y146803D01*
X316310Y146844D01*
X316348Y146879D01*
X316385Y146907D01*
X316426Y146932D01*
X316468Y146954D01*
X316509Y146970D01*
X316547Y146986D01*
X316584Y146995D01*
X316622Y147005D01*
X316654Y147011D01*
X316683Y147014D01*
X316705D01*
X316720Y147018D01*
X316736D01*
X316784Y147014D01*
X316828Y147011D01*
X316869Y147005D01*
X316900Y146999D01*
X316929Y146989D01*
X316948Y146983D01*
X316961Y146980D01*
X316964Y146976D01*
X316999Y146961D01*
X317030Y146942D01*
X317055Y146923D01*
X317081Y146907D01*
X317100Y146891D01*
X317112Y146879D01*
X317122Y146869D01*
X317125Y146866D01*
X317172Y146812D01*
X317191Y146784D01*
X317207Y146758D01*
X317220Y146736D01*
X317232Y146717D01*
X317235Y146705D01*
X317239Y146702D01*
X317270Y146629D01*
X317286Y146597D01*
X317299Y146566D01*
X317308Y146537D01*
X317315Y146518D01*
X317321Y146506D01*
Y146499D01*
X317779Y146654D01*
X317757Y146714D01*
X317735Y146771D01*
X317713Y146822D01*
X317690Y146866D01*
X317668Y146904D01*
X317656Y146932D01*
X317643Y146951D01*
X317640Y146958D01*
X317608Y147011D01*
X317574Y147059D01*
X317539Y147103D01*
X317507Y147138D01*
X317479Y147169D01*
X317457Y147191D01*
X317441Y147204D01*
X317435Y147210D01*
X317387Y147248D01*
X317337Y147283D01*
X317286Y147311D01*
X317242Y147334D01*
X317201Y147353D01*
X317169Y147368D01*
X317157Y147371D01*
X317147Y147375D01*
X317144Y147378D01*
X317141D01*
X317074Y147400D01*
X317008Y147416D01*
X316942Y147425D01*
X316878Y147435D01*
X316822Y147438D01*
X316799D01*
X316777Y147441D01*
D02*
G37*
G36*
X269162Y137205D02*
X269124D01*
X269032Y137202D01*
X268944Y137195D01*
X268861Y137183D01*
X268786Y137167D01*
X268713Y137151D01*
X268647Y137132D01*
X268586Y137110D01*
X268533Y137088D01*
X268485Y137066D01*
X268444Y137044D01*
X268406Y137025D01*
X268378Y137009D01*
X268356Y136993D01*
X268337Y136980D01*
X268327Y136974D01*
X268324Y136971D01*
X268274Y136924D01*
X268229Y136873D01*
X268188Y136822D01*
X268157Y136766D01*
X268128Y136709D01*
X268103Y136652D01*
X268084Y136595D01*
X268071Y136541D01*
X268059Y136487D01*
X268049Y136440D01*
X268043Y136396D01*
X268037Y136361D01*
Y136329D01*
X268034Y136304D01*
Y136292D01*
Y136285D01*
X268037Y136228D01*
X268040Y136171D01*
X268046Y136121D01*
X268056Y136074D01*
X268062Y136036D01*
X268068Y136007D01*
X268071Y135988D01*
X268074Y135985D01*
Y135982D01*
X268093Y135931D01*
X268116Y135881D01*
X268138Y135836D01*
X268160Y135799D01*
X268182Y135767D01*
X268198Y135745D01*
X268210Y135729D01*
X268214Y135723D01*
X268251Y135682D01*
X268293Y135644D01*
X268334Y135609D01*
X268375Y135581D01*
X268409Y135555D01*
X268438Y135539D01*
X268457Y135527D01*
X268460Y135524D01*
X268463D01*
X268523Y135495D01*
X268590Y135470D01*
X268653Y135451D01*
X268713Y135435D01*
X268767Y135423D01*
X268789Y135416D01*
X268808Y135413D01*
X268824Y135410D01*
X268836D01*
X268842Y135407D01*
X268846D01*
X269190Y135350D01*
X269241Y135340D01*
X269291Y135331D01*
X269335Y135318D01*
X269373Y135306D01*
X269411Y135293D01*
X269446Y135277D01*
X269474Y135265D01*
X269500Y135252D01*
X269522Y135239D01*
X269544Y135227D01*
X269560Y135217D01*
X269572Y135208D01*
X269588Y135195D01*
X269595Y135189D01*
X269636Y135144D01*
X269664Y135094D01*
X269686Y135040D01*
X269699Y134990D01*
X269708Y134945D01*
X269711Y134911D01*
X269715Y134895D01*
Y134885D01*
Y134879D01*
Y134876D01*
X269711Y134828D01*
X269708Y134787D01*
X269689Y134708D01*
X269664Y134642D01*
X269632Y134588D01*
X269601Y134544D01*
X269576Y134512D01*
X269557Y134494D01*
X269553Y134490D01*
X269550Y134487D01*
X269519Y134462D01*
X269484Y134443D01*
X269411Y134408D01*
X269335Y134386D01*
X269260Y134367D01*
X269193Y134358D01*
X269165Y134354D01*
X269143D01*
X269121Y134351D01*
X269092D01*
X268997Y134354D01*
X268909Y134367D01*
X268830Y134383D01*
X268763Y134402D01*
X268732Y134411D01*
X268706Y134421D01*
X268684Y134430D01*
X268662Y134437D01*
X268650Y134443D01*
X268637Y134449D01*
X268631Y134452D01*
X268628D01*
X268552Y134497D01*
X268482Y134544D01*
X268416Y134598D01*
X268359Y134651D01*
X268308Y134699D01*
X268289Y134718D01*
X268274Y134737D01*
X268261Y134749D01*
X268251Y134762D01*
X268245Y134768D01*
X268242Y134772D01*
X267913Y134459D01*
X267986Y134373D01*
X268062Y134298D01*
X268141Y134231D01*
X268214Y134177D01*
X268248Y134152D01*
X268280Y134133D01*
X268308Y134114D01*
X268331Y134098D01*
X268350Y134089D01*
X268365Y134080D01*
X268375Y134076D01*
X268378Y134073D01*
X268432Y134048D01*
X268489Y134026D01*
X268605Y133988D01*
X268722Y133963D01*
X268776Y133953D01*
X268830Y133947D01*
X268880Y133940D01*
X268928Y133934D01*
X268969Y133931D01*
X269004D01*
X269032Y133928D01*
X269073D01*
X269174Y133931D01*
X269269Y133937D01*
X269351Y133950D01*
X269389Y133956D01*
X269424Y133963D01*
X269456Y133969D01*
X269484Y133975D01*
X269509Y133982D01*
X269528Y133988D01*
X269544Y133991D01*
X269557Y133994D01*
X269563Y133997D01*
X269566D01*
X269642Y134026D01*
X269715Y134057D01*
X269775Y134089D01*
X269828Y134121D01*
X269869Y134149D01*
X269901Y134171D01*
X269911Y134181D01*
X269920Y134187D01*
X269923Y134193D01*
X269926D01*
X269980Y134244D01*
X270024Y134298D01*
X270062Y134348D01*
X270094Y134396D01*
X270119Y134440D01*
X270138Y134471D01*
X270144Y134487D01*
X270147Y134497D01*
X270151Y134500D01*
Y134503D01*
X270176Y134573D01*
X270195Y134642D01*
X270208Y134708D01*
X270217Y134768D01*
X270223Y134822D01*
Y134844D01*
X270227Y134863D01*
Y134901D01*
X270223Y134964D01*
X270217Y135024D01*
X270208Y135078D01*
X270195Y135132D01*
X270182Y135182D01*
X270163Y135230D01*
X270147Y135274D01*
X270128Y135315D01*
X270110Y135350D01*
X270094Y135381D01*
X270075Y135410D01*
X270062Y135432D01*
X270050Y135448D01*
X270040Y135464D01*
X270034Y135470D01*
X270031Y135473D01*
X269993Y135514D01*
X269948Y135552D01*
X269901Y135590D01*
X269850Y135622D01*
X269800Y135650D01*
X269746Y135675D01*
X269645Y135716D01*
X269598Y135732D01*
X269553Y135748D01*
X269512Y135757D01*
X269478Y135767D01*
X269449Y135773D01*
X269427Y135780D01*
X269414Y135783D01*
X269408D01*
X269073Y135843D01*
X269019Y135852D01*
X268969Y135865D01*
X268925Y135878D01*
X268883Y135890D01*
X268846Y135903D01*
X268811Y135916D01*
X268782Y135928D01*
X268754Y135944D01*
X268732Y135953D01*
X268713Y135966D01*
X268694Y135976D01*
X268681Y135985D01*
X268666Y135998D01*
X268659Y136004D01*
X268621Y136048D01*
X268593Y136099D01*
X268574Y136149D01*
X268561Y136197D01*
X268552Y136241D01*
X268548Y136276D01*
X268545Y136288D01*
Y136298D01*
Y136304D01*
Y136307D01*
X268548Y136348D01*
X268552Y136390D01*
X268567Y136462D01*
X268593Y136522D01*
X268621Y136573D01*
X268647Y136611D01*
X268672Y136639D01*
X268688Y136655D01*
X268694Y136661D01*
X268754Y136702D01*
X268824Y136731D01*
X268896Y136753D01*
X268966Y136766D01*
X269026Y136775D01*
X269054Y136778D01*
X269076D01*
X269098Y136781D01*
X269124D01*
X269218Y136778D01*
X269304Y136766D01*
X269380Y136750D01*
X269443Y136734D01*
X269471Y136724D01*
X269496Y136715D01*
X269515Y136705D01*
X269534Y136699D01*
X269547Y136693D01*
X269557Y136687D01*
X269563Y136683D01*
X269566D01*
X269632Y136645D01*
X269689Y136601D01*
X269743Y136557D01*
X269787Y136516D01*
X269825Y136481D01*
X269854Y136450D01*
X269869Y136431D01*
X269876Y136427D01*
Y136424D01*
X270195Y136743D01*
X270128Y136819D01*
X270059Y136889D01*
X269986Y136946D01*
X269920Y136993D01*
X269857Y137031D01*
X269831Y137047D01*
X269809Y137059D01*
X269790Y137069D01*
X269778Y137075D01*
X269768Y137082D01*
X269765D01*
X269661Y137123D01*
X269553Y137154D01*
X269446Y137176D01*
X269345Y137189D01*
X269298Y137195D01*
X269256Y137198D01*
X269218Y137202D01*
X269187D01*
X269162Y137205D01*
D02*
G37*
G36*
X271952D02*
X271914D01*
X271803Y137202D01*
X271702Y137186D01*
X271607Y137164D01*
X271519Y137138D01*
X271440Y137104D01*
X271364Y137069D01*
X271298Y137031D01*
X271238Y136990D01*
X271187Y136949D01*
X271143Y136911D01*
X271102Y136876D01*
X271073Y136841D01*
X271048Y136816D01*
X271029Y136794D01*
X271020Y136781D01*
X271017Y136775D01*
X270966Y136690D01*
X270922Y136601D01*
X270881Y136506D01*
X270849Y136405D01*
X270821Y136304D01*
X270795Y136206D01*
X270776Y136105D01*
X270764Y136010D01*
X270751Y135919D01*
X270742Y135836D01*
X270735Y135761D01*
X270729Y135694D01*
Y135666D01*
Y135641D01*
X270726Y135618D01*
Y135565D01*
X270729Y135423D01*
X270738Y135287D01*
X270754Y135163D01*
X270770Y135047D01*
X270792Y134936D01*
X270817Y134838D01*
X270843Y134746D01*
X270871Y134667D01*
X270900Y134595D01*
X270925Y134531D01*
X270950Y134478D01*
X270972Y134433D01*
X270991Y134399D01*
X271004Y134373D01*
X271013Y134361D01*
X271017Y134354D01*
X271076Y134279D01*
X271140Y134212D01*
X271209Y134155D01*
X271282Y134108D01*
X271355Y134067D01*
X271430Y134032D01*
X271503Y134004D01*
X271576Y133982D01*
X271645Y133963D01*
X271708Y133950D01*
X271765Y133940D01*
X271816Y133934D01*
X271857Y133931D01*
X271889Y133928D01*
X271914D01*
X271999Y133931D01*
X272075Y133937D01*
X272145Y133947D01*
X272201Y133959D01*
X272249Y133969D01*
X272268Y133975D01*
X272287Y133978D01*
X272300Y133982D01*
X272309Y133985D01*
X272312Y133988D01*
X272315D01*
X272378Y134013D01*
X272432Y134038D01*
X272483Y134067D01*
X272527Y134095D01*
X272562Y134117D01*
X272587Y134136D01*
X272603Y134152D01*
X272609Y134155D01*
X272653Y134196D01*
X272694Y134241D01*
X272729Y134282D01*
X272758Y134320D01*
X272783Y134354D01*
X272799Y134380D01*
X272811Y134399D01*
X272814Y134405D01*
X272846Y134459D01*
X272871Y134516D01*
X272897Y134566D01*
X272916Y134614D01*
X272932Y134651D01*
X272944Y134683D01*
X272947Y134696D01*
X272950Y134705D01*
X272954Y134708D01*
Y134712D01*
X272495Y134866D01*
X272467Y134791D01*
X272454Y134756D01*
X272442Y134724D01*
X272429Y134699D01*
X272423Y134677D01*
X272416Y134664D01*
X272413Y134661D01*
X272394Y134626D01*
X272378Y134595D01*
X272356Y134566D01*
X272340Y134544D01*
X272325Y134525D01*
X272312Y134509D01*
X272303Y134500D01*
X272300Y134497D01*
X272246Y134452D01*
X272195Y134418D01*
X272173Y134405D01*
X272154Y134396D01*
X272142Y134392D01*
X272138Y134389D01*
X272104Y134377D01*
X272066Y134367D01*
X272028Y134361D01*
X271990Y134358D01*
X271958Y134354D01*
X271933Y134351D01*
X271911D01*
X271851Y134354D01*
X271794Y134364D01*
X271740Y134377D01*
X271693Y134392D01*
X271645Y134411D01*
X271607Y134433D01*
X271569Y134456D01*
X271538Y134481D01*
X271510Y134503D01*
X271484Y134525D01*
X271465Y134547D01*
X271446Y134566D01*
X271434Y134585D01*
X271424Y134598D01*
X271421Y134604D01*
X271418Y134607D01*
X271392Y134658D01*
X271367Y134712D01*
X271329Y134822D01*
X271304Y134939D01*
X271285Y135047D01*
X271279Y135100D01*
X271276Y135144D01*
X271269Y135189D01*
Y135223D01*
X271266Y135255D01*
Y135277D01*
Y135290D01*
Y135296D01*
Y135833D01*
X271269Y135912D01*
X271272Y135988D01*
X271279Y136058D01*
X271291Y136124D01*
X271301Y136184D01*
X271314Y136241D01*
X271329Y136295D01*
X271342Y136339D01*
X271358Y136383D01*
X271370Y136418D01*
X271383Y136450D01*
X271396Y136475D01*
X271405Y136497D01*
X271411Y136510D01*
X271415Y136519D01*
X271418Y136522D01*
X271449Y136566D01*
X271484Y136608D01*
X271522Y136642D01*
X271560Y136671D01*
X271601Y136696D01*
X271642Y136718D01*
X271683Y136734D01*
X271721Y136750D01*
X271759Y136759D01*
X271797Y136769D01*
X271829Y136775D01*
X271857Y136778D01*
X271879D01*
X271895Y136781D01*
X271911D01*
X271958Y136778D01*
X272002Y136775D01*
X272043Y136769D01*
X272075Y136762D01*
X272104Y136753D01*
X272123Y136747D01*
X272135Y136743D01*
X272138Y136740D01*
X272173Y136724D01*
X272205Y136705D01*
X272230Y136687D01*
X272255Y136671D01*
X272274Y136655D01*
X272287Y136642D01*
X272296Y136633D01*
X272300Y136630D01*
X272347Y136576D01*
X272366Y136548D01*
X272382Y136522D01*
X272394Y136500D01*
X272407Y136481D01*
X272410Y136469D01*
X272413Y136465D01*
X272445Y136393D01*
X272461Y136361D01*
X272473Y136329D01*
X272483Y136301D01*
X272489Y136282D01*
X272495Y136269D01*
Y136263D01*
X272954Y136418D01*
X272932Y136478D01*
X272909Y136535D01*
X272887Y136585D01*
X272865Y136630D01*
X272843Y136668D01*
X272830Y136696D01*
X272818Y136715D01*
X272814Y136721D01*
X272783Y136775D01*
X272748Y136822D01*
X272713Y136867D01*
X272682Y136901D01*
X272653Y136933D01*
X272631Y136955D01*
X272616Y136968D01*
X272609Y136974D01*
X272562Y137012D01*
X272511Y137047D01*
X272461Y137075D01*
X272416Y137097D01*
X272375Y137116D01*
X272344Y137132D01*
X272331Y137135D01*
X272322Y137138D01*
X272318Y137142D01*
X272315D01*
X272249Y137164D01*
X272182Y137179D01*
X272116Y137189D01*
X272053Y137198D01*
X271996Y137202D01*
X271974D01*
X271952Y137205D01*
D02*
G37*
G36*
X275820Y137151D02*
X275235D01*
X274458Y136159D01*
X274072Y135634D01*
X274047D01*
Y137151D01*
X273541D01*
Y133982D01*
X274047D01*
Y134961D01*
X274429Y135435D01*
X275279Y133982D01*
X275861D01*
X274774Y135814D01*
X275820Y137151D01*
D02*
G37*
G36*
X274530Y124213D02*
X274493D01*
X274401Y124209D01*
X274312Y124203D01*
X274230Y124190D01*
X274154Y124175D01*
X274082Y124159D01*
X274015Y124140D01*
X273955Y124118D01*
X273902Y124096D01*
X273854Y124074D01*
X273813Y124051D01*
X273775Y124032D01*
X273747Y124017D01*
X273725Y124001D01*
X273706Y123988D01*
X273696Y123982D01*
X273693Y123979D01*
X273642Y123931D01*
X273598Y123881D01*
X273557Y123830D01*
X273526Y123773D01*
X273497Y123716D01*
X273472Y123660D01*
X273453Y123603D01*
X273440Y123549D01*
X273428Y123495D01*
X273418Y123448D01*
X273412Y123404D01*
X273406Y123369D01*
Y123337D01*
X273402Y123312D01*
Y123299D01*
Y123293D01*
X273406Y123236D01*
X273409Y123179D01*
X273415Y123129D01*
X273424Y123081D01*
X273431Y123043D01*
X273437Y123015D01*
X273440Y122996D01*
X273443Y122993D01*
Y122990D01*
X273462Y122939D01*
X273484Y122889D01*
X273507Y122844D01*
X273529Y122806D01*
X273551Y122775D01*
X273567Y122753D01*
X273579Y122737D01*
X273582Y122731D01*
X273620Y122689D01*
X273661Y122652D01*
X273703Y122617D01*
X273744Y122588D01*
X273778Y122563D01*
X273807Y122547D01*
X273826Y122535D01*
X273829Y122531D01*
X273832D01*
X273892Y122503D01*
X273958Y122478D01*
X274022Y122459D01*
X274082Y122443D01*
X274135Y122430D01*
X274158Y122424D01*
X274177Y122421D01*
X274192Y122418D01*
X274205D01*
X274211Y122415D01*
X274214D01*
X274559Y122358D01*
X274609Y122348D01*
X274660Y122339D01*
X274704Y122326D01*
X274742Y122313D01*
X274780Y122301D01*
X274815Y122285D01*
X274843Y122272D01*
X274868Y122260D01*
X274891Y122247D01*
X274913Y122234D01*
X274929Y122225D01*
X274941Y122215D01*
X274957Y122203D01*
X274963Y122196D01*
X275004Y122152D01*
X275033Y122102D01*
X275055Y122048D01*
X275068Y121997D01*
X275077Y121953D01*
X275080Y121918D01*
X275083Y121903D01*
Y121893D01*
Y121887D01*
Y121884D01*
X275080Y121836D01*
X275077Y121795D01*
X275058Y121716D01*
X275033Y121650D01*
X275001Y121596D01*
X274970Y121552D01*
X274944Y121520D01*
X274925Y121501D01*
X274922Y121498D01*
X274919Y121495D01*
X274887Y121470D01*
X274853Y121451D01*
X274780Y121416D01*
X274704Y121394D01*
X274628Y121375D01*
X274562Y121365D01*
X274534Y121362D01*
X274512D01*
X274489Y121359D01*
X274461D01*
X274366Y121362D01*
X274278Y121375D01*
X274199Y121391D01*
X274132Y121410D01*
X274101Y121419D01*
X274075Y121429D01*
X274053Y121438D01*
X274031Y121444D01*
X274019Y121451D01*
X274006Y121457D01*
X274000Y121460D01*
X273996D01*
X273920Y121504D01*
X273851Y121552D01*
X273785Y121606D01*
X273728Y121659D01*
X273677Y121707D01*
X273658Y121726D01*
X273642Y121745D01*
X273630Y121757D01*
X273620Y121770D01*
X273614Y121776D01*
X273611Y121779D01*
X273282Y121467D01*
X273355Y121381D01*
X273431Y121305D01*
X273510Y121239D01*
X273582Y121185D01*
X273617Y121160D01*
X273649Y121141D01*
X273677Y121122D01*
X273699Y121106D01*
X273718Y121097D01*
X273734Y121087D01*
X273744Y121084D01*
X273747Y121081D01*
X273800Y121056D01*
X273857Y121034D01*
X273974Y120996D01*
X274091Y120970D01*
X274145Y120961D01*
X274199Y120955D01*
X274249Y120948D01*
X274297Y120942D01*
X274338Y120939D01*
X274372D01*
X274401Y120936D01*
X274442D01*
X274543Y120939D01*
X274638Y120945D01*
X274720Y120958D01*
X274758Y120964D01*
X274793Y120970D01*
X274824Y120977D01*
X274853Y120983D01*
X274878Y120989D01*
X274897Y120996D01*
X274913Y120999D01*
X274925Y121002D01*
X274932Y121005D01*
X274935D01*
X275011Y121034D01*
X275083Y121065D01*
X275144Y121097D01*
X275197Y121128D01*
X275238Y121157D01*
X275270Y121179D01*
X275279Y121188D01*
X275289Y121195D01*
X275292Y121201D01*
X275295D01*
X275349Y121252D01*
X275393Y121305D01*
X275431Y121356D01*
X275463Y121403D01*
X275488Y121448D01*
X275507Y121479D01*
X275513Y121495D01*
X275516Y121504D01*
X275519Y121508D01*
Y121511D01*
X275545Y121580D01*
X275564Y121650D01*
X275576Y121716D01*
X275586Y121776D01*
X275592Y121830D01*
Y121852D01*
X275595Y121871D01*
Y121909D01*
X275592Y121972D01*
X275586Y122032D01*
X275576Y122086D01*
X275564Y122140D01*
X275551Y122190D01*
X275532Y122238D01*
X275516Y122282D01*
X275497Y122323D01*
X275478Y122358D01*
X275463Y122389D01*
X275444Y122418D01*
X275431Y122440D01*
X275418Y122456D01*
X275409Y122471D01*
X275403Y122478D01*
X275399Y122481D01*
X275361Y122522D01*
X275317Y122560D01*
X275270Y122598D01*
X275219Y122629D01*
X275169Y122658D01*
X275115Y122683D01*
X275014Y122724D01*
X274967Y122740D01*
X274922Y122756D01*
X274881Y122765D01*
X274846Y122775D01*
X274818Y122781D01*
X274796Y122787D01*
X274783Y122791D01*
X274777D01*
X274442Y122851D01*
X274388Y122860D01*
X274338Y122873D01*
X274293Y122885D01*
X274252Y122898D01*
X274214Y122911D01*
X274180Y122923D01*
X274151Y122936D01*
X274123Y122952D01*
X274101Y122961D01*
X274082Y122974D01*
X274063Y122983D01*
X274050Y122993D01*
X274034Y123005D01*
X274028Y123012D01*
X273990Y123056D01*
X273962Y123107D01*
X273943Y123157D01*
X273930Y123205D01*
X273920Y123249D01*
X273917Y123284D01*
X273914Y123296D01*
Y123306D01*
Y123312D01*
Y123315D01*
X273917Y123356D01*
X273920Y123397D01*
X273936Y123470D01*
X273962Y123530D01*
X273990Y123581D01*
X274015Y123618D01*
X274041Y123647D01*
X274056Y123663D01*
X274063Y123669D01*
X274123Y123710D01*
X274192Y123739D01*
X274265Y123761D01*
X274335Y123773D01*
X274394Y123783D01*
X274423Y123786D01*
X274445D01*
X274467Y123789D01*
X274493D01*
X274587Y123786D01*
X274673Y123773D01*
X274748Y123758D01*
X274812Y123742D01*
X274840Y123732D01*
X274865Y123723D01*
X274884Y123713D01*
X274903Y123707D01*
X274916Y123701D01*
X274925Y123694D01*
X274932Y123691D01*
X274935D01*
X275001Y123653D01*
X275058Y123609D01*
X275112Y123565D01*
X275156Y123524D01*
X275194Y123489D01*
X275222Y123457D01*
X275238Y123438D01*
X275245Y123435D01*
Y123432D01*
X275564Y123751D01*
X275497Y123827D01*
X275428Y123897D01*
X275355Y123953D01*
X275289Y124001D01*
X275226Y124039D01*
X275200Y124055D01*
X275178Y124067D01*
X275159Y124077D01*
X275147Y124083D01*
X275137Y124089D01*
X275134D01*
X275030Y124130D01*
X274922Y124162D01*
X274815Y124184D01*
X274714Y124197D01*
X274666Y124203D01*
X274625Y124206D01*
X274587Y124209D01*
X274556D01*
X274530Y124213D01*
D02*
G37*
G36*
X270128Y124159D02*
X269544D01*
X269054Y122901D01*
X269022D01*
X268536Y124159D01*
X267913D01*
Y120989D01*
X268362D01*
Y122503D01*
X268350Y123457D01*
X268384D01*
X269022Y121830D01*
X269658Y123457D01*
X269692D01*
X269680Y122503D01*
Y120989D01*
X270128D01*
Y124159D01*
D02*
G37*
G36*
X278193D02*
X276193D01*
Y123773D01*
X276938D01*
Y121375D01*
X276193D01*
Y120989D01*
X278193D01*
Y121375D01*
X277447D01*
Y123773D01*
X278193D01*
Y124159D01*
D02*
G37*
G36*
X271775Y124213D02*
X271746D01*
X271639Y124206D01*
X271538Y124194D01*
X271449Y124178D01*
X271408Y124165D01*
X271374Y124156D01*
X271339Y124146D01*
X271310Y124134D01*
X271285Y124124D01*
X271263Y124118D01*
X271247Y124108D01*
X271234Y124105D01*
X271228Y124099D01*
X271225D01*
X271146Y124055D01*
X271076Y124001D01*
X271013Y123950D01*
X270960Y123897D01*
X270918Y123852D01*
X270887Y123814D01*
X270878Y123799D01*
X270868Y123789D01*
X270865Y123783D01*
X270862Y123780D01*
X270811Y123697D01*
X270770Y123612D01*
X270732Y123524D01*
X270704Y123445D01*
X270691Y123407D01*
X270678Y123372D01*
X270672Y123344D01*
X270663Y123315D01*
X270656Y123293D01*
X270653Y123277D01*
X270650Y123268D01*
Y123265D01*
X270628Y123148D01*
X270612Y123028D01*
X270599Y122911D01*
X270596Y122857D01*
X270593Y122803D01*
X270590Y122756D01*
X270587Y122712D01*
Y122670D01*
X270584Y122639D01*
Y122573D01*
X270587Y122430D01*
X270590Y122364D01*
X270593Y122298D01*
X270599Y122238D01*
X270606Y122181D01*
X270612Y122127D01*
X270618Y122080D01*
X270621Y122032D01*
X270628Y121994D01*
X270634Y121959D01*
X270640Y121931D01*
X270644Y121909D01*
X270647Y121890D01*
X270650Y121880D01*
Y121877D01*
X270678Y121770D01*
X270713Y121669D01*
X270729Y121625D01*
X270748Y121583D01*
X270764Y121542D01*
X270783Y121508D01*
X270798Y121476D01*
X270814Y121448D01*
X270827Y121422D01*
X270840Y121403D01*
X270849Y121388D01*
X270855Y121375D01*
X270862Y121369D01*
Y121365D01*
X270918Y121293D01*
X270979Y121226D01*
X271039Y121173D01*
X271095Y121128D01*
X271149Y121094D01*
X271168Y121078D01*
X271187Y121068D01*
X271203Y121059D01*
X271216Y121053D01*
X271222Y121046D01*
X271225D01*
X271310Y121008D01*
X271399Y120983D01*
X271487Y120964D01*
X271569Y120948D01*
X271607Y120945D01*
X271639Y120942D01*
X271671Y120939D01*
X271696D01*
X271718Y120936D01*
X271746D01*
X271854Y120942D01*
X271952Y120955D01*
X272040Y120970D01*
X272081Y120980D01*
X272116Y120993D01*
X272151Y121002D01*
X272179Y121011D01*
X272205Y121021D01*
X272227Y121030D01*
X272243Y121037D01*
X272255Y121043D01*
X272262Y121046D01*
X272265D01*
X272344Y121090D01*
X272416Y121144D01*
X272476Y121195D01*
X272530Y121248D01*
X272571Y121293D01*
X272603Y121331D01*
X272612Y121346D01*
X272622Y121356D01*
X272628Y121362D01*
Y121365D01*
X272679Y121448D01*
X272720Y121533D01*
X272758Y121618D01*
X272786Y121700D01*
X272799Y121735D01*
X272808Y121770D01*
X272818Y121801D01*
X272824Y121827D01*
X272830Y121849D01*
X272833Y121865D01*
X272837Y121874D01*
Y121877D01*
X272859Y121994D01*
X272878Y122114D01*
X272890Y122231D01*
X272894Y122285D01*
X272897Y122339D01*
X272900Y122389D01*
X272903Y122433D01*
Y122471D01*
X272906Y122506D01*
Y122573D01*
X272903Y122712D01*
X272900Y122781D01*
X272897Y122844D01*
X272890Y122904D01*
X272884Y122961D01*
X272878Y123015D01*
X272871Y123062D01*
X272865Y123107D01*
X272859Y123148D01*
X272852Y123182D01*
X272846Y123211D01*
X272843Y123233D01*
X272840Y123252D01*
X272837Y123261D01*
Y123265D01*
X272808Y123375D01*
X272777Y123473D01*
X272758Y123521D01*
X272742Y123562D01*
X272723Y123603D01*
X272707Y123637D01*
X272691Y123669D01*
X272675Y123697D01*
X272663Y123723D01*
X272650Y123742D01*
X272641Y123758D01*
X272634Y123770D01*
X272631Y123776D01*
X272628Y123780D01*
X272571Y123852D01*
X272511Y123919D01*
X272451Y123972D01*
X272394Y124017D01*
X272344Y124051D01*
X272322Y124067D01*
X272303Y124080D01*
X272287Y124086D01*
X272274Y124092D01*
X272268Y124099D01*
X272265D01*
X272179Y124137D01*
X272091Y124165D01*
X272002Y124184D01*
X271923Y124200D01*
X271885Y124203D01*
X271851Y124206D01*
X271822Y124209D01*
X271797D01*
X271775Y124213D01*
D02*
G37*
%LPD*%
G36*
X271807Y123786D02*
X271863Y123780D01*
X271917Y123764D01*
X271965Y123748D01*
X272006Y123729D01*
X272047Y123707D01*
X272081Y123685D01*
X272113Y123660D01*
X272138Y123634D01*
X272160Y123612D01*
X272182Y123590D01*
X272195Y123571D01*
X272208Y123555D01*
X272217Y123543D01*
X272224Y123533D01*
Y123530D01*
X272249Y123479D01*
X272271Y123426D01*
X272306Y123315D01*
X272331Y123198D01*
X272347Y123091D01*
X272353Y123040D01*
X272359Y122993D01*
X272363Y122949D01*
Y122914D01*
X272366Y122882D01*
Y122860D01*
Y122847D01*
Y122841D01*
Y122310D01*
Y122231D01*
X272359Y122155D01*
X272353Y122083D01*
X272344Y122016D01*
X272334Y121953D01*
X272322Y121896D01*
X272309Y121846D01*
X272296Y121798D01*
X272281Y121757D01*
X272268Y121719D01*
X272255Y121688D01*
X272246Y121662D01*
X272236Y121640D01*
X272230Y121628D01*
X272227Y121618D01*
X272224Y121615D01*
X272195Y121571D01*
X272164Y121530D01*
X272129Y121495D01*
X272091Y121467D01*
X272053Y121441D01*
X272012Y121422D01*
X271971Y121403D01*
X271933Y121391D01*
X271895Y121381D01*
X271860Y121372D01*
X271829Y121369D01*
X271800Y121362D01*
X271778D01*
X271762Y121359D01*
X271746D01*
X271686Y121362D01*
X271626Y121372D01*
X271576Y121384D01*
X271528Y121400D01*
X271484Y121419D01*
X271443Y121441D01*
X271408Y121463D01*
X271377Y121489D01*
X271348Y121511D01*
X271326Y121533D01*
X271307Y121555D01*
X271291Y121574D01*
X271279Y121593D01*
X271269Y121606D01*
X271266Y121612D01*
X271263Y121615D01*
X271238Y121666D01*
X271219Y121719D01*
X271184Y121830D01*
X271159Y121947D01*
X271143Y122054D01*
X271137Y122108D01*
X271130Y122152D01*
X271127Y122196D01*
Y122231D01*
X271124Y122263D01*
Y122285D01*
Y122298D01*
Y122304D01*
Y122841D01*
X271127Y122920D01*
X271130Y122996D01*
X271137Y123065D01*
X271146Y123132D01*
X271156Y123192D01*
X271168Y123249D01*
X271181Y123302D01*
X271194Y123347D01*
X271206Y123391D01*
X271219Y123426D01*
X271231Y123457D01*
X271241Y123483D01*
X271250Y123505D01*
X271257Y123517D01*
X271263Y123527D01*
Y123530D01*
X271291Y123574D01*
X271326Y123615D01*
X271361Y123650D01*
X271399Y123679D01*
X271437Y123704D01*
X271478Y123726D01*
X271519Y123742D01*
X271557Y123758D01*
X271595Y123767D01*
X271630Y123776D01*
X271664Y123783D01*
X271690Y123786D01*
X271715D01*
X271731Y123789D01*
X271746D01*
X271807Y123786D01*
D02*
G37*
%LPC*%
G36*
X304845Y190748D02*
X304807D01*
X304716Y190745D01*
X304627Y190739D01*
X304545Y190726D01*
X304469Y190710D01*
X304397Y190694D01*
X304330Y190675D01*
X304270Y190653D01*
X304217Y190631D01*
X304169Y190609D01*
X304128Y190587D01*
X304090Y190568D01*
X304062Y190552D01*
X304040Y190536D01*
X304021Y190524D01*
X304011Y190517D01*
X304008Y190514D01*
X303957Y190467D01*
X303913Y190416D01*
X303872Y190366D01*
X303840Y190309D01*
X303812Y190252D01*
X303787Y190195D01*
X303768Y190138D01*
X303755Y190084D01*
X303743Y190031D01*
X303733Y189983D01*
X303727Y189939D01*
X303720Y189904D01*
Y189873D01*
X303717Y189847D01*
Y189835D01*
Y189829D01*
X303720Y189772D01*
X303724Y189715D01*
X303730Y189664D01*
X303739Y189617D01*
X303746Y189579D01*
X303752Y189550D01*
X303755Y189531D01*
X303758Y189528D01*
Y189525D01*
X303777Y189474D01*
X303799Y189424D01*
X303821Y189380D01*
X303844Y189342D01*
X303866Y189310D01*
X303882Y189288D01*
X303894Y189272D01*
X303897Y189266D01*
X303935Y189225D01*
X303976Y189187D01*
X304017Y189152D01*
X304059Y189124D01*
X304093Y189099D01*
X304122Y189083D01*
X304141Y189070D01*
X304144Y189067D01*
X304147D01*
X304207Y189039D01*
X304273Y189013D01*
X304337Y188994D01*
X304397Y188978D01*
X304450Y188966D01*
X304472Y188960D01*
X304491Y188956D01*
X304507Y188953D01*
X304520D01*
X304526Y188950D01*
X304529D01*
X304874Y188893D01*
X304924Y188884D01*
X304975Y188874D01*
X305019Y188862D01*
X305057Y188849D01*
X305095Y188836D01*
X305130Y188820D01*
X305158Y188808D01*
X305184Y188795D01*
X305206Y188783D01*
X305228Y188770D01*
X305244Y188760D01*
X305256Y188751D01*
X305272Y188738D01*
X305278Y188732D01*
X305319Y188688D01*
X305348Y188637D01*
X305370Y188583D01*
X305383Y188533D01*
X305392Y188489D01*
X305395Y188454D01*
X305398Y188438D01*
Y188429D01*
Y188422D01*
Y188419D01*
X305395Y188372D01*
X305392Y188331D01*
X305373Y188252D01*
X305348Y188185D01*
X305316Y188131D01*
X305285Y188087D01*
X305259Y188056D01*
X305240Y188037D01*
X305237Y188034D01*
X305234Y188030D01*
X305203Y188005D01*
X305168Y187986D01*
X305095Y187951D01*
X305019Y187929D01*
X304943Y187910D01*
X304877Y187901D01*
X304849Y187898D01*
X304826D01*
X304804Y187895D01*
X304776D01*
X304681Y187898D01*
X304593Y187910D01*
X304514Y187926D01*
X304447Y187945D01*
X304416Y187955D01*
X304390Y187964D01*
X304368Y187974D01*
X304346Y187980D01*
X304333Y187986D01*
X304321Y187993D01*
X304314Y187996D01*
X304311D01*
X304236Y188040D01*
X304166Y188087D01*
X304100Y188141D01*
X304043Y188195D01*
X303992Y188242D01*
X303973Y188261D01*
X303957Y188280D01*
X303945Y188293D01*
X303935Y188305D01*
X303929Y188312D01*
X303926Y188315D01*
X303597Y188002D01*
X303670Y187917D01*
X303746Y187841D01*
X303825Y187775D01*
X303897Y187721D01*
X303932Y187696D01*
X303964Y187677D01*
X303992Y187657D01*
X304014Y187642D01*
X304033Y187632D01*
X304049Y187623D01*
X304059Y187620D01*
X304062Y187617D01*
X304115Y187591D01*
X304172Y187569D01*
X304289Y187531D01*
X304406Y187506D01*
X304460Y187496D01*
X304514Y187490D01*
X304564Y187484D01*
X304611Y187477D01*
X304653Y187474D01*
X304687D01*
X304716Y187471D01*
X304757D01*
X304858Y187474D01*
X304953Y187481D01*
X305035Y187493D01*
X305073Y187499D01*
X305108Y187506D01*
X305139Y187512D01*
X305168Y187519D01*
X305193Y187525D01*
X305212Y187531D01*
X305228Y187534D01*
X305240Y187538D01*
X305247Y187541D01*
X305250D01*
X305326Y187569D01*
X305398Y187601D01*
X305458Y187632D01*
X305512Y187664D01*
X305553Y187692D01*
X305585Y187714D01*
X305594Y187724D01*
X305604Y187730D01*
X305607Y187737D01*
X305610D01*
X305664Y187787D01*
X305708Y187841D01*
X305746Y187891D01*
X305778Y187939D01*
X305803Y187983D01*
X305822Y188015D01*
X305828Y188030D01*
X305831Y188040D01*
X305835Y188043D01*
Y188046D01*
X305860Y188116D01*
X305879Y188185D01*
X305891Y188252D01*
X305901Y188312D01*
X305907Y188365D01*
Y188388D01*
X305910Y188407D01*
Y188444D01*
X305907Y188508D01*
X305901Y188568D01*
X305891Y188621D01*
X305879Y188675D01*
X305866Y188726D01*
X305847Y188773D01*
X305831Y188817D01*
X305812Y188858D01*
X305793Y188893D01*
X305778Y188925D01*
X305759Y188953D01*
X305746Y188975D01*
X305733Y188991D01*
X305724Y189007D01*
X305717Y189013D01*
X305714Y189016D01*
X305677Y189057D01*
X305632Y189095D01*
X305585Y189133D01*
X305534Y189165D01*
X305484Y189193D01*
X305430Y189219D01*
X305329Y189260D01*
X305281Y189276D01*
X305237Y189291D01*
X305196Y189301D01*
X305161Y189310D01*
X305133Y189317D01*
X305111Y189323D01*
X305098Y189326D01*
X305092D01*
X304757Y189386D01*
X304703Y189396D01*
X304653Y189408D01*
X304608Y189421D01*
X304567Y189434D01*
X304529Y189446D01*
X304495Y189459D01*
X304466Y189471D01*
X304438Y189487D01*
X304416Y189497D01*
X304397Y189509D01*
X304378Y189519D01*
X304365Y189528D01*
X304349Y189541D01*
X304343Y189547D01*
X304305Y189592D01*
X304277Y189642D01*
X304258Y189693D01*
X304245Y189740D01*
X304236Y189784D01*
X304232Y189819D01*
X304229Y189832D01*
Y189841D01*
Y189847D01*
Y189851D01*
X304232Y189892D01*
X304236Y189933D01*
X304251Y190005D01*
X304277Y190066D01*
X304305Y190116D01*
X304330Y190154D01*
X304356Y190182D01*
X304371Y190198D01*
X304378Y190205D01*
X304438Y190246D01*
X304507Y190274D01*
X304580Y190296D01*
X304649Y190309D01*
X304710Y190318D01*
X304738Y190321D01*
X304760D01*
X304782Y190325D01*
X304807D01*
X304902Y190321D01*
X304988Y190309D01*
X305063Y190293D01*
X305127Y190277D01*
X305155Y190268D01*
X305180Y190258D01*
X305199Y190249D01*
X305218Y190242D01*
X305231Y190236D01*
X305240Y190230D01*
X305247Y190227D01*
X305250D01*
X305316Y190189D01*
X305373Y190145D01*
X305427Y190100D01*
X305471Y190059D01*
X305509Y190024D01*
X305537Y189993D01*
X305553Y189974D01*
X305559Y189971D01*
Y189968D01*
X305879Y190287D01*
X305812Y190363D01*
X305743Y190432D01*
X305670Y190489D01*
X305604Y190536D01*
X305541Y190574D01*
X305515Y190590D01*
X305493Y190603D01*
X305474Y190612D01*
X305462Y190619D01*
X305452Y190625D01*
X305449D01*
X305345Y190666D01*
X305237Y190698D01*
X305130Y190720D01*
X305029Y190732D01*
X304981Y190739D01*
X304940Y190742D01*
X304902Y190745D01*
X304871D01*
X304845Y190748D01*
D02*
G37*
G36*
X300444Y190694D02*
X299859D01*
X299369Y189437D01*
X299338D01*
X298851Y190694D01*
X298228D01*
Y187525D01*
X298677D01*
Y189039D01*
X298664Y189993D01*
X298699D01*
X299338Y188365D01*
X299973Y189993D01*
X300007D01*
X299995Y189039D01*
Y187525D01*
X300444D01*
Y190694D01*
D02*
G37*
G36*
X303060D02*
X301060D01*
Y190309D01*
X301805D01*
Y187910D01*
X301060D01*
Y187525D01*
X303060D01*
Y187910D01*
X302314D01*
Y190309D01*
X303060D01*
Y190694D01*
D02*
G37*
G36*
X307538Y190748D02*
X307509D01*
X307402Y190742D01*
X307301Y190729D01*
X307212Y190713D01*
X307171Y190701D01*
X307136Y190691D01*
X307102Y190682D01*
X307073Y190669D01*
X307048Y190659D01*
X307026Y190653D01*
X307010Y190644D01*
X306997Y190641D01*
X306991Y190634D01*
X306988D01*
X306909Y190590D01*
X306839Y190536D01*
X306776Y190486D01*
X306722Y190432D01*
X306681Y190388D01*
X306650Y190350D01*
X306640Y190334D01*
X306631Y190325D01*
X306628Y190318D01*
X306625Y190315D01*
X306574Y190233D01*
X306533Y190148D01*
X306495Y190059D01*
X306467Y189980D01*
X306454Y189942D01*
X306441Y189908D01*
X306435Y189879D01*
X306425Y189851D01*
X306419Y189829D01*
X306416Y189813D01*
X306413Y189803D01*
Y189800D01*
X306391Y189683D01*
X306375Y189563D01*
X306362Y189446D01*
X306359Y189392D01*
X306356Y189339D01*
X306353Y189291D01*
X306349Y189247D01*
Y189206D01*
X306346Y189174D01*
Y189108D01*
X306349Y188966D01*
X306353Y188899D01*
X306356Y188833D01*
X306362Y188773D01*
X306368Y188716D01*
X306375Y188662D01*
X306381Y188615D01*
X306384Y188568D01*
X306391Y188530D01*
X306397Y188495D01*
X306403Y188467D01*
X306406Y188444D01*
X306410Y188425D01*
X306413Y188416D01*
Y188413D01*
X306441Y188305D01*
X306476Y188204D01*
X306492Y188160D01*
X306511Y188119D01*
X306526Y188078D01*
X306545Y188043D01*
X306561Y188012D01*
X306577Y187983D01*
X306590Y187958D01*
X306602Y187939D01*
X306612Y187923D01*
X306618Y187910D01*
X306625Y187904D01*
Y187901D01*
X306681Y187828D01*
X306741Y187762D01*
X306801Y187708D01*
X306858Y187664D01*
X306912Y187629D01*
X306931Y187613D01*
X306950Y187604D01*
X306966Y187594D01*
X306978Y187588D01*
X306985Y187582D01*
X306988D01*
X307073Y187544D01*
X307162Y187519D01*
X307250Y187499D01*
X307332Y187484D01*
X307370Y187481D01*
X307402Y187477D01*
X307433Y187474D01*
X307459D01*
X307481Y187471D01*
X307509D01*
X307617Y187477D01*
X307715Y187490D01*
X307803Y187506D01*
X307844Y187515D01*
X307879Y187528D01*
X307914Y187538D01*
X307942Y187547D01*
X307967Y187556D01*
X307990Y187566D01*
X308005Y187572D01*
X308018Y187578D01*
X308024Y187582D01*
X308028D01*
X308106Y187626D01*
X308179Y187680D01*
X308239Y187730D01*
X308293Y187784D01*
X308334Y187828D01*
X308366Y187866D01*
X308375Y187882D01*
X308385Y187891D01*
X308391Y187898D01*
Y187901D01*
X308441Y187983D01*
X308483Y188068D01*
X308521Y188154D01*
X308549Y188236D01*
X308561Y188271D01*
X308571Y188305D01*
X308580Y188337D01*
X308587Y188362D01*
X308593Y188384D01*
X308596Y188400D01*
X308599Y188410D01*
Y188413D01*
X308622Y188530D01*
X308641Y188650D01*
X308653Y188767D01*
X308656Y188820D01*
X308660Y188874D01*
X308663Y188925D01*
X308666Y188969D01*
Y189007D01*
X308669Y189042D01*
Y189108D01*
X308666Y189247D01*
X308663Y189317D01*
X308660Y189380D01*
X308653Y189440D01*
X308647Y189497D01*
X308641Y189550D01*
X308634Y189598D01*
X308628Y189642D01*
X308622Y189683D01*
X308615Y189718D01*
X308609Y189746D01*
X308606Y189768D01*
X308603Y189787D01*
X308599Y189797D01*
Y189800D01*
X308571Y189911D01*
X308539Y190009D01*
X308521Y190056D01*
X308505Y190097D01*
X308486Y190138D01*
X308470Y190173D01*
X308454Y190205D01*
X308438Y190233D01*
X308426Y190258D01*
X308413Y190277D01*
X308403Y190293D01*
X308397Y190306D01*
X308394Y190312D01*
X308391Y190315D01*
X308334Y190388D01*
X308274Y190454D01*
X308214Y190508D01*
X308157Y190552D01*
X308106Y190587D01*
X308084Y190603D01*
X308065Y190615D01*
X308050Y190622D01*
X308037Y190628D01*
X308031Y190634D01*
X308028D01*
X307942Y190672D01*
X307854Y190701D01*
X307765Y190720D01*
X307686Y190735D01*
X307648Y190739D01*
X307613Y190742D01*
X307585Y190745D01*
X307560D01*
X307538Y190748D01*
D02*
G37*
%LPD*%
G36*
X307569Y190321D02*
X307626Y190315D01*
X307680Y190299D01*
X307727Y190284D01*
X307768Y190265D01*
X307809Y190242D01*
X307844Y190220D01*
X307876Y190195D01*
X307901Y190170D01*
X307923Y190148D01*
X307945Y190126D01*
X307958Y190106D01*
X307971Y190091D01*
X307980Y190078D01*
X307986Y190069D01*
Y190066D01*
X308012Y190015D01*
X308034Y189961D01*
X308069Y189851D01*
X308094Y189734D01*
X308110Y189626D01*
X308116Y189576D01*
X308122Y189528D01*
X308125Y189484D01*
Y189449D01*
X308129Y189418D01*
Y189396D01*
Y189383D01*
Y189377D01*
Y188846D01*
Y188767D01*
X308122Y188691D01*
X308116Y188618D01*
X308106Y188552D01*
X308097Y188489D01*
X308084Y188432D01*
X308072Y188381D01*
X308059Y188334D01*
X308043Y188293D01*
X308031Y188255D01*
X308018Y188223D01*
X308009Y188198D01*
X307999Y188176D01*
X307993Y188163D01*
X307990Y188154D01*
X307986Y188151D01*
X307958Y188106D01*
X307926Y188065D01*
X307892Y188030D01*
X307854Y188002D01*
X307816Y187977D01*
X307775Y187958D01*
X307734Y187939D01*
X307696Y187926D01*
X307658Y187917D01*
X307623Y187907D01*
X307591Y187904D01*
X307563Y187898D01*
X307541D01*
X307525Y187895D01*
X307509D01*
X307449Y187898D01*
X307389Y187907D01*
X307339Y187920D01*
X307291Y187936D01*
X307247Y187955D01*
X307206Y187977D01*
X307171Y187999D01*
X307140Y188024D01*
X307111Y188046D01*
X307089Y188068D01*
X307070Y188091D01*
X307054Y188109D01*
X307042Y188128D01*
X307032Y188141D01*
X307029Y188147D01*
X307026Y188151D01*
X307000Y188201D01*
X306982Y188255D01*
X306947Y188365D01*
X306922Y188482D01*
X306906Y188590D01*
X306899Y188644D01*
X306893Y188688D01*
X306890Y188732D01*
Y188767D01*
X306887Y188798D01*
Y188820D01*
Y188833D01*
Y188839D01*
Y189377D01*
X306890Y189456D01*
X306893Y189531D01*
X306899Y189601D01*
X306909Y189667D01*
X306918Y189727D01*
X306931Y189784D01*
X306944Y189838D01*
X306956Y189882D01*
X306969Y189926D01*
X306982Y189961D01*
X306994Y189993D01*
X307004Y190018D01*
X307013Y190040D01*
X307019Y190053D01*
X307026Y190062D01*
Y190066D01*
X307054Y190110D01*
X307089Y190151D01*
X307124Y190185D01*
X307162Y190214D01*
X307200Y190239D01*
X307241Y190261D01*
X307282Y190277D01*
X307320Y190293D01*
X307358Y190303D01*
X307392Y190312D01*
X307427Y190318D01*
X307452Y190321D01*
X307478D01*
X307493Y190325D01*
X307509D01*
X307569Y190321D01*
D02*
G37*
%LPC*%
G36*
X254201Y58465D02*
X254163D01*
X254071Y58461D01*
X253983Y58455D01*
X253901Y58442D01*
X253825Y58427D01*
X253752Y58411D01*
X253686Y58392D01*
X253626Y58370D01*
X253572Y58348D01*
X253525Y58325D01*
X253484Y58303D01*
X253446Y58284D01*
X253417Y58269D01*
X253395Y58253D01*
X253376Y58240D01*
X253367Y58234D01*
X253363Y58231D01*
X253313Y58183D01*
X253269Y58133D01*
X253228Y58082D01*
X253196Y58025D01*
X253168Y57968D01*
X253142Y57912D01*
X253123Y57855D01*
X253111Y57801D01*
X253098Y57747D01*
X253089Y57700D01*
X253082Y57656D01*
X253076Y57621D01*
Y57589D01*
X253073Y57564D01*
Y57551D01*
Y57545D01*
X253076Y57488D01*
X253079Y57431D01*
X253085Y57381D01*
X253095Y57333D01*
X253101Y57295D01*
X253108Y57267D01*
X253111Y57248D01*
X253114Y57245D01*
Y57242D01*
X253133Y57191D01*
X253155Y57140D01*
X253177Y57096D01*
X253199Y57058D01*
X253221Y57027D01*
X253237Y57005D01*
X253250Y56989D01*
X253253Y56982D01*
X253291Y56941D01*
X253332Y56903D01*
X253373Y56869D01*
X253414Y56840D01*
X253449Y56815D01*
X253477Y56799D01*
X253496Y56787D01*
X253499Y56783D01*
X253503D01*
X253563Y56755D01*
X253629Y56730D01*
X253692Y56711D01*
X253752Y56695D01*
X253806Y56682D01*
X253828Y56676D01*
X253847Y56673D01*
X253863Y56670D01*
X253875D01*
X253882Y56666D01*
X253885D01*
X254229Y56610D01*
X254280Y56600D01*
X254330Y56591D01*
X254375Y56578D01*
X254413Y56565D01*
X254451Y56553D01*
X254485Y56537D01*
X254514Y56524D01*
X254539Y56512D01*
X254561Y56499D01*
X254583Y56486D01*
X254599Y56477D01*
X254612Y56467D01*
X254628Y56455D01*
X254634Y56449D01*
X254675Y56404D01*
X254703Y56354D01*
X254726Y56300D01*
X254738Y56249D01*
X254748Y56205D01*
X254751Y56170D01*
X254754Y56155D01*
Y56145D01*
Y56139D01*
Y56136D01*
X254751Y56088D01*
X254748Y56047D01*
X254729Y55968D01*
X254703Y55902D01*
X254672Y55848D01*
X254640Y55804D01*
X254615Y55772D01*
X254596Y55753D01*
X254593Y55750D01*
X254590Y55747D01*
X254558Y55722D01*
X254523Y55703D01*
X254451Y55668D01*
X254375Y55646D01*
X254299Y55627D01*
X254233Y55617D01*
X254204Y55614D01*
X254182D01*
X254160Y55611D01*
X254131D01*
X254037Y55614D01*
X253948Y55627D01*
X253869Y55643D01*
X253803Y55662D01*
X253771Y55671D01*
X253746Y55681D01*
X253724Y55690D01*
X253702Y55696D01*
X253689Y55703D01*
X253676Y55709D01*
X253670Y55712D01*
X253667D01*
X253591Y55756D01*
X253521Y55804D01*
X253455Y55858D01*
X253398Y55911D01*
X253348Y55959D01*
X253329Y55978D01*
X253313Y55997D01*
X253300Y56009D01*
X253291Y56022D01*
X253285Y56028D01*
X253281Y56031D01*
X252953Y55718D01*
X253025Y55633D01*
X253101Y55557D01*
X253180Y55491D01*
X253253Y55437D01*
X253288Y55412D01*
X253319Y55393D01*
X253348Y55374D01*
X253370Y55358D01*
X253389Y55349D01*
X253405Y55339D01*
X253414Y55336D01*
X253417Y55333D01*
X253471Y55308D01*
X253528Y55286D01*
X253645Y55248D01*
X253762Y55222D01*
X253815Y55213D01*
X253869Y55207D01*
X253920Y55200D01*
X253967Y55194D01*
X254008Y55191D01*
X254043D01*
X254071Y55188D01*
X254113D01*
X254214Y55191D01*
X254308Y55197D01*
X254391Y55210D01*
X254429Y55216D01*
X254463Y55222D01*
X254495Y55229D01*
X254523Y55235D01*
X254549Y55241D01*
X254568Y55248D01*
X254583Y55251D01*
X254596Y55254D01*
X254602Y55257D01*
X254605D01*
X254681Y55286D01*
X254754Y55317D01*
X254814Y55349D01*
X254868Y55380D01*
X254909Y55409D01*
X254940Y55431D01*
X254950Y55440D01*
X254959Y55447D01*
X254962Y55453D01*
X254966D01*
X255019Y55504D01*
X255064Y55557D01*
X255101Y55608D01*
X255133Y55655D01*
X255158Y55700D01*
X255177Y55731D01*
X255184Y55747D01*
X255187Y55756D01*
X255190Y55760D01*
Y55763D01*
X255215Y55832D01*
X255234Y55902D01*
X255247Y55968D01*
X255256Y56028D01*
X255263Y56082D01*
Y56104D01*
X255266Y56123D01*
Y56161D01*
X255263Y56224D01*
X255256Y56284D01*
X255247Y56338D01*
X255234Y56392D01*
X255222Y56442D01*
X255203Y56490D01*
X255187Y56534D01*
X255168Y56575D01*
X255149Y56610D01*
X255133Y56641D01*
X255114Y56670D01*
X255101Y56692D01*
X255089Y56708D01*
X255079Y56723D01*
X255073Y56730D01*
X255070Y56733D01*
X255032Y56774D01*
X254988Y56812D01*
X254940Y56850D01*
X254890Y56881D01*
X254839Y56910D01*
X254786Y56935D01*
X254684Y56976D01*
X254637Y56992D01*
X254593Y57008D01*
X254552Y57017D01*
X254517Y57027D01*
X254488Y57033D01*
X254466Y57039D01*
X254454Y57043D01*
X254447D01*
X254113Y57103D01*
X254059Y57112D01*
X254008Y57125D01*
X253964Y57137D01*
X253923Y57150D01*
X253885Y57163D01*
X253850Y57175D01*
X253822Y57188D01*
X253793Y57204D01*
X253771Y57213D01*
X253752Y57226D01*
X253733Y57235D01*
X253721Y57245D01*
X253705Y57257D01*
X253698Y57264D01*
X253661Y57308D01*
X253632Y57359D01*
X253613Y57409D01*
X253601Y57456D01*
X253591Y57501D01*
X253588Y57535D01*
X253585Y57548D01*
Y57558D01*
Y57564D01*
Y57567D01*
X253588Y57608D01*
X253591Y57649D01*
X253607Y57722D01*
X253632Y57782D01*
X253661Y57833D01*
X253686Y57871D01*
X253711Y57899D01*
X253727Y57915D01*
X253733Y57921D01*
X253793Y57962D01*
X253863Y57991D01*
X253936Y58013D01*
X254005Y58025D01*
X254065Y58035D01*
X254094Y58038D01*
X254116D01*
X254138Y58041D01*
X254163D01*
X254258Y58038D01*
X254343Y58025D01*
X254419Y58009D01*
X254482Y57994D01*
X254511Y57984D01*
X254536Y57975D01*
X254555Y57965D01*
X254574Y57959D01*
X254587Y57953D01*
X254596Y57946D01*
X254602Y57943D01*
X254605D01*
X254672Y57905D01*
X254729Y57861D01*
X254782Y57817D01*
X254827Y57776D01*
X254865Y57741D01*
X254893Y57709D01*
X254909Y57690D01*
X254915Y57687D01*
Y57684D01*
X255234Y58003D01*
X255168Y58079D01*
X255098Y58149D01*
X255026Y58205D01*
X254959Y58253D01*
X254896Y58291D01*
X254871Y58307D01*
X254849Y58319D01*
X254830Y58329D01*
X254817Y58335D01*
X254808Y58341D01*
X254804D01*
X254700Y58382D01*
X254593Y58414D01*
X254485Y58436D01*
X254384Y58449D01*
X254337Y58455D01*
X254296Y58458D01*
X254258Y58461D01*
X254226D01*
X254201Y58465D01*
D02*
G37*
G36*
X256991D02*
X256953D01*
X256843Y58461D01*
X256742Y58446D01*
X256647Y58424D01*
X256558Y58398D01*
X256479Y58363D01*
X256403Y58329D01*
X256337Y58291D01*
X256277Y58250D01*
X256226Y58209D01*
X256182Y58171D01*
X256141Y58136D01*
X256113Y58101D01*
X256087Y58076D01*
X256068Y58054D01*
X256059Y58041D01*
X256056Y58035D01*
X256005Y57950D01*
X255961Y57861D01*
X255920Y57766D01*
X255888Y57665D01*
X255860Y57564D01*
X255835Y57466D01*
X255816Y57365D01*
X255803Y57270D01*
X255790Y57178D01*
X255781Y57096D01*
X255775Y57020D01*
X255768Y56954D01*
Y56926D01*
Y56900D01*
X255765Y56878D01*
Y56824D01*
X255768Y56682D01*
X255778Y56546D01*
X255794Y56423D01*
X255809Y56306D01*
X255832Y56196D01*
X255857Y56098D01*
X255882Y56006D01*
X255910Y55927D01*
X255939Y55854D01*
X255964Y55791D01*
X255990Y55738D01*
X256012Y55693D01*
X256031Y55659D01*
X256043Y55633D01*
X256053Y55621D01*
X256056Y55614D01*
X256116Y55538D01*
X256179Y55472D01*
X256249Y55415D01*
X256321Y55368D01*
X256394Y55327D01*
X256470Y55292D01*
X256542Y55264D01*
X256615Y55241D01*
X256685Y55222D01*
X256748Y55210D01*
X256805Y55200D01*
X256855Y55194D01*
X256896Y55191D01*
X256928Y55188D01*
X256953D01*
X257039Y55191D01*
X257115Y55197D01*
X257184Y55207D01*
X257241Y55219D01*
X257288Y55229D01*
X257307Y55235D01*
X257326Y55238D01*
X257339Y55241D01*
X257348Y55244D01*
X257351Y55248D01*
X257355D01*
X257418Y55273D01*
X257471Y55298D01*
X257522Y55327D01*
X257566Y55355D01*
X257601Y55377D01*
X257626Y55396D01*
X257642Y55412D01*
X257648Y55415D01*
X257693Y55456D01*
X257734Y55501D01*
X257769Y55542D01*
X257797Y55580D01*
X257822Y55614D01*
X257838Y55639D01*
X257851Y55659D01*
X257854Y55665D01*
X257886Y55718D01*
X257911Y55775D01*
X257936Y55826D01*
X257955Y55873D01*
X257971Y55911D01*
X257983Y55943D01*
X257987Y55955D01*
X257990Y55965D01*
X257993Y55968D01*
Y55971D01*
X257535Y56126D01*
X257506Y56050D01*
X257494Y56016D01*
X257481Y55984D01*
X257468Y55959D01*
X257462Y55937D01*
X257456Y55924D01*
X257453Y55921D01*
X257434Y55886D01*
X257418Y55854D01*
X257396Y55826D01*
X257380Y55804D01*
X257364Y55785D01*
X257351Y55769D01*
X257342Y55760D01*
X257339Y55756D01*
X257285Y55712D01*
X257235Y55677D01*
X257212Y55665D01*
X257193Y55655D01*
X257181Y55652D01*
X257178Y55649D01*
X257143Y55636D01*
X257105Y55627D01*
X257067Y55621D01*
X257029Y55617D01*
X256998Y55614D01*
X256972Y55611D01*
X256950D01*
X256890Y55614D01*
X256833Y55624D01*
X256780Y55636D01*
X256732Y55652D01*
X256685Y55671D01*
X256647Y55693D01*
X256609Y55715D01*
X256577Y55741D01*
X256549Y55763D01*
X256523Y55785D01*
X256505Y55807D01*
X256486Y55826D01*
X256473Y55845D01*
X256464Y55858D01*
X256460Y55864D01*
X256457Y55867D01*
X256432Y55918D01*
X256407Y55971D01*
X256369Y56082D01*
X256343Y56199D01*
X256325Y56306D01*
X256318Y56360D01*
X256315Y56404D01*
X256309Y56449D01*
Y56483D01*
X256306Y56515D01*
Y56537D01*
Y56550D01*
Y56556D01*
Y57093D01*
X256309Y57172D01*
X256312Y57248D01*
X256318Y57318D01*
X256331Y57384D01*
X256340Y57444D01*
X256353Y57501D01*
X256369Y57555D01*
X256381Y57599D01*
X256397Y57643D01*
X256410Y57678D01*
X256422Y57709D01*
X256435Y57735D01*
X256445Y57757D01*
X256451Y57769D01*
X256454Y57779D01*
X256457Y57782D01*
X256489Y57826D01*
X256523Y57867D01*
X256561Y57902D01*
X256599Y57930D01*
X256641Y57956D01*
X256682Y57978D01*
X256723Y57994D01*
X256761Y58009D01*
X256799Y58019D01*
X256836Y58029D01*
X256868Y58035D01*
X256896Y58038D01*
X256919D01*
X256934Y58041D01*
X256950D01*
X256998Y58038D01*
X257042Y58035D01*
X257083Y58029D01*
X257115Y58022D01*
X257143Y58013D01*
X257162Y58006D01*
X257174Y58003D01*
X257178Y58000D01*
X257212Y57984D01*
X257244Y57965D01*
X257269Y57946D01*
X257295Y57930D01*
X257313Y57915D01*
X257326Y57902D01*
X257336Y57893D01*
X257339Y57889D01*
X257386Y57836D01*
X257405Y57807D01*
X257421Y57782D01*
X257434Y57760D01*
X257446Y57741D01*
X257449Y57728D01*
X257453Y57725D01*
X257484Y57652D01*
X257500Y57621D01*
X257513Y57589D01*
X257522Y57561D01*
X257528Y57542D01*
X257535Y57529D01*
Y57523D01*
X257993Y57678D01*
X257971Y57738D01*
X257949Y57795D01*
X257927Y57845D01*
X257905Y57889D01*
X257882Y57927D01*
X257870Y57956D01*
X257857Y57975D01*
X257854Y57981D01*
X257822Y58035D01*
X257788Y58082D01*
X257753Y58126D01*
X257721Y58161D01*
X257693Y58193D01*
X257671Y58215D01*
X257655Y58228D01*
X257648Y58234D01*
X257601Y58272D01*
X257551Y58307D01*
X257500Y58335D01*
X257456Y58357D01*
X257415Y58376D01*
X257383Y58392D01*
X257370Y58395D01*
X257361Y58398D01*
X257358Y58401D01*
X257355D01*
X257288Y58424D01*
X257222Y58439D01*
X257155Y58449D01*
X257092Y58458D01*
X257035Y58461D01*
X257013D01*
X256991Y58465D01*
D02*
G37*
G36*
X259225Y58411D02*
X258717D01*
Y55241D01*
X260669D01*
Y55668D01*
X259225D01*
Y58411D01*
D02*
G37*
G36*
X254201Y68307D02*
X254163D01*
X254071Y68304D01*
X253983Y68298D01*
X253901Y68285D01*
X253825Y68269D01*
X253752Y68253D01*
X253686Y68234D01*
X253626Y68212D01*
X253572Y68190D01*
X253525Y68168D01*
X253484Y68146D01*
X253446Y68127D01*
X253417Y68111D01*
X253395Y68095D01*
X253376Y68083D01*
X253367Y68076D01*
X253363Y68073D01*
X253313Y68026D01*
X253269Y67975D01*
X253228Y67925D01*
X253196Y67868D01*
X253168Y67811D01*
X253142Y67754D01*
X253123Y67697D01*
X253111Y67643D01*
X253098Y67590D01*
X253089Y67542D01*
X253082Y67498D01*
X253076Y67463D01*
Y67432D01*
X253073Y67406D01*
Y67394D01*
Y67387D01*
X253076Y67331D01*
X253079Y67274D01*
X253085Y67223D01*
X253095Y67176D01*
X253101Y67138D01*
X253108Y67110D01*
X253111Y67090D01*
X253114Y67087D01*
Y67084D01*
X253133Y67034D01*
X253155Y66983D01*
X253177Y66939D01*
X253199Y66901D01*
X253221Y66869D01*
X253237Y66847D01*
X253250Y66831D01*
X253253Y66825D01*
X253291Y66784D01*
X253332Y66746D01*
X253373Y66711D01*
X253414Y66683D01*
X253449Y66658D01*
X253477Y66642D01*
X253496Y66629D01*
X253499Y66626D01*
X253503D01*
X253563Y66597D01*
X253629Y66572D01*
X253692Y66553D01*
X253752Y66537D01*
X253806Y66525D01*
X253828Y66518D01*
X253847Y66515D01*
X253863Y66512D01*
X253875D01*
X253882Y66509D01*
X253885D01*
X254229Y66452D01*
X254280Y66443D01*
X254330Y66433D01*
X254375Y66421D01*
X254413Y66408D01*
X254451Y66395D01*
X254485Y66379D01*
X254514Y66367D01*
X254539Y66354D01*
X254561Y66342D01*
X254583Y66329D01*
X254599Y66319D01*
X254612Y66310D01*
X254628Y66297D01*
X254634Y66291D01*
X254675Y66247D01*
X254703Y66196D01*
X254726Y66142D01*
X254738Y66092D01*
X254748Y66048D01*
X254751Y66013D01*
X254754Y65997D01*
Y65988D01*
Y65981D01*
Y65978D01*
X254751Y65931D01*
X254748Y65890D01*
X254729Y65811D01*
X254703Y65744D01*
X254672Y65691D01*
X254640Y65646D01*
X254615Y65615D01*
X254596Y65596D01*
X254593Y65593D01*
X254590Y65589D01*
X254558Y65564D01*
X254523Y65545D01*
X254451Y65510D01*
X254375Y65488D01*
X254299Y65469D01*
X254233Y65460D01*
X254204Y65457D01*
X254182D01*
X254160Y65454D01*
X254131D01*
X254037Y65457D01*
X253948Y65469D01*
X253869Y65485D01*
X253803Y65504D01*
X253771Y65514D01*
X253746Y65523D01*
X253724Y65533D01*
X253702Y65539D01*
X253689Y65545D01*
X253676Y65552D01*
X253670Y65555D01*
X253667D01*
X253591Y65599D01*
X253521Y65646D01*
X253455Y65700D01*
X253398Y65754D01*
X253348Y65801D01*
X253329Y65820D01*
X253313Y65839D01*
X253300Y65852D01*
X253291Y65864D01*
X253285Y65871D01*
X253281Y65874D01*
X252953Y65561D01*
X253025Y65476D01*
X253101Y65400D01*
X253180Y65333D01*
X253253Y65280D01*
X253288Y65254D01*
X253319Y65236D01*
X253348Y65217D01*
X253370Y65201D01*
X253389Y65191D01*
X253405Y65182D01*
X253414Y65179D01*
X253417Y65175D01*
X253471Y65150D01*
X253528Y65128D01*
X253645Y65090D01*
X253762Y65065D01*
X253815Y65055D01*
X253869Y65049D01*
X253920Y65043D01*
X253967Y65036D01*
X254008Y65033D01*
X254043D01*
X254071Y65030D01*
X254113D01*
X254214Y65033D01*
X254308Y65040D01*
X254391Y65052D01*
X254429Y65059D01*
X254463Y65065D01*
X254495Y65071D01*
X254523Y65078D01*
X254549Y65084D01*
X254568Y65090D01*
X254583Y65093D01*
X254596Y65096D01*
X254602Y65100D01*
X254605D01*
X254681Y65128D01*
X254754Y65160D01*
X254814Y65191D01*
X254868Y65223D01*
X254909Y65251D01*
X254940Y65273D01*
X254950Y65283D01*
X254959Y65289D01*
X254962Y65296D01*
X254966D01*
X255019Y65346D01*
X255064Y65400D01*
X255101Y65451D01*
X255133Y65498D01*
X255158Y65542D01*
X255177Y65574D01*
X255184Y65589D01*
X255187Y65599D01*
X255190Y65602D01*
Y65605D01*
X255215Y65675D01*
X255234Y65744D01*
X255247Y65811D01*
X255256Y65871D01*
X255263Y65925D01*
Y65947D01*
X255266Y65965D01*
Y66003D01*
X255263Y66067D01*
X255256Y66127D01*
X255247Y66180D01*
X255234Y66234D01*
X255222Y66285D01*
X255203Y66332D01*
X255187Y66376D01*
X255168Y66417D01*
X255149Y66452D01*
X255133Y66484D01*
X255114Y66512D01*
X255101Y66534D01*
X255089Y66550D01*
X255079Y66566D01*
X255073Y66572D01*
X255070Y66575D01*
X255032Y66616D01*
X254988Y66654D01*
X254940Y66692D01*
X254890Y66724D01*
X254839Y66752D01*
X254786Y66778D01*
X254684Y66819D01*
X254637Y66834D01*
X254593Y66850D01*
X254552Y66860D01*
X254517Y66869D01*
X254488Y66876D01*
X254466Y66882D01*
X254454Y66885D01*
X254447D01*
X254113Y66945D01*
X254059Y66955D01*
X254008Y66967D01*
X253964Y66980D01*
X253923Y66992D01*
X253885Y67005D01*
X253850Y67018D01*
X253822Y67030D01*
X253793Y67046D01*
X253771Y67056D01*
X253752Y67068D01*
X253733Y67078D01*
X253721Y67087D01*
X253705Y67100D01*
X253698Y67106D01*
X253661Y67150D01*
X253632Y67201D01*
X253613Y67252D01*
X253601Y67299D01*
X253591Y67343D01*
X253588Y67378D01*
X253585Y67391D01*
Y67400D01*
Y67406D01*
Y67410D01*
X253588Y67451D01*
X253591Y67492D01*
X253607Y67564D01*
X253632Y67624D01*
X253661Y67675D01*
X253686Y67713D01*
X253711Y67741D01*
X253727Y67757D01*
X253733Y67764D01*
X253793Y67805D01*
X253863Y67833D01*
X253936Y67855D01*
X254005Y67868D01*
X254065Y67877D01*
X254094Y67880D01*
X254116D01*
X254138Y67884D01*
X254163D01*
X254258Y67880D01*
X254343Y67868D01*
X254419Y67852D01*
X254482Y67836D01*
X254511Y67827D01*
X254536Y67817D01*
X254555Y67808D01*
X254574Y67801D01*
X254587Y67795D01*
X254596Y67789D01*
X254602Y67786D01*
X254605D01*
X254672Y67748D01*
X254729Y67703D01*
X254782Y67659D01*
X254827Y67618D01*
X254865Y67584D01*
X254893Y67552D01*
X254909Y67533D01*
X254915Y67530D01*
Y67527D01*
X255234Y67846D01*
X255168Y67922D01*
X255098Y67991D01*
X255026Y68048D01*
X254959Y68095D01*
X254896Y68133D01*
X254871Y68149D01*
X254849Y68162D01*
X254830Y68171D01*
X254817Y68177D01*
X254808Y68184D01*
X254804D01*
X254700Y68225D01*
X254593Y68256D01*
X254485Y68279D01*
X254384Y68291D01*
X254337Y68298D01*
X254296Y68301D01*
X254258Y68304D01*
X254226D01*
X254201Y68307D01*
D02*
G37*
G36*
X259936Y68253D02*
X259241D01*
X258315Y65084D01*
X258834D01*
X259074Y65928D01*
X260082D01*
X260322Y65084D01*
X260862D01*
X259936Y68253D01*
D02*
G37*
G36*
X256846D02*
X255873D01*
Y65084D01*
X256817D01*
X256928Y65087D01*
X257032Y65100D01*
X257127Y65122D01*
X257216Y65147D01*
X257298Y65175D01*
X257370Y65210D01*
X257437Y65248D01*
X257497Y65286D01*
X257547Y65321D01*
X257595Y65359D01*
X257633Y65394D01*
X257664Y65422D01*
X257686Y65447D01*
X257705Y65469D01*
X257715Y65482D01*
X257718Y65485D01*
X257769Y65564D01*
X257816Y65653D01*
X257854Y65744D01*
X257889Y65839D01*
X257917Y65937D01*
X257939Y66038D01*
X257958Y66133D01*
X257974Y66228D01*
X257987Y66316D01*
X257996Y66399D01*
X258002Y66474D01*
X258009Y66541D01*
Y66569D01*
Y66591D01*
X258012Y66613D01*
Y66667D01*
X258009Y66809D01*
X257999Y66942D01*
X257983Y67065D01*
X257968Y67179D01*
X257942Y67286D01*
X257920Y67381D01*
X257892Y67470D01*
X257867Y67549D01*
X257838Y67618D01*
X257810Y67681D01*
X257788Y67732D01*
X257765Y67773D01*
X257747Y67808D01*
X257731Y67830D01*
X257721Y67846D01*
X257718Y67849D01*
X257661Y67922D01*
X257595Y67982D01*
X257528Y68035D01*
X257456Y68083D01*
X257380Y68121D01*
X257304Y68155D01*
X257231Y68181D01*
X257159Y68203D01*
X257089Y68219D01*
X257026Y68231D01*
X256969Y68241D01*
X256919Y68247D01*
X256874Y68250D01*
X256846Y68253D01*
D02*
G37*
%LPD*%
G36*
X259987Y66351D02*
X259169D01*
X259560Y67738D01*
X259595D01*
X259987Y66351D01*
D02*
G37*
G36*
X256849Y67833D02*
X256909Y67827D01*
X256963Y67814D01*
X257016Y67798D01*
X257061Y67782D01*
X257105Y67760D01*
X257143Y67741D01*
X257178Y67719D01*
X257209Y67697D01*
X257235Y67675D01*
X257257Y67653D01*
X257276Y67637D01*
X257288Y67621D01*
X257298Y67609D01*
X257304Y67602D01*
X257307Y67599D01*
X257339Y67552D01*
X257364Y67504D01*
X257386Y67451D01*
X257405Y67397D01*
X257437Y67283D01*
X257456Y67176D01*
X257465Y67125D01*
X257468Y67081D01*
X257471Y67037D01*
X257475Y67002D01*
X257478Y66970D01*
Y66948D01*
Y66936D01*
Y66929D01*
Y66405D01*
X257475Y66326D01*
X257471Y66250D01*
X257462Y66180D01*
X257453Y66117D01*
X257440Y66057D01*
X257424Y66000D01*
X257408Y65950D01*
X257393Y65905D01*
X257377Y65868D01*
X257361Y65833D01*
X257348Y65801D01*
X257332Y65779D01*
X257323Y65760D01*
X257313Y65744D01*
X257310Y65738D01*
X257307Y65735D01*
X257273Y65694D01*
X257235Y65659D01*
X257197Y65627D01*
X257152Y65599D01*
X257111Y65577D01*
X257067Y65558D01*
X257023Y65542D01*
X256982Y65529D01*
X256944Y65520D01*
X256906Y65514D01*
X256871Y65507D01*
X256843Y65504D01*
X256821D01*
X256802Y65501D01*
X256378D01*
Y67836D01*
X256786D01*
X256849Y67833D01*
D02*
G37*
%LPC*%
G36*
X441555Y54528D02*
X441517D01*
X441410Y54524D01*
X441309Y54509D01*
X441217Y54487D01*
X441132Y54461D01*
X441053Y54426D01*
X440980Y54392D01*
X440914Y54354D01*
X440857Y54313D01*
X440806Y54272D01*
X440762Y54234D01*
X440724Y54199D01*
X440693Y54164D01*
X440670Y54139D01*
X440651Y54117D01*
X440642Y54104D01*
X440639Y54098D01*
X440588Y54013D01*
X440544Y53924D01*
X440506Y53826D01*
X440474Y53725D01*
X440446Y53624D01*
X440424Y53519D01*
X440405Y53418D01*
X440389Y53320D01*
X440380Y53229D01*
X440370Y53144D01*
X440364Y53065D01*
X440357Y52998D01*
Y52970D01*
Y52941D01*
X440354Y52919D01*
Y52865D01*
X440357Y52726D01*
X440364Y52594D01*
X440377Y52470D01*
X440392Y52354D01*
X440411Y52246D01*
X440433Y52148D01*
X440455Y52060D01*
X440481Y51981D01*
X440503Y51908D01*
X440525Y51845D01*
X440547Y51794D01*
X440566Y51750D01*
X440582Y51715D01*
X440594Y51690D01*
X440601Y51677D01*
X440604Y51671D01*
X440655Y51598D01*
X440708Y51532D01*
X440765Y51475D01*
X440825Y51428D01*
X440888Y51386D01*
X440948Y51355D01*
X441012Y51327D01*
X441072Y51304D01*
X441128Y51285D01*
X441179Y51273D01*
X441226Y51263D01*
X441268Y51257D01*
X441302Y51254D01*
X441328Y51251D01*
X441350D01*
X441407Y51254D01*
X441457Y51257D01*
X441505Y51263D01*
X441542Y51273D01*
X441577Y51279D01*
X441599Y51285D01*
X441615Y51289D01*
X441621Y51292D01*
X441663Y51307D01*
X441701Y51323D01*
X441735Y51342D01*
X441764Y51358D01*
X441789Y51374D01*
X441805Y51386D01*
X441817Y51393D01*
X441821Y51396D01*
X441852Y51421D01*
X441878Y51450D01*
X441903Y51478D01*
X441925Y51500D01*
X441941Y51522D01*
X441953Y51538D01*
X441960Y51551D01*
X441963Y51554D01*
X442001Y51620D01*
X442020Y51652D01*
X442032Y51680D01*
X442045Y51702D01*
X442054Y51722D01*
X442058Y51734D01*
X442061Y51737D01*
X442092D01*
Y51304D01*
X442557D01*
Y52925D01*
X441479D01*
Y52543D01*
X442092D01*
Y52255D01*
Y52208D01*
X442086Y52164D01*
X442070Y52082D01*
X442045Y52009D01*
X442020Y51946D01*
X442004Y51921D01*
X441991Y51898D01*
X441979Y51880D01*
X441966Y51860D01*
X441957Y51848D01*
X441950Y51838D01*
X441947Y51835D01*
X441944Y51832D01*
X441915Y51804D01*
X441884Y51778D01*
X441852Y51756D01*
X441817Y51737D01*
X441745Y51709D01*
X441678Y51690D01*
X441615Y51677D01*
X441590Y51674D01*
X441568Y51671D01*
X441546Y51668D01*
X441520D01*
X441460Y51671D01*
X441403Y51677D01*
X441353Y51690D01*
X441309Y51702D01*
X441274Y51715D01*
X441249Y51728D01*
X441233Y51734D01*
X441226Y51737D01*
X441182Y51766D01*
X441144Y51801D01*
X441113Y51832D01*
X441084Y51867D01*
X441062Y51895D01*
X441043Y51917D01*
X441034Y51933D01*
X441031Y51939D01*
X441005Y51990D01*
X440983Y52044D01*
X440964Y52094D01*
X440952Y52142D01*
X440939Y52186D01*
X440933Y52218D01*
X440929Y52233D01*
Y52243D01*
X440926Y52246D01*
Y52249D01*
X440917Y52319D01*
X440907Y52388D01*
X440901Y52458D01*
X440898Y52518D01*
Y52571D01*
X440895Y52594D01*
Y52613D01*
Y52628D01*
Y52641D01*
Y52647D01*
Y52650D01*
Y53153D01*
X440898Y53232D01*
X440901Y53308D01*
X440907Y53377D01*
X440917Y53444D01*
X440929Y53507D01*
X440942Y53564D01*
X440955Y53614D01*
X440967Y53662D01*
X440980Y53706D01*
X440993Y53741D01*
X441005Y53772D01*
X441018Y53798D01*
X441027Y53820D01*
X441034Y53832D01*
X441040Y53842D01*
Y53845D01*
X441069Y53889D01*
X441103Y53930D01*
X441141Y53965D01*
X441179Y53993D01*
X441217Y54019D01*
X441258Y54041D01*
X441296Y54057D01*
X441337Y54072D01*
X441372Y54082D01*
X441407Y54092D01*
X441438Y54098D01*
X441467Y54101D01*
X441489D01*
X441505Y54104D01*
X441520D01*
X441568Y54101D01*
X441612Y54098D01*
X441650Y54092D01*
X441681Y54085D01*
X441710Y54076D01*
X441729Y54069D01*
X441742Y54066D01*
X441745Y54063D01*
X441780Y54047D01*
X441811Y54028D01*
X441836Y54009D01*
X441862Y53990D01*
X441881Y53975D01*
X441893Y53962D01*
X441903Y53952D01*
X441906Y53949D01*
X441950Y53892D01*
X441969Y53864D01*
X441985Y53839D01*
X441997Y53817D01*
X442010Y53798D01*
X442013Y53785D01*
X442017Y53782D01*
X442048Y53712D01*
X442061Y53681D01*
X442073Y53649D01*
X442083Y53624D01*
X442092Y53605D01*
X442096Y53592D01*
X442099Y53586D01*
X442557Y53741D01*
X442538Y53798D01*
X442516Y53855D01*
X442494Y53905D01*
X442472Y53949D01*
X442453Y53987D01*
X442437Y54016D01*
X442427Y54035D01*
X442424Y54041D01*
X442392Y54092D01*
X442358Y54139D01*
X442323Y54183D01*
X442291Y54218D01*
X442263Y54250D01*
X442241Y54272D01*
X442225Y54284D01*
X442219Y54291D01*
X442171Y54329D01*
X442121Y54363D01*
X442073Y54392D01*
X442026Y54417D01*
X441985Y54436D01*
X441950Y54449D01*
X441937Y54455D01*
X441931Y54458D01*
X441925Y54461D01*
X441922D01*
X441855Y54483D01*
X441786Y54499D01*
X441716Y54512D01*
X441653Y54518D01*
X441599Y54524D01*
X441577D01*
X441555Y54528D01*
D02*
G37*
G36*
X445262Y54474D02*
X444816D01*
Y52034D01*
X444775D01*
X443846Y54474D01*
X443192D01*
Y51304D01*
X443638D01*
Y53741D01*
X443679D01*
X444608Y51304D01*
X445262D01*
Y54474D01*
D02*
G37*
G36*
X446933D02*
X445960D01*
Y51304D01*
X446905D01*
X447016Y51307D01*
X447120Y51320D01*
X447215Y51342D01*
X447303Y51368D01*
X447385Y51396D01*
X447458Y51431D01*
X447524Y51469D01*
X447584Y51507D01*
X447635Y51541D01*
X447682Y51579D01*
X447720Y51614D01*
X447752Y51643D01*
X447774Y51668D01*
X447793Y51690D01*
X447802Y51702D01*
X447806Y51706D01*
X447856Y51785D01*
X447904Y51873D01*
X447941Y51965D01*
X447976Y52060D01*
X448005Y52158D01*
X448027Y52259D01*
X448046Y52354D01*
X448062Y52448D01*
X448074Y52537D01*
X448084Y52619D01*
X448090Y52695D01*
X448096Y52761D01*
Y52790D01*
Y52812D01*
X448100Y52834D01*
Y52887D01*
X448096Y53030D01*
X448087Y53162D01*
X448071Y53286D01*
X448055Y53399D01*
X448030Y53507D01*
X448008Y53602D01*
X447979Y53690D01*
X447954Y53769D01*
X447926Y53839D01*
X447897Y53902D01*
X447875Y53952D01*
X447853Y53993D01*
X447834Y54028D01*
X447818Y54050D01*
X447809Y54066D01*
X447806Y54069D01*
X447749Y54142D01*
X447682Y54202D01*
X447616Y54256D01*
X447543Y54303D01*
X447468Y54341D01*
X447392Y54376D01*
X447319Y54401D01*
X447246Y54423D01*
X447177Y54439D01*
X447114Y54452D01*
X447057Y54461D01*
X447006Y54467D01*
X446962Y54471D01*
X446933Y54474D01*
D02*
G37*
%LPD*%
G36*
X446937Y54054D02*
X446997Y54047D01*
X447050Y54035D01*
X447104Y54019D01*
X447148Y54003D01*
X447193Y53981D01*
X447230Y53962D01*
X447265Y53940D01*
X447297Y53918D01*
X447322Y53896D01*
X447344Y53873D01*
X447363Y53858D01*
X447376Y53842D01*
X447385Y53829D01*
X447392Y53823D01*
X447395Y53820D01*
X447426Y53772D01*
X447452Y53725D01*
X447474Y53671D01*
X447493Y53618D01*
X447524Y53504D01*
X447543Y53396D01*
X447553Y53346D01*
X447556Y53302D01*
X447559Y53257D01*
X447562Y53223D01*
X447565Y53191D01*
Y53169D01*
Y53156D01*
Y53150D01*
Y52625D01*
X447562Y52546D01*
X447559Y52470D01*
X447550Y52401D01*
X447540Y52338D01*
X447528Y52278D01*
X447512Y52221D01*
X447496Y52170D01*
X447480Y52126D01*
X447464Y52088D01*
X447448Y52053D01*
X447436Y52022D01*
X447420Y52000D01*
X447411Y51981D01*
X447401Y51965D01*
X447398Y51959D01*
X447395Y51955D01*
X447360Y51914D01*
X447322Y51880D01*
X447284Y51848D01*
X447240Y51819D01*
X447199Y51797D01*
X447155Y51778D01*
X447110Y51763D01*
X447069Y51750D01*
X447031Y51740D01*
X446993Y51734D01*
X446959Y51728D01*
X446930Y51725D01*
X446908D01*
X446889Y51722D01*
X446466D01*
Y54057D01*
X446873D01*
X446937Y54054D01*
D02*
G37*
%LPC*%
G36*
X477014Y54474D02*
X476486D01*
X476063Y52875D01*
X475788Y51797D01*
X475759D01*
X475481Y52875D01*
X475064Y54474D01*
X474514D01*
X475409Y51304D01*
X476120D01*
X477014Y54474D01*
D02*
G37*
G36*
X478486Y54528D02*
X478448D01*
X478376Y54524D01*
X478306Y54521D01*
X478246Y54515D01*
X478193Y54505D01*
X478148Y54496D01*
X478117Y54490D01*
X478104Y54487D01*
X478094D01*
X478091Y54483D01*
X478088D01*
X478031Y54464D01*
X477978Y54449D01*
X477930Y54426D01*
X477889Y54411D01*
X477854Y54395D01*
X477829Y54382D01*
X477813Y54373D01*
X477807Y54370D01*
X477763Y54341D01*
X477722Y54313D01*
X477684Y54287D01*
X477652Y54259D01*
X477627Y54237D01*
X477605Y54218D01*
X477592Y54205D01*
X477589Y54202D01*
X477554Y54167D01*
X477523Y54133D01*
X477494Y54098D01*
X477469Y54066D01*
X477450Y54041D01*
X477434Y54022D01*
X477425Y54009D01*
X477422Y54003D01*
X477766Y53709D01*
X477810Y53772D01*
X477854Y53829D01*
X477902Y53880D01*
X477943Y53918D01*
X477981Y53952D01*
X478012Y53975D01*
X478031Y53990D01*
X478034Y53993D01*
X478038D01*
X478101Y54028D01*
X478167Y54057D01*
X478234Y54076D01*
X478294Y54088D01*
X478347Y54095D01*
X478373Y54098D01*
X478392Y54101D01*
X478430D01*
X478515Y54095D01*
X478591Y54082D01*
X478657Y54063D01*
X478711Y54044D01*
X478755Y54022D01*
X478787Y54003D01*
X478796Y53993D01*
X478806Y53990D01*
X478812Y53984D01*
X478837Y53962D01*
X478859Y53937D01*
X478897Y53883D01*
X478923Y53826D01*
X478938Y53772D01*
X478951Y53725D01*
X478954Y53703D01*
Y53684D01*
X478957Y53671D01*
Y53659D01*
Y53652D01*
Y53649D01*
Y53618D01*
Y53583D01*
X478951Y53548D01*
X478935Y53485D01*
X478910Y53428D01*
X478885Y53381D01*
X478856Y53343D01*
X478831Y53314D01*
X478815Y53298D01*
X478812Y53295D01*
X478809Y53292D01*
X478780Y53270D01*
X478746Y53251D01*
X478676Y53219D01*
X478600Y53197D01*
X478527Y53181D01*
X478461Y53172D01*
X478433Y53169D01*
X478407D01*
X478385Y53166D01*
X478028D01*
Y52739D01*
X478426D01*
X478480Y52733D01*
X478531Y52726D01*
X478575Y52720D01*
X478619Y52711D01*
X478657Y52698D01*
X478695Y52685D01*
X478727Y52676D01*
X478755Y52663D01*
X478777Y52650D01*
X478799Y52641D01*
X478815Y52628D01*
X478831Y52622D01*
X478840Y52616D01*
X478843Y52609D01*
X478847D01*
X478875Y52584D01*
X478903Y52556D01*
X478926Y52527D01*
X478945Y52496D01*
X478973Y52433D01*
X478992Y52372D01*
X479005Y52319D01*
X479008Y52293D01*
X479011Y52275D01*
X479014Y52255D01*
Y52243D01*
Y52237D01*
Y52233D01*
Y52199D01*
X479011Y52154D01*
X479008Y52110D01*
X478989Y52034D01*
X478964Y51968D01*
X478935Y51914D01*
X478907Y51870D01*
X478881Y51838D01*
X478872Y51829D01*
X478862Y51819D01*
X478859Y51816D01*
X478856Y51813D01*
X478825Y51788D01*
X478790Y51769D01*
X478717Y51734D01*
X478641Y51712D01*
X478569Y51693D01*
X478502Y51684D01*
X478474Y51680D01*
X478448D01*
X478426Y51677D01*
X478398D01*
X478297Y51684D01*
X478211Y51696D01*
X478170Y51706D01*
X478136Y51715D01*
X478101Y51725D01*
X478072Y51737D01*
X478044Y51750D01*
X478022Y51759D01*
X478003Y51769D01*
X477984Y51778D01*
X477971Y51788D01*
X477962Y51791D01*
X477959Y51797D01*
X477955D01*
X477899Y51845D01*
X477845Y51895D01*
X477794Y51949D01*
X477753Y51996D01*
X477722Y52041D01*
X477696Y52075D01*
X477687Y52088D01*
X477681Y52097D01*
X477674Y52104D01*
Y52107D01*
X477298Y51816D01*
X477355Y51737D01*
X477384Y51702D01*
X477412Y51671D01*
X477434Y51643D01*
X477453Y51623D01*
X477466Y51611D01*
X477469Y51605D01*
X477507Y51567D01*
X477545Y51535D01*
X477583Y51503D01*
X477621Y51478D01*
X477649Y51456D01*
X477674Y51437D01*
X477690Y51428D01*
X477696Y51424D01*
X477747Y51396D01*
X477801Y51371D01*
X477851Y51349D01*
X477899Y51333D01*
X477940Y51317D01*
X477971Y51307D01*
X477984Y51304D01*
X477993Y51301D01*
X477997Y51298D01*
X478000D01*
X478066Y51282D01*
X478132Y51270D01*
X478199Y51263D01*
X478259Y51257D01*
X478313Y51254D01*
X478335Y51251D01*
X478392D01*
X478489Y51254D01*
X478578Y51260D01*
X478660Y51270D01*
X478730Y51282D01*
X478761Y51289D01*
X478787Y51295D01*
X478812Y51298D01*
X478831Y51304D01*
X478847Y51307D01*
X478859Y51311D01*
X478866Y51314D01*
X478869D01*
X478948Y51342D01*
X479017Y51371D01*
X479080Y51402D01*
X479134Y51434D01*
X479175Y51462D01*
X479207Y51485D01*
X479219Y51491D01*
X479229Y51497D01*
X479232Y51503D01*
X479235D01*
X479289Y51551D01*
X479336Y51601D01*
X479378Y51649D01*
X479409Y51696D01*
X479434Y51734D01*
X479453Y51766D01*
X479460Y51778D01*
X479466Y51788D01*
X479469Y51791D01*
Y51794D01*
X479498Y51860D01*
X479517Y51927D01*
X479532Y51990D01*
X479542Y52047D01*
X479548Y52097D01*
Y52120D01*
X479551Y52139D01*
Y52173D01*
X479548Y52237D01*
X479542Y52293D01*
X479532Y52347D01*
X479523Y52391D01*
X479513Y52429D01*
X479504Y52458D01*
X479498Y52474D01*
X479494Y52480D01*
X479472Y52530D01*
X479450Y52575D01*
X479425Y52613D01*
X479400Y52647D01*
X479378Y52673D01*
X479362Y52695D01*
X479349Y52707D01*
X479346Y52711D01*
X479308Y52745D01*
X479273Y52777D01*
X479235Y52802D01*
X479201Y52828D01*
X479172Y52843D01*
X479150Y52859D01*
X479134Y52865D01*
X479128Y52869D01*
X479080Y52891D01*
X479036Y52910D01*
X478992Y52925D01*
X478951Y52938D01*
X478919Y52948D01*
X478891Y52954D01*
X478875Y52960D01*
X478869D01*
Y52982D01*
X478916Y52995D01*
X478960Y53008D01*
X479002Y53023D01*
X479036Y53036D01*
X479068Y53049D01*
X479090Y53058D01*
X479103Y53065D01*
X479109Y53068D01*
X479150Y53093D01*
X479188Y53118D01*
X479219Y53144D01*
X479251Y53166D01*
X479273Y53188D01*
X479289Y53203D01*
X479302Y53216D01*
X479305Y53219D01*
X479336Y53257D01*
X479362Y53292D01*
X479384Y53330D01*
X479403Y53365D01*
X479419Y53393D01*
X479428Y53415D01*
X479434Y53431D01*
X479438Y53437D01*
X479453Y53485D01*
X479466Y53532D01*
X479475Y53576D01*
X479482Y53621D01*
X479485Y53655D01*
X479488Y53684D01*
Y53703D01*
Y53706D01*
Y53709D01*
X479485Y53779D01*
X479475Y53842D01*
X479463Y53902D01*
X479450Y53952D01*
X479434Y53993D01*
X479422Y54025D01*
X479415Y54035D01*
X479412Y54044D01*
X479409Y54047D01*
Y54050D01*
X479378Y54107D01*
X479343Y54158D01*
X479308Y54202D01*
X479273Y54237D01*
X479242Y54268D01*
X479213Y54291D01*
X479197Y54306D01*
X479194Y54309D01*
X479191D01*
X479137Y54347D01*
X479080Y54379D01*
X479024Y54408D01*
X478973Y54430D01*
X478929Y54449D01*
X478891Y54461D01*
X478878Y54464D01*
X478869Y54467D01*
X478862Y54471D01*
X478859D01*
X478787Y54490D01*
X478714Y54502D01*
X478648Y54515D01*
X478584Y54521D01*
X478527Y54524D01*
X478505D01*
X478486Y54528D01*
D02*
G37*
G36*
X473039D02*
X473001D01*
X472928Y54524D01*
X472858Y54521D01*
X472798Y54515D01*
X472745Y54505D01*
X472700Y54496D01*
X472669Y54490D01*
X472656Y54487D01*
X472647D01*
X472644Y54483D01*
X472640D01*
X472583Y54464D01*
X472530Y54449D01*
X472482Y54426D01*
X472441Y54411D01*
X472406Y54395D01*
X472381Y54382D01*
X472366Y54373D01*
X472359Y54370D01*
X472315Y54341D01*
X472274Y54313D01*
X472236Y54287D01*
X472204Y54259D01*
X472179Y54237D01*
X472157Y54218D01*
X472144Y54205D01*
X472141Y54202D01*
X472106Y54167D01*
X472075Y54133D01*
X472046Y54098D01*
X472021Y54066D01*
X472002Y54041D01*
X471986Y54022D01*
X471977Y54009D01*
X471974Y54003D01*
X472318Y53709D01*
X472362Y53772D01*
X472406Y53829D01*
X472454Y53880D01*
X472495Y53918D01*
X472533Y53952D01*
X472565Y53975D01*
X472583Y53990D01*
X472587Y53993D01*
X472590D01*
X472653Y54028D01*
X472719Y54057D01*
X472786Y54076D01*
X472846Y54088D01*
X472899Y54095D01*
X472925Y54098D01*
X472944Y54101D01*
X472982D01*
X473067Y54095D01*
X473143Y54082D01*
X473209Y54063D01*
X473263Y54044D01*
X473307Y54022D01*
X473339Y54003D01*
X473348Y53993D01*
X473358Y53990D01*
X473364Y53984D01*
X473389Y53962D01*
X473411Y53937D01*
X473449Y53883D01*
X473475Y53826D01*
X473490Y53772D01*
X473503Y53725D01*
X473506Y53703D01*
Y53684D01*
X473509Y53671D01*
Y53659D01*
Y53652D01*
Y53649D01*
Y53618D01*
Y53583D01*
X473503Y53548D01*
X473487Y53485D01*
X473462Y53428D01*
X473437Y53381D01*
X473408Y53343D01*
X473383Y53314D01*
X473367Y53298D01*
X473364Y53295D01*
X473361Y53292D01*
X473332Y53270D01*
X473298Y53251D01*
X473228Y53219D01*
X473152Y53197D01*
X473080Y53181D01*
X473013Y53172D01*
X472985Y53169D01*
X472960D01*
X472937Y53166D01*
X472580D01*
Y52739D01*
X472978D01*
X473032Y52733D01*
X473083Y52726D01*
X473127Y52720D01*
X473171Y52711D01*
X473209Y52698D01*
X473247Y52685D01*
X473279Y52676D01*
X473307Y52663D01*
X473329Y52650D01*
X473351Y52641D01*
X473367Y52628D01*
X473383Y52622D01*
X473392Y52616D01*
X473396Y52609D01*
X473399D01*
X473427Y52584D01*
X473456Y52556D01*
X473478Y52527D01*
X473497Y52496D01*
X473525Y52433D01*
X473544Y52372D01*
X473557Y52319D01*
X473560Y52293D01*
X473563Y52275D01*
X473566Y52255D01*
Y52243D01*
Y52237D01*
Y52233D01*
Y52199D01*
X473563Y52154D01*
X473560Y52110D01*
X473541Y52034D01*
X473516Y51968D01*
X473487Y51914D01*
X473459Y51870D01*
X473434Y51838D01*
X473424Y51829D01*
X473415Y51819D01*
X473411Y51816D01*
X473408Y51813D01*
X473377Y51788D01*
X473342Y51769D01*
X473269Y51734D01*
X473193Y51712D01*
X473121Y51693D01*
X473054Y51684D01*
X473026Y51680D01*
X473001D01*
X472978Y51677D01*
X472950D01*
X472849Y51684D01*
X472764Y51696D01*
X472722Y51706D01*
X472688Y51715D01*
X472653Y51725D01*
X472625Y51737D01*
X472596Y51750D01*
X472574Y51759D01*
X472555Y51769D01*
X472536Y51778D01*
X472523Y51788D01*
X472514Y51791D01*
X472511Y51797D01*
X472508D01*
X472451Y51845D01*
X472397Y51895D01*
X472346Y51949D01*
X472305Y51996D01*
X472274Y52041D01*
X472249Y52075D01*
X472239Y52088D01*
X472233Y52097D01*
X472226Y52104D01*
Y52107D01*
X471850Y51816D01*
X471907Y51737D01*
X471936Y51702D01*
X471964Y51671D01*
X471986Y51643D01*
X472005Y51623D01*
X472018Y51611D01*
X472021Y51605D01*
X472059Y51567D01*
X472097Y51535D01*
X472135Y51503D01*
X472173Y51478D01*
X472201Y51456D01*
X472226Y51437D01*
X472242Y51428D01*
X472249Y51424D01*
X472299Y51396D01*
X472353Y51371D01*
X472403Y51349D01*
X472451Y51333D01*
X472492Y51317D01*
X472523Y51307D01*
X472536Y51304D01*
X472546Y51301D01*
X472549Y51298D01*
X472552D01*
X472618Y51282D01*
X472685Y51270D01*
X472751Y51263D01*
X472811Y51257D01*
X472865Y51254D01*
X472887Y51251D01*
X472944D01*
X473042Y51254D01*
X473130Y51260D01*
X473212Y51270D01*
X473282Y51282D01*
X473314Y51289D01*
X473339Y51295D01*
X473364Y51298D01*
X473383Y51304D01*
X473399Y51307D01*
X473411Y51311D01*
X473418Y51314D01*
X473421D01*
X473500Y51342D01*
X473569Y51371D01*
X473633Y51402D01*
X473686Y51434D01*
X473727Y51462D01*
X473759Y51485D01*
X473772Y51491D01*
X473781Y51497D01*
X473784Y51503D01*
X473787D01*
X473841Y51551D01*
X473889Y51601D01*
X473930Y51649D01*
X473961Y51696D01*
X473986Y51734D01*
X474006Y51766D01*
X474012Y51778D01*
X474018Y51788D01*
X474021Y51791D01*
Y51794D01*
X474050Y51860D01*
X474069Y51927D01*
X474085Y51990D01*
X474094Y52047D01*
X474100Y52097D01*
Y52120D01*
X474103Y52139D01*
Y52173D01*
X474100Y52237D01*
X474094Y52293D01*
X474085Y52347D01*
X474075Y52391D01*
X474065Y52429D01*
X474056Y52458D01*
X474050Y52474D01*
X474047Y52480D01*
X474024Y52530D01*
X474002Y52575D01*
X473977Y52613D01*
X473952Y52647D01*
X473930Y52673D01*
X473914Y52695D01*
X473901Y52707D01*
X473898Y52711D01*
X473860Y52745D01*
X473825Y52777D01*
X473787Y52802D01*
X473753Y52828D01*
X473724Y52843D01*
X473702Y52859D01*
X473686Y52865D01*
X473680Y52869D01*
X473633Y52891D01*
X473588Y52910D01*
X473544Y52925D01*
X473503Y52938D01*
X473471Y52948D01*
X473443Y52954D01*
X473427Y52960D01*
X473421D01*
Y52982D01*
X473468Y52995D01*
X473513Y53008D01*
X473554Y53023D01*
X473588Y53036D01*
X473620Y53049D01*
X473642Y53058D01*
X473655Y53065D01*
X473661Y53068D01*
X473702Y53093D01*
X473740Y53118D01*
X473772Y53144D01*
X473803Y53166D01*
X473825Y53188D01*
X473841Y53203D01*
X473854Y53216D01*
X473857Y53219D01*
X473889Y53257D01*
X473914Y53292D01*
X473936Y53330D01*
X473955Y53365D01*
X473971Y53393D01*
X473980Y53415D01*
X473986Y53431D01*
X473990Y53437D01*
X474006Y53485D01*
X474018Y53532D01*
X474028Y53576D01*
X474034Y53621D01*
X474037Y53655D01*
X474040Y53684D01*
Y53703D01*
Y53706D01*
Y53709D01*
X474037Y53779D01*
X474028Y53842D01*
X474015Y53902D01*
X474002Y53952D01*
X473986Y53993D01*
X473974Y54025D01*
X473968Y54035D01*
X473964Y54044D01*
X473961Y54047D01*
Y54050D01*
X473930Y54107D01*
X473895Y54158D01*
X473860Y54202D01*
X473825Y54237D01*
X473794Y54268D01*
X473765Y54291D01*
X473749Y54306D01*
X473746Y54309D01*
X473743D01*
X473690Y54347D01*
X473633Y54379D01*
X473576Y54408D01*
X473525Y54430D01*
X473481Y54449D01*
X473443Y54461D01*
X473430Y54464D01*
X473421Y54467D01*
X473415Y54471D01*
X473411D01*
X473339Y54490D01*
X473266Y54502D01*
X473200Y54515D01*
X473137Y54521D01*
X473080Y54524D01*
X473058D01*
X473039Y54528D01*
D02*
G37*
G36*
X483946Y116339D02*
X483437D01*
Y114989D01*
X482385D01*
Y116339D01*
X481876D01*
Y113169D01*
X482385D01*
Y114563D01*
X483437D01*
Y113169D01*
X483946D01*
Y116339D01*
D02*
G37*
G36*
X481437D02*
X480909D01*
X480485Y114740D01*
X480210Y113662D01*
X480182D01*
X479904Y114740D01*
X479487Y116339D01*
X478937D01*
X479831Y113169D01*
X480542D01*
X481437Y116339D01*
D02*
G37*
G36*
X515192Y62402D02*
X515154D01*
X515062Y62398D01*
X514974Y62392D01*
X514892Y62379D01*
X514816Y62364D01*
X514743Y62348D01*
X514677Y62329D01*
X514617Y62307D01*
X514563Y62285D01*
X514516Y62262D01*
X514474Y62240D01*
X514437Y62221D01*
X514408Y62206D01*
X514386Y62190D01*
X514367Y62177D01*
X514358Y62171D01*
X514354Y62168D01*
X514304Y62120D01*
X514260Y62070D01*
X514219Y62019D01*
X514187Y61962D01*
X514158Y61905D01*
X514133Y61849D01*
X514114Y61792D01*
X514102Y61738D01*
X514089Y61684D01*
X514080Y61637D01*
X514073Y61593D01*
X514067Y61558D01*
Y61526D01*
X514064Y61501D01*
Y61488D01*
Y61482D01*
X514067Y61425D01*
X514070Y61368D01*
X514076Y61318D01*
X514086Y61270D01*
X514092Y61232D01*
X514099Y61204D01*
X514102Y61185D01*
X514105Y61182D01*
Y61179D01*
X514124Y61128D01*
X514146Y61077D01*
X514168Y61033D01*
X514190Y60995D01*
X514212Y60964D01*
X514228Y60942D01*
X514241Y60926D01*
X514244Y60919D01*
X514282Y60878D01*
X514323Y60840D01*
X514364Y60806D01*
X514405Y60777D01*
X514440Y60752D01*
X514468Y60736D01*
X514487Y60724D01*
X514490Y60720D01*
X514494D01*
X514553Y60692D01*
X514620Y60667D01*
X514683Y60648D01*
X514743Y60632D01*
X514797Y60619D01*
X514819Y60613D01*
X514838Y60610D01*
X514854Y60607D01*
X514866D01*
X514873Y60603D01*
X514876D01*
X515220Y60547D01*
X515271Y60537D01*
X515321Y60528D01*
X515366Y60515D01*
X515404Y60502D01*
X515442Y60490D01*
X515476Y60474D01*
X515505Y60461D01*
X515530Y60449D01*
X515552Y60436D01*
X515574Y60423D01*
X515590Y60414D01*
X515603Y60404D01*
X515618Y60392D01*
X515625Y60386D01*
X515666Y60341D01*
X515694Y60291D01*
X515716Y60237D01*
X515729Y60186D01*
X515738Y60142D01*
X515742Y60107D01*
X515745Y60092D01*
Y60082D01*
Y60076D01*
Y60073D01*
X515742Y60025D01*
X515738Y59984D01*
X515720Y59905D01*
X515694Y59839D01*
X515663Y59785D01*
X515631Y59741D01*
X515606Y59709D01*
X515587Y59690D01*
X515584Y59687D01*
X515581Y59684D01*
X515549Y59659D01*
X515514Y59640D01*
X515442Y59605D01*
X515366Y59583D01*
X515290Y59564D01*
X515223Y59554D01*
X515195Y59551D01*
X515173D01*
X515151Y59548D01*
X515122D01*
X515028Y59551D01*
X514939Y59564D01*
X514860Y59580D01*
X514794Y59599D01*
X514762Y59608D01*
X514737Y59618D01*
X514715Y59627D01*
X514692Y59633D01*
X514680Y59640D01*
X514667Y59646D01*
X514661Y59649D01*
X514658D01*
X514582Y59693D01*
X514512Y59741D01*
X514446Y59795D01*
X514389Y59848D01*
X514339Y59896D01*
X514320Y59915D01*
X514304Y59934D01*
X514291Y59946D01*
X514282Y59959D01*
X514275Y59965D01*
X514272Y59968D01*
X513944Y59655D01*
X514016Y59570D01*
X514092Y59494D01*
X514171Y59428D01*
X514244Y59374D01*
X514279Y59349D01*
X514310Y59330D01*
X514339Y59311D01*
X514361Y59295D01*
X514380Y59286D01*
X514396Y59276D01*
X514405Y59273D01*
X514408Y59270D01*
X514462Y59245D01*
X514519Y59223D01*
X514636Y59185D01*
X514753Y59159D01*
X514806Y59150D01*
X514860Y59144D01*
X514911Y59137D01*
X514958Y59131D01*
X514999Y59128D01*
X515034D01*
X515062Y59125D01*
X515103D01*
X515204Y59128D01*
X515299Y59134D01*
X515381Y59147D01*
X515419Y59153D01*
X515454Y59159D01*
X515486Y59166D01*
X515514Y59172D01*
X515539Y59178D01*
X515558Y59185D01*
X515574Y59188D01*
X515587Y59191D01*
X515593Y59194D01*
X515596D01*
X515672Y59223D01*
X515745Y59254D01*
X515805Y59286D01*
X515859Y59317D01*
X515900Y59346D01*
X515931Y59368D01*
X515941Y59377D01*
X515950Y59384D01*
X515953Y59390D01*
X515956D01*
X516010Y59441D01*
X516054Y59494D01*
X516092Y59545D01*
X516124Y59592D01*
X516149Y59637D01*
X516168Y59668D01*
X516175Y59684D01*
X516178Y59693D01*
X516181Y59697D01*
Y59700D01*
X516206Y59769D01*
X516225Y59839D01*
X516238Y59905D01*
X516247Y59965D01*
X516254Y60019D01*
Y60041D01*
X516257Y60060D01*
Y60098D01*
X516254Y60161D01*
X516247Y60221D01*
X516238Y60275D01*
X516225Y60329D01*
X516213Y60379D01*
X516193Y60427D01*
X516178Y60471D01*
X516159Y60512D01*
X516140Y60547D01*
X516124Y60578D01*
X516105Y60607D01*
X516092Y60629D01*
X516080Y60645D01*
X516070Y60660D01*
X516064Y60667D01*
X516061Y60670D01*
X516023Y60711D01*
X515979Y60749D01*
X515931Y60787D01*
X515881Y60818D01*
X515830Y60847D01*
X515776Y60872D01*
X515675Y60913D01*
X515628Y60929D01*
X515584Y60945D01*
X515543Y60954D01*
X515508Y60964D01*
X515479Y60970D01*
X515457Y60976D01*
X515445Y60980D01*
X515438D01*
X515103Y61040D01*
X515050Y61049D01*
X514999Y61062D01*
X514955Y61074D01*
X514914Y61087D01*
X514876Y61100D01*
X514841Y61112D01*
X514813Y61125D01*
X514784Y61141D01*
X514762Y61150D01*
X514743Y61163D01*
X514724Y61172D01*
X514712Y61182D01*
X514696Y61194D01*
X514689Y61201D01*
X514651Y61245D01*
X514623Y61296D01*
X514604Y61346D01*
X514591Y61393D01*
X514582Y61438D01*
X514579Y61472D01*
X514576Y61485D01*
Y61495D01*
Y61501D01*
Y61504D01*
X514579Y61545D01*
X514582Y61586D01*
X514598Y61659D01*
X514623Y61719D01*
X514651Y61770D01*
X514677Y61808D01*
X514702Y61836D01*
X514718Y61852D01*
X514724Y61858D01*
X514784Y61899D01*
X514854Y61928D01*
X514926Y61950D01*
X514996Y61962D01*
X515056Y61972D01*
X515084Y61975D01*
X515106D01*
X515129Y61978D01*
X515154D01*
X515249Y61975D01*
X515334Y61962D01*
X515410Y61946D01*
X515473Y61931D01*
X515501Y61921D01*
X515527Y61912D01*
X515546Y61902D01*
X515565Y61896D01*
X515577Y61890D01*
X515587Y61883D01*
X515593Y61880D01*
X515596D01*
X515663Y61842D01*
X515720Y61798D01*
X515773Y61754D01*
X515817Y61713D01*
X515855Y61678D01*
X515884Y61646D01*
X515900Y61627D01*
X515906Y61624D01*
Y61621D01*
X516225Y61940D01*
X516159Y62016D01*
X516089Y62086D01*
X516017Y62142D01*
X515950Y62190D01*
X515887Y62228D01*
X515862Y62244D01*
X515840Y62256D01*
X515821Y62266D01*
X515808Y62272D01*
X515799Y62278D01*
X515795D01*
X515691Y62319D01*
X515584Y62351D01*
X515476Y62373D01*
X515375Y62386D01*
X515328Y62392D01*
X515287Y62395D01*
X515249Y62398D01*
X515217D01*
X515192Y62402D01*
D02*
G37*
G36*
X508208Y62348D02*
X507681D01*
X507257Y60749D01*
X506982Y59671D01*
X506954D01*
X506676Y60749D01*
X506258Y62348D01*
X505709D01*
X506603Y59178D01*
X507314D01*
X508208Y62348D01*
D02*
G37*
G36*
X513454D02*
X512948D01*
Y60398D01*
Y60329D01*
X512945Y60262D01*
Y60202D01*
X512942Y60149D01*
X512939Y60104D01*
Y60073D01*
X512936Y60060D01*
Y60050D01*
Y60047D01*
Y60044D01*
X512929Y59987D01*
X512920Y59937D01*
X512910Y59889D01*
X512898Y59851D01*
X512888Y59820D01*
X512879Y59795D01*
X512872Y59782D01*
X512869Y59776D01*
X512847Y59738D01*
X512822Y59703D01*
X512793Y59675D01*
X512768Y59649D01*
X512743Y59630D01*
X512724Y59618D01*
X512711Y59608D01*
X512705Y59605D01*
X512661Y59586D01*
X512613Y59573D01*
X512563Y59561D01*
X512515Y59554D01*
X512474Y59551D01*
X512439Y59548D01*
X512408D01*
X512338Y59551D01*
X512278Y59558D01*
X512228Y59567D01*
X512184Y59576D01*
X512149Y59586D01*
X512123Y59596D01*
X512111Y59602D01*
X512105Y59605D01*
X512067Y59630D01*
X512035Y59655D01*
X512007Y59684D01*
X511984Y59712D01*
X511966Y59738D01*
X511953Y59757D01*
X511946Y59769D01*
X511943Y59776D01*
X511924Y59820D01*
X511912Y59864D01*
X511899Y59908D01*
X511890Y59953D01*
X511883Y59987D01*
X511880Y60019D01*
X511877Y60038D01*
Y60041D01*
Y60044D01*
X511871Y60167D01*
Y60228D01*
X511868Y60281D01*
Y60329D01*
Y60348D01*
Y60366D01*
Y60379D01*
Y60389D01*
Y60395D01*
Y60398D01*
Y62348D01*
X511359D01*
Y60490D01*
X511362Y60366D01*
X511365Y60253D01*
X511368Y60199D01*
X511371Y60152D01*
X511375Y60104D01*
X511378Y60063D01*
X511381Y60025D01*
X511384Y59991D01*
X511387Y59962D01*
X511390Y59937D01*
X511393Y59918D01*
X511397Y59905D01*
Y59896D01*
Y59892D01*
X511416Y59801D01*
X511438Y59719D01*
X511460Y59646D01*
X511488Y59583D01*
X511498Y59558D01*
X511510Y59532D01*
X511520Y59513D01*
X511529Y59497D01*
X511539Y59485D01*
X511542Y59475D01*
X511548Y59469D01*
Y59466D01*
X511596Y59406D01*
X511646Y59355D01*
X511700Y59311D01*
X511751Y59273D01*
X511798Y59245D01*
X511833Y59226D01*
X511848Y59219D01*
X511858Y59213D01*
X511864Y59210D01*
X511868D01*
X511950Y59181D01*
X512041Y59159D01*
X512130Y59147D01*
X512215Y59134D01*
X512256Y59131D01*
X512291Y59128D01*
X512326D01*
X512354Y59125D01*
X512408D01*
X512525Y59128D01*
X512578Y59134D01*
X512629Y59137D01*
X512676Y59144D01*
X512721Y59153D01*
X512762Y59159D01*
X512800Y59169D01*
X512831Y59175D01*
X512860Y59181D01*
X512885Y59191D01*
X512904Y59197D01*
X512920Y59204D01*
X512932Y59207D01*
X512939Y59210D01*
X512942D01*
X513015Y59245D01*
X513081Y59286D01*
X513135Y59330D01*
X513182Y59371D01*
X513217Y59409D01*
X513242Y59438D01*
X513252Y59450D01*
X513258Y59460D01*
X513264Y59463D01*
Y59466D01*
X513302Y59532D01*
X513337Y59605D01*
X513362Y59675D01*
X513384Y59744D01*
X513397Y59804D01*
X513403Y59829D01*
X513410Y59851D01*
X513413Y59867D01*
Y59880D01*
X513416Y59889D01*
Y59892D01*
X513428Y59991D01*
X513438Y60095D01*
X513444Y60193D01*
X513451Y60287D01*
Y60329D01*
Y60370D01*
X513454Y60404D01*
Y62348D01*
D02*
G37*
G36*
X509832D02*
X508698D01*
Y59178D01*
X509915D01*
X509987Y59181D01*
X510057Y59188D01*
X510117Y59197D01*
X510171Y59210D01*
X510215Y59223D01*
X510250Y59232D01*
X510262Y59235D01*
X510272Y59238D01*
X510275Y59242D01*
X510278D01*
X510338Y59270D01*
X510392Y59298D01*
X510442Y59330D01*
X510483Y59359D01*
X510518Y59387D01*
X510540Y59409D01*
X510556Y59422D01*
X510562Y59428D01*
X510604Y59475D01*
X510641Y59523D01*
X510673Y59570D01*
X510698Y59614D01*
X510720Y59655D01*
X510733Y59684D01*
X510739Y59697D01*
X510743Y59706D01*
X510746Y59709D01*
Y59712D01*
X510768Y59776D01*
X510784Y59839D01*
X510793Y59899D01*
X510803Y59956D01*
X510806Y60003D01*
Y60022D01*
X510809Y60041D01*
Y60073D01*
X510806Y60133D01*
X510803Y60186D01*
X510793Y60240D01*
X510784Y60287D01*
X510771Y60335D01*
X510755Y60376D01*
X510739Y60414D01*
X510727Y60449D01*
X510711Y60477D01*
X510695Y60506D01*
X510679Y60528D01*
X510667Y60547D01*
X510657Y60559D01*
X510648Y60569D01*
X510645Y60575D01*
X510641Y60578D01*
X510575Y60641D01*
X510502Y60692D01*
X510427Y60733D01*
X510357Y60768D01*
X510294Y60793D01*
X510265Y60803D01*
X510243Y60809D01*
X510224Y60815D01*
X510209Y60818D01*
X510199Y60822D01*
X510196D01*
Y60844D01*
X510278Y60872D01*
X510351Y60907D01*
X510414Y60945D01*
X510464Y60983D01*
X510509Y61018D01*
X510537Y61049D01*
X510556Y61068D01*
X510562Y61071D01*
Y61074D01*
X510588Y61106D01*
X510607Y61141D01*
X510641Y61213D01*
X510667Y61286D01*
X510682Y61359D01*
X510692Y61419D01*
X510695Y61447D01*
Y61469D01*
X510698Y61492D01*
Y61504D01*
Y61514D01*
Y61517D01*
X510695Y61586D01*
X510689Y61653D01*
X510676Y61716D01*
X510660Y61776D01*
X510645Y61830D01*
X510623Y61877D01*
X510604Y61924D01*
X510581Y61966D01*
X510559Y62000D01*
X510537Y62032D01*
X510515Y62060D01*
X510499Y62082D01*
X510483Y62101D01*
X510471Y62114D01*
X510464Y62120D01*
X510461Y62124D01*
X510414Y62165D01*
X510363Y62196D01*
X510313Y62228D01*
X510256Y62253D01*
X510202Y62275D01*
X510145Y62294D01*
X510092Y62307D01*
X510038Y62319D01*
X509987Y62329D01*
X509940Y62335D01*
X509899Y62341D01*
X509864Y62345D01*
X509832Y62348D01*
D02*
G37*
%LPD*%
G36*
X509772Y61953D02*
X509845Y61940D01*
X509908Y61928D01*
X509959Y61909D01*
X510000Y61893D01*
X510028Y61877D01*
X510044Y61864D01*
X510050Y61861D01*
X510092Y61820D01*
X510123Y61773D01*
X510145Y61722D01*
X510161Y61672D01*
X510171Y61624D01*
X510174Y61586D01*
X510177Y61574D01*
Y61561D01*
Y61555D01*
Y61551D01*
Y61387D01*
X510171Y61311D01*
X510158Y61248D01*
X510136Y61194D01*
X510114Y61150D01*
X510092Y61119D01*
X510070Y61097D01*
X510057Y61081D01*
X510050Y61077D01*
X510000Y61046D01*
X509943Y61024D01*
X509883Y61008D01*
X509823Y60998D01*
X509769Y60992D01*
X509747Y60989D01*
X509728Y60986D01*
X509197D01*
Y61956D01*
X509687D01*
X509772Y61953D01*
D02*
G37*
G36*
X509848Y60610D02*
X509927Y60597D01*
X509994Y60581D01*
X510050Y60562D01*
X510092Y60540D01*
X510123Y60524D01*
X510142Y60512D01*
X510148Y60509D01*
X510174Y60487D01*
X510196Y60465D01*
X510227Y60411D01*
X510253Y60357D01*
X510272Y60300D01*
X510281Y60250D01*
X510284Y60228D01*
Y60208D01*
X510288Y60193D01*
Y60180D01*
Y60174D01*
Y60171D01*
Y60009D01*
Y59968D01*
X510281Y59930D01*
X510265Y59861D01*
X510243Y59801D01*
X510218Y59757D01*
X510193Y59719D01*
X510171Y59693D01*
X510155Y59681D01*
X510152Y59675D01*
X510148D01*
X510092Y59640D01*
X510032Y59614D01*
X509965Y59596D01*
X509902Y59583D01*
X509848Y59576D01*
X509823Y59573D01*
X509801D01*
X509785Y59570D01*
X509197D01*
Y60613D01*
X509760D01*
X509848Y60610D01*
D02*
G37*
%LPC*%
G36*
X427182Y112402D02*
X427144D01*
X427037Y112398D01*
X426936Y112383D01*
X426844Y112361D01*
X426759Y112335D01*
X426680Y112301D01*
X426607Y112266D01*
X426541Y112228D01*
X426484Y112187D01*
X426434Y112146D01*
X426389Y112108D01*
X426351Y112073D01*
X426320Y112038D01*
X426298Y112013D01*
X426279Y111991D01*
X426269Y111978D01*
X426266Y111972D01*
X426216Y111887D01*
X426171Y111798D01*
X426133Y111700D01*
X426102Y111599D01*
X426073Y111498D01*
X426051Y111393D01*
X426032Y111292D01*
X426016Y111195D01*
X426007Y111103D01*
X425997Y111018D01*
X425991Y110939D01*
X425985Y110872D01*
Y110844D01*
Y110815D01*
X425982Y110793D01*
Y110739D01*
X425985Y110600D01*
X425991Y110468D01*
X426004Y110344D01*
X426020Y110228D01*
X426039Y110120D01*
X426061Y110022D01*
X426083Y109934D01*
X426108Y109855D01*
X426130Y109782D01*
X426152Y109719D01*
X426174Y109668D01*
X426193Y109624D01*
X426209Y109589D01*
X426222Y109564D01*
X426228Y109551D01*
X426231Y109545D01*
X426282Y109472D01*
X426336Y109406D01*
X426392Y109349D01*
X426452Y109302D01*
X426516Y109260D01*
X426576Y109229D01*
X426639Y109201D01*
X426699Y109178D01*
X426756Y109159D01*
X426806Y109147D01*
X426854Y109137D01*
X426895Y109131D01*
X426930Y109128D01*
X426955Y109125D01*
X426977D01*
X427034Y109128D01*
X427084Y109131D01*
X427132Y109137D01*
X427170Y109147D01*
X427205Y109153D01*
X427227Y109159D01*
X427243Y109163D01*
X427249Y109166D01*
X427290Y109181D01*
X427328Y109197D01*
X427363Y109216D01*
X427391Y109232D01*
X427416Y109248D01*
X427432Y109260D01*
X427445Y109267D01*
X427448Y109270D01*
X427480Y109295D01*
X427505Y109324D01*
X427530Y109352D01*
X427552Y109374D01*
X427568Y109396D01*
X427581Y109412D01*
X427587Y109425D01*
X427590Y109428D01*
X427628Y109494D01*
X427647Y109526D01*
X427660Y109554D01*
X427672Y109576D01*
X427682Y109596D01*
X427685Y109608D01*
X427688Y109611D01*
X427720D01*
Y109178D01*
X428184D01*
Y110800D01*
X427107D01*
Y110417D01*
X427720D01*
Y110129D01*
Y110082D01*
X427713Y110038D01*
X427698Y109956D01*
X427672Y109883D01*
X427647Y109820D01*
X427631Y109795D01*
X427619Y109773D01*
X427606Y109754D01*
X427593Y109734D01*
X427584Y109722D01*
X427577Y109712D01*
X427574Y109709D01*
X427571Y109706D01*
X427543Y109678D01*
X427511Y109652D01*
X427480Y109630D01*
X427445Y109611D01*
X427372Y109583D01*
X427306Y109564D01*
X427243Y109551D01*
X427217Y109548D01*
X427195Y109545D01*
X427173Y109542D01*
X427148D01*
X427088Y109545D01*
X427031Y109551D01*
X426980Y109564D01*
X426936Y109576D01*
X426901Y109589D01*
X426876Y109602D01*
X426860Y109608D01*
X426854Y109611D01*
X426810Y109640D01*
X426772Y109675D01*
X426740Y109706D01*
X426712Y109741D01*
X426689Y109769D01*
X426671Y109791D01*
X426661Y109807D01*
X426658Y109813D01*
X426633Y109864D01*
X426611Y109918D01*
X426591Y109968D01*
X426579Y110016D01*
X426566Y110060D01*
X426560Y110092D01*
X426557Y110107D01*
Y110117D01*
X426554Y110120D01*
Y110123D01*
X426544Y110193D01*
X426535Y110262D01*
X426528Y110332D01*
X426525Y110392D01*
Y110445D01*
X426522Y110468D01*
Y110487D01*
Y110502D01*
Y110515D01*
Y110521D01*
Y110524D01*
Y111027D01*
X426525Y111106D01*
X426528Y111182D01*
X426535Y111251D01*
X426544Y111318D01*
X426557Y111381D01*
X426569Y111438D01*
X426582Y111488D01*
X426595Y111536D01*
X426607Y111580D01*
X426620Y111615D01*
X426633Y111646D01*
X426645Y111672D01*
X426655Y111694D01*
X426661Y111706D01*
X426667Y111716D01*
Y111719D01*
X426696Y111763D01*
X426731Y111804D01*
X426768Y111839D01*
X426806Y111867D01*
X426844Y111893D01*
X426885Y111915D01*
X426923Y111931D01*
X426964Y111946D01*
X426999Y111956D01*
X427034Y111966D01*
X427066Y111972D01*
X427094Y111975D01*
X427116D01*
X427132Y111978D01*
X427148D01*
X427195Y111975D01*
X427239Y111972D01*
X427277Y111966D01*
X427309Y111959D01*
X427337Y111950D01*
X427356Y111943D01*
X427369Y111940D01*
X427372Y111937D01*
X427407Y111921D01*
X427438Y111902D01*
X427464Y111883D01*
X427489Y111864D01*
X427508Y111849D01*
X427521Y111836D01*
X427530Y111827D01*
X427533Y111823D01*
X427577Y111766D01*
X427596Y111738D01*
X427612Y111713D01*
X427625Y111691D01*
X427637Y111672D01*
X427641Y111659D01*
X427644Y111656D01*
X427675Y111586D01*
X427688Y111555D01*
X427701Y111523D01*
X427710Y111498D01*
X427720Y111479D01*
X427723Y111466D01*
X427726Y111460D01*
X428184Y111615D01*
X428165Y111672D01*
X428143Y111729D01*
X428121Y111779D01*
X428099Y111823D01*
X428080Y111861D01*
X428064Y111890D01*
X428055Y111909D01*
X428051Y111915D01*
X428020Y111966D01*
X427985Y112013D01*
X427950Y112057D01*
X427919Y112092D01*
X427890Y112124D01*
X427868Y112146D01*
X427852Y112158D01*
X427846Y112165D01*
X427799Y112203D01*
X427748Y112237D01*
X427701Y112266D01*
X427653Y112291D01*
X427612Y112310D01*
X427577Y112323D01*
X427565Y112329D01*
X427559Y112332D01*
X427552Y112335D01*
X427549D01*
X427483Y112357D01*
X427413Y112373D01*
X427344Y112386D01*
X427280Y112392D01*
X427227Y112398D01*
X427205D01*
X427182Y112402D01*
D02*
G37*
G36*
X424629Y112348D02*
X423425D01*
Y109178D01*
X423934D01*
Y110439D01*
X424610D01*
X424692Y110442D01*
X424771Y110449D01*
X424844Y110461D01*
X424910Y110480D01*
X424974Y110499D01*
X425031Y110518D01*
X425081Y110544D01*
X425128Y110566D01*
X425166Y110588D01*
X425204Y110613D01*
X425233Y110632D01*
X425258Y110654D01*
X425277Y110670D01*
X425293Y110682D01*
X425299Y110689D01*
X425302Y110692D01*
X425343Y110743D01*
X425381Y110796D01*
X425413Y110853D01*
X425441Y110910D01*
X425463Y110967D01*
X425482Y111027D01*
X425501Y111084D01*
X425514Y111138D01*
X425523Y111191D01*
X425530Y111239D01*
X425536Y111283D01*
X425539Y111321D01*
X425542Y111349D01*
Y111393D01*
X425539Y111476D01*
X425533Y111551D01*
X425520Y111621D01*
X425504Y111691D01*
X425486Y111751D01*
X425467Y111808D01*
X425444Y111861D01*
X425422Y111909D01*
X425400Y111950D01*
X425378Y111988D01*
X425359Y112019D01*
X425340Y112045D01*
X425324Y112067D01*
X425312Y112079D01*
X425305Y112089D01*
X425302Y112092D01*
X425255Y112136D01*
X425204Y112177D01*
X425151Y112212D01*
X425094Y112240D01*
X425037Y112266D01*
X424980Y112285D01*
X424923Y112304D01*
X424866Y112316D01*
X424816Y112326D01*
X424768Y112335D01*
X424724Y112341D01*
X424686Y112345D01*
X424654D01*
X424629Y112348D01*
D02*
G37*
%LPD*%
G36*
X424616Y111918D02*
X424689Y111906D01*
X424752Y111883D01*
X424806Y111858D01*
X424854Y111823D01*
X424891Y111788D01*
X424923Y111748D01*
X424945Y111709D01*
X424967Y111669D01*
X424980Y111627D01*
X424989Y111593D01*
X424999Y111558D01*
X425002Y111533D01*
X425005Y111511D01*
Y111498D01*
Y111492D01*
Y111296D01*
X424999Y111220D01*
X424986Y111153D01*
X424961Y111097D01*
X424932Y111046D01*
X424895Y111005D01*
X424857Y110967D01*
X424812Y110939D01*
X424771Y110916D01*
X424727Y110901D01*
X424683Y110885D01*
X424645Y110875D01*
X424607Y110869D01*
X424579Y110866D01*
X424553Y110863D01*
X423934D01*
Y111924D01*
X424534D01*
X424616Y111918D01*
D02*
G37*
%LPC*%
G36*
X512197Y115945D02*
X509697D01*
Y115518D01*
X510693D01*
Y112775D01*
X511201D01*
Y115518D01*
X512197D01*
Y115945D01*
D02*
G37*
G36*
X507861D02*
X507353D01*
Y112775D01*
X509305D01*
Y113202D01*
X507861D01*
Y115945D01*
D02*
G37*
G36*
X506566D02*
X504528D01*
Y112775D01*
X505036D01*
Y114169D01*
X506427D01*
Y114596D01*
X505036D01*
Y115518D01*
X506566D01*
Y115945D01*
D02*
G37*
%LPD*%
D10*
X494059Y78331D02*
G03*
X494059Y78331I-500J0D01*
G01*
X492402Y221181D02*
G03*
X492402Y221181I-79J0D01*
G01*
X479173D02*
G03*
X479173Y221181I-79J0D01*
G01*
X465236D02*
G03*
X465236Y221181I-79J0D01*
G01*
D11*
X544315Y210015D02*
G03*
X544872Y209459I278J-278D01*
G01*
D02*
G03*
X544315Y210015I-278J278D01*
G01*
X395433Y154081D02*
G03*
X395433Y154081I-394J0D01*
G01*
X500669Y212992D02*
X501850Y214173D01*
X487441Y212992D02*
X488622Y214173D01*
X473504Y212992D02*
X474685Y214173D01*
X128008Y170872D02*
X133815D01*
X135193Y151089D02*
X149760D01*
X135193D02*
Y170774D01*
X149760Y151089D02*
Y170774D01*
X135193D02*
X149760D01*
X514010Y94516D02*
X518734D01*
X512139Y97665D02*
X518734D01*
X472929Y188602D02*
X498820Y162711D01*
X472929Y136821D02*
X498820Y162711D01*
X447039Y162711D02*
X472929Y188602D01*
X447039Y162711D02*
X472929Y136821D01*
D12*
X444568Y92898D02*
G03*
X444568Y92898I-492J0D01*
G01*
X468619Y192569D02*
G03*
X468619Y192569I-492J0D01*
G01*
X484773Y100980D02*
G03*
X484773Y100980I-492J0D01*
G01*
D13*
X519591Y75671D02*
G03*
X519591Y75671I-300J0D01*
G01*
X37584Y169955D02*
Y171325D01*
Y152825D02*
X37584Y154194D01*
X26983Y171325D02*
X37584D01*
X26983Y169955D02*
Y171325D01*
Y152825D02*
X37584D01*
X26983Y154194D02*
X26983Y152825D01*
X37883Y177736D02*
Y178414D01*
X33683Y177736D02*
Y178414D01*
X30883Y177736D02*
Y178414D01*
X26684Y177736D02*
Y178414D01*
X202938Y74022D02*
Y75392D01*
Y56892D02*
Y58261D01*
X192338Y75392D02*
X202938D01*
X192338Y74022D02*
Y75392D01*
Y56892D02*
X202938D01*
X192338D02*
Y58261D01*
X199038Y81803D02*
Y82481D01*
X203238Y81803D02*
Y82481D01*
X254011Y151329D02*
Y169931D01*
X266252Y143380D02*
X269611D01*
Y152649D01*
Y168611D02*
Y177880D01*
X266252D02*
X269611D01*
X326561Y223534D02*
Y224892D01*
X297061Y207392D02*
Y208714D01*
X317182Y207392D02*
X326561D01*
X297061Y223534D02*
Y224892D01*
X326561D01*
Y207392D02*
Y208714D01*
X297061Y207392D02*
X306440D01*
X533223Y77491D02*
X539218D01*
X548184D02*
X554472D01*
Y113691D01*
X533223D02*
X539218D01*
X548184D02*
X554472D01*
X505492Y86417D02*
Y87095D01*
X509692Y86417D02*
Y87095D01*
X436042Y87917D02*
Y88595D01*
X431843Y87917D02*
Y88595D01*
X498992Y86417D02*
Y87095D01*
X503192Y86417D02*
Y87095D01*
X456168Y102810D02*
Y103489D01*
X460368Y102810D02*
Y103489D01*
X438845Y94936D02*
Y95615D01*
X443045Y94936D02*
Y95615D01*
X498480Y184908D02*
X499158D01*
X498480Y189108D02*
X499158D01*
X488845Y192968D02*
Y193646D01*
X493045Y192968D02*
Y193646D01*
X192038Y81803D02*
Y82481D01*
X196238Y81803D02*
Y82481D01*
X412289Y223158D02*
Y224516D01*
X382789Y207016D02*
Y208338D01*
X402910Y207016D02*
X412289D01*
X382789Y223158D02*
Y224516D01*
X412289D01*
Y207016D02*
Y208338D01*
X382789Y207016D02*
X392169D01*
X369967Y223158D02*
Y224516D01*
X340467Y207016D02*
Y208338D01*
X360587Y207016D02*
X369967D01*
X340467Y223158D02*
Y224516D01*
X369967D01*
Y207016D02*
Y208338D01*
X340467Y207016D02*
X349846D01*
D14*
X271168Y183941D02*
G03*
X271168Y183941I-1500J0D01*
G01*
X334161Y204707D02*
G03*
X334161Y204707I-1500J0D01*
G01*
X419889Y204331D02*
G03*
X419889Y204331I-1500J0D01*
G01*
X377567D02*
G03*
X377567Y204331I-1500J0D01*
G01*
D15*
X17264Y154496D02*
Y158630D01*
X22106Y154496D02*
Y158630D01*
X21595Y154496D02*
Y158630D01*
X26437Y154496D02*
Y158630D01*
X373768Y163923D02*
X377035D01*
X373768Y154081D02*
X377035Y154081D01*
X438482Y77079D02*
Y77433D01*
X443403Y77079D02*
Y77433D01*
X191791Y58563D02*
Y62697D01*
X186949Y58563D02*
Y62697D01*
X443164Y146039D02*
X446087Y148962D01*
X439740Y149463D02*
X442663Y152386D01*
X478323Y87101D02*
Y91235D01*
X473481Y87101D02*
Y91235D01*
X462795Y85374D02*
Y88642D01*
X472638Y85374D02*
Y88642D01*
X503534Y153208D02*
X507668D01*
X503534Y158050D02*
X507668D01*
X483917Y193996D02*
Y198130D01*
X479075Y193996D02*
Y198130D01*
X458122Y129474D02*
X461045Y132398D01*
X454698Y132899D02*
X457621Y135822D01*
X440802Y180685D02*
X443725Y183608D01*
X437378Y184109D02*
X440301Y187032D01*
X444739Y176748D02*
X447662Y179671D01*
X441315Y180172D02*
X444238Y183095D01*
X464030Y135063D02*
X466953Y132140D01*
X460606Y131639D02*
X463529Y128716D01*
X475463Y196859D02*
X478386Y193935D01*
X472039Y193434D02*
X474962Y190511D01*
X502805Y98512D02*
X506939D01*
X502805Y93669D02*
X506939D01*
X516950Y89024D02*
Y93158D01*
X521793Y89024D02*
Y93158D01*
X516950Y99024D02*
Y103157D01*
X521793Y99024D02*
Y103157D01*
X450102Y186491D02*
X453025Y183568D01*
X453526Y189916D02*
X456449Y186992D01*
X389323Y157935D02*
X389323Y162069D01*
X384480Y157935D02*
Y162069D01*
X401323Y151533D02*
X401323Y147399D01*
X396480Y151533D02*
X396480Y147399D01*
X405882Y169041D02*
X408805Y166118D01*
X409306Y172465D02*
X412229Y169542D01*
X162488Y161364D02*
Y165498D01*
X157646Y161364D02*
Y165498D01*
X396752Y174075D02*
X400886D01*
X396752Y169232D02*
X400886Y169232D01*
X187461Y58563D02*
Y62697D01*
X182618Y58563D02*
Y62697D01*
D16*
X530131Y217240D02*
X538483Y208888D01*
X537091Y224199D02*
X538901Y222390D01*
X540849Y224339D01*
X545582Y219606D01*
X543633Y217657D02*
X545582Y219606D01*
X543633Y217657D02*
X545443Y215848D01*
D17*
X460907Y77346D02*
X461891D01*
Y78331D01*
X445553Y77346D02*
Y78331D01*
Y77346D02*
X446537D01*
X461891Y96441D02*
Y97425D01*
X460907D02*
X461891D01*
X445553D02*
X446537D01*
X445553Y96441D02*
Y97425D01*
D18*
X27468Y150441D02*
X30801Y153774D01*
Y150441D02*
X27468Y153774D01*
X29135Y150441D02*
Y153774D01*
X30801Y152108D02*
X27468D01*
X192823Y54508D02*
X196155Y57841D01*
Y54508D02*
X192823Y57841D01*
X194489Y54508D02*
Y57841D01*
X196155Y56174D02*
X192823D01*
X522706Y92340D02*
X526039Y95673D01*
Y92340D02*
X522706Y95673D01*
X524372Y92340D02*
Y95673D01*
X526039Y94007D02*
X522706D01*
D19*
X288714Y229527D02*
X287402D01*
X288058D01*
Y226247D01*
X287402Y225591D01*
X286746D01*
X286090Y226247D01*
X292650Y229527D02*
X290026D01*
Y227559D01*
X291338Y228215D01*
X291994D01*
X292650Y227559D01*
Y226247D01*
X291994Y225591D01*
X290682D01*
X290026Y226247D01*
X333202Y229133D02*
X331890D01*
X332546D01*
Y225853D01*
X331890Y225198D01*
X331235D01*
X330578Y225853D01*
X336482Y225198D02*
Y229133D01*
X334514Y227165D01*
X337138D01*
X378084Y229133D02*
X376772D01*
X377428D01*
Y225853D01*
X376772Y225198D01*
X376116D01*
X375460Y225853D01*
X379396Y228477D02*
X380052Y229133D01*
X381364D01*
X382020Y228477D01*
Y227821D01*
X381364Y227165D01*
X380708D01*
X381364D01*
X382020Y226509D01*
Y225853D01*
X381364Y225198D01*
X380052D01*
X379396Y225853D01*
X491997Y212204D02*
Y208268D01*
X494621D01*
X498557Y212204D02*
X495933D01*
Y208268D01*
X498557D01*
X495933Y210236D02*
X497245D01*
X499869Y212204D02*
Y208268D01*
X501836D01*
X502492Y208924D01*
Y211548D01*
X501836Y212204D01*
X499869D01*
X503804Y211548D02*
X504460Y212204D01*
X505772D01*
X506428Y211548D01*
Y210892D01*
X505772Y210236D01*
X505116D01*
X505772D01*
X506428Y209580D01*
Y208924D01*
X505772Y208268D01*
X504460D01*
X503804Y208924D01*
X475855Y212204D02*
Y208268D01*
X478479D01*
X482415Y212204D02*
X479791D01*
Y208268D01*
X482415D01*
X479791Y210236D02*
X481103D01*
X483727Y212204D02*
Y208268D01*
X485695D01*
X486351Y208924D01*
Y211548D01*
X485695Y212204D01*
X483727D01*
X490286Y208268D02*
X487663D01*
X490286Y210892D01*
Y211548D01*
X489630Y212204D01*
X488318D01*
X487663Y211548D01*
X461157Y212204D02*
Y208268D01*
X463781D01*
X467717Y212204D02*
X465093D01*
Y208268D01*
X467717D01*
X465093Y210236D02*
X466405D01*
X469029Y212204D02*
Y208268D01*
X470996D01*
X471652Y208924D01*
Y211548D01*
X470996Y212204D01*
X469029D01*
X472964Y208268D02*
X474276D01*
X473620D01*
Y212204D01*
X472964Y211548D01*
X177430Y55511D02*
Y52231D01*
X178086Y51575D01*
X179398D01*
X180054Y52231D01*
Y55511D01*
X183990D02*
X182678Y54855D01*
X181366Y53543D01*
Y52231D01*
X182022Y51575D01*
X183334D01*
X183990Y52231D01*
Y52887D01*
X183334Y53543D01*
X181366D01*
X185958Y51575D02*
Y55511D01*
X187269D02*
Y51575D01*
X185302Y54199D02*
X187269D01*
X187926D01*
X185302Y52887D02*
X187926D01*
X191861Y51575D02*
X189237D01*
X191861Y54199D01*
Y54855D01*
X191205Y55511D01*
X189893D01*
X189237Y54855D01*
X39110Y151968D02*
Y148688D01*
X39766Y148032D01*
X41078D01*
X41734Y148688D01*
Y151968D01*
X45669D02*
X44357Y151312D01*
X43045Y150000D01*
Y148688D01*
X43701Y148032D01*
X45013D01*
X45669Y148688D01*
Y149344D01*
X45013Y150000D01*
X43045D01*
X47637Y148032D02*
Y151968D01*
X48949D02*
Y148032D01*
X46981Y150656D02*
X48949D01*
X49605D01*
X46981Y149344D02*
X49605D01*
X50917Y148032D02*
X52229D01*
X51573D01*
Y151968D01*
X50917Y151312D01*
X209106Y76426D02*
X205170D01*
Y78394D01*
X205826Y79050D01*
X207138D01*
X207794Y78394D01*
Y76426D01*
Y77738D02*
X209106Y79050D01*
X208450Y80362D02*
X209106Y81018D01*
Y82330D01*
X208450Y82986D01*
X205826D01*
X205170Y82330D01*
Y81018D01*
X205826Y80362D01*
X206482D01*
X207138Y81018D01*
Y82986D01*
X209106Y84954D02*
X205170D01*
Y86266D02*
X209106D01*
X206482Y84298D02*
Y86266D01*
Y86922D01*
X207794Y84298D02*
Y86922D01*
X209106Y90857D02*
Y88233D01*
X206482Y90857D01*
X205826D01*
X205170Y90201D01*
Y88889D01*
X205826Y88233D01*
X43751Y172359D02*
X39816D01*
Y174327D01*
X40472Y174983D01*
X41783D01*
X42439Y174327D01*
Y172359D01*
Y173671D02*
X43751Y174983D01*
X43095Y176295D02*
X43751Y176951D01*
Y178263D01*
X43095Y178919D01*
X40472D01*
X39816Y178263D01*
Y176951D01*
X40472Y176295D01*
X41127D01*
X41783Y176951D01*
Y178919D01*
X43751Y180887D02*
X39816D01*
Y182199D02*
X43751D01*
X41127Y180231D02*
Y182199D01*
Y182855D01*
X42439Y180231D02*
Y182855D01*
X43751Y184167D02*
Y185478D01*
Y184822D01*
X39816D01*
X40472Y184167D01*
X190106Y76926D02*
X186170D01*
Y78894D01*
X186826Y79550D01*
X188138D01*
X188794Y78894D01*
Y76926D01*
Y78238D02*
X190106Y79550D01*
X186826Y80862D02*
X186170Y81518D01*
Y82830D01*
X186826Y83486D01*
X187482D01*
X188138Y82830D01*
X188794Y83486D01*
X189450D01*
X190106Y82830D01*
Y81518D01*
X189450Y80862D01*
X188794D01*
X188138Y81518D01*
X187482Y80862D01*
X186826D01*
X188138Y81518D02*
Y82830D01*
X190106Y85454D02*
X186170D01*
Y86766D02*
X190106D01*
X187482Y84798D02*
Y86766D01*
Y87422D01*
X188794Y84798D02*
Y87422D01*
X190106Y91357D02*
Y88733D01*
X187482Y91357D01*
X186826D01*
X186170Y90701D01*
Y89389D01*
X186826Y88733D01*
X24751Y172859D02*
X20816D01*
Y174827D01*
X21472Y175483D01*
X22783D01*
X23439Y174827D01*
Y172859D01*
Y174171D02*
X24751Y175483D01*
X21472Y176795D02*
X20816Y177451D01*
Y178763D01*
X21472Y179419D01*
X22128D01*
X22783Y178763D01*
X23439Y179419D01*
X24095D01*
X24751Y178763D01*
Y177451D01*
X24095Y176795D01*
X23439D01*
X22783Y177451D01*
X22128Y176795D01*
X21472D01*
X22783Y177451D02*
Y178763D01*
X24751Y181387D02*
X20816D01*
Y182699D02*
X24751D01*
X22128Y180731D02*
Y182699D01*
Y183355D01*
X23439Y180731D02*
Y183355D01*
X24751Y184667D02*
Y185978D01*
Y185322D01*
X20816D01*
X21472Y184667D01*
X488600Y201800D02*
Y205736D01*
X490568D01*
X491224Y205080D01*
Y203768D01*
X490568Y203112D01*
X488600D01*
X489912D02*
X491224Y201800D01*
X492536Y205736D02*
X495160D01*
Y205080D01*
X492536Y202456D01*
Y201800D01*
X493600Y192500D02*
Y196436D01*
X495568D01*
X496224Y195780D01*
Y194468D01*
X495568Y193812D01*
X493600D01*
X494912D02*
X496224Y192500D01*
X500160Y196436D02*
X498848Y195780D01*
X497536Y194468D01*
Y193156D01*
X498192Y192500D01*
X499504D01*
X500160Y193156D01*
Y193812D01*
X499504Y194468D01*
X497536D01*
X178966Y77219D02*
Y78147D01*
X178039Y79075D01*
X177111D01*
X175256Y77219D01*
Y76292D01*
X176183Y75364D01*
X177111D01*
X179430Y72117D02*
X177575Y73973D01*
X181286D01*
X181749Y74436D01*
X181749Y75364D01*
X180822Y76292D01*
X179894D01*
X182677Y73509D02*
X183605D01*
X184532Y72581D01*
X184532Y71653D01*
X184069Y71190D01*
X183141D01*
X182677Y71653D01*
X183141Y71190D01*
X183141Y70262D01*
X182677Y69798D01*
X181749Y69798D01*
X180822Y70726D01*
Y71653D01*
X183605Y67943D02*
X186388Y70726D01*
X187315Y69798D02*
X184532Y67015D01*
X184996Y70262D02*
X186388Y68871D01*
X186852Y68407D01*
X184069Y69334D02*
X185924Y67479D01*
X187779Y63768D02*
X185924Y65624D01*
X189635D01*
X190099Y66088D01*
X190099Y67015D01*
X189171Y67943D01*
X188243D01*
X23098Y138978D02*
X22442Y138322D01*
Y137010D01*
X23098Y136354D01*
X25721D01*
X26377Y137010D01*
Y138322D01*
X25721Y138978D01*
X26377Y142914D02*
Y140290D01*
X23753Y142914D01*
X23098D01*
X22442Y142258D01*
Y140946D01*
X23098Y140290D01*
Y144226D02*
X22442Y144882D01*
Y146194D01*
X23098Y146850D01*
X23753D01*
X24409Y146194D01*
Y145538D01*
Y146194D01*
X25065Y146850D01*
X25721D01*
X26377Y146194D01*
Y144882D01*
X25721Y144226D01*
X26377Y148818D02*
X22442D01*
Y150129D02*
X26377D01*
X23753Y148162D02*
Y150129D01*
Y150786D01*
X25065Y148162D02*
Y150786D01*
X26377Y152097D02*
Y153409D01*
Y152753D01*
X22442D01*
X23098Y152097D01*
X173061Y76432D02*
Y77360D01*
X172133Y78287D01*
X171206D01*
X169350Y76432D01*
Y75504D01*
X170278Y74577D01*
X171206D01*
X173525Y71330D02*
X171669Y73185D01*
X175380D01*
X175844Y73649D01*
X175844Y74577D01*
X174916Y75504D01*
X173989D01*
X176308Y68547D02*
X174452Y70402D01*
X178163D01*
X178627Y70866D01*
X178627Y71794D01*
X177699Y72721D01*
X176772D01*
X177699Y67155D02*
X180482Y69938D01*
X181410Y69011D02*
X178627Y66228D01*
X179091Y69475D02*
X180482Y68083D01*
X180946Y67619D01*
X178163Y68547D02*
X180018Y66692D01*
X181874Y62981D02*
X180018Y64836D01*
X183729D01*
X184193Y65300D01*
X184193Y66228D01*
X183265Y67155D01*
X182338D01*
X17979Y138978D02*
X17323Y138322D01*
Y137010D01*
X17979Y136354D01*
X20603D01*
X21259Y137010D01*
Y138322D01*
X20603Y138978D01*
X21259Y142914D02*
Y140290D01*
X18635Y142914D01*
X17979D01*
X17323Y142258D01*
Y140946D01*
X17979Y140290D01*
X21259Y146850D02*
Y144226D01*
X18635Y146850D01*
X17979D01*
X17323Y146194D01*
Y144882D01*
X17979Y144226D01*
X21259Y148818D02*
X17323D01*
Y150129D02*
X21259D01*
X18635Y148162D02*
Y150129D01*
Y150786D01*
X19947Y148162D02*
Y150786D01*
X21259Y152097D02*
Y153409D01*
Y152753D01*
X17323D01*
X17979Y152097D01*
X409122Y159970D02*
Y156690D01*
X409778Y156034D01*
X411090D01*
X411746Y156690D01*
Y159970D01*
X415025Y156034D02*
Y159970D01*
X413058Y158002D01*
X415681D01*
X127500Y178579D02*
Y175299D01*
X128156Y174643D01*
X129468D01*
X130124Y175299D01*
Y178579D01*
X131436Y177923D02*
X132092Y178579D01*
X133404D01*
X134060Y177923D01*
Y177267D01*
X133404Y176611D01*
X132748D01*
X133404D01*
X134060Y175955D01*
Y175299D01*
X133404Y174643D01*
X132092D01*
X131436Y175299D01*
X445163Y102724D02*
Y99444D01*
X445819Y98788D01*
X447131D01*
X447787Y99444D01*
Y102724D01*
X451722Y98788D02*
X449098D01*
X451722Y101412D01*
Y102068D01*
X451066Y102724D01*
X449754D01*
X449098Y102068D01*
X483468Y109224D02*
Y105944D01*
X484124Y105288D01*
X485436D01*
X486092Y105944D01*
Y109224D01*
X487404Y105288D02*
X488716D01*
X488060D01*
Y109224D01*
X487404Y108568D01*
X435900Y206836D02*
Y203556D01*
X436556Y202900D01*
X437868D01*
X438524Y203556D01*
Y206836D01*
X439836Y206180D02*
X440492Y206836D01*
X441804D01*
X442460Y206180D01*
Y203556D01*
X441804Y202900D01*
X440492D01*
X439836Y203556D01*
Y206180D01*
X523221Y225336D02*
X522565Y225992D01*
X521253D01*
X520597Y225336D01*
Y224680D01*
X521253Y224024D01*
X522565D01*
X523221Y223368D01*
Y222712D01*
X522565Y222056D01*
X521253D01*
X520597Y222712D01*
X524533Y225992D02*
Y222056D01*
X525845Y223368D01*
X527156Y222056D01*
Y225992D01*
X528469Y222056D02*
X529780D01*
X529124D01*
Y225992D01*
X528469Y225336D01*
X442133Y102161D02*
X438198D01*
Y104129D01*
X438853Y104785D01*
X440165D01*
X440821Y104129D01*
Y102161D01*
Y103473D02*
X442133Y104785D01*
X438198Y108721D02*
Y106097D01*
X440165D01*
X439509Y107409D01*
Y108065D01*
X440165Y108721D01*
X441477D01*
X442133Y108065D01*
Y106753D01*
X441477Y106097D01*
X460456Y110535D02*
X456520D01*
Y112503D01*
X457176Y113159D01*
X458488D01*
X459144Y112503D01*
Y110535D01*
Y111847D02*
X460456Y113159D01*
Y116439D02*
X456520D01*
X458488Y114471D01*
Y117095D01*
X502780Y73641D02*
X498845D01*
Y75609D01*
X499501Y76265D01*
X500813D01*
X501469Y75609D01*
Y73641D01*
Y74953D02*
X502780Y76265D01*
X499501Y77577D02*
X498845Y78233D01*
Y79545D01*
X499501Y80201D01*
X500157D01*
X500813Y79545D01*
Y78889D01*
Y79545D01*
X501469Y80201D01*
X502125D01*
X502780Y79545D01*
Y78233D01*
X502125Y77577D01*
X435910Y95476D02*
X431975D01*
Y97444D01*
X432631Y98100D01*
X433943D01*
X434598Y97444D01*
Y95476D01*
Y96788D02*
X435910Y98100D01*
Y102036D02*
Y99412D01*
X433287Y102036D01*
X432631D01*
X431975Y101380D01*
Y100068D01*
X432631Y99412D01*
X509280Y74297D02*
X505345D01*
Y76265D01*
X506001Y76921D01*
X507313D01*
X507969Y76265D01*
Y74297D01*
Y75609D02*
X509280Y76921D01*
Y78233D02*
Y79545D01*
Y78889D01*
X505345D01*
X506001Y78233D01*
X486752Y74247D02*
Y76871D01*
X486096Y77527D01*
X484784D01*
X484128Y76871D01*
Y74247D01*
X484784Y73591D01*
X486096D01*
X485440Y74903D02*
X486752Y73591D01*
X486096D02*
X486752Y74247D01*
X488064Y73591D02*
X489376D01*
X488720D01*
Y77527D01*
X488064Y76871D01*
X254624Y192936D02*
X253312D01*
X253968D01*
Y189656D01*
X253312Y189000D01*
X252656D01*
X252000Y189656D01*
X258560Y189000D02*
X255936D01*
X258560Y191624D01*
Y192280D01*
X257904Y192936D01*
X256592D01*
X255936Y192280D01*
X534524Y200436D02*
X533212D01*
X533868D01*
Y197156D01*
X533212Y196500D01*
X532556D01*
X531900Y197156D01*
X535836Y196500D02*
X537148D01*
X536492D01*
Y200436D01*
X535836Y199780D01*
X525624Y122636D02*
X524312D01*
X524968D01*
Y119356D01*
X524312Y118700D01*
X523656D01*
X523000Y119356D01*
X526936Y121980D02*
X527592Y122636D01*
X528904D01*
X529560Y121980D01*
Y119356D01*
X528904Y118700D01*
X527592D01*
X526936Y119356D01*
Y121980D01*
X512731Y79133D02*
Y75197D01*
X514698D01*
X515354Y75853D01*
Y78477D01*
X514698Y79133D01*
X512731D01*
X516666Y75197D02*
X517978D01*
X517322D01*
Y79133D01*
X516666Y78477D01*
X511124Y98976D02*
X515060D01*
Y100944D01*
X514404Y101600D01*
X511780D01*
X511124Y100944D01*
Y98976D01*
X511780Y102912D02*
X511124Y103568D01*
Y104880D01*
X511780Y105536D01*
X514404D01*
X515060Y104880D01*
Y103568D01*
X514404Y102912D01*
X511780D01*
X397058Y179179D02*
X396402Y179835D01*
X395090D01*
X394434Y179179D01*
Y176555D01*
X395090Y175899D01*
X396402D01*
X397058Y176555D01*
X400994Y175899D02*
X398370D01*
X400994Y178523D01*
Y179179D01*
X400338Y179835D01*
X399026D01*
X398370Y179179D01*
X402306Y175899D02*
X403618D01*
X402962D01*
Y179835D01*
X402306Y179179D01*
X160624Y173123D02*
X159968Y173779D01*
X158656D01*
X158000Y173123D01*
Y170499D01*
X158656Y169843D01*
X159968D01*
X160624Y170499D01*
X164560Y169843D02*
X161936D01*
X164560Y172467D01*
Y173123D01*
X163904Y173779D01*
X162592D01*
X161936Y173123D01*
X165872D02*
X166527Y173779D01*
X167839D01*
X168495Y173123D01*
Y170499D01*
X167839Y169843D01*
X166527D01*
X165872Y170499D01*
Y173123D01*
X414893Y167279D02*
X414237Y167935D01*
X412925D01*
X412269Y167279D01*
Y164655D01*
X412925Y163999D01*
X414237D01*
X414893Y164655D01*
X416205Y163999D02*
X417517D01*
X416861D01*
Y167935D01*
X416205Y167279D01*
X419485Y164655D02*
X420141Y163999D01*
X421453D01*
X422109Y164655D01*
Y167279D01*
X421453Y167935D01*
X420141D01*
X419485Y167279D01*
Y166623D01*
X420141Y165967D01*
X422109D01*
X369106Y169314D02*
X368450Y169970D01*
X367138D01*
X366482Y169314D01*
Y166690D01*
X367138Y166034D01*
X368450D01*
X369106Y166690D01*
X370418Y166034D02*
X371730D01*
X371074D01*
Y169970D01*
X370418Y169314D01*
X373697D02*
X374353Y169970D01*
X375665D01*
X376321Y169314D01*
Y168658D01*
X375665Y168002D01*
X376321Y167346D01*
Y166690D01*
X375665Y166034D01*
X374353D01*
X373697Y166690D01*
Y167346D01*
X374353Y168002D01*
X373697Y168658D01*
Y169314D01*
X374353Y168002D02*
X375665D01*
X400153Y142231D02*
X400809Y142887D01*
Y144199D01*
X400153Y144855D01*
X397529D01*
X396873Y144199D01*
Y142887D01*
X397529Y142231D01*
X396873Y140919D02*
Y139607D01*
Y140263D01*
X400809D01*
X400153Y140919D01*
X400809Y137639D02*
Y135015D01*
X400153D01*
X397529Y137639D01*
X396873D01*
X388168Y172465D02*
X388824Y173121D01*
Y174433D01*
X388168Y175089D01*
X385544D01*
X384888Y174433D01*
Y173121D01*
X385544Y172465D01*
X384888Y171153D02*
Y169841D01*
Y170497D01*
X388824D01*
X388168Y171153D01*
X388824Y165250D02*
X388168Y166561D01*
X386856Y167873D01*
X385544D01*
X384888Y167217D01*
Y165905D01*
X385544Y165250D01*
X386200D01*
X386856Y165905D01*
Y167873D01*
X451924Y197180D02*
X451268Y197836D01*
X449956D01*
X449300Y197180D01*
Y194556D01*
X449956Y193900D01*
X451268D01*
X451924Y194556D01*
X453236Y193900D02*
X454548D01*
X453892D01*
Y197836D01*
X453236Y197180D01*
X459139Y197836D02*
X456516D01*
Y195868D01*
X457827Y196524D01*
X458483D01*
X459139Y195868D01*
Y194556D01*
X458483Y193900D01*
X457171D01*
X456516Y194556D01*
X518280Y108960D02*
X517624Y108304D01*
Y106992D01*
X518280Y106336D01*
X520904D01*
X521560Y106992D01*
Y108304D01*
X520904Y108960D01*
X521560Y110272D02*
Y111584D01*
Y110928D01*
X517624D01*
X518280Y110272D01*
X521560Y115520D02*
X517624D01*
X519592Y113552D01*
Y116176D01*
X511780Y86460D02*
X511124Y85804D01*
Y84492D01*
X511780Y83836D01*
X514404D01*
X515060Y84492D01*
Y85804D01*
X514404Y86460D01*
X515060Y87772D02*
Y89084D01*
Y88428D01*
X511124D01*
X511780Y87772D01*
Y91052D02*
X511124Y91708D01*
Y93020D01*
X511780Y93676D01*
X512436D01*
X513092Y93020D01*
Y92364D01*
Y93020D01*
X513748Y93676D01*
X514404D01*
X515060Y93020D01*
Y91708D01*
X514404Y91052D01*
X503280Y102460D02*
X502624Y101804D01*
Y100492D01*
X503280Y99836D01*
X505904D01*
X506560Y100492D01*
Y101804D01*
X505904Y102460D01*
X506560Y103772D02*
Y105084D01*
Y104428D01*
X502624D01*
X503280Y103772D01*
X506560Y109676D02*
Y107052D01*
X503936Y109676D01*
X503280D01*
X502624Y109020D01*
Y107708D01*
X503280Y107052D01*
X469059Y202087D02*
Y203015D01*
X468132Y203943D01*
X467204D01*
X465349Y202087D01*
Y201160D01*
X466276Y200232D01*
X467204D01*
X467668Y198840D02*
X468596Y197913D01*
X468132Y198377D01*
X470915Y201160D01*
X469987D01*
Y196521D02*
X470915Y195594D01*
X470451Y196057D01*
X473234Y198840D01*
X472306D01*
X469383Y128142D02*
Y129069D01*
X468455Y129997D01*
X467528D01*
X465672Y128142D01*
Y127214D01*
X466600Y126286D01*
X467528D01*
X467991Y124895D02*
X468919Y123967D01*
X468455Y124431D01*
X471238Y127214D01*
X470311D01*
X472630Y124895D02*
X473558D01*
X474485Y123967D01*
X474485Y123039D01*
X472630Y121184D01*
X471702Y121184D01*
X470775Y122112D01*
Y123039D01*
X472630Y124895D01*
X437585Y174873D02*
X436657D01*
X435730Y173946D01*
Y173018D01*
X437585Y171163D01*
X438513D01*
X439440Y172090D01*
Y173018D01*
X440368Y173946D02*
X441295D01*
X442223Y174873D01*
Y175801D01*
X440368Y177656D01*
X439440Y177656D01*
X438513Y176729D01*
Y175801D01*
X438976Y175337D01*
X439904Y175337D01*
X441295Y176729D01*
X433648Y178810D02*
X432720D01*
X431793Y177883D01*
Y176955D01*
X433648Y175100D01*
X434576D01*
X435503Y176027D01*
Y176955D01*
X434576Y179738D02*
Y180666D01*
X435503Y181593D01*
X436431Y181593D01*
X436895Y181129D01*
Y180202D01*
X437822Y180202D01*
X438286Y179738D01*
Y178810D01*
X437359Y177883D01*
X436431D01*
X435967Y178347D01*
Y179274D01*
X435039Y179274D01*
X434576Y179738D01*
X435967Y179274D02*
X436895Y180202D01*
X450971Y127235D02*
X450043D01*
X449115Y126308D01*
Y125380D01*
X450971Y123525D01*
X451898D01*
X452826Y124452D01*
Y125380D01*
X451435Y128627D02*
X453290Y130482D01*
X453754Y130018D01*
Y126308D01*
X454217Y125844D01*
X480184Y202887D02*
X479528Y202231D01*
Y200920D01*
X480184Y200264D01*
X482808D01*
X483464Y200920D01*
Y202231D01*
X482808Y202887D01*
X479528Y206823D02*
X480184Y205511D01*
X481496Y204199D01*
X482808D01*
X483464Y204855D01*
Y206167D01*
X482808Y206823D01*
X482152D01*
X481496Y206167D01*
Y204199D01*
X504856Y162336D02*
X504200Y162991D01*
X502888D01*
X502232Y162336D01*
Y159712D01*
X502888Y159056D01*
X504200D01*
X504856Y159712D01*
X508792Y162991D02*
X506168D01*
Y161024D01*
X507480Y161680D01*
X508136D01*
X508792Y161024D01*
Y159712D01*
X508136Y159056D01*
X506824D01*
X506168Y159712D01*
X433351Y76765D02*
X432695Y76109D01*
Y74797D01*
X433351Y74142D01*
X435975D01*
X436631Y74797D01*
Y76109D01*
X435975Y76765D01*
X436631Y80045D02*
X432695D01*
X434663Y78077D01*
Y80701D01*
X466781Y99985D02*
X466125Y100641D01*
X464813D01*
X464157Y99985D01*
Y97361D01*
X464813Y96705D01*
X466125D01*
X466781Y97361D01*
X468093Y99985D02*
X468749Y100641D01*
X470061D01*
X470717Y99985D01*
Y99329D01*
X470061Y98673D01*
X469405D01*
X470061D01*
X470717Y98017D01*
Y97361D01*
X470061Y96705D01*
X468749D01*
X468093Y97361D01*
X474811Y96178D02*
X474155Y95522D01*
Y94210D01*
X474811Y93554D01*
X477434D01*
X478090Y94210D01*
Y95522D01*
X477434Y96178D01*
X478090Y100113D02*
Y97490D01*
X475467Y100113D01*
X474811D01*
X474155Y99457D01*
Y98146D01*
X474811Y97490D01*
X436868Y145416D02*
X435940D01*
X435012Y144488D01*
Y143561D01*
X436868Y141705D01*
X437795D01*
X438723Y142633D01*
Y143561D01*
X440114Y144024D02*
X441042Y144952D01*
X440578Y144488D01*
X437795Y147271D01*
Y146344D01*
M02*
