G04*
G04 #@! TF.GenerationSoftware,Altium Limited,Altium Designer,26.4.1 (12)*
G04*
G04 Layer_Color=8421504*
%FSLAX25Y25*%
%MOIN*%
G70*
G04*
G04 #@! TF.SameCoordinates,4CB66505-FF6D-4B2F-AD0E-8FD1278BAE48*
G04*
G04*
G04 #@! TF.FilePolarity,Positive*
G04*
G01*
G75*
%ADD20R,0.03200X0.06700*%
%ADD21R,0.08700X0.12200*%
%ADD22R,0.03200X0.03000*%
%ADD23R,0.03150X0.00984*%
%ADD24C,0.00100*%
%ADD25C,0.01329*%
%ADD26R,0.01181X0.02165*%
%ADD27C,0.01063*%
%ADD28R,0.02756X0.01260*%
G04:AMPARAMS|DCode=29|XSize=23.62mil|YSize=21.26mil|CornerRadius=0mil|HoleSize=0mil|Usage=FLASHONLY|Rotation=315.000|XOffset=0mil|YOffset=0mil|HoleType=Round|Shape=Rectangle|*
%AMROTATEDRECTD29*
4,1,4,-0.01587,0.00084,-0.00084,0.01587,0.01587,-0.00084,0.00084,-0.01587,-0.01587,0.00084,0.0*
%
%ADD29ROTATEDRECTD29*%

G04:AMPARAMS|DCode=30|XSize=23.62mil|YSize=21.26mil|CornerRadius=0mil|HoleSize=0mil|Usage=FLASHONLY|Rotation=45.000|XOffset=0mil|YOffset=0mil|HoleType=Round|Shape=Rectangle|*
%AMROTATEDRECTD30*
4,1,4,-0.00084,-0.01587,-0.01587,-0.00084,0.00084,0.01587,0.01587,0.00084,-0.00084,-0.01587,0.0*
%
%ADD30ROTATEDRECTD30*%

%ADD31R,0.02362X0.02126*%
%ADD32R,0.02126X0.02362*%
G04:AMPARAMS|DCode=33|XSize=58.07mil|YSize=11.81mil|CornerRadius=0mil|HoleSize=0mil|Usage=FLASHONLY|Rotation=315.000|XOffset=0mil|YOffset=0mil|HoleType=Round|Shape=Rectangle|*
%AMROTATEDRECTD33*
4,1,4,-0.02471,0.01636,-0.01636,0.02471,0.02471,-0.01636,0.01636,-0.02471,-0.02471,0.01636,0.0*
%
%ADD33ROTATEDRECTD33*%

G04:AMPARAMS|DCode=34|XSize=58.07mil|YSize=11.81mil|CornerRadius=0mil|HoleSize=0mil|Usage=FLASHONLY|Rotation=45.000|XOffset=0mil|YOffset=0mil|HoleType=Round|Shape=Rectangle|*
%AMROTATEDRECTD34*
4,1,4,-0.01636,-0.02471,-0.02471,-0.01636,0.01636,0.02471,0.02471,0.01636,-0.01636,-0.02471,0.0*
%
%ADD34ROTATEDRECTD34*%

%ADD35R,0.03347X0.01181*%
%ADD36R,0.01181X0.03347*%
%ADD37R,0.01968X0.01968*%
G04:AMPARAMS|DCode=38|XSize=66.93mil|YSize=31.5mil|CornerRadius=0mil|HoleSize=0mil|Usage=FLASHONLY|Rotation=45.000|XOffset=0mil|YOffset=0mil|HoleType=Round|Shape=Rectangle|*
%AMROTATEDRECTD38*
4,1,4,-0.01253,-0.03480,-0.03480,-0.01253,0.01253,0.03480,0.03480,0.01253,-0.01253,-0.03480,0.0*
%
%ADD38ROTATEDRECTD38*%

%ADD39R,0.04700X0.03200*%
%ADD40R,0.03300X0.01600*%
%ADD41R,0.06102X0.06102*%
G04:AMPARAMS|DCode=42|XSize=53.94mil|YSize=107.09mil|CornerRadius=6.74mil|HoleSize=0mil|Usage=FLASHONLY|Rotation=90.000|XOffset=0mil|YOffset=0mil|HoleType=Round|Shape=RoundedRectangle|*
%AMROUNDEDRECTD42*
21,1,0.05394,0.09360,0,0,90.0*
21,1,0.04045,0.10709,0,0,90.0*
1,1,0.01348,0.04680,0.02023*
1,1,0.01348,0.04680,-0.02023*
1,1,0.01348,-0.04680,-0.02023*
1,1,0.01348,-0.04680,0.02023*
%
%ADD42ROUNDEDRECTD42*%
%ADD43R,0.00787X0.03150*%
%ADD44R,0.03150X0.00787*%
%ADD45R,0.07087X0.07087*%
G04:AMPARAMS|DCode=46|XSize=53.94mil|YSize=107.09mil|CornerRadius=6.74mil|HoleSize=0mil|Usage=FLASHONLY|Rotation=180.000|XOffset=0mil|YOffset=0mil|HoleType=Round|Shape=RoundedRectangle|*
%AMROUNDEDRECTD46*
21,1,0.05394,0.09360,0,0,180.0*
21,1,0.04045,0.10709,0,0,180.0*
1,1,0.01348,-0.02023,0.04680*
1,1,0.01348,0.02023,0.04680*
1,1,0.01348,0.02023,-0.04680*
1,1,0.01348,-0.02023,-0.04680*
%
%ADD46ROUNDEDRECTD46*%
%ADD47R,0.05807X0.01772*%
%ADD48R,0.01968X0.01968*%
G04:AMPARAMS|DCode=49|XSize=43.31mil|YSize=58.27mil|CornerRadius=5.41mil|HoleSize=0mil|Usage=FLASHONLY|Rotation=90.000|XOffset=0mil|YOffset=0mil|HoleType=Round|Shape=RoundedRectangle|*
%AMROUNDEDRECTD49*
21,1,0.04331,0.04744,0,0,90.0*
21,1,0.03248,0.05827,0,0,90.0*
1,1,0.01083,0.02372,0.01624*
1,1,0.01083,0.02372,-0.01624*
1,1,0.01083,-0.02372,-0.01624*
1,1,0.01083,-0.02372,0.01624*
%
%ADD49ROUNDEDRECTD49*%
%ADD50R,0.04700X0.03000*%
%ADD51R,0.02756X0.01654*%
%ADD52R,0.05100X0.03500*%
%ADD53R,0.12200X0.08700*%
%ADD54R,0.03000X0.03200*%
%ADD55R,0.15748X0.03937*%
%ADD56R,0.04700X0.02800*%
G36*
X457561Y96539D02*
Y95752D01*
X457954Y95358D01*
X460809D01*
X461005Y95161D01*
Y94571D01*
X460809Y94374D01*
X456380Y94374D01*
X456183Y94571D01*
Y96539D01*
X456380Y96736D01*
X457364D01*
X457561Y96539D01*
D02*
G37*
G36*
X451261D02*
Y94571D01*
X451065Y94374D01*
X446635Y94374D01*
X446439Y94571D01*
Y95161D01*
X446635Y95358D01*
X449490D01*
X449884Y95752D01*
Y96539D01*
X450080Y96736D01*
X451065D01*
X451261Y96539D01*
D02*
G37*
G36*
X461005Y93193D02*
Y92602D01*
X460809Y92405D01*
X459628D01*
X459431Y92209D01*
Y91618D01*
X459628Y91421D01*
X460809D01*
X461005Y91224D01*
Y90634D01*
X460809Y90437D01*
X456478D01*
X456281Y90634D01*
Y93193D01*
X456478Y93390D01*
X460809D01*
X461005Y93193D01*
D02*
G37*
G36*
X451456Y89258D02*
Y88569D01*
X451260Y88372D01*
X446633D01*
X446437Y88569D01*
Y89258D01*
X446633Y89455D01*
X451260D01*
X451456Y89258D01*
D02*
G37*
G36*
X453230Y93392D02*
Y88569D01*
X453033Y88372D01*
X452443D01*
X452246Y88569D01*
Y93392D01*
X452443Y93589D01*
X453033D01*
X453230Y93392D01*
D02*
G37*
G36*
X461005Y84768D02*
Y84177D01*
X460809Y83980D01*
X459431D01*
X459234Y84177D01*
Y84768D01*
X459431Y84965D01*
X460809D01*
X461005Y84768D01*
D02*
G37*
G36*
X448210D02*
Y84177D01*
X448013Y83980D01*
X446635D01*
X446439Y84177D01*
Y84768D01*
X446635Y84965D01*
X448013D01*
X448210Y84768D01*
D02*
G37*
G36*
X461005Y82799D02*
Y82209D01*
X460809Y82012D01*
X459431D01*
X459234Y82209D01*
Y82799D01*
X459431Y82996D01*
X460809D01*
X461005Y82799D01*
D02*
G37*
G36*
X448210D02*
Y82209D01*
X448013Y82012D01*
X446635D01*
X446439Y82209D01*
Y82799D01*
X446635Y82996D01*
X448013D01*
X448210Y82799D01*
D02*
G37*
G36*
X461005Y80831D02*
Y80240D01*
X460809Y80043D01*
X459431D01*
X459234Y80240D01*
Y80831D01*
X459431Y81028D01*
X460809D01*
X461005Y80831D01*
D02*
G37*
G36*
X448210D02*
Y80240D01*
X448013Y80043D01*
X446635D01*
X446439Y80240D01*
Y80831D01*
X446635Y81028D01*
X448013D01*
X448210Y80831D01*
D02*
G37*
G36*
X458448Y86291D02*
Y79323D01*
X458252Y79126D01*
X455791D01*
X455594Y79323D01*
Y86291D01*
X455791Y86488D01*
X458252D01*
X458448Y86291D01*
D02*
G37*
G36*
X451850D02*
Y79323D01*
X451653Y79126D01*
X449192D01*
X448996Y79323D01*
Y86291D01*
X449192Y86488D01*
X451653D01*
X451850Y86291D01*
D02*
G37*
D20*
X400000Y204331D02*
D03*
X395079D02*
D03*
X357677D02*
D03*
X352756D02*
D03*
X314272Y204707D02*
D03*
X309350D02*
D03*
D21*
X385039Y215748D02*
D03*
X410039D02*
D03*
X342717D02*
D03*
X367717D02*
D03*
X299311Y216124D02*
D03*
X324311D02*
D03*
D22*
X433943Y91306D02*
D03*
Y85206D02*
D03*
X201138Y79092D02*
D03*
X35783Y174178D02*
D03*
X458268Y106200D02*
D03*
X501092Y83706D02*
D03*
X440945Y98326D02*
D03*
X507592Y83706D02*
D03*
X201138Y85192D02*
D03*
X35783Y180278D02*
D03*
X194138Y85192D02*
D03*
X28784Y180278D02*
D03*
X490945Y196357D02*
D03*
X507592Y89806D02*
D03*
X194138Y79092D02*
D03*
X28784Y174178D02*
D03*
X490945Y190257D02*
D03*
X458268Y100100D02*
D03*
X440945Y92226D02*
D03*
X501092Y89806D02*
D03*
D23*
X448013Y92898D02*
D03*
Y90929D02*
D03*
D24*
X452468Y89187D02*
D03*
D25*
X456921Y95112D02*
D03*
D26*
X452836Y95653D02*
D03*
D27*
X450572Y96146D02*
D03*
D28*
X493150Y219803D02*
D03*
Y217323D02*
D03*
X499213Y214843D02*
D03*
Y217323D02*
D03*
X493150Y214843D02*
D03*
X499213Y219803D02*
D03*
X479921D02*
D03*
Y217323D02*
D03*
X485984Y214843D02*
D03*
Y217323D02*
D03*
X479921Y214843D02*
D03*
X485984Y219803D02*
D03*
X465984Y217323D02*
D03*
X472047Y214843D02*
D03*
Y217323D02*
D03*
X465984Y214843D02*
D03*
Y219803D02*
D03*
X472047Y219803D02*
D03*
D29*
X439354Y182661D02*
D03*
X441748Y185055D02*
D03*
X443291Y178724D02*
D03*
X445685Y181118D02*
D03*
X444110Y150410D02*
D03*
X441716Y148015D02*
D03*
X459068Y133845D02*
D03*
X456674Y131451D02*
D03*
D30*
X476410Y192488D02*
D03*
X474016Y194882D02*
D03*
X464977Y130693D02*
D03*
X462582Y133087D02*
D03*
X452078Y187939D02*
D03*
X410252Y168094D02*
D03*
X407858Y170488D02*
D03*
X454472Y185545D02*
D03*
D31*
X481496Y194370D02*
D03*
Y197756D02*
D03*
X475902Y90861D02*
D03*
Y87475D02*
D03*
X519372Y89398D02*
D03*
Y102784D02*
D03*
X386902Y158309D02*
D03*
X160067Y165124D02*
D03*
X201138Y50449D02*
D03*
X194638D02*
D03*
X35783Y145535D02*
D03*
X29283D02*
D03*
X160067Y161738D02*
D03*
X386902Y161695D02*
D03*
X398902Y147774D02*
D03*
X398902Y151159D02*
D03*
X194638Y53835D02*
D03*
X29283Y148921D02*
D03*
X201138Y53835D02*
D03*
X35783Y148921D02*
D03*
X519372Y99398D02*
D03*
Y92783D02*
D03*
D32*
X503908Y155629D02*
D03*
X507294D02*
D03*
X506565Y96091D02*
D03*
X398709Y172967D02*
D03*
X402095Y172966D02*
D03*
X503179Y96091D02*
D03*
D33*
X466003Y187733D02*
D03*
X464611Y186341D02*
D03*
X463219Y184949D02*
D03*
X461827Y183557D02*
D03*
X460435Y182165D02*
D03*
X459044Y180773D02*
D03*
X457652Y179381D02*
D03*
X456260Y177989D02*
D03*
X450692Y172422D02*
D03*
X478464Y136298D02*
D03*
X479856Y137690D02*
D03*
X481248Y139082D02*
D03*
X482640Y140474D02*
D03*
X484032Y141866D02*
D03*
X485424Y143257D02*
D03*
X486816Y144650D02*
D03*
X488207Y146041D02*
D03*
X489599Y147433D02*
D03*
X490991Y148825D02*
D03*
X492383Y150217D02*
D03*
X493775Y151609D02*
D03*
X495167Y153001D02*
D03*
X496559Y154393D02*
D03*
X453476Y175205D02*
D03*
X467395Y189125D02*
D03*
X499343Y157177D02*
D03*
X446516Y168246D02*
D03*
X449300Y171030D02*
D03*
X454868Y176597D02*
D03*
X447908Y169638D02*
D03*
X452084Y173813D02*
D03*
X497951Y155785D02*
D03*
D34*
X450692Y153001D02*
D03*
X456260Y147433D02*
D03*
X457652Y146041D02*
D03*
X461827Y141866D02*
D03*
X464611Y139082D02*
D03*
X499343Y168246D02*
D03*
X497951Y169638D02*
D03*
X496559Y171030D02*
D03*
X495167Y172422D02*
D03*
X493775Y173813D02*
D03*
X492383Y175205D02*
D03*
X489599Y177989D02*
D03*
X488207Y179381D02*
D03*
X486816Y180773D02*
D03*
X485424Y182165D02*
D03*
X484032Y183557D02*
D03*
X482640Y184949D02*
D03*
X481248Y186341D02*
D03*
X453476Y150217D02*
D03*
X446516Y157177D02*
D03*
X449300Y154393D02*
D03*
X467395Y136298D02*
D03*
X478464Y189125D02*
D03*
X459044Y144650D02*
D03*
X460435Y143257D02*
D03*
X490991Y176597D02*
D03*
X463219Y140474D02*
D03*
X452084Y151609D02*
D03*
X454868Y148825D02*
D03*
X447908Y155785D02*
D03*
X466003Y137690D02*
D03*
X479856Y187733D02*
D03*
D35*
X485954Y94090D02*
D03*
Y98027D02*
D03*
Y96059D02*
D03*
X497372Y98027D02*
D03*
Y96059D02*
D03*
Y94090D02*
D03*
D36*
X489694Y101768D02*
D03*
X493632D02*
D03*
X489694Y90350D02*
D03*
X491663Y101768D02*
D03*
X493632Y90350D02*
D03*
X491663D02*
D03*
D37*
X200787Y72441D02*
D03*
X35433Y167528D02*
D03*
X32283D02*
D03*
Y154929D02*
D03*
X197638Y72441D02*
D03*
Y59842D02*
D03*
X200787D02*
D03*
X194488D02*
D03*
X35433Y154929D02*
D03*
X29134D02*
D03*
Y167528D02*
D03*
X194488Y72441D02*
D03*
D38*
X542520Y211811D02*
D03*
X533054Y221276D02*
D03*
D39*
X528425Y106417D02*
D03*
X528426Y84764D02*
D03*
D40*
X519291Y85121D02*
D03*
Y81021D02*
D03*
D41*
X491663Y96059D02*
D03*
D42*
X467717Y81417D02*
D03*
Y92598D02*
D03*
D43*
X398976Y167466D02*
D03*
X397402D02*
D03*
X400551D02*
D03*
X402126D02*
D03*
X403701D02*
D03*
X403701Y155655D02*
D03*
X402126D02*
D03*
X400551D02*
D03*
X398976Y155655D02*
D03*
X397402Y155655D02*
D03*
D44*
X406457Y163136D02*
D03*
X406457Y161561D02*
D03*
X394646Y158411D02*
D03*
X394646Y159986D02*
D03*
Y161561D02*
D03*
Y163136D02*
D03*
Y164710D02*
D03*
X406457D02*
D03*
X406457Y159986D02*
D03*
Y158411D02*
D03*
D45*
X400551Y161561D02*
D03*
D46*
X369811Y159002D02*
D03*
X380992D02*
D03*
D47*
X154043Y166049D02*
D03*
Y168608D02*
D03*
Y163490D02*
D03*
Y160931D02*
D03*
Y158372D02*
D03*
Y155813D02*
D03*
Y153254D02*
D03*
X130909D02*
D03*
Y155813D02*
D03*
Y158372D02*
D03*
Y160931D02*
D03*
Y163490D02*
D03*
Y166049D02*
D03*
Y168608D02*
D03*
D48*
X29134Y164378D02*
D03*
Y161228D02*
D03*
Y158079D02*
D03*
X194488Y69291D02*
D03*
Y66142D02*
D03*
Y62992D02*
D03*
X35433Y158079D02*
D03*
Y161228D02*
D03*
Y164378D02*
D03*
X200787Y62992D02*
D03*
Y66142D02*
D03*
Y69291D02*
D03*
D49*
X440942Y73654D02*
D03*
Y80858D02*
D03*
D50*
X528425Y101575D02*
D03*
X528426Y89607D02*
D03*
D51*
X519226Y96091D02*
D03*
X513517D02*
D03*
D52*
X269669Y165551D02*
D03*
Y160630D02*
D03*
Y155709D02*
D03*
D53*
X258842Y145669D02*
D03*
Y175591D02*
D03*
D54*
X501869Y187008D02*
D03*
X495769D02*
D03*
D55*
X545276Y158268D02*
D03*
Y166142D02*
D03*
Y189764D02*
D03*
Y181890D02*
D03*
Y174016D02*
D03*
D56*
X528425Y97559D02*
D03*
Y93622D02*
D03*
M02*
