G04*
G04 #@! TF.GenerationSoftware,Altium Limited,Altium Designer,26.4.1 (12)*
G04*
G04 Layer_Color=32896*
%FSLAX25Y25*%
%MOIN*%
G70*
G04*
G04 #@! TF.SameCoordinates,D9574204-A45F-46DF-8F85-D7358342533D*
G04*
G04*
G04 #@! TF.FilePolarity,Positive*
G04*
G01*
G75*
%ADD10C,0.02000*%
%ADD12C,0.00787*%
%ADD17C,0.01000*%
%ADD18C,0.00600*%
%ADD19C,0.00602*%
G36*
X57087Y123622D02*
X53934Y120470D01*
X47757Y126647D01*
X50909Y129800D01*
X57087Y123622D01*
D02*
G37*
G36*
X50000Y116535D02*
X46848Y113383D01*
X40536Y119695D01*
X43688Y122847D01*
X50000Y116535D01*
D02*
G37*
G36*
X53543Y120079D02*
X50391Y116926D01*
X42126Y125191D01*
X45279Y128343D01*
X53543Y120079D01*
D02*
G37*
G36*
X60630Y127165D02*
X57478Y124013D01*
X51219Y130271D01*
X54372Y133423D01*
X60630Y127165D01*
D02*
G37*
G36*
X64173Y130709D02*
X61021Y127556D01*
X54740Y133837D01*
X57893Y136989D01*
X64173Y130709D01*
D02*
G37*
%LPC*%
G36*
X50927Y128522D02*
X50902Y128520D01*
X50875Y128516D01*
X50840Y128511D01*
X50802Y128504D01*
X50761Y128495D01*
X50717Y128482D01*
X50670Y128462D01*
X50621Y128444D01*
X50571Y128417D01*
X50518Y128386D01*
X50464Y128350D01*
X50413Y128308D01*
X50361Y128261D01*
X50359Y128259D01*
X50353Y128252D01*
X50344Y128243D01*
X50330Y128225D01*
X50314Y128209D01*
X50297Y128187D01*
X50261Y128138D01*
X50221Y128075D01*
X50187Y128006D01*
X50160Y127930D01*
X50149Y127892D01*
X50145Y127852D01*
X50142Y127850D01*
X50145Y127843D01*
Y127816D01*
X50142Y127774D01*
X50149Y127718D01*
X50158Y127655D01*
X50176Y127584D01*
X50203Y127508D01*
X50241Y127429D01*
X50225Y127414D01*
X50223Y127416D01*
X50214Y127421D01*
X50200Y127429D01*
X50183Y127438D01*
X50163Y127450D01*
X50136Y127463D01*
X50073Y127490D01*
X49999Y127515D01*
X49917Y127539D01*
X49830Y127555D01*
X49738Y127557D01*
X49733D01*
X49727Y127555D01*
X49713D01*
X49698Y127552D01*
X49675Y127548D01*
X49649Y127543D01*
X49617Y127535D01*
X49586Y127526D01*
X49553Y127510D01*
X49515Y127494D01*
X49474Y127477D01*
X49432Y127452D01*
X49392Y127425D01*
X49347Y127394D01*
X49307Y127358D01*
X49262Y127318D01*
X49240Y127295D01*
X49229Y127280D01*
X49215Y127266D01*
X49184Y127231D01*
X49150Y127184D01*
X49115Y127135D01*
X49081Y127079D01*
X49052Y127018D01*
X49050Y127016D01*
Y127012D01*
X49045Y127003D01*
X49041Y126989D01*
X49030Y126960D01*
X49016Y126916D01*
X49003Y126866D01*
X48992Y126811D01*
X48985Y126750D01*
X48981Y126688D01*
Y126679D01*
X48983Y126659D01*
Y126627D01*
X48987Y126583D01*
X48996Y126533D01*
X49010Y126475D01*
X49027Y126417D01*
X49050Y126355D01*
X49052Y126353D01*
Y126348D01*
X49057Y126339D01*
X49063Y126328D01*
X49081Y126297D01*
X49103Y126257D01*
X49132Y126209D01*
X49168Y126160D01*
X49213Y126107D01*
X49262Y126053D01*
X50122Y125193D01*
X52364Y127434D01*
X51561Y128236D01*
X51537Y128256D01*
X51510Y128279D01*
X51476Y128303D01*
X51438Y128332D01*
X51396Y128361D01*
X51349Y128390D01*
X51302Y128419D01*
X51249Y128446D01*
X51195Y128469D01*
X51137Y128491D01*
X51079Y128504D01*
X51021Y128518D01*
X50958Y128522D01*
X50954D01*
X50945D01*
X50927D01*
D02*
G37*
G36*
X52898Y126583D02*
X52855Y126580D01*
X52808Y126578D01*
X52752Y126572D01*
X52694Y126563D01*
X52636Y126549D01*
X52629Y126547D01*
X52609Y126540D01*
X52578Y126531D01*
X52538Y126518D01*
X52491Y126502D01*
X52439Y126482D01*
X52384Y126458D01*
X52330Y126431D01*
X52544Y125997D01*
X52551Y125999D01*
X52562Y126006D01*
X52583Y126013D01*
X52607Y126024D01*
X52638Y126038D01*
X52670Y126051D01*
X52741Y126078D01*
X52746D01*
X52757Y126084D01*
X52779Y126089D01*
X52804Y126096D01*
X52833Y126102D01*
X52866Y126109D01*
X52938Y126118D01*
X52942D01*
X52956D01*
X52974D01*
X52998Y126116D01*
X53029Y126111D01*
X53061Y126107D01*
X53096Y126098D01*
X53132Y126084D01*
X53137D01*
X53148Y126078D01*
X53166Y126069D01*
X53193Y126055D01*
X53219Y126038D01*
X53251Y126015D01*
X53284Y125986D01*
X53320Y125955D01*
X53331Y125944D01*
X53340Y125930D01*
X53356Y125915D01*
X53373Y125892D01*
X53391Y125865D01*
X53409Y125834D01*
X53427Y125803D01*
X53445Y125763D01*
X53461Y125725D01*
X53474Y125680D01*
X53483Y125635D01*
X53490Y125588D01*
X53492Y125537D01*
X53487Y125483D01*
X53476Y125432D01*
X53474Y125430D01*
X53472Y125418D01*
X53467Y125405D01*
X53458Y125383D01*
X53449Y125356D01*
X53436Y125325D01*
X53420Y125291D01*
X53398Y125251D01*
X53373Y125208D01*
X53347Y125164D01*
X53315Y125115D01*
X53280Y125061D01*
X53239Y125007D01*
X53195Y124954D01*
X53143Y124898D01*
X53090Y124840D01*
X52734Y124485D01*
X52732Y124482D01*
X52728Y124478D01*
X52719Y124469D01*
X52708Y124458D01*
X52694Y124444D01*
X52676Y124431D01*
X52638Y124393D01*
X52594Y124353D01*
X52540Y124308D01*
X52484Y124266D01*
X52428Y124223D01*
X52426Y124221D01*
X52422D01*
X52415Y124214D01*
X52402Y124205D01*
X52375Y124187D01*
X52334Y124165D01*
X52292Y124140D01*
X52243Y124118D01*
X52189Y124096D01*
X52136Y124078D01*
X52129Y124076D01*
X52111Y124071D01*
X52082Y124069D01*
X52046Y124065D01*
X52002Y124060D01*
X51957D01*
X51905Y124062D01*
X51854Y124073D01*
X51847Y124076D01*
X51832Y124082D01*
X51805Y124091D01*
X51771Y124107D01*
X51731Y124129D01*
X51687Y124156D01*
X51642Y124192D01*
X51597Y124232D01*
X51579Y124250D01*
X51566Y124268D01*
X51552Y124286D01*
X51537Y124306D01*
X51501Y124359D01*
X51468Y124420D01*
X51436Y124491D01*
X51425Y124529D01*
X51418Y124567D01*
X51414Y124607D01*
Y124648D01*
Y124652D01*
Y124657D01*
X51416Y124668D01*
X51418Y124683D01*
X51423Y124706D01*
X51427Y124728D01*
X51434Y124753D01*
X51441Y124782D01*
X51468Y124844D01*
X51501Y124914D01*
X51548Y124983D01*
X51575Y125019D01*
X51608Y125052D01*
X51812Y125255D01*
X52245Y124822D01*
X52515Y125092D01*
X51753Y125854D01*
X50607Y124708D01*
X50936Y124380D01*
X51242Y124686D01*
X51264Y124663D01*
Y124659D01*
X51257Y124648D01*
X51251Y124627D01*
X51244Y124603D01*
X51233Y124574D01*
X51224Y124538D01*
X51204Y124464D01*
Y124460D01*
X51199Y124447D01*
X51197Y124426D01*
X51193Y124400D01*
Y124368D01*
X51190Y124330D01*
X51188Y124292D01*
X51193Y124252D01*
Y124248D01*
X51197Y124234D01*
X51199Y124214D01*
X51206Y124185D01*
X51215Y124154D01*
X51226Y124116D01*
X51242Y124078D01*
X51260Y124038D01*
X51262Y124031D01*
X51271Y124018D01*
X51282Y123997D01*
X51302Y123968D01*
X51322Y123935D01*
X51351Y123897D01*
X51385Y123859D01*
X51423Y123816D01*
X51438Y123801D01*
X51459Y123785D01*
X51485Y123763D01*
X51519Y123738D01*
X51559Y123711D01*
X51604Y123685D01*
X51657Y123658D01*
X51715Y123631D01*
X51780Y123606D01*
X51845Y123586D01*
X51919Y123571D01*
X51995Y123562D01*
X52075D01*
X52160Y123571D01*
X52247Y123586D01*
X52254Y123589D01*
X52267Y123593D01*
X52294Y123602D01*
X52330Y123615D01*
X52375Y123633D01*
X52426Y123653D01*
X52486Y123682D01*
X52553Y123718D01*
X52627Y123756D01*
X52705Y123803D01*
X52790Y123857D01*
X52880Y123919D01*
X52974Y123991D01*
X53070Y124069D01*
X53168Y124158D01*
X53268Y124254D01*
X53306Y124292D01*
X53320Y124310D01*
X53340Y124330D01*
X53360Y124351D01*
X53403Y124402D01*
X53454Y124462D01*
X53508Y124529D01*
X53566Y124601D01*
X53624Y124681D01*
X53682Y124766D01*
X53740Y124855D01*
X53791Y124947D01*
X53841Y125041D01*
X53883Y125137D01*
X53914Y125231D01*
X53939Y125327D01*
X53941Y125334D01*
X53943Y125349D01*
X53945Y125378D01*
X53948Y125412D01*
X53950Y125459D01*
X53948Y125510D01*
X53943Y125568D01*
X53936Y125633D01*
X53925Y125702D01*
X53905Y125776D01*
X53878Y125852D01*
X53847Y125933D01*
X53805Y126011D01*
X53756Y126091D01*
X53695Y126174D01*
X53622Y126252D01*
X53595Y126279D01*
X53577Y126292D01*
X53561Y126308D01*
X53519Y126341D01*
X53470Y126382D01*
X53412Y126422D01*
X53351Y126460D01*
X53289Y126491D01*
X53286Y126493D01*
X53280Y126496D01*
X53273Y126498D01*
X53259Y126502D01*
X53226Y126518D01*
X53184Y126533D01*
X53132Y126549D01*
X53079Y126563D01*
X53018Y126574D01*
X52958Y126580D01*
X52949D01*
X52929Y126583D01*
X52898D01*
D02*
G37*
G36*
X54701Y124730D02*
X54690Y124728D01*
X54672D01*
X54645Y124724D01*
X54614Y124719D01*
X54578Y124710D01*
X54538Y124701D01*
X54491Y124686D01*
X54441Y124668D01*
X54390Y124648D01*
X54337Y124621D01*
X54278Y124590D01*
X54220Y124554D01*
X54160Y124511D01*
X54102Y124462D01*
X54042Y124406D01*
X54039Y124404D01*
X54030Y124395D01*
X54017Y124382D01*
X54001Y124362D01*
X53981Y124337D01*
X53959Y124310D01*
X53934Y124277D01*
X53908Y124241D01*
X53856Y124158D01*
X53807Y124065D01*
X53785Y124015D01*
X53767Y123966D01*
X53753Y123913D01*
X53742Y123857D01*
Y123852D01*
Y123843D01*
X53740Y123828D01*
X53738Y123808D01*
Y123781D01*
X53740Y123752D01*
X53744Y123716D01*
X53747Y123678D01*
X53753Y123635D01*
X53762Y123591D01*
X53776Y123546D01*
X53791Y123495D01*
X53811Y123448D01*
X53836Y123396D01*
X53865Y123345D01*
X53899Y123294D01*
X52444Y122871D01*
X52842Y122474D01*
X54225Y122905D01*
X54522Y122608D01*
X53615Y121700D01*
X53972Y121343D01*
X56213Y123584D01*
X55362Y124435D01*
X55342Y124451D01*
X55320Y124473D01*
X55291Y124498D01*
X55255Y124525D01*
X55215Y124552D01*
X55172Y124581D01*
X55123Y124612D01*
X55069Y124639D01*
X55016Y124665D01*
X54958Y124688D01*
X54897Y124708D01*
X54835Y124721D01*
X54770Y124728D01*
X54705Y124730D01*
X54701D01*
D02*
G37*
%LPD*%
G36*
X51063Y128046D02*
X51070Y128044D01*
X51090Y128042D01*
X51121Y128033D01*
X51161Y128015D01*
X51210Y127993D01*
X51264Y127957D01*
X51324Y127914D01*
X51387Y127856D01*
X51733Y127510D01*
X51047Y126824D01*
X50672Y127199D01*
X50661Y127215D01*
X50647Y127233D01*
X50614Y127275D01*
X50578Y127324D01*
X50547Y127378D01*
X50522Y127434D01*
X50509Y127492D01*
X50507Y127499D01*
X50509Y127519D01*
Y127550D01*
X50516Y127588D01*
X50531Y127635D01*
X50554Y127689D01*
X50589Y127742D01*
X50639Y127801D01*
X50755Y127917D01*
X50757Y127919D01*
X50761Y127923D01*
X50770Y127932D01*
X50782Y127939D01*
X50810Y127964D01*
X50851Y127990D01*
X50898Y128015D01*
X50949Y128035D01*
X51005Y128046D01*
X51063D01*
D02*
G37*
G36*
X50004Y127161D02*
X50037Y127159D01*
X50044Y127157D01*
X50067Y127153D01*
X50100Y127141D01*
X50145Y127128D01*
X50198Y127101D01*
X50256Y127065D01*
X50321Y127018D01*
X50386Y126958D01*
X50784Y126560D01*
X50046Y125823D01*
X49631Y126239D01*
X49622Y126252D01*
X49606Y126268D01*
X49591Y126288D01*
X49557Y126330D01*
X49521Y126384D01*
X49488Y126444D01*
X49463Y126505D01*
X49448Y126569D01*
X49445Y126572D01*
X49448Y126578D01*
X49445Y126598D01*
X49448Y126632D01*
X49457Y126676D01*
X49470Y126726D01*
X49497Y126784D01*
X49535Y126844D01*
X49557Y126875D01*
X49586Y126904D01*
X49700Y127018D01*
X49702Y127021D01*
X49707Y127025D01*
X49716Y127034D01*
X49729Y127043D01*
X49742Y127056D01*
X49760Y127070D01*
X49803Y127099D01*
X49856Y127126D01*
X49912Y127146D01*
X49973Y127161D01*
X50004D01*
D02*
G37*
G36*
X54830Y124225D02*
X54886Y124219D01*
X54942Y124198D01*
X55002Y124170D01*
X55065Y124125D01*
X55128Y124071D01*
X55556Y123642D01*
X54810Y122896D01*
X54368Y123338D01*
X54352Y123358D01*
X54334Y123381D01*
X54312Y123412D01*
X54292Y123445D01*
X54269Y123486D01*
X54252Y123530D01*
X54236Y123577D01*
X54225Y123629D01*
X54223Y123680D01*
X54225Y123736D01*
X54240Y123792D01*
X54263Y123850D01*
X54301Y123906D01*
X54350Y123964D01*
X54486Y124100D01*
X54491Y124105D01*
X54500Y124114D01*
X54518Y124127D01*
X54538Y124143D01*
X54569Y124161D01*
X54600Y124178D01*
X54640Y124196D01*
X54683Y124212D01*
X54728Y124221D01*
X54779Y124228D01*
X54830Y124225D01*
D02*
G37*
%LPC*%
G36*
X43163Y121487D02*
X43156Y121480D01*
D01*
X43163Y121487D01*
D02*
G37*
G36*
X43664Y121492D02*
X43572Y121480D01*
X43567D01*
X43550Y121476D01*
X43523Y121471D01*
X43485Y121460D01*
X43440Y121447D01*
X43389Y121427D01*
X43324Y121402D01*
X43255Y121373D01*
X43181Y121335D01*
X43098Y121293D01*
X43016Y121241D01*
X42922Y121183D01*
X42830Y121114D01*
X42732Y121038D01*
X42631Y120951D01*
X42529Y120852D01*
X42491Y120814D01*
X42477Y120797D01*
X42461Y120781D01*
X42441Y120761D01*
X42399Y120709D01*
X42350Y120651D01*
X42298Y120587D01*
X42245Y120515D01*
X42189Y120437D01*
X42135Y120356D01*
X42079Y120269D01*
X42030Y120180D01*
X41988Y120088D01*
X41950Y119997D01*
X41921Y119901D01*
X41901Y119809D01*
Y119804D01*
X41898Y119789D01*
X41896Y119760D01*
X41894Y119726D01*
X41896Y119684D01*
X41898Y119632D01*
X41905Y119572D01*
X41916Y119512D01*
X41932Y119442D01*
X41952Y119369D01*
X41979Y119293D01*
X42017Y119214D01*
X42061Y119134D01*
X42113Y119051D01*
X42178Y118969D01*
X42254Y118888D01*
X42922Y118220D01*
X45163Y120461D01*
X44475Y121150D01*
X44452Y121168D01*
X44419Y121196D01*
X44379Y121228D01*
X44332Y121261D01*
X44278Y121297D01*
X44218Y121335D01*
X44151Y121371D01*
X44082Y121404D01*
X44003Y121433D01*
X43923Y121460D01*
X43838Y121478D01*
X43753Y121487D01*
X43664Y121492D01*
D02*
G37*
G36*
X42969Y121293D02*
X42937Y121261D01*
D01*
X42969Y121293D01*
D02*
G37*
G36*
X41458Y119684D02*
X41501Y119641D01*
D01*
X41458Y119684D01*
D02*
G37*
G36*
X41601Y119541D02*
X41630Y119512D01*
D01*
X41601Y119541D01*
D02*
G37*
G36*
X41653Y119489D02*
X41697Y119445D01*
D01*
X41653Y119489D01*
D02*
G37*
G36*
X45657Y119968D02*
X43416Y117726D01*
X43878Y117264D01*
X46258Y118330D01*
X46287Y118301D01*
X44564Y116578D01*
X44879Y116263D01*
X47120Y118504D01*
X46658Y118966D01*
X44276Y117898D01*
X44247Y117928D01*
X45972Y119652D01*
X45657Y119968D01*
D02*
G37*
G36*
X47619Y117688D02*
X47576Y117686D01*
X47529Y117684D01*
X47473Y117677D01*
X47415Y117668D01*
X47357Y117655D01*
X47350Y117653D01*
X47330Y117646D01*
X47299Y117637D01*
X47259Y117624D01*
X47212Y117608D01*
X47161Y117588D01*
X47105Y117563D01*
X47051Y117536D01*
X47266Y117103D01*
X47272Y117105D01*
X47283Y117112D01*
X47304Y117119D01*
X47328Y117130D01*
X47359Y117143D01*
X47391Y117157D01*
X47462Y117183D01*
X47467D01*
X47478Y117190D01*
X47500Y117195D01*
X47525Y117201D01*
X47554Y117208D01*
X47587Y117215D01*
X47659Y117224D01*
X47663D01*
X47677D01*
X47695D01*
X47719Y117221D01*
X47750Y117217D01*
X47782Y117212D01*
X47818Y117203D01*
X47853Y117190D01*
X47858D01*
X47869Y117183D01*
X47887Y117174D01*
X47914Y117161D01*
X47940Y117143D01*
X47972Y117121D01*
X48005Y117092D01*
X48041Y117060D01*
X48052Y117049D01*
X48061Y117036D01*
X48077Y117020D01*
X48094Y116998D01*
X48112Y116971D01*
X48130Y116940D01*
X48148Y116909D01*
X48166Y116868D01*
X48182Y116830D01*
X48195Y116786D01*
X48204Y116741D01*
X48211Y116694D01*
X48213Y116643D01*
X48208Y116589D01*
X48197Y116538D01*
X48195Y116535D01*
X48193Y116524D01*
X48188Y116511D01*
X48179Y116489D01*
X48171Y116462D01*
X48157Y116430D01*
X48142Y116397D01*
X48119Y116357D01*
X48094Y116314D01*
X48068Y116270D01*
X48036Y116220D01*
X48001Y116167D01*
X47960Y116113D01*
X47916Y116060D01*
X47864Y116004D01*
X47811Y115945D01*
X47455Y115590D01*
X47453Y115588D01*
X47449Y115584D01*
X47440Y115575D01*
X47429Y115563D01*
X47415Y115550D01*
X47397Y115537D01*
X47359Y115499D01*
X47315Y115458D01*
X47261Y115414D01*
X47205Y115371D01*
X47149Y115329D01*
X47147Y115327D01*
X47143D01*
X47136Y115320D01*
X47122Y115311D01*
X47096Y115293D01*
X47056Y115271D01*
X47013Y115246D01*
X46964Y115224D01*
X46910Y115201D01*
X46857Y115184D01*
X46850Y115181D01*
X46832Y115177D01*
X46803Y115175D01*
X46767Y115170D01*
X46723Y115166D01*
X46678D01*
X46626Y115168D01*
X46575Y115179D01*
X46568Y115181D01*
X46553Y115188D01*
X46526Y115197D01*
X46492Y115213D01*
X46452Y115235D01*
X46407Y115262D01*
X46363Y115297D01*
X46318Y115338D01*
X46300Y115356D01*
X46287Y115374D01*
X46273Y115391D01*
X46258Y115411D01*
X46222Y115465D01*
X46189Y115525D01*
X46157Y115597D01*
X46146Y115635D01*
X46139Y115673D01*
X46135Y115713D01*
Y115753D01*
Y115758D01*
Y115762D01*
X46137Y115773D01*
X46139Y115789D01*
X46144Y115812D01*
X46148Y115834D01*
X46155Y115858D01*
X46162Y115887D01*
X46189Y115950D01*
X46222Y116019D01*
X46269Y116088D01*
X46296Y116124D01*
X46329Y116158D01*
X46533Y116361D01*
X46966Y115928D01*
X47236Y116198D01*
X46474Y116960D01*
X45328Y115814D01*
X45657Y115485D01*
X45963Y115791D01*
X45985Y115769D01*
Y115764D01*
X45979Y115753D01*
X45972Y115733D01*
X45965Y115709D01*
X45954Y115680D01*
X45945Y115644D01*
X45925Y115570D01*
Y115566D01*
X45920Y115552D01*
X45918Y115532D01*
X45914Y115505D01*
Y115474D01*
X45911Y115436D01*
X45909Y115398D01*
X45914Y115358D01*
Y115353D01*
X45918Y115340D01*
X45920Y115320D01*
X45927Y115291D01*
X45936Y115260D01*
X45947Y115222D01*
X45963Y115184D01*
X45981Y115143D01*
X45983Y115137D01*
X45992Y115123D01*
X46003Y115103D01*
X46023Y115074D01*
X46043Y115041D01*
X46072Y115003D01*
X46106Y114965D01*
X46144Y114922D01*
X46159Y114907D01*
X46180Y114891D01*
X46206Y114868D01*
X46240Y114844D01*
X46280Y114817D01*
X46325Y114790D01*
X46378Y114763D01*
X46437Y114737D01*
X46501Y114712D01*
X46566Y114692D01*
X46640Y114676D01*
X46716Y114667D01*
X46796D01*
X46881Y114676D01*
X46968Y114692D01*
X46975Y114694D01*
X46988Y114699D01*
X47015Y114708D01*
X47051Y114721D01*
X47096Y114739D01*
X47147Y114759D01*
X47207Y114788D01*
X47275Y114824D01*
X47348Y114862D01*
X47426Y114909D01*
X47511Y114962D01*
X47601Y115025D01*
X47695Y115096D01*
X47791Y115175D01*
X47889Y115264D01*
X47989Y115360D01*
X48028Y115398D01*
X48041Y115416D01*
X48061Y115436D01*
X48081Y115456D01*
X48124Y115508D01*
X48175Y115568D01*
X48229Y115635D01*
X48287Y115706D01*
X48345Y115787D01*
X48403Y115872D01*
X48461Y115961D01*
X48512Y116053D01*
X48561Y116147D01*
X48604Y116243D01*
X48635Y116337D01*
X48660Y116433D01*
X48662Y116439D01*
X48664Y116455D01*
X48667Y116484D01*
X48669Y116518D01*
X48671Y116565D01*
X48669Y116616D01*
X48664Y116674D01*
X48658Y116739D01*
X48646Y116808D01*
X48626Y116882D01*
X48599Y116958D01*
X48568Y117038D01*
X48526Y117116D01*
X48477Y117197D01*
X48416Y117280D01*
X48343Y117358D01*
X48316Y117385D01*
X48298Y117398D01*
X48282Y117414D01*
X48240Y117447D01*
X48191Y117487D01*
X48133Y117527D01*
X48072Y117566D01*
X48010Y117597D01*
X48007Y117599D01*
X48001Y117601D01*
X47994Y117604D01*
X47981Y117608D01*
X47947Y117624D01*
X47905Y117639D01*
X47853Y117655D01*
X47800Y117668D01*
X47739Y117680D01*
X47679Y117686D01*
X47670D01*
X47650Y117688D01*
X47619D01*
D02*
G37*
%LPD*%
G36*
X43760Y121016D02*
X43791D01*
X43824Y121013D01*
X43863Y121007D01*
X43903Y120998D01*
X43943Y120984D01*
X43990Y120969D01*
X44032Y120949D01*
X44082Y120922D01*
X44128Y120893D01*
X44175Y120855D01*
X44222Y120812D01*
X44510Y120524D01*
X42859Y118873D01*
X42560Y119172D01*
X42549Y119188D01*
X42533Y119203D01*
X42515Y119226D01*
X42495Y119255D01*
X42473Y119286D01*
X42452Y119320D01*
X42432Y119358D01*
X42412Y119400D01*
X42394Y119445D01*
X42381Y119489D01*
X42370Y119541D01*
X42365Y119590D01*
X42363Y119641D01*
X42368Y119695D01*
Y119699D01*
X42370Y119706D01*
X42374Y119724D01*
X42381Y119744D01*
X42386Y119771D01*
X42399Y119802D01*
X42412Y119838D01*
X42428Y119876D01*
X42448Y119918D01*
X42473Y119965D01*
X42502Y120017D01*
X42535Y120068D01*
X42573Y120120D01*
X42616Y120175D01*
X42667Y120231D01*
X42721Y120289D01*
X43092Y120660D01*
X43096Y120665D01*
X43105Y120674D01*
X43121Y120689D01*
X43145Y120709D01*
X43172Y120732D01*
X43205Y120761D01*
X43239Y120790D01*
X43281Y120819D01*
X43371Y120881D01*
X43474Y120940D01*
X43525Y120964D01*
X43579Y120986D01*
X43630Y121002D01*
X43686Y121013D01*
X43690D01*
X43699D01*
X43715Y121016D01*
X43735Y121018D01*
X43760Y121016D01*
D02*
G37*
%LPC*%
G36*
X44754Y126983D02*
X44747Y126977D01*
D01*
X44754Y126983D01*
D02*
G37*
G36*
X45254Y126988D02*
X45162Y126977D01*
X45158D01*
X45140Y126972D01*
X45113Y126968D01*
X45075Y126956D01*
X45031Y126943D01*
X44979Y126923D01*
X44914Y126898D01*
X44845Y126869D01*
X44771Y126831D01*
X44689Y126789D01*
X44606Y126737D01*
X44512Y126679D01*
X44420Y126610D01*
X44322Y126534D01*
X44222Y126447D01*
X44119Y126349D01*
X44081Y126311D01*
X44067Y126293D01*
X44052Y126277D01*
X44032Y126257D01*
X43989Y126206D01*
X43940Y126147D01*
X43889Y126083D01*
X43835Y126011D01*
X43779Y125933D01*
X43726Y125853D01*
X43670Y125765D01*
X43621Y125676D01*
X43578Y125584D01*
X43540Y125493D01*
X43511Y125397D01*
X43491Y125305D01*
Y125301D01*
X43489Y125285D01*
X43486Y125256D01*
X43484Y125223D01*
X43486Y125180D01*
X43489Y125129D01*
X43496Y125068D01*
X43507Y125008D01*
X43522Y124939D01*
X43542Y124865D01*
X43569Y124789D01*
X43607Y124711D01*
X43652Y124630D01*
X43703Y124548D01*
X43768Y124465D01*
X43844Y124384D01*
X44512Y123716D01*
X46753Y125958D01*
X46065Y126646D01*
X46043Y126664D01*
X46009Y126693D01*
X45969Y126724D01*
X45922Y126758D01*
X45869Y126793D01*
X45808Y126831D01*
X45741Y126867D01*
X45672Y126900D01*
X45594Y126930D01*
X45513Y126956D01*
X45428Y126974D01*
X45343Y126983D01*
X45254Y126988D01*
D02*
G37*
G36*
X44559Y126789D02*
X44528Y126758D01*
D01*
X44559Y126789D01*
D02*
G37*
G36*
X48235Y124476D02*
X46295Y122537D01*
X45274Y123558D01*
X44972Y123256D01*
X46353Y121875D01*
X48594Y124116D01*
X48235Y124476D01*
D02*
G37*
G36*
X47529Y120700D02*
X47560Y120669D01*
D01*
X47529Y120700D01*
D02*
G37*
G36*
X49173Y123538D02*
X46932Y121297D01*
X47292Y120937D01*
X48277Y121922D01*
X49021Y121178D01*
X48036Y120193D01*
X48396Y119833D01*
X50637Y122074D01*
X50277Y122434D01*
X49323Y121480D01*
X48579Y122224D01*
X49533Y123178D01*
X49173Y123538D01*
D02*
G37*
G36*
X50869Y121372D02*
X50769Y121366D01*
Y120914D01*
X50771Y120917D01*
X50778Y120914D01*
X50802Y120917D01*
X50845Y120919D01*
X50896Y120917D01*
X50956Y120914D01*
X51026Y120908D01*
X51097Y120899D01*
X51171Y120879D01*
X51173Y120876D01*
X51180Y120874D01*
X51191Y120872D01*
X51204Y120868D01*
X51222Y120859D01*
X51242Y120852D01*
X51267Y120841D01*
X51294Y120827D01*
X51350Y120794D01*
X51414Y120751D01*
X51484Y120700D01*
X51553Y120635D01*
X51571Y120617D01*
X51584Y120599D01*
X51600Y120584D01*
X51618Y120561D01*
X51653Y120512D01*
X51694Y120454D01*
X51729Y120387D01*
X51758Y120318D01*
X51772Y120246D01*
Y120237D01*
Y120215D01*
X51770Y120177D01*
X51761Y120132D01*
X51745Y120077D01*
X51720Y120016D01*
X51680Y119954D01*
X51653Y119922D01*
X51627Y119891D01*
X51624Y119889D01*
X51620Y119884D01*
X51613Y119878D01*
X51602Y119871D01*
X51575Y119849D01*
X51537Y119824D01*
X51495Y119799D01*
X51446Y119777D01*
X51390Y119761D01*
X51332Y119757D01*
X51323D01*
X51303Y119759D01*
X51287Y119761D01*
X51267Y119768D01*
X51245Y119773D01*
X51222Y119781D01*
X51191Y119790D01*
X51162Y119802D01*
X51128Y119817D01*
X51093Y119835D01*
X51055Y119855D01*
X51014Y119878D01*
X50970Y119904D01*
X50925Y119936D01*
X50646Y120130D01*
X50641Y120135D01*
X50630Y120141D01*
X50610Y120152D01*
X50585Y120168D01*
X50554Y120186D01*
X50518Y120208D01*
X50476Y120228D01*
X50431Y120251D01*
X50331Y120293D01*
X50275Y120313D01*
X50219Y120329D01*
X50161Y120342D01*
X50100Y120349D01*
X50042Y120354D01*
X49987Y120351D01*
X49982D01*
X49973D01*
X49955Y120347D01*
X49935Y120345D01*
X49911Y120338D01*
X49877Y120331D01*
X49844Y120320D01*
X49806Y120309D01*
X49763Y120293D01*
X49721Y120273D01*
X49674Y120253D01*
X49629Y120226D01*
X49582Y120197D01*
X49538Y120166D01*
X49490Y120128D01*
X49444Y120085D01*
X49417Y120059D01*
X49406Y120043D01*
X49390Y120027D01*
X49356Y119985D01*
X49321Y119936D01*
X49283Y119880D01*
X49247Y119817D01*
X49216Y119750D01*
X49213Y119748D01*
Y119744D01*
X49209Y119735D01*
X49202Y119719D01*
X49193Y119683D01*
X49180Y119634D01*
X49169Y119578D01*
X49160Y119516D01*
X49153Y119446D01*
X49155Y119373D01*
X49158Y119370D01*
X49155Y119364D01*
X49158Y119352D01*
Y119339D01*
X49164Y119301D01*
X49173Y119252D01*
X49189Y119192D01*
X49209Y119127D01*
X49238Y119053D01*
X49272Y118979D01*
X49274Y118977D01*
X49276Y118970D01*
X49283Y118959D01*
X49292Y118946D01*
X49301Y118928D01*
X49314Y118906D01*
X49330Y118881D01*
X49347Y118854D01*
X49368Y118825D01*
X49390Y118794D01*
X49439Y118727D01*
X49502Y118655D01*
X49571Y118582D01*
X49600Y118553D01*
X49622Y118535D01*
X49647Y118510D01*
X49678Y118483D01*
X49716Y118454D01*
X49756Y118423D01*
X49799Y118389D01*
X49844Y118358D01*
X49944Y118293D01*
X50054Y118237D01*
X50109Y118213D01*
X50165Y118193D01*
X50170D01*
X50179Y118188D01*
X50197Y118184D01*
X50217Y118177D01*
X50244Y118173D01*
X50277Y118166D01*
X50313Y118157D01*
X50355Y118150D01*
X50445Y118137D01*
X50547Y118128D01*
X50655D01*
X50766Y118137D01*
X50755Y118591D01*
X50751D01*
X50742D01*
X50726Y118588D01*
X50708D01*
X50684Y118586D01*
X50657D01*
X50588Y118588D01*
X50509Y118591D01*
X50424Y118599D01*
X50342Y118615D01*
X50257Y118638D01*
X50255Y118640D01*
X50248Y118642D01*
X50235Y118646D01*
X50221Y118651D01*
X50201Y118662D01*
X50179Y118671D01*
X50154Y118682D01*
X50125Y118698D01*
X50065Y118731D01*
X49998Y118776D01*
X49926Y118830D01*
X49857Y118895D01*
X49837Y118915D01*
X49823Y118932D01*
X49808Y118948D01*
X49790Y118970D01*
X49750Y119024D01*
X49709Y119091D01*
X49672Y119160D01*
X49645Y119236D01*
X49633Y119274D01*
X49629Y119315D01*
Y119319D01*
Y119324D01*
Y119350D01*
X49633Y119390D01*
X49643Y119444D01*
X49658Y119504D01*
X49687Y119569D01*
X49730Y119639D01*
X49756Y119670D01*
X49788Y119706D01*
X49790Y119708D01*
X49794Y119712D01*
X49801Y119719D01*
X49815Y119728D01*
X49841Y119750D01*
X49879Y119775D01*
X49924Y119802D01*
X49978Y119824D01*
X50033Y119840D01*
X50094Y119842D01*
X50103D01*
X50123Y119840D01*
X50138Y119837D01*
X50156Y119833D01*
X50181Y119826D01*
X50205Y119819D01*
X50232Y119811D01*
X50261Y119799D01*
X50297Y119786D01*
X50333Y119768D01*
X50369Y119750D01*
X50409Y119728D01*
X50451Y119699D01*
X50494Y119670D01*
X50778Y119466D01*
X50780Y119464D01*
X50787Y119462D01*
X50795Y119453D01*
X50809Y119444D01*
X50824Y119433D01*
X50845Y119422D01*
X50892Y119393D01*
X50945Y119361D01*
X51003Y119330D01*
X51068Y119301D01*
X51131Y119279D01*
X51133Y119277D01*
X51137D01*
X51160Y119272D01*
X51191Y119263D01*
X51233Y119256D01*
X51283Y119247D01*
X51336Y119243D01*
X51392Y119241D01*
X51448Y119243D01*
X51455Y119245D01*
X51475Y119247D01*
X51502Y119252D01*
X51539Y119259D01*
X51582Y119270D01*
X51629Y119286D01*
X51680Y119306D01*
X51729Y119328D01*
X51732Y119330D01*
X51736D01*
X51752Y119341D01*
X51776Y119357D01*
X51808Y119379D01*
X51848Y119406D01*
X51888Y119437D01*
X51931Y119475D01*
X51973Y119513D01*
X51977Y119518D01*
X51986Y119527D01*
X52002Y119547D01*
X52024Y119569D01*
X52044Y119598D01*
X52071Y119634D01*
X52098Y119674D01*
X52127Y119721D01*
X52156Y119768D01*
X52183Y119822D01*
X52205Y119880D01*
X52226Y119940D01*
X52243Y120003D01*
X52250Y120068D01*
X52254Y120135D01*
X52252Y120204D01*
Y120208D01*
X52250Y120220D01*
X52246Y120242D01*
X52241Y120269D01*
X52232Y120300D01*
X52219Y120340D01*
X52205Y120385D01*
X52188Y120434D01*
X52165Y120488D01*
X52138Y120546D01*
X52105Y120606D01*
X52065Y120669D01*
X52022Y120733D01*
X51973Y120800D01*
X51915Y120868D01*
X51852Y120934D01*
X51825Y120961D01*
X51805Y120977D01*
X51783Y120999D01*
X51754Y121024D01*
X51723Y121051D01*
X51685Y121080D01*
X51604Y121142D01*
X51513Y121203D01*
X51414Y121256D01*
X51312Y121301D01*
X51309Y121303D01*
X51298Y121305D01*
X51285Y121310D01*
X51265Y121317D01*
X51240Y121323D01*
X51211Y121330D01*
X51140Y121348D01*
X51059Y121361D01*
X50968Y121372D01*
X50869D01*
D02*
G37*
G36*
X48901Y119252D02*
X48905Y119247D01*
D01*
X48901Y119252D01*
D02*
G37*
G36*
X49506Y118646D02*
X49511Y118642D01*
D01*
X49506Y118646D01*
D02*
G37*
%LPD*%
G36*
X45350Y126512D02*
X45381D01*
X45415Y126509D01*
X45453Y126503D01*
X45493Y126494D01*
X45533Y126480D01*
X45580Y126465D01*
X45623Y126445D01*
X45672Y126418D01*
X45719Y126389D01*
X45766Y126351D01*
X45813Y126308D01*
X46101Y126020D01*
X44450Y124369D01*
X44150Y124668D01*
X44139Y124684D01*
X44123Y124700D01*
X44105Y124722D01*
X44085Y124751D01*
X44063Y124782D01*
X44043Y124816D01*
X44023Y124854D01*
X44003Y124896D01*
X43985Y124941D01*
X43971Y124986D01*
X43960Y125037D01*
X43956Y125086D01*
X43953Y125137D01*
X43958Y125191D01*
Y125196D01*
X43960Y125202D01*
X43965Y125220D01*
X43971Y125240D01*
X43976Y125267D01*
X43989Y125298D01*
X44003Y125334D01*
X44018Y125372D01*
X44039Y125415D01*
X44063Y125461D01*
X44092Y125513D01*
X44126Y125564D01*
X44164Y125616D01*
X44206Y125672D01*
X44257Y125727D01*
X44311Y125786D01*
X44682Y126156D01*
X44686Y126161D01*
X44695Y126170D01*
X44711Y126186D01*
X44736Y126206D01*
X44762Y126228D01*
X44796Y126257D01*
X44829Y126286D01*
X44872Y126315D01*
X44961Y126378D01*
X45064Y126436D01*
X45116Y126460D01*
X45169Y126483D01*
X45221Y126498D01*
X45276Y126509D01*
X45281D01*
X45290D01*
X45305Y126512D01*
X45325Y126514D01*
X45350Y126512D01*
D02*
G37*
%LPC*%
G36*
X54334Y132550D02*
X52093Y130309D01*
X53556Y128846D01*
X55797Y131087D01*
X55335Y131549D01*
X52953Y130481D01*
X52924Y130510D01*
X54649Y132235D01*
X54334Y132550D01*
D02*
G37*
G36*
X56275Y130609D02*
X55974Y130307D01*
X57017Y129263D01*
X56365Y128611D01*
X55359Y129617D01*
X55058Y129315D01*
X56063Y128309D01*
X55379Y127626D01*
X54336Y128669D01*
X54034Y128367D01*
X55438Y126964D01*
X57679Y129205D01*
X56275Y130609D01*
D02*
G37*
G36*
X57956Y128459D02*
X57855Y128452D01*
Y128001D01*
X57858Y128003D01*
X57864Y128001D01*
X57889Y128003D01*
X57931Y128006D01*
X57983Y128003D01*
X58043Y128001D01*
X58112Y127994D01*
X58184Y127985D01*
X58257Y127965D01*
X58260Y127963D01*
X58266Y127961D01*
X58277Y127959D01*
X58291Y127954D01*
X58309Y127945D01*
X58329Y127938D01*
X58354Y127927D01*
X58380Y127914D01*
X58436Y127880D01*
X58501Y127838D01*
X58570Y127787D01*
X58640Y127722D01*
X58657Y127704D01*
X58671Y127686D01*
X58687Y127670D01*
X58704Y127648D01*
X58740Y127599D01*
X58780Y127541D01*
X58816Y127474D01*
X58845Y127404D01*
X58859Y127333D01*
Y127324D01*
Y127302D01*
X58856Y127264D01*
X58847Y127219D01*
X58832Y127163D01*
X58807Y127103D01*
X58767Y127040D01*
X58740Y127009D01*
X58713Y126978D01*
X58711Y126975D01*
X58707Y126971D01*
X58700Y126964D01*
X58689Y126957D01*
X58662Y126935D01*
X58624Y126911D01*
X58581Y126886D01*
X58532Y126864D01*
X58476Y126848D01*
X58418Y126844D01*
X58409D01*
X58389Y126846D01*
X58374Y126848D01*
X58354Y126855D01*
X58331Y126859D01*
X58309Y126868D01*
X58277Y126877D01*
X58249Y126888D01*
X58215Y126904D01*
X58179Y126922D01*
X58141Y126942D01*
X58101Y126964D01*
X58056Y126991D01*
X58012Y127022D01*
X57732Y127217D01*
X57728Y127221D01*
X57717Y127228D01*
X57697Y127239D01*
X57672Y127255D01*
X57641Y127273D01*
X57605Y127295D01*
X57563Y127315D01*
X57518Y127337D01*
X57417Y127380D01*
X57361Y127400D01*
X57306Y127416D01*
X57248Y127429D01*
X57187Y127436D01*
X57129Y127440D01*
X57073Y127438D01*
X57069D01*
X57060D01*
X57042Y127434D01*
X57022Y127431D01*
X56997Y127425D01*
X56964Y127418D01*
X56930Y127407D01*
X56892Y127395D01*
X56850Y127380D01*
X56807Y127360D01*
X56760Y127340D01*
X56716Y127313D01*
X56669Y127284D01*
X56624Y127252D01*
X56577Y127215D01*
X56530Y127172D01*
X56503Y127145D01*
X56492Y127130D01*
X56477Y127114D01*
X56443Y127071D01*
X56407Y127022D01*
X56369Y126967D01*
X56334Y126904D01*
X56302Y126837D01*
X56300Y126835D01*
Y126830D01*
X56296Y126821D01*
X56289Y126806D01*
X56280Y126770D01*
X56266Y126721D01*
X56255Y126665D01*
X56246Y126602D01*
X56240Y126533D01*
X56242Y126459D01*
X56244Y126457D01*
X56242Y126450D01*
X56244Y126439D01*
Y126426D01*
X56251Y126388D01*
X56260Y126339D01*
X56275Y126278D01*
X56296Y126214D01*
X56325Y126140D01*
X56358Y126066D01*
X56360Y126064D01*
X56363Y126057D01*
X56369Y126046D01*
X56378Y126032D01*
X56387Y126015D01*
X56401Y125992D01*
X56416Y125968D01*
X56434Y125941D01*
X56454Y125912D01*
X56477Y125881D01*
X56526Y125813D01*
X56588Y125742D01*
X56658Y125668D01*
X55842Y126484D01*
Y126484D01*
X57478Y124848D01*
X59795Y127165D01*
X59795Y127165D01*
X57478Y124848D01*
X56687Y125639D01*
X56709Y125621D01*
X56734Y125597D01*
X56765Y125570D01*
X56803Y125541D01*
X56843Y125510D01*
X56885Y125476D01*
X56930Y125445D01*
X57031Y125380D01*
X57140Y125324D01*
X57196Y125300D01*
X57252Y125279D01*
X57256D01*
X57265Y125275D01*
X57283Y125270D01*
X57303Y125264D01*
X57330Y125259D01*
X57364Y125253D01*
X57399Y125244D01*
X57442Y125237D01*
X57531Y125224D01*
X57634Y125215D01*
X57741D01*
X57853Y125224D01*
X57842Y125677D01*
X57837D01*
X57828D01*
X57813Y125675D01*
X57795D01*
X57770Y125673D01*
X57744D01*
X57674Y125675D01*
X57596Y125677D01*
X57511Y125686D01*
X57428Y125702D01*
X57344Y125724D01*
X57341Y125726D01*
X57335Y125729D01*
X57321Y125733D01*
X57308Y125738D01*
X57288Y125749D01*
X57265Y125758D01*
X57241Y125769D01*
X57212Y125784D01*
X57151Y125818D01*
X57084Y125863D01*
X57013Y125916D01*
X56944Y125981D01*
X56924Y126001D01*
X56910Y126019D01*
X56894Y126035D01*
X56876Y126057D01*
X56836Y126111D01*
X56796Y126178D01*
X56758Y126247D01*
X56731Y126323D01*
X56720Y126361D01*
X56716Y126401D01*
Y126406D01*
Y126410D01*
Y126437D01*
X56720Y126477D01*
X56729Y126531D01*
X56745Y126591D01*
X56774Y126656D01*
X56816Y126725D01*
X56843Y126756D01*
X56874Y126792D01*
X56876Y126794D01*
X56881Y126799D01*
X56888Y126806D01*
X56901Y126814D01*
X56928Y126837D01*
X56966Y126862D01*
X57011Y126888D01*
X57064Y126911D01*
X57120Y126926D01*
X57180Y126928D01*
X57189D01*
X57209Y126926D01*
X57225Y126924D01*
X57243Y126920D01*
X57268Y126913D01*
X57292Y126906D01*
X57319Y126897D01*
X57348Y126886D01*
X57384Y126873D01*
X57420Y126855D01*
X57455Y126837D01*
X57495Y126814D01*
X57538Y126786D01*
X57580Y126756D01*
X57864Y126553D01*
X57866Y126551D01*
X57873Y126549D01*
X57882Y126540D01*
X57895Y126531D01*
X57911Y126520D01*
X57931Y126508D01*
X57978Y126479D01*
X58032Y126448D01*
X58090Y126417D01*
X58155Y126388D01*
X58217Y126365D01*
X58219Y126363D01*
X58224D01*
X58246Y126359D01*
X58277Y126350D01*
X58320Y126343D01*
X58369Y126334D01*
X58423Y126330D01*
X58479Y126327D01*
X58534Y126330D01*
X58541Y126332D01*
X58561Y126334D01*
X58588Y126339D01*
X58626Y126345D01*
X58669Y126356D01*
X58715Y126372D01*
X58767Y126392D01*
X58816Y126415D01*
X58818Y126417D01*
X58823D01*
X58838Y126428D01*
X58863Y126444D01*
X58894Y126466D01*
X58934Y126493D01*
X58975Y126524D01*
X59017Y126562D01*
X59060Y126600D01*
X59064Y126604D01*
X59073Y126613D01*
X59089Y126634D01*
X59111Y126656D01*
X59131Y126685D01*
X59158Y126721D01*
X59185Y126761D01*
X59214Y126808D01*
X59243Y126855D01*
X59270Y126908D01*
X59292Y126967D01*
X59312Y127027D01*
X59330Y127089D01*
X59337Y127154D01*
X59341Y127221D01*
X59339Y127290D01*
Y127295D01*
X59337Y127306D01*
X59332Y127329D01*
X59328Y127355D01*
X59319Y127387D01*
X59305Y127427D01*
X59292Y127471D01*
X59274Y127521D01*
X59252Y127574D01*
X59225Y127632D01*
X59191Y127693D01*
X59151Y127755D01*
X59109Y127820D01*
X59060Y127887D01*
X59001Y127954D01*
X58939Y128021D01*
X58912Y128048D01*
X58892Y128064D01*
X58870Y128086D01*
X58841Y128111D01*
X58809Y128137D01*
X58771Y128166D01*
X58691Y128229D01*
X58599Y128289D01*
X58501Y128343D01*
X58398Y128388D01*
X58396Y128390D01*
X58385Y128392D01*
X58371Y128396D01*
X58351Y128403D01*
X58327Y128410D01*
X58298Y128417D01*
X58226Y128435D01*
X58146Y128448D01*
X58054Y128459D01*
X57956D01*
D02*
G37*
%LPD*%
G36*
X54964Y130884D02*
X53241Y129161D01*
X52555Y129847D01*
X54935Y130912D01*
X54964Y130884D01*
D02*
G37*
%LPC*%
G36*
X57835Y135752D02*
X57779Y135745D01*
X57718Y135734D01*
X57656Y135716D01*
X57654Y135714D01*
X57649D01*
X57640Y135709D01*
X57629Y135707D01*
X57598Y135694D01*
X57557Y135676D01*
X57513Y135649D01*
X57461Y135616D01*
X57410Y135577D01*
X57359Y135531D01*
X57356Y135528D01*
X57354Y135526D01*
X57341Y135513D01*
X57323Y135490D01*
X57301Y135464D01*
X57274Y135428D01*
X57249Y135390D01*
X57225Y135347D01*
X57202Y135303D01*
X57200Y135296D01*
X57193Y135280D01*
X57184Y135258D01*
X57175Y135227D01*
X57164Y135189D01*
X57153Y135146D01*
X57146Y135104D01*
X57142Y135055D01*
Y135050D01*
Y135032D01*
Y135010D01*
Y134979D01*
X57149Y134941D01*
X57153Y134900D01*
X57162Y134856D01*
X57173Y134809D01*
X57175Y134802D01*
X57180Y134789D01*
X57189Y134766D01*
X57202Y134735D01*
X57218Y134702D01*
X57236Y134661D01*
X57258Y134621D01*
X57283Y134579D01*
X57267Y134563D01*
X57263Y134568D01*
X57247Y134574D01*
X57222Y134590D01*
X57193Y134606D01*
X57155Y134626D01*
X57113Y134646D01*
X57068Y134664D01*
X57019Y134681D01*
X57012Y134684D01*
X56997Y134690D01*
X56970Y134695D01*
X56939Y134704D01*
X56896Y134711D01*
X56851Y134720D01*
X56805Y134722D01*
X56753Y134724D01*
X56749D01*
X56731D01*
X56704Y134720D01*
X56670Y134717D01*
X56628Y134711D01*
X56583Y134702D01*
X56536Y134686D01*
X56485Y134666D01*
X56478Y134664D01*
X56463Y134657D01*
X56436Y134643D01*
X56402Y134623D01*
X56364Y134599D01*
X56320Y134568D01*
X56275Y134532D01*
X56228Y134490D01*
X56203Y134465D01*
X56192Y134449D01*
X56177Y134433D01*
X56145Y134393D01*
X56112Y134346D01*
X56078Y134291D01*
X56045Y134230D01*
X56018Y134163D01*
X56016Y134161D01*
Y134156D01*
X56014Y134145D01*
X56009Y134132D01*
X56000Y134096D01*
X55991Y134051D01*
X55980Y133996D01*
X55976Y133933D01*
X55973Y133864D01*
X55978Y133792D01*
X55980Y133790D01*
X55978Y133783D01*
X55980Y133772D01*
X55984Y133759D01*
X55991Y133721D01*
X56000Y133672D01*
X56016Y133611D01*
X56038Y133544D01*
X56067Y133475D01*
X56103Y133399D01*
X56105Y133397D01*
X56107Y133390D01*
X56114Y133379D01*
X56123Y133365D01*
X56132Y133348D01*
X56148Y133327D01*
X56161Y133305D01*
X56179Y133278D01*
X56219Y133220D01*
X56270Y133155D01*
X56329Y133088D01*
X56396Y133017D01*
X56436Y132977D01*
X56454Y132963D01*
X56494Y132928D01*
X56541Y132889D01*
X56592Y132847D01*
X56648Y132809D01*
X56706Y132773D01*
X56708Y132771D01*
X56713D01*
X56722Y132767D01*
X56733Y132760D01*
X56762Y132744D01*
X56802Y132726D01*
X56847Y132704D01*
X56898Y132684D01*
X56954Y132664D01*
X57010Y132648D01*
X57017Y132646D01*
X57035Y132641D01*
X57066Y132637D01*
X57102Y132633D01*
X57146Y132624D01*
X57196Y132619D01*
X57245Y132615D01*
X57298D01*
X57305Y132617D01*
X57323D01*
X57350D01*
X57385Y132621D01*
X57428Y132624D01*
X57473Y132628D01*
X57569Y132644D01*
X57508Y133115D01*
X57506Y133113D01*
X57497D01*
X57486Y133111D01*
X57470Y133108D01*
X57428Y133102D01*
X57374Y133093D01*
X57312Y133088D01*
X57238Y133086D01*
X57164Y133088D01*
X57091Y133095D01*
X57088Y133097D01*
X57082Y133095D01*
X57073Y133099D01*
X57057Y133102D01*
X57037Y133108D01*
X57017Y133115D01*
X56994Y133124D01*
X56965Y133135D01*
X56936Y133147D01*
X56905Y133164D01*
X56874Y133182D01*
X56838Y133204D01*
X56769Y133256D01*
X56693Y133323D01*
X56673Y133343D01*
X56659Y133361D01*
X56641Y133379D01*
X56624Y133401D01*
X56583Y133455D01*
X56545Y133520D01*
X56507Y133589D01*
X56480Y133665D01*
X56469Y133703D01*
X56465Y133743D01*
Y133747D01*
Y133752D01*
Y133765D01*
Y133779D01*
X56469Y133819D01*
X56480Y133870D01*
X56498Y133929D01*
X56527Y133993D01*
X56568Y134060D01*
X56597Y134094D01*
X56626Y134127D01*
X56650Y134152D01*
X56652Y134154D01*
X56657Y134159D01*
X56666Y134168D01*
X56682Y134179D01*
X56697Y134190D01*
X56717Y134206D01*
X56764Y134235D01*
X56820Y134264D01*
X56885Y134288D01*
X56921Y134297D01*
X56956Y134302D01*
X56997D01*
X57035Y134299D01*
X57037Y134297D01*
X57044Y134299D01*
X57055Y134297D01*
X57070Y134291D01*
X57091Y134288D01*
X57113Y134279D01*
X57137Y134273D01*
X57166Y134261D01*
X57196Y134246D01*
X57231Y134228D01*
X57267Y134210D01*
X57305Y134186D01*
X57341Y134159D01*
X57381Y134127D01*
X57423Y134094D01*
X57705Y133812D01*
X58007Y134114D01*
X57754Y134367D01*
X57741Y134384D01*
X57723Y134402D01*
X57705Y134425D01*
X57665Y134478D01*
X57625Y134541D01*
X57587Y134610D01*
X57560Y134681D01*
X57549Y134720D01*
X57544Y134755D01*
Y134760D01*
Y134764D01*
Y134787D01*
X57546Y134825D01*
X57553Y134871D01*
X57569Y134923D01*
X57591Y134981D01*
X57625Y135037D01*
X57645Y135066D01*
X57669Y135090D01*
X57692Y135113D01*
X57694Y135115D01*
X57698Y135119D01*
X57707Y135128D01*
X57718Y135135D01*
X57732Y135149D01*
X57750Y135162D01*
X57792Y135187D01*
X57841Y135213D01*
X57899Y135236D01*
X57964Y135247D01*
X57998Y135249D01*
X58031Y135247D01*
X58040D01*
X58049Y135242D01*
X58062D01*
X58098Y135233D01*
X58145Y135218D01*
X58197Y135193D01*
X58257Y135160D01*
X58319Y135115D01*
X58384Y135059D01*
X58411Y135032D01*
X58422Y135017D01*
X58438Y134997D01*
X58471Y134954D01*
X58505Y134903D01*
X58538Y134842D01*
X58565Y134775D01*
X58585Y134706D01*
X58588Y134704D01*
Y134699D01*
X58590Y134675D01*
X58596Y134637D01*
X58599Y134585D01*
X58601Y134530D01*
X58599Y134460D01*
X58590Y134389D01*
X58576Y134313D01*
X59028Y134277D01*
X59030Y134284D01*
X59032Y134299D01*
X59035Y134324D01*
X59039Y134355D01*
X59043Y134396D01*
X59048Y134440D01*
X59050Y134487D01*
Y134536D01*
Y134541D01*
Y134559D01*
X59048Y134588D01*
X59046Y134621D01*
X59043Y134664D01*
X59035Y134708D01*
X59026Y134757D01*
X59014Y134809D01*
X59012Y134816D01*
X59008Y134834D01*
X58999Y134860D01*
X58985Y134896D01*
X58967Y134936D01*
X58950Y134985D01*
X58923Y135035D01*
X58896Y135088D01*
X58894Y135090D01*
Y135095D01*
X58887Y135102D01*
X58880Y135113D01*
X58862Y135140D01*
X58838Y135178D01*
X58807Y135222D01*
X58769Y135269D01*
X58722Y135321D01*
X58672Y135374D01*
X58646Y135401D01*
X58630Y135412D01*
X58614Y135428D01*
X58572Y135466D01*
X58523Y135506D01*
X58467Y135544D01*
X58407Y135587D01*
X58342Y135625D01*
X58340Y135627D01*
X58333Y135629D01*
X58324Y135633D01*
X58313Y135640D01*
X58277Y135658D01*
X58232Y135676D01*
X58181Y135696D01*
X58121Y135716D01*
X58058Y135734D01*
X57993Y135745D01*
X57991Y135747D01*
X57986D01*
X57964D01*
X57928Y135752D01*
X57884D01*
X57835D01*
D02*
G37*
G36*
X60648Y133323D02*
X60666Y133305D01*
D01*
X60648Y133323D01*
D02*
G37*
G36*
X59486Y134561D02*
X57169Y132244D01*
X57169Y132244D01*
X59486Y134561D01*
Y134561D01*
D02*
G37*
G36*
X61687Y131900D02*
X61631Y131893D01*
X61571Y131882D01*
X61508Y131864D01*
X61506Y131862D01*
X61501D01*
X61492Y131857D01*
X61481Y131855D01*
X61450Y131842D01*
X61410Y131824D01*
X61365Y131797D01*
X61314Y131763D01*
X61262Y131725D01*
X61211Y131678D01*
X61209Y131676D01*
X61206Y131674D01*
X61193Y131660D01*
X61175Y131638D01*
X61153Y131611D01*
X61126Y131576D01*
X61101Y131538D01*
X61077Y131495D01*
X61054Y131450D01*
X61052Y131444D01*
X61045Y131428D01*
X61037Y131406D01*
X61028Y131375D01*
X61016Y131337D01*
X61005Y131294D01*
X60999Y131252D01*
X60994Y131202D01*
Y131198D01*
Y131180D01*
Y131158D01*
Y131126D01*
X61001Y131088D01*
X61005Y131048D01*
X61014Y131004D01*
X61025Y130957D01*
X61028Y130950D01*
X61032Y130937D01*
X61041Y130914D01*
X61054Y130883D01*
X61070Y130849D01*
X61088Y130809D01*
X61110Y130769D01*
X61135Y130727D01*
X61119Y130711D01*
X61115Y130715D01*
X61099Y130722D01*
X61075Y130738D01*
X61045Y130753D01*
X61007Y130773D01*
X60965Y130794D01*
X60920Y130811D01*
X60871Y130829D01*
X60865Y130832D01*
X60849Y130838D01*
X60822Y130843D01*
X60791Y130852D01*
X60748Y130858D01*
X60704Y130867D01*
X60657Y130869D01*
X60605Y130872D01*
X60601D01*
X60583D01*
X60556Y130867D01*
X60523Y130865D01*
X60480Y130858D01*
X60435Y130849D01*
X60389Y130834D01*
X60337Y130814D01*
X60330Y130811D01*
X60315Y130805D01*
X60288Y130791D01*
X60255Y130771D01*
X60216Y130747D01*
X60172Y130715D01*
X60127Y130680D01*
X60080Y130637D01*
X60056Y130613D01*
X60044Y130597D01*
X60029Y130581D01*
X59997Y130541D01*
X59964Y130494D01*
X59930Y130438D01*
X59897Y130378D01*
X59870Y130311D01*
X59868Y130309D01*
Y130304D01*
X59866Y130293D01*
X59861Y130280D01*
X59852Y130244D01*
X59843Y130199D01*
X59832Y130143D01*
X59828Y130081D01*
X59825Y130011D01*
X59830Y129940D01*
X59832Y129938D01*
X59830Y129931D01*
X59832Y129920D01*
X59837Y129906D01*
X59843Y129868D01*
X59852Y129819D01*
X59868Y129759D01*
X59890Y129692D01*
X59919Y129623D01*
X59955Y129547D01*
X59957Y129544D01*
X59960Y129538D01*
X59966Y129527D01*
X59975Y129513D01*
X59984Y129495D01*
X60000Y129475D01*
X60013Y129453D01*
X60031Y129426D01*
X60071Y129368D01*
X60123Y129303D01*
X60181Y129236D01*
X60248Y129165D01*
X60288Y129124D01*
X60306Y129111D01*
X60346Y129075D01*
X60393Y129037D01*
X60444Y128995D01*
X60500Y128957D01*
X60558Y128921D01*
X60561Y128919D01*
X60565D01*
X60574Y128914D01*
X60585Y128908D01*
X60614Y128892D01*
X60654Y128874D01*
X60699Y128852D01*
X60751Y128832D01*
X60806Y128812D01*
X60862Y128796D01*
X60869Y128794D01*
X60887Y128789D01*
X60918Y128785D01*
X60954Y128780D01*
X60999Y128771D01*
X61048Y128767D01*
X61097Y128762D01*
X61150D01*
X61157Y128765D01*
X61175D01*
X61202D01*
X61238Y128769D01*
X61280Y128771D01*
X61325Y128776D01*
X61421Y128791D01*
X61361Y129263D01*
X61358Y129261D01*
X61349D01*
X61338Y129259D01*
X61323Y129256D01*
X61280Y129250D01*
X61226Y129241D01*
X61164Y129236D01*
X61090Y129234D01*
X61016Y129236D01*
X60943Y129243D01*
X60940Y129245D01*
X60934Y129243D01*
X60925Y129247D01*
X60909Y129250D01*
X60889Y129256D01*
X60869Y129263D01*
X60847Y129272D01*
X60818Y129283D01*
X60789Y129294D01*
X60757Y129312D01*
X60726Y129330D01*
X60690Y129352D01*
X60621Y129404D01*
X60545Y129471D01*
X60525Y129491D01*
X60511Y129509D01*
X60494Y129527D01*
X60476Y129549D01*
X60435Y129603D01*
X60397Y129667D01*
X60360Y129737D01*
X60333Y129813D01*
X60321Y129851D01*
X60317Y129891D01*
Y129895D01*
Y129900D01*
Y129913D01*
Y129927D01*
X60321Y129967D01*
X60333Y130018D01*
X60351Y130076D01*
X60380Y130141D01*
X60420Y130208D01*
X60449Y130242D01*
X60478Y130275D01*
X60502Y130300D01*
X60505Y130302D01*
X60509Y130306D01*
X60518Y130315D01*
X60534Y130327D01*
X60549Y130338D01*
X60570Y130353D01*
X60616Y130382D01*
X60672Y130412D01*
X60737Y130436D01*
X60773Y130445D01*
X60809Y130449D01*
X60849D01*
X60887Y130447D01*
X60889Y130445D01*
X60896Y130447D01*
X60907Y130445D01*
X60923Y130438D01*
X60943Y130436D01*
X60965Y130427D01*
X60990Y130420D01*
X61019Y130409D01*
X61048Y130394D01*
X61084Y130376D01*
X61119Y130358D01*
X61157Y130333D01*
X61193Y130306D01*
X61233Y130275D01*
X61276Y130242D01*
X61557Y129960D01*
X61859Y130262D01*
X61606Y130514D01*
X61593Y130532D01*
X61575Y130550D01*
X61557Y130572D01*
X61517Y130626D01*
X61477Y130689D01*
X61439Y130758D01*
X61412Y130829D01*
X61401Y130867D01*
X61396Y130903D01*
Y130907D01*
Y130912D01*
Y130934D01*
X61399Y130972D01*
X61405Y131019D01*
X61421Y131071D01*
X61443Y131129D01*
X61477Y131185D01*
X61497Y131214D01*
X61521Y131238D01*
X61544Y131261D01*
X61546Y131263D01*
X61550Y131267D01*
X61559Y131276D01*
X61571Y131283D01*
X61584Y131296D01*
X61602Y131310D01*
X61644Y131334D01*
X61694Y131361D01*
X61752Y131384D01*
X61816Y131395D01*
X61850Y131397D01*
X61883Y131395D01*
X61892D01*
X61901Y131390D01*
X61915D01*
X61950Y131381D01*
X61997Y131366D01*
X62049Y131341D01*
X62109Y131307D01*
X62172Y131263D01*
X62236Y131207D01*
X62263Y131180D01*
X62274Y131165D01*
X62290Y131144D01*
X62324Y131102D01*
X62357Y131051D01*
X62391Y130990D01*
X62417Y130923D01*
X62438Y130854D01*
X62440Y130852D01*
Y130847D01*
X62442Y130823D01*
X62449Y130785D01*
X62451Y130733D01*
X62453Y130677D01*
X62451Y130608D01*
X62442Y130537D01*
X62429Y130461D01*
X62880Y130425D01*
X62882Y130432D01*
X62884Y130447D01*
X62887Y130472D01*
X62891Y130503D01*
X62896Y130543D01*
X62900Y130588D01*
X62902Y130635D01*
Y130684D01*
Y130689D01*
Y130706D01*
X62900Y130736D01*
X62898Y130769D01*
X62896Y130811D01*
X62887Y130856D01*
X62878Y130905D01*
X62867Y130957D01*
X62864Y130963D01*
X62860Y130981D01*
X62851Y131008D01*
X62837Y131044D01*
X62820Y131084D01*
X62802Y131133D01*
X62775Y131182D01*
X62748Y131236D01*
X62746Y131238D01*
Y131243D01*
X62739Y131249D01*
X62732Y131261D01*
X62715Y131287D01*
X62690Y131325D01*
X62659Y131370D01*
X62621Y131417D01*
X62574Y131468D01*
X62525Y131522D01*
X62498Y131549D01*
X62482Y131560D01*
X62467Y131576D01*
X62424Y131614D01*
X62375Y131654D01*
X62319Y131692D01*
X62259Y131734D01*
X62194Y131772D01*
X62192Y131774D01*
X62185Y131777D01*
X62176Y131781D01*
X62165Y131788D01*
X62129Y131806D01*
X62085Y131824D01*
X62033Y131844D01*
X61973Y131864D01*
X61910Y131882D01*
X61845Y131893D01*
X61843Y131895D01*
X61839D01*
X61816D01*
X61781Y131900D01*
X61736D01*
X61687D01*
D02*
G37*
G36*
X57725Y131763D02*
X57754Y131734D01*
D01*
X57725Y131763D01*
D02*
G37*
G36*
X59649Y134322D02*
X59649Y134322D01*
X58040Y131448D01*
X58543Y130946D01*
X61416Y132554D01*
X59175Y130313D01*
D01*
X61416Y132554D01*
X61028Y132943D01*
X59602Y132107D01*
X58644Y131542D01*
X58623Y131562D01*
X59191Y132519D01*
X60022Y133949D01*
X59649Y134322D01*
D02*
G37*
G36*
X63338Y130709D02*
X61021Y128392D01*
Y128392D01*
X63338Y130709D01*
X63338D01*
D02*
G37*
%LPD*%
D10*
X78421Y122421D02*
G03*
X78421Y122421I-1500J0D01*
G01*
D12*
X61943Y121784D02*
X65284Y118443D01*
X58394Y120879D02*
X63057Y116216D01*
X56943Y116784D02*
X60284Y113443D01*
X53394Y115879D02*
X58057Y111216D01*
X143520Y93331D02*
X144701Y92150D01*
D17*
X135252Y85142D02*
G03*
X135252Y85142I-79J0D01*
G01*
D18*
X71422Y97803D02*
X79264Y105646D01*
X58408Y106285D02*
X64928Y99765D01*
X58408Y106285D02*
X60399Y108276D01*
X70782Y118660D02*
X77303Y112139D01*
X68791Y116669D02*
X70782Y118660D01*
D19*
X69000Y122037D02*
X66217Y119254D01*
X64826Y120645D01*
Y121573D01*
X66681Y123428D01*
X67609D01*
X69000Y122037D01*
X61579Y123892D02*
X63434Y122037D01*
Y125747D01*
X63898Y126211D01*
X64826Y126211D01*
X65753Y125283D01*
Y124356D01*
X56696Y110660D02*
X53913Y107877D01*
X52522Y109269D01*
Y110197D01*
X54377Y112052D01*
X55305D01*
X56696Y110660D01*
X51130D02*
X50203Y111588D01*
X50666Y111124D01*
X53449Y113907D01*
Y112980D01*
X79840Y117538D02*
X80768Y116610D01*
X80304Y117074D01*
X77985Y114755D01*
Y113827D01*
X78449Y113363D01*
X79377D01*
X76130Y115682D02*
X75202Y116610D01*
X75666Y116146D01*
X78449Y118929D01*
Y118001D01*
X143567Y83570D02*
Y79634D01*
X140944D01*
X137008Y83570D02*
X139632D01*
Y79634D01*
X137008D01*
X139632Y81602D02*
X138320D01*
X135696Y83570D02*
Y79634D01*
X133728D01*
X133072Y80290D01*
Y82914D01*
X133728Y83570D01*
X135696D01*
X131760Y79634D02*
X130448D01*
X131104D01*
Y83570D01*
X131760Y82914D01*
M02*
