G04*
G04 #@! TF.GenerationSoftware,Altium Limited,Altium Designer,26.4.1 (12)*
G04*
G04 Layer_Color=8388736*
%FSLAX25Y25*%
%MOIN*%
G70*
G04*
G04 #@! TF.SameCoordinates,D9574204-A45F-46DF-8F85-D7358342533D*
G04*
G04*
G04 #@! TF.FilePolarity,Negative*
G04*
G01*
G75*
G36*
X39370Y118110D02*
X39370Y59055D01*
Y57765D01*
X39707Y55207D01*
X40375Y52714D01*
X41362Y50330D01*
X42652Y48095D01*
X44223Y46048D01*
X46048Y44223D01*
X48095Y42652D01*
X50330Y41362D01*
X52714Y40375D01*
X55207Y39707D01*
X57765Y39370D01*
X59055D01*
D01*
X118110D01*
X119401Y39370D01*
X121959Y39707D01*
X124451Y40375D01*
X126835Y41362D01*
X129070Y42652D01*
X131117Y44223D01*
X132942Y46048D01*
X134513Y48095D01*
X135803Y50330D01*
X136791Y52714D01*
X137458Y55207D01*
X137795Y57765D01*
X137795Y59055D01*
X137795Y59055D01*
X137795Y118110D01*
X137795Y119401D01*
X137459Y121959D01*
X136791Y124451D01*
X135803Y126836D01*
X134513Y129070D01*
X132942Y131117D01*
X131117Y132942D01*
X129070Y134513D01*
X126835Y135803D01*
X124451Y136791D01*
X121959Y137459D01*
X119400Y137795D01*
X118110Y137795D01*
X118110Y137795D01*
X59055Y137795D01*
X57765Y137795D01*
X55207Y137458D01*
X52714Y136791D01*
X50330Y135803D01*
X48095Y134513D01*
X46048Y132942D01*
X44223Y131117D01*
X42652Y129070D01*
X41362Y126835D01*
X40375Y124451D01*
X39707Y121959D01*
X39370Y119400D01*
X39370Y118110D01*
Y118110D01*
D02*
G37*
G36*
X88781Y167710D02*
X88793Y167694D01*
X88819Y167666D01*
X88850Y167631D01*
X88891Y167587D01*
X88939Y167536D01*
X88992Y167480D01*
X89056Y167420D01*
X89122Y167356D01*
X89198Y167290D01*
X89277Y167224D01*
X89359Y167154D01*
X89444Y167088D01*
X89536Y167021D01*
X89631Y166958D01*
X89726Y166901D01*
Y167457D01*
X90629D01*
X90715Y167527D01*
X91008Y167303D01*
X91012Y167296D01*
X91021Y167284D01*
X91034Y167265D01*
X91040Y167243D01*
X91043Y167217D01*
X91037Y167208D01*
X91031Y167198D01*
X91021Y167192D01*
X91005Y167186D01*
X90983Y167179D01*
X90958D01*
X90506Y166020D01*
X90509D01*
X90512Y166013D01*
X90531Y166001D01*
X90560Y165975D01*
X90598Y165941D01*
X90642Y165900D01*
X90692Y165849D01*
X90746Y165792D01*
X90803Y165726D01*
X90857Y165656D01*
X90911Y165580D01*
X90961Y165498D01*
X91005Y165413D01*
X91043Y165321D01*
X91072Y165226D01*
X91091Y165132D01*
X91094Y165081D01*
X91097Y165031D01*
Y165027D01*
Y165024D01*
Y165015D01*
Y165002D01*
X91094Y164967D01*
X91087Y164926D01*
X91078Y164873D01*
X91065Y164816D01*
X91043Y164756D01*
X91018Y164692D01*
X90986Y164629D01*
X90945Y164569D01*
X90895Y164512D01*
X90835Y164459D01*
X90762Y164418D01*
X90721Y164399D01*
X90677Y164383D01*
X90632Y164370D01*
X90582Y164361D01*
X90528Y164357D01*
X90471Y164354D01*
X90316D01*
X90212Y164737D01*
X90433D01*
X90449Y164740D01*
X90468Y164743D01*
X90490Y164749D01*
X90512Y164759D01*
X90541Y164771D01*
X90569Y164790D01*
X90595Y164813D01*
X90623Y164838D01*
X90645Y164873D01*
X90670Y164914D01*
X90686Y164961D01*
X90702Y165015D01*
X90711Y165081D01*
X90715Y165154D01*
Y165157D01*
Y165166D01*
X90711Y165182D01*
X90705Y165204D01*
X90699Y165236D01*
X90686Y165271D01*
X90670Y165315D01*
X90648Y165362D01*
X90623Y165419D01*
X90588Y165482D01*
X90544Y165552D01*
X90493Y165628D01*
X90437Y165710D01*
X90364Y165802D01*
X90285Y165896D01*
X90193Y166001D01*
X90541Y167129D01*
X90073D01*
Y163716D01*
X89726D01*
Y166835D01*
X89520Y166607D01*
X89517Y166611D01*
X89511Y166614D01*
X89498Y166623D01*
X89482Y166633D01*
X89463Y166648D01*
X89441Y166664D01*
X89413Y166683D01*
X89381Y166709D01*
X89346Y166734D01*
X89308Y166762D01*
X89226Y166829D01*
X89135Y166904D01*
X89033Y166990D01*
Y166835D01*
X88774D01*
Y166573D01*
X89327D01*
Y165084D01*
X88462D01*
Y164876D01*
X89605D01*
Y164598D01*
X88480D01*
X88487Y164594D01*
X88503Y164588D01*
X88531Y164576D01*
X88569Y164557D01*
X88616Y164534D01*
X88670Y164509D01*
X88733Y164478D01*
X88800Y164443D01*
X88875Y164405D01*
X88954Y164361D01*
X89037Y164313D01*
X89122Y164263D01*
X89210Y164209D01*
X89302Y164152D01*
X89485Y164029D01*
X89242Y163700D01*
X89236Y163707D01*
X89220Y163719D01*
X89195Y163741D01*
X89160Y163770D01*
X89116Y163804D01*
X89068Y163842D01*
X89011Y163887D01*
X88948Y163934D01*
X88882Y163985D01*
X88812Y164038D01*
X88664Y164146D01*
X88509Y164247D01*
X88433Y164294D01*
X88357Y164339D01*
X88354Y164332D01*
X88348Y164320D01*
X88332Y164297D01*
X88310Y164266D01*
X88281Y164228D01*
X88247Y164187D01*
X88202Y164139D01*
X88152Y164092D01*
X88092Y164038D01*
X88022Y163985D01*
X87943Y163931D01*
X87855Y163880D01*
X87754Y163830D01*
X87643Y163782D01*
X87520Y163738D01*
X87387Y163700D01*
X87232Y164064D01*
X87235D01*
X87242Y164067D01*
X87251D01*
X87264Y164073D01*
X87283Y164076D01*
X87302Y164083D01*
X87349Y164095D01*
X87409Y164114D01*
X87476Y164136D01*
X87545Y164165D01*
X87621Y164193D01*
X87697Y164231D01*
X87773Y164269D01*
X87848Y164313D01*
X87918Y164361D01*
X87981Y164414D01*
X88035Y164471D01*
X88082Y164531D01*
X88098Y164563D01*
X88114Y164598D01*
X87198D01*
Y164876D01*
X88168D01*
Y165084D01*
X87387D01*
Y166573D01*
X87975D01*
Y166835D01*
X87630D01*
Y166936D01*
X87627Y166933D01*
X87621Y166927D01*
X87611Y166914D01*
X87599Y166895D01*
X87580Y166876D01*
X87561Y166851D01*
X87510Y166794D01*
X87453Y166731D01*
X87387Y166661D01*
X87318Y166588D01*
X87248Y166522D01*
X87005Y166781D01*
X87011Y166784D01*
X87024Y166800D01*
X87046Y166822D01*
X87077Y166851D01*
X87112Y166889D01*
X87156Y166936D01*
X87204Y166987D01*
X87257Y167047D01*
X87311Y167110D01*
X87368Y167179D01*
X87428Y167255D01*
X87488Y167337D01*
X87548Y167423D01*
X87605Y167511D01*
X87662Y167606D01*
X87716Y167701D01*
X87975Y167543D01*
X87978D01*
X87981Y167540D01*
X87994Y167530D01*
X88010Y167517D01*
X88025Y167502D01*
X88032Y167483D01*
Y167473D01*
X88025Y167464D01*
X88019Y167451D01*
X88003Y167442D01*
X87984Y167432D01*
X87959Y167423D01*
X87735Y167110D01*
X88913D01*
X88910Y167113D01*
X88907Y167116D01*
X88898Y167126D01*
X88885Y167138D01*
X88869Y167154D01*
X88850Y167176D01*
X88831Y167198D01*
X88806Y167227D01*
X88781Y167255D01*
X88752Y167290D01*
X88721Y167328D01*
X88686Y167366D01*
X88651Y167410D01*
X88613Y167457D01*
X88572Y167508D01*
X88531Y167562D01*
X88774Y167717D01*
X88781Y167710D01*
D02*
G37*
G36*
X90335Y158518D02*
Y158512D01*
X90338Y158499D01*
X90342Y158480D01*
X90351Y158458D01*
X90364Y158436D01*
X90386Y158417D01*
X90414Y158404D01*
X90455Y158398D01*
X90598D01*
X90607Y158401D01*
X90623Y158404D01*
X90639Y158411D01*
X90658Y158423D01*
X90674Y158442D01*
X90689Y158467D01*
X90699Y158502D01*
X90715Y158641D01*
X90958Y158553D01*
X90923Y158398D01*
Y158395D01*
X90920Y158388D01*
X90917Y158379D01*
X90911Y158366D01*
X90895Y158332D01*
X90869Y158294D01*
X90835Y158256D01*
X90812Y158237D01*
X90787Y158221D01*
X90756Y158208D01*
X90724Y158199D01*
X90689Y158192D01*
X90648Y158189D01*
X90392D01*
X90376Y158192D01*
X90358D01*
X90332Y158199D01*
X90307Y158205D01*
X90279Y158215D01*
X90250Y158227D01*
X90218Y158243D01*
X90190Y158262D01*
X90165Y158284D01*
X90143Y158312D01*
X90121Y158347D01*
X90105Y158385D01*
X90095Y158433D01*
X90092Y158483D01*
Y158641D01*
X89571D01*
Y158537D01*
Y158534D01*
Y158521D01*
X89568Y158502D01*
X89564Y158477D01*
X89561Y158445D01*
X89552Y158411D01*
X89542Y158373D01*
X89526Y158332D01*
X89511Y158287D01*
X89485Y158246D01*
X89460Y158205D01*
X89425Y158164D01*
X89387Y158126D01*
X89340Y158091D01*
X89286Y158060D01*
X89226Y158034D01*
X89068Y158224D01*
X89071D01*
X89081Y158227D01*
X89094Y158233D01*
X89109Y158240D01*
X89150Y158262D01*
X89176Y158275D01*
X89201Y158294D01*
X89223Y158316D01*
X89248Y158341D01*
X89270Y158369D01*
X89289Y158401D01*
X89305Y158436D01*
X89318Y158477D01*
X89327Y158521D01*
X89331Y158572D01*
Y158916D01*
X90335D01*
Y158518D01*
D02*
G37*
G36*
X88310Y159052D02*
X88329Y159046D01*
X88345Y159036D01*
X88357Y159023D01*
Y159014D01*
Y159004D01*
X88351Y158992D01*
X88341Y158979D01*
X88326Y158967D01*
X88307Y158951D01*
Y158780D01*
X89087D01*
Y158572D01*
X88307D01*
Y158379D01*
X88967D01*
Y158174D01*
X87321D01*
Y158379D01*
X88013D01*
Y158572D01*
X87128D01*
Y158780D01*
X88013D01*
Y159055D01*
X88297D01*
X88310Y159052D01*
D02*
G37*
G36*
X90680Y157911D02*
X90683D01*
X90686Y157908D01*
X90699Y157895D01*
X90715Y157880D01*
X90730Y157861D01*
X90737Y157845D01*
Y157838D01*
X90730Y157832D01*
X90724Y157826D01*
X90708Y157823D01*
X90689D01*
X90664Y157826D01*
X90661Y157823D01*
X90654Y157813D01*
X90642Y157801D01*
X90626Y157782D01*
X90604Y157759D01*
X90579Y157734D01*
X90550Y157706D01*
X90519Y157677D01*
X90446Y157611D01*
X90364Y157542D01*
X90272Y157472D01*
X90177Y157409D01*
X90180D01*
X90193Y157402D01*
X90209Y157396D01*
X90234Y157387D01*
X90266Y157374D01*
X90307Y157361D01*
X90351Y157349D01*
X90405Y157333D01*
X90462Y157317D01*
X90528Y157301D01*
X90598Y157285D01*
X90677Y157270D01*
X90759Y157257D01*
X90850Y157241D01*
X90945Y157229D01*
X91046Y157219D01*
X90888Y156941D01*
X90882D01*
X90863Y156947D01*
X90832Y156954D01*
X90794Y156963D01*
X90743Y156976D01*
X90686Y156992D01*
X90620Y157007D01*
X90550Y157029D01*
X90474Y157052D01*
X90395Y157077D01*
X90231Y157131D01*
X90064Y157197D01*
X89981Y157232D01*
X89902Y157270D01*
X89896Y157267D01*
X89880Y157260D01*
X89855Y157248D01*
X89820Y157235D01*
X89779Y157216D01*
X89732Y157197D01*
X89678Y157175D01*
X89618Y157153D01*
X89555Y157127D01*
X89489Y157105D01*
X89353Y157058D01*
X89217Y157020D01*
X89150Y157007D01*
X89087Y156995D01*
X88948Y157235D01*
X88951D01*
X88967Y157238D01*
X88986Y157241D01*
X89015Y157244D01*
X89049Y157251D01*
X89090Y157260D01*
X89138Y157270D01*
X89188Y157279D01*
X89242Y157292D01*
X89302Y157305D01*
X89422Y157339D01*
X89548Y157380D01*
X89675Y157428D01*
X89672Y157431D01*
X89665Y157434D01*
X89656Y157443D01*
X89643Y157456D01*
X89609Y157488D01*
X89564Y157529D01*
X89511Y157579D01*
X89457Y157639D01*
X89400Y157703D01*
X89346Y157772D01*
X89138D01*
Y157981D01*
X90440D01*
X90490Y158050D01*
X90680Y157911D01*
D02*
G37*
G36*
X89002Y157305D02*
X87665D01*
Y157301D01*
X87659Y157289D01*
X87649Y157270D01*
X87637Y157244D01*
X87621Y157213D01*
X87602Y157175D01*
X87580Y157137D01*
X87551Y157096D01*
X87523Y157052D01*
X87485Y157007D01*
X87447Y156963D01*
X87403Y156919D01*
X87356Y156875D01*
X87302Y156837D01*
X87245Y156799D01*
X87182Y156767D01*
X87008Y157011D01*
X87011Y157014D01*
X87024Y157020D01*
X87043Y157029D01*
X87068Y157045D01*
X87096Y157064D01*
X87128Y157086D01*
X87163Y157115D01*
X87198Y157143D01*
X87232Y157178D01*
X87267Y157216D01*
X87299Y157257D01*
X87327Y157301D01*
X87352Y157352D01*
X87371Y157402D01*
X87384Y157456D01*
X87387Y157513D01*
Y158016D01*
X89002D01*
Y157305D01*
D02*
G37*
G36*
X90560Y156698D02*
X90076D01*
Y155658D01*
X90993Y155712D01*
Y155453D01*
X90076Y155402D01*
Y155020D01*
X89729D01*
Y155386D01*
X87182Y155282D01*
X87178Y155276D01*
X87169Y155263D01*
X87153Y155244D01*
X87134Y155228D01*
X87119Y155216D01*
X87099D01*
X87093Y155219D01*
X87087Y155228D01*
X87081Y155244D01*
X87077Y155263D01*
X87043Y155573D01*
X87943Y155589D01*
Y156698D01*
X87526D01*
Y156976D01*
X90560D01*
Y156698D01*
D02*
G37*
G36*
X84629Y19683D02*
X84652Y19679D01*
X84679Y19672D01*
X84705Y19664D01*
X84730Y19654D01*
X84749Y19637D01*
X84751Y19635D01*
X84755Y19628D01*
X84763Y19618D01*
X84772Y19603D01*
X84780Y19586D01*
X84789Y19565D01*
X84793Y19542D01*
X84795Y19517D01*
Y19460D01*
Y19458D01*
Y19450D01*
X84793Y19435D01*
X84789Y19420D01*
X84784Y19401D01*
X84776Y19383D01*
X84763Y19364D01*
X84749Y19345D01*
X84747Y19343D01*
X84740Y19339D01*
X84728Y19330D01*
X84713Y19322D01*
X84690Y19313D01*
X84663Y19305D01*
X84629Y19301D01*
X84589Y19299D01*
X84570D01*
X84551Y19301D01*
X84526Y19305D01*
X84501Y19309D01*
X84474Y19318D01*
X84451Y19330D01*
X84430Y19345D01*
X84427Y19347D01*
X84423Y19353D01*
X84415Y19364D01*
X84408Y19376D01*
X84400Y19393D01*
X84392Y19414D01*
X84387Y19435D01*
X84385Y19460D01*
Y19517D01*
Y19521D01*
Y19530D01*
X84387Y19542D01*
X84392Y19559D01*
X84396Y19578D01*
X84404Y19597D01*
X84415Y19618D01*
X84430Y19637D01*
X84432Y19639D01*
X84438Y19645D01*
X84451Y19651D01*
X84467Y19662D01*
X84488Y19670D01*
X84516Y19677D01*
X84549Y19683D01*
X84589Y19685D01*
X84608D01*
X84629Y19683D01*
D02*
G37*
G36*
X79198D02*
X79221Y19679D01*
X79249Y19672D01*
X79274Y19664D01*
X79299Y19654D01*
X79318Y19637D01*
X79320Y19635D01*
X79324Y19628D01*
X79333Y19618D01*
X79341Y19603D01*
X79350Y19586D01*
X79358Y19565D01*
X79362Y19542D01*
X79364Y19517D01*
Y19460D01*
Y19458D01*
Y19450D01*
X79362Y19435D01*
X79358Y19420D01*
X79354Y19401D01*
X79345Y19383D01*
X79333Y19364D01*
X79318Y19345D01*
X79316Y19343D01*
X79310Y19339D01*
X79297Y19330D01*
X79282Y19322D01*
X79259Y19313D01*
X79232Y19305D01*
X79198Y19301D01*
X79159Y19299D01*
X79140D01*
X79121Y19301D01*
X79096Y19305D01*
X79070Y19309D01*
X79043Y19318D01*
X79020Y19330D01*
X78999Y19345D01*
X78997Y19347D01*
X78993Y19353D01*
X78984Y19364D01*
X78978Y19376D01*
X78970Y19393D01*
X78961Y19414D01*
X78957Y19435D01*
X78955Y19460D01*
Y19517D01*
Y19521D01*
Y19530D01*
X78957Y19542D01*
X78961Y19559D01*
X78965Y19578D01*
X78974Y19597D01*
X78984Y19618D01*
X78999Y19637D01*
X79001Y19639D01*
X79007Y19645D01*
X79020Y19651D01*
X79037Y19662D01*
X79058Y19670D01*
X79085Y19677D01*
X79119Y19683D01*
X79159Y19685D01*
X79177D01*
X79198Y19683D01*
D02*
G37*
G36*
X88266Y19017D02*
X88287Y19015D01*
X88310Y19011D01*
X88338Y19007D01*
X88365Y19000D01*
X88396Y18992D01*
X88426Y18981D01*
X88459Y18969D01*
X88491Y18954D01*
X88522Y18935D01*
X88554Y18914D01*
X88585Y18891D01*
X88613Y18864D01*
X88615Y18862D01*
X88619Y18858D01*
X88625Y18847D01*
X88636Y18837D01*
X88646Y18820D01*
X88659Y18801D01*
X88674Y18778D01*
X88686Y18753D01*
X88701Y18723D01*
X88714Y18690D01*
X88726Y18654D01*
X88737Y18614D01*
X88747Y18572D01*
X88753Y18528D01*
X88758Y18480D01*
X88760Y18427D01*
Y17425D01*
X88478D01*
Y18377D01*
Y18379D01*
Y18381D01*
Y18394D01*
X88476Y18415D01*
X88472Y18440D01*
X88468Y18471D01*
X88459Y18505D01*
X88449Y18541D01*
X88434Y18578D01*
X88417Y18616D01*
X88394Y18652D01*
X88365Y18688D01*
X88331Y18717D01*
X88293Y18742D01*
X88245Y18763D01*
X88193Y18776D01*
X88163Y18778D01*
X88132Y18780D01*
X88107D01*
X88090Y18778D01*
X88069Y18776D01*
X88046Y18774D01*
X87997Y18763D01*
X87995D01*
X87987Y18761D01*
X87974Y18757D01*
X87958Y18751D01*
X87941Y18742D01*
X87920Y18734D01*
X87880Y18709D01*
X87878Y18706D01*
X87871Y18702D01*
X87863Y18694D01*
X87850Y18683D01*
X87838Y18671D01*
X87823Y18656D01*
X87810Y18637D01*
X87798Y18618D01*
X87796Y18616D01*
X87794Y18610D01*
X87787Y18597D01*
X87783Y18583D01*
X87777Y18564D01*
X87771Y18543D01*
X87769Y18519D01*
X87766Y18492D01*
Y17425D01*
X87487D01*
Y18981D01*
X87766D01*
Y18721D01*
X87779D01*
X87781Y18723D01*
X87783Y18732D01*
X87789Y18742D01*
X87796Y18757D01*
X87804Y18774D01*
X87815Y18792D01*
X87840Y18832D01*
X87842Y18835D01*
X87846Y18841D01*
X87855Y18851D01*
X87865Y18864D01*
X87878Y18879D01*
X87894Y18895D01*
X87930Y18927D01*
X87932Y18929D01*
X87941Y18933D01*
X87951Y18942D01*
X87966Y18952D01*
X87985Y18963D01*
X88006Y18973D01*
X88031Y18984D01*
X88056Y18994D01*
X88060Y18996D01*
X88069Y18998D01*
X88086Y19003D01*
X88104Y19007D01*
X88130Y19011D01*
X88159Y19015D01*
X88191Y19019D01*
X88249D01*
X88266Y19017D01*
D02*
G37*
G36*
X78037Y18706D02*
X77716D01*
X77701Y18704D01*
X77684Y18702D01*
X77665Y18700D01*
X77642Y18696D01*
X77619Y18692D01*
X77567Y18677D01*
X77514Y18656D01*
X77487Y18643D01*
X77462Y18629D01*
X77437Y18610D01*
X77413Y18589D01*
X77411Y18587D01*
X77409Y18583D01*
X77403Y18576D01*
X77394Y18568D01*
X77386Y18557D01*
X77376Y18543D01*
X77365Y18526D01*
X77355Y18509D01*
X77344Y18488D01*
X77334Y18465D01*
X77315Y18415D01*
X77300Y18356D01*
X77298Y18324D01*
X77296Y18291D01*
Y17659D01*
X77884D01*
Y17425D01*
X76578D01*
Y17659D01*
X77014D01*
Y18748D01*
X76578D01*
Y18981D01*
X77296D01*
Y18578D01*
X77313D01*
Y18580D01*
X77315Y18587D01*
X77319Y18597D01*
X77323Y18610D01*
X77329Y18624D01*
X77336Y18643D01*
X77355Y18685D01*
X77380Y18734D01*
X77411Y18782D01*
X77449Y18830D01*
X77493Y18874D01*
X77495Y18877D01*
X77500Y18879D01*
X77506Y18885D01*
X77516Y18891D01*
X77529Y18900D01*
X77546Y18908D01*
X77562Y18918D01*
X77583Y18929D01*
X77607Y18937D01*
X77632Y18948D01*
X77659Y18956D01*
X77691Y18965D01*
X77722Y18971D01*
X77756Y18977D01*
X77794Y18979D01*
X77831Y18981D01*
X78037D01*
Y18706D01*
D02*
G37*
G36*
X80964Y19017D02*
X80985D01*
X81009Y19015D01*
X81034Y19011D01*
X81061Y19007D01*
X81122Y18994D01*
X81183Y18977D01*
X81246Y18952D01*
X81275Y18935D01*
X81303Y18918D01*
X81305Y18916D01*
X81309Y18914D01*
X81317Y18908D01*
X81326Y18900D01*
X81338Y18891D01*
X81353Y18879D01*
X81384Y18849D01*
X81418Y18811D01*
X81454Y18765D01*
X81487Y18715D01*
X81517Y18656D01*
X81296Y18536D01*
Y18538D01*
X81294Y18541D01*
X81292Y18547D01*
X81288Y18555D01*
X81277Y18576D01*
X81265Y18601D01*
X81246Y18631D01*
X81223Y18660D01*
X81193Y18690D01*
X81162Y18717D01*
X81158Y18719D01*
X81145Y18727D01*
X81126Y18738D01*
X81099Y18751D01*
X81063Y18763D01*
X81023Y18774D01*
X80977Y18782D01*
X80927Y18784D01*
X80908D01*
X80893Y18782D01*
X80876Y18780D01*
X80857Y18778D01*
X80836Y18774D01*
X80811Y18769D01*
X80761Y18753D01*
X80736Y18744D01*
X80710Y18732D01*
X80683Y18717D01*
X80660Y18700D01*
X80635Y18681D01*
X80614Y18658D01*
X80612Y18656D01*
X80610Y18652D01*
X80603Y18645D01*
X80597Y18635D01*
X80589Y18622D01*
X80580Y18608D01*
X80570Y18591D01*
X80559Y18570D01*
X80549Y18549D01*
X80538Y18524D01*
X80530Y18498D01*
X80521Y18469D01*
X80509Y18406D01*
X80507Y18372D01*
X80505Y18337D01*
Y18070D01*
Y18068D01*
Y18062D01*
Y18051D01*
X80507Y18039D01*
X80509Y18022D01*
X80511Y18001D01*
X80513Y17980D01*
X80519Y17957D01*
X80532Y17906D01*
X80551Y17852D01*
X80563Y17824D01*
X80578Y17799D01*
X80595Y17774D01*
X80614Y17749D01*
X80616Y17747D01*
X80620Y17742D01*
X80626Y17738D01*
X80635Y17730D01*
X80645Y17719D01*
X80660Y17709D01*
X80677Y17698D01*
X80696Y17688D01*
X80717Y17675D01*
X80740Y17665D01*
X80767Y17654D01*
X80796Y17644D01*
X80826Y17635D01*
X80860Y17631D01*
X80895Y17627D01*
X80933Y17625D01*
X80948D01*
X80958Y17627D01*
X80971D01*
X80985Y17629D01*
X81021Y17633D01*
X81059Y17642D01*
X81101Y17654D01*
X81143Y17671D01*
X81181Y17694D01*
X81183D01*
X81185Y17698D01*
X81198Y17707D01*
X81214Y17724D01*
X81238Y17745D01*
X81263Y17772D01*
X81288Y17806D01*
X81313Y17843D01*
X81338Y17887D01*
X81540Y17753D01*
Y17751D01*
X81536Y17747D01*
X81534Y17738D01*
X81527Y17726D01*
X81519Y17713D01*
X81511Y17696D01*
X81487Y17661D01*
X81456Y17619D01*
X81418Y17574D01*
X81372Y17530D01*
X81319Y17491D01*
X81317Y17488D01*
X81313Y17486D01*
X81305Y17482D01*
X81292Y17476D01*
X81277Y17467D01*
X81258Y17459D01*
X81238Y17451D01*
X81214Y17440D01*
X81187Y17432D01*
X81158Y17421D01*
X81126Y17413D01*
X81093Y17406D01*
X81055Y17398D01*
X81015Y17394D01*
X80975Y17392D01*
X80931Y17390D01*
X80901D01*
X80887Y17392D01*
X80870D01*
X80849Y17394D01*
X80828Y17396D01*
X80780Y17404D01*
X80729Y17413D01*
X80677Y17427D01*
X80624Y17446D01*
X80622D01*
X80618Y17448D01*
X80612Y17453D01*
X80601Y17457D01*
X80591Y17463D01*
X80576Y17470D01*
X80547Y17488D01*
X80511Y17512D01*
X80471Y17539D01*
X80433Y17572D01*
X80397Y17610D01*
Y17612D01*
X80393Y17614D01*
X80389Y17621D01*
X80383Y17629D01*
X80374Y17640D01*
X80366Y17652D01*
X80345Y17682D01*
X80322Y17719D01*
X80299Y17763D01*
X80276Y17812D01*
X80255Y17866D01*
Y17868D01*
X80253Y17873D01*
X80251Y17881D01*
X80246Y17894D01*
X80244Y17906D01*
X80240Y17923D01*
X80236Y17942D01*
X80232Y17965D01*
X80225Y17988D01*
X80221Y18015D01*
X80215Y18072D01*
X80208Y18135D01*
X80206Y18204D01*
Y18207D01*
Y18213D01*
Y18223D01*
Y18236D01*
X80208Y18251D01*
Y18270D01*
X80211Y18291D01*
X80213Y18316D01*
X80219Y18366D01*
X80227Y18423D01*
X80238Y18482D01*
X80255Y18538D01*
Y18541D01*
X80257Y18545D01*
X80261Y18553D01*
X80263Y18564D01*
X80269Y18576D01*
X80276Y18593D01*
X80292Y18627D01*
X80311Y18669D01*
X80337Y18711D01*
X80364Y18755D01*
X80397Y18797D01*
X80400Y18799D01*
X80402Y18801D01*
X80414Y18813D01*
X80433Y18835D01*
X80461Y18858D01*
X80494Y18883D01*
X80532Y18910D01*
X80576Y18937D01*
X80624Y18960D01*
X80626D01*
X80631Y18963D01*
X80637Y18967D01*
X80647Y18969D01*
X80660Y18975D01*
X80677Y18979D01*
X80694Y18984D01*
X80712Y18990D01*
X80757Y19000D01*
X80809Y19011D01*
X80866Y19017D01*
X80927Y19019D01*
X80950D01*
X80964Y19017D01*
D02*
G37*
G36*
X97823Y19305D02*
X97311D01*
Y17652D01*
X97823D01*
Y17425D01*
X96507D01*
Y17652D01*
X97021D01*
Y19305D01*
X96507D01*
Y19532D01*
X97823D01*
Y19305D01*
D02*
G37*
G36*
X96185Y17425D02*
X95875D01*
X95704Y18007D01*
X94997D01*
X94827Y17425D01*
X94528D01*
X95158Y19532D01*
X95553D01*
X96185Y17425D01*
D02*
G37*
G36*
X91874Y17659D02*
X92405D01*
Y17425D01*
X91063D01*
Y17659D01*
X91593D01*
Y19425D01*
X91063D01*
Y19658D01*
X91874D01*
Y17659D01*
D02*
G37*
G36*
X89917Y19017D02*
X89942Y19015D01*
X89969Y19011D01*
X89999Y19007D01*
X90032Y19003D01*
X90104Y18986D01*
X90141Y18973D01*
X90179Y18960D01*
X90215Y18944D01*
X90251Y18925D01*
X90286Y18904D01*
X90318Y18879D01*
X90320Y18877D01*
X90324Y18872D01*
X90333Y18864D01*
X90343Y18853D01*
X90356Y18839D01*
X90370Y18820D01*
X90385Y18801D01*
X90400Y18776D01*
X90415Y18751D01*
X90429Y18719D01*
X90444Y18688D01*
X90456Y18652D01*
X90467Y18614D01*
X90475Y18572D01*
X90480Y18528D01*
X90482Y18482D01*
Y17659D01*
X90692D01*
Y17425D01*
X90494D01*
X90484Y17427D01*
X90461Y17430D01*
X90429Y17434D01*
X90396Y17442D01*
X90362Y17455D01*
X90330Y17474D01*
X90303Y17497D01*
X90301Y17501D01*
X90293Y17509D01*
X90282Y17526D01*
X90270Y17547D01*
X90255Y17574D01*
X90242Y17606D01*
X90232Y17642D01*
X90223Y17684D01*
X90209D01*
Y17682D01*
X90207Y17677D01*
X90202Y17671D01*
X90198Y17661D01*
X90186Y17635D01*
X90169Y17606D01*
X90146Y17570D01*
X90116Y17535D01*
X90081Y17499D01*
X90041Y17467D01*
X90039D01*
X90036Y17463D01*
X90028Y17461D01*
X90020Y17455D01*
X90009Y17448D01*
X89995Y17442D01*
X89978Y17436D01*
X89961Y17430D01*
X89940Y17421D01*
X89917Y17415D01*
X89892Y17409D01*
X89864Y17402D01*
X89803Y17394D01*
X89736Y17390D01*
X89713D01*
X89696Y17392D01*
X89675Y17394D01*
X89652Y17396D01*
X89627Y17400D01*
X89598Y17404D01*
X89537Y17419D01*
X89505Y17430D01*
X89472Y17442D01*
X89440Y17457D01*
X89409Y17474D01*
X89379Y17493D01*
X89352Y17514D01*
X89350Y17516D01*
X89346Y17520D01*
X89339Y17526D01*
X89329Y17537D01*
X89318Y17549D01*
X89308Y17566D01*
X89293Y17583D01*
X89280Y17604D01*
X89268Y17627D01*
X89255Y17654D01*
X89243Y17682D01*
X89232Y17713D01*
X89222Y17747D01*
X89215Y17782D01*
X89211Y17820D01*
X89209Y17860D01*
Y17862D01*
Y17871D01*
X89211Y17881D01*
Y17896D01*
X89213Y17915D01*
X89218Y17938D01*
X89222Y17961D01*
X89230Y17986D01*
X89239Y18013D01*
X89249Y18041D01*
X89262Y18070D01*
X89278Y18097D01*
X89295Y18125D01*
X89318Y18152D01*
X89341Y18177D01*
X89371Y18200D01*
X89373Y18202D01*
X89379Y18204D01*
X89388Y18211D01*
X89402Y18219D01*
X89419Y18228D01*
X89442Y18238D01*
X89467Y18249D01*
X89497Y18261D01*
X89530Y18272D01*
X89568Y18282D01*
X89610Y18293D01*
X89656Y18301D01*
X89707Y18309D01*
X89763Y18316D01*
X89822Y18318D01*
X89885Y18320D01*
X90202D01*
Y18459D01*
Y18461D01*
Y18467D01*
Y18475D01*
X90200Y18486D01*
Y18501D01*
X90198Y18515D01*
X90192Y18551D01*
X90179Y18593D01*
X90162Y18633D01*
X90141Y18673D01*
X90127Y18690D01*
X90110Y18706D01*
X90106Y18711D01*
X90093Y18719D01*
X90072Y18734D01*
X90043Y18748D01*
X90007Y18763D01*
X89963Y18778D01*
X89911Y18786D01*
X89850Y18790D01*
X89824D01*
X89810Y18788D01*
X89795D01*
X89759Y18782D01*
X89719Y18776D01*
X89677Y18765D01*
X89635Y18751D01*
X89596Y18730D01*
X89591Y18727D01*
X89579Y18719D01*
X89562Y18706D01*
X89539Y18688D01*
X89516Y18664D01*
X89488Y18635D01*
X89463Y18604D01*
X89438Y18566D01*
X89259Y18709D01*
X89262Y18711D01*
X89266Y18719D01*
X89272Y18730D01*
X89283Y18744D01*
X89293Y18763D01*
X89308Y18782D01*
X89325Y18803D01*
X89344Y18824D01*
X89346Y18826D01*
X89354Y18835D01*
X89364Y18845D01*
X89381Y18858D01*
X89400Y18872D01*
X89421Y18889D01*
X89446Y18906D01*
X89474Y18923D01*
X89478Y18925D01*
X89486Y18931D01*
X89503Y18937D01*
X89524Y18948D01*
X89549Y18958D01*
X89579Y18971D01*
X89612Y18981D01*
X89648Y18992D01*
X89650D01*
X89652Y18994D01*
X89658D01*
X89665Y18996D01*
X89686Y19000D01*
X89713Y19007D01*
X89747Y19011D01*
X89784Y19015D01*
X89827Y19017D01*
X89871Y19019D01*
X89898D01*
X89917Y19017D01*
D02*
G37*
G36*
X84730Y17659D02*
X85242D01*
Y17425D01*
X83902D01*
Y17659D01*
X84448D01*
Y18748D01*
X83902D01*
Y18981D01*
X84730D01*
Y17659D01*
D02*
G37*
G36*
X82678Y18981D02*
X83369D01*
Y18748D01*
X82678D01*
Y17659D01*
X83369D01*
Y17425D01*
X82749D01*
X82737Y17427D01*
X82722Y17430D01*
X82703Y17432D01*
X82661Y17438D01*
X82615Y17451D01*
X82569Y17470D01*
X82546Y17480D01*
X82525Y17495D01*
X82506Y17509D01*
X82487Y17528D01*
Y17530D01*
X82483Y17533D01*
X82479Y17539D01*
X82472Y17547D01*
X82466Y17558D01*
X82458Y17570D01*
X82443Y17602D01*
X82426Y17640D01*
X82411Y17686D01*
X82401Y17738D01*
X82399Y17768D01*
X82397Y17797D01*
Y18748D01*
X81899D01*
Y18981D01*
X82273D01*
X82288Y18984D01*
X82306Y18986D01*
X82325Y18990D01*
X82344Y18994D01*
X82361Y19003D01*
X82376Y19013D01*
X82378Y19015D01*
X82382Y19019D01*
X82386Y19028D01*
X82395Y19040D01*
X82401Y19057D01*
X82405Y19076D01*
X82409Y19101D01*
X82411Y19131D01*
Y19532D01*
X82678D01*
Y18981D01*
D02*
G37*
G36*
X79299Y17659D02*
X79812D01*
Y17425D01*
X78472D01*
Y17659D01*
X79018D01*
Y18748D01*
X78472D01*
Y18981D01*
X79299D01*
Y17659D01*
D02*
G37*
G36*
X76143Y19282D02*
X75095D01*
Y18616D01*
X76053D01*
Y18366D01*
X75095D01*
Y17425D01*
X74803D01*
Y19532D01*
X76143D01*
Y19282D01*
D02*
G37*
G36*
X86347Y19017D02*
X86364D01*
X86383Y19015D01*
X86404Y19013D01*
X86450Y19005D01*
X86500Y18994D01*
X86553Y18979D01*
X86603Y18960D01*
X86605D01*
X86609Y18958D01*
X86616Y18954D01*
X86626Y18950D01*
X86637Y18944D01*
X86651Y18937D01*
X86683Y18918D01*
X86718Y18895D01*
X86756Y18868D01*
X86794Y18835D01*
X86832Y18797D01*
X86834Y18795D01*
X86836Y18792D01*
X86840Y18786D01*
X86847Y18778D01*
X86855Y18767D01*
X86863Y18755D01*
X86884Y18725D01*
X86908Y18688D01*
X86933Y18643D01*
X86956Y18595D01*
X86975Y18541D01*
Y18538D01*
X86977Y18534D01*
X86979Y18526D01*
X86983Y18515D01*
X86987Y18501D01*
X86992Y18484D01*
X86996Y18465D01*
X87000Y18442D01*
X87004Y18419D01*
X87008Y18394D01*
X87017Y18337D01*
X87023Y18272D01*
X87025Y18204D01*
Y18202D01*
Y18196D01*
Y18186D01*
Y18173D01*
X87023Y18156D01*
Y18137D01*
X87021Y18114D01*
X87019Y18091D01*
X87012Y18039D01*
X87004Y17982D01*
X86992Y17923D01*
X86975Y17864D01*
Y17862D01*
X86973Y17858D01*
X86971Y17850D01*
X86966Y17839D01*
X86960Y17827D01*
X86954Y17812D01*
X86939Y17776D01*
X86918Y17736D01*
X86895Y17694D01*
X86866Y17650D01*
X86832Y17608D01*
Y17606D01*
X86828Y17604D01*
X86815Y17591D01*
X86794Y17572D01*
X86769Y17549D01*
X86735Y17522D01*
X86695Y17495D01*
X86651Y17470D01*
X86603Y17446D01*
X86601D01*
X86597Y17444D01*
X86590Y17442D01*
X86580Y17438D01*
X86567Y17434D01*
X86553Y17427D01*
X86536Y17423D01*
X86517Y17419D01*
X86473Y17409D01*
X86422Y17398D01*
X86366Y17392D01*
X86305Y17390D01*
X86275D01*
X86261Y17392D01*
X86244D01*
X86225Y17394D01*
X86204Y17396D01*
X86156Y17404D01*
X86105Y17413D01*
X86053Y17427D01*
X86002Y17446D01*
X86000D01*
X85996Y17448D01*
X85990Y17453D01*
X85979Y17457D01*
X85969Y17463D01*
X85956Y17470D01*
X85925Y17488D01*
X85889Y17512D01*
X85851Y17539D01*
X85813Y17570D01*
X85776Y17608D01*
Y17610D01*
X85771Y17612D01*
X85767Y17619D01*
X85761Y17627D01*
X85752Y17638D01*
X85744Y17650D01*
X85723Y17680D01*
X85698Y17717D01*
X85675Y17761D01*
X85652Y17810D01*
X85631Y17864D01*
Y17866D01*
X85629Y17871D01*
X85627Y17879D01*
X85622Y17892D01*
X85620Y17904D01*
X85616Y17923D01*
X85612Y17942D01*
X85608Y17963D01*
X85601Y17988D01*
X85597Y18013D01*
X85591Y18072D01*
X85584Y18135D01*
X85582Y18204D01*
Y18207D01*
Y18213D01*
Y18223D01*
Y18236D01*
X85584Y18253D01*
Y18272D01*
X85587Y18293D01*
X85589Y18316D01*
X85595Y18368D01*
X85603Y18425D01*
X85614Y18484D01*
X85631Y18541D01*
Y18543D01*
X85633Y18547D01*
X85637Y18555D01*
X85639Y18566D01*
X85645Y18578D01*
X85652Y18593D01*
X85668Y18629D01*
X85687Y18669D01*
X85713Y18713D01*
X85742Y18755D01*
X85776Y18797D01*
X85778Y18799D01*
X85780Y18801D01*
X85792Y18813D01*
X85813Y18835D01*
X85839Y18858D01*
X85872Y18883D01*
X85912Y18910D01*
X85954Y18937D01*
X86002Y18960D01*
X86005D01*
X86009Y18963D01*
X86015Y18967D01*
X86026Y18969D01*
X86038Y18975D01*
X86053Y18979D01*
X86070Y18984D01*
X86091Y18990D01*
X86135Y19000D01*
X86185Y19011D01*
X86244Y19017D01*
X86305Y19019D01*
X86332D01*
X86347Y19017D01*
D02*
G37*
G36*
X88942Y14736D02*
X88663D01*
Y14997D01*
X88646D01*
Y14995D01*
X88644Y14990D01*
X88640Y14982D01*
X88634Y14974D01*
X88627Y14961D01*
X88619Y14946D01*
X88598Y14915D01*
X88571Y14879D01*
X88539Y14843D01*
X88501Y14808D01*
X88459Y14776D01*
X88457D01*
X88453Y14772D01*
X88447Y14770D01*
X88438Y14763D01*
X88428Y14759D01*
X88413Y14753D01*
X88396Y14745D01*
X88380Y14738D01*
X88338Y14724D01*
X88287Y14713D01*
X88233Y14705D01*
X88170Y14701D01*
X88157D01*
X88142Y14703D01*
X88123Y14705D01*
X88100Y14707D01*
X88073Y14711D01*
X88042Y14717D01*
X88010Y14728D01*
X87974Y14738D01*
X87939Y14751D01*
X87903Y14770D01*
X87865Y14789D01*
X87829Y14814D01*
X87794Y14841D01*
X87760Y14873D01*
X87729Y14910D01*
X87726Y14913D01*
X87722Y14921D01*
X87714Y14934D01*
X87703Y14950D01*
X87691Y14971D01*
X87678Y14999D01*
X87664Y15030D01*
X87649Y15066D01*
X87632Y15106D01*
X87617Y15152D01*
X87605Y15200D01*
X87592Y15255D01*
X87582Y15314D01*
X87573Y15377D01*
X87569Y15444D01*
X87567Y15515D01*
Y15517D01*
Y15519D01*
Y15532D01*
X87569Y15553D01*
Y15580D01*
X87571Y15612D01*
X87575Y15650D01*
X87580Y15692D01*
X87588Y15738D01*
X87596Y15784D01*
X87607Y15834D01*
X87619Y15885D01*
X87636Y15935D01*
X87653Y15984D01*
X87676Y16032D01*
X87699Y16076D01*
X87729Y16118D01*
X87731Y16120D01*
X87737Y16126D01*
X87745Y16137D01*
X87758Y16152D01*
X87775Y16166D01*
X87794Y16185D01*
X87817Y16204D01*
X87844Y16225D01*
X87874Y16244D01*
X87907Y16263D01*
X87943Y16282D01*
X87983Y16296D01*
X88025Y16311D01*
X88071Y16322D01*
X88119Y16328D01*
X88170Y16330D01*
X88186D01*
X88199Y16328D01*
X88214D01*
X88231Y16326D01*
X88270Y16320D01*
X88317Y16311D01*
X88365Y16296D01*
X88413Y16278D01*
X88459Y16252D01*
X88462D01*
X88466Y16248D01*
X88470Y16244D01*
X88478Y16238D01*
X88499Y16221D01*
X88527Y16196D01*
X88556Y16166D01*
X88587Y16128D01*
X88619Y16082D01*
X88646Y16032D01*
X88663D01*
Y16969D01*
X88942D01*
Y14736D01*
D02*
G37*
G36*
X84843Y16328D02*
X84862Y16326D01*
X84885Y16324D01*
X84913Y16320D01*
X84944Y16313D01*
X84975Y16303D01*
X85011Y16292D01*
X85047Y16278D01*
X85083Y16261D01*
X85120Y16240D01*
X85156Y16217D01*
X85192Y16187D01*
X85225Y16156D01*
X85257Y16118D01*
X85259Y16116D01*
X85263Y16107D01*
X85272Y16095D01*
X85282Y16078D01*
X85295Y16057D01*
X85307Y16030D01*
X85322Y15998D01*
X85339Y15963D01*
X85353Y15923D01*
X85368Y15879D01*
X85381Y15828D01*
X85393Y15774D01*
X85404Y15717D01*
X85412Y15654D01*
X85417Y15587D01*
X85419Y15515D01*
Y15513D01*
Y15511D01*
Y15498D01*
Y15477D01*
X85417Y15450D01*
X85414Y15419D01*
X85410Y15381D01*
X85406Y15339D01*
X85398Y15293D01*
X85389Y15244D01*
X85379Y15196D01*
X85366Y15146D01*
X85351Y15095D01*
X85333Y15045D01*
X85309Y14997D01*
X85286Y14953D01*
X85257Y14910D01*
X85255Y14908D01*
X85249Y14902D01*
X85240Y14892D01*
X85228Y14877D01*
X85211Y14862D01*
X85192Y14843D01*
X85169Y14824D01*
X85141Y14806D01*
X85112Y14787D01*
X85078Y14768D01*
X85043Y14749D01*
X85003Y14734D01*
X84961Y14719D01*
X84915Y14709D01*
X84866Y14703D01*
X84816Y14701D01*
X84799D01*
X84786Y14703D01*
X84772D01*
X84755Y14705D01*
X84715Y14711D01*
X84669Y14719D01*
X84621Y14732D01*
X84572Y14751D01*
X84526Y14776D01*
X84524D01*
X84522Y14780D01*
X84516Y14785D01*
X84507Y14791D01*
X84486Y14808D01*
X84459Y14833D01*
X84430Y14862D01*
X84398Y14902D01*
X84367Y14946D01*
X84339Y14997D01*
X84325D01*
Y14133D01*
X84043D01*
Y16292D01*
X84325D01*
Y16032D01*
X84339D01*
Y16034D01*
X84343Y16038D01*
X84346Y16047D01*
X84352Y16055D01*
X84358Y16068D01*
X84367Y16082D01*
X84390Y16114D01*
X84415Y16150D01*
X84448Y16185D01*
X84484Y16221D01*
X84526Y16252D01*
X84528D01*
X84532Y16257D01*
X84539Y16259D01*
X84547Y16265D01*
X84560Y16271D01*
X84572Y16278D01*
X84589Y16284D01*
X84606Y16292D01*
X84648Y16305D01*
X84698Y16318D01*
X84755Y16326D01*
X84816Y16330D01*
X84829D01*
X84843Y16328D01*
D02*
G37*
G36*
X81154D02*
X81174D01*
X81198Y16326D01*
X81223Y16322D01*
X81250Y16318D01*
X81311Y16305D01*
X81372Y16288D01*
X81435Y16263D01*
X81464Y16246D01*
X81492Y16229D01*
X81494Y16227D01*
X81498Y16225D01*
X81506Y16219D01*
X81515Y16210D01*
X81527Y16202D01*
X81542Y16189D01*
X81573Y16160D01*
X81607Y16122D01*
X81643Y16076D01*
X81676Y16026D01*
X81706Y15967D01*
X81485Y15847D01*
Y15849D01*
X81483Y15851D01*
X81481Y15858D01*
X81477Y15866D01*
X81466Y15887D01*
X81454Y15912D01*
X81435Y15942D01*
X81412Y15971D01*
X81382Y16000D01*
X81351Y16028D01*
X81347Y16030D01*
X81334Y16038D01*
X81315Y16049D01*
X81288Y16061D01*
X81252Y16074D01*
X81212Y16084D01*
X81166Y16093D01*
X81116Y16095D01*
X81097D01*
X81082Y16093D01*
X81065Y16091D01*
X81046Y16089D01*
X81025Y16084D01*
X81000Y16080D01*
X80950Y16063D01*
X80925Y16055D01*
X80899Y16042D01*
X80872Y16028D01*
X80849Y16011D01*
X80824Y15992D01*
X80803Y15969D01*
X80801Y15967D01*
X80799Y15963D01*
X80792Y15956D01*
X80786Y15946D01*
X80778Y15933D01*
X80769Y15919D01*
X80759Y15902D01*
X80748Y15881D01*
X80738Y15860D01*
X80727Y15834D01*
X80719Y15809D01*
X80710Y15780D01*
X80698Y15717D01*
X80696Y15683D01*
X80694Y15648D01*
Y15381D01*
Y15379D01*
Y15372D01*
Y15362D01*
X80696Y15349D01*
X80698Y15333D01*
X80700Y15312D01*
X80702Y15291D01*
X80708Y15268D01*
X80721Y15217D01*
X80740Y15163D01*
X80752Y15135D01*
X80767Y15110D01*
X80784Y15085D01*
X80803Y15060D01*
X80805Y15057D01*
X80809Y15053D01*
X80815Y15049D01*
X80824Y15041D01*
X80834Y15030D01*
X80849Y15020D01*
X80866Y15009D01*
X80885Y14999D01*
X80906Y14986D01*
X80929Y14976D01*
X80956Y14965D01*
X80985Y14955D01*
X81015Y14946D01*
X81049Y14942D01*
X81084Y14938D01*
X81122Y14936D01*
X81137D01*
X81147Y14938D01*
X81160D01*
X81174Y14940D01*
X81210Y14944D01*
X81248Y14953D01*
X81290Y14965D01*
X81332Y14982D01*
X81370Y15005D01*
X81372D01*
X81374Y15009D01*
X81387Y15018D01*
X81403Y15034D01*
X81427Y15055D01*
X81452Y15083D01*
X81477Y15116D01*
X81502Y15154D01*
X81527Y15198D01*
X81729Y15064D01*
Y15062D01*
X81725Y15057D01*
X81723Y15049D01*
X81716Y15036D01*
X81708Y15024D01*
X81700Y15007D01*
X81676Y14971D01*
X81645Y14929D01*
X81607Y14885D01*
X81561Y14841D01*
X81508Y14801D01*
X81506Y14799D01*
X81502Y14797D01*
X81494Y14793D01*
X81481Y14787D01*
X81466Y14778D01*
X81447Y14770D01*
X81427Y14761D01*
X81403Y14751D01*
X81376Y14742D01*
X81347Y14732D01*
X81315Y14724D01*
X81282Y14717D01*
X81244Y14709D01*
X81204Y14705D01*
X81164Y14703D01*
X81120Y14701D01*
X81090D01*
X81076Y14703D01*
X81059D01*
X81038Y14705D01*
X81017Y14707D01*
X80969Y14715D01*
X80918Y14724D01*
X80866Y14738D01*
X80813Y14757D01*
X80811D01*
X80807Y14759D01*
X80801Y14763D01*
X80790Y14768D01*
X80780Y14774D01*
X80765Y14780D01*
X80736Y14799D01*
X80700Y14822D01*
X80660Y14850D01*
X80622Y14883D01*
X80586Y14921D01*
Y14923D01*
X80582Y14925D01*
X80578Y14931D01*
X80572Y14940D01*
X80563Y14950D01*
X80555Y14963D01*
X80534Y14992D01*
X80511Y15030D01*
X80488Y15074D01*
X80465Y15123D01*
X80444Y15177D01*
Y15179D01*
X80442Y15183D01*
X80440Y15192D01*
X80435Y15204D01*
X80433Y15217D01*
X80429Y15234D01*
X80425Y15253D01*
X80421Y15276D01*
X80414Y15299D01*
X80410Y15326D01*
X80404Y15383D01*
X80397Y15446D01*
X80395Y15515D01*
Y15517D01*
Y15524D01*
Y15534D01*
Y15547D01*
X80397Y15562D01*
Y15580D01*
X80400Y15601D01*
X80402Y15627D01*
X80408Y15677D01*
X80416Y15734D01*
X80427Y15792D01*
X80444Y15849D01*
Y15851D01*
X80446Y15856D01*
X80450Y15864D01*
X80452Y15874D01*
X80458Y15887D01*
X80465Y15904D01*
X80481Y15937D01*
X80500Y15979D01*
X80526Y16021D01*
X80553Y16066D01*
X80586Y16107D01*
X80589Y16110D01*
X80591Y16112D01*
X80603Y16124D01*
X80622Y16145D01*
X80650Y16168D01*
X80683Y16194D01*
X80721Y16221D01*
X80765Y16248D01*
X80813Y16271D01*
X80815D01*
X80820Y16273D01*
X80826Y16278D01*
X80836Y16280D01*
X80849Y16286D01*
X80866Y16290D01*
X80883Y16294D01*
X80901Y16301D01*
X80946Y16311D01*
X80998Y16322D01*
X81055Y16328D01*
X81116Y16330D01*
X81139D01*
X81154Y16328D01*
D02*
G37*
G36*
X79879Y14736D02*
X79599D01*
Y14997D01*
X79587D01*
Y14995D01*
X79583Y14986D01*
X79579Y14974D01*
X79570Y14959D01*
X79562Y14942D01*
X79551Y14923D01*
X79526Y14881D01*
X79524Y14879D01*
X79520Y14873D01*
X79511Y14862D01*
X79501Y14850D01*
X79486Y14835D01*
X79471Y14820D01*
X79434Y14789D01*
X79431Y14787D01*
X79425Y14782D01*
X79413Y14774D01*
X79398Y14766D01*
X79379Y14755D01*
X79358Y14745D01*
X79335Y14734D01*
X79308Y14726D01*
X79303D01*
X79295Y14721D01*
X79280Y14717D01*
X79259Y14713D01*
X79236Y14709D01*
X79207Y14705D01*
X79175Y14703D01*
X79140Y14701D01*
X79129D01*
X79116Y14703D01*
X79100D01*
X79079Y14705D01*
X79056Y14709D01*
X79028Y14713D01*
X79001Y14719D01*
X78970Y14728D01*
X78938Y14738D01*
X78907Y14751D01*
X78873Y14766D01*
X78841Y14782D01*
X78810Y14803D01*
X78781Y14827D01*
X78751Y14854D01*
X78749Y14856D01*
X78745Y14860D01*
X78738Y14871D01*
X78728Y14883D01*
X78717Y14898D01*
X78705Y14917D01*
X78692Y14940D01*
X78680Y14965D01*
X78665Y14995D01*
X78652Y15028D01*
X78640Y15064D01*
X78629Y15104D01*
X78619Y15146D01*
X78613Y15190D01*
X78608Y15238D01*
X78606Y15291D01*
Y16292D01*
X78888D01*
Y15339D01*
Y15337D01*
Y15335D01*
Y15322D01*
X78890Y15301D01*
X78894Y15276D01*
X78898Y15247D01*
X78907Y15213D01*
X78917Y15177D01*
X78932Y15139D01*
X78948Y15102D01*
X78972Y15066D01*
X79001Y15032D01*
X79035Y15003D01*
X79075Y14978D01*
X79121Y14957D01*
X79173Y14944D01*
X79203Y14942D01*
X79234Y14940D01*
X79259D01*
X79276Y14942D01*
X79297Y14944D01*
X79320Y14946D01*
X79369Y14955D01*
X79371D01*
X79379Y14959D01*
X79392Y14961D01*
X79408Y14967D01*
X79425Y14976D01*
X79444Y14984D01*
X79484Y15007D01*
X79486Y15009D01*
X79492Y15013D01*
X79503Y15022D01*
X79513Y15032D01*
X79528Y15045D01*
X79541Y15062D01*
X79568Y15097D01*
X79570Y15100D01*
X79572Y15108D01*
X79579Y15118D01*
X79585Y15133D01*
X79589Y15152D01*
X79595Y15175D01*
X79597Y15198D01*
X79599Y15225D01*
Y16292D01*
X79879D01*
Y14736D01*
D02*
G37*
G36*
X86485Y16328D02*
X86511Y16326D01*
X86538Y16322D01*
X86567Y16318D01*
X86601Y16313D01*
X86672Y16296D01*
X86710Y16284D01*
X86748Y16271D01*
X86784Y16254D01*
X86819Y16236D01*
X86855Y16215D01*
X86887Y16189D01*
X86889Y16187D01*
X86893Y16183D01*
X86901Y16175D01*
X86912Y16164D01*
X86924Y16150D01*
X86939Y16131D01*
X86954Y16112D01*
X86968Y16086D01*
X86983Y16061D01*
X86998Y16030D01*
X87012Y15998D01*
X87025Y15963D01*
X87036Y15925D01*
X87044Y15883D01*
X87048Y15839D01*
X87050Y15792D01*
Y14969D01*
X87260D01*
Y14736D01*
X87063D01*
X87052Y14738D01*
X87029Y14740D01*
X86998Y14745D01*
X86964Y14753D01*
X86931Y14766D01*
X86899Y14785D01*
X86872Y14808D01*
X86870Y14812D01*
X86861Y14820D01*
X86851Y14837D01*
X86838Y14858D01*
X86823Y14885D01*
X86811Y14917D01*
X86800Y14953D01*
X86792Y14995D01*
X86777D01*
Y14992D01*
X86775Y14988D01*
X86771Y14982D01*
X86767Y14971D01*
X86754Y14946D01*
X86737Y14917D01*
X86714Y14881D01*
X86685Y14845D01*
X86649Y14810D01*
X86609Y14778D01*
X86607D01*
X86605Y14774D01*
X86597Y14772D01*
X86588Y14766D01*
X86578Y14759D01*
X86563Y14753D01*
X86546Y14747D01*
X86529Y14740D01*
X86509Y14732D01*
X86485Y14726D01*
X86460Y14719D01*
X86433Y14713D01*
X86372Y14705D01*
X86305Y14701D01*
X86282D01*
X86265Y14703D01*
X86244Y14705D01*
X86221Y14707D01*
X86196Y14711D01*
X86166Y14715D01*
X86105Y14730D01*
X86074Y14740D01*
X86040Y14753D01*
X86009Y14768D01*
X85977Y14785D01*
X85948Y14803D01*
X85921Y14824D01*
X85918Y14827D01*
X85914Y14831D01*
X85908Y14837D01*
X85897Y14848D01*
X85887Y14860D01*
X85876Y14877D01*
X85862Y14894D01*
X85849Y14915D01*
X85836Y14938D01*
X85824Y14965D01*
X85811Y14992D01*
X85801Y15024D01*
X85790Y15057D01*
X85784Y15093D01*
X85780Y15131D01*
X85778Y15171D01*
Y15173D01*
Y15181D01*
X85780Y15192D01*
Y15207D01*
X85782Y15225D01*
X85786Y15249D01*
X85790Y15272D01*
X85799Y15297D01*
X85807Y15324D01*
X85818Y15351D01*
X85830Y15381D01*
X85847Y15408D01*
X85864Y15436D01*
X85887Y15463D01*
X85910Y15488D01*
X85939Y15511D01*
X85941Y15513D01*
X85948Y15515D01*
X85956Y15522D01*
X85971Y15530D01*
X85988Y15538D01*
X86011Y15549D01*
X86036Y15559D01*
X86065Y15572D01*
X86099Y15583D01*
X86137Y15593D01*
X86179Y15604D01*
X86225Y15612D01*
X86275Y15620D01*
X86332Y15627D01*
X86391Y15629D01*
X86454Y15631D01*
X86771D01*
Y15769D01*
Y15771D01*
Y15778D01*
Y15786D01*
X86769Y15797D01*
Y15811D01*
X86767Y15826D01*
X86760Y15862D01*
X86748Y15904D01*
X86731Y15944D01*
X86710Y15984D01*
X86695Y16000D01*
X86679Y16017D01*
X86674Y16021D01*
X86662Y16030D01*
X86641Y16045D01*
X86611Y16059D01*
X86576Y16074D01*
X86532Y16089D01*
X86479Y16097D01*
X86418Y16101D01*
X86393D01*
X86378Y16099D01*
X86364D01*
X86328Y16093D01*
X86288Y16086D01*
X86246Y16076D01*
X86204Y16061D01*
X86164Y16040D01*
X86160Y16038D01*
X86147Y16030D01*
X86130Y16017D01*
X86107Y15998D01*
X86084Y15975D01*
X86057Y15946D01*
X86032Y15914D01*
X86007Y15877D01*
X85828Y16019D01*
X85830Y16021D01*
X85834Y16030D01*
X85841Y16040D01*
X85851Y16055D01*
X85862Y16074D01*
X85876Y16093D01*
X85893Y16114D01*
X85912Y16135D01*
X85914Y16137D01*
X85923Y16145D01*
X85933Y16156D01*
X85950Y16168D01*
X85969Y16183D01*
X85990Y16200D01*
X86015Y16217D01*
X86042Y16233D01*
X86046Y16236D01*
X86055Y16242D01*
X86072Y16248D01*
X86093Y16259D01*
X86118Y16269D01*
X86147Y16282D01*
X86181Y16292D01*
X86217Y16303D01*
X86219D01*
X86221Y16305D01*
X86227D01*
X86233Y16307D01*
X86254Y16311D01*
X86282Y16318D01*
X86315Y16322D01*
X86353Y16326D01*
X86395Y16328D01*
X86439Y16330D01*
X86466D01*
X86485Y16328D01*
D02*
G37*
G36*
X82525Y16032D02*
X82537D01*
X82539Y16034D01*
X82542Y16042D01*
X82548Y16053D01*
X82554Y16068D01*
X82563Y16084D01*
X82573Y16103D01*
X82598Y16143D01*
X82600Y16145D01*
X82605Y16152D01*
X82613Y16162D01*
X82623Y16175D01*
X82636Y16189D01*
X82653Y16206D01*
X82689Y16238D01*
X82691Y16240D01*
X82699Y16244D01*
X82710Y16252D01*
X82724Y16263D01*
X82743Y16273D01*
X82764Y16284D01*
X82789Y16294D01*
X82815Y16305D01*
X82819Y16307D01*
X82827Y16309D01*
X82844Y16313D01*
X82863Y16318D01*
X82888Y16322D01*
X82917Y16326D01*
X82949Y16330D01*
X83008D01*
X83025Y16328D01*
X83046Y16326D01*
X83069Y16322D01*
X83096Y16318D01*
X83123Y16311D01*
X83155Y16303D01*
X83184Y16292D01*
X83218Y16280D01*
X83249Y16265D01*
X83281Y16246D01*
X83312Y16225D01*
X83344Y16202D01*
X83371Y16175D01*
X83373Y16173D01*
X83377Y16168D01*
X83384Y16158D01*
X83394Y16147D01*
X83405Y16131D01*
X83417Y16112D01*
X83432Y16089D01*
X83445Y16063D01*
X83459Y16034D01*
X83472Y16000D01*
X83485Y15965D01*
X83495Y15925D01*
X83505Y15883D01*
X83512Y15839D01*
X83516Y15790D01*
X83518Y15738D01*
Y14736D01*
X83237D01*
Y15687D01*
Y15690D01*
Y15692D01*
Y15704D01*
X83235Y15725D01*
X83230Y15751D01*
X83226Y15782D01*
X83218Y15816D01*
X83207Y15851D01*
X83193Y15889D01*
X83176Y15927D01*
X83153Y15963D01*
X83123Y15998D01*
X83090Y16028D01*
X83052Y16053D01*
X83004Y16074D01*
X82951Y16086D01*
X82922Y16089D01*
X82890Y16091D01*
X82865D01*
X82848Y16089D01*
X82827Y16086D01*
X82804Y16084D01*
X82756Y16074D01*
X82754D01*
X82745Y16072D01*
X82733Y16068D01*
X82716Y16061D01*
X82699Y16053D01*
X82678Y16045D01*
X82638Y16019D01*
X82636Y16017D01*
X82630Y16013D01*
X82621Y16005D01*
X82609Y15994D01*
X82596Y15981D01*
X82582Y15967D01*
X82569Y15948D01*
X82556Y15929D01*
X82554Y15927D01*
X82552Y15921D01*
X82546Y15908D01*
X82542Y15893D01*
X82535Y15874D01*
X82529Y15853D01*
X82527Y15830D01*
X82525Y15803D01*
Y14736D01*
X82245D01*
Y16969D01*
X82525D01*
Y16032D01*
D02*
G37*
G36*
X76462Y16593D02*
X75778D01*
Y14736D01*
X75488D01*
Y16593D01*
X74801D01*
Y16842D01*
X76462D01*
Y16593D01*
D02*
G37*
G36*
X77485Y16328D02*
X77502D01*
X77521Y16326D01*
X77542Y16324D01*
X77588Y16315D01*
X77638Y16305D01*
X77691Y16290D01*
X77741Y16271D01*
X77743D01*
X77747Y16269D01*
X77754Y16265D01*
X77764Y16261D01*
X77775Y16254D01*
X77789Y16248D01*
X77821Y16229D01*
X77856Y16206D01*
X77894Y16179D01*
X77932Y16145D01*
X77970Y16107D01*
X77972Y16105D01*
X77974Y16103D01*
X77978Y16097D01*
X77985Y16089D01*
X77993Y16078D01*
X78001Y16066D01*
X78022Y16036D01*
X78045Y15998D01*
X78071Y15954D01*
X78094Y15906D01*
X78113Y15851D01*
Y15849D01*
X78115Y15845D01*
X78117Y15837D01*
X78121Y15826D01*
X78125Y15811D01*
X78130Y15795D01*
X78134Y15776D01*
X78138Y15753D01*
X78142Y15730D01*
X78146Y15704D01*
X78155Y15648D01*
X78161Y15583D01*
X78163Y15515D01*
Y15513D01*
Y15507D01*
Y15496D01*
Y15484D01*
X78161Y15467D01*
Y15448D01*
X78159Y15425D01*
X78157Y15402D01*
X78150Y15349D01*
X78142Y15293D01*
X78130Y15234D01*
X78113Y15175D01*
Y15173D01*
X78111Y15169D01*
X78109Y15160D01*
X78104Y15150D01*
X78098Y15137D01*
X78092Y15123D01*
X78077Y15087D01*
X78056Y15047D01*
X78033Y15005D01*
X78004Y14961D01*
X77970Y14919D01*
Y14917D01*
X77966Y14915D01*
X77953Y14902D01*
X77932Y14883D01*
X77907Y14860D01*
X77873Y14833D01*
X77833Y14806D01*
X77789Y14780D01*
X77741Y14757D01*
X77739D01*
X77735Y14755D01*
X77728Y14753D01*
X77718Y14749D01*
X77705Y14745D01*
X77691Y14738D01*
X77674Y14734D01*
X77655Y14730D01*
X77611Y14719D01*
X77560Y14709D01*
X77504Y14703D01*
X77443Y14701D01*
X77413D01*
X77399Y14703D01*
X77382D01*
X77363Y14705D01*
X77342Y14707D01*
X77294Y14715D01*
X77243Y14724D01*
X77191Y14738D01*
X77140Y14757D01*
X77138D01*
X77134Y14759D01*
X77128Y14763D01*
X77117Y14768D01*
X77107Y14774D01*
X77094Y14780D01*
X77063Y14799D01*
X77027Y14822D01*
X76989Y14850D01*
X76951Y14881D01*
X76914Y14919D01*
Y14921D01*
X76909Y14923D01*
X76905Y14929D01*
X76899Y14938D01*
X76890Y14948D01*
X76882Y14961D01*
X76861Y14990D01*
X76836Y15028D01*
X76813Y15072D01*
X76790Y15121D01*
X76769Y15175D01*
Y15177D01*
X76767Y15181D01*
X76765Y15190D01*
X76760Y15202D01*
X76758Y15215D01*
X76754Y15234D01*
X76750Y15253D01*
X76746Y15274D01*
X76739Y15299D01*
X76735Y15324D01*
X76729Y15383D01*
X76723Y15446D01*
X76720Y15515D01*
Y15517D01*
Y15524D01*
Y15534D01*
Y15547D01*
X76723Y15564D01*
Y15583D01*
X76725Y15604D01*
X76727Y15627D01*
X76733Y15679D01*
X76741Y15736D01*
X76752Y15795D01*
X76769Y15851D01*
Y15853D01*
X76771Y15858D01*
X76775Y15866D01*
X76777Y15877D01*
X76783Y15889D01*
X76790Y15904D01*
X76806Y15939D01*
X76825Y15979D01*
X76851Y16024D01*
X76880Y16066D01*
X76914Y16107D01*
X76916Y16110D01*
X76918Y16112D01*
X76930Y16124D01*
X76951Y16145D01*
X76977Y16168D01*
X77010Y16194D01*
X77050Y16221D01*
X77092Y16248D01*
X77140Y16271D01*
X77143D01*
X77147Y16273D01*
X77153Y16278D01*
X77163Y16280D01*
X77176Y16286D01*
X77191Y16290D01*
X77208Y16294D01*
X77229Y16301D01*
X77273Y16311D01*
X77323Y16322D01*
X77382Y16328D01*
X77443Y16330D01*
X77470D01*
X77485Y16328D01*
D02*
G37*
G36*
X97275Y13620D02*
X97290D01*
X97326Y13618D01*
X97365Y13611D01*
X97408Y13605D01*
X97452Y13595D01*
X97494Y13580D01*
X97496D01*
X97498Y13578D01*
X97504Y13576D01*
X97513Y13574D01*
X97531Y13563D01*
X97559Y13551D01*
X97588Y13536D01*
X97620Y13517D01*
X97651Y13496D01*
X97680Y13471D01*
X97685Y13469D01*
X97693Y13458D01*
X97708Y13445D01*
X97727Y13427D01*
X97748Y13404D01*
X97771Y13376D01*
X97792Y13347D01*
X97813Y13315D01*
X97815Y13311D01*
X97821Y13301D01*
X97832Y13284D01*
X97844Y13261D01*
X97859Y13233D01*
X97876Y13202D01*
X97891Y13168D01*
X97905Y13133D01*
X97649Y13032D01*
X97647Y13036D01*
X97645Y13044D01*
X97638Y13057D01*
X97632Y13074D01*
X97622Y13095D01*
X97611Y13116D01*
X97588Y13162D01*
X97586Y13164D01*
X97582Y13172D01*
X97575Y13185D01*
X97565Y13200D01*
X97552Y13217D01*
X97540Y13236D01*
X97506Y13271D01*
X97504Y13273D01*
X97498Y13280D01*
X97487Y13288D01*
X97475Y13298D01*
X97458Y13311D01*
X97439Y13324D01*
X97418Y13336D01*
X97393Y13347D01*
X97391Y13349D01*
X97382Y13351D01*
X97368Y13355D01*
X97349Y13362D01*
X97326Y13366D01*
X97298Y13370D01*
X97269Y13372D01*
X97235Y13374D01*
X97216D01*
X97193Y13372D01*
X97166Y13368D01*
X97132Y13362D01*
X97099Y13353D01*
X97063Y13343D01*
X97030Y13326D01*
X97025Y13324D01*
X97015Y13317D01*
X96998Y13307D01*
X96979Y13292D01*
X96956Y13273D01*
X96931Y13250D01*
X96908Y13223D01*
X96885Y13191D01*
X96882Y13187D01*
X96876Y13177D01*
X96866Y13158D01*
X96853Y13133D01*
X96838Y13103D01*
X96824Y13068D01*
X96811Y13025D01*
X96798Y12981D01*
Y12979D01*
X96796Y12975D01*
Y12969D01*
X96794Y12960D01*
X96792Y12948D01*
X96790Y12935D01*
X96784Y12902D01*
X96777Y12860D01*
X96773Y12813D01*
X96771Y12761D01*
X96769Y12706D01*
Y12358D01*
Y12356D01*
Y12351D01*
Y12343D01*
Y12332D01*
Y12320D01*
X96771Y12303D01*
X96773Y12267D01*
X96775Y12223D01*
X96782Y12177D01*
X96788Y12131D01*
X96798Y12083D01*
Y12081D01*
X96801Y12076D01*
X96803Y12070D01*
X96805Y12062D01*
X96811Y12038D01*
X96820Y12009D01*
X96832Y11975D01*
X96847Y11942D01*
X96866Y11904D01*
X96885Y11870D01*
X96887Y11866D01*
X96895Y11856D01*
X96908Y11841D01*
X96925Y11822D01*
X96946Y11801D01*
X96971Y11778D01*
X96998Y11757D01*
X97030Y11738D01*
X97034Y11736D01*
X97044Y11732D01*
X97063Y11723D01*
X97088Y11715D01*
X97118Y11707D01*
X97153Y11698D01*
X97193Y11694D01*
X97235Y11692D01*
X97250D01*
X97269Y11694D01*
X97290Y11696D01*
X97315Y11698D01*
X97340Y11703D01*
X97368Y11709D01*
X97393Y11717D01*
X97395Y11719D01*
X97403Y11721D01*
X97416Y11728D01*
X97433Y11736D01*
X97449Y11747D01*
X97468Y11759D01*
X97506Y11791D01*
X97508Y11793D01*
X97515Y11799D01*
X97523Y11810D01*
X97536Y11822D01*
X97548Y11839D01*
X97561Y11858D01*
X97588Y11900D01*
X97590Y11902D01*
X97594Y11910D01*
X97601Y11923D01*
X97609Y11940D01*
X97618Y11961D01*
X97628Y11982D01*
X97649Y12032D01*
X97905Y11931D01*
X97903Y11927D01*
X97899Y11915D01*
X97891Y11896D01*
X97880Y11873D01*
X97865Y11843D01*
X97851Y11814D01*
X97813Y11747D01*
X97811Y11742D01*
X97804Y11732D01*
X97792Y11715D01*
X97777Y11694D01*
X97758Y11671D01*
X97735Y11646D01*
X97710Y11619D01*
X97680Y11591D01*
X97676Y11589D01*
X97666Y11581D01*
X97651Y11568D01*
X97628Y11553D01*
X97601Y11537D01*
X97569Y11518D01*
X97534Y11501D01*
X97494Y11484D01*
X97492D01*
X97489Y11482D01*
X97483Y11480D01*
X97475Y11478D01*
X97464Y11476D01*
X97452Y11472D01*
X97422Y11465D01*
X97384Y11457D01*
X97340Y11451D01*
X97292Y11446D01*
X97237Y11444D01*
X97221D01*
X97200Y11446D01*
X97172Y11448D01*
X97141Y11453D01*
X97103Y11459D01*
X97061Y11467D01*
X97017Y11480D01*
X96969Y11495D01*
X96920Y11513D01*
X96872Y11537D01*
X96824Y11564D01*
X96775Y11595D01*
X96729Y11633D01*
X96687Y11675D01*
X96649Y11726D01*
X96647Y11730D01*
X96641Y11738D01*
X96633Y11755D01*
X96620Y11778D01*
X96605Y11807D01*
X96588Y11843D01*
X96572Y11883D01*
X96555Y11931D01*
X96536Y11986D01*
X96519Y12047D01*
X96502Y12112D01*
X96488Y12185D01*
X96475Y12263D01*
X96467Y12347D01*
X96460Y12438D01*
X96458Y12532D01*
Y12534D01*
Y12538D01*
Y12545D01*
Y12555D01*
Y12568D01*
X96460Y12582D01*
Y12599D01*
Y12618D01*
X96465Y12662D01*
X96469Y12713D01*
X96475Y12769D01*
X96481Y12830D01*
X96492Y12893D01*
X96504Y12960D01*
X96521Y13028D01*
X96538Y13095D01*
X96561Y13160D01*
X96586Y13223D01*
X96616Y13284D01*
X96649Y13338D01*
X96652Y13343D01*
X96658Y13351D01*
X96670Y13364D01*
X96685Y13383D01*
X96706Y13404D01*
X96731Y13429D01*
X96761Y13454D01*
X96796Y13481D01*
X96834Y13506D01*
X96878Y13532D01*
X96927Y13557D01*
X96979Y13578D01*
X97036Y13597D01*
X97099Y13609D01*
X97166Y13620D01*
X97237Y13622D01*
X97263D01*
X97275Y13620D01*
D02*
G37*
G36*
X105184Y13032D02*
X104829D01*
Y12939D01*
X104831D01*
X104833Y12937D01*
X104844Y12927D01*
X104860Y12912D01*
X104881Y12891D01*
X104904Y12866D01*
X104928Y12836D01*
X104951Y12803D01*
X104972Y12765D01*
Y12763D01*
X104974Y12761D01*
X104976Y12755D01*
X104980Y12746D01*
X104989Y12725D01*
X104997Y12698D01*
X105005Y12662D01*
X105014Y12624D01*
X105020Y12580D01*
X105022Y12532D01*
Y12530D01*
Y12526D01*
Y12519D01*
Y12511D01*
X105020Y12488D01*
X105016Y12459D01*
X105012Y12423D01*
X105003Y12385D01*
X104991Y12345D01*
X104976Y12307D01*
Y12305D01*
X104974Y12303D01*
X104967Y12291D01*
X104957Y12272D01*
X104944Y12248D01*
X104926Y12223D01*
X104904Y12194D01*
X104879Y12167D01*
X104850Y12139D01*
X104846Y12137D01*
X104835Y12129D01*
X104818Y12116D01*
X104795Y12099D01*
X104766Y12083D01*
X104732Y12064D01*
X104694Y12047D01*
X104653Y12030D01*
X104650D01*
X104648Y12028D01*
X104642Y12026D01*
X104634Y12024D01*
X104621Y12022D01*
X104608Y12017D01*
X104579Y12011D01*
X104541Y12005D01*
X104499Y11999D01*
X104451Y11994D01*
X104401Y11992D01*
X104346D01*
X104314Y11994D01*
X104308D01*
X104300Y11997D01*
X104289D01*
X104264Y12001D01*
X104235Y12007D01*
X104233D01*
X104228Y12005D01*
X104222Y12003D01*
X104214Y12001D01*
X104193Y11992D01*
X104167Y11984D01*
X104165D01*
X104161Y11982D01*
X104155Y11980D01*
X104146Y11975D01*
X104128Y11967D01*
X104104Y11952D01*
X104102D01*
X104100Y11948D01*
X104088Y11938D01*
X104071Y11923D01*
X104056Y11904D01*
Y11902D01*
X104054Y11900D01*
X104050Y11894D01*
X104048Y11885D01*
X104039Y11866D01*
X104037Y11841D01*
Y11839D01*
X104039Y11831D01*
X104041Y11818D01*
X104046Y11803D01*
X104054Y11787D01*
X104067Y11772D01*
X104083Y11759D01*
X104106Y11749D01*
X104111D01*
X104119Y11744D01*
X104134Y11742D01*
X104155Y11738D01*
X104180Y11734D01*
X104211Y11732D01*
X104245Y11728D01*
X104659D01*
X104680Y11726D01*
X104705Y11723D01*
X104734Y11721D01*
X104766Y11717D01*
X104802Y11713D01*
X104873Y11700D01*
X104946Y11679D01*
X104982Y11667D01*
X105016Y11650D01*
X105047Y11633D01*
X105075Y11612D01*
X105077Y11610D01*
X105081Y11606D01*
X105087Y11600D01*
X105096Y11591D01*
X105106Y11579D01*
X105119Y11566D01*
X105129Y11549D01*
X105144Y11530D01*
X105157Y11509D01*
X105167Y11486D01*
X105180Y11461D01*
X105190Y11434D01*
X105199Y11404D01*
X105205Y11373D01*
X105209Y11341D01*
X105211Y11306D01*
Y11304D01*
Y11295D01*
X105209Y11282D01*
Y11266D01*
X105205Y11247D01*
X105201Y11224D01*
X105194Y11198D01*
X105186Y11171D01*
X105175Y11144D01*
X105163Y11114D01*
X105146Y11085D01*
X105127Y11056D01*
X105106Y11028D01*
X105079Y11001D01*
X105049Y10976D01*
X105014Y10953D01*
X105012Y10951D01*
X105005Y10949D01*
X104993Y10942D01*
X104976Y10936D01*
X104955Y10928D01*
X104930Y10917D01*
X104900Y10907D01*
X104865Y10896D01*
X104825Y10886D01*
X104781Y10875D01*
X104730Y10867D01*
X104678Y10856D01*
X104619Y10850D01*
X104554Y10844D01*
X104487Y10842D01*
X104413Y10839D01*
X104363D01*
X104344Y10842D01*
X104321D01*
X104298Y10844D01*
X104245Y10846D01*
X104188Y10852D01*
X104134Y10858D01*
X104079Y10867D01*
X104077D01*
X104073Y10869D01*
X104067D01*
X104056Y10871D01*
X104033Y10877D01*
X104001Y10886D01*
X103966Y10896D01*
X103930Y10909D01*
X103892Y10926D01*
X103859Y10942D01*
X103855Y10944D01*
X103844Y10951D01*
X103829Y10961D01*
X103813Y10976D01*
X103791Y10993D01*
X103770Y11014D01*
X103752Y11037D01*
X103735Y11062D01*
X103733Y11066D01*
X103728Y11075D01*
X103722Y11089D01*
X103716Y11108D01*
X103710Y11131D01*
X103703Y11159D01*
X103699Y11188D01*
X103697Y11222D01*
Y11224D01*
Y11228D01*
Y11234D01*
X103699Y11243D01*
X103701Y11266D01*
X103705Y11293D01*
X103714Y11325D01*
X103726Y11358D01*
X103741Y11390D01*
X103764Y11419D01*
X103768Y11421D01*
X103777Y11429D01*
X103794Y11442D01*
X103815Y11457D01*
X103842Y11474D01*
X103876Y11490D01*
X103915Y11507D01*
X103960Y11520D01*
Y11553D01*
X103955Y11556D01*
X103947Y11560D01*
X103934Y11566D01*
X103918Y11576D01*
X103899Y11587D01*
X103880Y11602D01*
X103863Y11619D01*
X103846Y11637D01*
X103844Y11639D01*
X103840Y11648D01*
X103833Y11658D01*
X103827Y11673D01*
X103819Y11694D01*
X103813Y11717D01*
X103808Y11742D01*
X103806Y11772D01*
Y11774D01*
Y11778D01*
Y11782D01*
X103808Y11791D01*
X103810Y11814D01*
X103817Y11839D01*
X103825Y11868D01*
X103840Y11898D01*
X103859Y11925D01*
X103884Y11950D01*
X103888Y11952D01*
X103899Y11961D01*
X103915Y11971D01*
X103938Y11984D01*
X103968Y11999D01*
X104001Y12013D01*
X104041Y12028D01*
X104086Y12041D01*
Y12055D01*
X104083D01*
X104079Y12057D01*
X104071Y12062D01*
X104062Y12068D01*
X104050Y12074D01*
X104035Y12083D01*
X104004Y12101D01*
X103968Y12129D01*
X103930Y12160D01*
X103894Y12198D01*
X103863Y12240D01*
Y12242D01*
X103859Y12246D01*
X103857Y12253D01*
X103850Y12263D01*
X103844Y12274D01*
X103838Y12288D01*
X103831Y12305D01*
X103825Y12324D01*
X103810Y12366D01*
X103798Y12416D01*
X103789Y12471D01*
X103785Y12532D01*
Y12534D01*
Y12538D01*
Y12545D01*
Y12553D01*
X103787Y12576D01*
X103791Y12606D01*
X103796Y12639D01*
X103802Y12677D01*
X103813Y12717D01*
X103827Y12755D01*
Y12757D01*
X103829Y12759D01*
X103836Y12771D01*
X103846Y12790D01*
X103859Y12813D01*
X103878Y12841D01*
X103899Y12868D01*
X103924Y12897D01*
X103953Y12925D01*
X103957Y12927D01*
X103968Y12935D01*
X103985Y12948D01*
X104008Y12965D01*
X104037Y12981D01*
X104071Y13000D01*
X104109Y13017D01*
X104148Y13034D01*
X104151D01*
X104153Y13036D01*
X104159Y13038D01*
X104169Y13040D01*
X104180Y13042D01*
X104193Y13047D01*
X104222Y13055D01*
X104260Y13061D01*
X104302Y13068D01*
X104350Y13072D01*
X104401Y13074D01*
X104430D01*
X104447Y13072D01*
X104464D01*
X104482Y13070D01*
X104506Y13068D01*
X104552Y13059D01*
X104602Y13049D01*
X104653Y13034D01*
X104701Y13015D01*
Y13055D01*
Y13057D01*
Y13059D01*
Y13070D01*
X104703Y13086D01*
X104707Y13107D01*
X104711Y13133D01*
X104720Y13158D01*
X104732Y13183D01*
X104747Y13206D01*
X104749Y13208D01*
X104755Y13217D01*
X104768Y13225D01*
X104785Y13238D01*
X104806Y13248D01*
X104833Y13259D01*
X104865Y13265D01*
X104900Y13267D01*
X105184D01*
Y13032D01*
D02*
G37*
G36*
X94323D02*
X93968D01*
Y12939D01*
X93970D01*
X93972Y12937D01*
X93982Y12927D01*
X93999Y12912D01*
X94020Y12891D01*
X94043Y12866D01*
X94066Y12836D01*
X94090Y12803D01*
X94111Y12765D01*
Y12763D01*
X94113Y12761D01*
X94115Y12755D01*
X94119Y12746D01*
X94127Y12725D01*
X94136Y12698D01*
X94144Y12662D01*
X94152Y12624D01*
X94159Y12580D01*
X94161Y12532D01*
Y12530D01*
Y12526D01*
Y12519D01*
Y12511D01*
X94159Y12488D01*
X94155Y12459D01*
X94150Y12423D01*
X94142Y12385D01*
X94129Y12345D01*
X94115Y12307D01*
Y12305D01*
X94113Y12303D01*
X94106Y12291D01*
X94096Y12272D01*
X94083Y12248D01*
X94064Y12223D01*
X94043Y12194D01*
X94018Y12167D01*
X93989Y12139D01*
X93985Y12137D01*
X93974Y12129D01*
X93957Y12116D01*
X93934Y12099D01*
X93905Y12083D01*
X93871Y12064D01*
X93833Y12047D01*
X93791Y12030D01*
X93789D01*
X93787Y12028D01*
X93781Y12026D01*
X93772Y12024D01*
X93760Y12022D01*
X93747Y12017D01*
X93718Y12011D01*
X93680Y12005D01*
X93638Y11999D01*
X93590Y11994D01*
X93539Y11992D01*
X93485D01*
X93453Y11994D01*
X93447D01*
X93439Y11997D01*
X93428D01*
X93403Y12001D01*
X93373Y12007D01*
X93371D01*
X93367Y12005D01*
X93361Y12003D01*
X93352Y12001D01*
X93331Y11992D01*
X93306Y11984D01*
X93304D01*
X93300Y11982D01*
X93294Y11980D01*
X93285Y11975D01*
X93266Y11967D01*
X93243Y11952D01*
X93241D01*
X93239Y11948D01*
X93226Y11938D01*
X93210Y11923D01*
X93195Y11904D01*
Y11902D01*
X93193Y11900D01*
X93189Y11894D01*
X93186Y11885D01*
X93178Y11866D01*
X93176Y11841D01*
Y11839D01*
X93178Y11831D01*
X93180Y11818D01*
X93184Y11803D01*
X93193Y11787D01*
X93205Y11772D01*
X93222Y11759D01*
X93245Y11749D01*
X93249D01*
X93258Y11744D01*
X93273Y11742D01*
X93294Y11738D01*
X93319Y11734D01*
X93350Y11732D01*
X93384Y11728D01*
X93798D01*
X93819Y11726D01*
X93844Y11723D01*
X93873Y11721D01*
X93905Y11717D01*
X93940Y11713D01*
X94012Y11700D01*
X94085Y11679D01*
X94121Y11667D01*
X94155Y11650D01*
X94186Y11633D01*
X94213Y11612D01*
X94216Y11610D01*
X94220Y11606D01*
X94226Y11600D01*
X94234Y11591D01*
X94245Y11579D01*
X94257Y11566D01*
X94268Y11549D01*
X94283Y11530D01*
X94295Y11509D01*
X94306Y11486D01*
X94318Y11461D01*
X94329Y11434D01*
X94337Y11404D01*
X94344Y11373D01*
X94348Y11341D01*
X94350Y11306D01*
Y11304D01*
Y11295D01*
X94348Y11282D01*
Y11266D01*
X94344Y11247D01*
X94339Y11224D01*
X94333Y11198D01*
X94325Y11171D01*
X94314Y11144D01*
X94302Y11114D01*
X94285Y11085D01*
X94266Y11056D01*
X94245Y11028D01*
X94218Y11001D01*
X94188Y10976D01*
X94152Y10953D01*
X94150Y10951D01*
X94144Y10949D01*
X94131Y10942D01*
X94115Y10936D01*
X94094Y10928D01*
X94068Y10917D01*
X94039Y10907D01*
X94003Y10896D01*
X93963Y10886D01*
X93919Y10875D01*
X93869Y10867D01*
X93817Y10856D01*
X93758Y10850D01*
X93693Y10844D01*
X93625Y10842D01*
X93552Y10839D01*
X93502D01*
X93483Y10842D01*
X93459D01*
X93436Y10844D01*
X93384Y10846D01*
X93327Y10852D01*
X93273Y10858D01*
X93218Y10867D01*
X93216D01*
X93212Y10869D01*
X93205D01*
X93195Y10871D01*
X93172Y10877D01*
X93140Y10886D01*
X93105Y10896D01*
X93069Y10909D01*
X93031Y10926D01*
X92997Y10942D01*
X92993Y10944D01*
X92983Y10951D01*
X92968Y10961D01*
X92951Y10976D01*
X92930Y10993D01*
X92909Y11014D01*
X92890Y11037D01*
X92874Y11062D01*
X92871Y11066D01*
X92867Y11075D01*
X92861Y11089D01*
X92855Y11108D01*
X92848Y11131D01*
X92842Y11159D01*
X92838Y11188D01*
X92836Y11222D01*
Y11224D01*
Y11228D01*
Y11234D01*
X92838Y11243D01*
X92840Y11266D01*
X92844Y11293D01*
X92853Y11325D01*
X92865Y11358D01*
X92880Y11390D01*
X92903Y11419D01*
X92907Y11421D01*
X92916Y11429D01*
X92932Y11442D01*
X92953Y11457D01*
X92981Y11474D01*
X93014Y11490D01*
X93054Y11507D01*
X93098Y11520D01*
Y11553D01*
X93094Y11556D01*
X93086Y11560D01*
X93073Y11566D01*
X93056Y11576D01*
X93037Y11587D01*
X93019Y11602D01*
X93002Y11619D01*
X92985Y11637D01*
X92983Y11639D01*
X92979Y11648D01*
X92972Y11658D01*
X92966Y11673D01*
X92958Y11694D01*
X92951Y11717D01*
X92947Y11742D01*
X92945Y11772D01*
Y11774D01*
Y11778D01*
Y11782D01*
X92947Y11791D01*
X92949Y11814D01*
X92955Y11839D01*
X92964Y11868D01*
X92979Y11898D01*
X92997Y11925D01*
X93023Y11950D01*
X93027Y11952D01*
X93037Y11961D01*
X93054Y11971D01*
X93077Y11984D01*
X93107Y11999D01*
X93140Y12013D01*
X93180Y12028D01*
X93224Y12041D01*
Y12055D01*
X93222D01*
X93218Y12057D01*
X93210Y12062D01*
X93201Y12068D01*
X93189Y12074D01*
X93174Y12083D01*
X93142Y12101D01*
X93107Y12129D01*
X93069Y12160D01*
X93033Y12198D01*
X93002Y12240D01*
Y12242D01*
X92997Y12246D01*
X92995Y12253D01*
X92989Y12263D01*
X92983Y12274D01*
X92976Y12288D01*
X92970Y12305D01*
X92964Y12324D01*
X92949Y12366D01*
X92937Y12416D01*
X92928Y12471D01*
X92924Y12532D01*
Y12534D01*
Y12538D01*
Y12545D01*
Y12553D01*
X92926Y12576D01*
X92930Y12606D01*
X92935Y12639D01*
X92941Y12677D01*
X92951Y12717D01*
X92966Y12755D01*
Y12757D01*
X92968Y12759D01*
X92974Y12771D01*
X92985Y12790D01*
X92997Y12813D01*
X93016Y12841D01*
X93037Y12868D01*
X93063Y12897D01*
X93092Y12925D01*
X93096Y12927D01*
X93107Y12935D01*
X93124Y12948D01*
X93147Y12965D01*
X93176Y12981D01*
X93210Y13000D01*
X93247Y13017D01*
X93287Y13034D01*
X93289D01*
X93291Y13036D01*
X93298Y13038D01*
X93308Y13040D01*
X93319Y13042D01*
X93331Y13047D01*
X93361Y13055D01*
X93399Y13061D01*
X93441Y13068D01*
X93489Y13072D01*
X93539Y13074D01*
X93569D01*
X93585Y13072D01*
X93602D01*
X93621Y13070D01*
X93644Y13068D01*
X93691Y13059D01*
X93741Y13049D01*
X93791Y13034D01*
X93840Y13015D01*
Y13055D01*
Y13057D01*
Y13059D01*
Y13070D01*
X93842Y13086D01*
X93846Y13107D01*
X93850Y13133D01*
X93858Y13158D01*
X93871Y13183D01*
X93886Y13206D01*
X93888Y13208D01*
X93894Y13217D01*
X93907Y13225D01*
X93924Y13238D01*
X93945Y13248D01*
X93972Y13259D01*
X94003Y13265D01*
X94039Y13267D01*
X94323D01*
Y13032D01*
D02*
G37*
G36*
X102754Y13072D02*
X102775Y13070D01*
X102798Y13065D01*
X102825Y13061D01*
X102853Y13055D01*
X102884Y13047D01*
X102914Y13036D01*
X102947Y13023D01*
X102979Y13009D01*
X103010Y12990D01*
X103042Y12969D01*
X103073Y12946D01*
X103101Y12918D01*
X103103Y12916D01*
X103107Y12912D01*
X103113Y12902D01*
X103124Y12891D01*
X103134Y12874D01*
X103147Y12855D01*
X103162Y12832D01*
X103174Y12807D01*
X103189Y12778D01*
X103201Y12744D01*
X103214Y12708D01*
X103225Y12668D01*
X103235Y12627D01*
X103241Y12582D01*
X103245Y12534D01*
X103248Y12482D01*
Y11480D01*
X102966D01*
Y12431D01*
Y12433D01*
Y12435D01*
Y12448D01*
X102964Y12469D01*
X102960Y12494D01*
X102956Y12526D01*
X102947Y12559D01*
X102937Y12595D01*
X102922Y12633D01*
X102905Y12671D01*
X102882Y12706D01*
X102853Y12742D01*
X102819Y12771D01*
X102781Y12797D01*
X102733Y12818D01*
X102681Y12830D01*
X102651Y12832D01*
X102620Y12834D01*
X102594D01*
X102578Y12832D01*
X102557Y12830D01*
X102534Y12828D01*
X102485Y12818D01*
X102483D01*
X102475Y12815D01*
X102462Y12811D01*
X102445Y12805D01*
X102429Y12797D01*
X102408Y12788D01*
X102368Y12763D01*
X102366Y12761D01*
X102359Y12757D01*
X102351Y12748D01*
X102338Y12738D01*
X102326Y12725D01*
X102311Y12710D01*
X102298Y12692D01*
X102286Y12673D01*
X102284Y12671D01*
X102282Y12664D01*
X102275Y12652D01*
X102271Y12637D01*
X102265Y12618D01*
X102259Y12597D01*
X102256Y12574D01*
X102254Y12547D01*
Y11480D01*
X101975D01*
Y13036D01*
X102254D01*
Y12776D01*
X102267D01*
X102269Y12778D01*
X102271Y12786D01*
X102277Y12797D01*
X102284Y12811D01*
X102292Y12828D01*
X102303Y12847D01*
X102328Y12887D01*
X102330Y12889D01*
X102334Y12895D01*
X102342Y12906D01*
X102353Y12918D01*
X102366Y12933D01*
X102382Y12950D01*
X102418Y12981D01*
X102420Y12983D01*
X102429Y12988D01*
X102439Y12996D01*
X102454Y13007D01*
X102473Y13017D01*
X102494Y13028D01*
X102519Y13038D01*
X102544Y13049D01*
X102548Y13051D01*
X102557Y13053D01*
X102574Y13057D01*
X102592Y13061D01*
X102618Y13065D01*
X102647Y13070D01*
X102679Y13074D01*
X102737D01*
X102754Y13072D01*
D02*
G37*
G36*
X91893D02*
X91914Y13070D01*
X91937Y13065D01*
X91964Y13061D01*
X91992Y13055D01*
X92023Y13047D01*
X92053Y13036D01*
X92086Y13023D01*
X92118Y13009D01*
X92149Y12990D01*
X92181Y12969D01*
X92212Y12946D01*
X92239Y12918D01*
X92242Y12916D01*
X92246Y12912D01*
X92252Y12902D01*
X92263Y12891D01*
X92273Y12874D01*
X92286Y12855D01*
X92300Y12832D01*
X92313Y12807D01*
X92328Y12778D01*
X92340Y12744D01*
X92353Y12708D01*
X92363Y12668D01*
X92374Y12627D01*
X92380Y12582D01*
X92384Y12534D01*
X92386Y12482D01*
Y11480D01*
X92105D01*
Y12431D01*
Y12433D01*
Y12435D01*
Y12448D01*
X92103Y12469D01*
X92099Y12494D01*
X92094Y12526D01*
X92086Y12559D01*
X92076Y12595D01*
X92061Y12633D01*
X92044Y12671D01*
X92021Y12706D01*
X91992Y12742D01*
X91958Y12771D01*
X91920Y12797D01*
X91872Y12818D01*
X91819Y12830D01*
X91790Y12832D01*
X91759Y12834D01*
X91733D01*
X91716Y12832D01*
X91695Y12830D01*
X91672Y12828D01*
X91624Y12818D01*
X91622D01*
X91614Y12815D01*
X91601Y12811D01*
X91584Y12805D01*
X91567Y12797D01*
X91546Y12788D01*
X91506Y12763D01*
X91504Y12761D01*
X91498Y12757D01*
X91490Y12748D01*
X91477Y12738D01*
X91465Y12725D01*
X91450Y12710D01*
X91437Y12692D01*
X91425Y12673D01*
X91422Y12671D01*
X91420Y12664D01*
X91414Y12652D01*
X91410Y12637D01*
X91404Y12618D01*
X91397Y12597D01*
X91395Y12574D01*
X91393Y12547D01*
Y11480D01*
X91114D01*
Y13036D01*
X91393D01*
Y12776D01*
X91406D01*
X91408Y12778D01*
X91410Y12786D01*
X91416Y12797D01*
X91422Y12811D01*
X91431Y12828D01*
X91441Y12847D01*
X91467Y12887D01*
X91469Y12889D01*
X91473Y12895D01*
X91481Y12906D01*
X91492Y12918D01*
X91504Y12933D01*
X91521Y12950D01*
X91557Y12981D01*
X91559Y12983D01*
X91567Y12988D01*
X91578Y12996D01*
X91593Y13007D01*
X91611Y13017D01*
X91632Y13028D01*
X91658Y13038D01*
X91683Y13049D01*
X91687Y13051D01*
X91695Y13053D01*
X91712Y13057D01*
X91731Y13061D01*
X91756Y13065D01*
X91786Y13070D01*
X91817Y13074D01*
X91876D01*
X91893Y13072D01*
D02*
G37*
G36*
X79221D02*
X79242Y13070D01*
X79266Y13065D01*
X79293Y13061D01*
X79320Y13055D01*
X79352Y13047D01*
X79381Y13036D01*
X79415Y13023D01*
X79446Y13009D01*
X79478Y12990D01*
X79509Y12969D01*
X79541Y12946D01*
X79568Y12918D01*
X79570Y12916D01*
X79574Y12912D01*
X79581Y12902D01*
X79591Y12891D01*
X79602Y12874D01*
X79614Y12855D01*
X79629Y12832D01*
X79641Y12807D01*
X79656Y12778D01*
X79669Y12744D01*
X79681Y12708D01*
X79692Y12668D01*
X79702Y12627D01*
X79709Y12582D01*
X79713Y12534D01*
X79715Y12482D01*
Y11480D01*
X79434D01*
Y12431D01*
Y12433D01*
Y12435D01*
Y12448D01*
X79431Y12469D01*
X79427Y12494D01*
X79423Y12526D01*
X79415Y12559D01*
X79404Y12595D01*
X79390Y12633D01*
X79373Y12671D01*
X79350Y12706D01*
X79320Y12742D01*
X79287Y12771D01*
X79249Y12797D01*
X79201Y12818D01*
X79148Y12830D01*
X79119Y12832D01*
X79087Y12834D01*
X79062D01*
X79045Y12832D01*
X79024Y12830D01*
X79001Y12828D01*
X78953Y12818D01*
X78951D01*
X78942Y12815D01*
X78930Y12811D01*
X78913Y12805D01*
X78896Y12797D01*
X78875Y12788D01*
X78835Y12763D01*
X78833Y12761D01*
X78827Y12757D01*
X78818Y12748D01*
X78806Y12738D01*
X78793Y12725D01*
X78778Y12710D01*
X78766Y12692D01*
X78753Y12673D01*
X78751Y12671D01*
X78749Y12664D01*
X78743Y12652D01*
X78738Y12637D01*
X78732Y12618D01*
X78726Y12597D01*
X78724Y12574D01*
X78722Y12547D01*
Y11480D01*
X78442D01*
Y13036D01*
X78722D01*
Y12776D01*
X78734D01*
X78736Y12778D01*
X78738Y12786D01*
X78745Y12797D01*
X78751Y12811D01*
X78759Y12828D01*
X78770Y12847D01*
X78795Y12887D01*
X78797Y12889D01*
X78802Y12895D01*
X78810Y12906D01*
X78820Y12918D01*
X78833Y12933D01*
X78850Y12950D01*
X78886Y12981D01*
X78888Y12983D01*
X78896Y12988D01*
X78907Y12996D01*
X78921Y13007D01*
X78940Y13017D01*
X78961Y13028D01*
X78986Y13038D01*
X79011Y13049D01*
X79016Y13051D01*
X79024Y13053D01*
X79041Y13057D01*
X79060Y13061D01*
X79085Y13065D01*
X79114Y13070D01*
X79146Y13074D01*
X79205D01*
X79221Y13072D01*
D02*
G37*
G36*
X86383D02*
X86404Y13070D01*
X86429Y13068D01*
X86454Y13065D01*
X86513Y13057D01*
X86576Y13047D01*
X86639Y13030D01*
X86700Y13007D01*
X86702D01*
X86706Y13004D01*
X86714Y13000D01*
X86727Y12994D01*
X86739Y12988D01*
X86754Y12979D01*
X86792Y12958D01*
X86834Y12933D01*
X86878Y12902D01*
X86922Y12866D01*
X86964Y12826D01*
X86792Y12656D01*
X86790Y12658D01*
X86788Y12662D01*
X86782Y12668D01*
X86773Y12677D01*
X86752Y12698D01*
X86723Y12723D01*
X86721Y12725D01*
X86714Y12729D01*
X86706Y12736D01*
X86695Y12744D01*
X86681Y12755D01*
X86664Y12765D01*
X86624Y12786D01*
X86622Y12788D01*
X86614Y12790D01*
X86603Y12797D01*
X86586Y12803D01*
X86567Y12809D01*
X86544Y12818D01*
X86519Y12826D01*
X86492Y12832D01*
X86488D01*
X86479Y12834D01*
X86462Y12839D01*
X86441Y12843D01*
X86416Y12845D01*
X86385Y12849D01*
X86351Y12851D01*
X86288D01*
X86273Y12849D01*
X86256D01*
X86219Y12843D01*
X86175Y12836D01*
X86130Y12826D01*
X86089Y12811D01*
X86051Y12790D01*
X86046Y12788D01*
X86036Y12780D01*
X86021Y12765D01*
X86007Y12746D01*
X85990Y12723D01*
X85975Y12694D01*
X85965Y12660D01*
X85962Y12641D01*
X85960Y12620D01*
Y12618D01*
Y12612D01*
X85962Y12601D01*
Y12587D01*
X85969Y12557D01*
X85981Y12526D01*
Y12524D01*
X85986Y12519D01*
X85990Y12513D01*
X85996Y12505D01*
X86015Y12486D01*
X86038Y12465D01*
X86040D01*
X86044Y12461D01*
X86053Y12456D01*
X86061Y12452D01*
X86074Y12446D01*
X86089Y12440D01*
X86120Y12429D01*
X86122D01*
X86128Y12427D01*
X86139Y12425D01*
X86151Y12423D01*
X86166Y12419D01*
X86183Y12416D01*
X86219Y12408D01*
X86464Y12372D01*
X86469D01*
X86479Y12370D01*
X86496Y12368D01*
X86519Y12364D01*
X86546Y12358D01*
X86578Y12351D01*
X86609Y12343D01*
X86645Y12335D01*
X86649D01*
X86662Y12330D01*
X86679Y12324D01*
X86702Y12318D01*
X86729Y12307D01*
X86756Y12295D01*
X86786Y12282D01*
X86815Y12265D01*
X86819Y12263D01*
X86828Y12257D01*
X86842Y12246D01*
X86859Y12232D01*
X86880Y12215D01*
X86901Y12192D01*
X86922Y12169D01*
X86941Y12139D01*
X86943Y12135D01*
X86949Y12125D01*
X86958Y12108D01*
X86966Y12085D01*
X86975Y12055D01*
X86983Y12022D01*
X86989Y11982D01*
X86992Y11938D01*
Y11936D01*
Y11927D01*
X86989Y11915D01*
Y11900D01*
X86985Y11879D01*
X86981Y11856D01*
X86977Y11831D01*
X86968Y11803D01*
X86960Y11776D01*
X86947Y11744D01*
X86933Y11715D01*
X86916Y11684D01*
X86895Y11654D01*
X86870Y11625D01*
X86842Y11597D01*
X86811Y11572D01*
X86809Y11570D01*
X86803Y11566D01*
X86792Y11560D01*
X86777Y11553D01*
X86760Y11543D01*
X86737Y11532D01*
X86712Y11520D01*
X86683Y11509D01*
X86649Y11497D01*
X86614Y11484D01*
X86574Y11474D01*
X86529Y11465D01*
X86481Y11457D01*
X86433Y11451D01*
X86378Y11446D01*
X86322Y11444D01*
X86299D01*
X86280Y11446D01*
X86259D01*
X86233Y11448D01*
X86206Y11451D01*
X86175Y11455D01*
X86143Y11459D01*
X86107Y11463D01*
X86036Y11478D01*
X85962Y11497D01*
X85893Y11524D01*
X85891D01*
X85885Y11528D01*
X85876Y11532D01*
X85864Y11539D01*
X85847Y11547D01*
X85830Y11558D01*
X85788Y11583D01*
X85742Y11614D01*
X85692Y11652D01*
X85643Y11696D01*
X85597Y11744D01*
X85776Y11904D01*
X85778Y11902D01*
X85780Y11900D01*
X85786Y11894D01*
X85795Y11885D01*
X85816Y11864D01*
X85845Y11839D01*
X85881Y11812D01*
X85921Y11782D01*
X85965Y11753D01*
X86013Y11728D01*
X86015D01*
X86019Y11726D01*
X86028Y11721D01*
X86036Y11719D01*
X86049Y11713D01*
X86065Y11709D01*
X86082Y11703D01*
X86103Y11698D01*
X86124Y11692D01*
X86149Y11686D01*
X86202Y11677D01*
X86263Y11669D01*
X86328Y11667D01*
X86357D01*
X86372Y11669D01*
X86389Y11671D01*
X86427Y11675D01*
X86473Y11682D01*
X86519Y11692D01*
X86565Y11707D01*
X86607Y11726D01*
X86609D01*
X86611Y11728D01*
X86624Y11738D01*
X86641Y11751D01*
X86662Y11772D01*
X86681Y11799D01*
X86698Y11833D01*
X86710Y11870D01*
X86712Y11894D01*
X86714Y11917D01*
Y11919D01*
Y11925D01*
Y11936D01*
X86712Y11948D01*
X86706Y11980D01*
X86693Y12009D01*
Y12011D01*
X86689Y12015D01*
X86685Y12022D01*
X86679Y12030D01*
X86660Y12051D01*
X86634Y12070D01*
X86632Y12072D01*
X86628Y12074D01*
X86620Y12078D01*
X86611Y12083D01*
X86599Y12089D01*
X86584Y12093D01*
X86553Y12104D01*
X86550D01*
X86544Y12106D01*
X86536Y12108D01*
X86523Y12112D01*
X86509Y12114D01*
X86492Y12118D01*
X86454Y12125D01*
X86210Y12162D01*
X86206D01*
X86196Y12165D01*
X86177Y12167D01*
X86154Y12171D01*
X86126Y12175D01*
X86097Y12181D01*
X86063Y12188D01*
X86028Y12196D01*
X86023Y12198D01*
X86013Y12200D01*
X85994Y12207D01*
X85971Y12213D01*
X85946Y12223D01*
X85916Y12236D01*
X85887Y12251D01*
X85857Y12267D01*
X85853Y12269D01*
X85845Y12276D01*
X85830Y12286D01*
X85813Y12301D01*
X85795Y12320D01*
X85773Y12341D01*
X85752Y12366D01*
X85732Y12393D01*
X85729Y12398D01*
X85723Y12408D01*
X85717Y12425D01*
X85708Y12448D01*
X85698Y12477D01*
X85692Y12513D01*
X85685Y12553D01*
X85683Y12597D01*
Y12599D01*
Y12603D01*
Y12608D01*
Y12616D01*
X85685Y12639D01*
X85690Y12666D01*
X85694Y12700D01*
X85702Y12734D01*
X85715Y12769D01*
X85729Y12803D01*
X85732Y12807D01*
X85738Y12818D01*
X85748Y12834D01*
X85763Y12855D01*
X85782Y12878D01*
X85805Y12904D01*
X85832Y12929D01*
X85862Y12952D01*
X85866Y12954D01*
X85876Y12962D01*
X85895Y12973D01*
X85921Y12986D01*
X85950Y13000D01*
X85986Y13015D01*
X86023Y13030D01*
X86067Y13042D01*
X86070D01*
X86074Y13044D01*
X86080D01*
X86089Y13047D01*
X86099Y13051D01*
X86114Y13053D01*
X86145Y13059D01*
X86183Y13063D01*
X86227Y13070D01*
X86275Y13072D01*
X86328Y13074D01*
X86364D01*
X86383Y13072D01*
D02*
G37*
G36*
X98634Y12776D02*
X98646D01*
X98649Y12778D01*
X98651Y12786D01*
X98657Y12797D01*
X98663Y12811D01*
X98672Y12828D01*
X98682Y12847D01*
X98707Y12887D01*
X98709Y12889D01*
X98714Y12895D01*
X98722Y12906D01*
X98733Y12918D01*
X98745Y12933D01*
X98762Y12950D01*
X98798Y12981D01*
X98800Y12983D01*
X98808Y12988D01*
X98819Y12996D01*
X98833Y13007D01*
X98852Y13017D01*
X98873Y13028D01*
X98899Y13038D01*
X98924Y13049D01*
X98928Y13051D01*
X98936Y13053D01*
X98953Y13057D01*
X98972Y13061D01*
X98997Y13065D01*
X99027Y13070D01*
X99058Y13074D01*
X99117D01*
X99134Y13072D01*
X99155Y13070D01*
X99178Y13065D01*
X99205Y13061D01*
X99232Y13055D01*
X99264Y13047D01*
X99293Y13036D01*
X99327Y13023D01*
X99358Y13009D01*
X99390Y12990D01*
X99421Y12969D01*
X99453Y12946D01*
X99480Y12918D01*
X99482Y12916D01*
X99487Y12912D01*
X99493Y12902D01*
X99503Y12891D01*
X99514Y12874D01*
X99526Y12855D01*
X99541Y12832D01*
X99554Y12807D01*
X99568Y12778D01*
X99581Y12744D01*
X99594Y12708D01*
X99604Y12668D01*
X99615Y12627D01*
X99621Y12582D01*
X99625Y12534D01*
X99627Y12482D01*
Y11480D01*
X99346D01*
Y12431D01*
Y12433D01*
Y12435D01*
Y12448D01*
X99344Y12469D01*
X99339Y12494D01*
X99335Y12526D01*
X99327Y12559D01*
X99316Y12595D01*
X99302Y12633D01*
X99285Y12671D01*
X99262Y12706D01*
X99232Y12742D01*
X99199Y12771D01*
X99161Y12797D01*
X99113Y12818D01*
X99060Y12830D01*
X99031Y12832D01*
X98999Y12834D01*
X98974D01*
X98957Y12832D01*
X98936Y12830D01*
X98913Y12828D01*
X98865Y12818D01*
X98863D01*
X98854Y12815D01*
X98842Y12811D01*
X98825Y12805D01*
X98808Y12797D01*
X98787Y12788D01*
X98747Y12763D01*
X98745Y12761D01*
X98739Y12757D01*
X98730Y12748D01*
X98718Y12738D01*
X98705Y12725D01*
X98691Y12710D01*
X98678Y12692D01*
X98665Y12673D01*
X98663Y12671D01*
X98661Y12664D01*
X98655Y12652D01*
X98651Y12637D01*
X98644Y12618D01*
X98638Y12597D01*
X98636Y12574D01*
X98634Y12547D01*
Y11480D01*
X98355D01*
Y13712D01*
X98634D01*
Y12776D01*
D02*
G37*
G36*
X87773D02*
X87785D01*
X87787Y12778D01*
X87789Y12786D01*
X87796Y12797D01*
X87802Y12811D01*
X87810Y12828D01*
X87821Y12847D01*
X87846Y12887D01*
X87848Y12889D01*
X87853Y12895D01*
X87861Y12906D01*
X87871Y12918D01*
X87884Y12933D01*
X87901Y12950D01*
X87937Y12981D01*
X87939Y12983D01*
X87947Y12988D01*
X87958Y12996D01*
X87972Y13007D01*
X87991Y13017D01*
X88012Y13028D01*
X88037Y13038D01*
X88063Y13049D01*
X88067Y13051D01*
X88075Y13053D01*
X88092Y13057D01*
X88111Y13061D01*
X88136Y13065D01*
X88165Y13070D01*
X88197Y13074D01*
X88256D01*
X88273Y13072D01*
X88293Y13070D01*
X88317Y13065D01*
X88344Y13061D01*
X88371Y13055D01*
X88403Y13047D01*
X88432Y13036D01*
X88466Y13023D01*
X88497Y13009D01*
X88529Y12990D01*
X88560Y12969D01*
X88592Y12946D01*
X88619Y12918D01*
X88621Y12916D01*
X88625Y12912D01*
X88632Y12902D01*
X88642Y12891D01*
X88653Y12874D01*
X88665Y12855D01*
X88680Y12832D01*
X88692Y12807D01*
X88707Y12778D01*
X88720Y12744D01*
X88732Y12708D01*
X88743Y12668D01*
X88753Y12627D01*
X88760Y12582D01*
X88764Y12534D01*
X88766Y12482D01*
Y11480D01*
X88485D01*
Y12431D01*
Y12433D01*
Y12435D01*
Y12448D01*
X88482Y12469D01*
X88478Y12494D01*
X88474Y12526D01*
X88466Y12559D01*
X88455Y12595D01*
X88441Y12633D01*
X88424Y12671D01*
X88401Y12706D01*
X88371Y12742D01*
X88338Y12771D01*
X88300Y12797D01*
X88252Y12818D01*
X88199Y12830D01*
X88170Y12832D01*
X88138Y12834D01*
X88113D01*
X88096Y12832D01*
X88075Y12830D01*
X88052Y12828D01*
X88004Y12818D01*
X88002D01*
X87993Y12815D01*
X87981Y12811D01*
X87964Y12805D01*
X87947Y12797D01*
X87926Y12788D01*
X87886Y12763D01*
X87884Y12761D01*
X87878Y12757D01*
X87869Y12748D01*
X87857Y12738D01*
X87844Y12725D01*
X87829Y12710D01*
X87817Y12692D01*
X87804Y12673D01*
X87802Y12671D01*
X87800Y12664D01*
X87794Y12652D01*
X87789Y12637D01*
X87783Y12618D01*
X87777Y12597D01*
X87775Y12574D01*
X87773Y12547D01*
Y11480D01*
X87493D01*
Y13712D01*
X87773D01*
Y12776D01*
D02*
G37*
G36*
X82871Y13584D02*
X82897Y13582D01*
X82926Y13578D01*
X82957Y13571D01*
X82991Y13565D01*
X83027Y13557D01*
X83065Y13546D01*
X83102Y13534D01*
X83140Y13517D01*
X83178Y13498D01*
X83214Y13477D01*
X83245Y13452D01*
X83277Y13422D01*
X83279Y13420D01*
X83283Y13414D01*
X83291Y13406D01*
X83302Y13393D01*
X83312Y13376D01*
X83325Y13355D01*
X83340Y13332D01*
X83354Y13305D01*
X83369Y13273D01*
X83384Y13240D01*
X83396Y13202D01*
X83407Y13162D01*
X83417Y13118D01*
X83426Y13070D01*
X83430Y13019D01*
X83432Y12967D01*
Y12962D01*
Y12954D01*
Y12939D01*
X83430Y12918D01*
X83428Y12893D01*
X83424Y12866D01*
X83419Y12834D01*
X83413Y12801D01*
X83405Y12765D01*
X83394Y12727D01*
X83382Y12689D01*
X83367Y12652D01*
X83348Y12614D01*
X83327Y12578D01*
X83304Y12542D01*
X83277Y12511D01*
X83275Y12509D01*
X83270Y12505D01*
X83260Y12496D01*
X83247Y12486D01*
X83232Y12473D01*
X83211Y12461D01*
X83188Y12446D01*
X83161Y12431D01*
X83132Y12414D01*
X83098Y12400D01*
X83060Y12387D01*
X83020Y12375D01*
X82976Y12364D01*
X82928Y12356D01*
X82878Y12351D01*
X82823Y12349D01*
X82340D01*
Y11480D01*
X82046D01*
Y13586D01*
X82852D01*
X82871Y13584D01*
D02*
G37*
G36*
X75568D02*
X75591Y13582D01*
X75618Y13578D01*
X75649Y13574D01*
X75681Y13567D01*
X75717Y13559D01*
X75752Y13551D01*
X75788Y13538D01*
X75824Y13523D01*
X75859Y13506D01*
X75895Y13485D01*
X75929Y13464D01*
X75958Y13437D01*
X75960Y13435D01*
X75964Y13431D01*
X75973Y13422D01*
X75983Y13410D01*
X75994Y13395D01*
X76006Y13378D01*
X76021Y13357D01*
X76036Y13332D01*
X76051Y13305D01*
X76065Y13275D01*
X76078Y13242D01*
X76088Y13206D01*
X76099Y13168D01*
X76107Y13128D01*
X76111Y13084D01*
X76113Y13038D01*
Y13036D01*
Y13030D01*
Y13019D01*
X76111Y13007D01*
Y12992D01*
X76109Y12973D01*
X76103Y12931D01*
X76090Y12883D01*
X76074Y12834D01*
X76053Y12786D01*
X76038Y12763D01*
X76021Y12742D01*
Y12740D01*
X76017Y12738D01*
X76004Y12725D01*
X75985Y12706D01*
X75958Y12683D01*
X75922Y12658D01*
X75883Y12631D01*
X75834Y12608D01*
X75782Y12587D01*
Y12576D01*
X75784D01*
X75790Y12574D01*
X75798Y12572D01*
X75811Y12568D01*
X75828Y12563D01*
X75845Y12557D01*
X75887Y12540D01*
X75933Y12519D01*
X75981Y12492D01*
X76032Y12456D01*
X76076Y12416D01*
X76078Y12414D01*
X76080Y12410D01*
X76086Y12404D01*
X76092Y12395D01*
X76103Y12383D01*
X76111Y12368D01*
X76122Y12349D01*
X76132Y12330D01*
X76143Y12307D01*
X76153Y12282D01*
X76164Y12255D01*
X76172Y12223D01*
X76179Y12192D01*
X76185Y12156D01*
X76187Y12118D01*
X76189Y12078D01*
Y12076D01*
Y12072D01*
Y12066D01*
Y12057D01*
X76187Y12045D01*
Y12032D01*
X76183Y12001D01*
X76179Y11965D01*
X76170Y11925D01*
X76160Y11883D01*
X76145Y11841D01*
Y11839D01*
X76143Y11837D01*
X76141Y11831D01*
X76137Y11822D01*
X76128Y11803D01*
X76113Y11776D01*
X76097Y11747D01*
X76078Y11715D01*
X76053Y11682D01*
X76025Y11650D01*
X76021Y11646D01*
X76013Y11637D01*
X75996Y11623D01*
X75975Y11604D01*
X75948Y11585D01*
X75916Y11564D01*
X75880Y11543D01*
X75843Y11524D01*
X75841D01*
X75838Y11522D01*
X75832Y11520D01*
X75824Y11518D01*
X75803Y11509D01*
X75773Y11503D01*
X75740Y11495D01*
X75700Y11486D01*
X75656Y11482D01*
X75609Y11480D01*
X74803D01*
Y13586D01*
X75549D01*
X75568Y13584D01*
D02*
G37*
G36*
X100843Y13072D02*
X100858D01*
X100898Y13068D01*
X100942Y13059D01*
X100990Y13051D01*
X101040Y13036D01*
X101091Y13017D01*
X101093D01*
X101097Y13015D01*
X101103Y13011D01*
X101112Y13007D01*
X101137Y12994D01*
X101166Y12975D01*
X101202Y12954D01*
X101238Y12927D01*
X101276Y12893D01*
X101311Y12857D01*
X101313Y12855D01*
X101316Y12853D01*
X101320Y12847D01*
X101326Y12839D01*
X101343Y12818D01*
X101364Y12790D01*
X101387Y12755D01*
X101410Y12713D01*
X101433Y12666D01*
X101454Y12616D01*
Y12614D01*
X101456Y12610D01*
X101458Y12601D01*
X101463Y12591D01*
X101467Y12578D01*
X101471Y12563D01*
X101475Y12545D01*
X101479Y12526D01*
X101488Y12479D01*
X101496Y12427D01*
X101503Y12368D01*
X101505Y12307D01*
Y12190D01*
X100368D01*
Y12125D01*
Y12122D01*
Y12116D01*
Y12106D01*
X100371Y12093D01*
X100373Y12076D01*
X100375Y12055D01*
X100379Y12034D01*
X100383Y12011D01*
X100398Y11961D01*
X100408Y11934D01*
X100419Y11906D01*
X100434Y11879D01*
X100448Y11854D01*
X100467Y11829D01*
X100488Y11803D01*
X100490Y11801D01*
X100495Y11797D01*
X100501Y11793D01*
X100511Y11784D01*
X100524Y11774D01*
X100539Y11763D01*
X100555Y11753D01*
X100576Y11742D01*
X100600Y11730D01*
X100625Y11719D01*
X100652Y11709D01*
X100681Y11698D01*
X100713Y11690D01*
X100749Y11686D01*
X100784Y11682D01*
X100824Y11679D01*
X100839D01*
X100849Y11682D01*
X100864D01*
X100879Y11684D01*
X100917Y11688D01*
X100959Y11696D01*
X101003Y11709D01*
X101047Y11723D01*
X101091Y11747D01*
X101093D01*
X101095Y11751D01*
X101101Y11753D01*
X101110Y11759D01*
X101129Y11774D01*
X101154Y11795D01*
X101183Y11822D01*
X101211Y11856D01*
X101240Y11894D01*
X101265Y11936D01*
X101456Y11787D01*
Y11784D01*
X101452Y11780D01*
X101448Y11772D01*
X101442Y11761D01*
X101433Y11749D01*
X101425Y11734D01*
X101398Y11698D01*
X101366Y11660D01*
X101324Y11619D01*
X101276Y11576D01*
X101219Y11539D01*
X101217D01*
X101213Y11535D01*
X101202Y11530D01*
X101190Y11524D01*
X101175Y11518D01*
X101156Y11509D01*
X101133Y11501D01*
X101110Y11492D01*
X101080Y11482D01*
X101051Y11474D01*
X101017Y11465D01*
X100984Y11459D01*
X100946Y11453D01*
X100906Y11448D01*
X100866Y11446D01*
X100822Y11444D01*
X100793D01*
X100778Y11446D01*
X100761D01*
X100740Y11448D01*
X100719Y11451D01*
X100671Y11459D01*
X100618Y11467D01*
X100564Y11482D01*
X100511Y11501D01*
X100509D01*
X100505Y11503D01*
X100499Y11507D01*
X100488Y11511D01*
X100476Y11518D01*
X100463Y11524D01*
X100429Y11543D01*
X100394Y11566D01*
X100354Y11593D01*
X100314Y11625D01*
X100276Y11663D01*
Y11665D01*
X100272Y11667D01*
X100268Y11673D01*
X100261Y11682D01*
X100253Y11692D01*
X100242Y11705D01*
X100222Y11734D01*
X100198Y11772D01*
X100175Y11816D01*
X100150Y11864D01*
X100129Y11919D01*
Y11921D01*
X100127Y11925D01*
X100125Y11934D01*
X100121Y11946D01*
X100117Y11959D01*
X100112Y11975D01*
X100108Y11994D01*
X100104Y12017D01*
X100100Y12041D01*
X100095Y12066D01*
X100087Y12122D01*
X100081Y12188D01*
X100079Y12255D01*
Y12257D01*
Y12263D01*
Y12274D01*
Y12286D01*
X100081Y12303D01*
Y12322D01*
X100083Y12343D01*
X100085Y12368D01*
X100091Y12419D01*
X100102Y12477D01*
X100114Y12534D01*
X100131Y12593D01*
Y12595D01*
X100133Y12599D01*
X100137Y12608D01*
X100142Y12618D01*
X100146Y12631D01*
X100154Y12648D01*
X100171Y12681D01*
X100192Y12723D01*
X100217Y12765D01*
X100247Y12809D01*
X100280Y12851D01*
X100282Y12853D01*
X100285Y12855D01*
X100297Y12868D01*
X100318Y12889D01*
X100343Y12912D01*
X100377Y12937D01*
X100417Y12965D01*
X100459Y12992D01*
X100507Y13015D01*
X100509D01*
X100513Y13017D01*
X100520Y13021D01*
X100530Y13023D01*
X100543Y13030D01*
X100557Y13034D01*
X100574Y13038D01*
X100595Y13044D01*
X100637Y13055D01*
X100688Y13065D01*
X100742Y13072D01*
X100801Y13074D01*
X100828D01*
X100843Y13072D01*
D02*
G37*
G36*
X89982D02*
X89997D01*
X90036Y13068D01*
X90081Y13059D01*
X90129Y13051D01*
X90179Y13036D01*
X90230Y13017D01*
X90232D01*
X90236Y13015D01*
X90242Y13011D01*
X90251Y13007D01*
X90276Y12994D01*
X90305Y12975D01*
X90341Y12954D01*
X90377Y12927D01*
X90415Y12893D01*
X90450Y12857D01*
X90452Y12855D01*
X90454Y12853D01*
X90459Y12847D01*
X90465Y12839D01*
X90482Y12818D01*
X90503Y12790D01*
X90526Y12755D01*
X90549Y12713D01*
X90572Y12666D01*
X90593Y12616D01*
Y12614D01*
X90595Y12610D01*
X90597Y12601D01*
X90601Y12591D01*
X90606Y12578D01*
X90610Y12563D01*
X90614Y12545D01*
X90618Y12526D01*
X90627Y12479D01*
X90635Y12427D01*
X90641Y12368D01*
X90643Y12307D01*
Y12190D01*
X89507D01*
Y12125D01*
Y12122D01*
Y12116D01*
Y12106D01*
X89509Y12093D01*
X89512Y12076D01*
X89514Y12055D01*
X89518Y12034D01*
X89522Y12011D01*
X89537Y11961D01*
X89547Y11934D01*
X89558Y11906D01*
X89572Y11879D01*
X89587Y11854D01*
X89606Y11829D01*
X89627Y11803D01*
X89629Y11801D01*
X89633Y11797D01*
X89640Y11793D01*
X89650Y11784D01*
X89663Y11774D01*
X89677Y11763D01*
X89694Y11753D01*
X89715Y11742D01*
X89738Y11730D01*
X89763Y11719D01*
X89791Y11709D01*
X89820Y11698D01*
X89852Y11690D01*
X89887Y11686D01*
X89923Y11682D01*
X89963Y11679D01*
X89978D01*
X89988Y11682D01*
X90003D01*
X90018Y11684D01*
X90055Y11688D01*
X90097Y11696D01*
X90141Y11709D01*
X90186Y11723D01*
X90230Y11747D01*
X90232D01*
X90234Y11751D01*
X90240Y11753D01*
X90249Y11759D01*
X90267Y11774D01*
X90293Y11795D01*
X90322Y11822D01*
X90349Y11856D01*
X90379Y11894D01*
X90404Y11936D01*
X90595Y11787D01*
Y11784D01*
X90591Y11780D01*
X90587Y11772D01*
X90580Y11761D01*
X90572Y11749D01*
X90564Y11734D01*
X90536Y11698D01*
X90505Y11660D01*
X90463Y11619D01*
X90415Y11576D01*
X90358Y11539D01*
X90356D01*
X90351Y11535D01*
X90341Y11530D01*
X90328Y11524D01*
X90314Y11518D01*
X90295Y11509D01*
X90272Y11501D01*
X90249Y11492D01*
X90219Y11482D01*
X90190Y11474D01*
X90156Y11465D01*
X90123Y11459D01*
X90085Y11453D01*
X90045Y11448D01*
X90005Y11446D01*
X89961Y11444D01*
X89931D01*
X89917Y11446D01*
X89900D01*
X89879Y11448D01*
X89858Y11451D01*
X89810Y11459D01*
X89757Y11467D01*
X89703Y11482D01*
X89650Y11501D01*
X89648D01*
X89644Y11503D01*
X89638Y11507D01*
X89627Y11511D01*
X89614Y11518D01*
X89602Y11524D01*
X89568Y11543D01*
X89533Y11566D01*
X89493Y11593D01*
X89453Y11625D01*
X89415Y11663D01*
Y11665D01*
X89411Y11667D01*
X89407Y11673D01*
X89400Y11682D01*
X89392Y11692D01*
X89381Y11705D01*
X89360Y11734D01*
X89337Y11772D01*
X89314Y11816D01*
X89289Y11864D01*
X89268Y11919D01*
Y11921D01*
X89266Y11925D01*
X89264Y11934D01*
X89259Y11946D01*
X89255Y11959D01*
X89251Y11975D01*
X89247Y11994D01*
X89243Y12017D01*
X89239Y12041D01*
X89234Y12066D01*
X89226Y12122D01*
X89220Y12188D01*
X89218Y12255D01*
Y12257D01*
Y12263D01*
Y12274D01*
Y12286D01*
X89220Y12303D01*
Y12322D01*
X89222Y12343D01*
X89224Y12368D01*
X89230Y12419D01*
X89241Y12477D01*
X89253Y12534D01*
X89270Y12593D01*
Y12595D01*
X89272Y12599D01*
X89276Y12608D01*
X89280Y12618D01*
X89285Y12631D01*
X89293Y12648D01*
X89310Y12681D01*
X89331Y12723D01*
X89356Y12765D01*
X89385Y12809D01*
X89419Y12851D01*
X89421Y12853D01*
X89423Y12855D01*
X89436Y12868D01*
X89457Y12889D01*
X89482Y12912D01*
X89516Y12937D01*
X89556Y12965D01*
X89598Y12992D01*
X89646Y13015D01*
X89648D01*
X89652Y13017D01*
X89658Y13021D01*
X89669Y13023D01*
X89682Y13030D01*
X89696Y13034D01*
X89713Y13038D01*
X89734Y13044D01*
X89776Y13055D01*
X89827Y13065D01*
X89881Y13072D01*
X89940Y13074D01*
X89967D01*
X89982Y13072D01*
D02*
G37*
G36*
X84543D02*
X84560D01*
X84579Y13070D01*
X84600Y13068D01*
X84646Y13059D01*
X84696Y13049D01*
X84749Y13034D01*
X84799Y13015D01*
X84801D01*
X84805Y13013D01*
X84812Y13009D01*
X84822Y13004D01*
X84833Y12998D01*
X84847Y12992D01*
X84879Y12973D01*
X84915Y12950D01*
X84952Y12923D01*
X84990Y12889D01*
X85028Y12851D01*
X85030Y12849D01*
X85032Y12847D01*
X85036Y12841D01*
X85043Y12832D01*
X85051Y12822D01*
X85059Y12809D01*
X85080Y12780D01*
X85104Y12742D01*
X85129Y12698D01*
X85152Y12650D01*
X85171Y12595D01*
Y12593D01*
X85173Y12589D01*
X85175Y12580D01*
X85179Y12570D01*
X85183Y12555D01*
X85188Y12538D01*
X85192Y12519D01*
X85196Y12496D01*
X85200Y12473D01*
X85204Y12448D01*
X85213Y12391D01*
X85219Y12326D01*
X85221Y12259D01*
Y12257D01*
Y12251D01*
Y12240D01*
Y12228D01*
X85219Y12211D01*
Y12192D01*
X85217Y12169D01*
X85215Y12146D01*
X85209Y12093D01*
X85200Y12036D01*
X85188Y11978D01*
X85171Y11919D01*
Y11917D01*
X85169Y11913D01*
X85167Y11904D01*
X85162Y11894D01*
X85156Y11881D01*
X85150Y11866D01*
X85135Y11831D01*
X85114Y11791D01*
X85091Y11749D01*
X85062Y11705D01*
X85028Y11663D01*
Y11660D01*
X85024Y11658D01*
X85011Y11646D01*
X84990Y11627D01*
X84965Y11604D01*
X84931Y11576D01*
X84891Y11549D01*
X84847Y11524D01*
X84799Y11501D01*
X84797D01*
X84793Y11499D01*
X84786Y11497D01*
X84776Y11492D01*
X84763Y11488D01*
X84749Y11482D01*
X84732Y11478D01*
X84713Y11474D01*
X84669Y11463D01*
X84619Y11453D01*
X84562Y11446D01*
X84501Y11444D01*
X84471D01*
X84457Y11446D01*
X84440D01*
X84421Y11448D01*
X84400Y11451D01*
X84352Y11459D01*
X84301Y11467D01*
X84249Y11482D01*
X84198Y11501D01*
X84196D01*
X84192Y11503D01*
X84186Y11507D01*
X84175Y11511D01*
X84165Y11518D01*
X84152Y11524D01*
X84121Y11543D01*
X84085Y11566D01*
X84047Y11593D01*
X84009Y11625D01*
X83972Y11663D01*
Y11665D01*
X83968Y11667D01*
X83963Y11673D01*
X83957Y11682D01*
X83949Y11692D01*
X83940Y11705D01*
X83919Y11734D01*
X83894Y11772D01*
X83871Y11816D01*
X83848Y11864D01*
X83827Y11919D01*
Y11921D01*
X83825Y11925D01*
X83823Y11934D01*
X83818Y11946D01*
X83816Y11959D01*
X83812Y11978D01*
X83808Y11997D01*
X83804Y12017D01*
X83797Y12043D01*
X83793Y12068D01*
X83787Y12127D01*
X83781Y12190D01*
X83779Y12259D01*
Y12261D01*
Y12267D01*
Y12278D01*
Y12291D01*
X83781Y12307D01*
Y12326D01*
X83783Y12347D01*
X83785Y12370D01*
X83791Y12423D01*
X83799Y12479D01*
X83810Y12538D01*
X83827Y12595D01*
Y12597D01*
X83829Y12601D01*
X83833Y12610D01*
X83835Y12620D01*
X83842Y12633D01*
X83848Y12648D01*
X83865Y12683D01*
X83884Y12723D01*
X83909Y12767D01*
X83938Y12809D01*
X83972Y12851D01*
X83974Y12853D01*
X83976Y12855D01*
X83988Y12868D01*
X84009Y12889D01*
X84035Y12912D01*
X84068Y12937D01*
X84108Y12965D01*
X84150Y12992D01*
X84198Y13015D01*
X84201D01*
X84205Y13017D01*
X84211Y13021D01*
X84222Y13023D01*
X84234Y13030D01*
X84249Y13034D01*
X84266Y13038D01*
X84287Y13044D01*
X84331Y13055D01*
X84381Y13065D01*
X84440Y13072D01*
X84501Y13074D01*
X84528D01*
X84543Y13072D01*
D02*
G37*
G36*
X77311D02*
X77325D01*
X77365Y13068D01*
X77409Y13059D01*
X77457Y13051D01*
X77508Y13036D01*
X77558Y13017D01*
X77560D01*
X77565Y13015D01*
X77571Y13011D01*
X77579Y13007D01*
X77605Y12994D01*
X77634Y12975D01*
X77670Y12954D01*
X77705Y12927D01*
X77743Y12893D01*
X77779Y12857D01*
X77781Y12855D01*
X77783Y12853D01*
X77787Y12847D01*
X77794Y12839D01*
X77810Y12818D01*
X77831Y12790D01*
X77854Y12755D01*
X77877Y12713D01*
X77901Y12666D01*
X77922Y12616D01*
Y12614D01*
X77924Y12610D01*
X77926Y12601D01*
X77930Y12591D01*
X77934Y12578D01*
X77938Y12563D01*
X77943Y12545D01*
X77947Y12526D01*
X77955Y12479D01*
X77964Y12427D01*
X77970Y12368D01*
X77972Y12307D01*
Y12190D01*
X76836D01*
Y12125D01*
Y12122D01*
Y12116D01*
Y12106D01*
X76838Y12093D01*
X76840Y12076D01*
X76842Y12055D01*
X76846Y12034D01*
X76851Y12011D01*
X76865Y11961D01*
X76876Y11934D01*
X76886Y11906D01*
X76901Y11879D01*
X76916Y11854D01*
X76935Y11829D01*
X76956Y11803D01*
X76958Y11801D01*
X76962Y11797D01*
X76968Y11793D01*
X76979Y11784D01*
X76991Y11774D01*
X77006Y11763D01*
X77023Y11753D01*
X77044Y11742D01*
X77067Y11730D01*
X77092Y11719D01*
X77119Y11709D01*
X77149Y11698D01*
X77180Y11690D01*
X77216Y11686D01*
X77252Y11682D01*
X77292Y11679D01*
X77306D01*
X77317Y11682D01*
X77332D01*
X77346Y11684D01*
X77384Y11688D01*
X77426Y11696D01*
X77470Y11709D01*
X77514Y11723D01*
X77558Y11747D01*
X77560D01*
X77562Y11751D01*
X77569Y11753D01*
X77577Y11759D01*
X77596Y11774D01*
X77621Y11795D01*
X77651Y11822D01*
X77678Y11856D01*
X77707Y11894D01*
X77733Y11936D01*
X77924Y11787D01*
Y11784D01*
X77920Y11780D01*
X77915Y11772D01*
X77909Y11761D01*
X77901Y11749D01*
X77892Y11734D01*
X77865Y11698D01*
X77833Y11660D01*
X77791Y11619D01*
X77743Y11576D01*
X77686Y11539D01*
X77684D01*
X77680Y11535D01*
X77670Y11530D01*
X77657Y11524D01*
X77642Y11518D01*
X77623Y11509D01*
X77600Y11501D01*
X77577Y11492D01*
X77548Y11482D01*
X77518Y11474D01*
X77485Y11465D01*
X77451Y11459D01*
X77413Y11453D01*
X77373Y11448D01*
X77334Y11446D01*
X77289Y11444D01*
X77260D01*
X77245Y11446D01*
X77229D01*
X77208Y11448D01*
X77187Y11451D01*
X77138Y11459D01*
X77086Y11467D01*
X77031Y11482D01*
X76979Y11501D01*
X76977D01*
X76972Y11503D01*
X76966Y11507D01*
X76956Y11511D01*
X76943Y11518D01*
X76930Y11524D01*
X76897Y11543D01*
X76861Y11566D01*
X76821Y11593D01*
X76781Y11625D01*
X76744Y11663D01*
Y11665D01*
X76739Y11667D01*
X76735Y11673D01*
X76729Y11682D01*
X76720Y11692D01*
X76710Y11705D01*
X76689Y11734D01*
X76666Y11772D01*
X76643Y11816D01*
X76617Y11864D01*
X76596Y11919D01*
Y11921D01*
X76594Y11925D01*
X76592Y11934D01*
X76588Y11946D01*
X76584Y11959D01*
X76580Y11975D01*
X76575Y11994D01*
X76571Y12017D01*
X76567Y12041D01*
X76563Y12066D01*
X76555Y12122D01*
X76548Y12188D01*
X76546Y12255D01*
Y12257D01*
Y12263D01*
Y12274D01*
Y12286D01*
X76548Y12303D01*
Y12322D01*
X76550Y12343D01*
X76552Y12368D01*
X76559Y12419D01*
X76569Y12477D01*
X76582Y12534D01*
X76599Y12593D01*
Y12595D01*
X76601Y12599D01*
X76605Y12608D01*
X76609Y12618D01*
X76613Y12631D01*
X76622Y12648D01*
X76639Y12681D01*
X76660Y12723D01*
X76685Y12765D01*
X76714Y12809D01*
X76748Y12851D01*
X76750Y12853D01*
X76752Y12855D01*
X76765Y12868D01*
X76785Y12889D01*
X76811Y12912D01*
X76844Y12937D01*
X76884Y12965D01*
X76926Y12992D01*
X76974Y13015D01*
X76977D01*
X76981Y13017D01*
X76987Y13021D01*
X76998Y13023D01*
X77010Y13030D01*
X77025Y13034D01*
X77042Y13038D01*
X77063Y13044D01*
X77105Y13055D01*
X77155Y13065D01*
X77210Y13072D01*
X77268Y13074D01*
X77296D01*
X77311Y13072D01*
D02*
G37*
G36*
X87463Y163209D02*
X87476Y163203D01*
X87498Y163193D01*
X87526Y163180D01*
X87564Y163162D01*
X87605Y163139D01*
X87652Y163114D01*
X87706Y163086D01*
X87763Y163054D01*
X87823Y163016D01*
X87883Y162978D01*
X87946Y162934D01*
X88013Y162887D01*
X88076Y162836D01*
X88139Y162782D01*
X88202Y162725D01*
X87978Y162362D01*
X87975Y162365D01*
X87962Y162378D01*
X87940Y162397D01*
X87912Y162419D01*
X87877Y162447D01*
X87839Y162482D01*
X87792Y162517D01*
X87741Y162558D01*
X87687Y162599D01*
X87627Y162643D01*
X87501Y162729D01*
X87368Y162811D01*
X87302Y162849D01*
X87232Y162883D01*
X87457Y163212D01*
X87463Y163209D01*
D02*
G37*
G36*
X87343Y162185D02*
X87356Y162182D01*
X87378Y162169D01*
X87406Y162157D01*
X87444Y162141D01*
X87485Y162119D01*
X87532Y162093D01*
X87586Y162065D01*
X87643Y162033D01*
X87703Y161999D01*
X87763Y161961D01*
X87826Y161920D01*
X87893Y161875D01*
X87956Y161825D01*
X88082Y161721D01*
X87839Y161376D01*
X87836Y161379D01*
X87826Y161389D01*
X87810Y161401D01*
X87785Y161424D01*
X87757Y161446D01*
X87725Y161474D01*
X87684Y161506D01*
X87640Y161540D01*
X87589Y161575D01*
X87536Y161616D01*
X87479Y161654D01*
X87415Y161695D01*
X87349Y161736D01*
X87280Y161781D01*
X87204Y161819D01*
X87128Y161860D01*
X87336Y162188D01*
X87343Y162185D01*
D02*
G37*
G36*
X89694Y163316D02*
X89697Y163313D01*
X89703Y163307D01*
X89710Y163294D01*
X89713Y163278D01*
Y163266D01*
X89700Y163250D01*
X89691Y163244D01*
X89678Y163237D01*
X89662Y163231D01*
X89640Y163228D01*
X89451Y162571D01*
X90629D01*
Y159540D01*
X90282D01*
Y159783D01*
X88740D01*
Y159524D01*
X88392D01*
Y162571D01*
X89087D01*
X89242Y163386D01*
X89694Y163316D01*
D02*
G37*
G36*
X88029Y160804D02*
Y160801D01*
X88025Y160798D01*
X88022Y160785D01*
X88016Y160773D01*
X88010Y160757D01*
X88000Y160738D01*
X87978Y160687D01*
X87950Y160627D01*
X87918Y160558D01*
X87880Y160479D01*
X87842Y160393D01*
X87795Y160302D01*
X87747Y160204D01*
X87697Y160103D01*
X87643Y160002D01*
X87526Y159793D01*
X87466Y159692D01*
X87406Y159594D01*
Y159591D01*
X87409Y159578D01*
X87412Y159562D01*
Y159543D01*
X87409Y159528D01*
X87400Y159512D01*
X87381Y159505D01*
X87352D01*
X87008Y159850D01*
Y159853D01*
X87014Y159856D01*
X87030Y159875D01*
X87052Y159907D01*
X87087Y159948D01*
X87125Y159998D01*
X87172Y160062D01*
X87223Y160131D01*
X87277Y160210D01*
X87333Y160299D01*
X87397Y160393D01*
X87457Y160494D01*
X87520Y160602D01*
X87583Y160716D01*
X87643Y160833D01*
X87700Y160953D01*
X87754Y161079D01*
X88029Y160804D01*
D02*
G37*
%LPC*%
G36*
X88480Y166835D02*
X88272D01*
Y166573D01*
X88480D01*
Y166835D01*
D02*
G37*
G36*
X89033Y166364D02*
X88774D01*
Y166209D01*
Y166203D01*
X88778Y166190D01*
X88784Y166171D01*
X88793Y166149D01*
X88812Y166127D01*
X88841Y166108D01*
X88857Y166102D01*
X88879Y166095D01*
X88901Y166089D01*
X89033D01*
Y166364D01*
D02*
G37*
G36*
X87959D02*
X87681D01*
Y166054D01*
X87690D01*
X87703Y166058D01*
X87719Y166061D01*
X87757Y166077D01*
X87779Y166086D01*
X87801Y166099D01*
X87826Y166118D01*
X87848Y166137D01*
X87874Y166162D01*
X87896Y166190D01*
X87915Y166225D01*
X87934Y166266D01*
X87946Y166314D01*
X87959Y166364D01*
D02*
G37*
G36*
X88480D02*
X88253D01*
Y166358D01*
X88250Y166342D01*
X88247Y166317D01*
X88243Y166285D01*
X88234Y166244D01*
X88218Y166200D01*
X88199Y166152D01*
X88177Y166102D01*
X88146Y166051D01*
X88108Y166001D01*
X88060Y165950D01*
X88006Y165903D01*
X87940Y165862D01*
X87864Y165827D01*
X87779Y165798D01*
X87731Y165786D01*
X87681Y165776D01*
Y165707D01*
X89033D01*
Y165881D01*
X88743D01*
X88730Y165884D01*
X88711D01*
X88692Y165890D01*
X88670Y165896D01*
X88645Y165906D01*
X88620Y165919D01*
X88591Y165934D01*
X88569Y165953D01*
X88544Y165975D01*
X88525Y166004D01*
X88506Y166039D01*
X88493Y166077D01*
X88484Y166124D01*
X88480Y166174D01*
Y166364D01*
D02*
G37*
G36*
X89033Y165498D02*
X87681D01*
Y165290D01*
X89033D01*
Y165498D01*
D02*
G37*
G36*
X90247Y157772D02*
X89675D01*
X89678Y157766D01*
X89691Y157750D01*
X89713Y157725D01*
X89741Y157690D01*
X89779Y157655D01*
X89823Y157614D01*
X89877Y157573D01*
X89937Y157532D01*
X89940Y157535D01*
X89947Y157538D01*
X89959Y157545D01*
X89975Y157554D01*
X90013Y157582D01*
X90060Y157614D01*
X90111Y157652D01*
X90162Y157693D01*
X90209Y157734D01*
X90228Y157753D01*
X90247Y157772D01*
D02*
G37*
G36*
X88705Y157807D02*
X88341D01*
Y157513D01*
X88705D01*
Y157807D01*
D02*
G37*
G36*
X88047D02*
X87684D01*
Y157513D01*
X88047D01*
Y157807D01*
D02*
G37*
G36*
X89729Y156698D02*
X88291D01*
Y156508D01*
X89729D01*
Y156698D01*
D02*
G37*
G36*
Y156300D02*
X88291D01*
Y156075D01*
X89729D01*
Y156300D01*
D02*
G37*
G36*
Y155867D02*
X88291D01*
Y155607D01*
X89729Y155642D01*
Y155867D01*
D02*
G37*
G36*
X95364Y19229D02*
X95337D01*
X95060Y18255D01*
X95641D01*
X95364Y19229D01*
D02*
G37*
G36*
X90202Y18127D02*
X89854D01*
X89839Y18125D01*
X89820D01*
X89776Y18121D01*
X89728Y18112D01*
X89679Y18102D01*
X89633Y18087D01*
X89612Y18079D01*
X89593Y18068D01*
X89589Y18066D01*
X89579Y18057D01*
X89564Y18045D01*
X89547Y18026D01*
X89528Y18003D01*
X89514Y17974D01*
X89503Y17940D01*
X89501Y17921D01*
X89499Y17902D01*
Y17839D01*
Y17837D01*
Y17835D01*
Y17829D01*
X89501Y17820D01*
X89503Y17799D01*
X89509Y17774D01*
X89518Y17747D01*
X89533Y17717D01*
X89551Y17690D01*
X89579Y17667D01*
X89583Y17665D01*
X89593Y17659D01*
X89612Y17648D01*
X89638Y17640D01*
X89669Y17629D01*
X89709Y17619D01*
X89753Y17612D01*
X89803Y17610D01*
X89820D01*
X89833Y17612D01*
X89847D01*
X89864Y17614D01*
X89904Y17621D01*
X89950Y17629D01*
X89997Y17644D01*
X90045Y17663D01*
X90089Y17688D01*
X90091D01*
X90093Y17692D01*
X90106Y17703D01*
X90125Y17719D01*
X90146Y17742D01*
X90167Y17770D01*
X90186Y17803D01*
X90198Y17841D01*
X90200Y17862D01*
X90202Y17883D01*
Y18127D01*
D02*
G37*
G36*
X86305Y18786D02*
X86286D01*
X86273Y18784D01*
X86256Y18782D01*
X86238Y18780D01*
X86217Y18776D01*
X86194Y18771D01*
X86145Y18757D01*
X86093Y18736D01*
X86067Y18723D01*
X86042Y18709D01*
X86019Y18690D01*
X85996Y18669D01*
X85994Y18666D01*
X85992Y18662D01*
X85986Y18656D01*
X85977Y18648D01*
X85969Y18635D01*
X85960Y18620D01*
X85950Y18601D01*
X85939Y18583D01*
X85927Y18557D01*
X85916Y18532D01*
X85908Y18503D01*
X85900Y18471D01*
X85891Y18438D01*
X85885Y18400D01*
X85883Y18360D01*
X85881Y18318D01*
Y18089D01*
Y18087D01*
Y18079D01*
Y18066D01*
X85883Y18051D01*
X85885Y18030D01*
X85887Y18009D01*
X85891Y17984D01*
X85895Y17957D01*
X85908Y17900D01*
X85929Y17841D01*
X85944Y17814D01*
X85958Y17787D01*
X85975Y17761D01*
X85996Y17738D01*
X85998Y17736D01*
X86002Y17734D01*
X86009Y17728D01*
X86017Y17719D01*
X86030Y17711D01*
X86042Y17703D01*
X86059Y17692D01*
X86078Y17682D01*
X86099Y17669D01*
X86122Y17659D01*
X86147Y17650D01*
X86175Y17642D01*
X86235Y17627D01*
X86269Y17625D01*
X86305Y17623D01*
X86324D01*
X86336Y17625D01*
X86353Y17627D01*
X86372Y17629D01*
X86393Y17633D01*
X86414Y17638D01*
X86464Y17650D01*
X86515Y17671D01*
X86540Y17686D01*
X86565Y17700D01*
X86588Y17717D01*
X86611Y17738D01*
X86614Y17740D01*
X86616Y17745D01*
X86622Y17751D01*
X86630Y17759D01*
X86639Y17772D01*
X86647Y17787D01*
X86658Y17806D01*
X86670Y17827D01*
X86681Y17850D01*
X86691Y17875D01*
X86700Y17904D01*
X86708Y17936D01*
X86716Y17969D01*
X86723Y18007D01*
X86725Y18047D01*
X86727Y18089D01*
Y18318D01*
Y18320D01*
Y18328D01*
Y18341D01*
X86725Y18356D01*
X86723Y18377D01*
X86721Y18398D01*
X86716Y18423D01*
X86712Y18450D01*
X86700Y18507D01*
X86679Y18566D01*
X86666Y18593D01*
X86649Y18620D01*
X86632Y18645D01*
X86611Y18669D01*
X86609Y18671D01*
X86605Y18673D01*
X86599Y18679D01*
X86590Y18688D01*
X86578Y18696D01*
X86565Y18706D01*
X86548Y18717D01*
X86529Y18727D01*
X86509Y18738D01*
X86485Y18748D01*
X86460Y18759D01*
X86433Y18767D01*
X86372Y18782D01*
X86340Y18784D01*
X86305Y18786D01*
D02*
G37*
G36*
X88312Y16091D02*
X88266D01*
X88252Y16089D01*
X88235Y16086D01*
X88216Y16084D01*
X88195Y16080D01*
X88172Y16076D01*
X88121Y16061D01*
X88096Y16051D01*
X88071Y16038D01*
X88044Y16024D01*
X88020Y16009D01*
X87995Y15988D01*
X87974Y15967D01*
X87972Y15965D01*
X87970Y15960D01*
X87964Y15954D01*
X87958Y15944D01*
X87949Y15933D01*
X87941Y15919D01*
X87930Y15900D01*
X87920Y15881D01*
X87909Y15860D01*
X87899Y15834D01*
X87890Y15807D01*
X87882Y15780D01*
X87876Y15748D01*
X87869Y15715D01*
X87867Y15681D01*
X87865Y15643D01*
Y15385D01*
Y15383D01*
Y15377D01*
Y15366D01*
X87867Y15351D01*
X87869Y15335D01*
X87871Y15316D01*
X87874Y15293D01*
X87880Y15270D01*
X87892Y15217D01*
X87911Y15165D01*
X87924Y15137D01*
X87939Y15110D01*
X87955Y15085D01*
X87974Y15062D01*
X87976Y15060D01*
X87979Y15057D01*
X87987Y15051D01*
X87995Y15043D01*
X88006Y15034D01*
X88020Y15024D01*
X88037Y15011D01*
X88054Y15001D01*
X88075Y14990D01*
X88098Y14978D01*
X88125Y14967D01*
X88153Y14959D01*
X88182Y14950D01*
X88214Y14946D01*
X88249Y14942D01*
X88285Y14940D01*
X88298D01*
X88312Y14942D01*
X88331D01*
X88352Y14944D01*
X88377Y14948D01*
X88428Y14959D01*
X88430D01*
X88438Y14963D01*
X88451Y14967D01*
X88468Y14974D01*
X88487Y14982D01*
X88508Y14990D01*
X88548Y15015D01*
X88550Y15018D01*
X88556Y15022D01*
X88566Y15030D01*
X88579Y15041D01*
X88592Y15055D01*
X88606Y15072D01*
X88619Y15089D01*
X88632Y15110D01*
X88634Y15112D01*
X88636Y15121D01*
X88642Y15133D01*
X88648Y15148D01*
X88653Y15169D01*
X88659Y15190D01*
X88661Y15215D01*
X88663Y15242D01*
Y15786D01*
Y15790D01*
Y15799D01*
X88661Y15813D01*
X88659Y15830D01*
X88655Y15851D01*
X88651Y15872D01*
X88642Y15895D01*
X88632Y15916D01*
X88630Y15919D01*
X88625Y15927D01*
X88619Y15937D01*
X88611Y15950D01*
X88598Y15965D01*
X88583Y15979D01*
X88566Y15996D01*
X88548Y16011D01*
X88546Y16013D01*
X88539Y16017D01*
X88527Y16026D01*
X88514Y16034D01*
X88495Y16042D01*
X88474Y16053D01*
X88453Y16061D01*
X88428Y16070D01*
X88426D01*
X88415Y16074D01*
X88403Y16076D01*
X88386Y16080D01*
X88363Y16084D01*
X88340Y16086D01*
X88312Y16091D01*
D02*
G37*
G36*
X84700D02*
X84673D01*
X84654Y16089D01*
X84633Y16086D01*
X84608Y16082D01*
X84558Y16070D01*
X84556D01*
X84547Y16066D01*
X84535Y16061D01*
X84518Y16055D01*
X84499Y16047D01*
X84478Y16036D01*
X84436Y16011D01*
X84434Y16009D01*
X84427Y16005D01*
X84417Y15996D01*
X84406Y15986D01*
X84394Y15971D01*
X84379Y15954D01*
X84367Y15937D01*
X84354Y15916D01*
X84352Y15914D01*
X84350Y15906D01*
X84346Y15895D01*
X84339Y15879D01*
X84333Y15860D01*
X84329Y15837D01*
X84327Y15813D01*
X84325Y15786D01*
Y15242D01*
Y15238D01*
Y15230D01*
X84327Y15215D01*
X84329Y15198D01*
X84331Y15177D01*
X84337Y15156D01*
X84343Y15133D01*
X84354Y15110D01*
X84356Y15108D01*
X84360Y15102D01*
X84367Y15091D01*
X84375Y15076D01*
X84387Y15062D01*
X84400Y15047D01*
X84417Y15030D01*
X84436Y15015D01*
X84438Y15013D01*
X84446Y15009D01*
X84457Y15003D01*
X84471Y14995D01*
X84490Y14986D01*
X84509Y14976D01*
X84532Y14967D01*
X84558Y14959D01*
X84560D01*
X84570Y14957D01*
X84583Y14953D01*
X84602Y14950D01*
X84623Y14946D01*
X84646Y14942D01*
X84673Y14940D01*
X84719D01*
X84734Y14942D01*
X84751Y14944D01*
X84770Y14946D01*
X84791Y14950D01*
X84814Y14955D01*
X84864Y14969D01*
X84889Y14980D01*
X84915Y14992D01*
X84940Y15005D01*
X84965Y15022D01*
X84988Y15041D01*
X85009Y15062D01*
X85011Y15064D01*
X85013Y15068D01*
X85020Y15074D01*
X85026Y15085D01*
X85034Y15095D01*
X85045Y15110D01*
X85055Y15129D01*
X85066Y15148D01*
X85074Y15171D01*
X85085Y15194D01*
X85095Y15221D01*
X85104Y15249D01*
X85110Y15280D01*
X85116Y15314D01*
X85118Y15347D01*
X85120Y15385D01*
Y15643D01*
Y15645D01*
Y15652D01*
Y15662D01*
X85118Y15677D01*
X85116Y15694D01*
X85114Y15713D01*
X85112Y15736D01*
X85106Y15759D01*
X85093Y15811D01*
X85074Y15866D01*
X85062Y15891D01*
X85047Y15919D01*
X85028Y15944D01*
X85009Y15967D01*
X85007Y15969D01*
X85005Y15973D01*
X84999Y15977D01*
X84988Y15986D01*
X84978Y15996D01*
X84965Y16007D01*
X84948Y16017D01*
X84929Y16030D01*
X84908Y16040D01*
X84885Y16051D01*
X84860Y16061D01*
X84833Y16072D01*
X84803Y16080D01*
X84772Y16084D01*
X84736Y16089D01*
X84700Y16091D01*
D02*
G37*
G36*
X86771Y15438D02*
X86422D01*
X86408Y15436D01*
X86389D01*
X86345Y15431D01*
X86296Y15423D01*
X86248Y15412D01*
X86202Y15398D01*
X86181Y15389D01*
X86162Y15379D01*
X86158Y15377D01*
X86147Y15368D01*
X86133Y15356D01*
X86116Y15337D01*
X86097Y15314D01*
X86082Y15284D01*
X86072Y15251D01*
X86070Y15232D01*
X86067Y15213D01*
Y15150D01*
Y15148D01*
Y15146D01*
Y15139D01*
X86070Y15131D01*
X86072Y15110D01*
X86078Y15085D01*
X86086Y15057D01*
X86101Y15028D01*
X86120Y15001D01*
X86147Y14978D01*
X86151Y14976D01*
X86162Y14969D01*
X86181Y14959D01*
X86206Y14950D01*
X86238Y14940D01*
X86278Y14929D01*
X86322Y14923D01*
X86372Y14921D01*
X86389D01*
X86401Y14923D01*
X86416D01*
X86433Y14925D01*
X86473Y14931D01*
X86519Y14940D01*
X86565Y14955D01*
X86614Y14974D01*
X86658Y14999D01*
X86660D01*
X86662Y15003D01*
X86674Y15013D01*
X86693Y15030D01*
X86714Y15053D01*
X86735Y15081D01*
X86754Y15114D01*
X86767Y15152D01*
X86769Y15173D01*
X86771Y15194D01*
Y15438D01*
D02*
G37*
G36*
X77443Y16097D02*
X77424D01*
X77411Y16095D01*
X77394Y16093D01*
X77376Y16091D01*
X77355Y16086D01*
X77332Y16082D01*
X77283Y16068D01*
X77231Y16047D01*
X77205Y16034D01*
X77180Y16019D01*
X77157Y16000D01*
X77134Y15979D01*
X77132Y15977D01*
X77130Y15973D01*
X77124Y15967D01*
X77115Y15958D01*
X77107Y15946D01*
X77098Y15931D01*
X77088Y15912D01*
X77077Y15893D01*
X77065Y15868D01*
X77054Y15843D01*
X77046Y15813D01*
X77038Y15782D01*
X77029Y15748D01*
X77023Y15711D01*
X77021Y15671D01*
X77019Y15629D01*
Y15400D01*
Y15398D01*
Y15389D01*
Y15377D01*
X77021Y15362D01*
X77023Y15341D01*
X77025Y15320D01*
X77029Y15295D01*
X77033Y15268D01*
X77046Y15211D01*
X77067Y15152D01*
X77082Y15125D01*
X77096Y15097D01*
X77113Y15072D01*
X77134Y15049D01*
X77136Y15047D01*
X77140Y15045D01*
X77147Y15039D01*
X77155Y15030D01*
X77168Y15022D01*
X77180Y15013D01*
X77197Y15003D01*
X77216Y14992D01*
X77237Y14980D01*
X77260Y14969D01*
X77285Y14961D01*
X77313Y14953D01*
X77373Y14938D01*
X77407Y14936D01*
X77443Y14934D01*
X77462D01*
X77474Y14936D01*
X77491Y14938D01*
X77510Y14940D01*
X77531Y14944D01*
X77552Y14948D01*
X77602Y14961D01*
X77653Y14982D01*
X77678Y14997D01*
X77703Y15011D01*
X77726Y15028D01*
X77749Y15049D01*
X77751Y15051D01*
X77754Y15055D01*
X77760Y15062D01*
X77768Y15070D01*
X77777Y15083D01*
X77785Y15097D01*
X77796Y15116D01*
X77808Y15137D01*
X77819Y15160D01*
X77829Y15186D01*
X77838Y15215D01*
X77846Y15247D01*
X77854Y15280D01*
X77861Y15318D01*
X77863Y15358D01*
X77865Y15400D01*
Y15629D01*
Y15631D01*
Y15639D01*
Y15652D01*
X77863Y15666D01*
X77861Y15687D01*
X77859Y15709D01*
X77854Y15734D01*
X77850Y15761D01*
X77838Y15818D01*
X77817Y15877D01*
X77804Y15904D01*
X77787Y15931D01*
X77770Y15956D01*
X77749Y15979D01*
X77747Y15981D01*
X77743Y15984D01*
X77737Y15990D01*
X77728Y15998D01*
X77716Y16007D01*
X77703Y16017D01*
X77686Y16028D01*
X77667Y16038D01*
X77646Y16049D01*
X77623Y16059D01*
X77598Y16070D01*
X77571Y16078D01*
X77510Y16093D01*
X77478Y16095D01*
X77443Y16097D01*
D02*
G37*
G36*
X104432Y12868D02*
X104384D01*
X104373Y12866D01*
X104358D01*
X104342Y12864D01*
X104304Y12857D01*
X104264Y12849D01*
X104222Y12834D01*
X104182Y12813D01*
X104165Y12801D01*
X104148Y12786D01*
X104144Y12782D01*
X104136Y12771D01*
X104123Y12755D01*
X104111Y12729D01*
X104096Y12700D01*
X104083Y12662D01*
X104075Y12620D01*
X104071Y12574D01*
Y12490D01*
Y12488D01*
Y12484D01*
Y12477D01*
X104073Y12469D01*
X104075Y12444D01*
X104081Y12414D01*
X104090Y12381D01*
X104104Y12345D01*
X104123Y12309D01*
X104148Y12278D01*
X104153Y12274D01*
X104163Y12265D01*
X104182Y12253D01*
X104209Y12238D01*
X104245Y12223D01*
X104289Y12211D01*
X104314Y12207D01*
X104340Y12202D01*
X104369Y12198D01*
X104417D01*
X104428Y12200D01*
X104443D01*
X104459Y12202D01*
X104497Y12209D01*
X104537Y12217D01*
X104579Y12232D01*
X104619Y12251D01*
X104636Y12263D01*
X104653Y12278D01*
X104657Y12282D01*
X104665Y12293D01*
X104678Y12309D01*
X104694Y12335D01*
X104709Y12364D01*
X104722Y12402D01*
X104730Y12444D01*
X104734Y12490D01*
Y12574D01*
Y12576D01*
Y12580D01*
Y12587D01*
X104732Y12595D01*
X104730Y12620D01*
X104724Y12650D01*
X104716Y12683D01*
X104701Y12719D01*
X104680Y12755D01*
X104653Y12786D01*
X104648Y12790D01*
X104638Y12799D01*
X104619Y12811D01*
X104592Y12828D01*
X104556Y12843D01*
X104512Y12855D01*
X104489Y12860D01*
X104461Y12864D01*
X104432Y12868D01*
D02*
G37*
G36*
X104661Y11480D02*
X104090D01*
X104086Y11478D01*
X104079Y11474D01*
X104071Y11469D01*
X104048Y11455D01*
X104023Y11434D01*
X103997Y11408D01*
X103974Y11375D01*
X103966Y11356D01*
X103960Y11335D01*
X103955Y11312D01*
X103953Y11289D01*
Y11285D01*
X103955Y11272D01*
X103957Y11255D01*
X103964Y11232D01*
X103972Y11207D01*
X103985Y11178D01*
X104004Y11150D01*
X104029Y11123D01*
X104033Y11121D01*
X104043Y11112D01*
X104062Y11100D01*
X104075Y11094D01*
X104092Y11087D01*
X104109Y11081D01*
X104128Y11075D01*
X104148Y11068D01*
X104172Y11062D01*
X104199Y11058D01*
X104226Y11054D01*
X104258Y11051D01*
X104566D01*
X104583Y11054D01*
X104602Y11056D01*
X104623D01*
X104646Y11060D01*
X104694Y11066D01*
X104747Y11077D01*
X104795Y11091D01*
X104818Y11102D01*
X104839Y11112D01*
X104841D01*
X104844Y11114D01*
X104856Y11123D01*
X104873Y11138D01*
X104894Y11159D01*
X104915Y11184D01*
X104932Y11213D01*
X104944Y11249D01*
X104946Y11270D01*
X104949Y11291D01*
Y11295D01*
Y11306D01*
X104944Y11320D01*
X104940Y11339D01*
X104932Y11360D01*
X104919Y11383D01*
X104900Y11406D01*
X104877Y11427D01*
X104873Y11429D01*
X104865Y11436D01*
X104846Y11444D01*
X104821Y11455D01*
X104804Y11459D01*
X104787Y11463D01*
X104766Y11467D01*
X104743Y11472D01*
X104718Y11476D01*
X104692Y11478D01*
X104661Y11480D01*
D02*
G37*
G36*
X93571Y12868D02*
X93523D01*
X93512Y12866D01*
X93497D01*
X93480Y12864D01*
X93443Y12857D01*
X93403Y12849D01*
X93361Y12834D01*
X93321Y12813D01*
X93304Y12801D01*
X93287Y12786D01*
X93283Y12782D01*
X93275Y12771D01*
X93262Y12755D01*
X93249Y12729D01*
X93235Y12700D01*
X93222Y12662D01*
X93214Y12620D01*
X93210Y12574D01*
Y12490D01*
Y12488D01*
Y12484D01*
Y12477D01*
X93212Y12469D01*
X93214Y12444D01*
X93220Y12414D01*
X93229Y12381D01*
X93243Y12345D01*
X93262Y12309D01*
X93287Y12278D01*
X93291Y12274D01*
X93302Y12265D01*
X93321Y12253D01*
X93348Y12238D01*
X93384Y12223D01*
X93428Y12211D01*
X93453Y12207D01*
X93478Y12202D01*
X93508Y12198D01*
X93556D01*
X93567Y12200D01*
X93581D01*
X93598Y12202D01*
X93636Y12209D01*
X93676Y12217D01*
X93718Y12232D01*
X93758Y12251D01*
X93774Y12263D01*
X93791Y12278D01*
X93796Y12282D01*
X93804Y12293D01*
X93817Y12309D01*
X93833Y12335D01*
X93848Y12364D01*
X93861Y12402D01*
X93869Y12444D01*
X93873Y12490D01*
Y12574D01*
Y12576D01*
Y12580D01*
Y12587D01*
X93871Y12595D01*
X93869Y12620D01*
X93863Y12650D01*
X93854Y12683D01*
X93840Y12719D01*
X93819Y12755D01*
X93791Y12786D01*
X93787Y12790D01*
X93777Y12799D01*
X93758Y12811D01*
X93730Y12828D01*
X93695Y12843D01*
X93651Y12855D01*
X93628Y12860D01*
X93600Y12864D01*
X93571Y12868D01*
D02*
G37*
G36*
X93800Y11480D02*
X93229D01*
X93224Y11478D01*
X93218Y11474D01*
X93210Y11469D01*
X93186Y11455D01*
X93161Y11434D01*
X93136Y11408D01*
X93113Y11375D01*
X93105Y11356D01*
X93098Y11335D01*
X93094Y11312D01*
X93092Y11289D01*
Y11285D01*
X93094Y11272D01*
X93096Y11255D01*
X93103Y11232D01*
X93111Y11207D01*
X93124Y11178D01*
X93142Y11150D01*
X93168Y11123D01*
X93172Y11121D01*
X93182Y11112D01*
X93201Y11100D01*
X93214Y11094D01*
X93231Y11087D01*
X93247Y11081D01*
X93266Y11075D01*
X93287Y11068D01*
X93310Y11062D01*
X93338Y11058D01*
X93365Y11054D01*
X93397Y11051D01*
X93705D01*
X93722Y11054D01*
X93741Y11056D01*
X93762D01*
X93785Y11060D01*
X93833Y11066D01*
X93886Y11077D01*
X93934Y11091D01*
X93957Y11102D01*
X93978Y11112D01*
X93980D01*
X93982Y11114D01*
X93995Y11123D01*
X94012Y11138D01*
X94033Y11159D01*
X94054Y11184D01*
X94071Y11213D01*
X94083Y11249D01*
X94085Y11270D01*
X94087Y11291D01*
Y11295D01*
Y11306D01*
X94083Y11320D01*
X94079Y11339D01*
X94071Y11360D01*
X94058Y11383D01*
X94039Y11406D01*
X94016Y11427D01*
X94012Y11429D01*
X94003Y11436D01*
X93985Y11444D01*
X93959Y11455D01*
X93942Y11459D01*
X93926Y11463D01*
X93905Y11467D01*
X93882Y11472D01*
X93856Y11476D01*
X93831Y11478D01*
X93800Y11480D01*
D02*
G37*
G36*
X82796Y13338D02*
X82340D01*
Y12597D01*
X82810D01*
X82823Y12599D01*
X82836D01*
X82850Y12601D01*
X82886Y12608D01*
X82926Y12616D01*
X82966Y12629D01*
X83006Y12648D01*
X83039Y12673D01*
X83043Y12677D01*
X83052Y12687D01*
X83067Y12704D01*
X83081Y12729D01*
X83096Y12761D01*
X83111Y12799D01*
X83119Y12845D01*
X83123Y12895D01*
Y13038D01*
Y13040D01*
Y13044D01*
Y13053D01*
X83121Y13061D01*
Y13074D01*
X83119Y13089D01*
X83113Y13120D01*
X83102Y13156D01*
X83088Y13194D01*
X83067Y13229D01*
X83039Y13261D01*
X83035Y13265D01*
X83025Y13273D01*
X83004Y13286D01*
X82978Y13301D01*
X82943Y13313D01*
X82901Y13326D01*
X82852Y13334D01*
X82796Y13338D01*
D02*
G37*
G36*
X75475Y13347D02*
X75093D01*
Y12675D01*
X75490D01*
X75502Y12677D01*
X75515D01*
X75532Y12679D01*
X75568Y12683D01*
X75607Y12692D01*
X75647Y12704D01*
X75687Y12719D01*
X75723Y12742D01*
X75727Y12746D01*
X75738Y12755D01*
X75750Y12771D01*
X75767Y12795D01*
X75784Y12824D01*
X75796Y12860D01*
X75807Y12904D01*
X75811Y12954D01*
Y13065D01*
Y13068D01*
Y13072D01*
Y13080D01*
X75809Y13089D01*
X75807Y13116D01*
X75801Y13147D01*
X75790Y13181D01*
X75773Y13217D01*
X75752Y13250D01*
X75723Y13277D01*
X75719Y13280D01*
X75706Y13288D01*
X75687Y13298D01*
X75660Y13313D01*
X75624Y13326D01*
X75582Y13336D01*
X75532Y13345D01*
X75475Y13347D01*
D02*
G37*
G36*
X75521Y12448D02*
X75093D01*
Y11719D01*
X75538D01*
X75551Y11721D01*
X75563D01*
X75580Y11723D01*
X75620Y11728D01*
X75662Y11738D01*
X75706Y11751D01*
X75750Y11768D01*
X75788Y11793D01*
X75790D01*
X75792Y11797D01*
X75803Y11807D01*
X75817Y11824D01*
X75836Y11850D01*
X75853Y11883D01*
X75868Y11923D01*
X75878Y11969D01*
X75883Y11997D01*
Y12026D01*
Y12144D01*
Y12146D01*
Y12150D01*
Y12158D01*
X75880Y12169D01*
Y12181D01*
X75878Y12196D01*
X75870Y12230D01*
X75859Y12267D01*
X75843Y12305D01*
X75819Y12341D01*
X75805Y12358D01*
X75788Y12372D01*
X75784Y12377D01*
X75778Y12379D01*
X75771Y12385D01*
X75761Y12389D01*
X75748Y12395D01*
X75719Y12410D01*
X75681Y12425D01*
X75635Y12435D01*
X75582Y12444D01*
X75521Y12448D01*
D02*
G37*
G36*
X100803Y12851D02*
X100786D01*
X100770Y12849D01*
X100744Y12847D01*
X100719Y12843D01*
X100690Y12836D01*
X100658Y12828D01*
X100629Y12818D01*
X100625Y12815D01*
X100616Y12811D01*
X100602Y12803D01*
X100583Y12795D01*
X100562Y12780D01*
X100539Y12765D01*
X100515Y12746D01*
X100492Y12725D01*
X100490Y12723D01*
X100482Y12715D01*
X100471Y12702D01*
X100459Y12685D01*
X100444Y12664D01*
X100429Y12641D01*
X100415Y12614D01*
X100400Y12585D01*
X100398Y12580D01*
X100396Y12570D01*
X100390Y12553D01*
X100385Y12532D01*
X100379Y12505D01*
X100373Y12475D01*
X100371Y12442D01*
X100368Y12406D01*
Y12383D01*
X101211D01*
Y12414D01*
Y12416D01*
Y12423D01*
Y12433D01*
X101208Y12448D01*
X101206Y12465D01*
X101204Y12484D01*
X101202Y12505D01*
X101196Y12528D01*
X101183Y12578D01*
X101164Y12631D01*
X101152Y12658D01*
X101137Y12683D01*
X101118Y12708D01*
X101099Y12731D01*
X101097Y12734D01*
X101095Y12736D01*
X101089Y12742D01*
X101078Y12750D01*
X101068Y12759D01*
X101055Y12769D01*
X101038Y12780D01*
X101022Y12792D01*
X101001Y12803D01*
X100978Y12813D01*
X100927Y12832D01*
X100900Y12841D01*
X100868Y12847D01*
X100837Y12849D01*
X100803Y12851D01*
D02*
G37*
G36*
X89942D02*
X89925D01*
X89908Y12849D01*
X89883Y12847D01*
X89858Y12843D01*
X89829Y12836D01*
X89797Y12828D01*
X89768Y12818D01*
X89763Y12815D01*
X89755Y12811D01*
X89740Y12803D01*
X89722Y12795D01*
X89701Y12780D01*
X89677Y12765D01*
X89654Y12746D01*
X89631Y12725D01*
X89629Y12723D01*
X89621Y12715D01*
X89610Y12702D01*
X89598Y12685D01*
X89583Y12664D01*
X89568Y12641D01*
X89553Y12614D01*
X89539Y12585D01*
X89537Y12580D01*
X89535Y12570D01*
X89528Y12553D01*
X89524Y12532D01*
X89518Y12505D01*
X89512Y12475D01*
X89509Y12442D01*
X89507Y12406D01*
Y12383D01*
X90349D01*
Y12414D01*
Y12416D01*
Y12423D01*
Y12433D01*
X90347Y12448D01*
X90345Y12465D01*
X90343Y12484D01*
X90341Y12505D01*
X90335Y12528D01*
X90322Y12578D01*
X90303Y12631D01*
X90291Y12658D01*
X90276Y12683D01*
X90257Y12708D01*
X90238Y12731D01*
X90236Y12734D01*
X90234Y12736D01*
X90228Y12742D01*
X90217Y12750D01*
X90207Y12759D01*
X90194Y12769D01*
X90177Y12780D01*
X90160Y12792D01*
X90139Y12803D01*
X90116Y12813D01*
X90066Y12832D01*
X90039Y12841D01*
X90007Y12847D01*
X89976Y12849D01*
X89942Y12851D01*
D02*
G37*
G36*
X84501Y12841D02*
X84482D01*
X84469Y12839D01*
X84453Y12836D01*
X84434Y12834D01*
X84413Y12830D01*
X84390Y12826D01*
X84341Y12811D01*
X84289Y12790D01*
X84264Y12778D01*
X84238Y12763D01*
X84215Y12744D01*
X84192Y12723D01*
X84190Y12721D01*
X84188Y12717D01*
X84182Y12710D01*
X84173Y12702D01*
X84165Y12689D01*
X84157Y12675D01*
X84146Y12656D01*
X84136Y12637D01*
X84123Y12612D01*
X84112Y12587D01*
X84104Y12557D01*
X84096Y12526D01*
X84087Y12492D01*
X84081Y12454D01*
X84079Y12414D01*
X84077Y12372D01*
Y12144D01*
Y12141D01*
Y12133D01*
Y12120D01*
X84079Y12106D01*
X84081Y12085D01*
X84083Y12064D01*
X84087Y12038D01*
X84091Y12011D01*
X84104Y11954D01*
X84125Y11896D01*
X84140Y11868D01*
X84154Y11841D01*
X84171Y11816D01*
X84192Y11793D01*
X84194Y11791D01*
X84198Y11789D01*
X84205Y11782D01*
X84213Y11774D01*
X84226Y11766D01*
X84238Y11757D01*
X84255Y11747D01*
X84274Y11736D01*
X84295Y11723D01*
X84318Y11713D01*
X84343Y11705D01*
X84371Y11696D01*
X84432Y11682D01*
X84465Y11679D01*
X84501Y11677D01*
X84520D01*
X84532Y11679D01*
X84549Y11682D01*
X84568Y11684D01*
X84589Y11688D01*
X84610Y11692D01*
X84661Y11705D01*
X84711Y11726D01*
X84736Y11740D01*
X84761Y11755D01*
X84784Y11772D01*
X84807Y11793D01*
X84810Y11795D01*
X84812Y11799D01*
X84818Y11805D01*
X84826Y11814D01*
X84835Y11826D01*
X84843Y11841D01*
X84854Y11860D01*
X84866Y11881D01*
X84877Y11904D01*
X84887Y11929D01*
X84896Y11959D01*
X84904Y11990D01*
X84913Y12024D01*
X84919Y12062D01*
X84921Y12101D01*
X84923Y12144D01*
Y12372D01*
Y12375D01*
Y12383D01*
Y12395D01*
X84921Y12410D01*
X84919Y12431D01*
X84917Y12452D01*
X84913Y12477D01*
X84908Y12505D01*
X84896Y12561D01*
X84875Y12620D01*
X84862Y12648D01*
X84845Y12675D01*
X84829Y12700D01*
X84807Y12723D01*
X84805Y12725D01*
X84801Y12727D01*
X84795Y12734D01*
X84786Y12742D01*
X84774Y12750D01*
X84761Y12761D01*
X84745Y12771D01*
X84726Y12782D01*
X84705Y12792D01*
X84681Y12803D01*
X84656Y12813D01*
X84629Y12822D01*
X84568Y12836D01*
X84537Y12839D01*
X84501Y12841D01*
D02*
G37*
G36*
X77271Y12851D02*
X77254D01*
X77237Y12849D01*
X77212Y12847D01*
X77187Y12843D01*
X77157Y12836D01*
X77126Y12828D01*
X77096Y12818D01*
X77092Y12815D01*
X77084Y12811D01*
X77069Y12803D01*
X77050Y12795D01*
X77029Y12780D01*
X77006Y12765D01*
X76983Y12746D01*
X76960Y12725D01*
X76958Y12723D01*
X76949Y12715D01*
X76939Y12702D01*
X76926Y12685D01*
X76911Y12664D01*
X76897Y12641D01*
X76882Y12614D01*
X76867Y12585D01*
X76865Y12580D01*
X76863Y12570D01*
X76857Y12553D01*
X76853Y12532D01*
X76846Y12505D01*
X76840Y12475D01*
X76838Y12442D01*
X76836Y12406D01*
Y12383D01*
X77678D01*
Y12414D01*
Y12416D01*
Y12423D01*
Y12433D01*
X77676Y12448D01*
X77674Y12465D01*
X77672Y12484D01*
X77670Y12505D01*
X77663Y12528D01*
X77651Y12578D01*
X77632Y12631D01*
X77619Y12658D01*
X77605Y12683D01*
X77586Y12708D01*
X77567Y12731D01*
X77565Y12734D01*
X77562Y12736D01*
X77556Y12742D01*
X77546Y12750D01*
X77535Y12759D01*
X77523Y12769D01*
X77506Y12780D01*
X77489Y12792D01*
X77468Y12803D01*
X77445Y12813D01*
X77394Y12832D01*
X77367Y12841D01*
X77336Y12847D01*
X77304Y12849D01*
X77271Y12851D01*
D02*
G37*
G36*
X90282Y162242D02*
X88740D01*
Y161357D01*
X90282D01*
Y162242D01*
D02*
G37*
G36*
Y161029D02*
X88740D01*
Y160109D01*
X90282D01*
Y161029D01*
D02*
G37*
%LPD*%
M02*
