G04*
G04 #@! TF.GenerationSoftware,Altium Limited,Altium Designer,25.8.1 (18)*
G04*
G04 Layer_Physical_Order=2*
G04 Layer_Color=16711680*
%FSLAX25Y25*%
%MOIN*%
G70*
G04*
G04 #@! TF.SameCoordinates,3B06167F-F196-4432-8EE2-EE01A0E386A7*
G04*
G04*
G04 #@! TF.FilePolarity,Positive*
G04*
G01*
G75*
%ADD11C,0.01575*%
%ADD12C,0.00787*%
G04:AMPARAMS|DCode=13|XSize=14mil|YSize=30mil|CornerRadius=0mil|HoleSize=0mil|Usage=FLASHONLY|Rotation=225.000|XOffset=0mil|YOffset=0mil|HoleType=Round|Shape=Rectangle|*
%AMROTATEDRECTD13*
4,1,4,-0.00566,0.01556,0.01556,-0.00566,0.00566,-0.01556,-0.01556,0.00566,-0.00566,0.01556,0.0*
%
%ADD13ROTATEDRECTD13*%

G04:AMPARAMS|DCode=14|XSize=14mil|YSize=41mil|CornerRadius=0mil|HoleSize=0mil|Usage=FLASHONLY|Rotation=225.000|XOffset=0mil|YOffset=0mil|HoleType=Round|Shape=Rectangle|*
%AMROTATEDRECTD14*
4,1,4,-0.00955,0.01945,0.01945,-0.00955,0.00955,-0.01945,-0.01945,0.00955,-0.00955,0.01945,0.0*
%
%ADD14ROTATEDRECTD14*%

G04:AMPARAMS|DCode=15|XSize=27.56mil|YSize=16.54mil|CornerRadius=0mil|HoleSize=0mil|Usage=FLASHONLY|Rotation=315.000|XOffset=0mil|YOffset=0mil|HoleType=Round|Shape=Rectangle|*
%AMROTATEDRECTD15*
4,1,4,-0.01559,0.00390,-0.00390,0.01559,0.01559,-0.00390,0.00390,-0.01559,-0.01559,0.00390,0.0*
%
%ADD15ROTATEDRECTD15*%

%ADD16R,0.02756X0.01260*%
%ADD17C,0.01000*%
D11*
X25984Y110630D02*
D03*
X62205Y114961D02*
D03*
D12*
X114419Y114691D02*
G03*
X113230Y115183I-1189J-1189D01*
G01*
X114419Y114691D02*
G03*
X113230Y115183I-1189J-1189D01*
G01*
X99029Y104149D02*
G03*
X97841Y104642I-1189J-1189D01*
G01*
X99029Y104149D02*
G03*
X97841Y104642I-1189J-1189D01*
G01*
X110613Y87811D02*
G03*
X111801Y87319I1189J1189D01*
G01*
X110613Y87811D02*
G03*
X111801Y87319I1189J1189D01*
G01*
X65600Y121817D02*
G03*
X64411Y122310I-1189J-1189D01*
G01*
X65600Y121817D02*
G03*
X64411Y122310I-1189J-1189D01*
G01*
X69683Y117037D02*
G03*
X69191Y118226I-1681J0D01*
G01*
X69683Y117037D02*
G03*
X69191Y118226I-1681J0D01*
G01*
X62800Y113084D02*
G03*
X63743Y113732I-596J1876D01*
G01*
X63521Y112813D02*
G03*
X62800Y113084I-937J-1395D01*
G01*
X63521Y112813D02*
G03*
X62800Y113084I-937J-1395D01*
G01*
X61778Y116882D02*
G03*
X61567Y113098I427J-1922D01*
G01*
X58166Y109055D02*
G03*
X59210Y109450I0J1575D01*
G01*
X58166Y109055D02*
G03*
X59210Y109450I0J1575D01*
G01*
X27165Y112205D02*
G03*
X27165Y109055I-1181J-1575D01*
G01*
X72918Y101772D02*
G03*
X74107Y101280I1189J1189D01*
G01*
X72918Y101772D02*
G03*
X74107Y101280I1189J1189D01*
G01*
X135748Y158231D02*
X158231Y135748D01*
X125227Y164297D02*
X164297Y125227D01*
X160051Y133024D02*
X162804Y128255D01*
X156991Y137603D02*
X160051Y133024D01*
X146113Y150007D02*
X150007Y146113D01*
X141972Y153638D02*
X146113Y150007D01*
X153638Y141972D02*
X156991Y137603D01*
X150007Y146113D02*
X153638Y141972D01*
X162804Y128255D02*
X165240Y123316D01*
X134599Y94511D02*
X164633Y124546D01*
X165240Y123316D02*
X167348Y118228D01*
X147290Y102747D02*
X166007Y121465D01*
X127918Y101192D02*
X159930Y133205D01*
X125690Y103419D02*
X158146Y135875D01*
X132372Y96738D02*
X163162Y127529D01*
X130145Y98965D02*
X161571Y130391D01*
X117463Y167607D02*
X167607Y117463D01*
X110944Y169672D02*
X169672Y110944D01*
X119009Y110101D02*
X152350Y143442D01*
X116782Y112328D02*
X150269Y145815D01*
X110729Y115183D02*
X145815Y150269D01*
X106275Y115183D02*
X143442Y152350D01*
X114555Y114555D02*
X148060Y148060D01*
X114555Y114555D02*
X148060Y148060D01*
X94783Y172471D02*
X164460Y102793D01*
X90103Y172696D02*
X160006Y102793D01*
X105104Y171058D02*
X171058Y105104D01*
X99756Y171951D02*
X169494Y102213D01*
X85659Y172685D02*
X155552Y102793D01*
X81479Y172411D02*
X151097Y102793D01*
X123463Y105646D02*
X156309Y138492D01*
X121236Y107873D02*
X154375Y141012D01*
X170543Y107693D02*
X171617Y102292D01*
X169164Y102350D02*
X171201Y104387D01*
X171332Y100064D02*
X171843Y100576D01*
X170412Y101514D02*
X171106Y100609D01*
X169118Y113013D02*
X170543Y107693D01*
X167348Y118228D02*
X169118Y113013D01*
X169507Y102208D02*
X170412Y101514D01*
X168453Y102644D02*
X169507Y102208D01*
X172336Y96832D02*
X172696Y91336D01*
X171691Y95969D02*
X172350Y96628D01*
X171691Y91515D02*
X172624Y92448D01*
X171691Y95562D02*
X172471Y94783D01*
X171617Y102292D02*
X172336Y96832D01*
X171106Y100609D02*
X171542Y99556D01*
X171691Y98425D01*
X171111Y100596D02*
X171951Y99756D01*
X160698Y102793D02*
X169498Y111593D01*
X156244Y102793D02*
X168445Y114994D01*
X167323Y102793D02*
X168453Y102644D01*
X165152Y102793D02*
X170439Y108080D01*
X151790Y102793D02*
X167311Y118315D01*
X146507Y102644D02*
X147638Y102793D01*
X167323D01*
X145454Y102208D02*
X146507Y102644D01*
X144549Y101514D02*
X145454Y102208D01*
X143855Y100609D02*
X144549Y101514D01*
X143419Y99556D02*
X143855Y100609D01*
X143270Y98425D02*
X143419Y99556D01*
X143270Y93291D02*
Y98425D01*
X137833Y93291D02*
X143316Y98773D01*
X142288Y93291D02*
X143270Y94273D01*
X139504Y93291D02*
X143270D01*
X128255Y162804D02*
X133024Y160051D01*
X123316Y165240D02*
X128255Y162804D01*
X137603Y156991D02*
X141972Y153638D01*
X133024Y160051D02*
X137603Y156991D01*
X107693Y170543D02*
X113013Y169118D01*
X102292Y171617D02*
X107693Y170543D01*
X118228Y167347D02*
X123316Y165240D01*
X113013Y169118D02*
X118228Y167347D01*
X101821Y115183D02*
X141012Y154375D01*
X97366Y115183D02*
X138492Y156309D01*
X114419Y114691D02*
X135818Y93291D01*
X112534Y111821D02*
X133441Y90914D01*
X106436Y111821D02*
X127576Y90681D01*
X99362Y103816D02*
X107367Y111821D01*
X96832Y172336D02*
X102292Y171617D01*
X79549Y115183D02*
X127529Y163162D01*
X88458Y115183D02*
X133205Y159930D01*
X84004Y115183D02*
X130391Y161571D01*
X88583Y172696D02*
X91336D01*
X85829Y172696D02*
X88583Y172696D01*
X91336D02*
X96832Y172336D01*
X80334D02*
X85829Y172696D01*
X92912Y115183D02*
X135875Y158146D01*
X82371Y104642D02*
X89550Y111821D01*
X84165D02*
X91344Y104642D01*
X77873Y111821D02*
X112534D01*
X79257Y110437D02*
X80641Y111821D01*
X77873D02*
X81759Y107935D01*
X81485Y108210D02*
X85096Y111821D01*
X79711D02*
X86890Y104642D01*
X135818Y93291D02*
X138559D01*
X110498Y92681D02*
X121086Y103269D01*
X138559Y93060D02*
X139504Y92116D01*
X138328Y93291D02*
X138559Y93060D01*
X108271Y94908D02*
X118859Y105496D01*
X106044Y97135D02*
X116632Y107723D01*
X104158Y92740D02*
X104296Y92335D01*
X104047Y93154D02*
X104158Y92740D01*
X139504Y90811D02*
Y93291D01*
X138559Y90811D02*
Y93291D01*
X130769Y90681D02*
X132221Y92133D01*
X112498Y90681D02*
X133441D01*
X117406D02*
X125540Y98815D01*
X112952Y90681D02*
X123313Y101042D01*
X121861Y90681D02*
X127767Y96588D01*
X104528Y91166D02*
X105893Y92531D01*
X91279Y104642D02*
X98458Y111821D01*
X88619D02*
X95798Y104642D01*
X95733D02*
X102912Y111821D01*
X86825Y104642D02*
X94004Y111821D01*
X79099Y105275D02*
X81759Y107935D01*
X80451Y106627D02*
X82436Y104642D01*
X77916D02*
X78824Y105550D01*
X101589Y101589D02*
X111821Y111821D01*
X101589Y101589D02*
X111821Y111821D01*
X103816Y99362D02*
X114404Y109950D01*
X103298Y94963D02*
X104047Y93154D01*
X79577Y101024D02*
X79961Y101214D01*
X103084Y95334D02*
X103298Y94963D01*
X77949Y99936D02*
X79577Y101024D01*
X172696Y88583D02*
Y91336D01*
X171691Y91108D02*
X172696Y90103D01*
X172696Y85829D02*
X172696Y88583D01*
X171691Y87061D02*
X172696Y88066D01*
X172336Y80334D02*
X172696Y85829D01*
X171691Y86654D02*
X172685Y85659D01*
X171691Y82200D02*
X172411Y81479D01*
X171691Y82607D02*
X172541Y83456D01*
X171617Y74874D02*
X172336Y80334D01*
X171542Y77610D02*
X171691Y78740D01*
X171602Y78063D02*
X172103Y78565D01*
X171575Y77861D02*
X171960Y77476D01*
X171691Y78740D02*
Y98425D01*
X171106Y76556D02*
X171542Y77610D01*
X170412Y75652D02*
X171106Y76556D01*
X169800Y75182D02*
X171367Y73615D01*
X126484Y87319D02*
X163494Y50309D01*
X122029Y87319D02*
X161938Y47410D01*
X169507Y74957D02*
X170412Y75652D01*
X133548Y84709D02*
X164965Y53292D01*
X143855Y76556D02*
X144549Y75652D01*
X143419Y77610D02*
X143855Y76556D01*
X145454Y74957D02*
X146507Y74521D01*
X144549Y75652D02*
X145454Y74957D01*
X113121Y87319D02*
X158548Y41892D01*
X104456Y91530D02*
X156745Y39241D01*
X117575Y87319D02*
X160308Y44587D01*
X104762Y86770D02*
X154811Y36721D01*
X104762Y82315D02*
X152819Y34258D01*
X104303Y78320D02*
X150738Y31885D01*
X102425Y75744D02*
X148562Y29607D01*
X102425Y75744D02*
X148562Y29607D01*
X170543Y69472D02*
X171617Y74874D01*
X161702Y74372D02*
X169710Y66364D01*
X169118Y64153D02*
X170543Y69472D01*
X166156Y74372D02*
X170628Y69900D01*
X168453Y74521D02*
X169507Y74957D01*
X167323Y74372D02*
X168453Y74521D01*
X157247Y74372D02*
X168699Y62920D01*
X152793Y74372D02*
X167570Y59595D01*
X167347Y58938D02*
X169118Y64153D01*
X148339Y74372D02*
X166301Y56410D01*
X165240Y53850D02*
X167347Y58938D01*
X162804Y48910D02*
X165240Y53850D01*
X160050Y44141D02*
X162804Y48910D01*
X156991Y39562D02*
X160050Y44141D01*
X153638Y35193D02*
X156991Y39562D01*
X150007Y31052D02*
X153638Y35193D01*
X147638Y74372D02*
X167323D01*
X123256Y11901D02*
X165264Y53909D01*
X146113Y27158D02*
X150007Y31052D01*
X132788Y16979D02*
X160187Y44377D01*
X146507Y74521D02*
X147638Y74372D01*
X99383Y74331D02*
X146335Y27380D01*
X141972Y23527D02*
X146113Y27158D01*
X94987Y74274D02*
X143976Y25284D01*
X103851Y5858D02*
X171307Y73314D01*
X98601Y5062D02*
X168000Y74461D01*
X115944Y9043D02*
X168123Y61221D01*
X109573Y7126D02*
X170039Y67592D01*
X84718Y4542D02*
X154548Y74372D01*
X80537Y4816D02*
X150094Y74372D01*
X93709Y4624D02*
X163456Y74372D01*
X89099Y4469D02*
X159002Y74372D01*
X139504Y89669D02*
Y90811D01*
Y89669D02*
Y90811D01*
X138559Y88606D02*
X139504Y87661D01*
X138559Y89563D02*
X139504Y90508D01*
X138559Y89669D02*
Y90811D01*
X126315Y90681D02*
X129994Y94361D01*
X138559Y88331D02*
Y89669D01*
Y90811D01*
X139504Y87189D02*
Y88331D01*
X139504Y87189D02*
Y89669D01*
X139504Y84709D02*
Y87189D01*
X138559Y84709D02*
Y87189D01*
Y88331D01*
Y87189D02*
Y88331D01*
X133441Y84709D02*
Y87189D01*
X130938Y87319D02*
X133441Y84816D01*
X97527Y111821D02*
X118667Y90681D01*
X93073Y111821D02*
X114213Y90681D01*
X110890Y111821D02*
X132030Y90681D01*
X101982Y111821D02*
X123122Y90681D01*
X104296Y92335D02*
X104678Y90414D01*
X99029Y104149D02*
X112498Y90681D01*
X104706Y89986D02*
X104762Y89562D01*
X104678Y90414D02*
X104706Y89986D01*
X103078Y95346D02*
X110613Y87811D01*
X111801Y87319D02*
X133441D01*
X104762Y88583D02*
X104762Y89562D01*
X104762Y86945D02*
X108120Y90303D01*
X104762Y82491D02*
X110347Y88076D01*
X104762Y88583D02*
X104762Y80709D01*
X142063Y85102D02*
Y85890D01*
X138002Y84709D02*
X143270Y79441D01*
X142457Y84709D02*
X143270Y83896D01*
X139504Y84709D02*
X143270D01*
X139898Y86520D02*
X140685D01*
X138559Y85108D02*
X139504Y86053D01*
X138159Y84709D02*
X138559Y85108D01*
X133441Y84709D02*
X138559D01*
X143270Y78740D02*
X143419Y77610D01*
X143270Y78740D02*
Y84709D01*
X137603Y20174D02*
X141972Y23527D01*
X133024Y17115D02*
X137603Y20174D01*
X128255Y14361D02*
X133024Y17115D01*
X123316Y11925D02*
X128255Y14361D01*
X118228Y9818D02*
X123316Y11925D01*
X113013Y8048D02*
X118228Y9818D01*
X104762Y80708D02*
X104762Y80298D01*
X104115Y77866D02*
X104429Y78626D01*
X102586Y75868D02*
X103168Y76449D01*
X90532Y74274D02*
X141580Y23226D01*
X100409Y74606D02*
X101169Y74921D01*
X78427Y74274D02*
X78838D01*
X98327Y74274D02*
X98738D01*
X78838Y74274D02*
X98327Y74274D01*
X86078Y74274D02*
X139060Y21292D01*
X81624Y74274D02*
X136476Y19421D01*
X107693Y6622D02*
X113013Y8048D01*
X102292Y5548D02*
X107693Y6622D01*
X96832Y4829D02*
X102292Y5548D01*
X80334Y4829D02*
X85829Y4469D01*
X91336D02*
X96832Y4829D01*
X85829Y4469D02*
X91336D01*
X74874Y171617D02*
X80334Y172336D01*
X69472Y170543D02*
X74874Y171617D01*
X64405Y122310D02*
X111593Y169498D01*
X60990Y123349D02*
X108080Y170439D01*
X64153Y169118D02*
X69472Y170543D01*
X58938Y167348D02*
X64153Y169118D01*
X62030Y122310D02*
X64411D01*
X77476Y171960D02*
X146759Y102678D01*
X69210Y118206D02*
X118315Y167311D01*
X75095Y115183D02*
X124546Y164633D01*
X70641Y115183D02*
X121465Y166007D01*
X66983Y120434D02*
X114994Y168445D01*
X59595Y167570D02*
X111982Y115183D01*
X65600Y121817D02*
X69191Y118226D01*
X53292Y164965D02*
X103074Y115183D01*
X50309Y163494D02*
X98619Y115183D01*
X47410Y161938D02*
X94165Y115183D01*
X44587Y160308D02*
X89711Y115183D01*
X41892Y158548D02*
X85257Y115183D01*
X39241Y156745D02*
X80803Y115183D01*
X36721Y154811D02*
X76348Y115183D01*
X34258Y152819D02*
X64818Y122260D01*
X40937Y112205D02*
X100576Y171843D01*
X36483Y112205D02*
X96628Y172350D01*
X56410Y166301D02*
X107528Y115183D01*
X45391Y112205D02*
X104387Y171201D01*
X32029Y112205D02*
X92448Y172624D01*
X27575Y112205D02*
X88066Y172696D01*
X7126Y109573D02*
X67592Y170039D01*
X5858Y103851D02*
X73314Y171307D01*
X70113Y115183D02*
X113230D01*
X69633Y117444D02*
X71894Y115183D01*
X75256Y111821D02*
X75881Y111196D01*
X70113Y111821D02*
X76506D01*
X69683Y115613D02*
X70113Y115183D01*
X69683Y115613D02*
Y117037D01*
X74529Y109844D02*
X79099Y105275D01*
X70802Y111821D02*
X77981Y104642D01*
X74803D02*
X97841D01*
X74133Y105312D02*
X76597Y107777D01*
X69679Y109767D02*
X71733Y111821D01*
X69134Y110842D02*
X70113Y111821D01*
X74529Y109844D02*
X76506Y111821D01*
X71906Y107539D02*
X76187Y111821D01*
X63743Y113732D02*
X64091Y113383D01*
X63521Y112813D02*
X63826Y113118D01*
X69134Y110842D02*
X70113Y111821D01*
X63521Y112813D02*
X63826Y113118D01*
X61289Y117371D02*
X62865Y118948D01*
X68868Y110577D02*
X74803Y104642D01*
X66491Y108199D02*
X72918Y101772D01*
X64958Y106666D02*
X66226Y107934D01*
X63776Y105484D02*
X66973Y102288D01*
X64958Y106666D02*
X66226Y107934D01*
X59998Y108842D02*
X63566Y105274D01*
X64061Y107439D02*
X64617Y106883D01*
X63566Y105274D02*
X64958Y106666D01*
X53850Y165240D02*
X58938Y167348D01*
X48910Y162804D02*
X53850Y165240D01*
X44141Y160051D02*
X48910Y162804D01*
X31885Y150738D02*
X59234Y123389D01*
X39562Y156991D02*
X44141Y160051D01*
X35193Y153638D02*
X39562Y156991D01*
X31052Y150007D02*
X35193Y153638D01*
X27158Y146113D02*
X31052Y150007D01*
X60092Y124248D02*
X62030Y122310D01*
X57252Y121408D02*
X60092Y124248D01*
X57252Y121408D02*
X57873Y120787D01*
X55713Y118627D02*
X57873Y120787D01*
X29607Y148562D02*
X57627Y120542D01*
X29607Y148562D02*
X57627Y120541D01*
X27380Y146335D02*
X54779Y118935D01*
X25284Y143976D02*
X52552Y116708D01*
X16978Y132788D02*
X44377Y160187D01*
X11901Y123256D02*
X53909Y165264D01*
X23527Y141972D02*
X27158Y146113D01*
X20174Y137603D02*
X23527Y141972D01*
X17115Y133024D02*
X20174Y137603D01*
X14361Y128255D02*
X17115Y133024D01*
X11925Y123316D02*
X14361Y128255D01*
X9818Y118228D02*
X11925Y123316D01*
X23226Y141580D02*
X52601Y112205D01*
X9043Y115944D02*
X61221Y168123D01*
X21292Y139060D02*
X48147Y112205D01*
X19421Y136476D02*
X43693Y112205D01*
X17637Y133806D02*
X39239Y112205D01*
X15962Y131027D02*
X34784Y112205D01*
X14334Y128201D02*
X30330Y112205D01*
X12863Y125217D02*
X25534Y112546D01*
X62030Y118948D02*
X62865D01*
X60871Y117789D02*
X62030Y118948D01*
X61289Y117371D02*
X61778Y116882D01*
X60005Y118164D02*
X61408Y116761D01*
X60251Y118410D02*
X60871Y117789D01*
X58217Y116122D02*
X60378Y118283D01*
X60005Y118164D02*
X61408Y116761D01*
X58398Y115316D02*
X58816Y114899D01*
X59129Y115211D02*
X61241Y113098D01*
X61948Y107448D02*
X62505Y108005D01*
X61241Y113098D02*
X61567D01*
X59774Y109066D02*
X59998Y108842D01*
X59210Y109450D02*
X59908Y108752D01*
X58090Y116249D02*
X58711Y115629D01*
X58090Y116249D02*
X60251Y118410D01*
X56171Y113089D02*
X56589Y112671D01*
X55871Y112789D02*
X58711Y115629D01*
X55092Y119248D02*
X55713Y118627D01*
X52252Y116408D02*
X55092Y119248D01*
X52252Y116408D02*
X55871Y112789D01*
X8048Y113013D02*
X9818Y118228D01*
X56289Y112371D02*
X59129Y115211D01*
X54300Y112205D02*
X55378Y113283D01*
X27165Y109055D02*
X58166D01*
X27165Y112205D02*
X56456D01*
X49846D02*
X53151Y115510D01*
X6622Y107693D02*
X8048Y113013D01*
X5548Y102292D02*
X6622Y107693D01*
X76889Y101280D02*
X78119Y100050D01*
X73615Y171367D02*
X144080Y100902D01*
X76889Y101280D02*
X78119Y100050D01*
X74107Y101280D02*
X80075D01*
X77627Y99654D02*
X77949Y99936D01*
X77287Y99393D02*
X77627Y99654D01*
X69900Y170628D02*
X143270Y97258D01*
X66364Y169710D02*
X142782Y93291D01*
X75902Y98008D02*
X77287Y99393D01*
X75642Y97668D02*
X75902Y98008D01*
X71542Y97718D02*
X74025Y95236D01*
X71518Y98243D02*
X74554Y101280D01*
X75359Y97346D02*
X75642Y97668D01*
X74271Y95718D02*
X75359Y97346D01*
X62920Y168699D02*
X138328Y93291D01*
X29026Y109055D02*
X125217Y12863D01*
X37934Y109055D02*
X131027Y15962D01*
X33480Y109055D02*
X128201Y14334D01*
X5062Y98601D02*
X78565Y172103D01*
X4624Y93709D02*
X83457Y172541D01*
X66003Y107712D02*
X75817Y97897D01*
X19019Y41291D02*
X79009Y101280D01*
X11452Y122174D02*
X122174Y11453D01*
X10148Y119025D02*
X119024Y10148D01*
X8975Y115744D02*
X115744Y8975D01*
X7879Y112385D02*
X112385Y7879D01*
X6938Y108872D02*
X108872Y6938D01*
X6131Y105224D02*
X105224Y6131D01*
X5439Y101462D02*
X101462Y5439D01*
X4921Y97527D02*
X97527Y4921D01*
X55701Y11159D02*
X131861Y87319D01*
X52620Y12532D02*
X127407Y87319D01*
X76867Y74576D02*
X133806Y17637D01*
X75996Y74921D02*
X76756Y74606D01*
X74082Y95334D02*
X74271Y95718D01*
X73867Y94963D02*
X74082Y95334D01*
X73998Y76449D02*
X74579Y75868D01*
X73118Y93154D02*
X73867Y94963D01*
X69085Y6726D02*
X143270Y80911D01*
X65572Y7667D02*
X142613Y84709D01*
X76590Y5322D02*
X145999Y74731D01*
X72778Y5965D02*
X143713Y76899D01*
X62171Y8720D02*
X138159Y84709D01*
X58851Y9854D02*
X133705Y84709D01*
X74874Y5548D02*
X80334Y4829D01*
X69472Y6622D02*
X74874Y5548D01*
X36153Y22790D02*
X87636Y74274D01*
X33724Y24815D02*
X83182Y74274D01*
X41291Y19019D02*
X96545Y74274D01*
X38673Y20856D02*
X92091Y74274D01*
X29105Y29105D02*
X75308Y75308D01*
X26897Y31351D02*
X73183Y77637D01*
X31351Y26897D02*
X78728Y74274D01*
X29105Y29105D02*
X75308Y75308D01*
X43961Y17235D02*
X114044Y87319D01*
X4603Y93389D02*
X93389Y4603D01*
X49637Y14003D02*
X122953Y87319D01*
X46774Y15595D02*
X118498Y87319D01*
X4554Y84530D02*
X84530Y4554D01*
X4469Y89070D02*
X89070Y4469D01*
X5609Y74567D02*
X74567Y5609D01*
X4910Y79720D02*
X79720Y4910D01*
X69133Y95309D02*
X71793Y97969D01*
X67223Y102538D02*
X71793Y97969D01*
X73007Y92740D02*
X73118Y93154D01*
X72869Y92335D02*
X73007Y92740D01*
X69291Y100471D02*
X71755Y102935D01*
X55751Y109055D02*
X64746Y100060D01*
X64563Y99878D02*
X69133Y95309D01*
X64563Y99878D02*
X67223Y102538D01*
X69315Y95491D02*
X72803Y92003D01*
X42388Y109055D02*
X72706Y78737D01*
X72487Y90414D02*
X72869Y92335D01*
X72460Y89986D02*
X72487Y90414D01*
X51297Y109055D02*
X72404Y87948D01*
X46843Y109055D02*
X72404Y83494D01*
X20856Y38673D02*
X72480Y90297D01*
X17235Y43961D02*
X68858Y95583D01*
X4816Y80537D02*
X33333Y109055D01*
X4542Y84718D02*
X28879Y109055D01*
X5965Y72778D02*
X42242Y109055D01*
X5322Y76590D02*
X37788Y109055D01*
X4829Y96832D02*
X5548Y102292D01*
X4469Y89099D02*
X24600Y109230D01*
X4469Y88583D02*
Y91336D01*
X4829Y96832D01*
X12532Y52620D02*
X67301Y107389D01*
X11159Y55701D02*
X62149Y106691D01*
X15595Y46774D02*
X66631Y97810D01*
X14003Y49637D02*
X69528Y105162D01*
X7667Y65572D02*
X51150Y109055D01*
X6726Y69085D02*
X46696Y109055D01*
X9854Y58851D02*
X59832Y108828D01*
X8720Y62171D02*
X55604Y109055D01*
X72404Y89562D02*
X72404Y88583D01*
X72404Y89562D02*
X72460Y89986D01*
X72736Y78626D02*
X73051Y77866D01*
X24815Y33724D02*
X72404Y81312D01*
Y80298D02*
Y80709D01*
Y88583D01*
X27158Y31052D02*
X31052Y27158D01*
X23527Y35193D02*
X27158Y31052D01*
X53850Y11925D02*
X58938Y9818D01*
X48910Y14361D02*
X53850Y11925D01*
X64153Y8048D02*
X69472Y6622D01*
X58938Y9818D02*
X64153Y8048D01*
X35193Y23527D02*
X39562Y20174D01*
X31052Y27158D02*
X35193Y23527D01*
X44141Y17115D02*
X48910Y14361D01*
X39562Y20174D02*
X44141Y17115D01*
X8048Y64153D02*
X9818Y58938D01*
X6622Y69472D02*
X8048Y64153D01*
X11925Y53850D02*
X14361Y48910D01*
X9818Y58938D02*
X11925Y53850D01*
X4469Y85829D02*
X4829Y80334D01*
X4469Y85829D02*
Y88583D01*
X5548Y74874D02*
X6622Y69472D01*
X4829Y80334D02*
X5548Y74874D01*
X22790Y36153D02*
X72404Y85766D01*
X6759Y68963D02*
X68963Y6759D01*
X11191Y55622D02*
X55622Y11191D01*
X8527Y62740D02*
X62740Y8527D01*
X15608Y46751D02*
X46751Y15608D01*
X14361Y48910D02*
X17115Y44141D01*
X20174Y39562D02*
X23527Y35193D01*
X17115Y44141D02*
X20174Y39562D01*
X25984Y110630D02*
X58166D01*
X59518Y111982D01*
X59518D01*
X62205Y114961D02*
X62205D01*
X64226Y116982D01*
X64518D01*
D13*
X68568Y114068D02*
D03*
X67176Y112676D02*
D03*
X65784Y111284D02*
D03*
X64392Y109892D02*
D03*
X63000Y108500D02*
D03*
D14*
X78144Y108890D02*
D03*
X68178Y98923D02*
D03*
D15*
X64518Y116982D02*
D03*
X60482Y121018D02*
D03*
X59518Y111982D02*
D03*
X55482Y116018D02*
D03*
D16*
X136000Y86520D02*
D03*
Y89000D02*
D03*
Y91480D02*
D03*
X142063D02*
D03*
Y89000D02*
D03*
X142063Y86520D02*
D03*
D17*
X59518Y111982D02*
X59908Y111592D01*
X62584Y111417D02*
X64109Y109892D01*
X59908Y111592D02*
X60370D01*
X60545Y111417D01*
X62584D01*
X64109Y109892D02*
X64392D01*
X64411Y120629D02*
X68002Y117037D01*
Y114634D02*
Y117037D01*
X60871Y120629D02*
X64411D01*
X68002Y114634D02*
X68568Y114068D01*
X60482Y121018D02*
X60871Y120629D01*
X55482Y116018D02*
X60482Y121018D01*
X135252Y91480D02*
X136000D01*
X113230Y113502D02*
X135252Y91480D01*
X69134Y113502D02*
X113230D01*
X68568Y114068D02*
X69134Y113502D01*
X111801Y89000D02*
X136000D01*
X97841Y102961D02*
X111801Y89000D01*
X74107Y102961D02*
X97841D01*
X65784Y111284D02*
X74107Y102961D01*
X64908Y114944D02*
X67176Y112676D01*
X64908Y114944D02*
Y116592D01*
X64518Y116982D02*
X64908Y116592D01*
M02*
