ISO-10303-21;
HEADER;
FILE_DESCRIPTION(('STEP AP242'),'1');
FILE_NAME('0705530001.stp','2024-11-10T17:15:01',('TraceParts'),('TraceParts S.A.'),'Spatial InterOp 3D',' ',' ');
FILE_SCHEMA(('AP242_MANAGED_MODEL_BASED_3D_ENGINEERING_MIM_LF  {1 0 10303 442 1 1 4}'));
ENDSEC;
DATA;
#1=PRODUCT_DEFINITION_CONTEXT('',#9,'design');
#2=APPLICATION_PROTOCOL_DEFINITION('INTERNATIONAL STANDARD','ap242_managed_model_based_3d_engineering',2014,#9);
#3=PRODUCT_CATEGORY_RELATIONSHIP('NONE','NONE',#10,#11);
#4=SHAPE_DEFINITION_REPRESENTATION(#12,#13);
#5= (GEOMETRIC_REPRESENTATION_CONTEXT(3)GLOBAL_UNCERTAINTY_ASSIGNED_CONTEXT((#16))GLOBAL_UNIT_ASSIGNED_CONTEXT((#18,#19,#20))REPRESENTATION_CONTEXT('NONE','WORKSPACE'));
#9=APPLICATION_CONTEXT('managed model based 3d engineering');
#10=PRODUCT_CATEGORY('part','NONE');
#11=PRODUCT_RELATED_PRODUCT_CATEGORY('detail',' ',(#22));
#12=PRODUCT_DEFINITION_SHAPE('NONE','NONE',#23);
#13=ADVANCED_BREP_SHAPE_REPRESENTATION('0705530001',(#24,#25),#5);
#16=UNCERTAINTY_MEASURE_WITH_UNIT(LENGTH_MEASURE(1.0E-06),#18,'','');
#18= (CONVERSION_BASED_UNIT('MILLIMETRE',#28)LENGTH_UNIT()NAMED_UNIT(#31));
#19= (NAMED_UNIT(#33)PLANE_ANGLE_UNIT()SI_UNIT($,.RADIAN.));
#20= (NAMED_UNIT(#33)SOLID_ANGLE_UNIT()SI_UNIT($,.STERADIAN.));
#22=PRODUCT('0705530001','0705530001','PART-0705530001-DESC',(#39));
#23=PRODUCT_DEFINITION('','NONE',#40,#1);
#24=MANIFOLD_SOLID_BREP('0705530001',#41);
#25=AXIS2_PLACEMENT_3D('',#42,#43,#44);
#28=LENGTH_MEASURE_WITH_UNIT(LENGTH_MEASURE(1.0),#45);
#31=DIMENSIONAL_EXPONENTS(1.0,0.0,0.0,0.0,0.0,0.0,0.0);
#33=DIMENSIONAL_EXPONENTS(0.0,0.0,0.0,0.0,0.0,0.0,0.0);
#39=PRODUCT_CONTEXT('',#9,'mechanical');
#40=PRODUCT_DEFINITION_FORMATION_WITH_SPECIFIED_SOURCE(' ','NONE',#22,.NOT_KNOWN.);
#41=CLOSED_SHELL('',(#46,#47,#48,#49,#50,#51,#52,#53,#54,#55,#56,#57,#58,#59,#60,#61,#62,#63,#64,#65,#66,#67,#68,#69,#70,#71,#72,#73,#74,#75,#76,#77,#78,#79,#80,#81,#82,#83,#84,#85,#86,#87,#88,#89,#90,#91,#92,#93,#94,#95,#96,#97,#98,#99,#100,#101,#102,#103,#104,#105,#106,#107,#108,#109,#110,#111,#112,#113,#114,#115,#116,#117,#118,#119,#120,#121,#122,#123));
#42=CARTESIAN_POINT('',(0.0,0.0,0.0));
#43=DIRECTION('',(0.0,0.0,1.0));
#44=DIRECTION('',(1.0,0.0,0.0));
#45= (NAMED_UNIT(#31)LENGTH_UNIT()SI_UNIT(.MILLI.,.METRE.));
#46=ADVANCED_FACE('',(#125,#126),#127,.F.);
#47=ADVANCED_FACE('',(#128),#129,.T.);
#48=ADVANCED_FACE('',(#130),#131,.T.);
#49=ADVANCED_FACE('',(#132),#133,.T.);
#50=ADVANCED_FACE('',(#134),#135,.T.);
#51=ADVANCED_FACE('',(#136),#137,.T.);
#52=ADVANCED_FACE('',(#138),#139,.T.);
#53=ADVANCED_FACE('',(#140),#141,.T.);
#54=ADVANCED_FACE('',(#142),#143,.T.);
#55=ADVANCED_FACE('',(#144),#145,.F.);
#56=ADVANCED_FACE('',(#146),#147,.F.);
#57=ADVANCED_FACE('',(#148),#149,.F.);
#58=ADVANCED_FACE('',(#150),#151,.T.);
#59=ADVANCED_FACE('',(#152),#153,.F.);
#60=ADVANCED_FACE('',(#154),#155,.F.);
#61=ADVANCED_FACE('',(#156),#157,.F.);
#62=ADVANCED_FACE('',(#158),#159,.T.);
#63=ADVANCED_FACE('',(#160),#161,.T.);
#64=ADVANCED_FACE('',(#162),#163,.F.);
#65=ADVANCED_FACE('',(#164),#165,.F.);
#66=ADVANCED_FACE('',(#166,#167,#168),#169,.T.);
#67=ADVANCED_FACE('',(#170),#171,.F.);
#68=ADVANCED_FACE('',(#172),#173,.F.);
#69=ADVANCED_FACE('',(#174),#175,.F.);
#70=ADVANCED_FACE('',(#176),#177,.F.);
#71=ADVANCED_FACE('',(#178),#179,.F.);
#72=ADVANCED_FACE('',(#180),#181,.F.);
#73=ADVANCED_FACE('',(#182),#183,.F.);
#74=ADVANCED_FACE('',(#184),#185,.F.);
#75=ADVANCED_FACE('',(#186),#187,.F.);
#76=ADVANCED_FACE('',(#188),#189,.F.);
#77=ADVANCED_FACE('',(#190),#191,.F.);
#78=ADVANCED_FACE('',(#192),#193,.F.);
#79=ADVANCED_FACE('',(#194),#195,.F.);
#80=ADVANCED_FACE('',(#196),#197,.F.);
#81=ADVANCED_FACE('',(#198),#199,.F.);
#82=ADVANCED_FACE('',(#200),#201,.F.);
#83=ADVANCED_FACE('',(#202),#203,.F.);
#84=ADVANCED_FACE('',(#204),#205,.T.);
#85=ADVANCED_FACE('',(#206),#207,.T.);
#86=ADVANCED_FACE('',(#208),#209,.T.);
#87=ADVANCED_FACE('',(#210),#211,.T.);
#88=ADVANCED_FACE('',(#212),#213,.T.);
#89=ADVANCED_FACE('',(#214),#215,.T.);
#90=ADVANCED_FACE('',(#216),#217,.F.);
#91=ADVANCED_FACE('',(#218),#219,.F.);
#92=ADVANCED_FACE('',(#220),#221,.T.);
#93=ADVANCED_FACE('',(#222),#223,.T.);
#94=ADVANCED_FACE('',(#224),#225,.T.);
#95=ADVANCED_FACE('',(#226),#227,.T.);
#96=ADVANCED_FACE('',(#228),#229,.T.);
#97=ADVANCED_FACE('',(#230),#231,.T.);
#98=ADVANCED_FACE('',(#232),#233,.T.);
#99=ADVANCED_FACE('',(#234),#235,.T.);
#100=ADVANCED_FACE('',(#236),#237,.T.);
#101=ADVANCED_FACE('',(#238),#239,.F.);
#102=ADVANCED_FACE('',(#240),#241,.F.);
#103=ADVANCED_FACE('',(#242),#243,.F.);
#104=ADVANCED_FACE('',(#244),#245,.T.);
#105=ADVANCED_FACE('',(#246),#247,.T.);
#106=ADVANCED_FACE('',(#248),#249,.T.);
#107=ADVANCED_FACE('',(#250),#251,.T.);
#108=ADVANCED_FACE('',(#252),#253,.T.);
#109=ADVANCED_FACE('',(#254),#255,.F.);
#110=ADVANCED_FACE('',(#256),#257,.T.);
#111=ADVANCED_FACE('',(#258),#259,.T.);
#112=ADVANCED_FACE('',(#260),#261,.T.);
#113=ADVANCED_FACE('',(#262),#263,.T.);
#114=ADVANCED_FACE('',(#264),#265,.T.);
#115=ADVANCED_FACE('',(#266),#267,.T.);
#116=ADVANCED_FACE('',(#268),#269,.T.);
#117=ADVANCED_FACE('',(#270),#271,.T.);
#118=ADVANCED_FACE('',(#272),#273,.T.);
#119=ADVANCED_FACE('',(#274),#275,.T.);
#120=ADVANCED_FACE('',(#276),#277,.F.);
#121=ADVANCED_FACE('',(#278),#279,.F.);
#122=ADVANCED_FACE('',(#280),#281,.F.);
#123=ADVANCED_FACE('',(#282),#283,.T.);
#125=FACE_OUTER_BOUND('',#284,.T.);
#126=FACE_BOUND('',#285,.T.);
#127=PLANE('',#286);
#128=FACE_OUTER_BOUND('',#287,.T.);
#129=PLANE('',#288);
#130=FACE_OUTER_BOUND('',#289,.T.);
#131=PLANE('',#290);
#132=FACE_OUTER_BOUND('',#291,.T.);
#133=PLANE('',#292);
#134=FACE_OUTER_BOUND('',#293,.T.);
#135=PLANE('',#294);
#136=FACE_OUTER_BOUND('',#295,.T.);
#137=PLANE('',#296);
#138=FACE_OUTER_BOUND('',#297,.T.);
#139=PLANE('',#298);
#140=FACE_OUTER_BOUND('',#299,.T.);
#141=PLANE('',#300);
#142=FACE_OUTER_BOUND('',#301,.T.);
#143=PLANE('',#302);
#144=FACE_OUTER_BOUND('',#303,.T.);
#145=PLANE('',#304);
#146=FACE_OUTER_BOUND('',#305,.T.);
#147=PLANE('',#306);
#148=FACE_OUTER_BOUND('',#307,.T.);
#149=PLANE('',#308);
#150=FACE_OUTER_BOUND('',#309,.T.);
#151=PLANE('',#310);
#152=FACE_OUTER_BOUND('',#311,.T.);
#153=CYLINDRICAL_SURFACE('',#312,1.016);
#154=FACE_OUTER_BOUND('',#313,.T.);
#155=PLANE('',#314);
#156=FACE_OUTER_BOUND('',#315,.T.);
#157=PLANE('',#316);
#158=FACE_OUTER_BOUND('',#317,.T.);
#159=PLANE('',#318);
#160=FACE_OUTER_BOUND('',#319,.T.);
#161=PLANE('',#320);
#162=FACE_OUTER_BOUND('',#321,.T.);
#163=PLANE('',#322);
#164=FACE_OUTER_BOUND('',#323,.T.);
#165=PLANE('',#324);
#166=FACE_OUTER_BOUND('',#325,.T.);
#167=FACE_BOUND('',#326,.T.);
#168=FACE_BOUND('',#327,.T.);
#169=PLANE('',#328);
#170=FACE_OUTER_BOUND('',#329,.T.);
#171=PLANE('',#330);
#172=FACE_OUTER_BOUND('',#331,.T.);
#173=PLANE('',#332);
#174=FACE_OUTER_BOUND('',#333,.T.);
#175=PLANE('',#334);
#176=FACE_OUTER_BOUND('',#335,.T.);
#177=PLANE('',#336);
#178=FACE_OUTER_BOUND('',#337,.T.);
#179=PLANE('',#338);
#180=FACE_OUTER_BOUND('',#339,.T.);
#181=PLANE('',#340);
#182=FACE_OUTER_BOUND('',#341,.T.);
#183=PLANE('',#342);
#184=FACE_OUTER_BOUND('',#343,.T.);
#185=PLANE('',#344);
#186=FACE_OUTER_BOUND('',#345,.T.);
#187=PLANE('',#346);
#188=FACE_OUTER_BOUND('',#347,.T.);
#189=PLANE('',#348);
#190=FACE_OUTER_BOUND('',#349,.T.);
#191=PLANE('',#350);
#192=FACE_OUTER_BOUND('',#351,.T.);
#193=PLANE('',#352);
#194=FACE_OUTER_BOUND('',#353,.T.);
#195=PLANE('',#354);
#196=FACE_OUTER_BOUND('',#355,.T.);
#197=PLANE('',#356);
#198=FACE_OUTER_BOUND('',#357,.T.);
#199=PLANE('',#358);
#200=FACE_OUTER_BOUND('',#359,.T.);
#201=PLANE('',#360);
#202=FACE_OUTER_BOUND('',#361,.T.);
#203=PLANE('',#362);
#204=FACE_OUTER_BOUND('',#363,.T.);
#205=PLANE('',#364);
#206=FACE_OUTER_BOUND('',#365,.T.);
#207=PLANE('',#366);
#208=FACE_OUTER_BOUND('',#367,.T.);
#209=PLANE('',#368);
#210=FACE_OUTER_BOUND('',#369,.T.);
#211=PLANE('',#370);
#212=FACE_OUTER_BOUND('',#371,.T.);
#213=PLANE('',#372);
#214=FACE_OUTER_BOUND('',#373,.T.);
#215=PLANE('',#374);
#216=FACE_OUTER_BOUND('',#375,.T.);
#217=PLANE('',#376);
#218=FACE_OUTER_BOUND('',#377,.T.);
#219=PLANE('',#378);
#220=FACE_OUTER_BOUND('',#379,.T.);
#221=PLANE('',#380);
#222=FACE_OUTER_BOUND('',#381,.T.);
#223=PLANE('',#382);
#224=FACE_OUTER_BOUND('',#383,.T.);
#225=PLANE('',#384);
#226=FACE_OUTER_BOUND('',#385,.T.);
#227=PLANE('',#386);
#228=FACE_OUTER_BOUND('',#387,.T.);
#229=PLANE('',#388);
#230=FACE_OUTER_BOUND('',#389,.T.);
#231=PLANE('',#390);
#232=FACE_OUTER_BOUND('',#391,.T.);
#233=PLANE('',#392);
#234=FACE_OUTER_BOUND('',#393,.T.);
#235=PLANE('',#394);
#236=FACE_OUTER_BOUND('',#395,.T.);
#237=PLANE('',#396);
#238=FACE_OUTER_BOUND('',#397,.T.);
#239=PLANE('',#398);
#240=FACE_OUTER_BOUND('',#399,.T.);
#241=PLANE('',#400);
#242=FACE_OUTER_BOUND('',#401,.T.);
#243=PLANE('',#402);
#244=FACE_OUTER_BOUND('',#403,.T.);
#245=PLANE('',#404);
#246=FACE_OUTER_BOUND('',#405,.T.);
#247=PLANE('',#406);
#248=FACE_OUTER_BOUND('',#407,.T.);
#249=CYLINDRICAL_SURFACE('',#408,1.27);
#250=FACE_OUTER_BOUND('',#409,.T.);
#251=PLANE('',#410);
#252=FACE_OUTER_BOUND('',#411,.T.);
#253=PLANE('',#412);
#254=FACE_OUTER_BOUND('',#413,.T.);
#255=PLANE('',#414);
#256=FACE_OUTER_BOUND('',#415,.T.);
#257=PLANE('',#416);
#258=FACE_OUTER_BOUND('',#417,.T.);
#259=PLANE('',#418);
#260=FACE_OUTER_BOUND('',#419,.T.);
#261=PLANE('',#420);
#262=FACE_OUTER_BOUND('',#421,.T.);
#263=PLANE('',#422);
#264=FACE_OUTER_BOUND('',#423,.T.);
#265=PLANE('',#424);
#266=FACE_OUTER_BOUND('',#425,.T.);
#267=PLANE('',#426);
#268=FACE_OUTER_BOUND('',#427,.T.);
#269=CYLINDRICAL_SURFACE('',#428,1.27);
#270=FACE_OUTER_BOUND('',#429,.T.);
#271=PLANE('',#430);
#272=FACE_OUTER_BOUND('',#431,.T.);
#273=PLANE('',#432);
#274=FACE_OUTER_BOUND('',#433,.T.);
#275=PLANE('',#434);
#276=FACE_OUTER_BOUND('',#435,.T.);
#277=PLANE('',#436);
#278=FACE_OUTER_BOUND('',#437,.T.);
#279=CYLINDRICAL_SURFACE('',#438,1.016);
#280=FACE_OUTER_BOUND('',#439,.T.);
#281=PLANE('',#440);
#282=FACE_OUTER_BOUND('',#441,.T.);
#283=PLANE('',#442);
#284=EDGE_LOOP('',(#443,#444,#445,#446,#447,#448,#449,#450,#451,#452));
#285=EDGE_LOOP('',(#453,#454,#455,#456));
#286=AXIS2_PLACEMENT_3D('',#457,#458,#459);
#287=EDGE_LOOP('',(#460,#461,#462,#463,#464,#465,#466,#467));
#288=AXIS2_PLACEMENT_3D('',#468,#469,#470);
#289=EDGE_LOOP('',(#471,#472,#473,#474));
#290=AXIS2_PLACEMENT_3D('',#475,#476,#477);
#291=EDGE_LOOP('',(#478,#479,#480,#481));
#292=AXIS2_PLACEMENT_3D('',#482,#483,#484);
#293=EDGE_LOOP('',(#485,#486,#487,#488));
#294=AXIS2_PLACEMENT_3D('',#489,#490,#491);
#295=EDGE_LOOP('',(#492,#493,#494,#495,#496,#497,#498,#499,#500,#501,#502,#503,#504,#505,#506,#507,#508,#509));
#296=AXIS2_PLACEMENT_3D('',#510,#511,#512);
#297=EDGE_LOOP('',(#513,#514,#515,#516));
#298=AXIS2_PLACEMENT_3D('',#517,#518,#519);
#299=EDGE_LOOP('',(#520,#521,#522,#523));
#300=AXIS2_PLACEMENT_3D('',#524,#525,#526);
#301=EDGE_LOOP('',(#527,#528,#529,#530,#531,#532));
#302=AXIS2_PLACEMENT_3D('',#533,#534,#535);
#303=EDGE_LOOP('',(#536,#537,#538,#539,#540,#541));
#304=AXIS2_PLACEMENT_3D('',#542,#543,#544);
#305=EDGE_LOOP('',(#545,#546,#547,#548,#549,#550));
#306=AXIS2_PLACEMENT_3D('',#551,#552,#553);
#307=EDGE_LOOP('',(#554,#555,#556,#557));
#308=AXIS2_PLACEMENT_3D('',#558,#559,#560);
#309=EDGE_LOOP('',(#561,#562,#563,#564,#565,#566,#567,#568,#569,#570));
#310=AXIS2_PLACEMENT_3D('',#571,#572,#573);
#311=EDGE_LOOP('',(#574,#575,#576,#577));
#312=AXIS2_PLACEMENT_3D('',#578,#579,#580);
#313=EDGE_LOOP('',(#581,#582,#583,#584,#585,#586,#587,#588,#589,#590));
#314=AXIS2_PLACEMENT_3D('',#591,#592,#593);
#315=EDGE_LOOP('',(#594,#595,#596,#597,#598,#599,#600,#601));
#316=AXIS2_PLACEMENT_3D('',#602,#603,#604);
#317=EDGE_LOOP('',(#605,#606,#607,#608));
#318=AXIS2_PLACEMENT_3D('',#609,#610,#611);
#319=EDGE_LOOP('',(#612,#613,#614,#615));
#320=AXIS2_PLACEMENT_3D('',#616,#617,#618);
#321=EDGE_LOOP('',(#619,#620,#621,#622,#623));
#322=AXIS2_PLACEMENT_3D('',#624,#625,#626);
#323=EDGE_LOOP('',(#627,#628,#629,#630,#631,#632,#633,#634,#635,#636));
#324=AXIS2_PLACEMENT_3D('',#637,#638,#639);
#325=EDGE_LOOP('',(#640,#641,#642,#643,#644,#645,#646,#647,#648,#649,#650,#651));
#326=EDGE_LOOP('',(#652,#653,#654,#655));
#327=EDGE_LOOP('',(#656,#657,#658,#659));
#328=AXIS2_PLACEMENT_3D('',#660,#661,#662);
#329=EDGE_LOOP('',(#663,#664,#665,#666));
#330=AXIS2_PLACEMENT_3D('',#667,#668,#669);
#331=EDGE_LOOP('',(#670,#671,#672,#673));
#332=AXIS2_PLACEMENT_3D('',#674,#675,#676);
#333=EDGE_LOOP('',(#677,#678,#679,#680,#681));
#334=AXIS2_PLACEMENT_3D('',#682,#683,#684);
#335=EDGE_LOOP('',(#685,#686,#687,#688));
#336=AXIS2_PLACEMENT_3D('',#689,#690,#691);
#337=EDGE_LOOP('',(#692,#693,#694,#695));
#338=AXIS2_PLACEMENT_3D('',#696,#697,#698);
#339=EDGE_LOOP('',(#699,#700,#701,#702));
#340=AXIS2_PLACEMENT_3D('',#703,#704,#705);
#341=EDGE_LOOP('',(#706,#707,#708,#709));
#342=AXIS2_PLACEMENT_3D('',#710,#711,#712);
#343=EDGE_LOOP('',(#713,#714,#715,#716));
#344=AXIS2_PLACEMENT_3D('',#717,#718,#719);
#345=EDGE_LOOP('',(#720,#721,#722,#723,#724,#725,#726,#727));
#346=AXIS2_PLACEMENT_3D('',#728,#729,#730);
#347=EDGE_LOOP('',(#731,#732,#733,#734));
#348=AXIS2_PLACEMENT_3D('',#735,#736,#737);
#349=EDGE_LOOP('',(#738,#739,#740,#741));
#350=AXIS2_PLACEMENT_3D('',#742,#743,#744);
#351=EDGE_LOOP('',(#745,#746,#747,#748));
#352=AXIS2_PLACEMENT_3D('',#749,#750,#751);
#353=EDGE_LOOP('',(#752,#753,#754,#755,#756));
#354=AXIS2_PLACEMENT_3D('',#757,#758,#759);
#355=EDGE_LOOP('',(#760,#761,#762,#763));
#356=AXIS2_PLACEMENT_3D('',#764,#765,#766);
#357=EDGE_LOOP('',(#767,#768,#769,#770,#771));
#358=AXIS2_PLACEMENT_3D('',#772,#773,#774);
#359=EDGE_LOOP('',(#775,#776,#777,#778));
#360=AXIS2_PLACEMENT_3D('',#779,#780,#781);
#361=EDGE_LOOP('',(#782,#783,#784,#785));
#362=AXIS2_PLACEMENT_3D('',#786,#787,#788);
#363=EDGE_LOOP('',(#789,#790,#791,#792));
#364=AXIS2_PLACEMENT_3D('',#793,#794,#795);
#365=EDGE_LOOP('',(#796,#797,#798,#799));
#366=AXIS2_PLACEMENT_3D('',#800,#801,#802);
#367=EDGE_LOOP('',(#803,#804,#805,#806));
#368=AXIS2_PLACEMENT_3D('',#807,#808,#809);
#369=EDGE_LOOP('',(#810,#811,#812,#813));
#370=AXIS2_PLACEMENT_3D('',#814,#815,#816);
#371=EDGE_LOOP('',(#817,#818,#819,#820));
#372=AXIS2_PLACEMENT_3D('',#821,#822,#823);
#373=EDGE_LOOP('',(#824,#825,#826,#827,#828,#829,#830,#831,#832,#833,#834,#835,#836,#837,#838,#839));
#374=AXIS2_PLACEMENT_3D('',#840,#841,#842);
#375=EDGE_LOOP('',(#843,#844,#845,#846));
#376=AXIS2_PLACEMENT_3D('',#847,#848,#849);
#377=EDGE_LOOP('',(#850,#851,#852,#853));
#378=AXIS2_PLACEMENT_3D('',#854,#855,#856);
#379=EDGE_LOOP('',(#857,#858,#859,#860));
#380=AXIS2_PLACEMENT_3D('',#861,#862,#863);
#381=EDGE_LOOP('',(#864,#865,#866,#867));
#382=AXIS2_PLACEMENT_3D('',#868,#869,#870);
#383=EDGE_LOOP('',(#871,#872,#873,#874));
#384=AXIS2_PLACEMENT_3D('',#875,#876,#877);
#385=EDGE_LOOP('',(#878,#879,#880,#881));
#386=AXIS2_PLACEMENT_3D('',#882,#883,#884);
#387=EDGE_LOOP('',(#885,#886,#887,#888));
#388=AXIS2_PLACEMENT_3D('',#889,#890,#891);
#389=EDGE_LOOP('',(#892,#893,#894,#895,#896,#897));
#390=AXIS2_PLACEMENT_3D('',#898,#899,#900);
#391=EDGE_LOOP('',(#901,#902,#903,#904));
#392=AXIS2_PLACEMENT_3D('',#905,#906,#907);
#393=EDGE_LOOP('',(#908,#909,#910,#911));
#394=AXIS2_PLACEMENT_3D('',#912,#913,#914);
#395=EDGE_LOOP('',(#915,#916,#917,#918,#919,#920));
#396=AXIS2_PLACEMENT_3D('',#921,#922,#923);
#397=EDGE_LOOP('',(#924,#925,#926,#927));
#398=AXIS2_PLACEMENT_3D('',#928,#929,#930);
#399=EDGE_LOOP('',(#931,#932,#933,#934));
#400=AXIS2_PLACEMENT_3D('',#935,#936,#937);
#401=EDGE_LOOP('',(#938,#939,#940,#941));
#402=AXIS2_PLACEMENT_3D('',#942,#943,#944);
#403=EDGE_LOOP('',(#945,#946,#947,#948,#949,#950));
#404=AXIS2_PLACEMENT_3D('',#951,#952,#953);
#405=EDGE_LOOP('',(#954,#955,#956,#957,#958,#959,#960,#961,#962,#963,#964,#965));
#406=AXIS2_PLACEMENT_3D('',#966,#967,#968);
#407=EDGE_LOOP('',(#969,#970,#971,#972));
#408=AXIS2_PLACEMENT_3D('',#973,#974,#975);
#409=EDGE_LOOP('',(#976,#977,#978,#979,#980,#981));
#410=AXIS2_PLACEMENT_3D('',#982,#983,#984);
#411=EDGE_LOOP('',(#985,#986,#987,#988));
#412=AXIS2_PLACEMENT_3D('',#989,#990,#991);
#413=EDGE_LOOP('',(#992,#993,#994,#995,#996,#997));
#414=AXIS2_PLACEMENT_3D('',#998,#999,#1000);
#415=EDGE_LOOP('',(#1001,#1002,#1003,#1004));
#416=AXIS2_PLACEMENT_3D('',#1005,#1006,#1007);
#417=EDGE_LOOP('',(#1008,#1009,#1010,#1011));
#418=AXIS2_PLACEMENT_3D('',#1012,#1013,#1014);
#419=EDGE_LOOP('',(#1015,#1016,#1017,#1018,#1019,#1020));
#420=AXIS2_PLACEMENT_3D('',#1021,#1022,#1023);
#421=EDGE_LOOP('',(#1024,#1025,#1026,#1027,#1028,#1029));
#422=AXIS2_PLACEMENT_3D('',#1030,#1031,#1032);
#423=EDGE_LOOP('',(#1033,#1034,#1035,#1036,#1037,#1038));
#424=AXIS2_PLACEMENT_3D('',#1039,#1040,#1041);
#425=EDGE_LOOP('',(#1042,#1043,#1044,#1045));
#426=AXIS2_PLACEMENT_3D('',#1046,#1047,#1048);
#427=EDGE_LOOP('',(#1049,#1050,#1051,#1052));
#428=AXIS2_PLACEMENT_3D('',#1053,#1054,#1055);
#429=EDGE_LOOP('',(#1056,#1057,#1058,#1059));
#430=AXIS2_PLACEMENT_3D('',#1060,#1061,#1062);
#431=EDGE_LOOP('',(#1063,#1064,#1065,#1066));
#432=AXIS2_PLACEMENT_3D('',#1067,#1068,#1069);
#433=EDGE_LOOP('',(#1070,#1071,#1072,#1073,#1074,#1075));
#434=AXIS2_PLACEMENT_3D('',#1076,#1077,#1078);
#435=EDGE_LOOP('',(#1079,#1080,#1081,#1082));
#436=AXIS2_PLACEMENT_3D('',#1083,#1084,#1085);
#437=EDGE_LOOP('',(#1086,#1087,#1088,#1089));
#438=AXIS2_PLACEMENT_3D('',#1090,#1091,#1092);
#439=EDGE_LOOP('',(#1093,#1094,#1095,#1096));
#440=AXIS2_PLACEMENT_3D('',#1097,#1098,#1099);
#441=EDGE_LOOP('',(#1100,#1101,#1102,#1103));
#442=AXIS2_PLACEMENT_3D('',#1104,#1105,#1106);
#443=ORIENTED_EDGE('',*,*,#1107,.F.);
#444=ORIENTED_EDGE('',*,*,#1108,.T.);
#445=ORIENTED_EDGE('',*,*,#1109,.F.);
#446=ORIENTED_EDGE('',*,*,#1110,.F.);
#447=ORIENTED_EDGE('',*,*,#1111,.F.);
#448=ORIENTED_EDGE('',*,*,#1112,.F.);
#449=ORIENTED_EDGE('',*,*,#1113,.F.);
#450=ORIENTED_EDGE('',*,*,#1114,.F.);
#451=ORIENTED_EDGE('',*,*,#1115,.F.);
#452=ORIENTED_EDGE('',*,*,#1116,.F.);
#453=ORIENTED_EDGE('',*,*,#1117,.T.);
#454=ORIENTED_EDGE('',*,*,#1118,.T.);
#455=ORIENTED_EDGE('',*,*,#1119,.F.);
#456=ORIENTED_EDGE('',*,*,#1120,.F.);
#457=CARTESIAN_POINT('',(0.0,0.0,-5.715));
#458=DIRECTION('',(0.0,0.0,1.0));
#459=DIRECTION('',(1.0,0.0,0.0));
#460=ORIENTED_EDGE('',*,*,#1121,.F.);
#461=ORIENTED_EDGE('',*,*,#1122,.T.);
#462=ORIENTED_EDGE('',*,*,#1123,.F.);
#463=ORIENTED_EDGE('',*,*,#1124,.F.);
#464=ORIENTED_EDGE('',*,*,#1125,.F.);
#465=ORIENTED_EDGE('',*,*,#1126,.F.);
#466=ORIENTED_EDGE('',*,*,#1113,.T.);
#467=ORIENTED_EDGE('',*,*,#1127,.T.);
#468=CARTESIAN_POINT('',(-3.683,-2.54,-5.715));
#469=DIRECTION('',(0.0,-1.0,0.0));
#470=DIRECTION('',(0.0,0.0,-1.0));
#471=ORIENTED_EDGE('',*,*,#1110,.T.);
#472=ORIENTED_EDGE('',*,*,#1128,.T.);
#473=ORIENTED_EDGE('',*,*,#1129,.F.);
#474=ORIENTED_EDGE('',*,*,#1130,.F.);
#475=CARTESIAN_POINT('',(-3.683,-2.54,-5.715));
#476=DIRECTION('',(0.0,-1.0,0.0));
#477=DIRECTION('',(0.0,0.0,-1.0));
#478=ORIENTED_EDGE('',*,*,#1131,.F.);
#479=ORIENTED_EDGE('',*,*,#1132,.F.);
#480=ORIENTED_EDGE('',*,*,#1116,.T.);
#481=ORIENTED_EDGE('',*,*,#1133,.T.);
#482=CARTESIAN_POINT('',(-3.683,-2.54,-5.715));
#483=DIRECTION('',(0.0,-1.0,0.0));
#484=DIRECTION('',(0.0,0.0,-1.0));
#485=ORIENTED_EDGE('',*,*,#1112,.T.);
#486=ORIENTED_EDGE('',*,*,#1134,.T.);
#487=ORIENTED_EDGE('',*,*,#1135,.F.);
#488=ORIENTED_EDGE('',*,*,#1127,.F.);
#489=CARTESIAN_POINT('',(1.651,-2.54,-5.715));
#490=DIRECTION('',(-0.707106781186547,-0.707106781186547,0.0));
#491=DIRECTION('',(-0.707106781186548,0.707106781186548,0.0));
#492=ORIENTED_EDGE('',*,*,#1136,.T.);
#493=ORIENTED_EDGE('',*,*,#1137,.T.);
#494=ORIENTED_EDGE('',*,*,#1138,.T.);
#495=ORIENTED_EDGE('',*,*,#1139,.T.);
#496=ORIENTED_EDGE('',*,*,#1140,.T.);
#497=ORIENTED_EDGE('',*,*,#1141,.T.);
#498=ORIENTED_EDGE('',*,*,#1142,.F.);
#499=ORIENTED_EDGE('',*,*,#1121,.T.);
#500=ORIENTED_EDGE('',*,*,#1135,.T.);
#501=ORIENTED_EDGE('',*,*,#1143,.T.);
#502=ORIENTED_EDGE('',*,*,#1129,.T.);
#503=ORIENTED_EDGE('',*,*,#1144,.T.);
#504=ORIENTED_EDGE('',*,*,#1145,.T.);
#505=ORIENTED_EDGE('',*,*,#1146,.T.);
#506=ORIENTED_EDGE('',*,*,#1131,.T.);
#507=ORIENTED_EDGE('',*,*,#1147,.T.);
#508=ORIENTED_EDGE('',*,*,#1148,.T.);
#509=ORIENTED_EDGE('',*,*,#1125,.T.);
#510=CARTESIAN_POINT('',(0.0,0.0,5.715));
#511=DIRECTION('',(0.0,0.0,1.0));
#512=DIRECTION('',(1.0,0.0,0.0));
#513=ORIENTED_EDGE('',*,*,#1148,.F.);
#514=ORIENTED_EDGE('',*,*,#1149,.F.);
#515=ORIENTED_EDGE('',*,*,#1114,.T.);
#516=ORIENTED_EDGE('',*,*,#1126,.T.);
#517=CARTESIAN_POINT('',(-2.032,-2.921,-5.715));
#518=DIRECTION('',(0.707106781186547,-0.707106781186547,0.0));
#519=DIRECTION('',(0.0,0.0,-1.0));
#520=ORIENTED_EDGE('',*,*,#1115,.T.);
#521=ORIENTED_EDGE('',*,*,#1149,.T.);
#522=ORIENTED_EDGE('',*,*,#1147,.F.);
#523=ORIENTED_EDGE('',*,*,#1133,.F.);
#524=CARTESIAN_POINT('',(-2.41300000000025,-2.54,-5.715));
#525=DIRECTION('',(-0.707106781186547,-0.707106781186547,0.0));
#526=DIRECTION('',(-0.707106781186548,0.707106781186548,0.0));
#527=ORIENTED_EDGE('',*,*,#1150,.F.);
#528=ORIENTED_EDGE('',*,*,#1107,.T.);
#529=ORIENTED_EDGE('',*,*,#1132,.T.);
#530=ORIENTED_EDGE('',*,*,#1146,.F.);
#531=ORIENTED_EDGE('',*,*,#1151,.F.);
#532=ORIENTED_EDGE('',*,*,#1152,.T.);
#533=CARTESIAN_POINT('',(-3.683,4.064,-5.715));
#534=DIRECTION('',(-1.0,0.0,0.0));
#535=DIRECTION('',(0.0,0.0,1.0));
#536=ORIENTED_EDGE('',*,*,#1153,.F.);
#537=ORIENTED_EDGE('',*,*,#1154,.F.);
#538=ORIENTED_EDGE('',*,*,#1155,.T.);
#539=ORIENTED_EDGE('',*,*,#1152,.F.);
#540=ORIENTED_EDGE('',*,*,#1156,.F.);
#541=ORIENTED_EDGE('',*,*,#1157,.T.);
#542=CARTESIAN_POINT('',(4.4196,4.064,2.54));
#543=DIRECTION('',(0.0,0.0,1.0));
#544=DIRECTION('',(1.0,0.0,0.0));
#545=ORIENTED_EDGE('',*,*,#1158,.F.);
#546=ORIENTED_EDGE('',*,*,#1159,.T.);
#547=ORIENTED_EDGE('',*,*,#1160,.T.);
#548=ORIENTED_EDGE('',*,*,#1161,.T.);
#549=ORIENTED_EDGE('',*,*,#1162,.F.);
#550=ORIENTED_EDGE('',*,*,#1163,.F.);
#551=CARTESIAN_POINT('',(4.4196,4.064,2.54));
#552=DIRECTION('',(0.0,0.0,1.0));
#553=DIRECTION('',(1.0,0.0,0.0));
#554=ORIENTED_EDGE('',*,*,#1164,.T.);
#555=ORIENTED_EDGE('',*,*,#1165,.F.);
#556=ORIENTED_EDGE('',*,*,#1157,.F.);
#557=ORIENTED_EDGE('',*,*,#1166,.T.);
#558=CARTESIAN_POINT('',(-2.286,4.064,2.54));
#559=DIRECTION('',(-1.0,0.0,0.0));
#560=DIRECTION('',(0.0,0.0,1.0));
#561=ORIENTED_EDGE('',*,*,#1156,.T.);
#562=ORIENTED_EDGE('',*,*,#1151,.T.);
#563=ORIENTED_EDGE('',*,*,#1145,.F.);
#564=ORIENTED_EDGE('',*,*,#1167,.F.);
#565=ORIENTED_EDGE('',*,*,#1158,.T.);
#566=ORIENTED_EDGE('',*,*,#1168,.T.);
#567=ORIENTED_EDGE('',*,*,#1169,.F.);
#568=ORIENTED_EDGE('',*,*,#1170,.F.);
#569=ORIENTED_EDGE('',*,*,#1171,.F.);
#570=ORIENTED_EDGE('',*,*,#1166,.F.);
#571=CARTESIAN_POINT('',(3.683,4.064,-5.715));
#572=DIRECTION('',(-0.0,1.0,0.0));
#573=DIRECTION('',(1.0,0.0,0.0));
#574=ORIENTED_EDGE('',*,*,#1172,.T.);
#575=ORIENTED_EDGE('',*,*,#1173,.F.);
#576=ORIENTED_EDGE('',*,*,#1164,.F.);
#577=ORIENTED_EDGE('',*,*,#1171,.T.);
#578=CARTESIAN_POINT('',(-1.27,4.064,3.429));
#579=DIRECTION('',(0.0,-1.0,0.0));
#580=DIRECTION('',(1.0,0.0,0.0));
#581=ORIENTED_EDGE('',*,*,#1173,.T.);
#582=ORIENTED_EDGE('',*,*,#1174,.T.);
#583=ORIENTED_EDGE('',*,*,#1175,.T.);
#584=ORIENTED_EDGE('',*,*,#1176,.F.);
#585=ORIENTED_EDGE('',*,*,#1162,.T.);
#586=ORIENTED_EDGE('',*,*,#1177,.T.);
#587=ORIENTED_EDGE('',*,*,#1178,.F.);
#588=ORIENTED_EDGE('',*,*,#1179,.F.);
#589=ORIENTED_EDGE('',*,*,#1153,.T.);
#590=ORIENTED_EDGE('',*,*,#1165,.T.);
#591=CARTESIAN_POINT('',(-2.667,2.921,5.715));
#592=DIRECTION('',(-0.0,1.0,0.0));
#593=DIRECTION('',(1.0,0.0,0.0));
#594=ORIENTED_EDGE('',*,*,#1154,.T.);
#595=ORIENTED_EDGE('',*,*,#1179,.T.);
#596=ORIENTED_EDGE('',*,*,#1180,.F.);
#597=ORIENTED_EDGE('',*,*,#1181,.T.);
#598=ORIENTED_EDGE('',*,*,#1182,.F.);
#599=ORIENTED_EDGE('',*,*,#1183,.F.);
#600=ORIENTED_EDGE('',*,*,#1184,.F.);
#601=ORIENTED_EDGE('',*,*,#1185,.T.);
#602=CARTESIAN_POINT('',(-2.667,-1.397,5.715));
#603=DIRECTION('',(-1.0,0.0,0.0));
#604=DIRECTION('',(0.0,0.0,1.0));
#605=ORIENTED_EDGE('',*,*,#1186,.T.);
#606=ORIENTED_EDGE('',*,*,#1187,.F.);
#607=ORIENTED_EDGE('',*,*,#1188,.F.);
#608=ORIENTED_EDGE('',*,*,#1189,.T.);
#609=CARTESIAN_POINT('',(4.4196,4.064,2.54));
#610=DIRECTION('',(0.0,0.0,1.0));
#611=DIRECTION('',(1.0,0.0,0.0));
#612=ORIENTED_EDGE('',*,*,#1190,.F.);
#613=ORIENTED_EDGE('',*,*,#1185,.F.);
#614=ORIENTED_EDGE('',*,*,#1191,.T.);
#615=ORIENTED_EDGE('',*,*,#1192,.F.);
#616=CARTESIAN_POINT('',(4.4196,4.064,2.54));
#617=DIRECTION('',(0.0,0.0,1.0));
#618=DIRECTION('',(1.0,0.0,0.0));
#619=ORIENTED_EDGE('',*,*,#1193,.T.);
#620=ORIENTED_EDGE('',*,*,#1194,.T.);
#621=ORIENTED_EDGE('',*,*,#1195,.F.);
#622=ORIENTED_EDGE('',*,*,#1189,.F.);
#623=ORIENTED_EDGE('',*,*,#1196,.T.);
#624=CARTESIAN_POINT('',(1.27,2.286,2.54));
#625=DIRECTION('',(1.0,0.0,0.0));
#626=DIRECTION('',(0.0,1.0,0.0));
#627=ORIENTED_EDGE('',*,*,#1188,.T.);
#628=ORIENTED_EDGE('',*,*,#1160,.F.);
#629=ORIENTED_EDGE('',*,*,#1197,.F.);
#630=ORIENTED_EDGE('',*,*,#1108,.F.);
#631=ORIENTED_EDGE('',*,*,#1150,.T.);
#632=ORIENTED_EDGE('',*,*,#1155,.F.);
#633=ORIENTED_EDGE('',*,*,#1190,.T.);
#634=ORIENTED_EDGE('',*,*,#1198,.T.);
#635=ORIENTED_EDGE('',*,*,#1199,.F.);
#636=ORIENTED_EDGE('',*,*,#1196,.F.);
#637=CARTESIAN_POINT('',(4.4196,2.286,2.54));
#638=DIRECTION('',(0.0,-1.0,0.0));
#639=DIRECTION('',(0.0,0.0,-1.0));
#640=ORIENTED_EDGE('',*,*,#1200,.T.);
#641=ORIENTED_EDGE('',*,*,#1201,.T.);
#642=ORIENTED_EDGE('',*,*,#1193,.F.);
#643=ORIENTED_EDGE('',*,*,#1199,.T.);
#644=ORIENTED_EDGE('',*,*,#1202,.T.);
#645=ORIENTED_EDGE('',*,*,#1203,.T.);
#646=ORIENTED_EDGE('',*,*,#1182,.T.);
#647=ORIENTED_EDGE('',*,*,#1204,.T.);
#648=ORIENTED_EDGE('',*,*,#1205,.T.);
#649=ORIENTED_EDGE('',*,*,#1123,.T.);
#650=ORIENTED_EDGE('',*,*,#1206,.T.);
#651=ORIENTED_EDGE('',*,*,#1207,.T.);
#652=ORIENTED_EDGE('',*,*,#1208,.T.);
#653=ORIENTED_EDGE('',*,*,#1209,.F.);
#654=ORIENTED_EDGE('',*,*,#1210,.F.);
#655=ORIENTED_EDGE('',*,*,#1211,.T.);
#656=ORIENTED_EDGE('',*,*,#1212,.T.);
#657=ORIENTED_EDGE('',*,*,#1213,.F.);
#658=ORIENTED_EDGE('',*,*,#1214,.F.);
#659=ORIENTED_EDGE('',*,*,#1215,.T.);
#660=CARTESIAN_POINT('',(0.0,0.0,-3.175));
#661=DIRECTION('',(0.0,0.0,1.0));
#662=DIRECTION('',(1.0,0.0,0.0));
#663=ORIENTED_EDGE('',*,*,#1204,.F.);
#664=ORIENTED_EDGE('',*,*,#1181,.F.);
#665=ORIENTED_EDGE('',*,*,#1216,.F.);
#666=ORIENTED_EDGE('',*,*,#1217,.T.);
#667=CARTESIAN_POINT('',(2.667,-1.397,5.715));
#668=DIRECTION('',(0.0,-1.0,0.0));
#669=DIRECTION('',(0.0,0.0,-1.0));
#670=ORIENTED_EDGE('',*,*,#1218,.F.);
#671=ORIENTED_EDGE('',*,*,#1219,.T.);
#672=ORIENTED_EDGE('',*,*,#1207,.F.);
#673=ORIENTED_EDGE('',*,*,#1220,.F.);
#674=CARTESIAN_POINT('',(2.667,-1.397,5.715));
#675=DIRECTION('',(0.0,-1.0,0.0));
#676=DIRECTION('',(0.0,0.0,-1.0));
#677=ORIENTED_EDGE('',*,*,#1124,.T.);
#678=ORIENTED_EDGE('',*,*,#1205,.F.);
#679=ORIENTED_EDGE('',*,*,#1217,.F.);
#680=ORIENTED_EDGE('',*,*,#1221,.F.);
#681=ORIENTED_EDGE('',*,*,#1136,.F.);
#682=CARTESIAN_POINT('',(-0.508,-1.397,5.715));
#683=DIRECTION('',(-1.0,0.0,0.0));
#684=DIRECTION('',(0.0,0.0,1.0));
#685=ORIENTED_EDGE('',*,*,#1216,.T.);
#686=ORIENTED_EDGE('',*,*,#1222,.F.);
#687=ORIENTED_EDGE('',*,*,#1137,.F.);
#688=ORIENTED_EDGE('',*,*,#1221,.T.);
#689=CARTESIAN_POINT('',(2.667,-1.905,5.715));
#690=DIRECTION('',(0.0,-0.707106781186547,-0.707106781186547));
#691=DIRECTION('',(0.0,-0.707106781186548,0.707106781186548));
#692=ORIENTED_EDGE('',*,*,#1141,.F.);
#693=ORIENTED_EDGE('',*,*,#1223,.T.);
#694=ORIENTED_EDGE('',*,*,#1218,.T.);
#695=ORIENTED_EDGE('',*,*,#1224,.F.);
#696=CARTESIAN_POINT('',(2.667,-1.905,5.715));
#697=DIRECTION('',(0.0,-0.707106781186547,-0.707106781186547));
#698=DIRECTION('',(0.0,-0.707106781186548,0.707106781186548));
#699=ORIENTED_EDGE('',*,*,#1222,.T.);
#700=ORIENTED_EDGE('',*,*,#1180,.T.);
#701=ORIENTED_EDGE('',*,*,#1225,.F.);
#702=ORIENTED_EDGE('',*,*,#1138,.F.);
#703=CARTESIAN_POINT('',(-3.175,-1.397,5.715));
#704=DIRECTION('',(-0.707106781186547,0.0,-0.707106781186547));
#705=DIRECTION('',(-0.707106781186548,0.0,0.707106781186548));
#706=ORIENTED_EDGE('',*,*,#1225,.T.);
#707=ORIENTED_EDGE('',*,*,#1178,.T.);
#708=ORIENTED_EDGE('',*,*,#1226,.F.);
#709=ORIENTED_EDGE('',*,*,#1139,.F.);
#710=CARTESIAN_POINT('',(-2.667,3.429,5.715));
#711=DIRECTION('',(0.0,0.707106781186547,-0.707106781186547));
#712=DIRECTION('',(-1.0,0.0,0.0));
#713=ORIENTED_EDGE('',*,*,#1226,.T.);
#714=ORIENTED_EDGE('',*,*,#1227,.T.);
#715=ORIENTED_EDGE('',*,*,#1223,.F.);
#716=ORIENTED_EDGE('',*,*,#1140,.F.);
#717=CARTESIAN_POINT('',(3.175,2.921,5.715));
#718=DIRECTION('',(0.707106781186547,0.0,-0.707106781186547));
#719=DIRECTION('',(0.0,-1.0,0.0));
#720=ORIENTED_EDGE('',*,*,#1227,.F.);
#721=ORIENTED_EDGE('',*,*,#1177,.F.);
#722=ORIENTED_EDGE('',*,*,#1161,.F.);
#723=ORIENTED_EDGE('',*,*,#1187,.T.);
#724=ORIENTED_EDGE('',*,*,#1228,.T.);
#725=ORIENTED_EDGE('',*,*,#1229,.T.);
#726=ORIENTED_EDGE('',*,*,#1200,.F.);
#727=ORIENTED_EDGE('',*,*,#1219,.F.);
#728=CARTESIAN_POINT('',(2.667,2.921,5.715));
#729=DIRECTION('',(1.0,0.0,0.0));
#730=DIRECTION('',(0.0,1.0,0.0));
#731=ORIENTED_EDGE('',*,*,#1201,.F.);
#732=ORIENTED_EDGE('',*,*,#1229,.F.);
#733=ORIENTED_EDGE('',*,*,#1230,.F.);
#734=ORIENTED_EDGE('',*,*,#1194,.F.);
#735=CARTESIAN_POINT('',(2.667,1.27,2.54));
#736=DIRECTION('',(-0.0,1.0,0.0));
#737=DIRECTION('',(1.0,0.0,0.0));
#738=ORIENTED_EDGE('',*,*,#1231,.F.);
#739=ORIENTED_EDGE('',*,*,#1183,.T.);
#740=ORIENTED_EDGE('',*,*,#1203,.F.);
#741=ORIENTED_EDGE('',*,*,#1232,.T.);
#742=CARTESIAN_POINT('',(2.667,1.27,2.54));
#743=DIRECTION('',(-0.0,1.0,0.0));
#744=DIRECTION('',(1.0,0.0,0.0));
#745=ORIENTED_EDGE('',*,*,#1195,.T.);
#746=ORIENTED_EDGE('',*,*,#1230,.T.);
#747=ORIENTED_EDGE('',*,*,#1228,.F.);
#748=ORIENTED_EDGE('',*,*,#1186,.F.);
#749=CARTESIAN_POINT('',(1.27,1.778,2.54));
#750=DIRECTION('',(0.0,0.707106781186547,-0.707106781186547));
#751=DIRECTION('',(-1.0,0.0,0.0));
#752=ORIENTED_EDGE('',*,*,#1192,.T.);
#753=ORIENTED_EDGE('',*,*,#1233,.T.);
#754=ORIENTED_EDGE('',*,*,#1232,.F.);
#755=ORIENTED_EDGE('',*,*,#1202,.F.);
#756=ORIENTED_EDGE('',*,*,#1198,.F.);
#757=CARTESIAN_POINT('',(-1.27,2.286,-3.175));
#758=DIRECTION('',(-1.0,0.0,0.0));
#759=DIRECTION('',(0.0,0.0,1.0));
#760=ORIENTED_EDGE('',*,*,#1184,.T.);
#761=ORIENTED_EDGE('',*,*,#1231,.T.);
#762=ORIENTED_EDGE('',*,*,#1233,.F.);
#763=ORIENTED_EDGE('',*,*,#1191,.F.);
#764=CARTESIAN_POINT('',(-2.667,1.778,2.54));
#765=DIRECTION('',(0.0,0.707106781186547,-0.707106781186547));
#766=DIRECTION('',(-1.0,0.0,0.0));
#767=ORIENTED_EDGE('',*,*,#1224,.T.);
#768=ORIENTED_EDGE('',*,*,#1220,.T.);
#769=ORIENTED_EDGE('',*,*,#1206,.F.);
#770=ORIENTED_EDGE('',*,*,#1122,.F.);
#771=ORIENTED_EDGE('',*,*,#1142,.T.);
#772=CARTESIAN_POINT('',(0.508,-2.54,5.715));
#773=DIRECTION('',(1.0,0.0,0.0));
#774=DIRECTION('',(0.0,1.0,0.0));
#775=ORIENTED_EDGE('',*,*,#1234,.F.);
#776=ORIENTED_EDGE('',*,*,#1235,.F.);
#777=ORIENTED_EDGE('',*,*,#1211,.F.);
#778=ORIENTED_EDGE('',*,*,#1236,.F.);
#779=CARTESIAN_POINT('',(0.9525,0.0,0.0));
#780=DIRECTION('',(1.0,0.0,0.0));
#781=DIRECTION('',(0.0,1.0,0.0));
#782=ORIENTED_EDGE('',*,*,#1237,.F.);
#783=ORIENTED_EDGE('',*,*,#1238,.F.);
#784=ORIENTED_EDGE('',*,*,#1239,.F.);
#785=ORIENTED_EDGE('',*,*,#1240,.T.);
#786=CARTESIAN_POINT('',(0.9525,0.0,0.0));
#787=DIRECTION('',(1.0,0.0,0.0));
#788=DIRECTION('',(0.0,1.0,0.0));
#789=ORIENTED_EDGE('',*,*,#1210,.T.);
#790=ORIENTED_EDGE('',*,*,#1241,.F.);
#791=ORIENTED_EDGE('',*,*,#1242,.F.);
#792=ORIENTED_EDGE('',*,*,#1236,.T.);
#793=CARTESIAN_POINT('',(0.9525,-0.3302,2.921));
#794=DIRECTION('',(0.0,-1.0,0.0));
#795=DIRECTION('',(0.0,0.0,-1.0));
#796=ORIENTED_EDGE('',*,*,#1242,.T.);
#797=ORIENTED_EDGE('',*,*,#1243,.F.);
#798=ORIENTED_EDGE('',*,*,#1244,.F.);
#799=ORIENTED_EDGE('',*,*,#1234,.T.);
#800=CARTESIAN_POINT('',(0.9525,0.3048,2.921));
#801=DIRECTION('',(0.0,0.0,1.0));
#802=DIRECTION('',(1.0,0.0,0.0));
#803=ORIENTED_EDGE('',*,*,#1244,.T.);
#804=ORIENTED_EDGE('',*,*,#1245,.F.);
#805=ORIENTED_EDGE('',*,*,#1208,.F.);
#806=ORIENTED_EDGE('',*,*,#1235,.T.);
#807=CARTESIAN_POINT('',(0.9525,0.3048,-6.223));
#808=DIRECTION('',(-0.0,1.0,0.0));
#809=DIRECTION('',(1.0,0.0,0.0));
#810=ORIENTED_EDGE('',*,*,#1209,.T.);
#811=ORIENTED_EDGE('',*,*,#1245,.T.);
#812=ORIENTED_EDGE('',*,*,#1243,.T.);
#813=ORIENTED_EDGE('',*,*,#1241,.T.);
#814=CARTESIAN_POINT('',(1.5875,0.0,0.0));
#815=DIRECTION('',(1.0,0.0,0.0));
#816=DIRECTION('',(0.0,1.0,0.0));
#817=ORIENTED_EDGE('',*,*,#1246,.T.);
#818=ORIENTED_EDGE('',*,*,#1247,.T.);
#819=ORIENTED_EDGE('',*,*,#1248,.T.);
#820=ORIENTED_EDGE('',*,*,#1249,.F.);
#821=CARTESIAN_POINT('',(1.5875,0.0,0.0));
#822=DIRECTION('',(1.0,0.0,0.0));
#823=DIRECTION('',(0.0,1.0,0.0));
#824=ORIENTED_EDGE('',*,*,#1250,.T.);
#825=ORIENTED_EDGE('',*,*,#1251,.T.);
#826=ORIENTED_EDGE('',*,*,#1252,.T.);
#827=ORIENTED_EDGE('',*,*,#1253,.F.);
#828=ORIENTED_EDGE('',*,*,#1254,.F.);
#829=ORIENTED_EDGE('',*,*,#1240,.F.);
#830=ORIENTED_EDGE('',*,*,#1255,.T.);
#831=ORIENTED_EDGE('',*,*,#1249,.T.);
#832=ORIENTED_EDGE('',*,*,#1256,.T.);
#833=ORIENTED_EDGE('',*,*,#1257,.F.);
#834=ORIENTED_EDGE('',*,*,#1258,.F.);
#835=ORIENTED_EDGE('',*,*,#1117,.F.);
#836=ORIENTED_EDGE('',*,*,#1259,.T.);
#837=ORIENTED_EDGE('',*,*,#1260,.F.);
#838=ORIENTED_EDGE('',*,*,#1261,.F.);
#839=ORIENTED_EDGE('',*,*,#1262,.F.);
#840=CARTESIAN_POINT('',(-3.175,-1.016,-5.715));
#841=DIRECTION('',(0.0,-1.0,0.0));
#842=DIRECTION('',(0.0,0.0,-1.0));
#843=ORIENTED_EDGE('',*,*,#1263,.F.);
#844=ORIENTED_EDGE('',*,*,#1264,.F.);
#845=ORIENTED_EDGE('',*,*,#1265,.F.);
#846=ORIENTED_EDGE('',*,*,#1215,.F.);
#847=CARTESIAN_POINT('',(-1.5875,0.0,0.0));
#848=DIRECTION('',(1.0,0.0,0.0));
#849=DIRECTION('',(0.0,1.0,0.0));
#850=ORIENTED_EDGE('',*,*,#1266,.F.);
#851=ORIENTED_EDGE('',*,*,#1267,.F.);
#852=ORIENTED_EDGE('',*,*,#1268,.F.);
#853=ORIENTED_EDGE('',*,*,#1262,.T.);
#854=CARTESIAN_POINT('',(-1.5875,0.0,0.0));
#855=DIRECTION('',(1.0,0.0,0.0));
#856=DIRECTION('',(0.0,1.0,0.0));
#857=ORIENTED_EDGE('',*,*,#1265,.T.);
#858=ORIENTED_EDGE('',*,*,#1269,.T.);
#859=ORIENTED_EDGE('',*,*,#1270,.F.);
#860=ORIENTED_EDGE('',*,*,#1212,.F.);
#861=CARTESIAN_POINT('',(-1.5875,0.3048,-6.223));
#862=DIRECTION('',(-0.0,1.0,0.0));
#863=DIRECTION('',(1.0,0.0,0.0));
#864=ORIENTED_EDGE('',*,*,#1270,.T.);
#865=ORIENTED_EDGE('',*,*,#1271,.T.);
#866=ORIENTED_EDGE('',*,*,#1272,.T.);
#867=ORIENTED_EDGE('',*,*,#1213,.T.);
#868=CARTESIAN_POINT('',(-0.9525,0.0,0.0));
#869=DIRECTION('',(1.0,0.0,0.0));
#870=DIRECTION('',(0.0,1.0,0.0));
#871=ORIENTED_EDGE('',*,*,#1273,.T.);
#872=ORIENTED_EDGE('',*,*,#1274,.T.);
#873=ORIENTED_EDGE('',*,*,#1275,.T.);
#874=ORIENTED_EDGE('',*,*,#1251,.F.);
#875=CARTESIAN_POINT('',(-0.9525,0.0,0.0));
#876=DIRECTION('',(1.0,0.0,0.0));
#877=DIRECTION('',(0.0,1.0,0.0));
#878=ORIENTED_EDGE('',*,*,#1272,.F.);
#879=ORIENTED_EDGE('',*,*,#1276,.F.);
#880=ORIENTED_EDGE('',*,*,#1263,.T.);
#881=ORIENTED_EDGE('',*,*,#1214,.T.);
#882=CARTESIAN_POINT('',(-1.5875,-0.3302,2.921));
#883=DIRECTION('',(0.0,-1.0,0.0));
#884=DIRECTION('',(0.0,0.0,-1.0));
#885=ORIENTED_EDGE('',*,*,#1276,.T.);
#886=ORIENTED_EDGE('',*,*,#1271,.F.);
#887=ORIENTED_EDGE('',*,*,#1269,.F.);
#888=ORIENTED_EDGE('',*,*,#1264,.T.);
#889=CARTESIAN_POINT('',(-1.5875,0.3048,2.921));
#890=DIRECTION('',(0.0,0.0,1.0));
#891=DIRECTION('',(1.0,0.0,0.0));
#892=ORIENTED_EDGE('',*,*,#1277,.T.);
#893=ORIENTED_EDGE('',*,*,#1278,.T.);
#894=ORIENTED_EDGE('',*,*,#1279,.F.);
#895=ORIENTED_EDGE('',*,*,#1275,.F.);
#896=ORIENTED_EDGE('',*,*,#1280,.F.);
#897=ORIENTED_EDGE('',*,*,#1266,.T.);
#898=CARTESIAN_POINT('',(-1.5875,-6.223,-7.493));
#899=DIRECTION('',(0.0,0.0,-1.0));
#900=DIRECTION('',(0.0,-1.0,0.0));
#901=ORIENTED_EDGE('',*,*,#1280,.T.);
#902=ORIENTED_EDGE('',*,*,#1274,.F.);
#903=ORIENTED_EDGE('',*,*,#1281,.F.);
#904=ORIENTED_EDGE('',*,*,#1267,.T.);
#905=CARTESIAN_POINT('',(-1.5875,-6.223,-6.858));
#906=DIRECTION('',(0.0,-1.0,0.0));
#907=DIRECTION('',(0.0,0.0,-1.0));
#908=ORIENTED_EDGE('',*,*,#1268,.T.);
#909=ORIENTED_EDGE('',*,*,#1281,.T.);
#910=ORIENTED_EDGE('',*,*,#1273,.F.);
#911=ORIENTED_EDGE('',*,*,#1250,.F.);
#912=CARTESIAN_POINT('',(-1.5875,-0.9652,-6.858));
#913=DIRECTION('',(0.0,0.0,1.0));
#914=DIRECTION('',(1.0,0.0,0.0));
#915=ORIENTED_EDGE('',*,*,#1282,.T.);
#916=ORIENTED_EDGE('',*,*,#1283,.T.);
#917=ORIENTED_EDGE('',*,*,#1284,.T.);
#918=ORIENTED_EDGE('',*,*,#1285,.F.);
#919=ORIENTED_EDGE('',*,*,#1252,.F.);
#920=ORIENTED_EDGE('',*,*,#1279,.T.);
#921=CARTESIAN_POINT('',(-0.9525,-1.016,-6.985));
#922=DIRECTION('',(-1.0,0.0,0.0));
#923=DIRECTION('',(0.0,0.0,1.0));
#924=ORIENTED_EDGE('',*,*,#1257,.T.);
#925=ORIENTED_EDGE('',*,*,#1286,.T.);
#926=ORIENTED_EDGE('',*,*,#1287,.T.);
#927=ORIENTED_EDGE('',*,*,#1288,.T.);
#928=CARTESIAN_POINT('',(0.0,0.0,-7.874));
#929=DIRECTION('',(0.0,0.0,1.0));
#930=DIRECTION('',(1.0,0.0,0.0));
#931=ORIENTED_EDGE('',*,*,#1253,.T.);
#932=ORIENTED_EDGE('',*,*,#1285,.T.);
#933=ORIENTED_EDGE('',*,*,#1289,.T.);
#934=ORIENTED_EDGE('',*,*,#1290,.T.);
#935=CARTESIAN_POINT('',(0.0,0.0,-7.874));
#936=DIRECTION('',(0.0,0.0,1.0));
#937=DIRECTION('',(1.0,0.0,0.0));
#938=ORIENTED_EDGE('',*,*,#1260,.T.);
#939=ORIENTED_EDGE('',*,*,#1291,.T.);
#940=ORIENTED_EDGE('',*,*,#1292,.T.);
#941=ORIENTED_EDGE('',*,*,#1293,.T.);
#942=CARTESIAN_POINT('',(0.0,0.0,-7.874));
#943=DIRECTION('',(0.0,0.0,1.0));
#944=DIRECTION('',(1.0,0.0,0.0));
#945=ORIENTED_EDGE('',*,*,#1294,.T.);
#946=ORIENTED_EDGE('',*,*,#1118,.F.);
#947=ORIENTED_EDGE('',*,*,#1258,.T.);
#948=ORIENTED_EDGE('',*,*,#1288,.F.);
#949=ORIENTED_EDGE('',*,*,#1295,.F.);
#950=ORIENTED_EDGE('',*,*,#1296,.T.);
#951=CARTESIAN_POINT('',(3.175,0.0,0.0));
#952=DIRECTION('',(1.0,0.0,0.0));
#953=DIRECTION('',(0.0,1.0,0.0));
#954=ORIENTED_EDGE('',*,*,#1297,.T.);
#955=ORIENTED_EDGE('',*,*,#1298,.F.);
#956=ORIENTED_EDGE('',*,*,#1299,.T.);
#957=ORIENTED_EDGE('',*,*,#1300,.T.);
#958=ORIENTED_EDGE('',*,*,#1296,.F.);
#959=ORIENTED_EDGE('',*,*,#1301,.T.);
#960=ORIENTED_EDGE('',*,*,#1302,.F.);
#961=ORIENTED_EDGE('',*,*,#1303,.F.);
#962=ORIENTED_EDGE('',*,*,#1304,.T.);
#963=ORIENTED_EDGE('',*,*,#1305,.F.);
#964=ORIENTED_EDGE('',*,*,#1283,.F.);
#965=ORIENTED_EDGE('',*,*,#1306,.F.);
#966=CARTESIAN_POINT('',(-3.175,-1.016,-6.985));
#967=DIRECTION('',(0.0,0.0,-1.0));
#968=DIRECTION('',(0.0,-1.0,0.0));
#969=ORIENTED_EDGE('',*,*,#1282,.F.);
#970=ORIENTED_EDGE('',*,*,#1278,.F.);
#971=ORIENTED_EDGE('',*,*,#1307,.T.);
#972=ORIENTED_EDGE('',*,*,#1306,.T.);
#973=CARTESIAN_POINT('',(-1.5875,-0.9652,-6.223));
#974=DIRECTION('',(-1.0,0.0,-0.0));
#975=DIRECTION('',(0.0,0.0,-1.0));
#976=ORIENTED_EDGE('',*,*,#1261,.T.);
#977=ORIENTED_EDGE('',*,*,#1293,.F.);
#978=ORIENTED_EDGE('',*,*,#1308,.F.);
#979=ORIENTED_EDGE('',*,*,#1297,.F.);
#980=ORIENTED_EDGE('',*,*,#1307,.F.);
#981=ORIENTED_EDGE('',*,*,#1277,.F.);
#982=CARTESIAN_POINT('',(-1.5875,0.762,-6.985));
#983=DIRECTION('',(1.0,0.0,0.0));
#984=DIRECTION('',(0.0,1.0,0.0));
#985=ORIENTED_EDGE('',*,*,#1308,.T.);
#986=ORIENTED_EDGE('',*,*,#1292,.F.);
#987=ORIENTED_EDGE('',*,*,#1309,.F.);
#988=ORIENTED_EDGE('',*,*,#1298,.T.);
#989=CARTESIAN_POINT('',(-3.175,0.762,-6.985));
#990=DIRECTION('',(-0.0,1.0,0.0));
#991=DIRECTION('',(1.0,0.0,0.0));
#992=ORIENTED_EDGE('',*,*,#1120,.T.);
#993=ORIENTED_EDGE('',*,*,#1310,.F.);
#994=ORIENTED_EDGE('',*,*,#1299,.F.);
#995=ORIENTED_EDGE('',*,*,#1309,.T.);
#996=ORIENTED_EDGE('',*,*,#1291,.F.);
#997=ORIENTED_EDGE('',*,*,#1259,.F.);
#998=CARTESIAN_POINT('',(-3.175,0.0,0.0));
#999=DIRECTION('',(1.0,0.0,0.0));
#1000=DIRECTION('',(0.0,1.0,0.0));
#1001=ORIENTED_EDGE('',*,*,#1294,.F.);
#1002=ORIENTED_EDGE('',*,*,#1300,.F.);
#1003=ORIENTED_EDGE('',*,*,#1310,.T.);
#1004=ORIENTED_EDGE('',*,*,#1119,.T.);
#1005=CARTESIAN_POINT('',(-3.175,1.524,-6.985));
#1006=DIRECTION('',(-0.0,1.0,0.0));
#1007=DIRECTION('',(1.0,0.0,0.0));
#1008=ORIENTED_EDGE('',*,*,#1311,.T.);
#1009=ORIENTED_EDGE('',*,*,#1289,.F.);
#1010=ORIENTED_EDGE('',*,*,#1284,.F.);
#1011=ORIENTED_EDGE('',*,*,#1305,.T.);
#1012=CARTESIAN_POINT('',(-0.9525,0.762,-6.985));
#1013=DIRECTION('',(-0.0,1.0,0.0));
#1014=DIRECTION('',(1.0,0.0,0.0));
#1015=ORIENTED_EDGE('',*,*,#1254,.T.);
#1016=ORIENTED_EDGE('',*,*,#1290,.F.);
#1017=ORIENTED_EDGE('',*,*,#1311,.F.);
#1018=ORIENTED_EDGE('',*,*,#1304,.F.);
#1019=ORIENTED_EDGE('',*,*,#1312,.F.);
#1020=ORIENTED_EDGE('',*,*,#1313,.F.);
#1021=CARTESIAN_POINT('',(0.9525,0.762,-6.985));
#1022=DIRECTION('',(1.0,0.0,0.0));
#1023=DIRECTION('',(0.0,1.0,0.0));
#1024=ORIENTED_EDGE('',*,*,#1314,.F.);
#1025=ORIENTED_EDGE('',*,*,#1237,.T.);
#1026=ORIENTED_EDGE('',*,*,#1313,.T.);
#1027=ORIENTED_EDGE('',*,*,#1315,.T.);
#1028=ORIENTED_EDGE('',*,*,#1316,.F.);
#1029=ORIENTED_EDGE('',*,*,#1248,.F.);
#1030=CARTESIAN_POINT('',(0.9525,-6.223,-7.493));
#1031=DIRECTION('',(0.0,0.0,-1.0));
#1032=DIRECTION('',(0.0,-1.0,0.0));
#1033=ORIENTED_EDGE('',*,*,#1317,.T.);
#1034=ORIENTED_EDGE('',*,*,#1302,.T.);
#1035=ORIENTED_EDGE('',*,*,#1318,.T.);
#1036=ORIENTED_EDGE('',*,*,#1286,.F.);
#1037=ORIENTED_EDGE('',*,*,#1256,.F.);
#1038=ORIENTED_EDGE('',*,*,#1316,.T.);
#1039=CARTESIAN_POINT('',(1.5875,-1.016,-6.985));
#1040=DIRECTION('',(-1.0,0.0,0.0));
#1041=DIRECTION('',(0.0,0.0,1.0));
#1042=ORIENTED_EDGE('',*,*,#1295,.T.);
#1043=ORIENTED_EDGE('',*,*,#1287,.F.);
#1044=ORIENTED_EDGE('',*,*,#1318,.F.);
#1045=ORIENTED_EDGE('',*,*,#1301,.F.);
#1046=CARTESIAN_POINT('',(1.5875,0.762,-6.985));
#1047=DIRECTION('',(-0.0,1.0,0.0));
#1048=DIRECTION('',(1.0,0.0,0.0));
#1049=ORIENTED_EDGE('',*,*,#1317,.F.);
#1050=ORIENTED_EDGE('',*,*,#1315,.F.);
#1051=ORIENTED_EDGE('',*,*,#1312,.T.);
#1052=ORIENTED_EDGE('',*,*,#1303,.T.);
#1053=CARTESIAN_POINT('',(0.9525,-0.9652,-6.223));
#1054=DIRECTION('',(-1.0,0.0,-0.0));
#1055=DIRECTION('',(0.0,0.0,-1.0));
#1056=ORIENTED_EDGE('',*,*,#1314,.T.);
#1057=ORIENTED_EDGE('',*,*,#1247,.F.);
#1058=ORIENTED_EDGE('',*,*,#1319,.F.);
#1059=ORIENTED_EDGE('',*,*,#1238,.T.);
#1060=CARTESIAN_POINT('',(0.9525,-6.223,-6.858));
#1061=DIRECTION('',(0.0,-1.0,0.0));
#1062=DIRECTION('',(0.0,0.0,-1.0));
#1063=ORIENTED_EDGE('',*,*,#1239,.T.);
#1064=ORIENTED_EDGE('',*,*,#1319,.T.);
#1065=ORIENTED_EDGE('',*,*,#1246,.F.);
#1066=ORIENTED_EDGE('',*,*,#1255,.F.);
#1067=CARTESIAN_POINT('',(0.9525,-0.9652,-6.858));
#1068=DIRECTION('',(0.0,0.0,1.0));
#1069=DIRECTION('',(1.0,0.0,0.0));
#1070=ORIENTED_EDGE('',*,*,#1167,.T.);
#1071=ORIENTED_EDGE('',*,*,#1144,.F.);
#1072=ORIENTED_EDGE('',*,*,#1128,.F.);
#1073=ORIENTED_EDGE('',*,*,#1109,.T.);
#1074=ORIENTED_EDGE('',*,*,#1197,.T.);
#1075=ORIENTED_EDGE('',*,*,#1159,.F.);
#1076=CARTESIAN_POINT('',(3.683,-2.54,-5.715));
#1077=DIRECTION('',(1.0,0.0,0.0));
#1078=DIRECTION('',(0.0,1.0,0.0));
#1079=ORIENTED_EDGE('',*,*,#1163,.T.);
#1080=ORIENTED_EDGE('',*,*,#1176,.T.);
#1081=ORIENTED_EDGE('',*,*,#1320,.F.);
#1082=ORIENTED_EDGE('',*,*,#1168,.F.);
#1083=CARTESIAN_POINT('',(2.286,4.064,3.429));
#1084=DIRECTION('',(1.0,0.0,0.0));
#1085=DIRECTION('',(0.0,1.0,0.0));
#1086=ORIENTED_EDGE('',*,*,#1320,.T.);
#1087=ORIENTED_EDGE('',*,*,#1175,.F.);
#1088=ORIENTED_EDGE('',*,*,#1321,.F.);
#1089=ORIENTED_EDGE('',*,*,#1169,.T.);
#1090=CARTESIAN_POINT('',(1.27,4.064,3.429));
#1091=DIRECTION('',(0.0,-1.0,0.0));
#1092=DIRECTION('',(1.0,0.0,0.0));
#1093=ORIENTED_EDGE('',*,*,#1321,.T.);
#1094=ORIENTED_EDGE('',*,*,#1174,.F.);
#1095=ORIENTED_EDGE('',*,*,#1172,.F.);
#1096=ORIENTED_EDGE('',*,*,#1170,.T.);
#1097=CARTESIAN_POINT('',(-1.27,4.064,4.445));
#1098=DIRECTION('',(0.0,0.0,1.0));
#1099=DIRECTION('',(1.0,0.0,0.0));
#1100=ORIENTED_EDGE('',*,*,#1143,.F.);
#1101=ORIENTED_EDGE('',*,*,#1134,.F.);
#1102=ORIENTED_EDGE('',*,*,#1111,.T.);
#1103=ORIENTED_EDGE('',*,*,#1130,.T.);
#1104=CARTESIAN_POINT('',(2.032,-2.921,-5.715));
#1105=DIRECTION('',(0.707106781186547,-0.707106781186547,0.0));
#1106=DIRECTION('',(0.0,0.0,-1.0));
#1107=EDGE_CURVE('',#1322,#1323,#1324,.T.);
#1108=EDGE_CURVE('',#1322,#1325,#1326,.T.);
#1109=EDGE_CURVE('',#1327,#1325,#1328,.T.);
#1110=EDGE_CURVE('',#1329,#1327,#1330,.T.);
#1111=EDGE_CURVE('',#1331,#1329,#1332,.T.);
#1112=EDGE_CURVE('',#1333,#1331,#1334,.T.);
#1113=EDGE_CURVE('',#1335,#1333,#1336,.T.);
#1114=EDGE_CURVE('',#1337,#1335,#1338,.T.);
#1115=EDGE_CURVE('',#1339,#1337,#1340,.T.);
#1116=EDGE_CURVE('',#1323,#1339,#1341,.T.);
#1117=EDGE_CURVE('',#1342,#1343,#1344,.T.);
#1118=EDGE_CURVE('',#1343,#1345,#1346,.T.);
#1119=EDGE_CURVE('',#1347,#1345,#1348,.T.);
#1120=EDGE_CURVE('',#1342,#1347,#1349,.T.);
#1121=EDGE_CURVE('',#1350,#1351,#1352,.T.);
#1122=EDGE_CURVE('',#1350,#1353,#1354,.T.);
#1123=EDGE_CURVE('',#1355,#1353,#1356,.T.);
#1124=EDGE_CURVE('',#1357,#1355,#1358,.T.);
#1125=EDGE_CURVE('',#1359,#1357,#1360,.T.);
#1126=EDGE_CURVE('',#1335,#1359,#1361,.T.);
#1127=EDGE_CURVE('',#1333,#1351,#1362,.T.);
#1128=EDGE_CURVE('',#1327,#1363,#1364,.T.);
#1129=EDGE_CURVE('',#1365,#1363,#1366,.T.);
#1130=EDGE_CURVE('',#1329,#1365,#1367,.T.);
#1131=EDGE_CURVE('',#1368,#1369,#1370,.T.);
#1132=EDGE_CURVE('',#1323,#1368,#1371,.T.);
#1133=EDGE_CURVE('',#1339,#1369,#1372,.T.);
#1134=EDGE_CURVE('',#1331,#1373,#1374,.T.);
#1135=EDGE_CURVE('',#1351,#1373,#1375,.T.);
#1136=EDGE_CURVE('',#1357,#1376,#1377,.T.);
#1137=EDGE_CURVE('',#1376,#1378,#1379,.T.);
#1138=EDGE_CURVE('',#1378,#1380,#1381,.T.);
#1139=EDGE_CURVE('',#1380,#1382,#1383,.T.);
#1140=EDGE_CURVE('',#1382,#1384,#1385,.T.);
#1141=EDGE_CURVE('',#1384,#1386,#1387,.T.);
#1142=EDGE_CURVE('',#1350,#1386,#1388,.T.);
#1143=EDGE_CURVE('',#1373,#1365,#1389,.T.);
#1144=EDGE_CURVE('',#1363,#1390,#1391,.T.);
#1145=EDGE_CURVE('',#1390,#1392,#1393,.T.);
#1146=EDGE_CURVE('',#1392,#1368,#1394,.T.);
#1147=EDGE_CURVE('',#1369,#1395,#1396,.T.);
#1148=EDGE_CURVE('',#1395,#1359,#1397,.T.);
#1149=EDGE_CURVE('',#1337,#1395,#1398,.T.);
#1150=EDGE_CURVE('',#1322,#1399,#1400,.T.);
#1151=EDGE_CURVE('',#1401,#1392,#1402,.T.);
#1152=EDGE_CURVE('',#1401,#1399,#1403,.T.);
#1153=EDGE_CURVE('',#1404,#1405,#1406,.T.);
#1154=EDGE_CURVE('',#1407,#1404,#1408,.T.);
#1155=EDGE_CURVE('',#1407,#1399,#1409,.T.);
#1156=EDGE_CURVE('',#1410,#1401,#1411,.T.);
#1157=EDGE_CURVE('',#1410,#1405,#1412,.T.);
#1158=EDGE_CURVE('',#1413,#1414,#1415,.T.);
#1159=EDGE_CURVE('',#1413,#1416,#1417,.T.);
#1160=EDGE_CURVE('',#1416,#1418,#1419,.T.);
#1161=EDGE_CURVE('',#1418,#1420,#1421,.T.);
#1162=EDGE_CURVE('',#1422,#1420,#1423,.T.);
#1163=EDGE_CURVE('',#1414,#1422,#1424,.T.);
#1164=EDGE_CURVE('',#1425,#1426,#1427,.T.);
#1165=EDGE_CURVE('',#1405,#1426,#1428,.T.);
#1166=EDGE_CURVE('',#1410,#1425,#1429,.T.);
#1167=EDGE_CURVE('',#1413,#1390,#1430,.T.);
#1168=EDGE_CURVE('',#1414,#1431,#1432,.T.);
#1169=EDGE_CURVE('',#1433,#1431,#1434,.T.);
#1170=EDGE_CURVE('',#1435,#1433,#1436,.T.);
#1171=EDGE_CURVE('',#1425,#1435,#1437,.T.);
#1172=EDGE_CURVE('',#1435,#1438,#1439,.T.);
#1173=EDGE_CURVE('',#1426,#1438,#1440,.T.);
#1174=EDGE_CURVE('',#1438,#1441,#1442,.T.);
#1175=EDGE_CURVE('',#1441,#1443,#1444,.T.);
#1176=EDGE_CURVE('',#1422,#1443,#1445,.T.);
#1177=EDGE_CURVE('',#1420,#1446,#1447,.T.);
#1178=EDGE_CURVE('',#1448,#1446,#1449,.T.);
#1179=EDGE_CURVE('',#1404,#1448,#1450,.T.);
#1180=EDGE_CURVE('',#1451,#1448,#1452,.T.);
#1181=EDGE_CURVE('',#1451,#1453,#1454,.T.);
#1182=EDGE_CURVE('',#1455,#1453,#1456,.T.);
#1183=EDGE_CURVE('',#1457,#1455,#1458,.T.);
#1184=EDGE_CURVE('',#1459,#1457,#1460,.T.);
#1185=EDGE_CURVE('',#1459,#1407,#1461,.T.);
#1186=EDGE_CURVE('',#1462,#1463,#1464,.T.);
#1187=EDGE_CURVE('',#1418,#1463,#1465,.T.);
#1188=EDGE_CURVE('',#1466,#1418,#1467,.T.);
#1189=EDGE_CURVE('',#1466,#1462,#1468,.T.);
#1190=EDGE_CURVE('',#1407,#1469,#1470,.T.);
#1191=EDGE_CURVE('',#1459,#1471,#1472,.T.);
#1192=EDGE_CURVE('',#1469,#1471,#1473,.T.);
#1193=EDGE_CURVE('',#1474,#1475,#1476,.T.);
#1194=EDGE_CURVE('',#1475,#1477,#1478,.T.);
#1195=EDGE_CURVE('',#1462,#1477,#1479,.T.);
#1196=EDGE_CURVE('',#1466,#1474,#1480,.T.);
#1197=EDGE_CURVE('',#1325,#1416,#1481,.T.);
#1198=EDGE_CURVE('',#1469,#1482,#1483,.T.);
#1199=EDGE_CURVE('',#1474,#1482,#1484,.T.);
#1200=EDGE_CURVE('',#1485,#1486,#1487,.T.);
#1201=EDGE_CURVE('',#1486,#1475,#1488,.T.);
#1202=EDGE_CURVE('',#1482,#1489,#1490,.T.);
#1203=EDGE_CURVE('',#1489,#1455,#1491,.T.);
#1204=EDGE_CURVE('',#1453,#1492,#1493,.T.);
#1205=EDGE_CURVE('',#1492,#1355,#1494,.T.);
#1206=EDGE_CURVE('',#1353,#1495,#1496,.T.);
#1207=EDGE_CURVE('',#1495,#1485,#1497,.T.);
#1208=EDGE_CURVE('',#1498,#1499,#1500,.T.);
#1209=EDGE_CURVE('',#1501,#1499,#1502,.T.);
#1210=EDGE_CURVE('',#1503,#1501,#1504,.T.);
#1211=EDGE_CURVE('',#1503,#1498,#1505,.T.);
#1212=EDGE_CURVE('',#1506,#1507,#1508,.T.);
#1213=EDGE_CURVE('',#1509,#1507,#1510,.T.);
#1214=EDGE_CURVE('',#1511,#1509,#1512,.T.);
#1215=EDGE_CURVE('',#1511,#1506,#1513,.T.);
#1216=EDGE_CURVE('',#1514,#1451,#1515,.T.);
#1217=EDGE_CURVE('',#1514,#1492,#1516,.T.);
#1218=EDGE_CURVE('',#1517,#1518,#1519,.T.);
#1219=EDGE_CURVE('',#1517,#1485,#1520,.T.);
#1220=EDGE_CURVE('',#1518,#1495,#1521,.T.);
#1221=EDGE_CURVE('',#1376,#1514,#1522,.T.);
#1222=EDGE_CURVE('',#1378,#1451,#1523,.T.);
#1223=EDGE_CURVE('',#1384,#1517,#1524,.T.);
#1224=EDGE_CURVE('',#1386,#1518,#1525,.T.);
#1225=EDGE_CURVE('',#1380,#1448,#1526,.T.);
#1226=EDGE_CURVE('',#1382,#1446,#1527,.T.);
#1227=EDGE_CURVE('',#1446,#1517,#1528,.T.);
#1228=EDGE_CURVE('',#1463,#1529,#1530,.T.);
#1229=EDGE_CURVE('',#1529,#1486,#1531,.T.);
#1230=EDGE_CURVE('',#1477,#1529,#1532,.T.);
#1231=EDGE_CURVE('',#1457,#1533,#1534,.T.);
#1232=EDGE_CURVE('',#1489,#1533,#1535,.T.);
#1233=EDGE_CURVE('',#1471,#1533,#1536,.T.);
#1234=EDGE_CURVE('',#1537,#1538,#1539,.T.);
#1235=EDGE_CURVE('',#1498,#1537,#1540,.T.);
#1236=EDGE_CURVE('',#1538,#1503,#1541,.T.);
#1237=EDGE_CURVE('',#1542,#1543,#1544,.T.);
#1238=EDGE_CURVE('',#1545,#1542,#1546,.T.);
#1239=EDGE_CURVE('',#1547,#1545,#1548,.T.);
#1240=EDGE_CURVE('',#1547,#1543,#1549,.T.);
#1241=EDGE_CURVE('',#1550,#1501,#1551,.T.);
#1242=EDGE_CURVE('',#1538,#1550,#1552,.T.);
#1243=EDGE_CURVE('',#1553,#1550,#1554,.T.);
#1244=EDGE_CURVE('',#1537,#1553,#1555,.T.);
#1245=EDGE_CURVE('',#1499,#1553,#1556,.T.);
#1246=EDGE_CURVE('',#1557,#1558,#1559,.T.);
#1247=EDGE_CURVE('',#1558,#1560,#1561,.T.);
#1248=EDGE_CURVE('',#1560,#1562,#1563,.T.);
#1249=EDGE_CURVE('',#1557,#1562,#1564,.T.);
#1250=EDGE_CURVE('',#1565,#1566,#1567,.T.);
#1251=EDGE_CURVE('',#1566,#1568,#1569,.T.);
#1252=EDGE_CURVE('',#1568,#1570,#1571,.T.);
#1253=EDGE_CURVE('',#1572,#1570,#1573,.T.);
#1254=EDGE_CURVE('',#1543,#1572,#1574,.T.);
#1255=EDGE_CURVE('',#1547,#1557,#1575,.T.);
#1256=EDGE_CURVE('',#1562,#1576,#1577,.T.);
#1257=EDGE_CURVE('',#1578,#1576,#1579,.T.);
#1258=EDGE_CURVE('',#1343,#1578,#1580,.T.);
#1259=EDGE_CURVE('',#1342,#1581,#1582,.T.);
#1260=EDGE_CURVE('',#1583,#1581,#1584,.T.);
#1261=EDGE_CURVE('',#1585,#1583,#1586,.T.);
#1262=EDGE_CURVE('',#1565,#1585,#1587,.T.);
#1263=EDGE_CURVE('',#1588,#1511,#1589,.T.);
#1264=EDGE_CURVE('',#1590,#1588,#1591,.T.);
#1265=EDGE_CURVE('',#1506,#1590,#1592,.T.);
#1266=EDGE_CURVE('',#1593,#1585,#1594,.T.);
#1267=EDGE_CURVE('',#1595,#1593,#1596,.T.);
#1268=EDGE_CURVE('',#1565,#1595,#1597,.T.);
#1269=EDGE_CURVE('',#1590,#1598,#1599,.T.);
#1270=EDGE_CURVE('',#1507,#1598,#1600,.T.);
#1271=EDGE_CURVE('',#1598,#1601,#1602,.T.);
#1272=EDGE_CURVE('',#1601,#1509,#1603,.T.);
#1273=EDGE_CURVE('',#1566,#1604,#1605,.T.);
#1274=EDGE_CURVE('',#1604,#1606,#1607,.T.);
#1275=EDGE_CURVE('',#1606,#1568,#1608,.T.);
#1276=EDGE_CURVE('',#1588,#1601,#1609,.T.);
#1277=EDGE_CURVE('',#1585,#1610,#1611,.T.);
#1278=EDGE_CURVE('',#1610,#1612,#1613,.T.);
#1279=EDGE_CURVE('',#1568,#1612,#1614,.T.);
#1280=EDGE_CURVE('',#1593,#1606,#1615,.T.);
#1281=EDGE_CURVE('',#1595,#1604,#1616,.T.);
#1282=EDGE_CURVE('',#1612,#1617,#1618,.T.);
#1283=EDGE_CURVE('',#1617,#1619,#1620,.T.);
#1284=EDGE_CURVE('',#1619,#1621,#1622,.T.);
#1285=EDGE_CURVE('',#1570,#1621,#1623,.T.);
#1286=EDGE_CURVE('',#1576,#1624,#1625,.T.);
#1287=EDGE_CURVE('',#1624,#1626,#1627,.T.);
#1288=EDGE_CURVE('',#1626,#1578,#1628,.T.);
#1289=EDGE_CURVE('',#1621,#1629,#1630,.T.);
#1290=EDGE_CURVE('',#1629,#1572,#1631,.T.);
#1291=EDGE_CURVE('',#1581,#1632,#1633,.T.);
#1292=EDGE_CURVE('',#1632,#1634,#1635,.T.);
#1293=EDGE_CURVE('',#1634,#1583,#1636,.T.);
#1294=EDGE_CURVE('',#1637,#1345,#1638,.T.);
#1295=EDGE_CURVE('',#1639,#1626,#1640,.T.);
#1296=EDGE_CURVE('',#1639,#1637,#1641,.T.);
#1297=EDGE_CURVE('',#1642,#1643,#1644,.T.);
#1298=EDGE_CURVE('',#1645,#1643,#1646,.T.);
#1299=EDGE_CURVE('',#1645,#1647,#1648,.T.);
#1300=EDGE_CURVE('',#1647,#1637,#1649,.T.);
#1301=EDGE_CURVE('',#1639,#1650,#1651,.T.);
#1302=EDGE_CURVE('',#1652,#1650,#1653,.T.);
#1303=EDGE_CURVE('',#1654,#1652,#1655,.T.);
#1304=EDGE_CURVE('',#1654,#1656,#1657,.T.);
#1305=EDGE_CURVE('',#1619,#1656,#1658,.T.);
#1306=EDGE_CURVE('',#1642,#1617,#1659,.T.);
#1307=EDGE_CURVE('',#1610,#1642,#1660,.T.);
#1308=EDGE_CURVE('',#1643,#1634,#1661,.T.);
#1309=EDGE_CURVE('',#1645,#1632,#1662,.T.);
#1310=EDGE_CURVE('',#1647,#1347,#1663,.T.);
#1311=EDGE_CURVE('',#1656,#1629,#1664,.T.);
#1312=EDGE_CURVE('',#1665,#1654,#1666,.T.);
#1313=EDGE_CURVE('',#1543,#1665,#1667,.T.);
#1314=EDGE_CURVE('',#1542,#1560,#1668,.T.);
#1315=EDGE_CURVE('',#1665,#1669,#1670,.T.);
#1316=EDGE_CURVE('',#1562,#1669,#1671,.T.);
#1317=EDGE_CURVE('',#1669,#1652,#1672,.T.);
#1318=EDGE_CURVE('',#1650,#1624,#1673,.T.);
#1319=EDGE_CURVE('',#1545,#1558,#1674,.T.);
#1320=EDGE_CURVE('',#1431,#1443,#1675,.T.);
#1321=EDGE_CURVE('',#1433,#1441,#1676,.T.);
#1322=VERTEX_POINT('',#1677);
#1323=VERTEX_POINT('',#1678);
#1324=LINE('',#1679,#1680);
#1325=VERTEX_POINT('',#1681);
#1326=LINE('',#1682,#1683);
#1327=VERTEX_POINT('',#1684);
#1328=LINE('',#1685,#1686);
#1329=VERTEX_POINT('',#1687);
#1330=LINE('',#1688,#1689);
#1331=VERTEX_POINT('',#1690);
#1332=LINE('',#1691,#1692);
#1333=VERTEX_POINT('',#1693);
#1334=LINE('',#1694,#1695);
#1335=VERTEX_POINT('',#1696);
#1336=LINE('',#1697,#1698);
#1337=VERTEX_POINT('',#1699);
#1338=LINE('',#1700,#1701);
#1339=VERTEX_POINT('',#1702);
#1340=LINE('',#1703,#1704);
#1341=LINE('',#1705,#1706);
#1342=VERTEX_POINT('',#1707);
#1343=VERTEX_POINT('',#1708);
#1344=LINE('',#1709,#1710);
#1345=VERTEX_POINT('',#1711);
#1346=LINE('',#1712,#1713);
#1347=VERTEX_POINT('',#1714);
#1348=LINE('',#1715,#1716);
#1349=LINE('',#1717,#1718);
#1350=VERTEX_POINT('',#1719);
#1351=VERTEX_POINT('',#1720);
#1352=LINE('',#1721,#1722);
#1353=VERTEX_POINT('',#1723);
#1354=LINE('',#1724,#1725);
#1355=VERTEX_POINT('',#1726);
#1356=LINE('',#1727,#1728);
#1357=VERTEX_POINT('',#1729);
#1358=LINE('',#1730,#1731);
#1359=VERTEX_POINT('',#1732);
#1360=LINE('',#1733,#1734);
#1361=LINE('',#1735,#1736);
#1362=LINE('',#1737,#1738);
#1363=VERTEX_POINT('',#1739);
#1364=LINE('',#1740,#1741);
#1365=VERTEX_POINT('',#1742);
#1366=LINE('',#1743,#1744);
#1367=LINE('',#1745,#1746);
#1368=VERTEX_POINT('',#1747);
#1369=VERTEX_POINT('',#1748);
#1370=LINE('',#1749,#1750);
#1371=LINE('',#1751,#1752);
#1372=LINE('',#1753,#1754);
#1373=VERTEX_POINT('',#1755);
#1374=LINE('',#1756,#1757);
#1375=LINE('',#1758,#1759);
#1376=VERTEX_POINT('',#1760);
#1377=LINE('',#1761,#1762);
#1378=VERTEX_POINT('',#1763);
#1379=LINE('',#1764,#1765);
#1380=VERTEX_POINT('',#1766);
#1381=LINE('',#1767,#1768);
#1382=VERTEX_POINT('',#1769);
#1383=LINE('',#1770,#1771);
#1384=VERTEX_POINT('',#1772);
#1385=LINE('',#1773,#1774);
#1386=VERTEX_POINT('',#1775);
#1387=LINE('',#1776,#1777);
#1388=LINE('',#1778,#1779);
#1389=LINE('',#1780,#1781);
#1390=VERTEX_POINT('',#1782);
#1391=LINE('',#1783,#1784);
#1392=VERTEX_POINT('',#1785);
#1393=LINE('',#1786,#1787);
#1394=LINE('',#1788,#1789);
#1395=VERTEX_POINT('',#1790);
#1396=LINE('',#1791,#1792);
#1397=LINE('',#1793,#1794);
#1398=LINE('',#1795,#1796);
#1399=VERTEX_POINT('',#1797);
#1400=LINE('',#1798,#1799);
#1401=VERTEX_POINT('',#1800);
#1402=LINE('',#1801,#1802);
#1403=LINE('',#1803,#1804);
#1404=VERTEX_POINT('',#1805);
#1405=VERTEX_POINT('',#1806);
#1406=LINE('',#1807,#1808);
#1407=VERTEX_POINT('',#1809);
#1408=LINE('',#1810,#1811);
#1409=LINE('',#1812,#1813);
#1410=VERTEX_POINT('',#1814);
#1411=LINE('',#1815,#1816);
#1412=LINE('',#1817,#1818);
#1413=VERTEX_POINT('',#1819);
#1414=VERTEX_POINT('',#1820);
#1415=LINE('',#1821,#1822);
#1416=VERTEX_POINT('',#1823);
#1417=LINE('',#1824,#1825);
#1418=VERTEX_POINT('',#1826);
#1419=LINE('',#1827,#1828);
#1420=VERTEX_POINT('',#1829);
#1421=LINE('',#1830,#1831);
#1422=VERTEX_POINT('',#1832);
#1423=LINE('',#1833,#1834);
#1424=LINE('',#1835,#1836);
#1425=VERTEX_POINT('',#1837);
#1426=VERTEX_POINT('',#1838);
#1427=LINE('',#1839,#1840);
#1428=LINE('',#1841,#1842);
#1429=LINE('',#1843,#1844);
#1430=LINE('',#1845,#1846);
#1431=VERTEX_POINT('',#1847);
#1432=LINE('',#1848,#1849);
#1433=VERTEX_POINT('',#1850);
#1434=CIRCLE('',#1851,1.016);
#1435=VERTEX_POINT('',#1852);
#1436=LINE('',#1853,#1854);
#1437=CIRCLE('',#1855,1.016);
#1438=VERTEX_POINT('',#1856);
#1439=LINE('',#1857,#1858);
#1440=CIRCLE('',#1859,1.016);
#1441=VERTEX_POINT('',#1860);
#1442=LINE('',#1861,#1862);
#1443=VERTEX_POINT('',#1863);
#1444=CIRCLE('',#1864,1.016);
#1445=LINE('',#1865,#1866);
#1446=VERTEX_POINT('',#1867);
#1447=LINE('',#1868,#1869);
#1448=VERTEX_POINT('',#1870);
#1449=LINE('',#1871,#1872);
#1450=LINE('',#1873,#1874);
#1451=VERTEX_POINT('',#1875);
#1452=LINE('',#1876,#1877);
#1453=VERTEX_POINT('',#1878);
#1454=LINE('',#1879,#1880);
#1455=VERTEX_POINT('',#1881);
#1456=LINE('',#1882,#1883);
#1457=VERTEX_POINT('',#1884);
#1458=LINE('',#1885,#1886);
#1459=VERTEX_POINT('',#1887);
#1460=LINE('',#1888,#1889);
#1461=LINE('',#1890,#1891);
#1462=VERTEX_POINT('',#1892);
#1463=VERTEX_POINT('',#1893);
#1464=LINE('',#1894,#1895);
#1465=LINE('',#1896,#1897);
#1466=VERTEX_POINT('',#1898);
#1467=LINE('',#1899,#1900);
#1468=LINE('',#1901,#1902);
#1469=VERTEX_POINT('',#1903);
#1470=LINE('',#1904,#1905);
#1471=VERTEX_POINT('',#1906);
#1472=LINE('',#1907,#1908);
#1473=LINE('',#1909,#1910);
#1474=VERTEX_POINT('',#1911);
#1475=VERTEX_POINT('',#1912);
#1476=LINE('',#1913,#1914);
#1477=VERTEX_POINT('',#1915);
#1478=LINE('',#1916,#1917);
#1479=LINE('',#1918,#1919);
#1480=LINE('',#1920,#1921);
#1481=LINE('',#1922,#1923);
#1482=VERTEX_POINT('',#1924);
#1483=LINE('',#1925,#1926);
#1484=LINE('',#1927,#1928);
#1485=VERTEX_POINT('',#1929);
#1486=VERTEX_POINT('',#1930);
#1487=LINE('',#1931,#1932);
#1488=LINE('',#1933,#1934);
#1489=VERTEX_POINT('',#1935);
#1490=LINE('',#1936,#1937);
#1491=LINE('',#1938,#1939);
#1492=VERTEX_POINT('',#1940);
#1493=LINE('',#1941,#1942);
#1494=LINE('',#1943,#1944);
#1495=VERTEX_POINT('',#1945);
#1496=LINE('',#1946,#1947);
#1497=LINE('',#1948,#1949);
#1498=VERTEX_POINT('',#1950);
#1499=VERTEX_POINT('',#1951);
#1500=LINE('',#1952,#1953);
#1501=VERTEX_POINT('',#1954);
#1502=LINE('',#1955,#1956);
#1503=VERTEX_POINT('',#1957);
#1504=LINE('',#1958,#1959);
#1505=LINE('',#1960,#1961);
#1506=VERTEX_POINT('',#1962);
#1507=VERTEX_POINT('',#1963);
#1508=LINE('',#1964,#1965);
#1509=VERTEX_POINT('',#1966);
#1510=LINE('',#1967,#1968);
#1511=VERTEX_POINT('',#1969);
#1512=LINE('',#1970,#1971);
#1513=LINE('',#1972,#1973);
#1514=VERTEX_POINT('',#1974);
#1515=LINE('',#1975,#1976);
#1516=LINE('',#1977,#1978);
#1517=VERTEX_POINT('',#1979);
#1518=VERTEX_POINT('',#1980);
#1519=LINE('',#1981,#1982);
#1520=LINE('',#1983,#1984);
#1521=LINE('',#1985,#1986);
#1522=LINE('',#1987,#1988);
#1523=LINE('',#1989,#1990);
#1524=LINE('',#1991,#1992);
#1525=LINE('',#1993,#1994);
#1526=LINE('',#1995,#1996);
#1527=LINE('',#1997,#1998);
#1528=LINE('',#1999,#2000);
#1529=VERTEX_POINT('',#2001);
#1530=LINE('',#2002,#2003);
#1531=LINE('',#2004,#2005);
#1532=LINE('',#2006,#2007);
#1533=VERTEX_POINT('',#2008);
#1534=LINE('',#2009,#2010);
#1535=LINE('',#2011,#2012);
#1536=LINE('',#2013,#2014);
#1537=VERTEX_POINT('',#2015);
#1538=VERTEX_POINT('',#2016);
#1539=LINE('',#2017,#2018);
#1540=LINE('',#2019,#2020);
#1541=LINE('',#2021,#2022);
#1542=VERTEX_POINT('',#2023);
#1543=VERTEX_POINT('',#2024);
#1544=LINE('',#2025,#2026);
#1545=VERTEX_POINT('',#2027);
#1546=LINE('',#2028,#2029);
#1547=VERTEX_POINT('',#2030);
#1548=LINE('',#2031,#2032);
#1549=LINE('',#2033,#2034);
#1550=VERTEX_POINT('',#2035);
#1551=LINE('',#2036,#2037);
#1552=LINE('',#2038,#2039);
#1553=VERTEX_POINT('',#2040);
#1554=LINE('',#2041,#2042);
#1555=LINE('',#2043,#2044);
#1556=LINE('',#2045,#2046);
#1557=VERTEX_POINT('',#2047);
#1558=VERTEX_POINT('',#2048);
#1559=LINE('',#2049,#2050);
#1560=VERTEX_POINT('',#2051);
#1561=LINE('',#2052,#2053);
#1562=VERTEX_POINT('',#2054);
#1563=LINE('',#2055,#2056);
#1564=LINE('',#2057,#2058);
#1565=VERTEX_POINT('',#2059);
#1566=VERTEX_POINT('',#2060);
#1567=LINE('',#2061,#2062);
#1568=VERTEX_POINT('',#2063);
#1569=LINE('',#2064,#2065);
#1570=VERTEX_POINT('',#2066);
#1571=LINE('',#2067,#2068);
#1572=VERTEX_POINT('',#2069);
#1573=LINE('',#2070,#2071);
#1574=LINE('',#2072,#2073);
#1575=LINE('',#2074,#2075);
#1576=VERTEX_POINT('',#2076);
#1577=LINE('',#2077,#2078);
#1578=VERTEX_POINT('',#2079);
#1579=LINE('',#2080,#2081);
#1580=LINE('',#2082,#2083);
#1581=VERTEX_POINT('',#2084);
#1582=LINE('',#2085,#2086);
#1583=VERTEX_POINT('',#2087);
#1584=LINE('',#2088,#2089);
#1585=VERTEX_POINT('',#2090);
#1586=LINE('',#2091,#2092);
#1587=LINE('',#2093,#2094);
#1588=VERTEX_POINT('',#2095);
#1589=LINE('',#2096,#2097);
#1590=VERTEX_POINT('',#2098);
#1591=LINE('',#2099,#2100);
#1592=LINE('',#2101,#2102);
#1593=VERTEX_POINT('',#2103);
#1594=LINE('',#2104,#2105);
#1595=VERTEX_POINT('',#2106);
#1596=LINE('',#2107,#2108);
#1597=LINE('',#2109,#2110);
#1598=VERTEX_POINT('',#2111);
#1599=LINE('',#2112,#2113);
#1600=LINE('',#2114,#2115);
#1601=VERTEX_POINT('',#2116);
#1602=LINE('',#2117,#2118);
#1603=LINE('',#2119,#2120);
#1604=VERTEX_POINT('',#2121);
#1605=LINE('',#2122,#2123);
#1606=VERTEX_POINT('',#2124);
#1607=LINE('',#2125,#2126);
#1608=LINE('',#2127,#2128);
#1609=LINE('',#2129,#2130);
#1610=VERTEX_POINT('',#2131);
#1611=LINE('',#2132,#2133);
#1612=VERTEX_POINT('',#2134);
#1613=LINE('',#2135,#2136);
#1614=LINE('',#2137,#2138);
#1615=LINE('',#2139,#2140);
#1616=LINE('',#2141,#2142);
#1617=VERTEX_POINT('',#2143);
#1618=CIRCLE('',#2144,1.27);
#1619=VERTEX_POINT('',#2145);
#1620=LINE('',#2146,#2147);
#1621=VERTEX_POINT('',#2148);
#1622=LINE('',#2149,#2150);
#1623=LINE('',#2151,#2152);
#1624=VERTEX_POINT('',#2153);
#1625=LINE('',#2154,#2155);
#1626=VERTEX_POINT('',#2156);
#1627=LINE('',#2157,#2158);
#1628=LINE('',#2159,#2160);
#1629=VERTEX_POINT('',#2161);
#1630=LINE('',#2162,#2163);
#1631=LINE('',#2164,#2165);
#1632=VERTEX_POINT('',#2166);
#1633=LINE('',#2167,#2168);
#1634=VERTEX_POINT('',#2169);
#1635=LINE('',#2170,#2171);
#1636=LINE('',#2172,#2173);
#1637=VERTEX_POINT('',#2174);
#1638=LINE('',#2175,#2176);
#1639=VERTEX_POINT('',#2177);
#1640=LINE('',#2178,#2179);
#1641=LINE('',#2180,#2181);
#1642=VERTEX_POINT('',#2182);
#1643=VERTEX_POINT('',#2183);
#1644=LINE('',#2184,#2185);
#1645=VERTEX_POINT('',#2186);
#1646=LINE('',#2187,#2188);
#1647=VERTEX_POINT('',#2189);
#1648=LINE('',#2190,#2191);
#1649=LINE('',#2192,#2193);
#1650=VERTEX_POINT('',#2194);
#1651=LINE('',#2195,#2196);
#1652=VERTEX_POINT('',#2197);
#1653=LINE('',#2198,#2199);
#1654=VERTEX_POINT('',#2200);
#1655=LINE('',#2201,#2202);
#1656=VERTEX_POINT('',#2203);
#1657=LINE('',#2204,#2205);
#1658=LINE('',#2206,#2207);
#1659=LINE('',#2208,#2209);
#1660=CIRCLE('',#2210,1.27);
#1661=LINE('',#2211,#2212);
#1662=LINE('',#2213,#2214);
#1663=LINE('',#2215,#2216);
#1664=LINE('',#2217,#2218);
#1665=VERTEX_POINT('',#2219);
#1666=CIRCLE('',#2220,1.27);
#1667=LINE('',#2221,#2222);
#1668=LINE('',#2223,#2224);
#1669=VERTEX_POINT('',#2225);
#1670=LINE('',#2226,#2227);
#1671=LINE('',#2228,#2229);
#1672=CIRCLE('',#2230,1.27);
#1673=LINE('',#2231,#2232);
#1674=LINE('',#2233,#2234);
#1675=LINE('',#2235,#2236);
#1676=LINE('',#2237,#2238);
#1677=CARTESIAN_POINT('',(-3.683,2.286,-5.715));
#1678=CARTESIAN_POINT('',(-3.683,-2.54,-5.715));
#1679=CARTESIAN_POINT('',(-3.683,2.286,-5.715));
#1680=VECTOR('',#2239,4.826);
#1681=CARTESIAN_POINT('',(3.683,2.286,-5.715));
#1682=CARTESIAN_POINT('',(-3.683,2.286,-5.715));
#1683=VECTOR('',#2240,7.366);
#1684=CARTESIAN_POINT('',(3.683,-2.54,-5.715));
#1685=CARTESIAN_POINT('',(3.683,-2.54,-5.715));
#1686=VECTOR('',#2241,4.826);
#1687=CARTESIAN_POINT('',(2.413,-2.54,-5.715));
#1688=CARTESIAN_POINT('',(2.413,-2.54,-5.715));
#1689=VECTOR('',#2242,1.27);
#1690=CARTESIAN_POINT('',(2.032,-2.921,-5.715));
#1691=CARTESIAN_POINT('',(2.032,-2.921,-5.715));
#1692=VECTOR('',#2243,0.53881536726424);
#1693=CARTESIAN_POINT('',(1.651,-2.54,-5.715));
#1694=CARTESIAN_POINT('',(1.651,-2.54,-5.715));
#1695=VECTOR('',#2244,0.53881536726424);
#1696=CARTESIAN_POINT('',(-1.65099999999975,-2.54,-5.715));
#1697=CARTESIAN_POINT('',(-1.65099999999975,-2.54,-5.715));
#1698=VECTOR('',#2245,3.302);
#1699=CARTESIAN_POINT('',(-2.032,-2.921,-5.715));
#1700=CARTESIAN_POINT('',(-2.032,-2.921,-5.715));
#1701=VECTOR('',#2246,0.538815367264494);
#1702=CARTESIAN_POINT('',(-2.41300000000025,-2.54,-5.715));
#1703=CARTESIAN_POINT('',(-2.41300000000025,-2.54,-5.715));
#1704=VECTOR('',#2247,0.538815367264494);
#1705=CARTESIAN_POINT('',(-3.683,-2.54,-5.715));
#1706=VECTOR('',#2248,1.26999999999975);
#1707=CARTESIAN_POINT('',(-3.175,-1.016,-5.715));
#1708=CARTESIAN_POINT('',(3.175,-1.016,-5.715));
#1709=CARTESIAN_POINT('',(-3.175,-1.016,-5.715));
#1710=VECTOR('',#2249,6.35);
#1711=CARTESIAN_POINT('',(3.175,1.524,-5.715));
#1712=CARTESIAN_POINT('',(3.175,-1.016,-5.715));
#1713=VECTOR('',#2250,2.54);
#1714=CARTESIAN_POINT('',(-3.175,1.524,-5.715));
#1715=CARTESIAN_POINT('',(-3.175,1.524,-5.715));
#1716=VECTOR('',#2251,6.35);
#1717=CARTESIAN_POINT('',(-3.175,-1.016,-5.715));
#1718=VECTOR('',#2252,2.54);
#1719=CARTESIAN_POINT('',(0.508,-2.54,5.715));
#1720=CARTESIAN_POINT('',(1.651,-2.54,5.715));
#1721=CARTESIAN_POINT('',(0.508,-2.54,5.715));
#1722=VECTOR('',#2253,1.143);
#1723=CARTESIAN_POINT('',(0.508,-2.54,-3.175));
#1724=CARTESIAN_POINT('',(0.508,-2.54,5.715));
#1725=VECTOR('',#2254,8.89);
#1726=CARTESIAN_POINT('',(-0.508,-2.54,-3.175));
#1727=CARTESIAN_POINT('',(-0.508,-2.54,-3.175));
#1728=VECTOR('',#2255,1.016);
#1729=CARTESIAN_POINT('',(-0.508,-2.54,5.715));
#1730=CARTESIAN_POINT('',(-0.508,-2.54,5.715));
#1731=VECTOR('',#2256,8.89);
#1732=CARTESIAN_POINT('',(-1.65099999999975,-2.54,5.715));
#1733=CARTESIAN_POINT('',(-1.65099999999975,-2.54,5.715));
#1734=VECTOR('',#2257,1.14299999999975);
#1735=CARTESIAN_POINT('',(-1.65099999999975,-2.54,-5.715));
#1736=VECTOR('',#2258,11.43);
#1737=CARTESIAN_POINT('',(1.651,-2.54,-5.715));
#1738=VECTOR('',#2259,11.43);
#1739=CARTESIAN_POINT('',(3.683,-2.54,5.715));
#1740=CARTESIAN_POINT('',(3.683,-2.54,-5.715));
#1741=VECTOR('',#2260,11.43);
#1742=CARTESIAN_POINT('',(2.413,-2.54,5.715));
#1743=CARTESIAN_POINT('',(2.413,-2.54,5.715));
#1744=VECTOR('',#2261,1.27);
#1745=CARTESIAN_POINT('',(2.413,-2.54,-5.715));
#1746=VECTOR('',#2262,11.43);
#1747=CARTESIAN_POINT('',(-3.683,-2.54,5.715));
#1748=CARTESIAN_POINT('',(-2.41300000000025,-2.54,5.715));
#1749=CARTESIAN_POINT('',(-3.683,-2.54,5.715));
#1750=VECTOR('',#2263,1.26999999999975);
#1751=CARTESIAN_POINT('',(-3.683,-2.54,-5.715));
#1752=VECTOR('',#2264,11.43);
#1753=CARTESIAN_POINT('',(-2.41300000000025,-2.54,-5.715));
#1754=VECTOR('',#2265,11.43);
#1755=CARTESIAN_POINT('',(2.032,-2.921,5.715));
#1756=CARTESIAN_POINT('',(2.032,-2.921,-5.715));
#1757=VECTOR('',#2266,11.43);
#1758=CARTESIAN_POINT('',(1.651,-2.54,5.715));
#1759=VECTOR('',#2267,0.53881536726424);
#1760=CARTESIAN_POINT('',(-0.508,-1.905,5.715));
#1761=CARTESIAN_POINT('',(-0.508,-2.54,5.715));
#1762=VECTOR('',#2268,0.635);
#1763=CARTESIAN_POINT('',(-3.175,-1.905,5.715));
#1764=CARTESIAN_POINT('',(-0.508,-1.905,5.715));
#1765=VECTOR('',#2269,2.667);
#1766=CARTESIAN_POINT('',(-3.175,3.429,5.715));
#1767=CARTESIAN_POINT('',(-3.175,-1.905,5.715));
#1768=VECTOR('',#2270,5.334);
#1769=CARTESIAN_POINT('',(3.175,3.429,5.715));
#1770=CARTESIAN_POINT('',(-3.175,3.429,5.715));
#1771=VECTOR('',#2271,6.35);
#1772=CARTESIAN_POINT('',(3.175,-1.905,5.715));
#1773=CARTESIAN_POINT('',(3.175,3.429,5.715));
#1774=VECTOR('',#2272,5.334);
#1775=CARTESIAN_POINT('',(0.508,-1.905,5.715));
#1776=CARTESIAN_POINT('',(3.175,-1.905,5.715));
#1777=VECTOR('',#2273,2.667);
#1778=CARTESIAN_POINT('',(0.508,-2.54,5.715));
#1779=VECTOR('',#2274,0.635);
#1780=CARTESIAN_POINT('',(2.032,-2.921,5.715));
#1781=VECTOR('',#2275,0.53881536726424);
#1782=CARTESIAN_POINT('',(3.683,4.064,5.715));
#1783=CARTESIAN_POINT('',(3.683,-2.54,5.715));
#1784=VECTOR('',#2276,6.604);
#1785=CARTESIAN_POINT('',(-3.683,4.064,5.715));
#1786=CARTESIAN_POINT('',(3.683,4.064,5.715));
#1787=VECTOR('',#2277,7.366);
#1788=CARTESIAN_POINT('',(-3.683,4.064,5.715));
#1789=VECTOR('',#2278,6.604);
#1790=CARTESIAN_POINT('',(-2.032,-2.921,5.715));
#1791=CARTESIAN_POINT('',(-2.41300000000025,-2.54,5.715));
#1792=VECTOR('',#2279,0.538815367264494);
#1793=CARTESIAN_POINT('',(-2.032,-2.921,5.715));
#1794=VECTOR('',#2280,0.538815367264494);
#1795=CARTESIAN_POINT('',(-2.032,-2.921,-5.715));
#1796=VECTOR('',#2281,11.43);
#1797=CARTESIAN_POINT('',(-3.683,2.286,2.54));
#1798=CARTESIAN_POINT('',(-3.683,2.286,-5.715));
#1799=VECTOR('',#2282,8.255);
#1800=CARTESIAN_POINT('',(-3.683,4.064,2.54));
#1801=CARTESIAN_POINT('',(-3.683,4.064,2.54));
#1802=VECTOR('',#2283,3.175);
#1803=CARTESIAN_POINT('',(-3.683,4.064,2.54));
#1804=VECTOR('',#2284,1.778);
#1805=CARTESIAN_POINT('',(-2.667,2.921,2.54));
#1806=CARTESIAN_POINT('',(-2.286,2.921,2.54));
#1807=CARTESIAN_POINT('',(-2.667,2.921,2.54));
#1808=VECTOR('',#2285,0.381);
#1809=CARTESIAN_POINT('',(-2.667,2.286,2.54));
#1810=CARTESIAN_POINT('',(-2.667,2.286,2.54));
#1811=VECTOR('',#2286,0.635);
#1812=CARTESIAN_POINT('',(-2.667,2.286,2.54));
#1813=VECTOR('',#2287,1.016);
#1814=CARTESIAN_POINT('',(-2.286,4.064,2.54));
#1815=CARTESIAN_POINT('',(-2.286,4.064,2.54));
#1816=VECTOR('',#2288,1.397);
#1817=CARTESIAN_POINT('',(-2.286,4.064,2.54));
#1818=VECTOR('',#2289,1.143);
#1819=CARTESIAN_POINT('',(3.683,4.064,2.54));
#1820=CARTESIAN_POINT('',(2.286,4.064,2.54));
#1821=CARTESIAN_POINT('',(3.683,4.064,2.54));
#1822=VECTOR('',#2290,1.397);
#1823=CARTESIAN_POINT('',(3.683,2.286,2.54));
#1824=CARTESIAN_POINT('',(3.683,4.064,2.54));
#1825=VECTOR('',#2291,1.778);
#1826=CARTESIAN_POINT('',(2.667,2.286,2.54));
#1827=CARTESIAN_POINT('',(3.683,2.286,2.54));
#1828=VECTOR('',#2292,1.016);
#1829=CARTESIAN_POINT('',(2.667,2.921,2.54));
#1830=CARTESIAN_POINT('',(2.667,2.286,2.54));
#1831=VECTOR('',#2293,0.635);
#1832=CARTESIAN_POINT('',(2.286,2.921,2.54));
#1833=CARTESIAN_POINT('',(2.286,2.921,2.54));
#1834=VECTOR('',#2294,0.381);
#1835=CARTESIAN_POINT('',(2.286,4.064,2.54));
#1836=VECTOR('',#2295,1.143);
#1837=CARTESIAN_POINT('',(-2.286,4.064,3.429));
#1838=CARTESIAN_POINT('',(-2.286,2.921,3.429));
#1839=CARTESIAN_POINT('',(-2.286,4.064,3.429));
#1840=VECTOR('',#2296,1.143);
#1841=CARTESIAN_POINT('',(-2.286,2.921,2.54));
#1842=VECTOR('',#2297,0.889);
#1843=CARTESIAN_POINT('',(-2.286,4.064,2.54));
#1844=VECTOR('',#2298,0.889);
#1845=CARTESIAN_POINT('',(3.683,4.064,2.54));
#1846=VECTOR('',#2299,3.175);
#1847=CARTESIAN_POINT('',(2.286,4.064,3.429));
#1848=CARTESIAN_POINT('',(2.286,4.064,2.54));
#1849=VECTOR('',#2300,0.889);
#1850=CARTESIAN_POINT('',(1.27,4.064,4.445));
#1851=AXIS2_PLACEMENT_3D('',#2301,#2302,#2303);
#1852=CARTESIAN_POINT('',(-1.27,4.064,4.445));
#1853=CARTESIAN_POINT('',(-1.27,4.064,4.445));
#1854=VECTOR('',#2304,2.54);
#1855=AXIS2_PLACEMENT_3D('',#2305,#2306,#2307);
#1856=CARTESIAN_POINT('',(-1.27,2.921,4.445));
#1857=CARTESIAN_POINT('',(-1.27,4.064,4.445));
#1858=VECTOR('',#2308,1.143);
#1859=AXIS2_PLACEMENT_3D('',#2309,#2310,#2311);
#1860=CARTESIAN_POINT('',(1.27,2.921,4.445));
#1861=CARTESIAN_POINT('',(-1.27,2.921,4.445));
#1862=VECTOR('',#2312,2.54);
#1863=CARTESIAN_POINT('',(2.286,2.921,3.429));
#1864=AXIS2_PLACEMENT_3D('',#2313,#2314,#2315);
#1865=CARTESIAN_POINT('',(2.286,2.921,2.54));
#1866=VECTOR('',#2316,0.889);
#1867=CARTESIAN_POINT('',(2.667,2.921,5.207));
#1868=CARTESIAN_POINT('',(2.667,2.921,2.54));
#1869=VECTOR('',#2317,2.667);
#1870=CARTESIAN_POINT('',(-2.667,2.921,5.207));
#1871=CARTESIAN_POINT('',(-2.667,2.921,5.207));
#1872=VECTOR('',#2318,5.334);
#1873=CARTESIAN_POINT('',(-2.667,2.921,2.54));
#1874=VECTOR('',#2319,2.667);
#1875=CARTESIAN_POINT('',(-2.667,-1.397,5.207));
#1876=CARTESIAN_POINT('',(-2.667,-1.397,5.207));
#1877=VECTOR('',#2320,4.318);
#1878=CARTESIAN_POINT('',(-2.667,-1.397,-3.175));
#1879=CARTESIAN_POINT('',(-2.667,-1.397,5.207));
#1880=VECTOR('',#2321,8.382);
#1881=CARTESIAN_POINT('',(-2.667,1.27,-3.175));
#1882=CARTESIAN_POINT('',(-2.667,1.27,-3.175));
#1883=VECTOR('',#2322,2.667);
#1884=CARTESIAN_POINT('',(-2.667,1.27,2.032));
#1885=CARTESIAN_POINT('',(-2.667,1.27,2.032));
#1886=VECTOR('',#2323,5.207);
#1887=CARTESIAN_POINT('',(-2.667,1.778,2.54));
#1888=CARTESIAN_POINT('',(-2.667,1.778,2.54));
#1889=VECTOR('',#2324,0.718420489685484);
#1890=CARTESIAN_POINT('',(-2.667,1.778,2.54));
#1891=VECTOR('',#2325,0.508);
#1892=CARTESIAN_POINT('',(1.27,1.778,2.54));
#1893=CARTESIAN_POINT('',(2.667,1.778,2.54));
#1894=CARTESIAN_POINT('',(1.27,1.778,2.54));
#1895=VECTOR('',#2326,1.397);
#1896=CARTESIAN_POINT('',(2.667,2.286,2.54));
#1897=VECTOR('',#2327,0.508);
#1898=CARTESIAN_POINT('',(1.27,2.286,2.54));
#1899=CARTESIAN_POINT('',(1.27,2.286,2.54));
#1900=VECTOR('',#2328,1.397);
#1901=CARTESIAN_POINT('',(1.27,2.286,2.54));
#1902=VECTOR('',#2329,0.508);
#1903=CARTESIAN_POINT('',(-1.27,2.286,2.54));
#1904=CARTESIAN_POINT('',(-2.667,2.286,2.54));
#1905=VECTOR('',#2330,1.397);
#1906=CARTESIAN_POINT('',(-1.27,1.778,2.54));
#1907=CARTESIAN_POINT('',(-2.667,1.778,2.54));
#1908=VECTOR('',#2331,1.397);
#1909=CARTESIAN_POINT('',(-1.27,2.286,2.54));
#1910=VECTOR('',#2332,0.508);
#1911=CARTESIAN_POINT('',(1.27,2.286,-3.175));
#1912=CARTESIAN_POINT('',(1.27,1.27,-3.175));
#1913=CARTESIAN_POINT('',(1.27,2.286,-3.175));
#1914=VECTOR('',#2333,1.016);
#1915=CARTESIAN_POINT('',(1.27,1.27,2.032));
#1916=CARTESIAN_POINT('',(1.27,1.27,-3.175));
#1917=VECTOR('',#2334,5.207);
#1918=CARTESIAN_POINT('',(1.27,1.778,2.54));
#1919=VECTOR('',#2335,0.718420489685484);
#1920=CARTESIAN_POINT('',(1.27,2.286,2.54));
#1921=VECTOR('',#2336,5.715);
#1922=CARTESIAN_POINT('',(3.683,2.286,-5.715));
#1923=VECTOR('',#2337,8.255);
#1924=CARTESIAN_POINT('',(-1.27,2.286,-3.175));
#1925=CARTESIAN_POINT('',(-1.27,2.286,2.54));
#1926=VECTOR('',#2338,5.715);
#1927=CARTESIAN_POINT('',(1.27,2.286,-3.175));
#1928=VECTOR('',#2339,2.54);
#1929=CARTESIAN_POINT('',(2.667,-1.397,-3.175));
#1930=CARTESIAN_POINT('',(2.667,1.27,-3.175));
#1931=CARTESIAN_POINT('',(2.667,-1.397,-3.175));
#1932=VECTOR('',#2340,2.667);
#1933=CARTESIAN_POINT('',(2.667,1.27,-3.175));
#1934=VECTOR('',#2341,1.397);
#1935=CARTESIAN_POINT('',(-1.27,1.27,-3.175));
#1936=CARTESIAN_POINT('',(-1.27,2.286,-3.175));
#1937=VECTOR('',#2342,1.016);
#1938=CARTESIAN_POINT('',(-1.27,1.27,-3.175));
#1939=VECTOR('',#2343,1.397);
#1940=CARTESIAN_POINT('',(-0.508,-1.397,-3.175));
#1941=CARTESIAN_POINT('',(-2.667,-1.397,-3.175));
#1942=VECTOR('',#2344,2.159);
#1943=CARTESIAN_POINT('',(-0.508,-1.397,-3.175));
#1944=VECTOR('',#2345,1.143);
#1945=CARTESIAN_POINT('',(0.508,-1.397,-3.175));
#1946=CARTESIAN_POINT('',(0.508,-2.54,-3.175));
#1947=VECTOR('',#2346,1.143);
#1948=CARTESIAN_POINT('',(0.508,-1.397,-3.175));
#1949=VECTOR('',#2347,2.159);
#1950=CARTESIAN_POINT('',(0.9525,0.3048,-3.175));
#1951=CARTESIAN_POINT('',(1.5875,0.3048,-3.175));
#1952=CARTESIAN_POINT('',(0.9525,0.3048,-3.175));
#1953=VECTOR('',#2348,0.635);
#1954=CARTESIAN_POINT('',(1.5875,-0.3302,-3.175));
#1955=CARTESIAN_POINT('',(1.5875,-0.3302,-3.175));
#1956=VECTOR('',#2349,0.635);
#1957=CARTESIAN_POINT('',(0.9525,-0.3302,-3.175));
#1958=CARTESIAN_POINT('',(0.9525,-0.3302,-3.175));
#1959=VECTOR('',#2350,0.635);
#1960=CARTESIAN_POINT('',(0.9525,-0.3302,-3.175));
#1961=VECTOR('',#2351,0.635);
#1962=CARTESIAN_POINT('',(-1.5875,0.3048,-3.175));
#1963=CARTESIAN_POINT('',(-0.9525,0.3048,-3.175));
#1964=CARTESIAN_POINT('',(-1.5875,0.3048,-3.175));
#1965=VECTOR('',#2352,0.635);
#1966=CARTESIAN_POINT('',(-0.9525,-0.3302,-3.175));
#1967=CARTESIAN_POINT('',(-0.9525,-0.3302,-3.175));
#1968=VECTOR('',#2353,0.635);
#1969=CARTESIAN_POINT('',(-1.5875,-0.3302,-3.175));
#1970=CARTESIAN_POINT('',(-1.5875,-0.3302,-3.175));
#1971=VECTOR('',#2354,0.635);
#1972=CARTESIAN_POINT('',(-1.5875,-0.3302,-3.175));
#1973=VECTOR('',#2355,0.635);
#1974=CARTESIAN_POINT('',(-0.508,-1.397,5.207));
#1975=CARTESIAN_POINT('',(-0.508,-1.397,5.207));
#1976=VECTOR('',#2356,2.159);
#1977=CARTESIAN_POINT('',(-0.508,-1.397,5.207));
#1978=VECTOR('',#2357,8.382);
#1979=CARTESIAN_POINT('',(2.667,-1.397,5.207));
#1980=CARTESIAN_POINT('',(0.508,-1.397,5.207));
#1981=CARTESIAN_POINT('',(2.667,-1.397,5.207));
#1982=VECTOR('',#2358,2.159);
#1983=CARTESIAN_POINT('',(2.667,-1.397,5.207));
#1984=VECTOR('',#2359,8.382);
#1985=CARTESIAN_POINT('',(0.508,-1.397,5.207));
#1986=VECTOR('',#2360,8.382);
#1987=CARTESIAN_POINT('',(-0.508,-1.905,5.715));
#1988=VECTOR('',#2361,0.718420489685484);
#1989=CARTESIAN_POINT('',(-3.175,-1.905,5.715));
#1990=VECTOR('',#2362,0.879881810245052);
#1991=CARTESIAN_POINT('',(3.175,-1.905,5.715));
#1992=VECTOR('',#2363,0.879881810245052);
#1993=CARTESIAN_POINT('',(0.508,-1.905,5.715));
#1994=VECTOR('',#2364,0.718420489685484);
#1995=CARTESIAN_POINT('',(-3.175,3.429,5.715));
#1996=VECTOR('',#2365,0.879881810245052);
#1997=CARTESIAN_POINT('',(3.175,3.429,5.715));
#1998=VECTOR('',#2366,0.879881810245052);
#1999=CARTESIAN_POINT('',(2.667,2.921,5.207));
#2000=VECTOR('',#2367,4.318);
#2001=CARTESIAN_POINT('',(2.667,1.27,2.032));
#2002=CARTESIAN_POINT('',(2.667,1.778,2.54));
#2003=VECTOR('',#2368,0.718420489685484);
#2004=CARTESIAN_POINT('',(2.667,1.27,2.032));
#2005=VECTOR('',#2369,5.207);
#2006=CARTESIAN_POINT('',(1.27,1.27,2.032));
#2007=VECTOR('',#2370,1.397);
#2008=CARTESIAN_POINT('',(-1.27,1.27,2.032));
#2009=CARTESIAN_POINT('',(-2.667,1.27,2.032));
#2010=VECTOR('',#2371,1.397);
#2011=CARTESIAN_POINT('',(-1.27,1.27,-3.175));
#2012=VECTOR('',#2372,5.207);
#2013=CARTESIAN_POINT('',(-1.27,1.778,2.54));
#2014=VECTOR('',#2373,0.718420489685484);
#2015=CARTESIAN_POINT('',(0.9525,0.3048,2.921));
#2016=CARTESIAN_POINT('',(0.9525,-0.3302,2.921));
#2017=CARTESIAN_POINT('',(0.9525,0.3048,2.921));
#2018=VECTOR('',#2374,0.635);
#2019=CARTESIAN_POINT('',(0.9525,0.3048,-3.175));
#2020=VECTOR('',#2375,6.096);
#2021=CARTESIAN_POINT('',(0.9525,-0.3302,2.921));
#2022=VECTOR('',#2376,6.096);
#2023=CARTESIAN_POINT('',(0.9525,-6.223,-7.493));
#2024=CARTESIAN_POINT('',(0.9525,-1.016,-7.493));
#2025=CARTESIAN_POINT('',(0.9525,-6.223,-7.493));
#2026=VECTOR('',#2377,5.207);
#2027=CARTESIAN_POINT('',(0.9525,-6.223,-6.858));
#2028=CARTESIAN_POINT('',(0.9525,-6.223,-6.858));
#2029=VECTOR('',#2378,0.635);
#2030=CARTESIAN_POINT('',(0.9525,-1.016,-6.858));
#2031=CARTESIAN_POINT('',(0.9525,-1.016,-6.858));
#2032=VECTOR('',#2379,5.207);
#2033=CARTESIAN_POINT('',(0.9525,-1.016,-6.858));
#2034=VECTOR('',#2380,0.635);
#2035=CARTESIAN_POINT('',(1.5875,-0.3302,2.921));
#2036=CARTESIAN_POINT('',(1.5875,-0.3302,2.921));
#2037=VECTOR('',#2381,6.096);
#2038=CARTESIAN_POINT('',(0.9525,-0.3302,2.921));
#2039=VECTOR('',#2382,0.635);
#2040=CARTESIAN_POINT('',(1.5875,0.3048,2.921));
#2041=CARTESIAN_POINT('',(1.5875,0.3048,2.921));
#2042=VECTOR('',#2383,0.635);
#2043=CARTESIAN_POINT('',(0.9525,0.3048,2.921));
#2044=VECTOR('',#2384,0.635);
#2045=CARTESIAN_POINT('',(1.5875,0.3048,-3.175));
#2046=VECTOR('',#2385,6.096);
#2047=CARTESIAN_POINT('',(1.5875,-1.016,-6.858));
#2048=CARTESIAN_POINT('',(1.5875,-6.223,-6.858));
#2049=CARTESIAN_POINT('',(1.5875,-1.016,-6.858));
#2050=VECTOR('',#2386,5.207);
#2051=CARTESIAN_POINT('',(1.5875,-6.223,-7.493));
#2052=CARTESIAN_POINT('',(1.5875,-6.223,-6.858));
#2053=VECTOR('',#2387,0.635);
#2054=CARTESIAN_POINT('',(1.5875,-1.016,-7.493));
#2055=CARTESIAN_POINT('',(1.5875,-6.223,-7.493));
#2056=VECTOR('',#2388,5.207);
#2057=CARTESIAN_POINT('',(1.5875,-1.016,-6.858));
#2058=VECTOR('',#2389,0.635);
#2059=CARTESIAN_POINT('',(-1.5875,-1.016,-6.858));
#2060=CARTESIAN_POINT('',(-0.9525,-1.016,-6.858));
#2061=CARTESIAN_POINT('',(-1.5875,-1.016,-6.858));
#2062=VECTOR('',#2390,0.635);
#2063=CARTESIAN_POINT('',(-0.9525,-1.016,-7.493));
#2064=CARTESIAN_POINT('',(-0.9525,-1.016,-6.858));
#2065=VECTOR('',#2391,0.635);
#2066=CARTESIAN_POINT('',(-0.9525,-1.016,-7.874));
#2067=CARTESIAN_POINT('',(-0.9525,-1.016,-7.493));
#2068=VECTOR('',#2392,0.381);
#2069=CARTESIAN_POINT('',(0.9525,-1.016,-7.874));
#2070=CARTESIAN_POINT('',(0.9525,-1.016,-7.874));
#2071=VECTOR('',#2393,1.905);
#2072=CARTESIAN_POINT('',(0.9525,-1.016,-7.493));
#2073=VECTOR('',#2394,0.381);
#2074=CARTESIAN_POINT('',(0.9525,-1.016,-6.858));
#2075=VECTOR('',#2395,0.635);
#2076=CARTESIAN_POINT('',(1.5875,-1.016,-7.874));
#2077=CARTESIAN_POINT('',(1.5875,-1.016,-7.493));
#2078=VECTOR('',#2396,0.381);
#2079=CARTESIAN_POINT('',(3.175,-1.016,-7.874));
#2080=CARTESIAN_POINT('',(3.175,-1.016,-7.874));
#2081=VECTOR('',#2397,1.5875);
#2082=CARTESIAN_POINT('',(3.175,-1.016,-5.715));
#2083=VECTOR('',#2398,2.159);
#2084=CARTESIAN_POINT('',(-3.175,-1.016,-7.874));
#2085=CARTESIAN_POINT('',(-3.175,-1.016,-5.715));
#2086=VECTOR('',#2399,2.159);
#2087=CARTESIAN_POINT('',(-1.5875,-1.016,-7.874));
#2088=CARTESIAN_POINT('',(-1.5875,-1.016,-7.874));
#2089=VECTOR('',#2400,1.5875);
#2090=CARTESIAN_POINT('',(-1.5875,-1.016,-7.493));
#2091=CARTESIAN_POINT('',(-1.5875,-1.016,-7.493));
#2092=VECTOR('',#2401,0.381);
#2093=CARTESIAN_POINT('',(-1.5875,-1.016,-6.858));
#2094=VECTOR('',#2402,0.635);
#2095=CARTESIAN_POINT('',(-1.5875,-0.3302,2.921));
#2096=CARTESIAN_POINT('',(-1.5875,-0.3302,2.921));
#2097=VECTOR('',#2403,6.096);
#2098=CARTESIAN_POINT('',(-1.5875,0.3048,2.921));
#2099=CARTESIAN_POINT('',(-1.5875,0.3048,2.921));
#2100=VECTOR('',#2404,0.635);
#2101=CARTESIAN_POINT('',(-1.5875,0.3048,-3.175));
#2102=VECTOR('',#2405,6.096);
#2103=CARTESIAN_POINT('',(-1.5875,-6.223,-7.493));
#2104=CARTESIAN_POINT('',(-1.5875,-6.223,-7.493));
#2105=VECTOR('',#2406,5.207);
#2106=CARTESIAN_POINT('',(-1.5875,-6.223,-6.858));
#2107=CARTESIAN_POINT('',(-1.5875,-6.223,-6.858));
#2108=VECTOR('',#2407,0.635);
#2109=CARTESIAN_POINT('',(-1.5875,-1.016,-6.858));
#2110=VECTOR('',#2408,5.207);
#2111=CARTESIAN_POINT('',(-0.9525,0.3048,2.921));
#2112=CARTESIAN_POINT('',(-1.5875,0.3048,2.921));
#2113=VECTOR('',#2409,0.635);
#2114=CARTESIAN_POINT('',(-0.9525,0.3048,-3.175));
#2115=VECTOR('',#2410,6.096);
#2116=CARTESIAN_POINT('',(-0.9525,-0.3302,2.921));
#2117=CARTESIAN_POINT('',(-0.9525,0.3048,2.921));
#2118=VECTOR('',#2411,0.635);
#2119=CARTESIAN_POINT('',(-0.9525,-0.3302,2.921));
#2120=VECTOR('',#2412,6.096);
#2121=CARTESIAN_POINT('',(-0.9525,-6.223,-6.858));
#2122=CARTESIAN_POINT('',(-0.9525,-1.016,-6.858));
#2123=VECTOR('',#2413,5.207);
#2124=CARTESIAN_POINT('',(-0.9525,-6.223,-7.493));
#2125=CARTESIAN_POINT('',(-0.9525,-6.223,-6.858));
#2126=VECTOR('',#2414,0.635);
#2127=CARTESIAN_POINT('',(-0.9525,-6.223,-7.493));
#2128=VECTOR('',#2415,5.207);
#2129=CARTESIAN_POINT('',(-1.5875,-0.3302,2.921));
#2130=VECTOR('',#2416,0.635);
#2131=CARTESIAN_POINT('',(-1.5875,-0.9652,-7.493));
#2132=CARTESIAN_POINT('',(-1.5875,-1.016,-7.493));
#2133=VECTOR('',#2417,0.0508);
#2134=CARTESIAN_POINT('',(-0.9525,-0.9652,-7.493));
#2135=CARTESIAN_POINT('',(-1.5875,-0.9652,-7.493));
#2136=VECTOR('',#2418,0.635);
#2137=CARTESIAN_POINT('',(-0.9525,-1.016,-7.493));
#2138=VECTOR('',#2419,0.0508);
#2139=CARTESIAN_POINT('',(-1.5875,-6.223,-7.493));
#2140=VECTOR('',#2420,0.635);
#2141=CARTESIAN_POINT('',(-1.5875,-6.223,-6.858));
#2142=VECTOR('',#2421,0.635);
#2143=CARTESIAN_POINT('',(-0.9525,0.0508,-6.985));
#2144=AXIS2_PLACEMENT_3D('',#2422,#2423,#2424);
#2145=CARTESIAN_POINT('',(-0.9525,0.762,-6.985));
#2146=CARTESIAN_POINT('',(-0.9525,0.0508,-6.985));
#2147=VECTOR('',#2425,0.7112);
#2148=CARTESIAN_POINT('',(-0.9525,0.762,-7.874));
#2149=CARTESIAN_POINT('',(-0.9525,0.762,-6.985));
#2150=VECTOR('',#2426,0.889);
#2151=CARTESIAN_POINT('',(-0.9525,-1.016,-7.874));
#2152=VECTOR('',#2427,1.778);
#2153=CARTESIAN_POINT('',(1.5875,0.762,-7.874));
#2154=CARTESIAN_POINT('',(1.5875,-1.016,-7.874));
#2155=VECTOR('',#2428,1.778);
#2156=CARTESIAN_POINT('',(3.175,0.762,-7.874));
#2157=CARTESIAN_POINT('',(1.5875,0.762,-7.874));
#2158=VECTOR('',#2429,1.5875);
#2159=CARTESIAN_POINT('',(3.175,0.762,-7.874));
#2160=VECTOR('',#2430,1.778);
#2161=CARTESIAN_POINT('',(0.9525,0.762,-7.874));
#2162=CARTESIAN_POINT('',(-0.9525,0.762,-7.874));
#2163=VECTOR('',#2431,1.905);
#2164=CARTESIAN_POINT('',(0.9525,0.762,-7.874));
#2165=VECTOR('',#2432,1.778);
#2166=CARTESIAN_POINT('',(-3.175,0.762,-7.874));
#2167=CARTESIAN_POINT('',(-3.175,-1.016,-7.874));
#2168=VECTOR('',#2433,1.778);
#2169=CARTESIAN_POINT('',(-1.5875,0.762,-7.874));
#2170=CARTESIAN_POINT('',(-3.175,0.762,-7.874));
#2171=VECTOR('',#2434,1.5875);
#2172=CARTESIAN_POINT('',(-1.5875,0.762,-7.874));
#2173=VECTOR('',#2435,1.778);
#2174=CARTESIAN_POINT('',(3.175,1.524,-6.985));
#2175=CARTESIAN_POINT('',(3.175,1.524,-6.985));
#2176=VECTOR('',#2436,1.27);
#2177=CARTESIAN_POINT('',(3.175,0.762,-6.985));
#2178=CARTESIAN_POINT('',(3.175,0.762,-6.985));
#2179=VECTOR('',#2437,0.889);
#2180=CARTESIAN_POINT('',(3.175,0.762,-6.985));
#2181=VECTOR('',#2438,0.762);
#2182=CARTESIAN_POINT('',(-1.5875,0.0508,-6.985));
#2183=CARTESIAN_POINT('',(-1.5875,0.762,-6.985));
#2184=CARTESIAN_POINT('',(-1.5875,0.0508,-6.985));
#2185=VECTOR('',#2439,0.7112);
#2186=CARTESIAN_POINT('',(-3.175,0.762,-6.985));
#2187=CARTESIAN_POINT('',(-3.175,0.762,-6.985));
#2188=VECTOR('',#2440,1.5875);
#2189=CARTESIAN_POINT('',(-3.175,1.524,-6.985));
#2190=CARTESIAN_POINT('',(-3.175,0.762,-6.985));
#2191=VECTOR('',#2441,0.762);
#2192=CARTESIAN_POINT('',(-3.175,1.524,-6.985));
#2193=VECTOR('',#2442,6.35);
#2194=CARTESIAN_POINT('',(1.5875,0.762,-6.985));
#2195=CARTESIAN_POINT('',(3.175,0.762,-6.985));
#2196=VECTOR('',#2443,1.5875);
#2197=CARTESIAN_POINT('',(1.5875,0.0508,-6.985));
#2198=CARTESIAN_POINT('',(1.5875,0.0508,-6.985));
#2199=VECTOR('',#2444,0.7112);
#2200=CARTESIAN_POINT('',(0.9525,0.0508,-6.985));
#2201=CARTESIAN_POINT('',(0.9525,0.0508,-6.985));
#2202=VECTOR('',#2445,0.635);
#2203=CARTESIAN_POINT('',(0.9525,0.762,-6.985));
#2204=CARTESIAN_POINT('',(0.9525,0.0508,-6.985));
#2205=VECTOR('',#2446,0.7112);
#2206=CARTESIAN_POINT('',(-0.9525,0.762,-6.985));
#2207=VECTOR('',#2447,1.905);
#2208=CARTESIAN_POINT('',(-1.5875,0.0508,-6.985));
#2209=VECTOR('',#2448,0.635);
#2210=AXIS2_PLACEMENT_3D('',#2449,#2450,#2451);
#2211=CARTESIAN_POINT('',(-1.5875,0.762,-6.985));
#2212=VECTOR('',#2452,0.889);
#2213=CARTESIAN_POINT('',(-3.175,0.762,-6.985));
#2214=VECTOR('',#2453,0.889);
#2215=CARTESIAN_POINT('',(-3.175,1.524,-6.985));
#2216=VECTOR('',#2454,1.27);
#2217=CARTESIAN_POINT('',(0.9525,0.762,-6.985));
#2218=VECTOR('',#2455,0.889);
#2219=CARTESIAN_POINT('',(0.9525,-0.9652,-7.493));
#2220=AXIS2_PLACEMENT_3D('',#2456,#2457,#2458);
#2221=CARTESIAN_POINT('',(0.9525,-1.016,-7.493));
#2222=VECTOR('',#2459,0.0508);
#2223=CARTESIAN_POINT('',(0.9525,-6.223,-7.493));
#2224=VECTOR('',#2460,0.635);
#2225=CARTESIAN_POINT('',(1.5875,-0.9652,-7.493));
#2226=CARTESIAN_POINT('',(0.9525,-0.9652,-7.493));
#2227=VECTOR('',#2461,0.635);
#2228=CARTESIAN_POINT('',(1.5875,-1.016,-7.493));
#2229=VECTOR('',#2462,0.0508);
#2230=AXIS2_PLACEMENT_3D('',#2463,#2464,#2465);
#2231=CARTESIAN_POINT('',(1.5875,0.762,-6.985));
#2232=VECTOR('',#2466,0.889);
#2233=CARTESIAN_POINT('',(0.9525,-6.223,-6.858));
#2234=VECTOR('',#2467,0.635);
#2235=CARTESIAN_POINT('',(2.286,4.064,3.429));
#2236=VECTOR('',#2468,1.143);
#2237=CARTESIAN_POINT('',(1.27,4.064,4.445));
#2238=VECTOR('',#2469,1.143);
#2239=DIRECTION('',(0.0,-1.0,0.0));
#2240=DIRECTION('',(1.0,0.0,0.0));
#2241=DIRECTION('',(0.0,1.0,0.0));
#2242=DIRECTION('',(1.0,0.0,0.0));
#2243=DIRECTION('',(0.707106781186548,0.707106781186548,0.0));
#2244=DIRECTION('',(0.707106781186548,-0.707106781186548,0.0));
#2245=DIRECTION('',(1.0,0.0,0.0));
#2246=DIRECTION('',(0.707106781186548,0.707106781186548,0.0));
#2247=DIRECTION('',(0.707106781186548,-0.707106781186548,0.0));
#2248=DIRECTION('',(1.0,0.0,0.0));
#2249=DIRECTION('',(1.0,0.0,0.0));
#2250=DIRECTION('',(0.0,1.0,0.0));
#2251=DIRECTION('',(1.0,0.0,0.0));
#2252=DIRECTION('',(0.0,1.0,0.0));
#2253=DIRECTION('',(1.0,0.0,0.0));
#2254=DIRECTION('',(0.0,0.0,-1.0));
#2255=DIRECTION('',(1.0,0.0,0.0));
#2256=DIRECTION('',(0.0,0.0,-1.0));
#2257=DIRECTION('',(1.0,0.0,0.0));
#2258=DIRECTION('',(0.0,0.0,1.0));
#2259=DIRECTION('',(0.0,0.0,1.0));
#2260=DIRECTION('',(0.0,0.0,1.0));
#2261=DIRECTION('',(1.0,0.0,0.0));
#2262=DIRECTION('',(0.0,0.0,1.0));
#2263=DIRECTION('',(1.0,0.0,0.0));
#2264=DIRECTION('',(0.0,0.0,1.0));
#2265=DIRECTION('',(0.0,0.0,1.0));
#2266=DIRECTION('',(0.0,0.0,1.0));
#2267=DIRECTION('',(0.707106781186548,-0.707106781186548,0.0));
#2268=DIRECTION('',(0.0,1.0,0.0));
#2269=DIRECTION('',(-1.0,0.0,0.0));
#2270=DIRECTION('',(0.0,1.0,0.0));
#2271=DIRECTION('',(1.0,0.0,0.0));
#2272=DIRECTION('',(0.0,-1.0,0.0));
#2273=DIRECTION('',(-1.0,0.0,0.0));
#2274=DIRECTION('',(0.0,1.0,0.0));
#2275=DIRECTION('',(0.707106781186548,0.707106781186548,0.0));
#2276=DIRECTION('',(0.0,1.0,0.0));
#2277=DIRECTION('',(-1.0,0.0,0.0));
#2278=DIRECTION('',(0.0,-1.0,0.0));
#2279=DIRECTION('',(0.707106781186548,-0.707106781186548,0.0));
#2280=DIRECTION('',(0.707106781186548,0.707106781186548,0.0));
#2281=DIRECTION('',(0.0,0.0,1.0));
#2282=DIRECTION('',(0.0,0.0,1.0));
#2283=DIRECTION('',(0.0,0.0,1.0));
#2284=DIRECTION('',(0.0,-1.0,0.0));
#2285=DIRECTION('',(1.0,0.0,0.0));
#2286=DIRECTION('',(0.0,1.0,0.0));
#2287=DIRECTION('',(-1.0,0.0,0.0));
#2288=DIRECTION('',(-1.0,0.0,0.0));
#2289=DIRECTION('',(0.0,-1.0,0.0));
#2290=DIRECTION('',(-1.0,0.0,0.0));
#2291=DIRECTION('',(0.0,-1.0,0.0));
#2292=DIRECTION('',(-1.0,0.0,0.0));
#2293=DIRECTION('',(0.0,1.0,0.0));
#2294=DIRECTION('',(1.0,0.0,0.0));
#2295=DIRECTION('',(0.0,-1.0,0.0));
#2296=DIRECTION('',(0.0,-1.0,0.0));
#2297=DIRECTION('',(0.0,0.0,1.0));
#2298=DIRECTION('',(0.0,0.0,1.0));
#2299=DIRECTION('',(0.0,0.0,1.0));
#2300=DIRECTION('',(0.0,0.0,1.0));
#2301=CARTESIAN_POINT('',(1.27,4.064,3.429));
#2302=DIRECTION('',(0.0,1.0,0.0));
#2303=DIRECTION('',(0.0,0.0,1.0));
#2304=DIRECTION('',(1.0,0.0,0.0));
#2305=CARTESIAN_POINT('',(-1.27,4.064,3.429));
#2306=DIRECTION('',(0.0,1.0,0.0));
#2307=DIRECTION('',(-1.0,0.0,0.0));
#2308=DIRECTION('',(0.0,-1.0,0.0));
#2309=CARTESIAN_POINT('',(-1.27,2.921,3.429));
#2310=DIRECTION('',(0.0,1.0,0.0));
#2311=DIRECTION('',(-1.0,0.0,0.0));
#2312=DIRECTION('',(1.0,0.0,0.0));
#2313=CARTESIAN_POINT('',(1.27,2.921,3.429));
#2314=DIRECTION('',(0.0,1.0,0.0));
#2315=DIRECTION('',(0.0,0.0,1.0));
#2316=DIRECTION('',(0.0,0.0,1.0));
#2317=DIRECTION('',(0.0,0.0,1.0));
#2318=DIRECTION('',(1.0,0.0,0.0));
#2319=DIRECTION('',(0.0,0.0,1.0));
#2320=DIRECTION('',(0.0,1.0,0.0));
#2321=DIRECTION('',(0.0,0.0,-1.0));
#2322=DIRECTION('',(0.0,-1.0,0.0));
#2323=DIRECTION('',(0.0,0.0,-1.0));
#2324=DIRECTION('',(0.0,-0.707106781186547,-0.707106781186547));
#2325=DIRECTION('',(0.0,1.0,0.0));
#2326=DIRECTION('',(1.0,0.0,0.0));
#2327=DIRECTION('',(0.0,-1.0,0.0));
#2328=DIRECTION('',(1.0,0.0,0.0));
#2329=DIRECTION('',(0.0,-1.0,0.0));
#2330=DIRECTION('',(1.0,0.0,0.0));
#2331=DIRECTION('',(1.0,0.0,0.0));
#2332=DIRECTION('',(0.0,-1.0,0.0));
#2333=DIRECTION('',(0.0,-1.0,0.0));
#2334=DIRECTION('',(0.0,0.0,1.0));
#2335=DIRECTION('',(0.0,-0.707106781186547,-0.707106781186547));
#2336=DIRECTION('',(0.0,0.0,-1.0));
#2337=DIRECTION('',(0.0,0.0,1.0));
#2338=DIRECTION('',(0.0,0.0,-1.0));
#2339=DIRECTION('',(-1.0,0.0,0.0));
#2340=DIRECTION('',(0.0,1.0,0.0));
#2341=DIRECTION('',(-1.0,0.0,0.0));
#2342=DIRECTION('',(0.0,-1.0,0.0));
#2343=DIRECTION('',(-1.0,0.0,0.0));
#2344=DIRECTION('',(1.0,0.0,0.0));
#2345=DIRECTION('',(0.0,-1.0,0.0));
#2346=DIRECTION('',(0.0,1.0,0.0));
#2347=DIRECTION('',(1.0,0.0,0.0));
#2348=DIRECTION('',(1.0,0.0,0.0));
#2349=DIRECTION('',(0.0,1.0,0.0));
#2350=DIRECTION('',(1.0,0.0,0.0));
#2351=DIRECTION('',(0.0,1.0,0.0));
#2352=DIRECTION('',(1.0,0.0,0.0));
#2353=DIRECTION('',(0.0,1.0,0.0));
#2354=DIRECTION('',(1.0,0.0,0.0));
#2355=DIRECTION('',(0.0,1.0,0.0));
#2356=DIRECTION('',(-1.0,0.0,0.0));
#2357=DIRECTION('',(0.0,0.0,-1.0));
#2358=DIRECTION('',(-1.0,0.0,0.0));
#2359=DIRECTION('',(0.0,0.0,-1.0));
#2360=DIRECTION('',(0.0,0.0,-1.0));
#2361=DIRECTION('',(0.0,0.707106781186547,-0.707106781186547));
#2362=DIRECTION('',(0.577350269189626,0.577350269189626,-0.577350269189626));
#2363=DIRECTION('',(-0.577350269189626,0.577350269189626,-0.577350269189626));
#2364=DIRECTION('',(0.0,0.707106781186547,-0.707106781186547));
#2365=DIRECTION('',(0.577350269189626,-0.577350269189626,-0.577350269189626));
#2366=DIRECTION('',(-0.577350269189626,-0.577350269189626,-0.577350269189626));
#2367=DIRECTION('',(0.0,-1.0,0.0));
#2368=DIRECTION('',(0.0,-0.707106781186547,-0.707106781186547));
#2369=DIRECTION('',(0.0,0.0,-1.0));
#2370=DIRECTION('',(1.0,0.0,0.0));
#2371=DIRECTION('',(1.0,0.0,0.0));
#2372=DIRECTION('',(0.0,0.0,1.0));
#2373=DIRECTION('',(0.0,-0.707106781186547,-0.707106781186547));
#2374=DIRECTION('',(0.0,-1.0,0.0));
#2375=DIRECTION('',(0.0,0.0,1.0));
#2376=DIRECTION('',(0.0,0.0,-1.0));
#2377=DIRECTION('',(0.0,1.0,0.0));
#2378=DIRECTION('',(0.0,0.0,-1.0));
#2379=DIRECTION('',(0.0,-1.0,0.0));
#2380=DIRECTION('',(0.0,0.0,-1.0));
#2381=DIRECTION('',(0.0,0.0,-1.0));
#2382=DIRECTION('',(1.0,0.0,0.0));
#2383=DIRECTION('',(0.0,-1.0,0.0));
#2384=DIRECTION('',(1.0,0.0,0.0));
#2385=DIRECTION('',(0.0,0.0,1.0));
#2386=DIRECTION('',(0.0,-1.0,0.0));
#2387=DIRECTION('',(0.0,0.0,-1.0));
#2388=DIRECTION('',(0.0,1.0,0.0));
#2389=DIRECTION('',(0.0,0.0,-1.0));
#2390=DIRECTION('',(1.0,0.0,0.0));
#2391=DIRECTION('',(0.0,0.0,-1.0));
#2392=DIRECTION('',(0.0,0.0,-1.0));
#2393=DIRECTION('',(-1.0,0.0,0.0));
#2394=DIRECTION('',(0.0,0.0,-1.0));
#2395=DIRECTION('',(1.0,0.0,0.0));
#2396=DIRECTION('',(0.0,0.0,-1.0));
#2397=DIRECTION('',(-1.0,0.0,0.0));
#2398=DIRECTION('',(0.0,0.0,-1.0));
#2399=DIRECTION('',(0.0,0.0,-1.0));
#2400=DIRECTION('',(-1.0,0.0,0.0));
#2401=DIRECTION('',(0.0,0.0,-1.0));
#2402=DIRECTION('',(0.0,0.0,-1.0));
#2403=DIRECTION('',(0.0,0.0,-1.0));
#2404=DIRECTION('',(0.0,-1.0,0.0));
#2405=DIRECTION('',(0.0,0.0,1.0));
#2406=DIRECTION('',(0.0,1.0,0.0));
#2407=DIRECTION('',(0.0,0.0,-1.0));
#2408=DIRECTION('',(0.0,-1.0,0.0));
#2409=DIRECTION('',(1.0,0.0,0.0));
#2410=DIRECTION('',(0.0,0.0,1.0));
#2411=DIRECTION('',(0.0,-1.0,0.0));
#2412=DIRECTION('',(0.0,0.0,-1.0));
#2413=DIRECTION('',(0.0,-1.0,0.0));
#2414=DIRECTION('',(0.0,0.0,-1.0));
#2415=DIRECTION('',(0.0,1.0,0.0));
#2416=DIRECTION('',(1.0,0.0,0.0));
#2417=DIRECTION('',(0.0,1.0,2.775557561563E-14));
#2418=DIRECTION('',(1.0,0.0,0.0));
#2419=DIRECTION('',(0.0,1.0,2.775557561563E-14));
#2420=DIRECTION('',(1.0,0.0,0.0));
#2421=DIRECTION('',(1.0,0.0,0.0));
#2422=CARTESIAN_POINT('',(-0.9525,-0.9652,-6.223));
#2423=DIRECTION('',(1.0,0.0,0.0));
#2424=DIRECTION('',(0.0,0.0,-1.0));
#2425=DIRECTION('',(0.0,1.0,0.0));
#2426=DIRECTION('',(0.0,0.0,-1.0));
#2427=DIRECTION('',(0.0,1.0,0.0));
#2428=DIRECTION('',(0.0,1.0,0.0));
#2429=DIRECTION('',(1.0,0.0,0.0));
#2430=DIRECTION('',(0.0,-1.0,0.0));
#2431=DIRECTION('',(1.0,0.0,0.0));
#2432=DIRECTION('',(0.0,-1.0,0.0));
#2433=DIRECTION('',(0.0,1.0,0.0));
#2434=DIRECTION('',(1.0,0.0,0.0));
#2435=DIRECTION('',(0.0,-1.0,0.0));
#2436=DIRECTION('',(0.0,0.0,1.0));
#2437=DIRECTION('',(0.0,0.0,-1.0));
#2438=DIRECTION('',(0.0,1.0,0.0));
#2439=DIRECTION('',(0.0,1.0,0.0));
#2440=DIRECTION('',(1.0,0.0,0.0));
#2441=DIRECTION('',(0.0,1.0,0.0));
#2442=DIRECTION('',(1.0,0.0,0.0));
#2443=DIRECTION('',(-1.0,0.0,0.0));
#2444=DIRECTION('',(0.0,1.0,0.0));
#2445=DIRECTION('',(1.0,0.0,0.0));
#2446=DIRECTION('',(0.0,1.0,0.0));
#2447=DIRECTION('',(1.0,0.0,0.0));
#2448=DIRECTION('',(1.0,0.0,0.0));
#2449=CARTESIAN_POINT('',(-1.5875,-0.9652,-6.223));
#2450=DIRECTION('',(1.0,0.0,0.0));
#2451=DIRECTION('',(0.0,0.0,-1.0));
#2452=DIRECTION('',(0.0,0.0,-1.0));
#2453=DIRECTION('',(0.0,0.0,-1.0));
#2454=DIRECTION('',(0.0,0.0,1.0));
#2455=DIRECTION('',(0.0,0.0,-1.0));
#2456=CARTESIAN_POINT('',(0.9525,-0.9652,-6.223));
#2457=DIRECTION('',(1.0,0.0,0.0));
#2458=DIRECTION('',(0.0,0.0,-1.0));
#2459=DIRECTION('',(0.0,1.0,2.775557561563E-14));
#2460=DIRECTION('',(1.0,0.0,0.0));
#2461=DIRECTION('',(1.0,0.0,0.0));
#2462=DIRECTION('',(0.0,1.0,2.775557561563E-14));
#2463=CARTESIAN_POINT('',(1.5875,-0.9652,-6.223));
#2464=DIRECTION('',(1.0,0.0,0.0));
#2465=DIRECTION('',(0.0,0.0,-1.0));
#2466=DIRECTION('',(0.0,0.0,-1.0));
#2467=DIRECTION('',(1.0,0.0,0.0));
#2468=DIRECTION('',(0.0,-1.0,0.0));
#2469=DIRECTION('',(0.0,-1.0,0.0));
ENDSEC;
END-ISO-10303-21;
