M48
;Layer_Color=9474304
;FILE_FORMAT=2:5
INCH
;TYPE=PLATED
T01F00S00C0.00800
T02F00S00C0.01181
T04F00S00C0.04016
%
T01
X0448604Y0079807
X0451163
Y0082709
X0448604
Y0085811
X0451163
X0456281
X0458840
Y0082709
X0456281
Y0079807
X0458840
T02
X0032283Y0144228
Y0150728
X0025784
X0038783
X0123622Y0151575
Y0155905
X0187402Y0079134
X0197638Y0081102
X0197638Y0076142
Y0087142
X0190138Y0069142
Y0066142
Y0062642
X0191138Y0055642
X0197638
Y0049142
X0204138Y0055642
X0207874Y0062992
X0208661Y0067716
X0349606Y0121260
X0354331Y0127559
X0338189Y0135827
X0333465Y0137402
X0338583Y0150787
X0328740Y0153150
X0369685Y0152953
X0385827Y0155512
X0398819Y0143898
X0411811Y0146063
X0422289Y0150891
X0419295Y0154766
X0427165Y0146063
X0439764
X0447280Y0146421
X0446063Y0150787
X0440945Y0154331
X0460236Y0130315
X0466929Y0128740
X0467127Y0107481
X0465749Y0104725
X0468505
X0467127Y0101969
X0465749Y0099213
X0468505
X0451181Y0099213
X0446457
X0444095Y0103937
X0448819
X0453543
X0451181Y0108661
X0446457
X0441732
X0437008
X0434646Y0103937
X0439370
X0437008Y0099213
X0432283
X0427559
X0425197Y0094488
X0429921
X0428544Y0085433
X0425788
X0424410Y0082677
X0427166
X0429922
X0431300Y0079921
X0434056
X0432678Y0077166
X0435434
X0429922
X0427166
X0424410
X0425788Y0079921
X0428544
X0427559Y0070866
X0432283
X0429921Y0066142
X0434646
X0439370
X0444095
X0448819
X0453543
X0458268
X0462992
X0467717
X0465354Y0070866
X0460630
X0455906
X0451181
X0446457
X0458268Y0075591
X0462992
X0467717
X0442323Y0085433
X0439568
X0420472Y0085039
Y0075591
X0422835Y0070866
X0470079
X0474803
X0479528
X0477165Y0075591
X0472441
Y0066142
X0477165
X0486614Y0075591
X0491339
X0496063
X0500787
X0505512
X0510236
X0512599Y0080315
X0507874
X0497244Y0085827
X0496850Y0091339
Y0101181
X0492876Y0107480
X0488189Y0108268
X0485039Y0107087
X0483465Y0111811
X0480010Y0115050
X0481102Y0119217
X0476378Y0119685
Y0125197
Y0130315
X0479528Y0108661
X0472639Y0107481
X0469883
X0471261Y0104725
X0474017
X0475394Y0101969
X0472639
X0469883
X0471261Y0099213
X0474017
X0476772
X0478150Y0096457
X0475394
X0476772Y0093701
X0479528
Y0088189
X0482523Y0098838
X0489764Y0114961
X0509872Y0096091
X0514961Y0090551
X0522872Y0096091
X0524016Y0106299
X0532677
Y0084646
X0524016
X0529528Y0158268
X0527165Y0166929
X0523622Y0165354
X0520079Y0172441
X0506693Y0174803
X0502362Y0176772
X0498032Y0177165
X0493701Y0181102
X0483858Y0174803
X0481102Y0177559
X0478346Y0179528
X0475984Y0181890
X0477559Y0196457
X0484646Y0196063
X0483858Y0191732
X0490945Y0200000
X0493307Y0212205
X0489370Y0220866
X0475591Y0220472
X0479921Y0212205
X0502756Y0219685
X0528346Y0215748
X0529921Y0223228
X0540551Y0204331
X0529134Y0189764
X0511888Y0181026
X0505512Y0187008
X0503937Y0159055
X0507480
X0441515Y0167668
X0435636Y0164851
X0444882Y0174409
X0444044Y0182760
X0441644Y0180371
X0436614Y0184646
X0439370Y0187795
X0450000Y0190551
X0454724Y0191732
X0464567Y0192913
X0461811Y0214961
X0400000Y0196850
X0394987Y0197045
X0395276Y0173622
X0406110Y0171909
X0407087Y0166929
X0409449Y0162205
X0413306Y0156823
X0390902Y0159002
Y0161502
X0385827Y0164567
X0382739Y0172835
X0369685Y0165748
X0359972Y0163585
X0357414Y0197296
X0352247Y0196945
X0314173Y0198303
X0320472Y0156693
X0308276Y0197472
X0164173Y0164961
Y0161417
X0126137Y0168351
X0032283Y0171228
X0031956Y0181577
X0024783Y0164228
Y0161228
Y0157728
T04
X0248031Y0057087
Y0066929
X0262205Y0122047
X0255512Y0133465
X0311024Y0145669
X0328740Y0102362
X0338583
X0348425
X0358268
X0368110
X0377953
X0432677Y0110630
X0437008Y0059055
X0427165
X0446850
X0456693
X0466535
X0476378
X0494095Y0066929
X0503937
X0513779
X0500000Y0114173
X0474409Y0114567
X0414173Y0173228
X0455905Y0217717
X0293307Y0188976
M30
