M48
;Layer_Color=9474304
;FILE_FORMAT=2:5
INCH
;TYPE=PLATED
T01F00S00C0.00800
T02F00S00C0.01181
T03F00S00C0.01575
T05F00S00C0.04016
%
T01
X0448604Y0079807
X0451163
Y0082709
X0448604
Y0085811
X0451163
X0456281
X0458840
Y0082709
X0456281
Y0079807
X0458840
T02
X0022835Y0151969
X0032283Y0150728
X0038783
X0118110Y0151181
X0120473Y0155905
Y0146457
X0118110Y0141732
X0122835
X0127559Y0144488
X0127925Y0148819
X0135061Y0150215
X0133710Y0154721
X0129921Y0137008
X0153150Y0137795
X0151181Y0132283
X0155905
X0162992Y0137008
X0167717
X0172441
X0177165
X0181890
X0186614
X0191339
X0196063
X0200787
X0205512
X0210236
X0214961
X0219685
X0224410
X0229134
X0233858
X0231496Y0132283
X0236221
X0240945
X0250394
X0252756Y0137008
X0248031
X0262002Y0132092
X0267717Y0132677
X0268898Y0137795
X0279921Y0140157
X0281496Y0146063
Y0150394
X0276378Y0127559
X0269291Y0122835
X0263577Y0120281
X0261609Y0124612
X0240945Y0122835
X0236221
Y0113386
X0245669
X0243307Y0118110
X0226772Y0122835
X0222047
Y0132283
X0226772
X0217323
X0212598
X0207874
X0203150
X0198425
X0193701
X0188976
X0184252
X0179528
X0174803
X0170079
Y0141732
X0165354
X0160630
X0187402Y0079134
X0197638Y0081102
X0197638Y0076142
Y0087142
X0190138Y0069142
Y0066142
X0182618Y0063090
X0187402Y0056299
X0197638Y0055642
X0201181Y0055512
X0207874Y0062992
X0208661Y0067716
X0231496Y0064173
X0239764Y0075590
X0252756Y0099213
X0257480
X0338976Y0119291
X0376422Y0123406
X0381102Y0140157
X0368110Y0138976
X0363779Y0155118
X0396063Y0154331
Y0150394
X0392520Y0150787
X0391732Y0147638
X0399213Y0155905
X0402555Y0137209
X0400000Y0129921
X0395669Y0132283
X0397638Y0116142
X0410630Y0127953
X0417323Y0127165
X0427165Y0130315
X0431102Y0134252
X0445232Y0135827
X0450000Y0140595
X0448683Y0147306
X0446457Y0151181
X0439764Y0146063
X0430315Y0154921
X0443701Y0120472
X0447638Y0122559
X0446457Y0108661
X0441732
X0437008
X0434646Y0103937
X0439370
X0444095
X0448819
X0453543
X0451181Y0108661
Y0099213
X0446457
X0437008
X0432283
X0427559
X0425197Y0094488
X0429921
X0428544Y0085433
X0425788
X0424410Y0082677
X0427166
X0429922
X0431300Y0079921
X0428544
X0425788
X0424410Y0077166
X0427166
X0429922
X0432678
X0435434
X0434056Y0079921
X0432283Y0070866
X0427559
X0422835
X0420472Y0075591
Y0085039
X0439568Y0085433
X0442323
X0446457Y0070866
X0451181
X0455906
X0460630
X0465354
X0462992Y0075591
X0467717
Y0066142
X0462992
X0458268
X0453543
X0448819
X0444095
X0439370
X0434646
X0429921
X0458268Y0075591
X0465749Y0099213
X0468505
X0467127Y0101969
X0465749Y0104725
X0468505
X0467127Y0107481
X0462205Y0116339
X0460236Y0130315
X0466579Y0129090
X0354724Y0072835
X0470079Y0070866
X0474803
X0479528
X0477165Y0075591
X0472441
Y0066142
X0477165
X0486614Y0075591
X0491339
X0496063
X0500787
X0505512
X0510236
X0512599Y0080315
X0507874
X0497244Y0085827
X0496850Y0091339
Y0101181
X0492876Y0107480
X0488189Y0108268
X0485039Y0107087
X0483465Y0111811
X0480010Y0115050
X0481102Y0119217
X0472047Y0119291
X0475984Y0126772
X0472441Y0138583
X0488189Y0133071
X0493701Y0142126
X0498032Y0140157
X0500787Y0137795
X0503937Y0118898
X0489764Y0114961
X0479528Y0108661
X0472639Y0107481
X0469883
X0471261Y0104725
X0474017
X0475394Y0101969
X0472639
X0469883
X0471261Y0099213
X0474017
X0476772
X0478150Y0096457
X0475394
X0476772Y0093701
X0479528
Y0088189
X0482523Y0098838
X0509872Y0096091
X0514961Y0090551
X0522872Y0096091
X0524016Y0106299
X0532677
Y0084646
X0524016
X0529528Y0158268
X0523228Y0163386
Y0167716
X0520079Y0172441
X0514961Y0174803
X0507087Y0183465
X0505512Y0187008
X0505905Y0202362
X0509449Y0210236
X0502756Y0219685
X0489370Y0220866
X0493307Y0212205
X0479921
X0475591Y0220472
X0477559Y0196457
X0484646Y0196063
X0483858Y0191732
X0490945Y0200000
X0498032Y0177165
X0483858Y0174803
X0481102Y0177559
X0478346Y0179528
X0475197Y0183465
X0470866Y0168898
X0503937Y0159055
X0507480
X0518504Y0194488
X0529134Y0189764
X0528740Y0212992
X0529921Y0223228
X0540551Y0204331
X0464567Y0192913
X0455512Y0188976
X0450000Y0190551
Y0179528
X0444044Y0182760
X0441644Y0180371
X0436614Y0184646
X0439370Y0187795
X0440158Y0202362
X0461811Y0214961
X0457480Y0171653
X0457677Y0161505
X0461417
X0457480Y0157087
X0452756Y0159449
X0422564Y0159326
X0415748Y0157480
X0407874Y0162205
X0402360Y0161021
X0381102Y0171653
X0375590
X0360239Y0173822
X0354331Y0168898
X0352362Y0165354
X0350394Y0162205
X0350787Y0156299
X0389764Y0200000
X0394882
X0403150Y0203150
X0169291Y0181496
X0164869Y0180013
X0160798Y0178179
X0156299Y0175591
X0151575Y0174016
X0147638Y0173228
X0142520Y0177165
X0130709Y0173228
X0129528Y0170472
X0126378Y0170866
Y0158661
X0118898Y0189764
X0123622Y0200787
X0031956Y0181577
X0032283Y0171228
X0024783Y0164228
Y0161228
X0021654Y0159843
T03
X0370079Y0129921
X0391732Y0135039
X0340551Y0165354
X0337795Y0172047
T05
X0248031Y0057087
Y0066929
X0279528Y0098425
X0289370
X0299213
Y0124016
X0309055
X0289370
Y0114173
X0432677Y0110630
X0421654Y0138189
X0427165Y0059055
X0437008
X0446850
X0456693
X0466535
X0476378
X0494095Y0066929
X0503937
X0513779
X0500000Y0114173
X0474409Y0114567
X0455905Y0217717
X0238583Y0198031
X0228740
X0218898
M30
