G04*
G04 #@! TF.GenerationSoftware,Altium Limited,Altium Designer,26.4.1 (12)*
G04*
G04 Layer_Color=65535*
%FSLAX25Y25*%
%MOIN*%
G70*
G04*
G04 #@! TF.SameCoordinates,D180CEDE-3ABA-455E-BC30-8FC1567E7F68*
G04*
G04*
G04 #@! TF.FilePolarity,Positive*
G04*
G01*
G75*
%ADD10C,0.00984*%
%ADD11C,0.02000*%
%ADD12C,0.01000*%
%ADD13C,0.00787*%
%ADD14C,0.00600*%
%ADD15C,0.00500*%
%ADD16C,0.01181*%
%ADD17C,0.00591*%
%ADD18C,0.00394*%
%ADD19C,0.00602*%
%ADD20C,0.00300*%
G36*
X27150Y165128D02*
Y163628D01*
X26150D01*
Y165128D01*
X27150D01*
D02*
G37*
G36*
X133414Y155581D02*
X132353Y156642D01*
X131646Y155935D01*
X132707Y154874D01*
X133414Y155581D01*
D02*
G37*
G36*
X192504Y70041D02*
Y68541D01*
X191504D01*
Y70041D01*
X192504D01*
D02*
G37*
G36*
X150110Y153301D02*
X150817Y152594D01*
X149757Y151533D01*
X149050Y152240D01*
X150110Y153301D01*
D02*
G37*
G36*
X148997Y168936D02*
X147936Y169997D01*
X148643Y170704D01*
X149704Y169643D01*
X148997Y168936D01*
D02*
G37*
G36*
X350127Y70472D02*
X345669D01*
Y79399D01*
X350127D01*
Y70472D01*
D02*
G37*
G36*
X405921Y200797D02*
X399609Y194485D01*
X396457Y197638D01*
X402769Y203950D01*
X405921Y200797D01*
D02*
G37*
G36*
X398121Y200871D02*
X391735Y194485D01*
X388583Y197638D01*
X394968Y204023D01*
X398121Y200871D01*
D02*
G37*
G36*
X390142Y201160D02*
X383861Y194879D01*
X380709Y198031D01*
X386989Y204312D01*
X390142Y201160D01*
D02*
G37*
G36*
X358011Y70059D02*
X351575D01*
Y74410D01*
X358011D01*
Y70059D01*
D02*
G37*
G36*
X344357D02*
X338189D01*
Y74410D01*
X344357D01*
Y70059D01*
D02*
G37*
G36*
X240153Y205108D02*
X233861Y198816D01*
X230709Y201969D01*
X237000Y208260D01*
X240153Y205108D01*
D02*
G37*
G36*
X229265Y206032D02*
X222837Y199604D01*
X219685Y202756D01*
X226113Y209184D01*
X229265Y206032D01*
D02*
G37*
G36*
X301110Y90531D02*
X297638D01*
Y94882D01*
X301110D01*
Y90531D01*
D02*
G37*
G36*
X291087D02*
X287795D01*
Y94882D01*
X291087D01*
Y90531D01*
D02*
G37*
G36*
X281287D02*
X277559D01*
Y94882D01*
X281287D01*
Y90531D01*
D02*
G37*
G36*
X261260Y54597D02*
X252362D01*
Y59055D01*
X261260D01*
Y54597D01*
D02*
G37*
G36*
X261453Y64440D02*
X252362D01*
Y68898D01*
X261453D01*
Y64440D01*
D02*
G37*
G36*
X448690Y50660D02*
X439764D01*
Y55118D01*
X448690D01*
Y50660D01*
D02*
G37*
G36*
X480142D02*
X471260D01*
Y55118D01*
X480142D01*
Y50660D01*
D02*
G37*
G36*
X484536Y112578D02*
X478346D01*
Y116929D01*
X484536D01*
Y112578D01*
D02*
G37*
G36*
X516847Y58534D02*
X505118D01*
Y62992D01*
X516847D01*
Y58534D01*
D02*
G37*
G36*
X428775Y108534D02*
X422835D01*
Y112992D01*
X428775D01*
Y108534D01*
D02*
G37*
G36*
X512787Y112185D02*
X503937D01*
Y116535D01*
X512787D01*
Y112185D01*
D02*
G37*
%LPC*%
G36*
X349483Y78808D02*
X347900D01*
X347758Y78805D01*
X347625Y78795D01*
X347502Y78780D01*
X347388Y78764D01*
X347281Y78739D01*
X347186Y78716D01*
X347097Y78688D01*
X347018Y78663D01*
X346949Y78634D01*
X346885Y78606D01*
X346835Y78584D01*
X346794Y78562D01*
X346759Y78543D01*
X346737Y78527D01*
X346721Y78517D01*
X346718Y78514D01*
X346645Y78457D01*
X346585Y78391D01*
X346532Y78325D01*
X346484Y78252D01*
X346446Y78176D01*
X346411Y78100D01*
X346386Y78028D01*
X346364Y77955D01*
X346348Y77885D01*
X346336Y77822D01*
X346326Y77765D01*
X346320Y77715D01*
X346317Y77671D01*
X346314Y77642D01*
Y78808D01*
D01*
D01*
Y76669D01*
X349483D01*
Y77614D01*
X349480Y77724D01*
X349467Y77829D01*
X349445Y77923D01*
X349420Y78012D01*
X349391Y78094D01*
X349357Y78167D01*
X349319Y78233D01*
X349281Y78293D01*
X349246Y78344D01*
X349208Y78391D01*
X349173Y78429D01*
X349145Y78461D01*
X349120Y78483D01*
X349097Y78502D01*
X349085Y78511D01*
X349082Y78514D01*
X349003Y78565D01*
X348914Y78612D01*
X348823Y78650D01*
X348728Y78685D01*
X348630Y78713D01*
X348529Y78736D01*
X348434Y78754D01*
X348339Y78770D01*
X348251Y78783D01*
X348168Y78792D01*
X348093Y78799D01*
X348026Y78805D01*
X347998D01*
X347976D01*
X347954Y78808D01*
X349483D01*
D02*
G37*
G36*
Y75971D02*
X346314D01*
Y73901D01*
X349483D01*
Y74555D01*
Y74346D01*
X347047D01*
Y74387D01*
X349483Y75316D01*
Y75971D01*
D02*
G37*
G36*
Y73265D02*
X346260D01*
Y71063D01*
Y72226D01*
X346263Y72118D01*
X346279Y72017D01*
X346301Y71926D01*
X346326Y71840D01*
X346361Y71761D01*
X346396Y71689D01*
X346434Y71622D01*
X346475Y71565D01*
X346516Y71515D01*
X346554Y71471D01*
X346588Y71433D01*
X346623Y71401D01*
X346649Y71379D01*
X346671Y71360D01*
X346683Y71351D01*
X346690Y71347D01*
X346775Y71297D01*
X346863Y71253D01*
X346961Y71215D01*
X347062Y71183D01*
X347164Y71155D01*
X347268Y71132D01*
X347369Y71114D01*
X347467Y71098D01*
X347559Y71088D01*
X347644Y71079D01*
X347723Y71073D01*
X347789Y71066D01*
X347818D01*
X347846D01*
X347868Y71063D01*
X346260D01*
X347922D01*
X348061Y71066D01*
X348194Y71073D01*
X348317Y71085D01*
X348434Y71101D01*
X348541Y71120D01*
X348639Y71142D01*
X348728Y71164D01*
X348807Y71189D01*
X348880Y71211D01*
X348943Y71234D01*
X348993Y71256D01*
X349038Y71275D01*
X349072Y71290D01*
X349097Y71303D01*
X349110Y71310D01*
X349116Y71313D01*
X349189Y71363D01*
X349255Y71417D01*
X349312Y71474D01*
X349360Y71534D01*
X349401Y71597D01*
X349432Y71657D01*
X349461Y71720D01*
X349483Y71780D01*
X349502Y71837D01*
X349515Y71888D01*
X349524Y71935D01*
X349530Y71976D01*
X349534Y72011D01*
X349537Y72036D01*
Y72058D01*
X349534Y72115D01*
X349530Y72166D01*
X349524Y72213D01*
X349515Y72251D01*
X349508Y72286D01*
X349502Y72308D01*
X349499Y72324D01*
X349496Y72330D01*
X349480Y72371D01*
X349464Y72409D01*
X349445Y72444D01*
X349429Y72472D01*
X349413Y72498D01*
X349401Y72513D01*
X349394Y72526D01*
X349391Y72529D01*
X349366Y72561D01*
X349338Y72586D01*
X349309Y72611D01*
X349287Y72633D01*
X349265Y72649D01*
X349249Y72662D01*
X349236Y72668D01*
X349233Y72671D01*
X349167Y72709D01*
X349135Y72728D01*
X349107Y72741D01*
X349085Y72754D01*
X349066Y72763D01*
X349053Y72766D01*
X349050Y72769D01*
Y72801D01*
X349483D01*
Y73265D01*
D02*
G37*
%LPD*%
G36*
X348241Y78271D02*
X348317Y78268D01*
X348387Y78258D01*
X348450Y78249D01*
X348510Y78236D01*
X348567Y78220D01*
X348617Y78205D01*
X348661Y78189D01*
X348699Y78173D01*
X348734Y78157D01*
X348766Y78145D01*
X348788Y78129D01*
X348807Y78119D01*
X348823Y78110D01*
X348829Y78107D01*
X348832Y78104D01*
X348873Y78069D01*
X348908Y78031D01*
X348939Y77993D01*
X348968Y77949D01*
X348990Y77908D01*
X349009Y77863D01*
X349025Y77819D01*
X349038Y77778D01*
X349047Y77740D01*
X349053Y77702D01*
X349060Y77667D01*
X349063Y77639D01*
Y77617D01*
X349066Y77598D01*
Y77174D01*
X346731D01*
Y77582D01*
X346734Y77645D01*
X346740Y77705D01*
X346753Y77759D01*
X346769Y77813D01*
X346784Y77857D01*
X346807Y77901D01*
X346826Y77939D01*
X346848Y77974D01*
X346870Y78005D01*
X346892Y78031D01*
X346914Y78053D01*
X346930Y78072D01*
X346946Y78084D01*
X346958Y78094D01*
X346965Y78100D01*
X346968Y78104D01*
X347015Y78135D01*
X347062Y78160D01*
X347116Y78183D01*
X347170Y78201D01*
X347284Y78233D01*
X347391Y78252D01*
X347442Y78262D01*
X347486Y78265D01*
X347530Y78268D01*
X347565Y78271D01*
X347597Y78274D01*
X347619D01*
X347631D01*
X347638D01*
X348162D01*
X348241Y78271D01*
D02*
G37*
G36*
X348753Y75484D02*
X346314Y74555D01*
Y75525D01*
X348753D01*
Y75484D01*
D02*
G37*
G36*
X347862Y72188D02*
X348244D01*
Y72801D01*
X348532D01*
X348579D01*
X348623Y72795D01*
X348706Y72779D01*
X348778Y72754D01*
X348842Y72728D01*
X348867Y72712D01*
X348889Y72700D01*
X348908Y72687D01*
X348927Y72675D01*
X348939Y72665D01*
X348949Y72659D01*
X348952Y72656D01*
X348955Y72653D01*
X348984Y72624D01*
X349009Y72592D01*
X349031Y72561D01*
X349050Y72526D01*
X349078Y72453D01*
X349097Y72387D01*
X349110Y72324D01*
X349113Y72299D01*
X349116Y72276D01*
X349120Y72254D01*
Y72229D01*
X349116Y72169D01*
X349110Y72112D01*
X349097Y72062D01*
X349085Y72017D01*
X349072Y71983D01*
X349060Y71957D01*
X349053Y71942D01*
X349050Y71935D01*
X349022Y71891D01*
X348987Y71853D01*
X348955Y71821D01*
X348921Y71793D01*
X348892Y71771D01*
X348870Y71752D01*
X348854Y71742D01*
X348848Y71739D01*
X348797Y71714D01*
X348744Y71692D01*
X348693Y71673D01*
X348646Y71660D01*
X348601Y71648D01*
X348570Y71641D01*
X348554Y71638D01*
X348545D01*
X348541Y71635D01*
X348538D01*
X348469Y71626D01*
X348399Y71616D01*
X348330Y71610D01*
X348270Y71606D01*
X348216D01*
X348194Y71603D01*
X348175D01*
X348159D01*
X348146D01*
X348140D01*
X348137D01*
X347634D01*
X347555Y71606D01*
X347480Y71610D01*
X347410Y71616D01*
X347344Y71626D01*
X347281Y71638D01*
X347224Y71651D01*
X347173Y71663D01*
X347126Y71676D01*
X347081Y71689D01*
X347047Y71701D01*
X347015Y71714D01*
X346990Y71727D01*
X346968Y71736D01*
X346955Y71742D01*
X346946Y71749D01*
X346942D01*
X346898Y71777D01*
X346857Y71812D01*
X346822Y71850D01*
X346794Y71888D01*
X346769Y71926D01*
X346746Y71967D01*
X346731Y72005D01*
X346715Y72046D01*
X346705Y72080D01*
X346696Y72115D01*
X346690Y72147D01*
X346686Y72175D01*
Y72197D01*
X346683Y72213D01*
Y72229D01*
X346686Y72276D01*
X346690Y72321D01*
X346696Y72359D01*
X346702Y72390D01*
X346712Y72419D01*
X346718Y72438D01*
X346721Y72450D01*
X346724Y72453D01*
X346740Y72488D01*
X346759Y72520D01*
X346778Y72545D01*
X346797Y72570D01*
X346813Y72589D01*
X346826Y72602D01*
X346835Y72611D01*
X346838Y72615D01*
X346895Y72659D01*
X346923Y72678D01*
X346949Y72694D01*
X346971Y72706D01*
X346990Y72719D01*
X347002Y72722D01*
X347006Y72725D01*
X347075Y72757D01*
X347107Y72769D01*
X347138Y72782D01*
X347164Y72791D01*
X347182Y72801D01*
X347195Y72804D01*
X347201Y72807D01*
X347047Y73265D01*
X346990Y73247D01*
X346933Y73224D01*
X346882Y73202D01*
X346838Y73180D01*
X346800Y73161D01*
X346772Y73145D01*
X346753Y73136D01*
X346746Y73133D01*
X346696Y73101D01*
X346649Y73066D01*
X346604Y73032D01*
X346569Y73000D01*
X346538Y72972D01*
X346516Y72949D01*
X346503Y72934D01*
X346497Y72927D01*
X346459Y72880D01*
X346424Y72829D01*
X346396Y72782D01*
X346370Y72735D01*
X346352Y72694D01*
X346339Y72659D01*
X346333Y72646D01*
X346329Y72640D01*
X346326Y72633D01*
Y72630D01*
X346304Y72564D01*
X346288Y72495D01*
X346276Y72425D01*
X346269Y72362D01*
X346263Y72308D01*
Y72286D01*
X346260Y72264D01*
Y73265D01*
X347862D01*
Y72188D01*
D02*
G37*
%LPC*%
G36*
X402793Y202594D02*
X402704Y202589D01*
X402619Y202580D01*
X402534Y202562D01*
X402454Y202536D01*
X402375Y202507D01*
X402306Y202473D01*
X402239Y202437D01*
X402179Y202399D01*
X402125Y202364D01*
X402078Y202330D01*
X402038Y202299D01*
X402004Y202270D01*
X401982Y202252D01*
X401294Y201564D01*
X403535Y199323D01*
X404203Y199991D01*
X404279Y200071D01*
X404344Y200154D01*
X404395Y200237D01*
X404440Y200317D01*
X404478Y200395D01*
X404505Y200471D01*
X404525Y200545D01*
X404540Y200614D01*
X404552Y200674D01*
X404558Y200735D01*
X404561Y200786D01*
X404563Y200829D01*
X404561Y200862D01*
X404558Y200891D01*
X404556Y200907D01*
Y200911D01*
X404536Y201003D01*
X404507Y201099D01*
X404469Y201191D01*
X404426Y201282D01*
X404377Y201372D01*
X404321Y201459D01*
X404268Y201539D01*
X404212Y201617D01*
X404158Y201689D01*
X404107Y201754D01*
X404058Y201812D01*
X404015Y201863D01*
X403995Y201883D01*
X403980Y201899D01*
X403966Y201917D01*
X403928Y201955D01*
X403825Y202053D01*
X403725Y202140D01*
X403626Y202216D01*
X403535Y202286D01*
X403441Y202344D01*
X403358Y202395D01*
X403276Y202437D01*
X403202Y202475D01*
X403133Y202504D01*
X403068Y202529D01*
X403017Y202549D01*
X402972Y202562D01*
X402934Y202574D01*
X402907Y202578D01*
X402889Y202583D01*
X402885D01*
X402793Y202594D01*
D02*
G37*
G36*
X400800Y201070D02*
X400485Y200755D01*
X402210Y199030D01*
X402181Y199001D01*
X399799Y200069D01*
X399336Y199606D01*
X401578Y197365D01*
X401893Y197680D01*
X400170Y199403D01*
X400199Y199432D01*
X402579Y198366D01*
X403041Y198829D01*
X400800Y201070D01*
D02*
G37*
G36*
X398838Y198791D02*
X398807D01*
X398787Y198788D01*
X398778D01*
X398717Y198782D01*
X398657Y198771D01*
X398604Y198757D01*
X398552Y198742D01*
X398510Y198726D01*
X398476Y198710D01*
X398463Y198706D01*
X398456Y198704D01*
X398449Y198701D01*
X398447Y198699D01*
X398384Y198668D01*
X398324Y198630D01*
X398266Y198590D01*
X398217Y198549D01*
X398175Y198516D01*
X398159Y198500D01*
X398141Y198487D01*
X398114Y198460D01*
X398040Y198382D01*
X397980Y198299D01*
X397931Y198219D01*
X397888Y198141D01*
X397857Y198060D01*
X397830Y197984D01*
X397810Y197910D01*
X397799Y197841D01*
X397792Y197776D01*
X397788Y197718D01*
X397786Y197667D01*
X397788Y197620D01*
X397790Y197586D01*
X397792Y197557D01*
X397795Y197542D01*
X397797Y197535D01*
X397821Y197439D01*
X397853Y197345D01*
X397895Y197249D01*
X397944Y197155D01*
X397996Y197064D01*
X398054Y196974D01*
X398112Y196889D01*
X398170Y196809D01*
X398228Y196737D01*
X398282Y196670D01*
X398333Y196610D01*
X398376Y196558D01*
X398396Y196538D01*
X398416Y196518D01*
X398429Y196501D01*
X398467Y196463D01*
X398568Y196366D01*
X398666Y196277D01*
X398762Y196199D01*
X398856Y196127D01*
X398945Y196065D01*
X399030Y196011D01*
X399109Y195964D01*
X399182Y195926D01*
X399249Y195890D01*
X399310Y195861D01*
X399361Y195841D01*
X399406Y195823D01*
X399441Y195810D01*
X399468Y195801D01*
X399482Y195797D01*
X399488Y195794D01*
X399575Y195779D01*
X399660Y195770D01*
X399741D01*
X399817Y195779D01*
X399890Y195794D01*
X399955Y195815D01*
X400020Y195839D01*
X400078Y195866D01*
X400132Y195893D01*
X400176Y195920D01*
X400217Y195946D01*
X400250Y195971D01*
X400277Y195993D01*
X400297Y196009D01*
X400313Y196025D01*
X400351Y196067D01*
X400384Y196105D01*
X400413Y196143D01*
X400433Y196177D01*
X400454Y196205D01*
X400465Y196226D01*
X400474Y196239D01*
X400476Y196246D01*
X400494Y196286D01*
X400510Y196324D01*
X400521Y196362D01*
X400530Y196393D01*
X400536Y196422D01*
X400538Y196442D01*
X400543Y196456D01*
Y196460D01*
X400548Y196501D01*
X400545Y196538D01*
X400543Y196576D01*
Y196608D01*
X400538Y196634D01*
X400536Y196655D01*
X400532Y196668D01*
Y196672D01*
X400512Y196746D01*
X400503Y196782D01*
X400492Y196811D01*
X400485Y196836D01*
X400478Y196856D01*
X400471Y196867D01*
Y196871D01*
X400494Y196894D01*
X400800Y196588D01*
X401128Y196916D01*
X399982Y198062D01*
X399220Y197300D01*
X399491Y197030D01*
X399924Y197464D01*
X400127Y197260D01*
X400161Y197227D01*
X400188Y197191D01*
X400235Y197122D01*
X400268Y197052D01*
X400295Y196990D01*
X400302Y196961D01*
X400308Y196936D01*
X400313Y196914D01*
X400317Y196891D01*
X400319Y196876D01*
X400322Y196865D01*
Y196860D01*
Y196856D01*
Y196816D01*
X400317Y196775D01*
X400311Y196737D01*
X400299Y196699D01*
X400268Y196628D01*
X400235Y196567D01*
X400199Y196514D01*
X400183Y196494D01*
X400170Y196476D01*
X400156Y196458D01*
X400139Y196440D01*
X400094Y196400D01*
X400049Y196364D01*
X400004Y196337D01*
X399964Y196315D01*
X399931Y196299D01*
X399904Y196290D01*
X399888Y196284D01*
X399882Y196282D01*
X399830Y196270D01*
X399779Y196268D01*
X399734D01*
X399689Y196273D01*
X399654Y196277D01*
X399625Y196279D01*
X399607Y196284D01*
X399600Y196286D01*
X399546Y196304D01*
X399493Y196326D01*
X399444Y196349D01*
X399401Y196373D01*
X399361Y196395D01*
X399334Y196413D01*
X399321Y196422D01*
X399314Y196429D01*
X399310D01*
X399307Y196431D01*
X399252Y196474D01*
X399196Y196516D01*
X399142Y196561D01*
X399097Y196601D01*
X399059Y196639D01*
X399041Y196652D01*
X399028Y196666D01*
X399017Y196677D01*
X399008Y196686D01*
X399004Y196690D01*
X399001Y196693D01*
X398646Y197048D01*
X398592Y197106D01*
X398541Y197162D01*
X398496Y197215D01*
X398456Y197269D01*
X398420Y197323D01*
X398389Y197372D01*
X398362Y197417D01*
X398338Y197459D01*
X398315Y197499D01*
X398300Y197533D01*
X398286Y197564D01*
X398277Y197591D01*
X398268Y197613D01*
X398264Y197627D01*
X398262Y197638D01*
X398259Y197640D01*
X398248Y197691D01*
X398244Y197745D01*
X398246Y197796D01*
X398253Y197843D01*
X398262Y197888D01*
X398275Y197933D01*
X398291Y197971D01*
X398308Y198011D01*
X398326Y198042D01*
X398344Y198073D01*
X398362Y198100D01*
X398380Y198123D01*
X398396Y198138D01*
X398405Y198152D01*
X398416Y198163D01*
X398451Y198194D01*
X398485Y198223D01*
X398516Y198246D01*
X398543Y198263D01*
X398570Y198277D01*
X398588Y198286D01*
X398599Y198293D01*
X398604D01*
X398639Y198306D01*
X398675Y198315D01*
X398706Y198319D01*
X398738Y198324D01*
X398762Y198326D01*
X398798D01*
X398869Y198317D01*
X398903Y198310D01*
X398932Y198304D01*
X398956Y198297D01*
X398979Y198293D01*
X398990Y198286D01*
X398994D01*
X399066Y198259D01*
X399097Y198246D01*
X399129Y198232D01*
X399153Y198221D01*
X399173Y198214D01*
X399184Y198208D01*
X399191Y198205D01*
X399406Y198639D01*
X399352Y198666D01*
X399296Y198690D01*
X399245Y198710D01*
X399198Y198726D01*
X399158Y198739D01*
X399126Y198748D01*
X399106Y198755D01*
X399099Y198757D01*
X399041Y198771D01*
X398983Y198780D01*
X398927Y198786D01*
X398881Y198788D01*
X398838Y198791D01*
D02*
G37*
%LPD*%
G36*
X402742Y202118D02*
X402757Y202116D01*
X402771D01*
X402827Y202104D01*
X402878Y202089D01*
X402932Y202066D01*
X402983Y202042D01*
X403086Y201984D01*
X403175Y201921D01*
X403218Y201892D01*
X403251Y201863D01*
X403285Y201834D01*
X403311Y201812D01*
X403336Y201792D01*
X403352Y201776D01*
X403361Y201767D01*
X403365Y201763D01*
X403736Y201392D01*
X403790Y201334D01*
X403841Y201278D01*
X403884Y201222D01*
X403922Y201170D01*
X403955Y201119D01*
X403984Y201068D01*
X404009Y201021D01*
X404029Y200978D01*
X404044Y200940D01*
X404058Y200905D01*
X404071Y200873D01*
X404076Y200847D01*
X404082Y200826D01*
X404087Y200809D01*
X404089Y200802D01*
Y200797D01*
X404094Y200744D01*
X404091Y200692D01*
X404087Y200643D01*
X404076Y200592D01*
X404062Y200547D01*
X404044Y200502D01*
X404024Y200460D01*
X404004Y200422D01*
X403984Y200388D01*
X403962Y200357D01*
X403942Y200328D01*
X403924Y200306D01*
X403908Y200290D01*
X403897Y200274D01*
X403597Y199975D01*
X401946Y201626D01*
X402235Y201915D01*
X402281Y201957D01*
X402328Y201995D01*
X402375Y202024D01*
X402424Y202051D01*
X402467Y202071D01*
X402514Y202087D01*
X402554Y202100D01*
X402594Y202109D01*
X402632Y202116D01*
X402666Y202118D01*
X402697D01*
X402722Y202120D01*
X402742Y202118D01*
D02*
G37*
%LPC*%
G36*
X394948Y202784D02*
X394917D01*
X394897Y202782D01*
X394888D01*
X394828Y202775D01*
X394767Y202764D01*
X394711Y202748D01*
X394664Y202732D01*
X394622Y202717D01*
X394588Y202706D01*
X394577Y202699D01*
X394568Y202694D01*
X394564D01*
X394562Y202692D01*
X394499Y202661D01*
X394441Y202625D01*
X394387Y202585D01*
X394336Y202547D01*
X394293Y202509D01*
X394278Y202493D01*
X394260Y202480D01*
X394233Y202453D01*
X394157Y202373D01*
X394097Y202290D01*
X394045Y202207D01*
X394001Y202127D01*
X393969Y202046D01*
X393940Y201968D01*
X393920Y201894D01*
X393907Y201823D01*
X393900Y201758D01*
X393896Y201700D01*
X393891Y201646D01*
X393896Y201602D01*
Y201566D01*
X393898Y201537D01*
X393900Y201521D01*
X393902Y201515D01*
X393927Y201418D01*
X393958Y201325D01*
X393996Y201229D01*
X394045Y201135D01*
X394097Y201043D01*
X394148Y200956D01*
X394206Y200871D01*
X394264Y200795D01*
X394320Y200721D01*
X394372Y200657D01*
X394421Y200599D01*
X394463Y200547D01*
X394483Y200527D01*
X394501Y200509D01*
X394515Y200491D01*
X394553Y200453D01*
X394655Y200355D01*
X394758Y200266D01*
X394857Y200190D01*
X394950Y200118D01*
X395044Y200056D01*
X395131Y200004D01*
X395214Y199957D01*
X395290Y199921D01*
X395361Y199890D01*
X395424Y199863D01*
X395480Y199843D01*
X395527Y199828D01*
X395565Y199816D01*
X395592Y199808D01*
X395607Y199805D01*
X395614Y199803D01*
X395710Y199792D01*
X395802Y199790D01*
X395891Y199799D01*
X395976Y199816D01*
X396056Y199839D01*
X396135Y199868D01*
X396206Y199899D01*
X396273Y199935D01*
X396336Y199971D01*
X396389Y200006D01*
X396436Y200040D01*
X396477Y200071D01*
X396508Y200098D01*
X396532Y200118D01*
X396550Y200136D01*
X396608Y200199D01*
X396657Y200257D01*
X396700Y200312D01*
X396731Y200362D01*
X396758Y200402D01*
X396767Y200420D01*
X396778Y200435D01*
X396785Y200447D01*
X396789Y200455D01*
Y200460D01*
X396792Y200462D01*
X396818Y200525D01*
X396838Y200581D01*
X396854Y200636D01*
X396865Y200688D01*
X396874Y200728D01*
X396879Y200759D01*
Y200782D01*
X396881Y200788D01*
X396883Y200849D01*
X396881Y200909D01*
X396877Y200963D01*
X396870Y201010D01*
X396863Y201052D01*
X396856Y201081D01*
X396852Y201103D01*
X396850Y201110D01*
X396834Y201170D01*
X396812Y201229D01*
X396794Y201282D01*
X396774Y201329D01*
X396758Y201367D01*
X396745Y201398D01*
X396738Y201410D01*
X396733Y201418D01*
Y201423D01*
X396731Y201425D01*
X396298Y201211D01*
X396331Y201137D01*
X396347Y201103D01*
X396360Y201072D01*
X396369Y201045D01*
X396380Y201025D01*
X396385Y201012D01*
Y201007D01*
X396396Y200969D01*
X396407Y200936D01*
X396412Y200900D01*
X396416Y200873D01*
X396418Y200849D01*
X396421Y200829D01*
Y200815D01*
Y200811D01*
X396414Y200742D01*
X396403Y200681D01*
X396396Y200657D01*
X396389Y200636D01*
X396383Y200625D01*
Y200621D01*
X396367Y200587D01*
X396347Y200554D01*
X396325Y200522D01*
X396300Y200494D01*
X396280Y200469D01*
X396264Y200449D01*
X396249Y200433D01*
X396204Y200393D01*
X396157Y200359D01*
X396110Y200330D01*
X396065Y200308D01*
X396018Y200288D01*
X395976Y200277D01*
X395934Y200266D01*
X395893Y200261D01*
X395858Y200257D01*
X395824Y200254D01*
X395795Y200257D01*
X395768D01*
X395746Y200261D01*
X395730Y200263D01*
X395724Y200266D01*
X395719D01*
X395665Y200283D01*
X395609Y200304D01*
X395504Y200355D01*
X395404Y200420D01*
X395315Y200482D01*
X395272Y200516D01*
X395239Y200545D01*
X395203Y200572D01*
X395178Y200596D01*
X395154Y200616D01*
X395138Y200632D01*
X395129Y200641D01*
X395125Y200645D01*
X394745Y201025D01*
X394691Y201083D01*
X394640Y201139D01*
X394595Y201193D01*
X394557Y201249D01*
X394521Y201298D01*
X394490Y201347D01*
X394463Y201396D01*
X394441Y201436D01*
X394421Y201479D01*
X394405Y201512D01*
X394392Y201544D01*
X394383Y201571D01*
X394374Y201593D01*
X394369Y201606D01*
X394365Y201615D01*
Y201620D01*
X394356Y201673D01*
X394352Y201727D01*
X394354Y201778D01*
X394360Y201825D01*
X394372Y201872D01*
X394385Y201917D01*
X394403Y201957D01*
X394419Y201995D01*
X394439Y202028D01*
X394459Y202062D01*
X394477Y202089D01*
X394495Y202111D01*
X394510Y202127D01*
X394519Y202140D01*
X394530Y202151D01*
X394566Y202183D01*
X394600Y202212D01*
X394633Y202236D01*
X394660Y202254D01*
X394687Y202268D01*
X394705Y202276D01*
X394716Y202283D01*
X394720D01*
X394756Y202297D01*
X394792Y202306D01*
X394823Y202310D01*
X394852Y202317D01*
X394877Y202319D01*
X394912D01*
X394984Y202314D01*
X395017Y202308D01*
X395046Y202301D01*
X395071Y202294D01*
X395093Y202290D01*
X395105Y202283D01*
X395109D01*
X395183Y202254D01*
X395216Y202243D01*
X395248Y202230D01*
X395274Y202216D01*
X395292Y202207D01*
X395306Y202203D01*
X395310Y202198D01*
X395525Y202632D01*
X395466Y202659D01*
X395411Y202683D01*
X395359Y202703D01*
X395312Y202719D01*
X395270Y202730D01*
X395241Y202741D01*
X395218Y202746D01*
X395212Y202748D01*
X395151Y202764D01*
X395093Y202773D01*
X395038Y202779D01*
X394991Y202782D01*
X394948Y202784D01*
D02*
G37*
G36*
X393080Y200755D02*
X392991Y200750D01*
X392906Y200742D01*
X392821Y200724D01*
X392741Y200697D01*
X392662Y200668D01*
X392593Y200634D01*
X392526Y200599D01*
X392466Y200560D01*
X392412Y200525D01*
X392365Y200491D01*
X392325Y200460D01*
X392291Y200431D01*
X392269Y200413D01*
X391581Y199725D01*
X393822Y197484D01*
X394490Y198152D01*
X394566Y198232D01*
X394631Y198315D01*
X394682Y198398D01*
X394727Y198478D01*
X394765Y198556D01*
X394792Y198632D01*
X394812Y198706D01*
X394828Y198775D01*
X394839Y198836D01*
X394845Y198896D01*
X394848Y198947D01*
X394850Y198990D01*
X394848Y199023D01*
X394845Y199052D01*
X394843Y199068D01*
Y199072D01*
X394823Y199164D01*
X394794Y199260D01*
X394756Y199352D01*
X394713Y199443D01*
X394664Y199533D01*
X394608Y199620D01*
X394555Y199700D01*
X394499Y199778D01*
X394445Y199850D01*
X394394Y199915D01*
X394345Y199973D01*
X394302Y200024D01*
X394282Y200044D01*
X394267Y200060D01*
X394253Y200078D01*
X394215Y200116D01*
X394112Y200214D01*
X394012Y200301D01*
X393914Y200377D01*
X393822Y200447D01*
X393728Y200505D01*
X393645Y200556D01*
X393563Y200599D01*
X393489Y200636D01*
X393420Y200665D01*
X393355Y200690D01*
X393304Y200710D01*
X393259Y200724D01*
X393221Y200735D01*
X393194Y200739D01*
X393176Y200744D01*
X393172D01*
X393080Y200755D01*
D02*
G37*
G36*
X390602Y198746D02*
X390110Y198255D01*
X391697Y195359D01*
X392063Y195725D01*
X391637Y196492D01*
X392350Y197204D01*
X393116Y196777D01*
X393498Y197160D01*
X390602Y198746D01*
D02*
G37*
%LPD*%
G36*
X393029Y200279D02*
X393044Y200277D01*
X393058D01*
X393114Y200266D01*
X393165Y200250D01*
X393219Y200227D01*
X393270Y200203D01*
X393373Y200145D01*
X393462Y200082D01*
X393505Y200053D01*
X393538Y200024D01*
X393572Y199995D01*
X393599Y199973D01*
X393623Y199953D01*
X393639Y199937D01*
X393648Y199928D01*
X393652Y199924D01*
X394023Y199553D01*
X394077Y199495D01*
X394128Y199439D01*
X394170Y199383D01*
X394209Y199331D01*
X394242Y199280D01*
X394271Y199229D01*
X394296Y199182D01*
X394316Y199139D01*
X394331Y199101D01*
X394345Y199066D01*
X394358Y199034D01*
X394363Y199007D01*
X394369Y198987D01*
X394374Y198970D01*
X394376Y198963D01*
Y198958D01*
X394381Y198905D01*
X394378Y198853D01*
X394374Y198804D01*
X394363Y198753D01*
X394349Y198708D01*
X394331Y198663D01*
X394311Y198621D01*
X394291Y198583D01*
X394271Y198549D01*
X394249Y198518D01*
X394229Y198489D01*
X394211Y198467D01*
X394195Y198451D01*
X394184Y198435D01*
X393884Y198136D01*
X392233Y199787D01*
X392522Y200076D01*
X392568Y200118D01*
X392615Y200156D01*
X392662Y200185D01*
X392711Y200212D01*
X392754Y200232D01*
X392801Y200248D01*
X392841Y200261D01*
X392881Y200270D01*
X392919Y200277D01*
X392953Y200279D01*
X392984D01*
X393009Y200281D01*
X393029Y200279D01*
D02*
G37*
G36*
X391983Y197437D02*
X391404Y196858D01*
X390700Y198116D01*
X390725Y198141D01*
X391983Y197437D01*
D02*
G37*
%LPC*%
G36*
X387047Y203075D02*
X386953D01*
X386918Y203070D01*
X386891D01*
X386889Y203068D01*
X386824Y203057D01*
X386761Y203039D01*
X386701Y203019D01*
X386650Y202999D01*
X386605Y202981D01*
X386569Y202963D01*
X386558Y202956D01*
X386549Y202952D01*
X386542Y202950D01*
X386540Y202947D01*
X386475Y202909D01*
X386415Y202867D01*
X386359Y202829D01*
X386310Y202789D01*
X386267Y202751D01*
X386252Y202735D01*
X386236Y202724D01*
X386209Y202697D01*
X386160Y202643D01*
X386113Y202592D01*
X386075Y202545D01*
X386044Y202500D01*
X386019Y202462D01*
X386002Y202436D01*
X385995Y202424D01*
X385988Y202418D01*
Y202413D01*
X385986Y202411D01*
X385959Y202357D01*
X385932Y202308D01*
X385914Y202259D01*
X385896Y202219D01*
X385883Y202183D01*
X385874Y202156D01*
X385870Y202138D01*
X385868Y202132D01*
X385856Y202080D01*
X385847Y202031D01*
X385839Y201987D01*
X385836Y201944D01*
X385834Y201910D01*
X385832Y201882D01*
Y201864D01*
Y201859D01*
Y201810D01*
X385834Y201763D01*
X385839Y201718D01*
X385843Y201678D01*
X385847Y201647D01*
X385850Y201622D01*
X385852Y201607D01*
X385854Y201600D01*
X386305Y201636D01*
X386292Y201712D01*
X386283Y201783D01*
X386281Y201852D01*
X386283Y201908D01*
X386285Y201960D01*
X386292Y201998D01*
X386294Y202022D01*
Y202027D01*
X386297Y202029D01*
X386317Y202098D01*
X386343Y202165D01*
X386377Y202226D01*
X386410Y202277D01*
X386444Y202319D01*
X386460Y202340D01*
X386471Y202355D01*
X386498Y202382D01*
X386562Y202438D01*
X386625Y202483D01*
X386685Y202516D01*
X386737Y202541D01*
X386784Y202556D01*
X386819Y202565D01*
X386833D01*
X386842Y202570D01*
X386851D01*
X386884Y202572D01*
X386918Y202570D01*
X386982Y202558D01*
X387041Y202536D01*
X387090Y202509D01*
X387132Y202485D01*
X387150Y202471D01*
X387163Y202458D01*
X387175Y202451D01*
X387184Y202442D01*
X387188Y202438D01*
X387190Y202436D01*
X387213Y202413D01*
X387237Y202389D01*
X387257Y202360D01*
X387291Y202304D01*
X387313Y202246D01*
X387329Y202194D01*
X387335Y202147D01*
X387338Y202109D01*
Y202087D01*
Y202083D01*
Y202078D01*
X387333Y202042D01*
X387322Y202004D01*
X387295Y201933D01*
X387257Y201864D01*
X387217Y201801D01*
X387177Y201747D01*
X387159Y201725D01*
X387141Y201707D01*
X387128Y201689D01*
X386875Y201437D01*
X387177Y201135D01*
X387458Y201417D01*
X387501Y201450D01*
X387541Y201482D01*
X387577Y201508D01*
X387615Y201533D01*
X387651Y201551D01*
X387686Y201569D01*
X387715Y201584D01*
X387744Y201595D01*
X387769Y201602D01*
X387791Y201611D01*
X387811Y201613D01*
X387827Y201620D01*
X387838Y201622D01*
X387845Y201620D01*
X387847Y201622D01*
X387885Y201624D01*
X387925D01*
X387961Y201620D01*
X387997Y201611D01*
X388062Y201587D01*
X388118Y201557D01*
X388164Y201528D01*
X388185Y201513D01*
X388200Y201502D01*
X388216Y201490D01*
X388225Y201482D01*
X388229Y201477D01*
X388232Y201475D01*
X388256Y201450D01*
X388285Y201417D01*
X388314Y201383D01*
X388354Y201316D01*
X388384Y201251D01*
X388401Y201193D01*
X388413Y201142D01*
X388417Y201102D01*
Y201088D01*
Y201075D01*
Y201070D01*
Y201066D01*
X388413Y201026D01*
X388401Y200988D01*
X388375Y200912D01*
X388337Y200842D01*
X388299Y200778D01*
X388258Y200724D01*
X388241Y200702D01*
X388223Y200684D01*
X388209Y200666D01*
X388189Y200646D01*
X388113Y200579D01*
X388044Y200527D01*
X388008Y200505D01*
X387977Y200487D01*
X387946Y200469D01*
X387916Y200458D01*
X387887Y200447D01*
X387865Y200438D01*
X387845Y200431D01*
X387825Y200425D01*
X387809Y200422D01*
X387800Y200418D01*
X387794Y200420D01*
X387791Y200418D01*
X387718Y200411D01*
X387644Y200409D01*
X387570Y200411D01*
X387508Y200416D01*
X387454Y200425D01*
X387411Y200431D01*
X387396Y200433D01*
X387385Y200436D01*
X387376D01*
X387373Y200438D01*
X387313Y199967D01*
X387409Y199951D01*
X387454Y199946D01*
X387496Y199944D01*
X387532Y199940D01*
X387577D01*
X387584Y199937D01*
X387637D01*
X387686Y199942D01*
X387736Y199946D01*
X387780Y199955D01*
X387816Y199960D01*
X387847Y199964D01*
X387865Y199969D01*
X387872Y199971D01*
X387928Y199987D01*
X387983Y200007D01*
X388035Y200027D01*
X388080Y200049D01*
X388120Y200067D01*
X388149Y200083D01*
X388160Y200089D01*
X388169Y200094D01*
X388174D01*
X388176Y200096D01*
X388234Y200132D01*
X388290Y200170D01*
X388341Y200212D01*
X388388Y200250D01*
X388428Y200286D01*
X388446Y200300D01*
X388486Y200340D01*
X388553Y200411D01*
X388611Y200478D01*
X388663Y200543D01*
X388703Y200601D01*
X388721Y200628D01*
X388734Y200650D01*
X388750Y200670D01*
X388759Y200688D01*
X388768Y200702D01*
X388774Y200713D01*
X388777Y200720D01*
X388779Y200722D01*
X388815Y200798D01*
X388844Y200867D01*
X388866Y200934D01*
X388882Y200994D01*
X388891Y201044D01*
X388897Y201081D01*
X388902Y201095D01*
X388904Y201106D01*
X388902Y201113D01*
X388904Y201115D01*
X388909Y201187D01*
X388906Y201256D01*
X388902Y201318D01*
X388891Y201374D01*
X388882Y201419D01*
X388873Y201455D01*
X388868Y201468D01*
X388866Y201479D01*
Y201484D01*
X388864Y201486D01*
X388837Y201553D01*
X388804Y201613D01*
X388770Y201669D01*
X388737Y201716D01*
X388705Y201756D01*
X388690Y201772D01*
X388679Y201788D01*
X388654Y201812D01*
X388607Y201855D01*
X388562Y201890D01*
X388518Y201922D01*
X388480Y201946D01*
X388446Y201966D01*
X388419Y201980D01*
X388404Y201987D01*
X388397Y201989D01*
X388346Y202009D01*
X388299Y202025D01*
X388254Y202033D01*
X388211Y202040D01*
X388178Y202042D01*
X388151Y202047D01*
X388129D01*
X388077Y202045D01*
X388031Y202042D01*
X387986Y202033D01*
X387943Y202027D01*
X387912Y202018D01*
X387885Y202013D01*
X387870Y202007D01*
X387863Y202004D01*
X387814Y201987D01*
X387769Y201969D01*
X387727Y201948D01*
X387689Y201928D01*
X387660Y201913D01*
X387635Y201897D01*
X387619Y201890D01*
X387615Y201886D01*
X387599Y201902D01*
X387624Y201944D01*
X387646Y201984D01*
X387664Y202025D01*
X387680Y202058D01*
X387693Y202089D01*
X387702Y202112D01*
X387706Y202125D01*
X387709Y202132D01*
X387720Y202179D01*
X387729Y202223D01*
X387733Y202264D01*
X387740Y202302D01*
Y202333D01*
Y202355D01*
Y202373D01*
Y202378D01*
X387736Y202427D01*
X387729Y202469D01*
X387718Y202512D01*
X387706Y202550D01*
X387698Y202581D01*
X387689Y202603D01*
X387682Y202619D01*
X387680Y202625D01*
X387657Y202670D01*
X387633Y202713D01*
X387608Y202751D01*
X387581Y202786D01*
X387559Y202813D01*
X387541Y202836D01*
X387528Y202849D01*
X387526Y202851D01*
X387523Y202853D01*
X387472Y202900D01*
X387420Y202938D01*
X387369Y202972D01*
X387324Y202999D01*
X387284Y203017D01*
X387253Y203030D01*
X387242Y203032D01*
X387233Y203037D01*
X387228D01*
X387226Y203039D01*
X387163Y203057D01*
X387103Y203068D01*
X387047Y203075D01*
D02*
G37*
G36*
X385233Y201645D02*
X384860Y201272D01*
X385691Y199841D01*
X386259Y198885D01*
X386238Y198865D01*
X385280Y199430D01*
X383854Y200266D01*
X383466Y199877D01*
X386339Y198268D01*
X386842Y198771D01*
X385233Y201645D01*
D02*
G37*
G36*
X383195Y199223D02*
X383101D01*
X383066Y199218D01*
X383039D01*
X383036Y199216D01*
X382972Y199205D01*
X382909Y199187D01*
X382849Y199167D01*
X382797Y199146D01*
X382753Y199129D01*
X382717Y199111D01*
X382706Y199104D01*
X382697Y199100D01*
X382690Y199097D01*
X382688Y199095D01*
X382623Y199057D01*
X382563Y199015D01*
X382507Y198977D01*
X382458Y198936D01*
X382415Y198898D01*
X382400Y198883D01*
X382384Y198872D01*
X382357Y198845D01*
X382308Y198791D01*
X382261Y198740D01*
X382223Y198693D01*
X382192Y198648D01*
X382167Y198610D01*
X382149Y198583D01*
X382143Y198572D01*
X382136Y198565D01*
Y198561D01*
X382134Y198559D01*
X382107Y198505D01*
X382080Y198456D01*
X382062Y198407D01*
X382044Y198367D01*
X382031Y198331D01*
X382022Y198304D01*
X382017Y198286D01*
X382015Y198280D01*
X382004Y198228D01*
X381995Y198179D01*
X381986Y198134D01*
X381984Y198092D01*
X381982Y198058D01*
X381979Y198029D01*
Y198011D01*
Y198007D01*
Y197958D01*
X381982Y197911D01*
X381986Y197866D01*
X381991Y197826D01*
X381995Y197795D01*
X381997Y197770D01*
X382000Y197754D01*
X382002Y197748D01*
X382453Y197784D01*
X382440Y197859D01*
X382431Y197931D01*
X382429Y198000D01*
X382431Y198056D01*
X382433Y198108D01*
X382440Y198145D01*
X382442Y198170D01*
Y198175D01*
X382444Y198177D01*
X382464Y198246D01*
X382491Y198313D01*
X382525Y198373D01*
X382558Y198425D01*
X382592Y198467D01*
X382607Y198487D01*
X382619Y198503D01*
X382645Y198530D01*
X382710Y198586D01*
X382773Y198630D01*
X382833Y198664D01*
X382885Y198688D01*
X382931Y198704D01*
X382967Y198713D01*
X382981D01*
X382990Y198717D01*
X382998D01*
X383032Y198720D01*
X383066Y198717D01*
X383130Y198706D01*
X383188Y198684D01*
X383238Y198657D01*
X383280Y198633D01*
X383298Y198619D01*
X383311Y198606D01*
X383322Y198599D01*
X383331Y198590D01*
X383336Y198586D01*
X383338Y198583D01*
X383360Y198561D01*
X383385Y198537D01*
X383405Y198507D01*
X383439Y198452D01*
X383461Y198393D01*
X383477Y198342D01*
X383483Y198295D01*
X383486Y198257D01*
Y198235D01*
Y198230D01*
Y198226D01*
X383481Y198190D01*
X383470Y198152D01*
X383443Y198081D01*
X383405Y198011D01*
X383365Y197949D01*
X383325Y197895D01*
X383307Y197873D01*
X383289Y197855D01*
X383276Y197837D01*
X383023Y197585D01*
X383325Y197283D01*
X383606Y197564D01*
X383649Y197598D01*
X383689Y197629D01*
X383725Y197656D01*
X383763Y197681D01*
X383798Y197699D01*
X383834Y197716D01*
X383863Y197732D01*
X383892Y197743D01*
X383917Y197750D01*
X383939Y197759D01*
X383959Y197761D01*
X383975Y197768D01*
X383986Y197770D01*
X383993Y197768D01*
X383995Y197770D01*
X384033Y197772D01*
X384073D01*
X384109Y197768D01*
X384145Y197759D01*
X384209Y197734D01*
X384265Y197705D01*
X384312Y197676D01*
X384332Y197661D01*
X384348Y197649D01*
X384364Y197638D01*
X384373Y197629D01*
X384377Y197625D01*
X384379Y197623D01*
X384404Y197598D01*
X384433Y197564D01*
X384462Y197531D01*
X384502Y197464D01*
X384531Y197399D01*
X384549Y197341D01*
X384560Y197290D01*
X384565Y197249D01*
Y197236D01*
Y197223D01*
Y197218D01*
Y197214D01*
X384560Y197174D01*
X384549Y197135D01*
X384522Y197060D01*
X384484Y196990D01*
X384446Y196925D01*
X384406Y196872D01*
X384388Y196850D01*
X384370Y196832D01*
X384357Y196814D01*
X384337Y196794D01*
X384261Y196727D01*
X384192Y196675D01*
X384156Y196653D01*
X384125Y196635D01*
X384093Y196617D01*
X384064Y196606D01*
X384035Y196595D01*
X384013Y196586D01*
X383993Y196579D01*
X383973Y196572D01*
X383957Y196570D01*
X383948Y196566D01*
X383941Y196568D01*
X383939Y196566D01*
X383865Y196559D01*
X383792Y196557D01*
X383718Y196559D01*
X383655Y196563D01*
X383602Y196572D01*
X383559Y196579D01*
X383544Y196581D01*
X383533Y196584D01*
X383524D01*
X383521Y196586D01*
X383461Y196114D01*
X383557Y196099D01*
X383602Y196094D01*
X383644Y196092D01*
X383680Y196088D01*
X383725D01*
X383731Y196085D01*
X383785D01*
X383834Y196090D01*
X383883Y196094D01*
X383928Y196103D01*
X383964Y196108D01*
X383995Y196112D01*
X384013Y196117D01*
X384020Y196119D01*
X384075Y196134D01*
X384131Y196154D01*
X384183Y196175D01*
X384227Y196197D01*
X384268Y196215D01*
X384297Y196230D01*
X384308Y196237D01*
X384317Y196242D01*
X384321D01*
X384324Y196244D01*
X384382Y196280D01*
X384437Y196318D01*
X384489Y196360D01*
X384536Y196398D01*
X384576Y196434D01*
X384594Y196447D01*
X384634Y196487D01*
X384701Y196559D01*
X384759Y196626D01*
X384811Y196691D01*
X384851Y196749D01*
X384869Y196776D01*
X384882Y196798D01*
X384898Y196818D01*
X384907Y196836D01*
X384916Y196850D01*
X384922Y196861D01*
X384925Y196867D01*
X384927Y196870D01*
X384963Y196946D01*
X384992Y197015D01*
X385014Y197082D01*
X385030Y197142D01*
X385038Y197191D01*
X385045Y197229D01*
X385050Y197243D01*
X385052Y197254D01*
X385050Y197261D01*
X385052Y197263D01*
X385056Y197334D01*
X385054Y197404D01*
X385050Y197466D01*
X385038Y197522D01*
X385030Y197567D01*
X385021Y197602D01*
X385016Y197616D01*
X385014Y197627D01*
Y197632D01*
X385012Y197634D01*
X384985Y197701D01*
X384951Y197761D01*
X384918Y197817D01*
X384884Y197864D01*
X384853Y197904D01*
X384837Y197920D01*
X384826Y197935D01*
X384802Y197960D01*
X384755Y198002D01*
X384710Y198038D01*
X384665Y198070D01*
X384627Y198094D01*
X384594Y198114D01*
X384567Y198128D01*
X384551Y198134D01*
X384545Y198136D01*
X384493Y198157D01*
X384446Y198172D01*
X384402Y198181D01*
X384359Y198188D01*
X384326Y198190D01*
X384299Y198195D01*
X384277D01*
X384225Y198192D01*
X384178Y198190D01*
X384134Y198181D01*
X384091Y198175D01*
X384060Y198166D01*
X384033Y198161D01*
X384017Y198154D01*
X384011Y198152D01*
X383962Y198134D01*
X383917Y198116D01*
X383874Y198096D01*
X383836Y198076D01*
X383807Y198061D01*
X383783Y198045D01*
X383767Y198038D01*
X383763Y198034D01*
X383747Y198049D01*
X383772Y198092D01*
X383794Y198132D01*
X383812Y198172D01*
X383827Y198206D01*
X383841Y198237D01*
X383850Y198259D01*
X383854Y198273D01*
X383857Y198280D01*
X383868Y198326D01*
X383877Y198371D01*
X383881Y198411D01*
X383888Y198449D01*
Y198481D01*
Y198503D01*
Y198521D01*
Y198525D01*
X383883Y198574D01*
X383877Y198617D01*
X383865Y198659D01*
X383854Y198697D01*
X383845Y198729D01*
X383836Y198751D01*
X383830Y198767D01*
X383827Y198773D01*
X383805Y198818D01*
X383781Y198861D01*
X383756Y198898D01*
X383729Y198934D01*
X383707Y198961D01*
X383689Y198983D01*
X383676Y198997D01*
X383673Y198999D01*
X383671Y199001D01*
X383620Y199048D01*
X383568Y199086D01*
X383517Y199120D01*
X383472Y199146D01*
X383432Y199164D01*
X383401Y199178D01*
X383389Y199180D01*
X383381Y199185D01*
X383376D01*
X383374Y199187D01*
X383311Y199205D01*
X383251Y199216D01*
X383195Y199223D01*
D02*
G37*
G36*
X357373Y73819D02*
X356833D01*
X356498Y73250D01*
X356172Y72666D01*
X356147D01*
X355821Y73250D01*
X355499Y73819D01*
X354921D01*
X355834Y72274D01*
X354864Y70649D01*
X355404D01*
X355777Y71275D01*
X356122Y71872D01*
X356147D01*
X356485Y71275D01*
X356842Y70649D01*
X357420D01*
X356457Y72274D01*
X357373Y73819D01*
D02*
G37*
G36*
X354665D02*
X352165D01*
Y73392D01*
X353161D01*
Y70649D01*
X353670D01*
Y73392D01*
X354665D01*
Y73819D01*
D02*
G37*
G36*
X343719D02*
X343178D01*
X342843Y73250D01*
X342518Y72666D01*
X342493D01*
X342167Y73250D01*
X341845Y73819D01*
X341266D01*
X342180Y72274D01*
X341210Y70649D01*
X341750D01*
X342123Y71275D01*
X342467Y71872D01*
X342493D01*
X342831Y71275D01*
X343188Y70649D01*
X343766D01*
X342802Y72274D01*
X343719Y73819D01*
D02*
G37*
G36*
X339984D02*
X338779D01*
Y70649D01*
X339285D01*
Y71932D01*
X339705D01*
X340378Y70649D01*
X340941D01*
X340211Y71977D01*
X340271Y71989D01*
X340328Y72005D01*
X340382Y72024D01*
X340429Y72043D01*
X340476Y72068D01*
X340517Y72090D01*
X340556Y72116D01*
X340590Y72141D01*
X340619Y72166D01*
X340647Y72188D01*
X340669Y72207D01*
X340688Y72226D01*
X340701Y72242D01*
X340710Y72255D01*
X340717Y72261D01*
X340720Y72264D01*
X340751Y72312D01*
X340780Y72359D01*
X340802Y72406D01*
X340821Y72457D01*
X340852Y72558D01*
X340875Y72653D01*
X340881Y72697D01*
X340887Y72738D01*
X340890Y72773D01*
X340894Y72804D01*
X340897Y72830D01*
Y72849D01*
Y72861D01*
Y72865D01*
X340894Y72947D01*
X340887Y73023D01*
X340875Y73095D01*
X340859Y73162D01*
X340840Y73225D01*
X340821Y73282D01*
X340799Y73332D01*
X340777Y73380D01*
X340755Y73424D01*
X340732Y73459D01*
X340714Y73490D01*
X340694Y73515D01*
X340679Y73538D01*
X340666Y73550D01*
X340660Y73560D01*
X340657Y73563D01*
X340609Y73607D01*
X340559Y73648D01*
X340505Y73683D01*
X340448Y73712D01*
X340391Y73737D01*
X340334Y73756D01*
X340277Y73775D01*
X340220Y73787D01*
X340170Y73797D01*
X340123Y73806D01*
X340078Y73813D01*
X340040Y73816D01*
X340009D01*
X339984Y73819D01*
D02*
G37*
%LPD*%
G36*
X339974Y73389D02*
X340050Y73377D01*
X340113Y73354D01*
X340167Y73329D01*
X340211Y73294D01*
X340249Y73260D01*
X340281Y73219D01*
X340306Y73181D01*
X340325Y73140D01*
X340341Y73098D01*
X340350Y73064D01*
X340359Y73029D01*
X340363Y73004D01*
X340366Y72982D01*
Y72969D01*
Y72962D01*
Y72770D01*
X340359Y72694D01*
X340347Y72628D01*
X340322Y72571D01*
X340293Y72520D01*
X340255Y72479D01*
X340217Y72444D01*
X340173Y72416D01*
X340129Y72394D01*
X340085Y72375D01*
X340040Y72362D01*
X340002Y72353D01*
X339965Y72346D01*
X339936Y72343D01*
X339911Y72340D01*
X339285D01*
Y73396D01*
X339892D01*
X339974Y73389D01*
D02*
G37*
%LPC*%
G36*
X235088Y205128D02*
X235056D01*
X235036Y205126D01*
X235027D01*
X234967Y205119D01*
X234907Y205108D01*
X234851Y205092D01*
X234804Y205077D01*
X234762Y205061D01*
X234728Y205050D01*
X234717Y205043D01*
X234708Y205039D01*
X234703D01*
X234701Y205036D01*
X234639Y205005D01*
X234580Y204969D01*
X234527Y204929D01*
X234475Y204891D01*
X234433Y204853D01*
X234417Y204837D01*
X234400Y204824D01*
X234373Y204797D01*
X234297Y204717D01*
X234236Y204634D01*
X234185Y204552D01*
X234140Y204471D01*
X234109Y204391D01*
X234080Y204312D01*
X234060Y204239D01*
X234046Y204167D01*
X234040Y204102D01*
X234035Y204044D01*
X234031Y203991D01*
X234035Y203946D01*
Y203910D01*
X234037Y203881D01*
X234040Y203866D01*
X234042Y203859D01*
X234067Y203763D01*
X234098Y203669D01*
X234136Y203573D01*
X234185Y203479D01*
X234236Y203387D01*
X234288Y203300D01*
X234346Y203215D01*
X234404Y203139D01*
X234460Y203066D01*
X234511Y203001D01*
X234560Y202943D01*
X234603Y202891D01*
X234623Y202871D01*
X234641Y202853D01*
X234654Y202835D01*
X234692Y202798D01*
X234795Y202699D01*
X234898Y202610D01*
X234996Y202534D01*
X235090Y202462D01*
X235184Y202400D01*
X235271Y202348D01*
X235354Y202301D01*
X235430Y202266D01*
X235501Y202234D01*
X235564Y202208D01*
X235619Y202187D01*
X235666Y202172D01*
X235704Y202161D01*
X235731Y202152D01*
X235747Y202150D01*
X235753Y202147D01*
X235850Y202136D01*
X235941Y202134D01*
X236031Y202143D01*
X236116Y202161D01*
X236196Y202183D01*
X236274Y202212D01*
X236346Y202243D01*
X236413Y202279D01*
X236475Y202315D01*
X236529Y202351D01*
X236576Y202384D01*
X236616Y202415D01*
X236647Y202442D01*
X236672Y202462D01*
X236690Y202480D01*
X236748Y202543D01*
X236797Y202601D01*
X236840Y202657D01*
X236871Y202706D01*
X236898Y202746D01*
X236907Y202764D01*
X236918Y202780D01*
X236924Y202791D01*
X236929Y202800D01*
Y202804D01*
X236931Y202806D01*
X236958Y202869D01*
X236978Y202925D01*
X236994Y202981D01*
X237005Y203032D01*
X237014Y203072D01*
X237018Y203104D01*
Y203126D01*
X237020Y203133D01*
X237023Y203193D01*
X237020Y203253D01*
X237016Y203307D01*
X237009Y203354D01*
X237003Y203396D01*
X236996Y203425D01*
X236991Y203448D01*
X236989Y203454D01*
X236974Y203515D01*
X236951Y203573D01*
X236933Y203626D01*
X236913Y203673D01*
X236898Y203711D01*
X236884Y203743D01*
X236877Y203754D01*
X236873Y203763D01*
Y203767D01*
X236871Y203769D01*
X236437Y203555D01*
X236471Y203481D01*
X236487Y203448D01*
X236500Y203416D01*
X236509Y203390D01*
X236520Y203369D01*
X236524Y203356D01*
Y203352D01*
X236536Y203314D01*
X236547Y203280D01*
X236551Y203244D01*
X236556Y203218D01*
X236558Y203193D01*
X236560Y203173D01*
Y203159D01*
Y203155D01*
X236554Y203086D01*
X236542Y203025D01*
X236536Y203001D01*
X236529Y202981D01*
X236522Y202970D01*
Y202965D01*
X236507Y202931D01*
X236487Y202898D01*
X236464Y202867D01*
X236439Y202838D01*
X236419Y202813D01*
X236404Y202793D01*
X236388Y202777D01*
X236343Y202737D01*
X236297Y202704D01*
X236250Y202675D01*
X236205Y202652D01*
X236158Y202632D01*
X236116Y202621D01*
X236073Y202610D01*
X236033Y202605D01*
X235997Y202601D01*
X235964Y202599D01*
X235934Y202601D01*
X235908D01*
X235885Y202605D01*
X235870Y202607D01*
X235863Y202610D01*
X235859D01*
X235805Y202628D01*
X235749Y202648D01*
X235644Y202699D01*
X235543Y202764D01*
X235454Y202826D01*
X235412Y202860D01*
X235378Y202889D01*
X235342Y202916D01*
X235318Y202941D01*
X235293Y202961D01*
X235278Y202976D01*
X235269Y202985D01*
X235264Y202990D01*
X234884Y203369D01*
X234831Y203428D01*
X234779Y203483D01*
X234735Y203537D01*
X234697Y203593D01*
X234661Y203642D01*
X234630Y203691D01*
X234603Y203740D01*
X234580Y203781D01*
X234560Y203823D01*
X234545Y203857D01*
X234531Y203888D01*
X234522Y203915D01*
X234513Y203937D01*
X234509Y203951D01*
X234505Y203959D01*
Y203964D01*
X234496Y204017D01*
X234491Y204071D01*
X234493Y204122D01*
X234500Y204169D01*
X234511Y204216D01*
X234525Y204261D01*
X234542Y204301D01*
X234558Y204339D01*
X234578Y204373D01*
X234598Y204406D01*
X234616Y204433D01*
X234634Y204455D01*
X234650Y204471D01*
X234659Y204485D01*
X234670Y204496D01*
X234706Y204527D01*
X234739Y204556D01*
X234773Y204581D01*
X234799Y204598D01*
X234826Y204612D01*
X234844Y204621D01*
X234855Y204627D01*
X234860D01*
X234895Y204641D01*
X234931Y204650D01*
X234963Y204654D01*
X234992Y204661D01*
X235016Y204663D01*
X235052D01*
X235123Y204659D01*
X235157Y204652D01*
X235186Y204645D01*
X235211Y204639D01*
X235233Y204634D01*
X235244Y204627D01*
X235249D01*
X235322Y204598D01*
X235356Y204587D01*
X235387Y204574D01*
X235414Y204560D01*
X235432Y204552D01*
X235445Y204547D01*
X235450Y204543D01*
X235664Y204976D01*
X235606Y205003D01*
X235550Y205028D01*
X235499Y205048D01*
X235452Y205063D01*
X235409Y205074D01*
X235380Y205086D01*
X235358Y205090D01*
X235351Y205092D01*
X235291Y205108D01*
X235233Y205117D01*
X235177Y205123D01*
X235130Y205126D01*
X235088Y205128D01*
D02*
G37*
G36*
X236017Y206366D02*
X235658Y206006D01*
X237899Y203765D01*
X239280Y205146D01*
X238978Y205448D01*
X237957Y204426D01*
X236017Y206366D01*
D02*
G37*
G36*
X233383Y203262D02*
X233284D01*
X233193Y203251D01*
X233112Y203238D01*
X233041Y203220D01*
X233012Y203213D01*
X232987Y203206D01*
X232967Y203200D01*
X232954Y203195D01*
X232943Y203193D01*
X232940Y203191D01*
X232838Y203146D01*
X232739Y203092D01*
X232648Y203032D01*
X232567Y202970D01*
X232529Y202941D01*
X232498Y202914D01*
X232469Y202889D01*
X232447Y202867D01*
X232426Y202851D01*
X232400Y202824D01*
X232337Y202757D01*
X232279Y202690D01*
X232230Y202623D01*
X232187Y202558D01*
X232147Y202496D01*
X232114Y202435D01*
X232087Y202377D01*
X232065Y202324D01*
X232047Y202275D01*
X232033Y202230D01*
X232020Y202190D01*
X232011Y202158D01*
X232006Y202132D01*
X232002Y202109D01*
X232000Y202098D01*
Y202094D01*
X231997Y202024D01*
X232002Y201957D01*
X232009Y201892D01*
X232027Y201830D01*
X232047Y201770D01*
X232069Y201712D01*
X232096Y201658D01*
X232125Y201611D01*
X232154Y201564D01*
X232181Y201524D01*
X232207Y201488D01*
X232228Y201459D01*
X232250Y201437D01*
X232266Y201417D01*
X232275Y201408D01*
X232279Y201403D01*
X232321Y201365D01*
X232364Y201327D01*
X232404Y201296D01*
X232444Y201269D01*
X232476Y201247D01*
X232500Y201231D01*
X232516Y201220D01*
X232520D01*
X232523Y201218D01*
X232572Y201195D01*
X232623Y201175D01*
X232670Y201160D01*
X232712Y201149D01*
X232750Y201142D01*
X232777Y201137D01*
X232797Y201135D01*
X232804Y201133D01*
X232860Y201131D01*
X232916Y201133D01*
X232969Y201137D01*
X233019Y201146D01*
X233061Y201153D01*
X233092Y201162D01*
X233115Y201166D01*
X233119D01*
X233121Y201169D01*
X233184Y201191D01*
X233249Y201220D01*
X233307Y201251D01*
X233360Y201283D01*
X233407Y201312D01*
X233428Y201323D01*
X233443Y201334D01*
X233456Y201343D01*
X233466Y201352D01*
X233472Y201354D01*
X233474Y201356D01*
X233758Y201560D01*
X233801Y201589D01*
X233843Y201618D01*
X233883Y201640D01*
X233919Y201658D01*
X233955Y201676D01*
X233991Y201689D01*
X234020Y201700D01*
X234046Y201709D01*
X234071Y201716D01*
X234096Y201723D01*
X234114Y201727D01*
X234129Y201729D01*
X234149Y201732D01*
X234158D01*
X234219Y201729D01*
X234274Y201714D01*
X234328Y201691D01*
X234373Y201665D01*
X234411Y201640D01*
X234437Y201618D01*
X234451Y201609D01*
X234458Y201602D01*
X234462Y201598D01*
X234464Y201595D01*
X234496Y201560D01*
X234522Y201528D01*
X234565Y201459D01*
X234594Y201394D01*
X234610Y201334D01*
X234618Y201280D01*
X234623Y201240D01*
Y201213D01*
Y201209D01*
Y201204D01*
X234618Y201164D01*
X234607Y201126D01*
X234580Y201050D01*
X234542Y200981D01*
X234502Y200914D01*
X234462Y200860D01*
X234444Y200838D01*
X234429Y200822D01*
X234415Y200804D01*
X234395Y200784D01*
X234326Y200719D01*
X234254Y200666D01*
X234187Y200621D01*
X234127Y200588D01*
X234098Y200572D01*
X234073Y200561D01*
X234051Y200552D01*
X234031Y200541D01*
X234017Y200536D01*
X234004Y200532D01*
X233997Y200530D01*
X233995Y200527D01*
X233910Y200505D01*
X233827Y200489D01*
X233742Y200480D01*
X233664Y200478D01*
X233595Y200476D01*
X233568D01*
X233544Y200478D01*
X233526D01*
X233510Y200480D01*
X233497D01*
X233486Y200027D01*
X233597Y200018D01*
X233705D01*
X233807Y200027D01*
X233897Y200040D01*
X233939Y200047D01*
X233975Y200056D01*
X234008Y200062D01*
X234035Y200067D01*
X234055Y200074D01*
X234073Y200078D01*
X234082Y200083D01*
X234087D01*
X234142Y200103D01*
X234198Y200127D01*
X234308Y200183D01*
X234408Y200248D01*
X234453Y200279D01*
X234496Y200313D01*
X234536Y200344D01*
X234574Y200373D01*
X234605Y200400D01*
X234630Y200425D01*
X234652Y200442D01*
X234681Y200471D01*
X234750Y200545D01*
X234813Y200617D01*
X234862Y200684D01*
X234884Y200715D01*
X234904Y200744D01*
X234922Y200771D01*
X234938Y200795D01*
X234951Y200818D01*
X234960Y200836D01*
X234969Y200849D01*
X234976Y200860D01*
X234978Y200867D01*
X234980Y200869D01*
X235014Y200943D01*
X235043Y201017D01*
X235063Y201081D01*
X235079Y201142D01*
X235088Y201191D01*
X235094Y201229D01*
Y201242D01*
X235097Y201254D01*
X235094Y201260D01*
X235097Y201262D01*
X235099Y201336D01*
X235092Y201405D01*
X235083Y201468D01*
X235072Y201524D01*
X235059Y201573D01*
X235050Y201609D01*
X235043Y201624D01*
X235038Y201633D01*
Y201638D01*
X235036Y201640D01*
X235005Y201707D01*
X234969Y201770D01*
X234931Y201825D01*
X234895Y201875D01*
X234862Y201917D01*
X234846Y201933D01*
X234835Y201948D01*
X234808Y201975D01*
X234762Y202018D01*
X234715Y202056D01*
X234670Y202087D01*
X234623Y202116D01*
X234578Y202143D01*
X234531Y202163D01*
X234489Y202183D01*
X234446Y202199D01*
X234408Y202210D01*
X234375Y202221D01*
X234341Y202228D01*
X234317Y202234D01*
X234297Y202237D01*
X234279Y202241D01*
X234265D01*
X234209Y202243D01*
X234151Y202239D01*
X234091Y202232D01*
X234033Y202219D01*
X233977Y202203D01*
X233921Y202183D01*
X233821Y202141D01*
X233776Y202118D01*
X233734Y202098D01*
X233698Y202076D01*
X233667Y202058D01*
X233642Y202042D01*
X233622Y202031D01*
X233611Y202024D01*
X233606Y202020D01*
X233327Y201825D01*
X233282Y201794D01*
X233238Y201767D01*
X233197Y201745D01*
X233159Y201725D01*
X233124Y201707D01*
X233090Y201691D01*
X233061Y201680D01*
X233030Y201671D01*
X233007Y201662D01*
X232985Y201658D01*
X232965Y201651D01*
X232949Y201649D01*
X232929Y201647D01*
X232920D01*
X232862Y201651D01*
X232806Y201667D01*
X232757Y201689D01*
X232715Y201714D01*
X232677Y201738D01*
X232650Y201761D01*
X232639Y201767D01*
X232632Y201774D01*
X232628Y201779D01*
X232625Y201781D01*
X232598Y201812D01*
X232572Y201843D01*
X232531Y201906D01*
X232507Y201966D01*
X232491Y202022D01*
X232482Y202067D01*
X232480Y202105D01*
Y202127D01*
Y202136D01*
X232493Y202208D01*
X232523Y202277D01*
X232558Y202344D01*
X232598Y202402D01*
X232634Y202451D01*
X232652Y202473D01*
X232668Y202489D01*
X232681Y202507D01*
X232699Y202525D01*
X232768Y202590D01*
X232838Y202641D01*
X232902Y202683D01*
X232958Y202717D01*
X232985Y202730D01*
X233010Y202742D01*
X233030Y202748D01*
X233048Y202757D01*
X233061Y202762D01*
X233072Y202764D01*
X233079Y202766D01*
X233081Y202768D01*
X233155Y202788D01*
X233226Y202798D01*
X233296Y202804D01*
X233356Y202806D01*
X233407Y202809D01*
X233450Y202806D01*
X233474Y202804D01*
X233481Y202806D01*
X233483Y202804D01*
Y203256D01*
X233383Y203262D01*
D02*
G37*
G36*
X225496Y207656D02*
X225005Y207165D01*
X226591Y204269D01*
X226958Y204635D01*
X226531Y205401D01*
X227244Y206114D01*
X228010Y205687D01*
X228392Y206070D01*
X225496Y207656D01*
D02*
G37*
G36*
X222359Y204050D02*
X222261D01*
X222169Y204039D01*
X222089Y204025D01*
X222017Y204007D01*
X221988Y204000D01*
X221964Y203994D01*
X221944Y203987D01*
X221930Y203983D01*
X221919Y203980D01*
X221917Y203978D01*
X221814Y203934D01*
X221716Y203880D01*
X221624Y203819D01*
X221544Y203757D01*
X221506Y203728D01*
X221474Y203701D01*
X221445Y203677D01*
X221423Y203654D01*
X221403Y203639D01*
X221376Y203612D01*
X221313Y203545D01*
X221255Y203478D01*
X221206Y203411D01*
X221164Y203346D01*
X221124Y203283D01*
X221090Y203223D01*
X221063Y203165D01*
X221041Y203111D01*
X221023Y203062D01*
X221009Y203017D01*
X220996Y202977D01*
X220987Y202946D01*
X220983Y202919D01*
X220978Y202897D01*
X220976Y202886D01*
Y202881D01*
X220974Y202812D01*
X220978Y202745D01*
X220985Y202680D01*
X221003Y202617D01*
X221023Y202557D01*
X221045Y202499D01*
X221072Y202445D01*
X221101Y202398D01*
X221130Y202351D01*
X221157Y202311D01*
X221184Y202275D01*
X221204Y202246D01*
X221226Y202224D01*
X221242Y202204D01*
X221251Y202195D01*
X221255Y202191D01*
X221298Y202153D01*
X221340Y202115D01*
X221380Y202083D01*
X221421Y202057D01*
X221452Y202034D01*
X221477Y202018D01*
X221492Y202007D01*
X221497D01*
X221499Y202005D01*
X221548Y201983D01*
X221599Y201963D01*
X221646Y201947D01*
X221689Y201936D01*
X221727Y201929D01*
X221754Y201925D01*
X221774Y201922D01*
X221780Y201920D01*
X221836Y201918D01*
X221892Y201920D01*
X221946Y201925D01*
X221995Y201934D01*
X222037Y201940D01*
X222069Y201949D01*
X222091Y201954D01*
X222095D01*
X222098Y201956D01*
X222160Y201978D01*
X222225Y202007D01*
X222283Y202039D01*
X222337Y202070D01*
X222384Y202099D01*
X222404Y202110D01*
X222420Y202121D01*
X222433Y202130D01*
X222442Y202139D01*
X222448Y202141D01*
X222451Y202144D01*
X222734Y202347D01*
X222777Y202376D01*
X222819Y202405D01*
X222860Y202427D01*
X222895Y202445D01*
X222931Y202463D01*
X222967Y202477D01*
X222996Y202488D01*
X223023Y202497D01*
X223047Y202503D01*
X223072Y202510D01*
X223090Y202515D01*
X223106Y202517D01*
X223126Y202519D01*
X223134D01*
X223195Y202517D01*
X223251Y202501D01*
X223304Y202479D01*
X223349Y202452D01*
X223387Y202427D01*
X223414Y202405D01*
X223427Y202396D01*
X223434Y202390D01*
X223438Y202385D01*
X223441Y202383D01*
X223472Y202347D01*
X223499Y202316D01*
X223541Y202246D01*
X223570Y202182D01*
X223586Y202121D01*
X223595Y202068D01*
X223599Y202028D01*
Y202001D01*
Y201996D01*
Y201992D01*
X223595Y201952D01*
X223584Y201913D01*
X223557Y201837D01*
X223519Y201768D01*
X223479Y201701D01*
X223438Y201648D01*
X223421Y201625D01*
X223405Y201610D01*
X223392Y201592D01*
X223371Y201572D01*
X223302Y201507D01*
X223231Y201453D01*
X223164Y201409D01*
X223103Y201375D01*
X223074Y201359D01*
X223050Y201348D01*
X223027Y201339D01*
X223007Y201328D01*
X222994Y201324D01*
X222980Y201319D01*
X222974Y201317D01*
X222971Y201315D01*
X222886Y201292D01*
X222804Y201277D01*
X222719Y201268D01*
X222641Y201266D01*
X222571Y201263D01*
X222545D01*
X222520Y201266D01*
X222502D01*
X222486Y201268D01*
X222473D01*
X222462Y200814D01*
X222574Y200805D01*
X222681D01*
X222784Y200814D01*
X222873Y200828D01*
X222916Y200834D01*
X222951Y200843D01*
X222985Y200850D01*
X223012Y200854D01*
X223032Y200861D01*
X223050Y200866D01*
X223059Y200870D01*
X223063D01*
X223119Y200890D01*
X223175Y200915D01*
X223284Y200971D01*
X223385Y201035D01*
X223429Y201067D01*
X223472Y201100D01*
X223512Y201131D01*
X223550Y201161D01*
X223581Y201187D01*
X223606Y201212D01*
X223628Y201230D01*
X223657Y201259D01*
X223727Y201332D01*
X223789Y201404D01*
X223838Y201471D01*
X223861Y201502D01*
X223881Y201531D01*
X223899Y201558D01*
X223914Y201583D01*
X223928Y201605D01*
X223937Y201623D01*
X223946Y201636D01*
X223952Y201648D01*
X223955Y201654D01*
X223957Y201657D01*
X223990Y201730D01*
X224019Y201804D01*
X224040Y201869D01*
X224055Y201929D01*
X224064Y201978D01*
X224071Y202016D01*
Y202030D01*
X224073Y202041D01*
X224071Y202048D01*
X224073Y202050D01*
X224075Y202124D01*
X224068Y202193D01*
X224060Y202255D01*
X224048Y202311D01*
X224035Y202360D01*
X224026Y202396D01*
X224019Y202412D01*
X224015Y202421D01*
Y202425D01*
X224013Y202427D01*
X223981Y202495D01*
X223946Y202557D01*
X223908Y202613D01*
X223872Y202662D01*
X223838Y202705D01*
X223823Y202720D01*
X223812Y202736D01*
X223785Y202763D01*
X223738Y202805D01*
X223691Y202843D01*
X223646Y202874D01*
X223599Y202903D01*
X223555Y202930D01*
X223508Y202950D01*
X223465Y202970D01*
X223423Y202986D01*
X223385Y202997D01*
X223351Y203008D01*
X223318Y203015D01*
X223293Y203022D01*
X223273Y203024D01*
X223255Y203028D01*
X223242D01*
X223186Y203031D01*
X223128Y203026D01*
X223067Y203020D01*
X223009Y203006D01*
X222954Y202991D01*
X222898Y202970D01*
X222797Y202928D01*
X222752Y202906D01*
X222710Y202886D01*
X222674Y202863D01*
X222643Y202845D01*
X222618Y202830D01*
X222598Y202818D01*
X222587Y202812D01*
X222583Y202807D01*
X222303Y202613D01*
X222259Y202582D01*
X222214Y202555D01*
X222174Y202533D01*
X222136Y202512D01*
X222100Y202495D01*
X222066Y202479D01*
X222037Y202468D01*
X222006Y202459D01*
X221984Y202450D01*
X221961Y202445D01*
X221941Y202439D01*
X221926Y202436D01*
X221906Y202434D01*
X221897D01*
X221838Y202439D01*
X221783Y202454D01*
X221733Y202477D01*
X221691Y202501D01*
X221653Y202526D01*
X221626Y202548D01*
X221615Y202555D01*
X221608Y202561D01*
X221604Y202566D01*
X221602Y202568D01*
X221575Y202600D01*
X221548Y202631D01*
X221508Y202693D01*
X221483Y202754D01*
X221468Y202810D01*
X221459Y202854D01*
X221456Y202892D01*
Y202915D01*
Y202923D01*
X221470Y202995D01*
X221499Y203064D01*
X221535Y203131D01*
X221575Y203189D01*
X221611Y203239D01*
X221628Y203261D01*
X221644Y203276D01*
X221657Y203294D01*
X221675Y203312D01*
X221745Y203377D01*
X221814Y203429D01*
X221879Y203471D01*
X221935Y203504D01*
X221961Y203518D01*
X221986Y203529D01*
X222006Y203536D01*
X222024Y203545D01*
X222037Y203549D01*
X222049Y203551D01*
X222055Y203554D01*
X222058Y203556D01*
X222131Y203576D01*
X222203Y203585D01*
X222272Y203592D01*
X222332Y203594D01*
X222384Y203596D01*
X222426Y203594D01*
X222451Y203592D01*
X222458Y203594D01*
X222460Y203592D01*
Y204043D01*
X222359Y204050D01*
D02*
G37*
G36*
X224122Y205813D02*
X224033Y205808D01*
X223948Y205799D01*
X223863Y205781D01*
X223782Y205754D01*
X223704Y205726D01*
X223635Y205692D01*
X223568Y205656D01*
X223508Y205618D01*
X223454Y205582D01*
X223407Y205549D01*
X223367Y205518D01*
X223333Y205489D01*
X223311Y205471D01*
X222623Y204783D01*
X224864Y202541D01*
X225532Y203209D01*
X225608Y203290D01*
X225673Y203373D01*
X225724Y203455D01*
X225769Y203536D01*
X225807Y203614D01*
X225834Y203690D01*
X225854Y203764D01*
X225869Y203833D01*
X225881Y203893D01*
X225887Y203954D01*
X225890Y204005D01*
X225892Y204047D01*
X225890Y204081D01*
X225887Y204110D01*
X225885Y204126D01*
Y204130D01*
X225865Y204222D01*
X225836Y204318D01*
X225798Y204409D01*
X225756Y204501D01*
X225706Y204590D01*
X225651Y204678D01*
X225597Y204758D01*
X225541Y204836D01*
X225487Y204908D01*
X225436Y204973D01*
X225387Y205031D01*
X225344Y205082D01*
X225324Y205102D01*
X225309Y205118D01*
X225295Y205136D01*
X225257Y205174D01*
X225154Y205272D01*
X225054Y205359D01*
X224956Y205435D01*
X224864Y205504D01*
X224770Y205562D01*
X224688Y205614D01*
X224605Y205656D01*
X224531Y205694D01*
X224462Y205723D01*
X224397Y205748D01*
X224346Y205768D01*
X224301Y205781D01*
X224263Y205792D01*
X224236Y205797D01*
X224218Y205802D01*
X224214D01*
X224122Y205813D01*
D02*
G37*
%LPD*%
G36*
X226877Y206347D02*
X226298Y205768D01*
X225595Y207026D01*
X225619Y207050D01*
X226877Y206347D01*
D02*
G37*
G36*
X224071Y205337D02*
X224086Y205334D01*
X224100D01*
X224156Y205323D01*
X224207Y205308D01*
X224261Y205285D01*
X224312Y205261D01*
X224415Y205203D01*
X224504Y205140D01*
X224547Y205111D01*
X224580Y205082D01*
X224614Y205053D01*
X224640Y205031D01*
X224665Y205011D01*
X224681Y204995D01*
X224690Y204986D01*
X224694Y204981D01*
X225065Y204610D01*
X225119Y204552D01*
X225170Y204497D01*
X225213Y204441D01*
X225251Y204389D01*
X225284Y204338D01*
X225313Y204287D01*
X225338Y204240D01*
X225358Y204197D01*
X225373Y204159D01*
X225387Y204123D01*
X225400Y204092D01*
X225405Y204065D01*
X225411Y204045D01*
X225416Y204027D01*
X225418Y204021D01*
Y204016D01*
X225423Y203962D01*
X225420Y203911D01*
X225416Y203862D01*
X225405Y203811D01*
X225391Y203766D01*
X225373Y203721D01*
X225353Y203679D01*
X225333Y203641D01*
X225313Y203607D01*
X225291Y203576D01*
X225271Y203547D01*
X225253Y203525D01*
X225237Y203509D01*
X225226Y203493D01*
X224926Y203194D01*
X223275Y204845D01*
X223564Y205133D01*
X223610Y205176D01*
X223657Y205214D01*
X223704Y205243D01*
X223753Y205270D01*
X223796Y205290D01*
X223843Y205305D01*
X223883Y205319D01*
X223923Y205328D01*
X223961Y205334D01*
X223995Y205337D01*
X224026D01*
X224051Y205339D01*
X224071Y205337D01*
D02*
G37*
%LPC*%
G36*
X300453Y94291D02*
X298292D01*
Y93865D01*
X299897D01*
X298228Y91571D01*
Y91122D01*
X300519D01*
Y91549D01*
X298788D01*
X300453Y93840D01*
Y94291D01*
D02*
G37*
G36*
X289520D02*
X288386D01*
Y91122D01*
X289602D01*
X289675Y91125D01*
X289745Y91131D01*
X289805Y91141D01*
X289858Y91154D01*
X289903Y91166D01*
X289937Y91176D01*
X289950Y91179D01*
X289960Y91182D01*
X289963Y91185D01*
X289966D01*
X290026Y91214D01*
X290080Y91242D01*
X290130Y91273D01*
X290171Y91302D01*
X290206Y91330D01*
X290228Y91352D01*
X290244Y91365D01*
X290250Y91372D01*
X290291Y91419D01*
X290329Y91466D01*
X290361Y91514D01*
X290386Y91558D01*
X290408Y91599D01*
X290421Y91628D01*
X290427Y91640D01*
X290430Y91650D01*
X290434Y91653D01*
Y91656D01*
X290456Y91719D01*
X290471Y91782D01*
X290481Y91842D01*
X290490Y91899D01*
X290494Y91947D01*
Y91966D01*
X290497Y91984D01*
Y92016D01*
X290494Y92076D01*
X290490Y92130D01*
X290481Y92184D01*
X290471Y92231D01*
X290459Y92278D01*
X290443Y92320D01*
X290427Y92357D01*
X290415Y92392D01*
X290399Y92421D01*
X290383Y92449D01*
X290367Y92471D01*
X290354Y92490D01*
X290345Y92503D01*
X290336Y92512D01*
X290332Y92519D01*
X290329Y92522D01*
X290263Y92585D01*
X290190Y92636D01*
X290114Y92677D01*
X290045Y92711D01*
X289982Y92737D01*
X289953Y92746D01*
X289931Y92752D01*
X289912Y92759D01*
X289896Y92762D01*
X289887Y92765D01*
X289884D01*
Y92787D01*
X289966Y92816D01*
X290038Y92850D01*
X290102Y92888D01*
X290152Y92926D01*
X290196Y92961D01*
X290225Y92993D01*
X290244Y93011D01*
X290250Y93015D01*
Y93018D01*
X290276Y93050D01*
X290295Y93084D01*
X290329Y93157D01*
X290354Y93230D01*
X290370Y93302D01*
X290380Y93362D01*
X290383Y93391D01*
Y93413D01*
X290386Y93435D01*
Y93448D01*
Y93457D01*
Y93460D01*
X290383Y93530D01*
X290377Y93596D01*
X290364Y93659D01*
X290348Y93719D01*
X290332Y93773D01*
X290310Y93821D01*
X290291Y93868D01*
X290269Y93909D01*
X290247Y93944D01*
X290225Y93975D01*
X290203Y94004D01*
X290187Y94026D01*
X290171Y94045D01*
X290159Y94058D01*
X290152Y94064D01*
X290149Y94067D01*
X290102Y94108D01*
X290051Y94140D01*
X290001Y94171D01*
X289944Y94196D01*
X289890Y94219D01*
X289833Y94238D01*
X289779Y94250D01*
X289726Y94263D01*
X289675Y94272D01*
X289628Y94279D01*
X289587Y94285D01*
X289552Y94288D01*
X289520Y94291D01*
D02*
G37*
%LPD*%
G36*
X289460Y93896D02*
X289533Y93884D01*
X289596Y93871D01*
X289647Y93852D01*
X289688Y93836D01*
X289716Y93821D01*
X289732Y93808D01*
X289738Y93805D01*
X289779Y93764D01*
X289811Y93716D01*
X289833Y93666D01*
X289849Y93615D01*
X289858Y93568D01*
X289861Y93530D01*
X289865Y93517D01*
Y93505D01*
Y93498D01*
Y93495D01*
Y93331D01*
X289858Y93255D01*
X289846Y93192D01*
X289824Y93138D01*
X289802Y93094D01*
X289779Y93062D01*
X289757Y93040D01*
X289745Y93024D01*
X289738Y93021D01*
X289688Y92989D01*
X289631Y92967D01*
X289571Y92952D01*
X289511Y92942D01*
X289457Y92936D01*
X289435Y92932D01*
X289416Y92929D01*
X288885D01*
Y93900D01*
X289375D01*
X289460Y93896D01*
D02*
G37*
G36*
X289536Y92553D02*
X289615Y92541D01*
X289681Y92525D01*
X289738Y92506D01*
X289779Y92484D01*
X289811Y92468D01*
X289830Y92455D01*
X289836Y92452D01*
X289861Y92430D01*
X289884Y92408D01*
X289915Y92354D01*
X289941Y92300D01*
X289960Y92244D01*
X289969Y92193D01*
X289972Y92171D01*
Y92152D01*
X289975Y92136D01*
Y92124D01*
Y92117D01*
Y92114D01*
Y91953D01*
Y91912D01*
X289969Y91874D01*
X289953Y91804D01*
X289931Y91744D01*
X289906Y91700D01*
X289880Y91662D01*
X289858Y91637D01*
X289843Y91624D01*
X289839Y91618D01*
X289836D01*
X289779Y91583D01*
X289719Y91558D01*
X289653Y91539D01*
X289590Y91526D01*
X289536Y91520D01*
X289511Y91517D01*
X289489D01*
X289473Y91514D01*
X288885D01*
Y92557D01*
X289448D01*
X289536Y92553D01*
D02*
G37*
%LPC*%
G36*
X279771Y94291D02*
X279076D01*
X278150Y91122D01*
X278668D01*
X278908Y91966D01*
X279916D01*
X280156Y91122D01*
X280697D01*
X279771Y94291D01*
D02*
G37*
%LPD*%
G36*
X279821Y92389D02*
X279003D01*
X279395Y93776D01*
X279429D01*
X279821Y92389D01*
D02*
G37*
%LPC*%
G36*
X254201Y58465D02*
X254163D01*
X254071Y58461D01*
X253983Y58455D01*
X253901Y58442D01*
X253825Y58427D01*
X253752Y58411D01*
X253686Y58392D01*
X253626Y58370D01*
X253572Y58348D01*
X253525Y58325D01*
X253484Y58303D01*
X253446Y58284D01*
X253417Y58269D01*
X253395Y58253D01*
X253376Y58240D01*
X253367Y58234D01*
X253363Y58231D01*
X253313Y58183D01*
X253269Y58133D01*
X253228Y58082D01*
X253196Y58025D01*
X253168Y57968D01*
X253142Y57912D01*
X253123Y57855D01*
X253111Y57801D01*
X253098Y57747D01*
X253089Y57700D01*
X253082Y57656D01*
X253076Y57621D01*
Y57589D01*
X253073Y57564D01*
Y57551D01*
Y57545D01*
X253076Y57488D01*
X253079Y57431D01*
X253085Y57381D01*
X253095Y57333D01*
X253101Y57295D01*
X253108Y57267D01*
X253111Y57248D01*
X253114Y57245D01*
Y57242D01*
X253133Y57191D01*
X253155Y57140D01*
X253177Y57096D01*
X253199Y57058D01*
X253221Y57027D01*
X253237Y57005D01*
X253250Y56989D01*
X253253Y56982D01*
X253291Y56941D01*
X253332Y56903D01*
X253373Y56869D01*
X253414Y56840D01*
X253449Y56815D01*
X253477Y56799D01*
X253496Y56787D01*
X253499Y56783D01*
X253503D01*
X253563Y56755D01*
X253629Y56730D01*
X253692Y56711D01*
X253752Y56695D01*
X253806Y56682D01*
X253828Y56676D01*
X253847Y56673D01*
X253863Y56670D01*
X253875D01*
X253882Y56666D01*
X253885D01*
X254229Y56610D01*
X254280Y56600D01*
X254330Y56591D01*
X254375Y56578D01*
X254413Y56565D01*
X254451Y56553D01*
X254485Y56537D01*
X254514Y56524D01*
X254539Y56512D01*
X254561Y56499D01*
X254583Y56486D01*
X254599Y56477D01*
X254612Y56467D01*
X254628Y56455D01*
X254634Y56449D01*
X254675Y56404D01*
X254703Y56354D01*
X254726Y56300D01*
X254738Y56249D01*
X254748Y56205D01*
X254751Y56170D01*
X254754Y56155D01*
Y56145D01*
Y56139D01*
Y56136D01*
X254751Y56088D01*
X254748Y56047D01*
X254729Y55968D01*
X254703Y55902D01*
X254672Y55848D01*
X254640Y55804D01*
X254615Y55772D01*
X254596Y55753D01*
X254593Y55750D01*
X254590Y55747D01*
X254558Y55722D01*
X254523Y55703D01*
X254451Y55668D01*
X254375Y55646D01*
X254299Y55627D01*
X254233Y55617D01*
X254204Y55614D01*
X254182D01*
X254160Y55611D01*
X254131D01*
X254037Y55614D01*
X253948Y55627D01*
X253869Y55643D01*
X253803Y55662D01*
X253771Y55671D01*
X253746Y55681D01*
X253724Y55690D01*
X253702Y55696D01*
X253689Y55703D01*
X253676Y55709D01*
X253670Y55712D01*
X253667D01*
X253591Y55756D01*
X253521Y55804D01*
X253455Y55858D01*
X253398Y55911D01*
X253348Y55959D01*
X253329Y55978D01*
X253313Y55997D01*
X253300Y56009D01*
X253291Y56022D01*
X253285Y56028D01*
X253281Y56031D01*
X252953Y55718D01*
X253025Y55633D01*
X253101Y55557D01*
X253180Y55491D01*
X253253Y55437D01*
X253288Y55412D01*
X253319Y55393D01*
X253348Y55374D01*
X253370Y55358D01*
X253389Y55349D01*
X253405Y55339D01*
X253414Y55336D01*
X253417Y55333D01*
X253471Y55308D01*
X253528Y55286D01*
X253645Y55248D01*
X253762Y55222D01*
X253815Y55213D01*
X253869Y55207D01*
X253920Y55200D01*
X253967Y55194D01*
X254008Y55191D01*
X254043D01*
X254071Y55188D01*
X254113D01*
X254214Y55191D01*
X254308Y55197D01*
X254391Y55210D01*
X254429Y55216D01*
X254463Y55222D01*
X254495Y55229D01*
X254523Y55235D01*
X254549Y55241D01*
X254568Y55248D01*
X254583Y55251D01*
X254596Y55254D01*
X254602Y55257D01*
X254605D01*
X254681Y55286D01*
X254754Y55317D01*
X254814Y55349D01*
X254868Y55380D01*
X254909Y55409D01*
X254940Y55431D01*
X254950Y55440D01*
X254959Y55447D01*
X254962Y55453D01*
X254966D01*
X255019Y55504D01*
X255064Y55557D01*
X255101Y55608D01*
X255133Y55655D01*
X255158Y55700D01*
X255177Y55731D01*
X255184Y55747D01*
X255187Y55756D01*
X255190Y55760D01*
Y55763D01*
X255215Y55832D01*
X255234Y55902D01*
X255247Y55968D01*
X255256Y56028D01*
X255263Y56082D01*
Y56104D01*
X255266Y56123D01*
Y56161D01*
X255263Y56224D01*
X255256Y56284D01*
X255247Y56338D01*
X255234Y56392D01*
X255222Y56442D01*
X255203Y56490D01*
X255187Y56534D01*
X255168Y56575D01*
X255149Y56610D01*
X255133Y56641D01*
X255114Y56670D01*
X255101Y56692D01*
X255089Y56708D01*
X255079Y56723D01*
X255073Y56730D01*
X255070Y56733D01*
X255032Y56774D01*
X254988Y56812D01*
X254940Y56850D01*
X254890Y56881D01*
X254839Y56910D01*
X254786Y56935D01*
X254684Y56976D01*
X254637Y56992D01*
X254593Y57008D01*
X254552Y57017D01*
X254517Y57027D01*
X254488Y57033D01*
X254466Y57039D01*
X254454Y57043D01*
X254447D01*
X254113Y57103D01*
X254059Y57112D01*
X254008Y57125D01*
X253964Y57137D01*
X253923Y57150D01*
X253885Y57163D01*
X253850Y57175D01*
X253822Y57188D01*
X253793Y57204D01*
X253771Y57213D01*
X253752Y57226D01*
X253733Y57235D01*
X253721Y57245D01*
X253705Y57257D01*
X253698Y57264D01*
X253661Y57308D01*
X253632Y57359D01*
X253613Y57409D01*
X253601Y57456D01*
X253591Y57501D01*
X253588Y57535D01*
X253585Y57548D01*
Y57558D01*
Y57564D01*
Y57567D01*
X253588Y57608D01*
X253591Y57649D01*
X253607Y57722D01*
X253632Y57782D01*
X253661Y57833D01*
X253686Y57871D01*
X253711Y57899D01*
X253727Y57915D01*
X253733Y57921D01*
X253793Y57962D01*
X253863Y57991D01*
X253936Y58013D01*
X254005Y58025D01*
X254065Y58035D01*
X254094Y58038D01*
X254116D01*
X254138Y58041D01*
X254163D01*
X254258Y58038D01*
X254343Y58025D01*
X254419Y58009D01*
X254482Y57994D01*
X254511Y57984D01*
X254536Y57975D01*
X254555Y57965D01*
X254574Y57959D01*
X254587Y57953D01*
X254596Y57946D01*
X254602Y57943D01*
X254605D01*
X254672Y57905D01*
X254729Y57861D01*
X254782Y57817D01*
X254827Y57776D01*
X254865Y57741D01*
X254893Y57709D01*
X254909Y57690D01*
X254915Y57687D01*
Y57684D01*
X255234Y58003D01*
X255168Y58079D01*
X255098Y58149D01*
X255026Y58205D01*
X254959Y58253D01*
X254896Y58291D01*
X254871Y58307D01*
X254849Y58319D01*
X254830Y58329D01*
X254817Y58335D01*
X254808Y58341D01*
X254804D01*
X254700Y58382D01*
X254593Y58414D01*
X254485Y58436D01*
X254384Y58449D01*
X254337Y58455D01*
X254296Y58458D01*
X254258Y58461D01*
X254226D01*
X254201Y58465D01*
D02*
G37*
G36*
X256991D02*
X256953D01*
X256843Y58461D01*
X256742Y58446D01*
X256647Y58424D01*
X256558Y58398D01*
X256479Y58363D01*
X256403Y58329D01*
X256337Y58291D01*
X256277Y58250D01*
X256226Y58209D01*
X256182Y58171D01*
X256141Y58136D01*
X256113Y58101D01*
X256087Y58076D01*
X256068Y58054D01*
X256059Y58041D01*
X256056Y58035D01*
X256005Y57950D01*
X255961Y57861D01*
X255920Y57766D01*
X255888Y57665D01*
X255860Y57564D01*
X255835Y57466D01*
X255816Y57365D01*
X255803Y57270D01*
X255790Y57178D01*
X255781Y57096D01*
X255775Y57020D01*
X255768Y56954D01*
Y56926D01*
Y56900D01*
X255765Y56878D01*
Y56824D01*
X255768Y56682D01*
X255778Y56546D01*
X255794Y56423D01*
X255809Y56306D01*
X255832Y56196D01*
X255857Y56098D01*
X255882Y56006D01*
X255910Y55927D01*
X255939Y55854D01*
X255964Y55791D01*
X255990Y55738D01*
X256012Y55693D01*
X256031Y55659D01*
X256043Y55633D01*
X256053Y55621D01*
X256056Y55614D01*
X256116Y55538D01*
X256179Y55472D01*
X256249Y55415D01*
X256321Y55368D01*
X256394Y55327D01*
X256470Y55292D01*
X256542Y55264D01*
X256615Y55241D01*
X256685Y55222D01*
X256748Y55210D01*
X256805Y55200D01*
X256855Y55194D01*
X256896Y55191D01*
X256928Y55188D01*
X256953D01*
X257039Y55191D01*
X257115Y55197D01*
X257184Y55207D01*
X257241Y55219D01*
X257288Y55229D01*
X257307Y55235D01*
X257326Y55238D01*
X257339Y55241D01*
X257348Y55244D01*
X257351Y55248D01*
X257355D01*
X257418Y55273D01*
X257471Y55298D01*
X257522Y55327D01*
X257566Y55355D01*
X257601Y55377D01*
X257626Y55396D01*
X257642Y55412D01*
X257648Y55415D01*
X257693Y55456D01*
X257734Y55501D01*
X257769Y55542D01*
X257797Y55580D01*
X257822Y55614D01*
X257838Y55639D01*
X257851Y55659D01*
X257854Y55665D01*
X257886Y55718D01*
X257911Y55775D01*
X257936Y55826D01*
X257955Y55873D01*
X257971Y55911D01*
X257983Y55943D01*
X257987Y55955D01*
X257990Y55965D01*
X257993Y55968D01*
Y55971D01*
X257535Y56126D01*
X257506Y56050D01*
X257494Y56016D01*
X257481Y55984D01*
X257468Y55959D01*
X257462Y55937D01*
X257456Y55924D01*
X257453Y55921D01*
X257434Y55886D01*
X257418Y55854D01*
X257396Y55826D01*
X257380Y55804D01*
X257364Y55785D01*
X257351Y55769D01*
X257342Y55760D01*
X257339Y55756D01*
X257285Y55712D01*
X257235Y55677D01*
X257212Y55665D01*
X257193Y55655D01*
X257181Y55652D01*
X257178Y55649D01*
X257143Y55636D01*
X257105Y55627D01*
X257067Y55621D01*
X257029Y55617D01*
X256998Y55614D01*
X256972Y55611D01*
X256950D01*
X256890Y55614D01*
X256833Y55624D01*
X256780Y55636D01*
X256732Y55652D01*
X256685Y55671D01*
X256647Y55693D01*
X256609Y55715D01*
X256577Y55741D01*
X256549Y55763D01*
X256523Y55785D01*
X256505Y55807D01*
X256486Y55826D01*
X256473Y55845D01*
X256464Y55858D01*
X256460Y55864D01*
X256457Y55867D01*
X256432Y55918D01*
X256407Y55971D01*
X256369Y56082D01*
X256343Y56199D01*
X256325Y56306D01*
X256318Y56360D01*
X256315Y56404D01*
X256309Y56449D01*
Y56483D01*
X256306Y56515D01*
Y56537D01*
Y56550D01*
Y56556D01*
Y57093D01*
X256309Y57172D01*
X256312Y57248D01*
X256318Y57318D01*
X256331Y57384D01*
X256340Y57444D01*
X256353Y57501D01*
X256369Y57555D01*
X256381Y57599D01*
X256397Y57643D01*
X256410Y57678D01*
X256422Y57709D01*
X256435Y57735D01*
X256445Y57757D01*
X256451Y57769D01*
X256454Y57779D01*
X256457Y57782D01*
X256489Y57826D01*
X256523Y57867D01*
X256561Y57902D01*
X256599Y57930D01*
X256641Y57956D01*
X256682Y57978D01*
X256723Y57994D01*
X256761Y58009D01*
X256799Y58019D01*
X256836Y58029D01*
X256868Y58035D01*
X256896Y58038D01*
X256919D01*
X256934Y58041D01*
X256950D01*
X256998Y58038D01*
X257042Y58035D01*
X257083Y58029D01*
X257115Y58022D01*
X257143Y58013D01*
X257162Y58006D01*
X257174Y58003D01*
X257178Y58000D01*
X257212Y57984D01*
X257244Y57965D01*
X257269Y57946D01*
X257295Y57930D01*
X257313Y57915D01*
X257326Y57902D01*
X257336Y57893D01*
X257339Y57889D01*
X257386Y57836D01*
X257405Y57807D01*
X257421Y57782D01*
X257434Y57760D01*
X257446Y57741D01*
X257449Y57728D01*
X257453Y57725D01*
X257484Y57652D01*
X257500Y57621D01*
X257513Y57589D01*
X257522Y57561D01*
X257528Y57542D01*
X257535Y57529D01*
Y57523D01*
X257993Y57678D01*
X257971Y57738D01*
X257949Y57795D01*
X257927Y57845D01*
X257905Y57889D01*
X257882Y57927D01*
X257870Y57956D01*
X257857Y57975D01*
X257854Y57981D01*
X257822Y58035D01*
X257788Y58082D01*
X257753Y58126D01*
X257721Y58161D01*
X257693Y58193D01*
X257671Y58215D01*
X257655Y58228D01*
X257648Y58234D01*
X257601Y58272D01*
X257551Y58307D01*
X257500Y58335D01*
X257456Y58357D01*
X257415Y58376D01*
X257383Y58392D01*
X257370Y58395D01*
X257361Y58398D01*
X257358Y58401D01*
X257355D01*
X257288Y58424D01*
X257222Y58439D01*
X257155Y58449D01*
X257092Y58458D01*
X257035Y58461D01*
X257013D01*
X256991Y58465D01*
D02*
G37*
G36*
X259225Y58411D02*
X258717D01*
Y55241D01*
X260669D01*
Y55668D01*
X259225D01*
Y58411D01*
D02*
G37*
G36*
X254201Y68307D02*
X254163D01*
X254071Y68304D01*
X253983Y68298D01*
X253901Y68285D01*
X253825Y68269D01*
X253752Y68253D01*
X253686Y68234D01*
X253626Y68212D01*
X253572Y68190D01*
X253525Y68168D01*
X253484Y68146D01*
X253446Y68127D01*
X253417Y68111D01*
X253395Y68095D01*
X253376Y68083D01*
X253367Y68076D01*
X253363Y68073D01*
X253313Y68026D01*
X253269Y67975D01*
X253228Y67925D01*
X253196Y67868D01*
X253168Y67811D01*
X253142Y67754D01*
X253123Y67697D01*
X253111Y67643D01*
X253098Y67590D01*
X253089Y67542D01*
X253082Y67498D01*
X253076Y67463D01*
Y67432D01*
X253073Y67406D01*
Y67394D01*
Y67387D01*
X253076Y67331D01*
X253079Y67274D01*
X253085Y67223D01*
X253095Y67176D01*
X253101Y67138D01*
X253108Y67110D01*
X253111Y67090D01*
X253114Y67087D01*
Y67084D01*
X253133Y67034D01*
X253155Y66983D01*
X253177Y66939D01*
X253199Y66901D01*
X253221Y66869D01*
X253237Y66847D01*
X253250Y66831D01*
X253253Y66825D01*
X253291Y66784D01*
X253332Y66746D01*
X253373Y66711D01*
X253414Y66683D01*
X253449Y66658D01*
X253477Y66642D01*
X253496Y66629D01*
X253499Y66626D01*
X253503D01*
X253563Y66597D01*
X253629Y66572D01*
X253692Y66553D01*
X253752Y66537D01*
X253806Y66525D01*
X253828Y66518D01*
X253847Y66515D01*
X253863Y66512D01*
X253875D01*
X253882Y66509D01*
X253885D01*
X254229Y66452D01*
X254280Y66443D01*
X254330Y66433D01*
X254375Y66421D01*
X254413Y66408D01*
X254451Y66395D01*
X254485Y66379D01*
X254514Y66367D01*
X254539Y66354D01*
X254561Y66342D01*
X254583Y66329D01*
X254599Y66319D01*
X254612Y66310D01*
X254628Y66297D01*
X254634Y66291D01*
X254675Y66247D01*
X254703Y66196D01*
X254726Y66142D01*
X254738Y66092D01*
X254748Y66048D01*
X254751Y66013D01*
X254754Y65997D01*
Y65988D01*
Y65981D01*
Y65978D01*
X254751Y65931D01*
X254748Y65890D01*
X254729Y65811D01*
X254703Y65744D01*
X254672Y65691D01*
X254640Y65646D01*
X254615Y65615D01*
X254596Y65596D01*
X254593Y65593D01*
X254590Y65589D01*
X254558Y65564D01*
X254523Y65545D01*
X254451Y65510D01*
X254375Y65488D01*
X254299Y65469D01*
X254233Y65460D01*
X254204Y65457D01*
X254182D01*
X254160Y65454D01*
X254131D01*
X254037Y65457D01*
X253948Y65469D01*
X253869Y65485D01*
X253803Y65504D01*
X253771Y65514D01*
X253746Y65523D01*
X253724Y65533D01*
X253702Y65539D01*
X253689Y65545D01*
X253676Y65552D01*
X253670Y65555D01*
X253667D01*
X253591Y65599D01*
X253521Y65646D01*
X253455Y65700D01*
X253398Y65754D01*
X253348Y65801D01*
X253329Y65820D01*
X253313Y65839D01*
X253300Y65852D01*
X253291Y65864D01*
X253285Y65871D01*
X253281Y65874D01*
X252953Y65561D01*
X253025Y65476D01*
X253101Y65400D01*
X253180Y65333D01*
X253253Y65280D01*
X253288Y65254D01*
X253319Y65236D01*
X253348Y65217D01*
X253370Y65201D01*
X253389Y65191D01*
X253405Y65182D01*
X253414Y65179D01*
X253417Y65175D01*
X253471Y65150D01*
X253528Y65128D01*
X253645Y65090D01*
X253762Y65065D01*
X253815Y65055D01*
X253869Y65049D01*
X253920Y65043D01*
X253967Y65036D01*
X254008Y65033D01*
X254043D01*
X254071Y65030D01*
X254113D01*
X254214Y65033D01*
X254308Y65040D01*
X254391Y65052D01*
X254429Y65059D01*
X254463Y65065D01*
X254495Y65071D01*
X254523Y65078D01*
X254549Y65084D01*
X254568Y65090D01*
X254583Y65093D01*
X254596Y65096D01*
X254602Y65100D01*
X254605D01*
X254681Y65128D01*
X254754Y65160D01*
X254814Y65191D01*
X254868Y65223D01*
X254909Y65251D01*
X254940Y65273D01*
X254950Y65283D01*
X254959Y65289D01*
X254962Y65296D01*
X254966D01*
X255019Y65346D01*
X255064Y65400D01*
X255101Y65451D01*
X255133Y65498D01*
X255158Y65542D01*
X255177Y65574D01*
X255184Y65589D01*
X255187Y65599D01*
X255190Y65602D01*
Y65605D01*
X255215Y65675D01*
X255234Y65744D01*
X255247Y65811D01*
X255256Y65871D01*
X255263Y65925D01*
Y65947D01*
X255266Y65965D01*
Y66003D01*
X255263Y66067D01*
X255256Y66127D01*
X255247Y66180D01*
X255234Y66234D01*
X255222Y66285D01*
X255203Y66332D01*
X255187Y66376D01*
X255168Y66417D01*
X255149Y66452D01*
X255133Y66484D01*
X255114Y66512D01*
X255101Y66534D01*
X255089Y66550D01*
X255079Y66566D01*
X255073Y66572D01*
X255070Y66575D01*
X255032Y66616D01*
X254988Y66654D01*
X254940Y66692D01*
X254890Y66724D01*
X254839Y66752D01*
X254786Y66778D01*
X254684Y66819D01*
X254637Y66834D01*
X254593Y66850D01*
X254552Y66860D01*
X254517Y66869D01*
X254488Y66876D01*
X254466Y66882D01*
X254454Y66885D01*
X254447D01*
X254113Y66945D01*
X254059Y66955D01*
X254008Y66967D01*
X253964Y66980D01*
X253923Y66992D01*
X253885Y67005D01*
X253850Y67018D01*
X253822Y67030D01*
X253793Y67046D01*
X253771Y67056D01*
X253752Y67068D01*
X253733Y67078D01*
X253721Y67087D01*
X253705Y67100D01*
X253698Y67106D01*
X253661Y67150D01*
X253632Y67201D01*
X253613Y67252D01*
X253601Y67299D01*
X253591Y67343D01*
X253588Y67378D01*
X253585Y67391D01*
Y67400D01*
Y67406D01*
Y67410D01*
X253588Y67451D01*
X253591Y67492D01*
X253607Y67564D01*
X253632Y67624D01*
X253661Y67675D01*
X253686Y67713D01*
X253711Y67741D01*
X253727Y67757D01*
X253733Y67764D01*
X253793Y67805D01*
X253863Y67833D01*
X253936Y67855D01*
X254005Y67868D01*
X254065Y67877D01*
X254094Y67880D01*
X254116D01*
X254138Y67884D01*
X254163D01*
X254258Y67880D01*
X254343Y67868D01*
X254419Y67852D01*
X254482Y67836D01*
X254511Y67827D01*
X254536Y67817D01*
X254555Y67808D01*
X254574Y67801D01*
X254587Y67795D01*
X254596Y67789D01*
X254602Y67786D01*
X254605D01*
X254672Y67748D01*
X254729Y67703D01*
X254782Y67659D01*
X254827Y67618D01*
X254865Y67584D01*
X254893Y67552D01*
X254909Y67533D01*
X254915Y67530D01*
Y67527D01*
X255234Y67846D01*
X255168Y67922D01*
X255098Y67991D01*
X255026Y68048D01*
X254959Y68095D01*
X254896Y68133D01*
X254871Y68149D01*
X254849Y68162D01*
X254830Y68171D01*
X254817Y68177D01*
X254808Y68184D01*
X254804D01*
X254700Y68225D01*
X254593Y68256D01*
X254485Y68279D01*
X254384Y68291D01*
X254337Y68298D01*
X254296Y68301D01*
X254258Y68304D01*
X254226D01*
X254201Y68307D01*
D02*
G37*
G36*
X259936Y68253D02*
X259241D01*
X258315Y65084D01*
X258834D01*
X259074Y65928D01*
X260082D01*
X260322Y65084D01*
X260862D01*
X259936Y68253D01*
D02*
G37*
G36*
X256846D02*
X255873D01*
Y65084D01*
X256817D01*
X256928Y65087D01*
X257032Y65100D01*
X257127Y65122D01*
X257216Y65147D01*
X257298Y65175D01*
X257370Y65210D01*
X257437Y65248D01*
X257497Y65286D01*
X257547Y65321D01*
X257595Y65359D01*
X257633Y65394D01*
X257664Y65422D01*
X257686Y65447D01*
X257705Y65469D01*
X257715Y65482D01*
X257718Y65485D01*
X257769Y65564D01*
X257816Y65653D01*
X257854Y65744D01*
X257889Y65839D01*
X257917Y65937D01*
X257939Y66038D01*
X257958Y66133D01*
X257974Y66228D01*
X257987Y66316D01*
X257996Y66399D01*
X258002Y66474D01*
X258009Y66541D01*
Y66569D01*
Y66591D01*
X258012Y66613D01*
Y66667D01*
X258009Y66809D01*
X257999Y66942D01*
X257983Y67065D01*
X257968Y67179D01*
X257942Y67286D01*
X257920Y67381D01*
X257892Y67470D01*
X257867Y67549D01*
X257838Y67618D01*
X257810Y67681D01*
X257788Y67732D01*
X257765Y67773D01*
X257747Y67808D01*
X257731Y67830D01*
X257721Y67846D01*
X257718Y67849D01*
X257661Y67922D01*
X257595Y67982D01*
X257528Y68035D01*
X257456Y68083D01*
X257380Y68121D01*
X257304Y68155D01*
X257231Y68181D01*
X257159Y68203D01*
X257089Y68219D01*
X257026Y68231D01*
X256969Y68241D01*
X256919Y68247D01*
X256874Y68250D01*
X256846Y68253D01*
D02*
G37*
%LPD*%
G36*
X259987Y66351D02*
X259169D01*
X259560Y67738D01*
X259595D01*
X259987Y66351D01*
D02*
G37*
G36*
X256849Y67833D02*
X256909Y67827D01*
X256963Y67814D01*
X257016Y67798D01*
X257061Y67782D01*
X257105Y67760D01*
X257143Y67741D01*
X257178Y67719D01*
X257209Y67697D01*
X257235Y67675D01*
X257257Y67653D01*
X257276Y67637D01*
X257288Y67621D01*
X257298Y67609D01*
X257304Y67602D01*
X257307Y67599D01*
X257339Y67552D01*
X257364Y67504D01*
X257386Y67451D01*
X257405Y67397D01*
X257437Y67283D01*
X257456Y67176D01*
X257465Y67125D01*
X257468Y67081D01*
X257471Y67037D01*
X257475Y67002D01*
X257478Y66970D01*
Y66948D01*
Y66936D01*
Y66929D01*
Y66405D01*
X257475Y66326D01*
X257471Y66250D01*
X257462Y66180D01*
X257453Y66117D01*
X257440Y66057D01*
X257424Y66000D01*
X257408Y65950D01*
X257393Y65905D01*
X257377Y65868D01*
X257361Y65833D01*
X257348Y65801D01*
X257332Y65779D01*
X257323Y65760D01*
X257313Y65744D01*
X257310Y65738D01*
X257307Y65735D01*
X257273Y65694D01*
X257235Y65659D01*
X257197Y65627D01*
X257152Y65599D01*
X257111Y65577D01*
X257067Y65558D01*
X257023Y65542D01*
X256982Y65529D01*
X256944Y65520D01*
X256906Y65514D01*
X256871Y65507D01*
X256843Y65504D01*
X256821D01*
X256802Y65501D01*
X256378D01*
Y67836D01*
X256786D01*
X256849Y67833D01*
D02*
G37*
%LPC*%
G36*
X441555Y54528D02*
X441517D01*
X441410Y54524D01*
X441309Y54509D01*
X441217Y54487D01*
X441132Y54461D01*
X441053Y54426D01*
X440980Y54392D01*
X440914Y54354D01*
X440857Y54313D01*
X440806Y54272D01*
X440762Y54234D01*
X440724Y54199D01*
X440693Y54164D01*
X440670Y54139D01*
X440651Y54117D01*
X440642Y54104D01*
X440639Y54098D01*
X440588Y54013D01*
X440544Y53924D01*
X440506Y53826D01*
X440474Y53725D01*
X440446Y53624D01*
X440424Y53519D01*
X440405Y53418D01*
X440389Y53320D01*
X440380Y53229D01*
X440370Y53144D01*
X440364Y53065D01*
X440357Y52998D01*
Y52970D01*
Y52941D01*
X440354Y52919D01*
Y52865D01*
X440357Y52726D01*
X440364Y52594D01*
X440377Y52470D01*
X440392Y52354D01*
X440411Y52246D01*
X440433Y52148D01*
X440455Y52060D01*
X440481Y51981D01*
X440503Y51908D01*
X440525Y51845D01*
X440547Y51794D01*
X440566Y51750D01*
X440582Y51715D01*
X440594Y51690D01*
X440601Y51677D01*
X440604Y51671D01*
X440655Y51598D01*
X440708Y51532D01*
X440765Y51475D01*
X440825Y51428D01*
X440888Y51386D01*
X440948Y51355D01*
X441012Y51327D01*
X441072Y51304D01*
X441128Y51285D01*
X441179Y51273D01*
X441226Y51263D01*
X441268Y51257D01*
X441302Y51254D01*
X441328Y51251D01*
X441350D01*
X441407Y51254D01*
X441457Y51257D01*
X441505Y51263D01*
X441542Y51273D01*
X441577Y51279D01*
X441599Y51285D01*
X441615Y51289D01*
X441621Y51292D01*
X441663Y51307D01*
X441701Y51323D01*
X441735Y51342D01*
X441764Y51358D01*
X441789Y51374D01*
X441805Y51386D01*
X441817Y51393D01*
X441821Y51396D01*
X441852Y51421D01*
X441878Y51450D01*
X441903Y51478D01*
X441925Y51500D01*
X441941Y51522D01*
X441953Y51538D01*
X441960Y51551D01*
X441963Y51554D01*
X442001Y51620D01*
X442020Y51652D01*
X442032Y51680D01*
X442045Y51702D01*
X442054Y51722D01*
X442058Y51734D01*
X442061Y51737D01*
X442092D01*
Y51304D01*
X442557D01*
Y52925D01*
X441479D01*
Y52543D01*
X442092D01*
Y52255D01*
Y52208D01*
X442086Y52164D01*
X442070Y52082D01*
X442045Y52009D01*
X442020Y51946D01*
X442004Y51921D01*
X441991Y51898D01*
X441979Y51880D01*
X441966Y51860D01*
X441957Y51848D01*
X441950Y51838D01*
X441947Y51835D01*
X441944Y51832D01*
X441915Y51804D01*
X441884Y51778D01*
X441852Y51756D01*
X441817Y51737D01*
X441745Y51709D01*
X441678Y51690D01*
X441615Y51677D01*
X441590Y51674D01*
X441568Y51671D01*
X441546Y51668D01*
X441520D01*
X441460Y51671D01*
X441403Y51677D01*
X441353Y51690D01*
X441309Y51702D01*
X441274Y51715D01*
X441249Y51728D01*
X441233Y51734D01*
X441226Y51737D01*
X441182Y51766D01*
X441144Y51801D01*
X441113Y51832D01*
X441084Y51867D01*
X441062Y51895D01*
X441043Y51917D01*
X441034Y51933D01*
X441031Y51939D01*
X441005Y51990D01*
X440983Y52044D01*
X440964Y52094D01*
X440952Y52142D01*
X440939Y52186D01*
X440933Y52218D01*
X440929Y52233D01*
Y52243D01*
X440926Y52246D01*
Y52249D01*
X440917Y52319D01*
X440907Y52388D01*
X440901Y52458D01*
X440898Y52518D01*
Y52571D01*
X440895Y52594D01*
Y52613D01*
Y52628D01*
Y52641D01*
Y52647D01*
Y52650D01*
Y53153D01*
X440898Y53232D01*
X440901Y53308D01*
X440907Y53377D01*
X440917Y53444D01*
X440929Y53507D01*
X440942Y53564D01*
X440955Y53614D01*
X440967Y53662D01*
X440980Y53706D01*
X440993Y53741D01*
X441005Y53772D01*
X441018Y53798D01*
X441027Y53820D01*
X441034Y53832D01*
X441040Y53842D01*
Y53845D01*
X441069Y53889D01*
X441103Y53930D01*
X441141Y53965D01*
X441179Y53993D01*
X441217Y54019D01*
X441258Y54041D01*
X441296Y54057D01*
X441337Y54072D01*
X441372Y54082D01*
X441407Y54092D01*
X441438Y54098D01*
X441467Y54101D01*
X441489D01*
X441505Y54104D01*
X441520D01*
X441568Y54101D01*
X441612Y54098D01*
X441650Y54092D01*
X441681Y54085D01*
X441710Y54076D01*
X441729Y54069D01*
X441742Y54066D01*
X441745Y54063D01*
X441780Y54047D01*
X441811Y54028D01*
X441836Y54009D01*
X441862Y53990D01*
X441881Y53975D01*
X441893Y53962D01*
X441903Y53952D01*
X441906Y53949D01*
X441950Y53892D01*
X441969Y53864D01*
X441985Y53839D01*
X441997Y53817D01*
X442010Y53798D01*
X442013Y53785D01*
X442017Y53782D01*
X442048Y53712D01*
X442061Y53681D01*
X442073Y53649D01*
X442083Y53624D01*
X442092Y53605D01*
X442096Y53592D01*
X442099Y53586D01*
X442557Y53741D01*
X442538Y53798D01*
X442516Y53855D01*
X442494Y53905D01*
X442472Y53949D01*
X442453Y53987D01*
X442437Y54016D01*
X442427Y54035D01*
X442424Y54041D01*
X442392Y54092D01*
X442358Y54139D01*
X442323Y54183D01*
X442291Y54218D01*
X442263Y54250D01*
X442241Y54272D01*
X442225Y54284D01*
X442219Y54291D01*
X442171Y54329D01*
X442121Y54363D01*
X442073Y54392D01*
X442026Y54417D01*
X441985Y54436D01*
X441950Y54449D01*
X441937Y54455D01*
X441931Y54458D01*
X441925Y54461D01*
X441922D01*
X441855Y54483D01*
X441786Y54499D01*
X441716Y54512D01*
X441653Y54518D01*
X441599Y54524D01*
X441577D01*
X441555Y54528D01*
D02*
G37*
G36*
X445262Y54474D02*
X444816D01*
Y52034D01*
X444775D01*
X443846Y54474D01*
X443192D01*
Y51304D01*
X443638D01*
Y53741D01*
X443679D01*
X444608Y51304D01*
X445262D01*
Y54474D01*
D02*
G37*
G36*
X446933D02*
X445960D01*
Y51304D01*
X446905D01*
X447016Y51307D01*
X447120Y51320D01*
X447215Y51342D01*
X447303Y51368D01*
X447385Y51396D01*
X447458Y51431D01*
X447524Y51469D01*
X447584Y51507D01*
X447635Y51541D01*
X447682Y51579D01*
X447720Y51614D01*
X447752Y51643D01*
X447774Y51668D01*
X447793Y51690D01*
X447802Y51702D01*
X447806Y51706D01*
X447856Y51785D01*
X447904Y51873D01*
X447941Y51965D01*
X447976Y52060D01*
X448005Y52158D01*
X448027Y52259D01*
X448046Y52354D01*
X448062Y52448D01*
X448074Y52537D01*
X448084Y52619D01*
X448090Y52695D01*
X448096Y52761D01*
Y52790D01*
Y52812D01*
X448100Y52834D01*
Y52887D01*
X448096Y53030D01*
X448087Y53162D01*
X448071Y53286D01*
X448055Y53399D01*
X448030Y53507D01*
X448008Y53602D01*
X447979Y53690D01*
X447954Y53769D01*
X447926Y53839D01*
X447897Y53902D01*
X447875Y53952D01*
X447853Y53993D01*
X447834Y54028D01*
X447818Y54050D01*
X447809Y54066D01*
X447806Y54069D01*
X447749Y54142D01*
X447682Y54202D01*
X447616Y54256D01*
X447543Y54303D01*
X447468Y54341D01*
X447392Y54376D01*
X447319Y54401D01*
X447246Y54423D01*
X447177Y54439D01*
X447114Y54452D01*
X447057Y54461D01*
X447006Y54467D01*
X446962Y54471D01*
X446933Y54474D01*
D02*
G37*
%LPD*%
G36*
X446937Y54054D02*
X446997Y54047D01*
X447050Y54035D01*
X447104Y54019D01*
X447148Y54003D01*
X447193Y53981D01*
X447230Y53962D01*
X447265Y53940D01*
X447297Y53918D01*
X447322Y53896D01*
X447344Y53873D01*
X447363Y53858D01*
X447376Y53842D01*
X447385Y53829D01*
X447392Y53823D01*
X447395Y53820D01*
X447426Y53772D01*
X447452Y53725D01*
X447474Y53671D01*
X447493Y53618D01*
X447524Y53504D01*
X447543Y53396D01*
X447553Y53346D01*
X447556Y53302D01*
X447559Y53257D01*
X447562Y53223D01*
X447565Y53191D01*
Y53169D01*
Y53156D01*
Y53150D01*
Y52625D01*
X447562Y52546D01*
X447559Y52470D01*
X447550Y52401D01*
X447540Y52338D01*
X447528Y52278D01*
X447512Y52221D01*
X447496Y52170D01*
X447480Y52126D01*
X447464Y52088D01*
X447448Y52053D01*
X447436Y52022D01*
X447420Y52000D01*
X447411Y51981D01*
X447401Y51965D01*
X447398Y51959D01*
X447395Y51955D01*
X447360Y51914D01*
X447322Y51880D01*
X447284Y51848D01*
X447240Y51819D01*
X447199Y51797D01*
X447155Y51778D01*
X447110Y51763D01*
X447069Y51750D01*
X447031Y51740D01*
X446993Y51734D01*
X446959Y51728D01*
X446930Y51725D01*
X446908D01*
X446889Y51722D01*
X446466D01*
Y54057D01*
X446873D01*
X446937Y54054D01*
D02*
G37*
%LPC*%
G36*
X477014Y54474D02*
X476486D01*
X476063Y52875D01*
X475788Y51797D01*
X475759D01*
X475481Y52875D01*
X475064Y54474D01*
X474514D01*
X475409Y51304D01*
X476120D01*
X477014Y54474D01*
D02*
G37*
G36*
X478486Y54528D02*
X478448D01*
X478376Y54524D01*
X478306Y54521D01*
X478246Y54515D01*
X478193Y54505D01*
X478148Y54496D01*
X478117Y54490D01*
X478104Y54487D01*
X478094D01*
X478091Y54483D01*
X478088D01*
X478031Y54464D01*
X477978Y54449D01*
X477930Y54426D01*
X477889Y54411D01*
X477854Y54395D01*
X477829Y54382D01*
X477813Y54373D01*
X477807Y54370D01*
X477763Y54341D01*
X477722Y54313D01*
X477684Y54287D01*
X477652Y54259D01*
X477627Y54237D01*
X477605Y54218D01*
X477592Y54205D01*
X477589Y54202D01*
X477554Y54167D01*
X477523Y54133D01*
X477494Y54098D01*
X477469Y54066D01*
X477450Y54041D01*
X477434Y54022D01*
X477425Y54009D01*
X477422Y54003D01*
X477766Y53709D01*
X477810Y53772D01*
X477854Y53829D01*
X477902Y53880D01*
X477943Y53918D01*
X477981Y53952D01*
X478012Y53975D01*
X478031Y53990D01*
X478034Y53993D01*
X478038D01*
X478101Y54028D01*
X478167Y54057D01*
X478234Y54076D01*
X478294Y54088D01*
X478347Y54095D01*
X478373Y54098D01*
X478392Y54101D01*
X478430D01*
X478515Y54095D01*
X478591Y54082D01*
X478657Y54063D01*
X478711Y54044D01*
X478755Y54022D01*
X478787Y54003D01*
X478796Y53993D01*
X478806Y53990D01*
X478812Y53984D01*
X478837Y53962D01*
X478859Y53937D01*
X478897Y53883D01*
X478923Y53826D01*
X478938Y53772D01*
X478951Y53725D01*
X478954Y53703D01*
Y53684D01*
X478957Y53671D01*
Y53659D01*
Y53652D01*
Y53649D01*
Y53618D01*
Y53583D01*
X478951Y53548D01*
X478935Y53485D01*
X478910Y53428D01*
X478885Y53381D01*
X478856Y53343D01*
X478831Y53314D01*
X478815Y53298D01*
X478812Y53295D01*
X478809Y53292D01*
X478780Y53270D01*
X478746Y53251D01*
X478676Y53219D01*
X478600Y53197D01*
X478527Y53181D01*
X478461Y53172D01*
X478433Y53169D01*
X478407D01*
X478385Y53166D01*
X478028D01*
Y52739D01*
X478426D01*
X478480Y52733D01*
X478531Y52726D01*
X478575Y52720D01*
X478619Y52711D01*
X478657Y52698D01*
X478695Y52685D01*
X478727Y52676D01*
X478755Y52663D01*
X478777Y52650D01*
X478799Y52641D01*
X478815Y52628D01*
X478831Y52622D01*
X478840Y52616D01*
X478843Y52609D01*
X478847D01*
X478875Y52584D01*
X478903Y52556D01*
X478926Y52527D01*
X478945Y52496D01*
X478973Y52433D01*
X478992Y52372D01*
X479005Y52319D01*
X479008Y52293D01*
X479011Y52275D01*
X479014Y52255D01*
Y52243D01*
Y52237D01*
Y52233D01*
Y52199D01*
X479011Y52154D01*
X479008Y52110D01*
X478989Y52034D01*
X478964Y51968D01*
X478935Y51914D01*
X478907Y51870D01*
X478881Y51838D01*
X478872Y51829D01*
X478862Y51819D01*
X478859Y51816D01*
X478856Y51813D01*
X478825Y51788D01*
X478790Y51769D01*
X478717Y51734D01*
X478641Y51712D01*
X478569Y51693D01*
X478502Y51684D01*
X478474Y51680D01*
X478448D01*
X478426Y51677D01*
X478398D01*
X478297Y51684D01*
X478211Y51696D01*
X478170Y51706D01*
X478136Y51715D01*
X478101Y51725D01*
X478072Y51737D01*
X478044Y51750D01*
X478022Y51759D01*
X478003Y51769D01*
X477984Y51778D01*
X477971Y51788D01*
X477962Y51791D01*
X477959Y51797D01*
X477955D01*
X477899Y51845D01*
X477845Y51895D01*
X477794Y51949D01*
X477753Y51996D01*
X477722Y52041D01*
X477696Y52075D01*
X477687Y52088D01*
X477681Y52097D01*
X477674Y52104D01*
Y52107D01*
X477298Y51816D01*
X477355Y51737D01*
X477384Y51702D01*
X477412Y51671D01*
X477434Y51643D01*
X477453Y51623D01*
X477466Y51611D01*
X477469Y51605D01*
X477507Y51567D01*
X477545Y51535D01*
X477583Y51503D01*
X477621Y51478D01*
X477649Y51456D01*
X477674Y51437D01*
X477690Y51428D01*
X477696Y51424D01*
X477747Y51396D01*
X477801Y51371D01*
X477851Y51349D01*
X477899Y51333D01*
X477940Y51317D01*
X477971Y51307D01*
X477984Y51304D01*
X477993Y51301D01*
X477997Y51298D01*
X478000D01*
X478066Y51282D01*
X478132Y51270D01*
X478199Y51263D01*
X478259Y51257D01*
X478313Y51254D01*
X478335Y51251D01*
X478392D01*
X478489Y51254D01*
X478578Y51260D01*
X478660Y51270D01*
X478730Y51282D01*
X478761Y51289D01*
X478787Y51295D01*
X478812Y51298D01*
X478831Y51304D01*
X478847Y51307D01*
X478859Y51311D01*
X478866Y51314D01*
X478869D01*
X478948Y51342D01*
X479017Y51371D01*
X479080Y51402D01*
X479134Y51434D01*
X479175Y51462D01*
X479207Y51485D01*
X479219Y51491D01*
X479229Y51497D01*
X479232Y51503D01*
X479235D01*
X479289Y51551D01*
X479336Y51601D01*
X479378Y51649D01*
X479409Y51696D01*
X479434Y51734D01*
X479453Y51766D01*
X479460Y51778D01*
X479466Y51788D01*
X479469Y51791D01*
Y51794D01*
X479498Y51860D01*
X479517Y51927D01*
X479532Y51990D01*
X479542Y52047D01*
X479548Y52097D01*
Y52120D01*
X479551Y52139D01*
Y52173D01*
X479548Y52237D01*
X479542Y52293D01*
X479532Y52347D01*
X479523Y52391D01*
X479513Y52429D01*
X479504Y52458D01*
X479498Y52474D01*
X479494Y52480D01*
X479472Y52530D01*
X479450Y52575D01*
X479425Y52613D01*
X479400Y52647D01*
X479378Y52673D01*
X479362Y52695D01*
X479349Y52707D01*
X479346Y52711D01*
X479308Y52745D01*
X479273Y52777D01*
X479235Y52802D01*
X479201Y52828D01*
X479172Y52843D01*
X479150Y52859D01*
X479134Y52865D01*
X479128Y52869D01*
X479080Y52891D01*
X479036Y52910D01*
X478992Y52925D01*
X478951Y52938D01*
X478919Y52948D01*
X478891Y52954D01*
X478875Y52960D01*
X478869D01*
Y52982D01*
X478916Y52995D01*
X478960Y53008D01*
X479002Y53023D01*
X479036Y53036D01*
X479068Y53049D01*
X479090Y53058D01*
X479103Y53065D01*
X479109Y53068D01*
X479150Y53093D01*
X479188Y53118D01*
X479219Y53144D01*
X479251Y53166D01*
X479273Y53188D01*
X479289Y53203D01*
X479302Y53216D01*
X479305Y53219D01*
X479336Y53257D01*
X479362Y53292D01*
X479384Y53330D01*
X479403Y53365D01*
X479419Y53393D01*
X479428Y53415D01*
X479434Y53431D01*
X479438Y53437D01*
X479453Y53485D01*
X479466Y53532D01*
X479475Y53576D01*
X479482Y53621D01*
X479485Y53655D01*
X479488Y53684D01*
Y53703D01*
Y53706D01*
Y53709D01*
X479485Y53779D01*
X479475Y53842D01*
X479463Y53902D01*
X479450Y53952D01*
X479434Y53993D01*
X479422Y54025D01*
X479415Y54035D01*
X479412Y54044D01*
X479409Y54047D01*
Y54050D01*
X479378Y54107D01*
X479343Y54158D01*
X479308Y54202D01*
X479273Y54237D01*
X479242Y54268D01*
X479213Y54291D01*
X479197Y54306D01*
X479194Y54309D01*
X479191D01*
X479137Y54347D01*
X479080Y54379D01*
X479024Y54408D01*
X478973Y54430D01*
X478929Y54449D01*
X478891Y54461D01*
X478878Y54464D01*
X478869Y54467D01*
X478862Y54471D01*
X478859D01*
X478787Y54490D01*
X478714Y54502D01*
X478648Y54515D01*
X478584Y54521D01*
X478527Y54524D01*
X478505D01*
X478486Y54528D01*
D02*
G37*
G36*
X473039D02*
X473001D01*
X472928Y54524D01*
X472858Y54521D01*
X472798Y54515D01*
X472745Y54505D01*
X472700Y54496D01*
X472669Y54490D01*
X472656Y54487D01*
X472647D01*
X472644Y54483D01*
X472640D01*
X472583Y54464D01*
X472530Y54449D01*
X472482Y54426D01*
X472441Y54411D01*
X472406Y54395D01*
X472381Y54382D01*
X472366Y54373D01*
X472359Y54370D01*
X472315Y54341D01*
X472274Y54313D01*
X472236Y54287D01*
X472204Y54259D01*
X472179Y54237D01*
X472157Y54218D01*
X472144Y54205D01*
X472141Y54202D01*
X472106Y54167D01*
X472075Y54133D01*
X472046Y54098D01*
X472021Y54066D01*
X472002Y54041D01*
X471986Y54022D01*
X471977Y54009D01*
X471974Y54003D01*
X472318Y53709D01*
X472362Y53772D01*
X472406Y53829D01*
X472454Y53880D01*
X472495Y53918D01*
X472533Y53952D01*
X472565Y53975D01*
X472583Y53990D01*
X472587Y53993D01*
X472590D01*
X472653Y54028D01*
X472719Y54057D01*
X472786Y54076D01*
X472846Y54088D01*
X472899Y54095D01*
X472925Y54098D01*
X472944Y54101D01*
X472982D01*
X473067Y54095D01*
X473143Y54082D01*
X473209Y54063D01*
X473263Y54044D01*
X473307Y54022D01*
X473339Y54003D01*
X473348Y53993D01*
X473358Y53990D01*
X473364Y53984D01*
X473389Y53962D01*
X473411Y53937D01*
X473449Y53883D01*
X473475Y53826D01*
X473490Y53772D01*
X473503Y53725D01*
X473506Y53703D01*
Y53684D01*
X473509Y53671D01*
Y53659D01*
Y53652D01*
Y53649D01*
Y53618D01*
Y53583D01*
X473503Y53548D01*
X473487Y53485D01*
X473462Y53428D01*
X473437Y53381D01*
X473408Y53343D01*
X473383Y53314D01*
X473367Y53298D01*
X473364Y53295D01*
X473361Y53292D01*
X473332Y53270D01*
X473298Y53251D01*
X473228Y53219D01*
X473152Y53197D01*
X473080Y53181D01*
X473013Y53172D01*
X472985Y53169D01*
X472960D01*
X472937Y53166D01*
X472580D01*
Y52739D01*
X472978D01*
X473032Y52733D01*
X473083Y52726D01*
X473127Y52720D01*
X473171Y52711D01*
X473209Y52698D01*
X473247Y52685D01*
X473279Y52676D01*
X473307Y52663D01*
X473329Y52650D01*
X473351Y52641D01*
X473367Y52628D01*
X473383Y52622D01*
X473392Y52616D01*
X473396Y52609D01*
X473399D01*
X473427Y52584D01*
X473456Y52556D01*
X473478Y52527D01*
X473497Y52496D01*
X473525Y52433D01*
X473544Y52372D01*
X473557Y52319D01*
X473560Y52293D01*
X473563Y52275D01*
X473566Y52255D01*
Y52243D01*
Y52237D01*
Y52233D01*
Y52199D01*
X473563Y52154D01*
X473560Y52110D01*
X473541Y52034D01*
X473516Y51968D01*
X473487Y51914D01*
X473459Y51870D01*
X473434Y51838D01*
X473424Y51829D01*
X473415Y51819D01*
X473411Y51816D01*
X473408Y51813D01*
X473377Y51788D01*
X473342Y51769D01*
X473269Y51734D01*
X473193Y51712D01*
X473121Y51693D01*
X473054Y51684D01*
X473026Y51680D01*
X473001D01*
X472978Y51677D01*
X472950D01*
X472849Y51684D01*
X472764Y51696D01*
X472722Y51706D01*
X472688Y51715D01*
X472653Y51725D01*
X472625Y51737D01*
X472596Y51750D01*
X472574Y51759D01*
X472555Y51769D01*
X472536Y51778D01*
X472523Y51788D01*
X472514Y51791D01*
X472511Y51797D01*
X472508D01*
X472451Y51845D01*
X472397Y51895D01*
X472346Y51949D01*
X472305Y51996D01*
X472274Y52041D01*
X472249Y52075D01*
X472239Y52088D01*
X472233Y52097D01*
X472226Y52104D01*
Y52107D01*
X471850Y51816D01*
X471907Y51737D01*
X471936Y51702D01*
X471964Y51671D01*
X471986Y51643D01*
X472005Y51623D01*
X472018Y51611D01*
X472021Y51605D01*
X472059Y51567D01*
X472097Y51535D01*
X472135Y51503D01*
X472173Y51478D01*
X472201Y51456D01*
X472226Y51437D01*
X472242Y51428D01*
X472249Y51424D01*
X472299Y51396D01*
X472353Y51371D01*
X472403Y51349D01*
X472451Y51333D01*
X472492Y51317D01*
X472523Y51307D01*
X472536Y51304D01*
X472546Y51301D01*
X472549Y51298D01*
X472552D01*
X472618Y51282D01*
X472685Y51270D01*
X472751Y51263D01*
X472811Y51257D01*
X472865Y51254D01*
X472887Y51251D01*
X472944D01*
X473042Y51254D01*
X473130Y51260D01*
X473212Y51270D01*
X473282Y51282D01*
X473314Y51289D01*
X473339Y51295D01*
X473364Y51298D01*
X473383Y51304D01*
X473399Y51307D01*
X473411Y51311D01*
X473418Y51314D01*
X473421D01*
X473500Y51342D01*
X473569Y51371D01*
X473633Y51402D01*
X473686Y51434D01*
X473727Y51462D01*
X473759Y51485D01*
X473772Y51491D01*
X473781Y51497D01*
X473784Y51503D01*
X473787D01*
X473841Y51551D01*
X473889Y51601D01*
X473930Y51649D01*
X473961Y51696D01*
X473986Y51734D01*
X474006Y51766D01*
X474012Y51778D01*
X474018Y51788D01*
X474021Y51791D01*
Y51794D01*
X474050Y51860D01*
X474069Y51927D01*
X474085Y51990D01*
X474094Y52047D01*
X474100Y52097D01*
Y52120D01*
X474103Y52139D01*
Y52173D01*
X474100Y52237D01*
X474094Y52293D01*
X474085Y52347D01*
X474075Y52391D01*
X474065Y52429D01*
X474056Y52458D01*
X474050Y52474D01*
X474047Y52480D01*
X474024Y52530D01*
X474002Y52575D01*
X473977Y52613D01*
X473952Y52647D01*
X473930Y52673D01*
X473914Y52695D01*
X473901Y52707D01*
X473898Y52711D01*
X473860Y52745D01*
X473825Y52777D01*
X473787Y52802D01*
X473753Y52828D01*
X473724Y52843D01*
X473702Y52859D01*
X473686Y52865D01*
X473680Y52869D01*
X473633Y52891D01*
X473588Y52910D01*
X473544Y52925D01*
X473503Y52938D01*
X473471Y52948D01*
X473443Y52954D01*
X473427Y52960D01*
X473421D01*
Y52982D01*
X473468Y52995D01*
X473513Y53008D01*
X473554Y53023D01*
X473588Y53036D01*
X473620Y53049D01*
X473642Y53058D01*
X473655Y53065D01*
X473661Y53068D01*
X473702Y53093D01*
X473740Y53118D01*
X473772Y53144D01*
X473803Y53166D01*
X473825Y53188D01*
X473841Y53203D01*
X473854Y53216D01*
X473857Y53219D01*
X473889Y53257D01*
X473914Y53292D01*
X473936Y53330D01*
X473955Y53365D01*
X473971Y53393D01*
X473980Y53415D01*
X473986Y53431D01*
X473990Y53437D01*
X474006Y53485D01*
X474018Y53532D01*
X474028Y53576D01*
X474034Y53621D01*
X474037Y53655D01*
X474040Y53684D01*
Y53703D01*
Y53706D01*
Y53709D01*
X474037Y53779D01*
X474028Y53842D01*
X474015Y53902D01*
X474002Y53952D01*
X473986Y53993D01*
X473974Y54025D01*
X473968Y54035D01*
X473964Y54044D01*
X473961Y54047D01*
Y54050D01*
X473930Y54107D01*
X473895Y54158D01*
X473860Y54202D01*
X473825Y54237D01*
X473794Y54268D01*
X473765Y54291D01*
X473749Y54306D01*
X473746Y54309D01*
X473743D01*
X473690Y54347D01*
X473633Y54379D01*
X473576Y54408D01*
X473525Y54430D01*
X473481Y54449D01*
X473443Y54461D01*
X473430Y54464D01*
X473421Y54467D01*
X473415Y54471D01*
X473411D01*
X473339Y54490D01*
X473266Y54502D01*
X473200Y54515D01*
X473137Y54521D01*
X473080Y54524D01*
X473058D01*
X473039Y54528D01*
D02*
G37*
G36*
X483946Y116339D02*
X483437D01*
Y114989D01*
X482385D01*
Y116339D01*
X481876D01*
Y113169D01*
X482385D01*
Y114563D01*
X483437D01*
Y113169D01*
X483946D01*
Y116339D01*
D02*
G37*
G36*
X481437D02*
X480909D01*
X480485Y114740D01*
X480210Y113662D01*
X480182D01*
X479904Y114740D01*
X479487Y116339D01*
X478937D01*
X479831Y113169D01*
X480542D01*
X481437Y116339D01*
D02*
G37*
G36*
X515192Y62402D02*
X515154D01*
X515062Y62398D01*
X514974Y62392D01*
X514892Y62379D01*
X514816Y62364D01*
X514743Y62348D01*
X514677Y62329D01*
X514617Y62307D01*
X514563Y62285D01*
X514516Y62262D01*
X514474Y62240D01*
X514437Y62221D01*
X514408Y62206D01*
X514386Y62190D01*
X514367Y62177D01*
X514358Y62171D01*
X514354Y62168D01*
X514304Y62120D01*
X514260Y62070D01*
X514219Y62019D01*
X514187Y61962D01*
X514158Y61905D01*
X514133Y61849D01*
X514114Y61792D01*
X514102Y61738D01*
X514089Y61684D01*
X514080Y61637D01*
X514073Y61593D01*
X514067Y61558D01*
Y61526D01*
X514064Y61501D01*
Y61488D01*
Y61482D01*
X514067Y61425D01*
X514070Y61368D01*
X514076Y61318D01*
X514086Y61270D01*
X514092Y61232D01*
X514099Y61204D01*
X514102Y61185D01*
X514105Y61182D01*
Y61179D01*
X514124Y61128D01*
X514146Y61077D01*
X514168Y61033D01*
X514190Y60995D01*
X514212Y60964D01*
X514228Y60942D01*
X514241Y60926D01*
X514244Y60919D01*
X514282Y60878D01*
X514323Y60840D01*
X514364Y60806D01*
X514405Y60777D01*
X514440Y60752D01*
X514468Y60736D01*
X514487Y60724D01*
X514490Y60720D01*
X514494D01*
X514553Y60692D01*
X514620Y60667D01*
X514683Y60648D01*
X514743Y60632D01*
X514797Y60619D01*
X514819Y60613D01*
X514838Y60610D01*
X514854Y60607D01*
X514866D01*
X514873Y60603D01*
X514876D01*
X515220Y60547D01*
X515271Y60537D01*
X515321Y60528D01*
X515366Y60515D01*
X515404Y60502D01*
X515442Y60490D01*
X515476Y60474D01*
X515505Y60461D01*
X515530Y60449D01*
X515552Y60436D01*
X515574Y60423D01*
X515590Y60414D01*
X515603Y60404D01*
X515618Y60392D01*
X515625Y60386D01*
X515666Y60341D01*
X515694Y60291D01*
X515716Y60237D01*
X515729Y60186D01*
X515738Y60142D01*
X515742Y60107D01*
X515745Y60092D01*
Y60082D01*
Y60076D01*
Y60073D01*
X515742Y60025D01*
X515738Y59984D01*
X515720Y59905D01*
X515694Y59839D01*
X515663Y59785D01*
X515631Y59741D01*
X515606Y59709D01*
X515587Y59690D01*
X515584Y59687D01*
X515581Y59684D01*
X515549Y59659D01*
X515514Y59640D01*
X515442Y59605D01*
X515366Y59583D01*
X515290Y59564D01*
X515223Y59554D01*
X515195Y59551D01*
X515173D01*
X515151Y59548D01*
X515122D01*
X515028Y59551D01*
X514939Y59564D01*
X514860Y59580D01*
X514794Y59599D01*
X514762Y59608D01*
X514737Y59618D01*
X514715Y59627D01*
X514692Y59633D01*
X514680Y59640D01*
X514667Y59646D01*
X514661Y59649D01*
X514658D01*
X514582Y59693D01*
X514512Y59741D01*
X514446Y59795D01*
X514389Y59848D01*
X514339Y59896D01*
X514320Y59915D01*
X514304Y59934D01*
X514291Y59946D01*
X514282Y59959D01*
X514275Y59965D01*
X514272Y59968D01*
X513944Y59655D01*
X514016Y59570D01*
X514092Y59494D01*
X514171Y59428D01*
X514244Y59374D01*
X514279Y59349D01*
X514310Y59330D01*
X514339Y59311D01*
X514361Y59295D01*
X514380Y59286D01*
X514396Y59276D01*
X514405Y59273D01*
X514408Y59270D01*
X514462Y59245D01*
X514519Y59223D01*
X514636Y59185D01*
X514753Y59159D01*
X514806Y59150D01*
X514860Y59144D01*
X514911Y59137D01*
X514958Y59131D01*
X514999Y59128D01*
X515034D01*
X515062Y59125D01*
X515103D01*
X515204Y59128D01*
X515299Y59134D01*
X515381Y59147D01*
X515419Y59153D01*
X515454Y59159D01*
X515486Y59166D01*
X515514Y59172D01*
X515539Y59178D01*
X515558Y59185D01*
X515574Y59188D01*
X515587Y59191D01*
X515593Y59194D01*
X515596D01*
X515672Y59223D01*
X515745Y59254D01*
X515805Y59286D01*
X515859Y59317D01*
X515900Y59346D01*
X515931Y59368D01*
X515941Y59377D01*
X515950Y59384D01*
X515953Y59390D01*
X515956D01*
X516010Y59441D01*
X516054Y59494D01*
X516092Y59545D01*
X516124Y59592D01*
X516149Y59637D01*
X516168Y59668D01*
X516175Y59684D01*
X516178Y59693D01*
X516181Y59697D01*
Y59700D01*
X516206Y59769D01*
X516225Y59839D01*
X516238Y59905D01*
X516247Y59965D01*
X516254Y60019D01*
Y60041D01*
X516257Y60060D01*
Y60098D01*
X516254Y60161D01*
X516247Y60221D01*
X516238Y60275D01*
X516225Y60329D01*
X516213Y60379D01*
X516193Y60427D01*
X516178Y60471D01*
X516159Y60512D01*
X516140Y60547D01*
X516124Y60578D01*
X516105Y60607D01*
X516092Y60629D01*
X516080Y60645D01*
X516070Y60660D01*
X516064Y60667D01*
X516061Y60670D01*
X516023Y60711D01*
X515979Y60749D01*
X515931Y60787D01*
X515881Y60818D01*
X515830Y60847D01*
X515776Y60872D01*
X515675Y60913D01*
X515628Y60929D01*
X515584Y60945D01*
X515543Y60954D01*
X515508Y60964D01*
X515479Y60970D01*
X515457Y60976D01*
X515445Y60980D01*
X515438D01*
X515103Y61040D01*
X515050Y61049D01*
X514999Y61062D01*
X514955Y61074D01*
X514914Y61087D01*
X514876Y61100D01*
X514841Y61112D01*
X514813Y61125D01*
X514784Y61141D01*
X514762Y61150D01*
X514743Y61163D01*
X514724Y61172D01*
X514712Y61182D01*
X514696Y61194D01*
X514689Y61201D01*
X514651Y61245D01*
X514623Y61296D01*
X514604Y61346D01*
X514591Y61393D01*
X514582Y61438D01*
X514579Y61472D01*
X514576Y61485D01*
Y61495D01*
Y61501D01*
Y61504D01*
X514579Y61545D01*
X514582Y61586D01*
X514598Y61659D01*
X514623Y61719D01*
X514651Y61770D01*
X514677Y61808D01*
X514702Y61836D01*
X514718Y61852D01*
X514724Y61858D01*
X514784Y61899D01*
X514854Y61928D01*
X514926Y61950D01*
X514996Y61962D01*
X515056Y61972D01*
X515084Y61975D01*
X515106D01*
X515129Y61978D01*
X515154D01*
X515249Y61975D01*
X515334Y61962D01*
X515410Y61946D01*
X515473Y61931D01*
X515501Y61921D01*
X515527Y61912D01*
X515546Y61902D01*
X515565Y61896D01*
X515577Y61890D01*
X515587Y61883D01*
X515593Y61880D01*
X515596D01*
X515663Y61842D01*
X515720Y61798D01*
X515773Y61754D01*
X515817Y61713D01*
X515855Y61678D01*
X515884Y61646D01*
X515900Y61627D01*
X515906Y61624D01*
Y61621D01*
X516225Y61940D01*
X516159Y62016D01*
X516089Y62086D01*
X516017Y62142D01*
X515950Y62190D01*
X515887Y62228D01*
X515862Y62244D01*
X515840Y62256D01*
X515821Y62266D01*
X515808Y62272D01*
X515799Y62278D01*
X515795D01*
X515691Y62319D01*
X515584Y62351D01*
X515476Y62373D01*
X515375Y62386D01*
X515328Y62392D01*
X515287Y62395D01*
X515249Y62398D01*
X515217D01*
X515192Y62402D01*
D02*
G37*
G36*
X508208Y62348D02*
X507681D01*
X507257Y60749D01*
X506982Y59671D01*
X506954D01*
X506676Y60749D01*
X506258Y62348D01*
X505709D01*
X506603Y59178D01*
X507314D01*
X508208Y62348D01*
D02*
G37*
G36*
X513454D02*
X512948D01*
Y60398D01*
Y60329D01*
X512945Y60262D01*
Y60202D01*
X512942Y60149D01*
X512939Y60104D01*
Y60073D01*
X512936Y60060D01*
Y60050D01*
Y60047D01*
Y60044D01*
X512929Y59987D01*
X512920Y59937D01*
X512910Y59889D01*
X512898Y59851D01*
X512888Y59820D01*
X512879Y59795D01*
X512872Y59782D01*
X512869Y59776D01*
X512847Y59738D01*
X512822Y59703D01*
X512793Y59675D01*
X512768Y59649D01*
X512743Y59630D01*
X512724Y59618D01*
X512711Y59608D01*
X512705Y59605D01*
X512661Y59586D01*
X512613Y59573D01*
X512563Y59561D01*
X512515Y59554D01*
X512474Y59551D01*
X512439Y59548D01*
X512408D01*
X512338Y59551D01*
X512278Y59558D01*
X512228Y59567D01*
X512184Y59576D01*
X512149Y59586D01*
X512123Y59596D01*
X512111Y59602D01*
X512105Y59605D01*
X512067Y59630D01*
X512035Y59655D01*
X512007Y59684D01*
X511984Y59712D01*
X511966Y59738D01*
X511953Y59757D01*
X511946Y59769D01*
X511943Y59776D01*
X511924Y59820D01*
X511912Y59864D01*
X511899Y59908D01*
X511890Y59953D01*
X511883Y59987D01*
X511880Y60019D01*
X511877Y60038D01*
Y60041D01*
Y60044D01*
X511871Y60167D01*
Y60228D01*
X511868Y60281D01*
Y60329D01*
Y60348D01*
Y60366D01*
Y60379D01*
Y60389D01*
Y60395D01*
Y60398D01*
Y62348D01*
X511359D01*
Y60490D01*
X511362Y60366D01*
X511365Y60253D01*
X511368Y60199D01*
X511371Y60152D01*
X511375Y60104D01*
X511378Y60063D01*
X511381Y60025D01*
X511384Y59991D01*
X511387Y59962D01*
X511390Y59937D01*
X511393Y59918D01*
X511397Y59905D01*
Y59896D01*
Y59892D01*
X511416Y59801D01*
X511438Y59719D01*
X511460Y59646D01*
X511488Y59583D01*
X511498Y59558D01*
X511510Y59532D01*
X511520Y59513D01*
X511529Y59497D01*
X511539Y59485D01*
X511542Y59475D01*
X511548Y59469D01*
Y59466D01*
X511596Y59406D01*
X511646Y59355D01*
X511700Y59311D01*
X511751Y59273D01*
X511798Y59245D01*
X511833Y59226D01*
X511848Y59219D01*
X511858Y59213D01*
X511864Y59210D01*
X511868D01*
X511950Y59181D01*
X512041Y59159D01*
X512130Y59147D01*
X512215Y59134D01*
X512256Y59131D01*
X512291Y59128D01*
X512326D01*
X512354Y59125D01*
X512408D01*
X512525Y59128D01*
X512578Y59134D01*
X512629Y59137D01*
X512676Y59144D01*
X512721Y59153D01*
X512762Y59159D01*
X512800Y59169D01*
X512831Y59175D01*
X512860Y59181D01*
X512885Y59191D01*
X512904Y59197D01*
X512920Y59204D01*
X512932Y59207D01*
X512939Y59210D01*
X512942D01*
X513015Y59245D01*
X513081Y59286D01*
X513135Y59330D01*
X513182Y59371D01*
X513217Y59409D01*
X513242Y59438D01*
X513252Y59450D01*
X513258Y59460D01*
X513264Y59463D01*
Y59466D01*
X513302Y59532D01*
X513337Y59605D01*
X513362Y59675D01*
X513384Y59744D01*
X513397Y59804D01*
X513403Y59829D01*
X513410Y59851D01*
X513413Y59867D01*
Y59880D01*
X513416Y59889D01*
Y59892D01*
X513428Y59991D01*
X513438Y60095D01*
X513444Y60193D01*
X513451Y60287D01*
Y60329D01*
Y60370D01*
X513454Y60404D01*
Y62348D01*
D02*
G37*
G36*
X509832D02*
X508698D01*
Y59178D01*
X509915D01*
X509987Y59181D01*
X510057Y59188D01*
X510117Y59197D01*
X510171Y59210D01*
X510215Y59223D01*
X510250Y59232D01*
X510262Y59235D01*
X510272Y59238D01*
X510275Y59242D01*
X510278D01*
X510338Y59270D01*
X510392Y59298D01*
X510442Y59330D01*
X510483Y59359D01*
X510518Y59387D01*
X510540Y59409D01*
X510556Y59422D01*
X510562Y59428D01*
X510604Y59475D01*
X510641Y59523D01*
X510673Y59570D01*
X510698Y59614D01*
X510720Y59655D01*
X510733Y59684D01*
X510739Y59697D01*
X510743Y59706D01*
X510746Y59709D01*
Y59712D01*
X510768Y59776D01*
X510784Y59839D01*
X510793Y59899D01*
X510803Y59956D01*
X510806Y60003D01*
Y60022D01*
X510809Y60041D01*
Y60073D01*
X510806Y60133D01*
X510803Y60186D01*
X510793Y60240D01*
X510784Y60287D01*
X510771Y60335D01*
X510755Y60376D01*
X510739Y60414D01*
X510727Y60449D01*
X510711Y60477D01*
X510695Y60506D01*
X510679Y60528D01*
X510667Y60547D01*
X510657Y60559D01*
X510648Y60569D01*
X510645Y60575D01*
X510641Y60578D01*
X510575Y60641D01*
X510502Y60692D01*
X510427Y60733D01*
X510357Y60768D01*
X510294Y60793D01*
X510265Y60803D01*
X510243Y60809D01*
X510224Y60815D01*
X510209Y60818D01*
X510199Y60822D01*
X510196D01*
Y60844D01*
X510278Y60872D01*
X510351Y60907D01*
X510414Y60945D01*
X510464Y60983D01*
X510509Y61018D01*
X510537Y61049D01*
X510556Y61068D01*
X510562Y61071D01*
Y61074D01*
X510588Y61106D01*
X510607Y61141D01*
X510641Y61213D01*
X510667Y61286D01*
X510682Y61359D01*
X510692Y61419D01*
X510695Y61447D01*
Y61469D01*
X510698Y61492D01*
Y61504D01*
Y61514D01*
Y61517D01*
X510695Y61586D01*
X510689Y61653D01*
X510676Y61716D01*
X510660Y61776D01*
X510645Y61830D01*
X510623Y61877D01*
X510604Y61924D01*
X510581Y61966D01*
X510559Y62000D01*
X510537Y62032D01*
X510515Y62060D01*
X510499Y62082D01*
X510483Y62101D01*
X510471Y62114D01*
X510464Y62120D01*
X510461Y62124D01*
X510414Y62165D01*
X510363Y62196D01*
X510313Y62228D01*
X510256Y62253D01*
X510202Y62275D01*
X510145Y62294D01*
X510092Y62307D01*
X510038Y62319D01*
X509987Y62329D01*
X509940Y62335D01*
X509899Y62341D01*
X509864Y62345D01*
X509832Y62348D01*
D02*
G37*
%LPD*%
G36*
X509772Y61953D02*
X509845Y61940D01*
X509908Y61928D01*
X509959Y61909D01*
X510000Y61893D01*
X510028Y61877D01*
X510044Y61864D01*
X510050Y61861D01*
X510092Y61820D01*
X510123Y61773D01*
X510145Y61722D01*
X510161Y61672D01*
X510171Y61624D01*
X510174Y61586D01*
X510177Y61574D01*
Y61561D01*
Y61555D01*
Y61551D01*
Y61387D01*
X510171Y61311D01*
X510158Y61248D01*
X510136Y61194D01*
X510114Y61150D01*
X510092Y61119D01*
X510070Y61097D01*
X510057Y61081D01*
X510050Y61077D01*
X510000Y61046D01*
X509943Y61024D01*
X509883Y61008D01*
X509823Y60998D01*
X509769Y60992D01*
X509747Y60989D01*
X509728Y60986D01*
X509197D01*
Y61956D01*
X509687D01*
X509772Y61953D01*
D02*
G37*
G36*
X509848Y60610D02*
X509927Y60597D01*
X509994Y60581D01*
X510050Y60562D01*
X510092Y60540D01*
X510123Y60524D01*
X510142Y60512D01*
X510148Y60509D01*
X510174Y60487D01*
X510196Y60465D01*
X510227Y60411D01*
X510253Y60357D01*
X510272Y60300D01*
X510281Y60250D01*
X510284Y60228D01*
Y60208D01*
X510288Y60193D01*
Y60180D01*
Y60174D01*
Y60171D01*
Y60009D01*
Y59968D01*
X510281Y59930D01*
X510265Y59861D01*
X510243Y59801D01*
X510218Y59757D01*
X510193Y59719D01*
X510171Y59693D01*
X510155Y59681D01*
X510152Y59675D01*
X510148D01*
X510092Y59640D01*
X510032Y59614D01*
X509965Y59596D01*
X509902Y59583D01*
X509848Y59576D01*
X509823Y59573D01*
X509801D01*
X509785Y59570D01*
X509197D01*
Y60613D01*
X509760D01*
X509848Y60610D01*
D02*
G37*
%LPC*%
G36*
X427182Y112402D02*
X427144D01*
X427037Y112398D01*
X426936Y112383D01*
X426844Y112361D01*
X426759Y112335D01*
X426680Y112301D01*
X426607Y112266D01*
X426541Y112228D01*
X426484Y112187D01*
X426434Y112146D01*
X426389Y112108D01*
X426351Y112073D01*
X426320Y112038D01*
X426298Y112013D01*
X426279Y111991D01*
X426269Y111978D01*
X426266Y111972D01*
X426216Y111887D01*
X426171Y111798D01*
X426133Y111700D01*
X426102Y111599D01*
X426073Y111498D01*
X426051Y111393D01*
X426032Y111292D01*
X426016Y111195D01*
X426007Y111103D01*
X425997Y111018D01*
X425991Y110939D01*
X425985Y110872D01*
Y110844D01*
Y110815D01*
X425982Y110793D01*
Y110739D01*
X425985Y110600D01*
X425991Y110468D01*
X426004Y110344D01*
X426020Y110228D01*
X426039Y110120D01*
X426061Y110022D01*
X426083Y109934D01*
X426108Y109855D01*
X426130Y109782D01*
X426152Y109719D01*
X426174Y109668D01*
X426193Y109624D01*
X426209Y109589D01*
X426222Y109564D01*
X426228Y109551D01*
X426231Y109545D01*
X426282Y109472D01*
X426336Y109406D01*
X426392Y109349D01*
X426452Y109302D01*
X426516Y109260D01*
X426576Y109229D01*
X426639Y109201D01*
X426699Y109178D01*
X426756Y109159D01*
X426806Y109147D01*
X426854Y109137D01*
X426895Y109131D01*
X426930Y109128D01*
X426955Y109125D01*
X426977D01*
X427034Y109128D01*
X427084Y109131D01*
X427132Y109137D01*
X427170Y109147D01*
X427205Y109153D01*
X427227Y109159D01*
X427243Y109163D01*
X427249Y109166D01*
X427290Y109181D01*
X427328Y109197D01*
X427363Y109216D01*
X427391Y109232D01*
X427416Y109248D01*
X427432Y109260D01*
X427445Y109267D01*
X427448Y109270D01*
X427480Y109295D01*
X427505Y109324D01*
X427530Y109352D01*
X427552Y109374D01*
X427568Y109396D01*
X427581Y109412D01*
X427587Y109425D01*
X427590Y109428D01*
X427628Y109494D01*
X427647Y109526D01*
X427660Y109554D01*
X427672Y109576D01*
X427682Y109596D01*
X427685Y109608D01*
X427688Y109611D01*
X427720D01*
Y109178D01*
X428184D01*
Y110800D01*
X427107D01*
Y110417D01*
X427720D01*
Y110129D01*
Y110082D01*
X427713Y110038D01*
X427698Y109956D01*
X427672Y109883D01*
X427647Y109820D01*
X427631Y109795D01*
X427619Y109773D01*
X427606Y109754D01*
X427593Y109734D01*
X427584Y109722D01*
X427577Y109712D01*
X427574Y109709D01*
X427571Y109706D01*
X427543Y109678D01*
X427511Y109652D01*
X427480Y109630D01*
X427445Y109611D01*
X427372Y109583D01*
X427306Y109564D01*
X427243Y109551D01*
X427217Y109548D01*
X427195Y109545D01*
X427173Y109542D01*
X427148D01*
X427088Y109545D01*
X427031Y109551D01*
X426980Y109564D01*
X426936Y109576D01*
X426901Y109589D01*
X426876Y109602D01*
X426860Y109608D01*
X426854Y109611D01*
X426810Y109640D01*
X426772Y109675D01*
X426740Y109706D01*
X426712Y109741D01*
X426689Y109769D01*
X426671Y109791D01*
X426661Y109807D01*
X426658Y109813D01*
X426633Y109864D01*
X426611Y109918D01*
X426591Y109968D01*
X426579Y110016D01*
X426566Y110060D01*
X426560Y110092D01*
X426557Y110107D01*
Y110117D01*
X426554Y110120D01*
Y110123D01*
X426544Y110193D01*
X426535Y110262D01*
X426528Y110332D01*
X426525Y110392D01*
Y110445D01*
X426522Y110468D01*
Y110487D01*
Y110502D01*
Y110515D01*
Y110521D01*
Y110524D01*
Y111027D01*
X426525Y111106D01*
X426528Y111182D01*
X426535Y111251D01*
X426544Y111318D01*
X426557Y111381D01*
X426569Y111438D01*
X426582Y111488D01*
X426595Y111536D01*
X426607Y111580D01*
X426620Y111615D01*
X426633Y111646D01*
X426645Y111672D01*
X426655Y111694D01*
X426661Y111706D01*
X426667Y111716D01*
Y111719D01*
X426696Y111763D01*
X426731Y111804D01*
X426768Y111839D01*
X426806Y111867D01*
X426844Y111893D01*
X426885Y111915D01*
X426923Y111931D01*
X426964Y111946D01*
X426999Y111956D01*
X427034Y111966D01*
X427066Y111972D01*
X427094Y111975D01*
X427116D01*
X427132Y111978D01*
X427148D01*
X427195Y111975D01*
X427239Y111972D01*
X427277Y111966D01*
X427309Y111959D01*
X427337Y111950D01*
X427356Y111943D01*
X427369Y111940D01*
X427372Y111937D01*
X427407Y111921D01*
X427438Y111902D01*
X427464Y111883D01*
X427489Y111864D01*
X427508Y111849D01*
X427521Y111836D01*
X427530Y111827D01*
X427533Y111823D01*
X427577Y111766D01*
X427596Y111738D01*
X427612Y111713D01*
X427625Y111691D01*
X427637Y111672D01*
X427641Y111659D01*
X427644Y111656D01*
X427675Y111586D01*
X427688Y111555D01*
X427701Y111523D01*
X427710Y111498D01*
X427720Y111479D01*
X427723Y111466D01*
X427726Y111460D01*
X428184Y111615D01*
X428165Y111672D01*
X428143Y111729D01*
X428121Y111779D01*
X428099Y111823D01*
X428080Y111861D01*
X428064Y111890D01*
X428055Y111909D01*
X428051Y111915D01*
X428020Y111966D01*
X427985Y112013D01*
X427950Y112057D01*
X427919Y112092D01*
X427890Y112124D01*
X427868Y112146D01*
X427852Y112158D01*
X427846Y112165D01*
X427799Y112203D01*
X427748Y112237D01*
X427701Y112266D01*
X427653Y112291D01*
X427612Y112310D01*
X427577Y112323D01*
X427565Y112329D01*
X427559Y112332D01*
X427552Y112335D01*
X427549D01*
X427483Y112357D01*
X427413Y112373D01*
X427344Y112386D01*
X427280Y112392D01*
X427227Y112398D01*
X427205D01*
X427182Y112402D01*
D02*
G37*
G36*
X424629Y112348D02*
X423425D01*
Y109178D01*
X423934D01*
Y110439D01*
X424610D01*
X424692Y110442D01*
X424771Y110449D01*
X424844Y110461D01*
X424910Y110480D01*
X424974Y110499D01*
X425031Y110518D01*
X425081Y110544D01*
X425128Y110566D01*
X425166Y110588D01*
X425204Y110613D01*
X425233Y110632D01*
X425258Y110654D01*
X425277Y110670D01*
X425293Y110682D01*
X425299Y110689D01*
X425302Y110692D01*
X425343Y110743D01*
X425381Y110796D01*
X425413Y110853D01*
X425441Y110910D01*
X425463Y110967D01*
X425482Y111027D01*
X425501Y111084D01*
X425514Y111138D01*
X425523Y111191D01*
X425530Y111239D01*
X425536Y111283D01*
X425539Y111321D01*
X425542Y111349D01*
Y111393D01*
X425539Y111476D01*
X425533Y111551D01*
X425520Y111621D01*
X425504Y111691D01*
X425486Y111751D01*
X425467Y111808D01*
X425444Y111861D01*
X425422Y111909D01*
X425400Y111950D01*
X425378Y111988D01*
X425359Y112019D01*
X425340Y112045D01*
X425324Y112067D01*
X425312Y112079D01*
X425305Y112089D01*
X425302Y112092D01*
X425255Y112136D01*
X425204Y112177D01*
X425151Y112212D01*
X425094Y112240D01*
X425037Y112266D01*
X424980Y112285D01*
X424923Y112304D01*
X424866Y112316D01*
X424816Y112326D01*
X424768Y112335D01*
X424724Y112341D01*
X424686Y112345D01*
X424654D01*
X424629Y112348D01*
D02*
G37*
%LPD*%
G36*
X424616Y111918D02*
X424689Y111906D01*
X424752Y111883D01*
X424806Y111858D01*
X424854Y111823D01*
X424891Y111788D01*
X424923Y111748D01*
X424945Y111709D01*
X424967Y111669D01*
X424980Y111627D01*
X424989Y111593D01*
X424999Y111558D01*
X425002Y111533D01*
X425005Y111511D01*
Y111498D01*
Y111492D01*
Y111296D01*
X424999Y111220D01*
X424986Y111153D01*
X424961Y111097D01*
X424932Y111046D01*
X424895Y111005D01*
X424857Y110967D01*
X424812Y110939D01*
X424771Y110916D01*
X424727Y110901D01*
X424683Y110885D01*
X424645Y110875D01*
X424607Y110869D01*
X424579Y110866D01*
X424553Y110863D01*
X423934D01*
Y111924D01*
X424534D01*
X424616Y111918D01*
D02*
G37*
%LPC*%
G36*
X512197Y115945D02*
X509697D01*
Y115518D01*
X510693D01*
Y112775D01*
X511201D01*
Y115518D01*
X512197D01*
Y115945D01*
D02*
G37*
G36*
X507861D02*
X507353D01*
Y112775D01*
X509305D01*
Y113202D01*
X507861D01*
Y115945D01*
D02*
G37*
G36*
X506566D02*
X504528D01*
Y112775D01*
X505036D01*
Y114169D01*
X506427D01*
Y114596D01*
X505036D01*
Y115518D01*
X506566D01*
Y115945D01*
D02*
G37*
%LPD*%
D10*
X468619Y192569D02*
G03*
X468619Y192569I-492J0D01*
G01*
X444568Y92898D02*
G03*
X444568Y92898I-492J0D01*
G01*
X484773Y100980D02*
G03*
X484773Y100980I-492J0D01*
G01*
D11*
X419693Y207856D02*
G03*
X419693Y207856I-1500J0D01*
G01*
X326221Y65372D02*
G03*
X326221Y65372I-1500J0D01*
G01*
D12*
X393464Y147799D02*
G03*
X393464Y147799I-1118J0D01*
G01*
X492402Y221181D02*
G03*
X492402Y221181I-79J0D01*
G01*
X479173D02*
G03*
X479173Y221181I-79J0D01*
G01*
X465236D02*
G03*
X465236Y221181I-79J0D01*
G01*
X494059Y78331D02*
G03*
X494059Y78331I-500J0D01*
G01*
D13*
X544872Y209459D02*
G03*
X544315Y210015I-278J278D01*
G01*
D02*
G03*
X544872Y209459I278J-278D01*
G01*
X472929Y188602D02*
X498820Y162711D01*
X472929Y136821D02*
X498820Y162711D01*
X447039Y162711D02*
X472929Y188602D01*
X447039Y162711D02*
X472929Y136821D01*
X512139Y97665D02*
X518734D01*
X514010Y94516D02*
X518734D01*
D14*
X519591Y75671D02*
G03*
X519591Y75671I-300J0D01*
G01*
X274016Y173110D02*
Y175591D01*
Y145276D02*
Y147756D01*
X265461Y145276D02*
X274016D01*
X259842Y148200D02*
Y172667D01*
X265461Y175591D02*
X274016D01*
X271516Y181591D02*
X274016Y176591D01*
X271516Y181591D02*
X276516D01*
X274016Y176591D02*
X276516Y181591D01*
X257342Y111864D02*
X257821Y112343D01*
X254372Y114833D02*
X254852Y115313D01*
X256161Y117769D02*
X256640Y118249D01*
X253191Y120739D02*
X253671Y121219D01*
X256161Y125643D02*
X256640Y126123D01*
X253191Y128613D02*
X253671Y129093D01*
X431346Y189040D02*
X431826Y189520D01*
X434316Y186071D02*
X434796Y186550D01*
X446127Y198969D02*
X446607Y198489D01*
X443157Y195999D02*
X443637Y195519D01*
X412132Y226684D02*
Y228041D01*
X377632Y210541D02*
Y211864D01*
X402713Y210541D02*
X412132D01*
X377632Y226684D02*
Y228041D01*
X412132D01*
Y210541D02*
Y211864D01*
X377632Y210541D02*
X387051D01*
X127220Y154462D02*
X127898D01*
X127220Y150262D02*
X127898D01*
X132921Y145340D02*
X133401Y145819D01*
X135891Y142370D02*
X136370Y142849D01*
X145913Y141668D02*
X146393Y141189D01*
X148883Y144638D02*
X149363Y144158D01*
X130811Y160562D02*
X131749Y159624D01*
X142902Y148470D02*
X143840Y149408D01*
X154056Y161500D02*
X154994Y160562D01*
X141964Y171715D02*
X142902Y172653D01*
X130811Y160562D02*
X131749Y161500D01*
X141964Y149408D02*
X142902Y148470D01*
X154056Y159624D02*
X154994Y160562D01*
X142902Y172653D02*
X143840Y171715D01*
X356354Y151050D02*
X357032D01*
X356354Y155250D02*
X357032D01*
X330782Y45187D02*
Y46545D01*
X365282Y61365D02*
Y62687D01*
X330782D02*
X340200D01*
X365282Y45187D02*
Y46545D01*
X330782Y45187D02*
X365282D01*
X330782Y61365D02*
Y62687D01*
X355863D02*
X365282D01*
X395519Y141275D02*
X395999Y140795D01*
X398489Y144244D02*
X398969Y143765D01*
X388896Y165001D02*
Y166849D01*
X385669Y145749D02*
X388896D01*
X367796D02*
Y147598D01*
Y166849D02*
X371024D01*
X388896Y145749D02*
Y147598D01*
X385669Y166849D02*
X388896D01*
X367796Y165001D02*
Y166849D01*
Y145749D02*
X371024D01*
X431843Y87917D02*
Y88595D01*
X436042Y87917D02*
Y88595D01*
X498480Y189108D02*
X499158D01*
X498480Y184908D02*
X499158D01*
X509692Y86417D02*
Y87095D01*
X505492Y86417D02*
Y87095D01*
X196238Y81803D02*
Y82481D01*
X192038Y81803D02*
Y82481D01*
X30883Y176889D02*
Y177568D01*
X26684Y176889D02*
Y177568D01*
X203238Y81803D02*
Y82481D01*
X199038Y81803D02*
Y82481D01*
X37584Y169109D02*
Y170478D01*
Y151978D02*
Y153348D01*
X26983Y170478D02*
X37584D01*
X26983Y169109D02*
Y170478D01*
Y151978D02*
X37584D01*
X26983D02*
Y153348D01*
X493045Y192968D02*
Y193646D01*
X488845Y192968D02*
Y193646D01*
X202938Y74022D02*
Y75392D01*
Y56892D02*
Y58261D01*
X192338Y75392D02*
X202938D01*
X192338Y74022D02*
Y75392D01*
Y56892D02*
X202938D01*
X192338D02*
Y58261D01*
X548184Y113691D02*
X554472D01*
X533223D02*
X539218D01*
X554472Y77491D02*
Y113691D01*
X548184Y77491D02*
X554472D01*
X533223D02*
X539218D01*
X460368Y102810D02*
Y103489D01*
X456168Y102810D02*
Y103489D01*
X443045Y94936D02*
Y95615D01*
X438845Y94936D02*
Y95615D01*
X503192Y86417D02*
Y87095D01*
X498992Y86417D02*
Y87095D01*
X37883Y176889D02*
Y177568D01*
X33683Y176889D02*
Y177568D01*
D15*
X450102Y186491D02*
X453025Y183568D01*
X453526Y189916D02*
X456449Y186992D01*
X363243Y145252D02*
X366166Y148175D01*
X359819Y148676D02*
X362742Y151599D01*
X386024Y128681D02*
Y131949D01*
X376181Y128681D02*
Y131949D01*
X362638Y172731D02*
X362889Y172481D01*
X359158Y169252D02*
X359409Y169001D01*
X437378Y184109D02*
X440301Y187032D01*
X440802Y180685D02*
X443725Y183608D01*
X441315Y180172D02*
X444238Y183095D01*
X444739Y176748D02*
X447662Y179671D01*
X472039Y193434D02*
X474962Y190511D01*
X475463Y196859D02*
X478386Y193935D01*
X479075Y193996D02*
Y198130D01*
X483917Y193996D02*
Y198130D01*
X503534Y158050D02*
X507668D01*
X503534Y153208D02*
X507668D01*
X439740Y149463D02*
X442663Y152386D01*
X443164Y146039D02*
X446087Y148962D01*
X460606Y131639D02*
X463529Y128716D01*
X464030Y135063D02*
X466953Y132140D01*
X454698Y132899D02*
X457621Y135822D01*
X458122Y129474D02*
X461045Y132398D01*
X473481Y87101D02*
Y91235D01*
X478323Y87101D02*
Y91235D01*
X38205Y145161D02*
Y149295D01*
X33362Y145161D02*
Y149295D01*
X472638Y85374D02*
Y88642D01*
X462795Y85374D02*
Y88642D01*
X521793Y99024D02*
Y103157D01*
X516950Y99024D02*
Y103157D01*
X31705Y145161D02*
Y149295D01*
X26862Y145161D02*
Y149295D01*
X521793Y89024D02*
Y93158D01*
X516950Y89024D02*
Y93158D01*
X502805Y93669D02*
X506939D01*
X502805Y98512D02*
X506939D01*
X443403Y77079D02*
Y77433D01*
X438482Y77079D02*
Y77433D01*
X197059Y50075D02*
Y54209D01*
X192217Y50075D02*
Y54209D01*
X203559Y50075D02*
Y54209D01*
X198716Y50075D02*
Y54209D01*
D16*
X342722Y109988D02*
X348846Y103864D01*
X330640Y122071D02*
X337432Y115278D01*
X366106Y121124D02*
Y131703D01*
X347610Y139041D02*
X358924D01*
D17*
X445553Y96441D02*
Y97425D01*
X446537D01*
X460907D02*
X461891D01*
Y96441D02*
Y97425D01*
X445553Y77346D02*
X446537D01*
X445553D02*
Y78331D01*
X461891Y77346D02*
Y78331D01*
X460907Y77346D02*
X461891D01*
D18*
X530131Y217240D02*
X538483Y208888D01*
X543633Y217657D02*
X545443Y215848D01*
X543633Y217657D02*
X545582Y219606D01*
X537091Y224199D02*
X538901Y222390D01*
X540849Y224339D01*
X545582Y219606D01*
D19*
X257824Y188442D02*
X256512D01*
X257168D01*
Y185162D01*
X256512Y184506D01*
X255856D01*
X255200Y185162D01*
X261760Y184506D02*
X259136D01*
X261760Y187130D01*
Y187786D01*
X261104Y188442D01*
X259792D01*
X259136Y187786D01*
X247387Y100914D02*
X244604Y103697D01*
X245995Y105089D01*
X246923D01*
X247850Y104161D01*
Y103233D01*
X246459Y101842D01*
X247387Y102770D02*
X249242D01*
X250170Y103697D02*
X251097Y104625D01*
X250634Y104161D01*
X247850Y106944D01*
Y106016D01*
X252489D02*
X253416Y106944D01*
X252953Y106480D01*
X250170Y109263D01*
Y108336D01*
X244167Y106750D02*
X241384Y109533D01*
X242775Y110924D01*
X243703D01*
X244631Y109996D01*
Y109069D01*
X243239Y107677D01*
X244167Y108605D02*
X246022D01*
X246950Y109533D02*
X247878Y110460D01*
X247414Y109996D01*
X244631Y112779D01*
Y111852D01*
X246950Y114171D02*
Y115099D01*
X247878Y116026D01*
X248805Y116026D01*
X250660Y114171D01*
X250661Y113243D01*
X249733Y112316D01*
X248805D01*
X246950Y114171D01*
X243773Y114624D02*
X240990Y117407D01*
X242382Y118798D01*
X243309D01*
X244237Y117870D01*
Y116943D01*
X242846Y115551D01*
X243773Y116479D02*
X245628D01*
X246556Y117407D02*
X247484Y118334D01*
X247020Y117870D01*
X244237Y120653D01*
Y119726D01*
X246556Y122045D02*
Y122973D01*
X247484Y123900D01*
X248411Y123900D01*
X248875Y123436D01*
Y122509D01*
X248411Y122045D01*
X248875Y122509D01*
X249803Y122509D01*
X250267Y122045D01*
X250267Y121117D01*
X249339Y120190D01*
X248411D01*
X455997Y193890D02*
Y194817D01*
X455069Y195745D01*
X454142D01*
X452286Y193890D01*
Y192962D01*
X453214Y192034D01*
X454142D01*
X454606Y190643D02*
X455533Y189715D01*
X455069Y190179D01*
X457853Y192962D01*
X456925D01*
X461563Y189251D02*
X459708Y191107D01*
X458316Y189715D01*
X459708Y189251D01*
X460172Y188787D01*
Y187860D01*
X459244Y186932D01*
X458316Y186932D01*
X457389Y187860D01*
Y188787D01*
X422716Y175051D02*
X419933Y177834D01*
X421324Y179226D01*
X422252D01*
X423180Y178298D01*
Y177370D01*
X421788Y175979D01*
X422716Y176906D02*
X424571D01*
X425499Y177834D02*
X426427Y178762D01*
X425963Y178298D01*
X423180Y181081D01*
Y180153D01*
X429210Y181545D02*
X426427Y184328D01*
Y181545D01*
X428282Y183400D01*
X431744Y207599D02*
X434527Y210382D01*
X435918Y208991D01*
Y208063D01*
X434991Y207135D01*
X434063D01*
X432672Y208527D01*
X433599Y207599D02*
Y205744D01*
X434527Y204816D02*
X435455Y203888D01*
X434991Y204352D01*
X437774Y207135D01*
X436846D01*
X441484Y203425D02*
X439629Y205280D01*
X438238Y203888D01*
X439629Y203425D01*
X440093Y202961D01*
Y202033D01*
X439165Y201105D01*
X438238Y201105D01*
X437310Y202033D01*
Y202961D01*
X437271Y164173D02*
Y160893D01*
X437927Y160237D01*
X439239D01*
X439895Y160893D01*
Y164173D01*
X441207Y163517D02*
X441863Y164173D01*
X443175D01*
X443831Y163517D01*
Y160893D01*
X443175Y160237D01*
X441863D01*
X441207Y160893D01*
Y163517D01*
X369029Y227165D02*
X367717D01*
X368373D01*
Y223885D01*
X367717Y223229D01*
X367061D01*
X366405Y223885D01*
X372309Y223229D02*
Y227165D01*
X370341Y225197D01*
X372965D01*
X113846Y153280D02*
X113190Y153936D01*
X111878D01*
X111222Y153280D01*
Y150657D01*
X111878Y150001D01*
X113190D01*
X113846Y150657D01*
X115158Y150001D02*
X116470D01*
X115814D01*
Y153936D01*
X115158Y153280D01*
X118438Y153936D02*
X121061D01*
Y153280D01*
X118438Y150657D01*
Y150001D01*
X124452Y135757D02*
X123525D01*
X122597Y134829D01*
Y133901D01*
X124452Y132046D01*
X125380D01*
X126308Y132974D01*
Y133901D01*
X129555Y136221D02*
X127699Y134365D01*
Y138076D01*
X127235Y138540D01*
X126308Y138540D01*
X125380Y137612D01*
Y136684D01*
X130482Y137148D02*
X131410Y138076D01*
X130946Y137612D01*
X128163Y140395D01*
Y139467D01*
X154978Y137035D02*
Y137963D01*
X154050Y138890D01*
X153122D01*
X151267Y137035D01*
Y136107D01*
X152195Y135180D01*
X153122D01*
X155442Y131933D02*
X153586Y133788D01*
X157297D01*
X157761Y134252D01*
X157761Y135180D01*
X156833Y136107D01*
X155905D01*
X161008Y131933D02*
X159152Y133788D01*
X157761Y132397D01*
X159152Y131933D01*
X159616Y131469D01*
Y130541D01*
X158688Y129614D01*
X157761Y129614D01*
X156833Y130541D01*
Y131469D01*
X131355Y180303D02*
Y177023D01*
X132011Y176367D01*
X133323D01*
X133979Y177023D01*
Y180303D01*
X135291Y179647D02*
X135947Y180303D01*
X137259D01*
X137915Y179647D01*
Y178991D01*
X137259Y178335D01*
X136603D01*
X137259D01*
X137915Y177679D01*
Y177023D01*
X137259Y176367D01*
X135947D01*
X135291Y177023D01*
X350920Y148556D02*
X350264Y149212D01*
X348952D01*
X348296Y148556D01*
Y145932D01*
X348952Y145276D01*
X350264D01*
X350920Y145932D01*
X354855Y145276D02*
X352231D01*
X354855Y147900D01*
Y148556D01*
X354199Y149212D01*
X352887D01*
X352231Y148556D01*
X356167D02*
X356823Y149212D01*
X358135D01*
X358791Y148556D01*
Y145932D01*
X358135Y145276D01*
X356823D01*
X356167Y145932D01*
Y148556D01*
X343262Y155018D02*
X342606Y155674D01*
X341294D01*
X340638Y155018D01*
Y152394D01*
X341294Y151739D01*
X342606D01*
X343262Y152394D01*
X344573Y151739D02*
X345885D01*
X345229D01*
Y155674D01*
X344573Y155018D01*
X347853Y152394D02*
X348509Y151739D01*
X349821D01*
X350477Y152394D01*
Y155018D01*
X349821Y155674D01*
X348509D01*
X347853Y155018D01*
Y154362D01*
X348509Y153706D01*
X350477D01*
X390617Y125721D02*
X389962Y126377D01*
X388650D01*
X387994Y125721D01*
Y123098D01*
X388650Y122442D01*
X389962D01*
X390617Y123098D01*
X391930Y122442D02*
X393241D01*
X392585D01*
Y126377D01*
X391930Y125721D01*
X397833Y126377D02*
X396521Y125721D01*
X395209Y124409D01*
Y123098D01*
X395865Y122442D01*
X397177D01*
X397833Y123098D01*
Y123753D01*
X397177Y124409D01*
X395209D01*
X335033Y139035D02*
X334377Y139691D01*
X333066D01*
X332410Y139035D01*
Y136411D01*
X333066Y135755D01*
X334377D01*
X335033Y136411D01*
X336345Y135755D02*
X337657D01*
X337001D01*
Y139691D01*
X336345Y139035D01*
X339625D02*
X340281Y139691D01*
X341593D01*
X342249Y139035D01*
Y138379D01*
X341593Y137723D01*
X342249Y137067D01*
Y136411D01*
X341593Y135755D01*
X340281D01*
X339625Y136411D01*
Y137067D01*
X340281Y137723D01*
X339625Y138379D01*
Y139035D01*
X340281Y137723D02*
X341593D01*
X325424Y76536D02*
X324112D01*
X324768D01*
Y73256D01*
X324112Y72600D01*
X323456D01*
X322800Y73256D01*
X326736Y75880D02*
X327392Y76536D01*
X328704D01*
X329360Y75880D01*
Y75224D01*
X328704Y74568D01*
X328048D01*
X328704D01*
X329360Y73912D01*
Y73256D01*
X328704Y72600D01*
X327392D01*
X326736Y73256D01*
X391700Y151300D02*
Y155236D01*
X393668D01*
X394324Y154580D01*
Y153268D01*
X393668Y152612D01*
X391700D01*
X393012D02*
X394324Y151300D01*
X395636D02*
X396948D01*
X396292D01*
Y155236D01*
X395636Y154580D01*
X401539Y151300D02*
X398916D01*
X401539Y153924D01*
Y154580D01*
X400883Y155236D01*
X399571D01*
X398916Y154580D01*
X366600Y175136D02*
Y171856D01*
X367256Y171200D01*
X368568D01*
X369224Y171856D01*
Y175136D01*
X372504Y171200D02*
Y175136D01*
X370536Y173168D01*
X373160D01*
X356624Y184380D02*
X355968Y185036D01*
X354656D01*
X354000Y184380D01*
Y181756D01*
X354656Y181100D01*
X355968D01*
X356624Y181756D01*
X360560Y181100D02*
X357936D01*
X360560Y183724D01*
Y184380D01*
X359904Y185036D01*
X358592D01*
X357936Y184380D01*
X363839Y181100D02*
Y185036D01*
X361872Y183068D01*
X364495D01*
X492391Y213385D02*
Y209449D01*
X495015D01*
X498950Y213385D02*
X496326D01*
Y209449D01*
X498950D01*
X496326Y211417D02*
X497638D01*
X500262Y213385D02*
Y209449D01*
X502230D01*
X502886Y210105D01*
Y212729D01*
X502230Y213385D01*
X500262D01*
X504198Y212729D02*
X504854Y213385D01*
X506166D01*
X506822Y212729D01*
Y212073D01*
X506166Y211417D01*
X505510D01*
X506166D01*
X506822Y210761D01*
Y210105D01*
X506166Y209449D01*
X504854D01*
X504198Y210105D01*
X475855Y213385D02*
Y209449D01*
X478479D01*
X482415Y213385D02*
X479791D01*
Y209449D01*
X482415D01*
X479791Y211417D02*
X481103D01*
X483727Y213385D02*
Y209449D01*
X485695D01*
X486351Y210105D01*
Y212729D01*
X485695Y213385D01*
X483727D01*
X490286Y209449D02*
X487663D01*
X490286Y212073D01*
Y212729D01*
X489630Y213385D01*
X488318D01*
X487663Y212729D01*
X459976Y212991D02*
Y209056D01*
X462600D01*
X466535Y212991D02*
X463912D01*
Y209056D01*
X466535D01*
X463912Y211024D02*
X465224D01*
X467847Y212991D02*
Y209056D01*
X469815D01*
X470471Y209712D01*
Y212335D01*
X469815Y212991D01*
X467847D01*
X471783Y209056D02*
X473095D01*
X472439D01*
Y212991D01*
X471783Y212335D01*
X186670Y56926D02*
X189950D01*
X190606Y57582D01*
Y58894D01*
X189950Y59550D01*
X186670D01*
Y63486D02*
X187326Y62174D01*
X188638Y60862D01*
X189950D01*
X190606Y61518D01*
Y62830D01*
X189950Y63486D01*
X189294D01*
X188638Y62830D01*
Y60862D01*
X190606Y65454D02*
X186670D01*
Y66766D02*
X190606D01*
X187982Y64798D02*
Y66766D01*
Y67422D01*
X189294Y64798D02*
Y67422D01*
X190606Y71357D02*
Y68733D01*
X187982Y71357D01*
X187326D01*
X186670Y70701D01*
Y69389D01*
X187326Y68733D01*
X21316Y152013D02*
X24595D01*
X25251Y152669D01*
Y153981D01*
X24595Y154637D01*
X21316D01*
Y158572D02*
X21972Y157261D01*
X23283Y155949D01*
X24595D01*
X25251Y156605D01*
Y157916D01*
X24595Y158572D01*
X23939D01*
X23283Y157916D01*
Y155949D01*
X25251Y160540D02*
X21316D01*
Y161852D02*
X25251D01*
X22627Y159884D02*
Y161852D01*
Y162508D01*
X23939Y159884D02*
Y162508D01*
X25251Y163820D02*
Y165132D01*
Y164476D01*
X21316D01*
X21972Y163820D01*
X209106Y76426D02*
X205170D01*
Y78394D01*
X205826Y79050D01*
X207138D01*
X207794Y78394D01*
Y76426D01*
Y77738D02*
X209106Y79050D01*
X208450Y80362D02*
X209106Y81018D01*
Y82330D01*
X208450Y82986D01*
X205826D01*
X205170Y82330D01*
Y81018D01*
X205826Y80362D01*
X206482D01*
X207138Y81018D01*
Y82986D01*
X209106Y84954D02*
X205170D01*
Y86266D02*
X209106D01*
X206482Y84298D02*
Y86266D01*
Y86922D01*
X207794Y84298D02*
Y86922D01*
X209106Y90857D02*
Y88233D01*
X206482Y90857D01*
X205826D01*
X205170Y90201D01*
Y88889D01*
X205826Y88233D01*
X43751Y171513D02*
X39816D01*
Y173481D01*
X40472Y174137D01*
X41783D01*
X42439Y173481D01*
Y171513D01*
Y172825D02*
X43751Y174137D01*
X43095Y175449D02*
X43751Y176104D01*
Y177416D01*
X43095Y178072D01*
X40472D01*
X39816Y177416D01*
Y176104D01*
X40472Y175449D01*
X41127D01*
X41783Y176104D01*
Y178072D01*
X43751Y180040D02*
X39816D01*
Y181352D02*
X43751D01*
X41127Y179384D02*
Y181352D01*
Y182008D01*
X42439Y179384D02*
Y182008D01*
X43751Y183320D02*
Y184632D01*
Y183976D01*
X39816D01*
X40472Y183320D01*
X190106Y76926D02*
X186170D01*
Y78894D01*
X186826Y79550D01*
X188138D01*
X188794Y78894D01*
Y76926D01*
Y78238D02*
X190106Y79550D01*
X186826Y80862D02*
X186170Y81518D01*
Y82830D01*
X186826Y83486D01*
X187482D01*
X188138Y82830D01*
X188794Y83486D01*
X189450D01*
X190106Y82830D01*
Y81518D01*
X189450Y80862D01*
X188794D01*
X188138Y81518D01*
X187482Y80862D01*
X186826D01*
X188138Y81518D02*
Y82830D01*
X190106Y85454D02*
X186170D01*
Y86766D02*
X190106D01*
X187482Y84798D02*
Y86766D01*
Y87422D01*
X188794Y84798D02*
Y87422D01*
X190106Y91357D02*
Y88733D01*
X187482Y91357D01*
X186826D01*
X186170Y90701D01*
Y89389D01*
X186826Y88733D01*
X24751Y172013D02*
X20816D01*
Y173981D01*
X21472Y174637D01*
X22783D01*
X23439Y173981D01*
Y172013D01*
Y173325D02*
X24751Y174637D01*
X21472Y175949D02*
X20816Y176604D01*
Y177916D01*
X21472Y178572D01*
X22128D01*
X22783Y177916D01*
X23439Y178572D01*
X24095D01*
X24751Y177916D01*
Y176604D01*
X24095Y175949D01*
X23439D01*
X22783Y176604D01*
X22128Y175949D01*
X21472D01*
X22783Y176604D02*
Y177916D01*
X24751Y180540D02*
X20816D01*
Y181852D02*
X24751D01*
X22128Y179884D02*
Y181852D01*
Y182508D01*
X23439Y179884D02*
Y182508D01*
X24751Y183820D02*
Y185132D01*
Y184476D01*
X20816D01*
X21472Y183820D01*
X488600Y201800D02*
Y205736D01*
X490568D01*
X491224Y205080D01*
Y203768D01*
X490568Y203112D01*
X488600D01*
X489912D02*
X491224Y201800D01*
X492536Y205736D02*
X495160D01*
Y205080D01*
X492536Y202456D01*
Y201800D01*
X493600Y192500D02*
Y196436D01*
X495568D01*
X496224Y195780D01*
Y194468D01*
X495568Y193812D01*
X493600D01*
X494912D02*
X496224Y192500D01*
X500160Y196436D02*
X498848Y195780D01*
X497536Y194468D01*
Y193156D01*
X498192Y192500D01*
X499504D01*
X500160Y193156D01*
Y193812D01*
X499504Y194468D01*
X497536D01*
X174936Y53280D02*
X174281Y53936D01*
X172969D01*
X172313Y53280D01*
Y50657D01*
X172969Y50001D01*
X174281D01*
X174936Y50657D01*
X178872Y50001D02*
X176248D01*
X178872Y52624D01*
Y53280D01*
X178216Y53936D01*
X176904D01*
X176248Y53280D01*
X180184D02*
X180840Y53936D01*
X182152D01*
X182808Y53280D01*
Y52624D01*
X182152Y51968D01*
X181496D01*
X182152D01*
X182808Y51313D01*
Y50657D01*
X182152Y50001D01*
X180840D01*
X180184Y50657D01*
X184776Y50001D02*
Y53936D01*
X186088D02*
Y50001D01*
X184120Y52624D02*
X186088D01*
X186744D01*
X184120Y51313D02*
X186744D01*
X190679Y50001D02*
X188056D01*
X190679Y52624D01*
Y53280D01*
X190024Y53936D01*
X188712D01*
X188056Y53280D01*
X27972Y127169D02*
X27316Y126513D01*
Y125201D01*
X27972Y124545D01*
X30595D01*
X31251Y125201D01*
Y126513D01*
X30595Y127169D01*
X31251Y131105D02*
Y128481D01*
X28627Y131105D01*
X27972D01*
X27316Y130449D01*
Y129137D01*
X27972Y128481D01*
Y132416D02*
X27316Y133072D01*
Y134384D01*
X27972Y135040D01*
X28627D01*
X29283Y134384D01*
Y133728D01*
Y134384D01*
X29939Y135040D01*
X30595D01*
X31251Y134384D01*
Y133072D01*
X30595Y132416D01*
X31251Y137008D02*
X27316D01*
Y138320D02*
X31251D01*
X28627Y136352D02*
Y138320D01*
Y138976D01*
X29939Y136352D02*
Y138976D01*
X31251Y140288D02*
Y141600D01*
Y140944D01*
X27316D01*
X27972Y140288D01*
X206826Y50582D02*
X206170Y49926D01*
Y48614D01*
X206826Y47958D01*
X209450D01*
X210106Y48614D01*
Y49926D01*
X209450Y50582D01*
X210106Y54518D02*
Y51894D01*
X207482Y54518D01*
X206826D01*
X206170Y53862D01*
Y52550D01*
X206826Y51894D01*
X210106Y58454D02*
Y55830D01*
X207482Y58454D01*
X206826D01*
X206170Y57798D01*
Y56486D01*
X206826Y55830D01*
X210106Y60422D02*
X206170D01*
Y61733D02*
X210106D01*
X207482Y59766D02*
Y61733D01*
Y62389D01*
X208794Y59766D02*
Y62389D01*
X210106Y66325D02*
Y63701D01*
X207482Y66325D01*
X206826D01*
X206170Y65669D01*
Y64357D01*
X206826Y63701D01*
X41472Y145669D02*
X40816Y145013D01*
Y143701D01*
X41472Y143045D01*
X44095D01*
X44751Y143701D01*
Y145013D01*
X44095Y145669D01*
X44751Y149604D02*
Y146981D01*
X42127Y149604D01*
X41472D01*
X40816Y148949D01*
Y147637D01*
X41472Y146981D01*
X44751Y153540D02*
Y150916D01*
X42127Y153540D01*
X41472D01*
X40816Y152884D01*
Y151572D01*
X41472Y150916D01*
X44751Y155508D02*
X40816D01*
Y156820D02*
X44751D01*
X42127Y154852D02*
Y156820D01*
Y157476D01*
X43439Y154852D02*
Y157476D01*
X44751Y158788D02*
Y160100D01*
Y159444D01*
X40816D01*
X41472Y158788D01*
X445163Y102724D02*
Y99444D01*
X445819Y98788D01*
X447131D01*
X447787Y99444D01*
Y102724D01*
X451722Y98788D02*
X449098D01*
X451722Y101412D01*
Y102068D01*
X451066Y102724D01*
X449754D01*
X449098Y102068D01*
X483468Y109224D02*
Y105944D01*
X484124Y105288D01*
X485436D01*
X486092Y105944D01*
Y109224D01*
X487404Y105288D02*
X488716D01*
X488060D01*
Y109224D01*
X487404Y108568D01*
X523221Y225336D02*
X522565Y225992D01*
X521253D01*
X520597Y225336D01*
Y224680D01*
X521253Y224024D01*
X522565D01*
X523221Y223368D01*
Y222712D01*
X522565Y222056D01*
X521253D01*
X520597Y222712D01*
X524533Y225992D02*
Y222056D01*
X525845Y223368D01*
X527156Y222056D01*
Y225992D01*
X528469Y222056D02*
X529780D01*
X529124D01*
Y225992D01*
X528469Y225336D01*
X442133Y102161D02*
X438198D01*
Y104129D01*
X438853Y104785D01*
X440165D01*
X440821Y104129D01*
Y102161D01*
Y103473D02*
X442133Y104785D01*
X438198Y108721D02*
Y106097D01*
X440165D01*
X439509Y107409D01*
Y108065D01*
X440165Y108721D01*
X441477D01*
X442133Y108065D01*
Y106753D01*
X441477Y106097D01*
X460456Y110535D02*
X456520D01*
Y112503D01*
X457176Y113159D01*
X458488D01*
X459144Y112503D01*
Y110535D01*
Y111847D02*
X460456Y113159D01*
Y116439D02*
X456520D01*
X458488Y114471D01*
Y117095D01*
X502780Y73641D02*
X498845D01*
Y75609D01*
X499501Y76265D01*
X500813D01*
X501469Y75609D01*
Y73641D01*
Y74953D02*
X502780Y76265D01*
X499501Y77577D02*
X498845Y78233D01*
Y79545D01*
X499501Y80201D01*
X500157D01*
X500813Y79545D01*
Y78889D01*
Y79545D01*
X501469Y80201D01*
X502125D01*
X502780Y79545D01*
Y78233D01*
X502125Y77577D01*
X435910Y95476D02*
X431975D01*
Y97444D01*
X432631Y98100D01*
X433943D01*
X434598Y97444D01*
Y95476D01*
Y96788D02*
X435910Y98100D01*
Y102036D02*
Y99412D01*
X433287Y102036D01*
X432631D01*
X431975Y101380D01*
Y100068D01*
X432631Y99412D01*
X509280Y74297D02*
X505345D01*
Y76265D01*
X506001Y76921D01*
X507313D01*
X507969Y76265D01*
Y74297D01*
Y75609D02*
X509280Y76921D01*
Y78233D02*
Y79545D01*
Y78889D01*
X505345D01*
X506001Y78233D01*
X486752Y74247D02*
Y76871D01*
X486096Y77527D01*
X484784D01*
X484128Y76871D01*
Y74247D01*
X484784Y73591D01*
X486096D01*
X485440Y74903D02*
X486752Y73591D01*
X486096D02*
X486752Y74247D01*
X488064Y73591D02*
X489376D01*
X488720D01*
Y77527D01*
X488064Y76871D01*
X534524Y200436D02*
X533212D01*
X533868D01*
Y197156D01*
X533212Y196500D01*
X532556D01*
X531900Y197156D01*
X535836Y196500D02*
X537148D01*
X536492D01*
Y200436D01*
X535836Y199780D01*
X525624Y122636D02*
X524312D01*
X524968D01*
Y119356D01*
X524312Y118700D01*
X523656D01*
X523000Y119356D01*
X526936Y121980D02*
X527592Y122636D01*
X528904D01*
X529560Y121980D01*
Y119356D01*
X528904Y118700D01*
X527592D01*
X526936Y119356D01*
Y121980D01*
X512731Y79133D02*
Y75197D01*
X514698D01*
X515354Y75853D01*
Y78477D01*
X514698Y79133D01*
X512731D01*
X516666Y75197D02*
X517978D01*
X517322D01*
Y79133D01*
X516666Y78477D01*
X511124Y98976D02*
X515060D01*
Y100944D01*
X514404Y101600D01*
X511780D01*
X511124Y100944D01*
Y98976D01*
X511780Y102912D02*
X511124Y103568D01*
Y104880D01*
X511780Y105536D01*
X514404D01*
X515060Y104880D01*
Y103568D01*
X514404Y102912D01*
X511780D01*
X518280Y108960D02*
X517624Y108304D01*
Y106992D01*
X518280Y106336D01*
X520904D01*
X521560Y106992D01*
Y108304D01*
X520904Y108960D01*
X521560Y110272D02*
Y111584D01*
Y110928D01*
X517624D01*
X518280Y110272D01*
X521560Y115520D02*
X517624D01*
X519592Y113552D01*
Y116176D01*
X511780Y86460D02*
X511124Y85804D01*
Y84492D01*
X511780Y83836D01*
X514404D01*
X515060Y84492D01*
Y85804D01*
X514404Y86460D01*
X515060Y87772D02*
Y89084D01*
Y88428D01*
X511124D01*
X511780Y87772D01*
Y91052D02*
X511124Y91708D01*
Y93020D01*
X511780Y93676D01*
X512436D01*
X513092Y93020D01*
Y92364D01*
Y93020D01*
X513748Y93676D01*
X514404D01*
X515060Y93020D01*
Y91708D01*
X514404Y91052D01*
X503280Y102460D02*
X502624Y101804D01*
Y100492D01*
X503280Y99836D01*
X505904D01*
X506560Y100492D01*
Y101804D01*
X505904Y102460D01*
X506560Y103772D02*
Y105084D01*
Y104428D01*
X502624D01*
X503280Y103772D01*
X506560Y109676D02*
Y107052D01*
X503936Y109676D01*
X503280D01*
X502624Y109020D01*
Y107708D01*
X503280Y107052D01*
X469059Y202087D02*
Y203015D01*
X468132Y203943D01*
X467204D01*
X465349Y202087D01*
Y201160D01*
X466276Y200232D01*
X467204D01*
X467668Y198840D02*
X468596Y197913D01*
X468132Y198377D01*
X470915Y201160D01*
X469987D01*
Y196521D02*
X470915Y195594D01*
X470451Y196057D01*
X473234Y198840D01*
X472306D01*
X469383Y128142D02*
Y129069D01*
X468455Y129997D01*
X467528D01*
X465672Y128142D01*
Y127214D01*
X466600Y126286D01*
X467528D01*
X467991Y124895D02*
X468919Y123967D01*
X468455Y124431D01*
X471238Y127214D01*
X470311D01*
X472630Y124895D02*
X473558D01*
X474485Y123967D01*
X474485Y123039D01*
X472630Y121184D01*
X471702Y121184D01*
X470775Y122112D01*
Y123039D01*
X472630Y124895D01*
X437585Y174873D02*
X436657D01*
X435730Y173946D01*
Y173018D01*
X437585Y171163D01*
X438513D01*
X439440Y172090D01*
Y173018D01*
X440368Y173946D02*
X441295D01*
X442223Y174873D01*
Y175801D01*
X440368Y177656D01*
X439440Y177656D01*
X438513Y176729D01*
Y175801D01*
X438976Y175337D01*
X439904Y175337D01*
X441295Y176729D01*
X433648Y178810D02*
X432720D01*
X431793Y177883D01*
Y176955D01*
X433648Y175100D01*
X434576D01*
X435503Y176027D01*
Y176955D01*
X434576Y179738D02*
Y180666D01*
X435503Y181593D01*
X436431Y181593D01*
X436895Y181129D01*
Y180202D01*
X437822Y180202D01*
X438286Y179738D01*
Y178810D01*
X437359Y177883D01*
X436431D01*
X435967Y178347D01*
Y179274D01*
X435039Y179274D01*
X434576Y179738D01*
X435967Y179274D02*
X436895Y180202D01*
X450971Y127235D02*
X450043D01*
X449115Y126308D01*
Y125380D01*
X450971Y123525D01*
X451898D01*
X452826Y124452D01*
Y125380D01*
X451435Y128627D02*
X453290Y130482D01*
X453754Y130018D01*
Y126308D01*
X454217Y125844D01*
X480184Y203675D02*
X479528Y203019D01*
Y201707D01*
X480184Y201051D01*
X482808D01*
X483464Y201707D01*
Y203019D01*
X482808Y203675D01*
X479528Y207611D02*
X480184Y206299D01*
X481496Y204987D01*
X482808D01*
X483464Y205643D01*
Y206955D01*
X482808Y207611D01*
X482152D01*
X481496Y206955D01*
Y204987D01*
X504856Y162336D02*
X504200Y162991D01*
X502888D01*
X502232Y162336D01*
Y159712D01*
X502888Y159056D01*
X504200D01*
X504856Y159712D01*
X508792Y162991D02*
X506168D01*
Y161024D01*
X507480Y161680D01*
X508136D01*
X508792Y161024D01*
Y159712D01*
X508136Y159056D01*
X506824D01*
X506168Y159712D01*
X433351Y76765D02*
X432695Y76109D01*
Y74797D01*
X433351Y74142D01*
X435975D01*
X436631Y74797D01*
Y76109D01*
X435975Y76765D01*
X436631Y80045D02*
X432695D01*
X434663Y78077D01*
Y80701D01*
X466781Y99985D02*
X466125Y100641D01*
X464813D01*
X464157Y99985D01*
Y97361D01*
X464813Y96705D01*
X466125D01*
X466781Y97361D01*
X468093Y99985D02*
X468749Y100641D01*
X470061D01*
X470717Y99985D01*
Y99329D01*
X470061Y98673D01*
X469405D01*
X470061D01*
X470717Y98017D01*
Y97361D01*
X470061Y96705D01*
X468749D01*
X468093Y97361D01*
X474811Y96178D02*
X474155Y95522D01*
Y94210D01*
X474811Y93554D01*
X477434D01*
X478090Y94210D01*
Y95522D01*
X477434Y96178D01*
X478090Y100113D02*
Y97490D01*
X475467Y100113D01*
X474811D01*
X474155Y99457D01*
Y98146D01*
X474811Y97490D01*
X436868Y145416D02*
X435940D01*
X435012Y144488D01*
Y143561D01*
X436868Y141705D01*
X437795D01*
X438723Y142633D01*
Y143561D01*
X440114Y144024D02*
X441042Y144952D01*
X440578Y144488D01*
X437795Y147271D01*
Y146344D01*
D20*
X139355Y175373D02*
Y170660D01*
X136999Y173017D02*
X141711D01*
X138177Y174195D02*
X140533Y171838D01*
X138177D02*
X140533Y174195D01*
X27468Y149595D02*
X30801Y152927D01*
Y149595D02*
X27468Y152927D01*
X29135Y149595D02*
Y152927D01*
X30801Y151261D02*
X27468D01*
X192823Y54508D02*
X196155Y57841D01*
Y54508D02*
X192823Y57841D01*
X194489Y54508D02*
Y57841D01*
X196155Y56174D02*
X192823D01*
X522706Y92340D02*
X526039Y95673D01*
Y92340D02*
X522706Y95673D01*
X524372Y92340D02*
Y95673D01*
X526039Y94007D02*
X522706D01*
M02*
