G04*
G04 #@! TF.GenerationSoftware,Altium Limited,Altium Designer,26.4.1 (12)*
G04*
G04 Layer_Color=8388736*
%FSLAX25Y25*%
%MOIN*%
G70*
G04*
G04 #@! TF.SameCoordinates,D180CEDE-3ABA-455E-BC30-8FC1567E7F68*
G04*
G04*
G04 #@! TF.FilePolarity,Negative*
G04*
G01*
G75*
G04:AMPARAMS|DCode=23|XSize=30mil|YSize=32mil|CornerRadius=0mil|HoleSize=0mil|Usage=FLASHONLY|Rotation=225.000|XOffset=0mil|YOffset=0mil|HoleType=Round|Shape=Rectangle|*
%AMROTATEDRECTD23*
4,1,4,-0.00071,0.02192,0.02192,-0.00071,0.00071,-0.02192,-0.02192,0.00071,-0.00071,0.02192,0.0*
%
%ADD23ROTATEDRECTD23*%

G04:AMPARAMS|DCode=24|XSize=8.03mil|YSize=29.53mil|CornerRadius=0mil|HoleSize=0mil|Usage=FLASHONLY|Rotation=135.000|XOffset=0mil|YOffset=0mil|HoleType=Round|Shape=Rectangle|*
%AMROTATEDRECTD24*
4,1,4,0.01328,0.00760,-0.00760,-0.01328,-0.01328,-0.00760,0.00760,0.01328,0.01328,0.00760,0.0*
%
%ADD24ROTATEDRECTD24*%

G04:AMPARAMS|DCode=25|XSize=30mil|YSize=32mil|CornerRadius=0mil|HoleSize=0mil|Usage=FLASHONLY|Rotation=135.000|XOffset=0mil|YOffset=0mil|HoleType=Round|Shape=Rectangle|*
%AMROTATEDRECTD25*
4,1,4,0.02192,0.00071,-0.00071,-0.02192,-0.02192,-0.00071,0.00071,0.02192,0.02192,0.00071,0.0*
%
%ADD25ROTATEDRECTD25*%

%ADD26R,0.03500X0.01000*%
G04:AMPARAMS|DCode=27|XSize=8.03mil|YSize=29.53mil|CornerRadius=0mil|HoleSize=0mil|Usage=FLASHONLY|Rotation=225.000|XOffset=0mil|YOffset=0mil|HoleType=Round|Shape=Rectangle|*
%AMROTATEDRECTD27*
4,1,4,-0.00760,0.01328,0.01328,-0.00760,0.00760,-0.01328,-0.01328,0.00760,-0.00760,0.01328,0.0*
%
%ADD27ROTATEDRECTD27*%

G04:AMPARAMS|DCode=28|XSize=23.62mil|YSize=21.26mil|CornerRadius=0mil|HoleSize=0mil|Usage=FLASHONLY|Rotation=45.000|XOffset=0mil|YOffset=0mil|HoleType=Round|Shape=Rectangle|*
%AMROTATEDRECTD28*
4,1,4,-0.00084,-0.01587,-0.01587,-0.00084,0.00084,0.01587,0.01587,0.00084,-0.00084,-0.01587,0.0*
%
%ADD28ROTATEDRECTD28*%

G04:AMPARAMS|DCode=29|XSize=58.07mil|YSize=11.81mil|CornerRadius=0mil|HoleSize=0mil|Usage=FLASHONLY|Rotation=45.000|XOffset=0mil|YOffset=0mil|HoleType=Round|Shape=Rectangle|*
%AMROTATEDRECTD29*
4,1,4,-0.01636,-0.02471,-0.02471,-0.01636,0.01636,0.02471,0.02471,0.01636,-0.01636,-0.02471,0.0*
%
%ADD29ROTATEDRECTD29*%

G04:AMPARAMS|DCode=30|XSize=58.07mil|YSize=11.81mil|CornerRadius=0mil|HoleSize=0mil|Usage=FLASHONLY|Rotation=315.000|XOffset=0mil|YOffset=0mil|HoleType=Round|Shape=Rectangle|*
%AMROTATEDRECTD30*
4,1,4,-0.02471,0.01636,-0.01636,0.02471,0.02471,-0.01636,0.01636,-0.02471,-0.02471,0.01636,0.0*
%
%ADD30ROTATEDRECTD30*%

%ADD31R,0.08700X0.12200*%
%ADD32R,0.03200X0.06700*%
%ADD33R,0.03000X0.03200*%
G04:AMPARAMS|DCode=34|XSize=23.62mil|YSize=21.26mil|CornerRadius=0mil|HoleSize=0mil|Usage=FLASHONLY|Rotation=135.000|XOffset=0mil|YOffset=0mil|HoleType=Round|Shape=Rectangle|*
%AMROTATEDRECTD34*
4,1,4,0.01587,-0.00084,0.00084,-0.01587,-0.01587,0.00084,-0.00084,0.01587,0.01587,-0.00084,0.0*
%
%ADD34ROTATEDRECTD34*%

G04:AMPARAMS|DCode=35|XSize=53.94mil|YSize=107.09mil|CornerRadius=6.74mil|HoleSize=0mil|Usage=FLASHONLY|Rotation=270.000|XOffset=0mil|YOffset=0mil|HoleType=Round|Shape=RoundedRectangle|*
%AMROUNDEDRECTD35*
21,1,0.05394,0.09360,0,0,270.0*
21,1,0.04045,0.10709,0,0,270.0*
1,1,0.01348,-0.04680,-0.02023*
1,1,0.01348,-0.04680,0.02023*
1,1,0.01348,0.04680,0.02023*
1,1,0.01348,0.04680,-0.02023*
%
%ADD35ROUNDEDRECTD35*%
%ADD36R,0.01000X0.09800*%
G04:AMPARAMS|DCode=37|XSize=43.31mil|YSize=58.27mil|CornerRadius=5.41mil|HoleSize=0mil|Usage=FLASHONLY|Rotation=135.000|XOffset=0mil|YOffset=0mil|HoleType=Round|Shape=RoundedRectangle|*
%AMROUNDEDRECTD37*
21,1,0.04331,0.04744,0,0,135.0*
21,1,0.03248,0.05827,0,0,135.0*
1,1,0.01083,0.00529,0.02826*
1,1,0.01083,0.02826,0.00529*
1,1,0.01083,-0.00529,-0.02826*
1,1,0.01083,-0.02826,-0.00529*
%
%ADD37ROUNDEDRECTD37*%
%ADD38R,0.01968X0.01968*%
%ADD39R,0.03200X0.03000*%
G04:AMPARAMS|DCode=40|XSize=66.93mil|YSize=31.5mil|CornerRadius=0mil|HoleSize=0mil|Usage=FLASHONLY|Rotation=45.000|XOffset=0mil|YOffset=0mil|HoleType=Round|Shape=Rectangle|*
%AMROTATEDRECTD40*
4,1,4,-0.01253,-0.03480,-0.03480,-0.01253,0.01253,0.03480,0.03480,0.01253,-0.01253,-0.03480,0.0*
%
%ADD40ROTATEDRECTD40*%

%ADD41R,0.01181X0.03347*%
%ADD42R,0.03347X0.01181*%
%ADD43R,0.15748X0.03937*%
%ADD44R,0.01968X0.01968*%
%ADD45R,0.02756X0.01260*%
G04:AMPARAMS|DCode=46|XSize=43.31mil|YSize=58.27mil|CornerRadius=5.41mil|HoleSize=0mil|Usage=FLASHONLY|Rotation=90.000|XOffset=0mil|YOffset=0mil|HoleType=Round|Shape=RoundedRectangle|*
%AMROUNDEDRECTD46*
21,1,0.04331,0.04744,0,0,90.0*
21,1,0.03248,0.05827,0,0,90.0*
1,1,0.01083,0.02372,0.01624*
1,1,0.01083,0.02372,-0.01624*
1,1,0.01083,-0.02372,-0.01624*
1,1,0.01083,-0.02372,0.01624*
%
%ADD46ROUNDEDRECTD46*%
%ADD47R,0.02362X0.02126*%
%ADD48R,0.02126X0.02362*%
%ADD54R,0.04700X0.03200*%
%ADD55R,0.03300X0.01600*%
%ADD56R,0.06102X0.06102*%
%ADD57R,0.04700X0.03000*%
%ADD58R,0.02756X0.01654*%
%ADD59R,0.04700X0.02800*%
%ADD60R,0.04537X0.01781*%
%ADD61R,0.03356X0.01781*%
%ADD62P,0.15556X4X360.0*%
%ADD63C,0.00072*%
%ADD64C,0.00129*%
%ADD65C,0.00063*%
%ADD66C,0.06299*%
G04:AMPARAMS|DCode=67|XSize=62.99mil|YSize=137.8mil|CornerRadius=0mil|HoleSize=0mil|Usage=FLASHONLY|Rotation=315.000|XOffset=0mil|YOffset=0mil|HoleType=Round|Shape=Rectangle|*
%AMROTATEDRECTD67*
4,1,4,-0.07099,-0.02645,0.02645,0.07099,0.07099,0.02645,-0.02645,-0.07099,-0.07099,-0.02645,0.0*
%
%ADD67ROTATEDRECTD67*%

%ADD68C,0.05906*%
%ADD69C,0.00069*%
%ADD70R,0.01673X0.01575*%
%ADD71R,0.03150X0.01890*%
%ADD72C,0.01673*%
G36*
X453624Y96539D02*
Y94768D01*
X453230Y94374D01*
X452443D01*
X452049Y94768D01*
Y96539D01*
X452443Y96933D01*
X453230D01*
X453624Y96539D01*
D02*
G37*
G36*
X457758D02*
Y95752D01*
X457954Y95555D01*
X460809D01*
X461202Y95161D01*
X461202Y94571D01*
X460809Y94177D01*
X456380D01*
X455986Y94571D01*
Y96539D01*
X456380Y96933D01*
X457364D01*
X457758Y96539D01*
D02*
G37*
G36*
X451458D02*
Y94571D01*
X451065Y94177D01*
X446635D01*
X446242Y94571D01*
Y95161D01*
X446635Y95555D01*
X449490D01*
X449687Y95752D01*
Y96539D01*
X450080Y96933D01*
X451065D01*
X451458Y96539D01*
D02*
G37*
G36*
X449785Y93193D02*
Y92602D01*
X449391Y92209D01*
X446635D01*
X446242Y92602D01*
Y93193D01*
X446635Y93587D01*
X449391D01*
X449785Y93193D01*
D02*
G37*
G36*
X461005D02*
Y92602D01*
X460809Y92405D01*
X459628D01*
X459431Y92209D01*
Y91618D01*
X459628Y91421D01*
X460809D01*
X461005Y91224D01*
Y90634D01*
X460809Y90437D01*
X456478D01*
X456281Y90634D01*
Y93193D01*
X456478Y93390D01*
X460809D01*
X461005Y93193D01*
D02*
G37*
G36*
X449785Y91224D02*
Y90634D01*
X449391Y90240D01*
X446635D01*
X446242Y90634D01*
Y91224D01*
X446635Y91618D01*
X449391D01*
X449785Y91224D01*
D02*
G37*
G36*
X453427Y93390D02*
Y88569D01*
X453033Y88175D01*
X446635Y88175D01*
X446242Y88569D01*
X446242Y89258D01*
X446635Y89652D01*
X451336D01*
X451474Y89709D01*
X451990Y90228D01*
X452049Y90366D01*
Y93390D01*
X452443Y93783D01*
X453033D01*
X453427Y93390D01*
D02*
G37*
G36*
X459431Y86402D02*
Y85161D01*
X459628Y84965D01*
X460809D01*
X461005Y84768D01*
Y84177D01*
X460809Y83980D01*
X459628Y83980D01*
X459431Y83784D01*
Y83193D01*
X459628Y82996D01*
X460809D01*
X461005Y82799D01*
Y82209D01*
X460809Y82012D01*
X459628D01*
X459431Y81815D01*
Y81224D01*
X459628Y81028D01*
X460809D01*
X461005Y80831D01*
Y80240D01*
X460809Y80043D01*
X459628Y80043D01*
X459431Y79847D01*
Y79216D01*
X459234Y79020D01*
X455690D01*
X455494Y79216D01*
Y86402D01*
X455690Y86598D01*
X459234Y86598D01*
X459431Y86402D01*
D02*
G37*
G36*
X451754Y86598D02*
X451950Y86402D01*
X451950Y79216D01*
X451754Y79020D01*
X448210D01*
X448013Y79216D01*
Y79847D01*
X447817Y80043D01*
X446635D01*
X446439Y80240D01*
Y80831D01*
X446635Y81028D01*
X447817D01*
X448013Y81224D01*
Y81815D01*
X447817Y82012D01*
X446635D01*
X446439Y82209D01*
Y82799D01*
X446635Y82996D01*
X447817D01*
X448013Y83193D01*
Y83784D01*
X447817Y83980D01*
X446635D01*
X446439Y84177D01*
Y84768D01*
X446635Y84965D01*
X447817D01*
X448013Y85161D01*
Y86402D01*
X448210Y86598D01*
X451754Y86598D01*
D02*
G37*
G36*
X315809Y220296D02*
X315822Y220289D01*
X315844Y220280D01*
X315873Y220267D01*
X315911Y220248D01*
X315952Y220226D01*
X315999Y220201D01*
X316053Y220172D01*
X316110Y220141D01*
X316170Y220103D01*
X316230Y220065D01*
X316293Y220021D01*
X316359Y219973D01*
X316422Y219923D01*
X316486Y219869D01*
X316549Y219812D01*
X316324Y219449D01*
X316321Y219452D01*
X316309Y219464D01*
X316286Y219483D01*
X316258Y219506D01*
X316223Y219534D01*
X316185Y219569D01*
X316138Y219603D01*
X316087Y219644D01*
X316034Y219686D01*
X315974Y219730D01*
X315847Y219815D01*
X315715Y219897D01*
X315648Y219935D01*
X315579Y219970D01*
X315803Y220299D01*
X315809Y220296D01*
D02*
G37*
G36*
X315689Y219272D02*
X315702Y219268D01*
X315724Y219256D01*
X315753Y219243D01*
X315790Y219227D01*
X315831Y219205D01*
X315879Y219180D01*
X315933Y219152D01*
X315989Y219120D01*
X316050Y219085D01*
X316110Y219047D01*
X316173Y219006D01*
X316239Y218962D01*
X316302Y218911D01*
X316429Y218807D01*
X316185Y218463D01*
X316182Y218466D01*
X316173Y218475D01*
X316157Y218488D01*
X316132Y218510D01*
X316103Y218532D01*
X316072Y218561D01*
X316031Y218592D01*
X315986Y218627D01*
X315936Y218662D01*
X315882Y218703D01*
X315825Y218741D01*
X315762Y218782D01*
X315696Y218823D01*
X315626Y218867D01*
X315550Y218905D01*
X315474Y218946D01*
X315683Y219275D01*
X315689Y219272D01*
D02*
G37*
G36*
X318040Y220403D02*
X318043Y220400D01*
X318050Y220393D01*
X318056Y220381D01*
X318059Y220365D01*
Y220352D01*
X318047Y220337D01*
X318037Y220330D01*
X318024Y220324D01*
X318009Y220318D01*
X317987Y220314D01*
X317797Y219657D01*
X318976D01*
Y216627D01*
X318628D01*
Y216870D01*
X317086D01*
Y216611D01*
X316738D01*
Y219657D01*
X317434D01*
X317588Y220472D01*
X318040Y220403D01*
D02*
G37*
G36*
X316375Y217891D02*
Y217888D01*
X316372Y217884D01*
X316369Y217872D01*
X316362Y217859D01*
X316356Y217843D01*
X316347Y217824D01*
X316324Y217774D01*
X316296Y217714D01*
X316264Y217644D01*
X316227Y217565D01*
X316189Y217480D01*
X316141Y217388D01*
X316094Y217290D01*
X316043Y217189D01*
X315989Y217088D01*
X315873Y216880D01*
X315812Y216778D01*
X315753Y216680D01*
Y216677D01*
X315756Y216665D01*
X315759Y216649D01*
Y216630D01*
X315756Y216614D01*
X315746Y216598D01*
X315727Y216592D01*
X315699D01*
X315354Y216936D01*
Y216940D01*
X315361Y216943D01*
X315376Y216962D01*
X315399Y216993D01*
X315433Y217034D01*
X315471Y217085D01*
X315519Y217148D01*
X315569Y217218D01*
X315623Y217297D01*
X315680Y217385D01*
X315743Y217480D01*
X315803Y217581D01*
X315866Y217688D01*
X315929Y217802D01*
X315989Y217919D01*
X316046Y218039D01*
X316100Y218166D01*
X316375Y217891D01*
D02*
G37*
G36*
X318682Y215604D02*
Y215598D01*
X318685Y215586D01*
X318688Y215567D01*
X318698Y215545D01*
X318710Y215522D01*
X318732Y215503D01*
X318761Y215491D01*
X318802Y215484D01*
X318944D01*
X318954Y215488D01*
X318969Y215491D01*
X318985Y215497D01*
X319004Y215510D01*
X319020Y215529D01*
X319036Y215554D01*
X319045Y215589D01*
X319061Y215728D01*
X319304Y215639D01*
X319270Y215484D01*
Y215481D01*
X319266Y215475D01*
X319263Y215465D01*
X319257Y215453D01*
X319241Y215418D01*
X319216Y215380D01*
X319181Y215342D01*
X319159Y215323D01*
X319134Y215307D01*
X319102Y215295D01*
X319071Y215285D01*
X319036Y215279D01*
X318995Y215276D01*
X318739D01*
X318723Y215279D01*
X318704D01*
X318679Y215285D01*
X318653Y215292D01*
X318625Y215301D01*
X318597Y215314D01*
X318565Y215330D01*
X318536Y215349D01*
X318511Y215371D01*
X318489Y215399D01*
X318467Y215434D01*
X318451Y215472D01*
X318442Y215519D01*
X318439Y215570D01*
Y215728D01*
X317917D01*
Y215623D01*
Y215620D01*
Y215608D01*
X317914Y215589D01*
X317911Y215564D01*
X317908Y215532D01*
X317898Y215497D01*
X317889Y215459D01*
X317873Y215418D01*
X317857Y215374D01*
X317832Y215333D01*
X317807Y215292D01*
X317772Y215251D01*
X317734Y215213D01*
X317686Y215178D01*
X317633Y215146D01*
X317573Y215121D01*
X317415Y215311D01*
X317418D01*
X317427Y215314D01*
X317440Y215320D01*
X317456Y215326D01*
X317497Y215349D01*
X317522Y215361D01*
X317547Y215380D01*
X317569Y215402D01*
X317595Y215428D01*
X317617Y215456D01*
X317636Y215488D01*
X317652Y215522D01*
X317664Y215564D01*
X317674Y215608D01*
X317677Y215658D01*
Y216003D01*
X318682D01*
Y215604D01*
D02*
G37*
G36*
X316656Y216139D02*
X316675Y216132D01*
X316691Y216123D01*
X316704Y216110D01*
Y216101D01*
Y216091D01*
X316697Y216078D01*
X316688Y216066D01*
X316672Y216053D01*
X316653Y216037D01*
Y215867D01*
X317434D01*
Y215658D01*
X316653D01*
Y215465D01*
X317314D01*
Y215260D01*
X315667D01*
Y215465D01*
X316359D01*
Y215658D01*
X315474D01*
Y215867D01*
X316359D01*
Y216142D01*
X316644D01*
X316656Y216139D01*
D02*
G37*
G36*
X319026Y214998D02*
X319029D01*
X319033Y214995D01*
X319045Y214982D01*
X319061Y214966D01*
X319077Y214947D01*
X319083Y214931D01*
Y214925D01*
X319077Y214919D01*
X319071Y214913D01*
X319055Y214909D01*
X319036D01*
X319010Y214913D01*
X319007Y214909D01*
X319001Y214900D01*
X318988Y214887D01*
X318972Y214868D01*
X318950Y214846D01*
X318925Y214821D01*
X318897Y214792D01*
X318865Y214764D01*
X318792Y214698D01*
X318710Y214628D01*
X318619Y214559D01*
X318524Y214495D01*
X318527D01*
X318540Y214489D01*
X318555Y214483D01*
X318581Y214473D01*
X318612Y214461D01*
X318653Y214448D01*
X318698Y214435D01*
X318751Y214420D01*
X318808Y214404D01*
X318875Y214388D01*
X318944Y214372D01*
X319023Y214356D01*
X319105Y214344D01*
X319197Y214328D01*
X319292Y214315D01*
X319393Y214306D01*
X319235Y214028D01*
X319229D01*
X319210Y214034D01*
X319178Y214040D01*
X319140Y214050D01*
X319089Y214062D01*
X319033Y214078D01*
X318966Y214094D01*
X318897Y214116D01*
X318821Y214138D01*
X318742Y214164D01*
X318578Y214217D01*
X318410Y214284D01*
X318328Y214318D01*
X318249Y214356D01*
X318243Y214353D01*
X318227Y214347D01*
X318201Y214334D01*
X318167Y214322D01*
X318126Y214303D01*
X318078Y214284D01*
X318024Y214262D01*
X317965Y214239D01*
X317901Y214214D01*
X317835Y214192D01*
X317699Y214145D01*
X317563Y214107D01*
X317497Y214094D01*
X317434Y214081D01*
X317295Y214322D01*
X317298D01*
X317314Y214325D01*
X317333Y214328D01*
X317361Y214331D01*
X317396Y214337D01*
X317437Y214347D01*
X317484Y214356D01*
X317535Y214366D01*
X317588Y214378D01*
X317649Y214391D01*
X317769Y214426D01*
X317895Y214467D01*
X318021Y214514D01*
X318018Y214517D01*
X318012Y214521D01*
X318002Y214530D01*
X317990Y214543D01*
X317955Y214574D01*
X317911Y214616D01*
X317857Y214666D01*
X317803Y214726D01*
X317746Y214789D01*
X317693Y214859D01*
X317484D01*
Y215067D01*
X318786D01*
X318837Y215137D01*
X319026Y214998D01*
D02*
G37*
G36*
X317348Y214391D02*
X316012D01*
Y214388D01*
X316005Y214375D01*
X315996Y214356D01*
X315983Y214331D01*
X315967Y214299D01*
X315948Y214262D01*
X315926Y214224D01*
X315898Y214182D01*
X315869Y214138D01*
X315831Y214094D01*
X315794Y214050D01*
X315749Y214006D01*
X315702Y213961D01*
X315648Y213923D01*
X315591Y213885D01*
X315528Y213854D01*
X315354Y214097D01*
X315357Y214100D01*
X315370Y214107D01*
X315389Y214116D01*
X315414Y214132D01*
X315443Y214151D01*
X315474Y214173D01*
X315509Y214201D01*
X315544Y214230D01*
X315579Y214265D01*
X315613Y214303D01*
X315645Y214344D01*
X315673Y214388D01*
X315699Y214439D01*
X315718Y214489D01*
X315730Y214543D01*
X315734Y214600D01*
Y215102D01*
X317348D01*
Y214391D01*
D02*
G37*
G36*
X318906Y213784D02*
X318423D01*
Y212745D01*
X319339Y212799D01*
Y212539D01*
X318423Y212489D01*
Y212106D01*
X318075D01*
Y212473D01*
X315528Y212369D01*
X315525Y212362D01*
X315515Y212350D01*
X315500Y212331D01*
X315481Y212315D01*
X315465Y212302D01*
X315446D01*
X315440Y212305D01*
X315433Y212315D01*
X315427Y212331D01*
X315424Y212350D01*
X315389Y212659D01*
X316290Y212675D01*
Y213784D01*
X315873D01*
Y214062D01*
X318906D01*
Y213784D01*
D02*
G37*
G36*
X317127Y224797D02*
X317140Y224781D01*
X317165Y224753D01*
X317197Y224718D01*
X317238Y224674D01*
X317285Y224623D01*
X317339Y224566D01*
X317402Y224506D01*
X317468Y224443D01*
X317544Y224377D01*
X317623Y224310D01*
X317705Y224241D01*
X317791Y224174D01*
X317882Y224108D01*
X317977Y224045D01*
X318072Y223988D01*
Y224544D01*
X318976D01*
X319061Y224613D01*
X319355Y224389D01*
X319358Y224383D01*
X319368Y224370D01*
X319380Y224351D01*
X319387Y224329D01*
X319390Y224304D01*
X319383Y224294D01*
X319377Y224285D01*
X319368Y224279D01*
X319352Y224272D01*
X319330Y224266D01*
X319304D01*
X318852Y223106D01*
X318856D01*
X318859Y223100D01*
X318878Y223087D01*
X318906Y223062D01*
X318944Y223027D01*
X318988Y222986D01*
X319039Y222936D01*
X319093Y222879D01*
X319149Y222812D01*
X319203Y222743D01*
X319257Y222667D01*
X319307Y222585D01*
X319352Y222499D01*
X319390Y222408D01*
X319418Y222313D01*
X319437Y222218D01*
X319440Y222168D01*
X319443Y222117D01*
Y222114D01*
Y222111D01*
Y222101D01*
Y222089D01*
X319440Y222054D01*
X319434Y222013D01*
X319424Y221959D01*
X319412Y221902D01*
X319390Y221842D01*
X319364Y221779D01*
X319333Y221716D01*
X319292Y221656D01*
X319241Y221599D01*
X319181Y221545D01*
X319108Y221504D01*
X319067Y221485D01*
X319023Y221469D01*
X318979Y221457D01*
X318928Y221447D01*
X318875Y221444D01*
X318818Y221441D01*
X318663D01*
X318559Y221823D01*
X318780D01*
X318796Y221826D01*
X318814Y221830D01*
X318837Y221836D01*
X318859Y221845D01*
X318887Y221858D01*
X318916Y221877D01*
X318941Y221899D01*
X318969Y221924D01*
X318991Y221959D01*
X319017Y222000D01*
X319033Y222048D01*
X319048Y222101D01*
X319058Y222168D01*
X319061Y222240D01*
Y222244D01*
Y222253D01*
X319058Y222269D01*
X319052Y222291D01*
X319045Y222323D01*
X319033Y222357D01*
X319017Y222401D01*
X318995Y222449D01*
X318969Y222506D01*
X318935Y222569D01*
X318890Y222639D01*
X318840Y222714D01*
X318783Y222797D01*
X318710Y222888D01*
X318631Y222983D01*
X318540Y223087D01*
X318887Y224215D01*
X318420D01*
Y220803D01*
X318072D01*
Y223921D01*
X317866Y223694D01*
X317863Y223697D01*
X317857Y223700D01*
X317844Y223710D01*
X317829Y223719D01*
X317810Y223735D01*
X317788Y223751D01*
X317759Y223770D01*
X317727Y223795D01*
X317693Y223820D01*
X317655Y223849D01*
X317573Y223915D01*
X317481Y223991D01*
X317380Y224076D01*
Y223921D01*
X317121D01*
Y223659D01*
X317674D01*
Y222171D01*
X316808D01*
Y221962D01*
X317952D01*
Y221684D01*
X316827D01*
X316833Y221681D01*
X316849Y221675D01*
X316877Y221662D01*
X316915Y221643D01*
X316963Y221621D01*
X317017Y221596D01*
X317080Y221564D01*
X317146Y221529D01*
X317222Y221492D01*
X317301Y221447D01*
X317383Y221400D01*
X317468Y221349D01*
X317557Y221296D01*
X317649Y221239D01*
X317832Y221115D01*
X317588Y220787D01*
X317582Y220793D01*
X317566Y220806D01*
X317541Y220828D01*
X317506Y220856D01*
X317462Y220891D01*
X317415Y220929D01*
X317358Y220973D01*
X317295Y221021D01*
X317228Y221071D01*
X317159Y221125D01*
X317010Y221232D01*
X316855Y221334D01*
X316779Y221381D01*
X316704Y221425D01*
X316701Y221419D01*
X316694Y221406D01*
X316678Y221384D01*
X316656Y221352D01*
X316628Y221315D01*
X316593Y221273D01*
X316549Y221226D01*
X316498Y221179D01*
X316438Y221125D01*
X316369Y221071D01*
X316290Y221018D01*
X316201Y220967D01*
X316100Y220916D01*
X315989Y220869D01*
X315866Y220825D01*
X315734Y220787D01*
X315579Y221150D01*
X315582D01*
X315588Y221153D01*
X315598D01*
X315610Y221160D01*
X315629Y221163D01*
X315648Y221169D01*
X315696Y221182D01*
X315756Y221201D01*
X315822Y221223D01*
X315892Y221251D01*
X315967Y221280D01*
X316043Y221318D01*
X316119Y221356D01*
X316195Y221400D01*
X316264Y221447D01*
X316328Y221501D01*
X316381Y221558D01*
X316429Y221618D01*
X316444Y221650D01*
X316460Y221684D01*
X315544D01*
Y221962D01*
X316514D01*
Y222171D01*
X315734D01*
Y223659D01*
X316321D01*
Y223921D01*
X315977D01*
Y224023D01*
X315974Y224020D01*
X315967Y224013D01*
X315958Y224001D01*
X315945Y223982D01*
X315926Y223963D01*
X315907Y223937D01*
X315857Y223880D01*
X315800Y223817D01*
X315734Y223748D01*
X315664Y223675D01*
X315595Y223609D01*
X315351Y223868D01*
X315357Y223871D01*
X315370Y223887D01*
X315392Y223909D01*
X315424Y223937D01*
X315459Y223975D01*
X315503Y224023D01*
X315550Y224073D01*
X315604Y224133D01*
X315658Y224196D01*
X315715Y224266D01*
X315775Y224342D01*
X315835Y224424D01*
X315895Y224509D01*
X315952Y224598D01*
X316008Y224693D01*
X316062Y224787D01*
X316321Y224629D01*
X316324D01*
X316328Y224626D01*
X316340Y224617D01*
X316356Y224604D01*
X316372Y224588D01*
X316378Y224569D01*
Y224560D01*
X316372Y224550D01*
X316366Y224538D01*
X316350Y224528D01*
X316331Y224519D01*
X316305Y224509D01*
X316081Y224196D01*
X317260D01*
X317257Y224200D01*
X317253Y224203D01*
X317244Y224212D01*
X317231Y224225D01*
X317216Y224241D01*
X317197Y224263D01*
X317178Y224285D01*
X317152Y224313D01*
X317127Y224342D01*
X317099Y224377D01*
X317067Y224414D01*
X317032Y224452D01*
X316998Y224497D01*
X316960Y224544D01*
X316918Y224595D01*
X316877Y224648D01*
X317121Y224803D01*
X317127Y224797D01*
D02*
G37*
G36*
X274393Y222439D02*
X274416Y222435D01*
X274443Y222428D01*
X274468Y222420D01*
X274494Y222409D01*
X274513Y222393D01*
X274515Y222391D01*
X274519Y222384D01*
X274527Y222374D01*
X274536Y222359D01*
X274544Y222342D01*
X274552Y222321D01*
X274557Y222298D01*
X274559Y222273D01*
Y222216D01*
Y222214D01*
Y222206D01*
X274557Y222191D01*
X274552Y222176D01*
X274548Y222157D01*
X274540Y222139D01*
X274527Y222120D01*
X274513Y222101D01*
X274510Y222099D01*
X274504Y222094D01*
X274492Y222086D01*
X274477Y222078D01*
X274454Y222069D01*
X274426Y222061D01*
X274393Y222057D01*
X274353Y222055D01*
X274334D01*
X274315Y222057D01*
X274290Y222061D01*
X274265Y222065D01*
X274237Y222073D01*
X274214Y222086D01*
X274193Y222101D01*
X274191Y222103D01*
X274187Y222109D01*
X274179Y222120D01*
X274172Y222132D01*
X274164Y222149D01*
X274155Y222170D01*
X274151Y222191D01*
X274149Y222216D01*
Y222273D01*
Y222277D01*
Y222286D01*
X274151Y222298D01*
X274155Y222315D01*
X274160Y222334D01*
X274168Y222353D01*
X274179Y222374D01*
X274193Y222393D01*
X274195Y222395D01*
X274202Y222401D01*
X274214Y222407D01*
X274231Y222418D01*
X274252Y222426D01*
X274279Y222432D01*
X274313Y222439D01*
X274353Y222441D01*
X274372D01*
X274393Y222439D01*
D02*
G37*
G36*
X268962D02*
X268985Y222435D01*
X269013Y222428D01*
X269038Y222420D01*
X269063Y222409D01*
X269082Y222393D01*
X269084Y222391D01*
X269088Y222384D01*
X269097Y222374D01*
X269105Y222359D01*
X269113Y222342D01*
X269122Y222321D01*
X269126Y222298D01*
X269128Y222273D01*
Y222216D01*
Y222214D01*
Y222206D01*
X269126Y222191D01*
X269122Y222176D01*
X269118Y222157D01*
X269109Y222139D01*
X269097Y222120D01*
X269082Y222101D01*
X269080Y222099D01*
X269074Y222094D01*
X269061Y222086D01*
X269046Y222078D01*
X269023Y222069D01*
X268996Y222061D01*
X268962Y222057D01*
X268922Y222055D01*
X268903D01*
X268884Y222057D01*
X268859Y222061D01*
X268834Y222065D01*
X268807Y222073D01*
X268784Y222086D01*
X268763Y222101D01*
X268761Y222103D01*
X268756Y222109D01*
X268748Y222120D01*
X268742Y222132D01*
X268733Y222149D01*
X268725Y222170D01*
X268721Y222191D01*
X268719Y222216D01*
Y222273D01*
Y222277D01*
Y222286D01*
X268721Y222298D01*
X268725Y222315D01*
X268729Y222334D01*
X268738Y222353D01*
X268748Y222374D01*
X268763Y222393D01*
X268765Y222395D01*
X268771Y222401D01*
X268784Y222407D01*
X268800Y222418D01*
X268822Y222426D01*
X268849Y222432D01*
X268882Y222439D01*
X268922Y222441D01*
X268941D01*
X268962Y222439D01*
D02*
G37*
G36*
X278030Y221773D02*
X278051Y221771D01*
X278074Y221767D01*
X278101Y221763D01*
X278129Y221756D01*
X278160Y221748D01*
X278190Y221737D01*
X278223Y221725D01*
X278255Y221710D01*
X278286Y221691D01*
X278318Y221670D01*
X278349Y221647D01*
X278377Y221620D01*
X278379Y221618D01*
X278383Y221614D01*
X278389Y221603D01*
X278400Y221592D01*
X278410Y221576D01*
X278423Y221557D01*
X278437Y221534D01*
X278450Y221509D01*
X278465Y221479D01*
X278477Y221445D01*
X278490Y221410D01*
X278500Y221370D01*
X278511Y221328D01*
X278517Y221284D01*
X278521Y221235D01*
X278523Y221183D01*
Y220181D01*
X278242D01*
Y221133D01*
Y221135D01*
Y221137D01*
Y221149D01*
X278240Y221170D01*
X278236Y221196D01*
X278232Y221227D01*
X278223Y221261D01*
X278213Y221296D01*
X278198Y221334D01*
X278181Y221372D01*
X278158Y221408D01*
X278129Y221443D01*
X278095Y221473D01*
X278057Y221498D01*
X278009Y221519D01*
X277957Y221532D01*
X277927Y221534D01*
X277896Y221536D01*
X277870D01*
X277854Y221534D01*
X277833Y221532D01*
X277810Y221530D01*
X277761Y221519D01*
X277759D01*
X277751Y221517D01*
X277738Y221513D01*
X277721Y221506D01*
X277705Y221498D01*
X277683Y221490D01*
X277644Y221464D01*
X277642Y221462D01*
X277635Y221458D01*
X277627Y221450D01*
X277614Y221439D01*
X277602Y221427D01*
X277587Y221412D01*
X277574Y221393D01*
X277562Y221374D01*
X277560Y221372D01*
X277557Y221366D01*
X277551Y221353D01*
X277547Y221338D01*
X277541Y221320D01*
X277534Y221299D01*
X277532Y221275D01*
X277530Y221248D01*
Y220181D01*
X277251D01*
Y221737D01*
X277530D01*
Y221477D01*
X277543D01*
X277545Y221479D01*
X277547Y221487D01*
X277553Y221498D01*
X277560Y221513D01*
X277568Y221530D01*
X277578Y221548D01*
X277604Y221588D01*
X277606Y221590D01*
X277610Y221597D01*
X277618Y221607D01*
X277629Y221620D01*
X277642Y221635D01*
X277658Y221651D01*
X277694Y221683D01*
X277696Y221685D01*
X277705Y221689D01*
X277715Y221697D01*
X277730Y221708D01*
X277749Y221719D01*
X277770Y221729D01*
X277795Y221740D01*
X277820Y221750D01*
X277824Y221752D01*
X277833Y221754D01*
X277849Y221758D01*
X277868Y221763D01*
X277893Y221767D01*
X277923Y221771D01*
X277954Y221775D01*
X278013D01*
X278030Y221773D01*
D02*
G37*
G36*
X267801Y221462D02*
X267480D01*
X267465Y221460D01*
X267448Y221458D01*
X267429Y221456D01*
X267406Y221452D01*
X267383Y221448D01*
X267331Y221433D01*
X267278Y221412D01*
X267251Y221399D01*
X267226Y221385D01*
X267200Y221366D01*
X267177Y221345D01*
X267175Y221343D01*
X267173Y221338D01*
X267167Y221332D01*
X267158Y221324D01*
X267150Y221313D01*
X267139Y221299D01*
X267129Y221282D01*
X267118Y221265D01*
X267108Y221244D01*
X267097Y221221D01*
X267078Y221170D01*
X267064Y221112D01*
X267062Y221080D01*
X267060Y221046D01*
Y220414D01*
X267648D01*
Y220181D01*
X266341D01*
Y220414D01*
X266778D01*
Y221504D01*
X266341D01*
Y221737D01*
X267060D01*
Y221334D01*
X267076D01*
Y221336D01*
X267078Y221343D01*
X267083Y221353D01*
X267087Y221366D01*
X267093Y221380D01*
X267099Y221399D01*
X267118Y221441D01*
X267144Y221490D01*
X267175Y221538D01*
X267213Y221586D01*
X267257Y221630D01*
X267259Y221632D01*
X267263Y221635D01*
X267270Y221641D01*
X267280Y221647D01*
X267293Y221656D01*
X267309Y221664D01*
X267326Y221674D01*
X267347Y221685D01*
X267370Y221693D01*
X267396Y221704D01*
X267423Y221712D01*
X267454Y221721D01*
X267486Y221727D01*
X267519Y221733D01*
X267557Y221735D01*
X267595Y221737D01*
X267801D01*
Y221462D01*
D02*
G37*
G36*
X270728Y221773D02*
X270749D01*
X270772Y221771D01*
X270798Y221767D01*
X270825Y221763D01*
X270886Y221750D01*
X270947Y221733D01*
X271010Y221708D01*
X271039Y221691D01*
X271066Y221674D01*
X271069Y221672D01*
X271073Y221670D01*
X271081Y221664D01*
X271090Y221656D01*
X271102Y221647D01*
X271117Y221635D01*
X271148Y221605D01*
X271182Y221567D01*
X271218Y221521D01*
X271251Y221471D01*
X271281Y221412D01*
X271060Y221292D01*
Y221294D01*
X271058Y221296D01*
X271056Y221303D01*
X271052Y221311D01*
X271041Y221332D01*
X271029Y221357D01*
X271010Y221387D01*
X270987Y221416D01*
X270957Y221445D01*
X270926Y221473D01*
X270921Y221475D01*
X270909Y221483D01*
X270890Y221494D01*
X270863Y221506D01*
X270827Y221519D01*
X270787Y221530D01*
X270741Y221538D01*
X270690Y221540D01*
X270672D01*
X270657Y221538D01*
X270640Y221536D01*
X270621Y221534D01*
X270600Y221530D01*
X270575Y221525D01*
X270525Y221509D01*
X270499Y221500D01*
X270474Y221487D01*
X270447Y221473D01*
X270424Y221456D01*
X270399Y221437D01*
X270378Y221414D01*
X270375Y221412D01*
X270373Y221408D01*
X270367Y221401D01*
X270361Y221391D01*
X270352Y221378D01*
X270344Y221364D01*
X270334Y221347D01*
X270323Y221326D01*
X270312Y221305D01*
X270302Y221280D01*
X270294Y221254D01*
X270285Y221225D01*
X270273Y221162D01*
X270270Y221128D01*
X270268Y221093D01*
Y220826D01*
Y220824D01*
Y220818D01*
Y220807D01*
X270270Y220795D01*
X270273Y220778D01*
X270275Y220757D01*
X270277Y220736D01*
X270283Y220713D01*
X270296Y220662D01*
X270315Y220608D01*
X270327Y220580D01*
X270342Y220555D01*
X270359Y220530D01*
X270378Y220505D01*
X270380Y220503D01*
X270384Y220498D01*
X270390Y220494D01*
X270399Y220486D01*
X270409Y220475D01*
X270424Y220465D01*
X270441Y220454D01*
X270460Y220444D01*
X270480Y220431D01*
X270504Y220421D01*
X270531Y220410D01*
X270560Y220400D01*
X270590Y220391D01*
X270623Y220387D01*
X270659Y220383D01*
X270697Y220381D01*
X270711D01*
X270722Y220383D01*
X270735D01*
X270749Y220385D01*
X270785Y220389D01*
X270823Y220398D01*
X270865Y220410D01*
X270907Y220427D01*
X270945Y220450D01*
X270947D01*
X270949Y220454D01*
X270961Y220463D01*
X270978Y220479D01*
X271001Y220500D01*
X271026Y220528D01*
X271052Y220561D01*
X271077Y220599D01*
X271102Y220643D01*
X271304Y220509D01*
Y220507D01*
X271300Y220503D01*
X271297Y220494D01*
X271291Y220482D01*
X271283Y220469D01*
X271274Y220452D01*
X271251Y220416D01*
X271220Y220374D01*
X271182Y220330D01*
X271136Y220286D01*
X271083Y220246D01*
X271081Y220244D01*
X271077Y220242D01*
X271069Y220238D01*
X271056Y220232D01*
X271041Y220223D01*
X271022Y220215D01*
X271001Y220206D01*
X270978Y220196D01*
X270951Y220188D01*
X270921Y220177D01*
X270890Y220169D01*
X270856Y220162D01*
X270819Y220154D01*
X270779Y220150D01*
X270739Y220148D01*
X270695Y220146D01*
X270665D01*
X270651Y220148D01*
X270634D01*
X270613Y220150D01*
X270592Y220152D01*
X270544Y220160D01*
X270493Y220169D01*
X270441Y220183D01*
X270388Y220202D01*
X270386D01*
X270382Y220204D01*
X270375Y220209D01*
X270365Y220213D01*
X270355Y220219D01*
X270340Y220225D01*
X270310Y220244D01*
X270275Y220267D01*
X270235Y220295D01*
X270197Y220328D01*
X270161Y220366D01*
Y220368D01*
X270157Y220370D01*
X270153Y220377D01*
X270147Y220385D01*
X270138Y220395D01*
X270130Y220408D01*
X270109Y220438D01*
X270086Y220475D01*
X270063Y220519D01*
X270040Y220568D01*
X270019Y220622D01*
Y220624D01*
X270016Y220629D01*
X270014Y220637D01*
X270010Y220650D01*
X270008Y220662D01*
X270004Y220679D01*
X270000Y220698D01*
X269995Y220721D01*
X269989Y220744D01*
X269985Y220771D01*
X269979Y220828D01*
X269972Y220891D01*
X269970Y220960D01*
Y220963D01*
Y220969D01*
Y220979D01*
Y220992D01*
X269972Y221007D01*
Y221025D01*
X269974Y221046D01*
X269976Y221072D01*
X269983Y221122D01*
X269991Y221179D01*
X270002Y221238D01*
X270019Y221294D01*
Y221296D01*
X270021Y221301D01*
X270025Y221309D01*
X270027Y221320D01*
X270033Y221332D01*
X270040Y221349D01*
X270056Y221382D01*
X270075Y221425D01*
X270100Y221466D01*
X270128Y221511D01*
X270161Y221553D01*
X270163Y221555D01*
X270165Y221557D01*
X270178Y221569D01*
X270197Y221590D01*
X270224Y221614D01*
X270258Y221639D01*
X270296Y221666D01*
X270340Y221693D01*
X270388Y221716D01*
X270390D01*
X270394Y221719D01*
X270401Y221723D01*
X270411Y221725D01*
X270424Y221731D01*
X270441Y221735D01*
X270457Y221740D01*
X270476Y221746D01*
X270520Y221756D01*
X270573Y221767D01*
X270630Y221773D01*
X270690Y221775D01*
X270714D01*
X270728Y221773D01*
D02*
G37*
G36*
X287587Y222061D02*
X287075D01*
Y220408D01*
X287587D01*
Y220181D01*
X286270D01*
Y220408D01*
X286785D01*
Y222061D01*
X286270D01*
Y222288D01*
X287587D01*
Y222061D01*
D02*
G37*
G36*
X285949Y220181D02*
X285638D01*
X285468Y220763D01*
X284760D01*
X284590Y220181D01*
X284292D01*
X284922Y222288D01*
X285317D01*
X285949Y220181D01*
D02*
G37*
G36*
X281638Y220414D02*
X282169D01*
Y220181D01*
X280827D01*
Y220414D01*
X281356D01*
Y222181D01*
X280827D01*
Y222414D01*
X281638D01*
Y220414D01*
D02*
G37*
G36*
X279681Y221773D02*
X279706Y221771D01*
X279733Y221767D01*
X279763Y221763D01*
X279796Y221758D01*
X279868Y221742D01*
X279905Y221729D01*
X279943Y221716D01*
X279979Y221700D01*
X280014Y221681D01*
X280050Y221660D01*
X280082Y221635D01*
X280084Y221632D01*
X280088Y221628D01*
X280096Y221620D01*
X280107Y221609D01*
X280119Y221595D01*
X280134Y221576D01*
X280149Y221557D01*
X280164Y221532D01*
X280178Y221506D01*
X280193Y221475D01*
X280208Y221443D01*
X280220Y221408D01*
X280231Y221370D01*
X280239Y221328D01*
X280243Y221284D01*
X280245Y221238D01*
Y220414D01*
X280455D01*
Y220181D01*
X280258D01*
X280248Y220183D01*
X280224Y220185D01*
X280193Y220190D01*
X280159Y220198D01*
X280126Y220211D01*
X280094Y220230D01*
X280067Y220253D01*
X280065Y220257D01*
X280057Y220265D01*
X280046Y220282D01*
X280033Y220303D01*
X280019Y220330D01*
X280006Y220362D01*
X279996Y220398D01*
X279987Y220440D01*
X279973D01*
Y220438D01*
X279970Y220433D01*
X279966Y220427D01*
X279962Y220416D01*
X279949Y220391D01*
X279933Y220362D01*
X279909Y220326D01*
X279880Y220290D01*
X279844Y220255D01*
X279804Y220223D01*
X279802D01*
X279800Y220219D01*
X279792Y220217D01*
X279784Y220211D01*
X279773Y220204D01*
X279758Y220198D01*
X279742Y220192D01*
X279725Y220185D01*
X279704Y220177D01*
X279681Y220171D01*
X279655Y220164D01*
X279628Y220158D01*
X279567Y220150D01*
X279500Y220146D01*
X279477D01*
X279460Y220148D01*
X279439Y220150D01*
X279416Y220152D01*
X279391Y220156D01*
X279361Y220160D01*
X279300Y220175D01*
X279269Y220185D01*
X279235Y220198D01*
X279204Y220213D01*
X279172Y220230D01*
X279143Y220249D01*
X279116Y220269D01*
X279114Y220272D01*
X279109Y220276D01*
X279103Y220282D01*
X279093Y220293D01*
X279082Y220305D01*
X279072Y220322D01*
X279057Y220339D01*
X279044Y220360D01*
X279032Y220383D01*
X279019Y220410D01*
X279007Y220438D01*
X278996Y220469D01*
X278986Y220503D01*
X278979Y220538D01*
X278975Y220576D01*
X278973Y220616D01*
Y220618D01*
Y220626D01*
X278975Y220637D01*
Y220652D01*
X278977Y220671D01*
X278981Y220694D01*
X278986Y220717D01*
X278994Y220742D01*
X279002Y220769D01*
X279013Y220797D01*
X279025Y220826D01*
X279042Y220853D01*
X279059Y220881D01*
X279082Y220908D01*
X279105Y220933D01*
X279135Y220956D01*
X279137Y220958D01*
X279143Y220960D01*
X279151Y220967D01*
X279166Y220975D01*
X279183Y220984D01*
X279206Y220994D01*
X279231Y221005D01*
X279261Y221017D01*
X279294Y221028D01*
X279332Y221038D01*
X279374Y221049D01*
X279420Y221057D01*
X279471Y221065D01*
X279527Y221072D01*
X279586Y221074D01*
X279649Y221076D01*
X279966D01*
Y221215D01*
Y221217D01*
Y221223D01*
Y221231D01*
X279964Y221242D01*
Y221256D01*
X279962Y221271D01*
X279956Y221307D01*
X279943Y221349D01*
X279926Y221389D01*
X279905Y221429D01*
X279891Y221445D01*
X279874Y221462D01*
X279870Y221466D01*
X279857Y221475D01*
X279836Y221490D01*
X279807Y221504D01*
X279771Y221519D01*
X279727Y221534D01*
X279674Y221542D01*
X279613Y221546D01*
X279588D01*
X279573Y221544D01*
X279559D01*
X279523Y221538D01*
X279483Y221532D01*
X279441Y221521D01*
X279399Y221506D01*
X279359Y221485D01*
X279355Y221483D01*
X279343Y221475D01*
X279326Y221462D01*
X279303Y221443D01*
X279279Y221420D01*
X279252Y221391D01*
X279227Y221359D01*
X279202Y221322D01*
X279023Y221464D01*
X279025Y221466D01*
X279030Y221475D01*
X279036Y221485D01*
X279046Y221500D01*
X279057Y221519D01*
X279072Y221538D01*
X279088Y221559D01*
X279107Y221580D01*
X279109Y221582D01*
X279118Y221590D01*
X279128Y221601D01*
X279145Y221614D01*
X279164Y221628D01*
X279185Y221645D01*
X279210Y221662D01*
X279238Y221679D01*
X279242Y221681D01*
X279250Y221687D01*
X279267Y221693D01*
X279288Y221704D01*
X279313Y221714D01*
X279343Y221727D01*
X279376Y221737D01*
X279412Y221748D01*
X279414D01*
X279416Y221750D01*
X279422D01*
X279429Y221752D01*
X279450Y221756D01*
X279477Y221763D01*
X279510Y221767D01*
X279548Y221771D01*
X279590Y221773D01*
X279634Y221775D01*
X279662D01*
X279681Y221773D01*
D02*
G37*
G36*
X274494Y220414D02*
X275006D01*
Y220181D01*
X273666D01*
Y220414D01*
X274212D01*
Y221504D01*
X273666D01*
Y221737D01*
X274494D01*
Y220414D01*
D02*
G37*
G36*
X272442Y221737D02*
X273133D01*
Y221504D01*
X272442D01*
Y220414D01*
X273133D01*
Y220181D01*
X272513D01*
X272501Y220183D01*
X272486Y220185D01*
X272467Y220188D01*
X272425Y220194D01*
X272379Y220206D01*
X272333Y220225D01*
X272310Y220236D01*
X272289Y220251D01*
X272270Y220265D01*
X272251Y220284D01*
Y220286D01*
X272247Y220288D01*
X272242Y220295D01*
X272236Y220303D01*
X272230Y220314D01*
X272221Y220326D01*
X272207Y220358D01*
X272190Y220395D01*
X272175Y220442D01*
X272165Y220494D01*
X272163Y220524D01*
X272161Y220553D01*
Y221504D01*
X271663D01*
Y221737D01*
X272037D01*
X272051Y221740D01*
X272070Y221742D01*
X272089Y221746D01*
X272108Y221750D01*
X272125Y221758D01*
X272140Y221769D01*
X272142Y221771D01*
X272146Y221775D01*
X272150Y221784D01*
X272158Y221796D01*
X272165Y221813D01*
X272169Y221832D01*
X272173Y221857D01*
X272175Y221886D01*
Y222288D01*
X272442D01*
Y221737D01*
D02*
G37*
G36*
X269063Y220414D02*
X269575D01*
Y220181D01*
X268236D01*
Y220414D01*
X268782D01*
Y221504D01*
X268236D01*
Y221737D01*
X269063D01*
Y220414D01*
D02*
G37*
G36*
X265907Y222038D02*
X264859D01*
Y221372D01*
X265816D01*
Y221122D01*
X264859D01*
Y220181D01*
X264567D01*
Y222288D01*
X265907D01*
Y222038D01*
D02*
G37*
G36*
X276111Y221773D02*
X276127D01*
X276146Y221771D01*
X276167Y221769D01*
X276214Y221761D01*
X276264Y221750D01*
X276316Y221735D01*
X276367Y221716D01*
X276369D01*
X276373Y221714D01*
X276379Y221710D01*
X276390Y221706D01*
X276400Y221700D01*
X276415Y221693D01*
X276447Y221674D01*
X276482Y221651D01*
X276520Y221624D01*
X276558Y221590D01*
X276596Y221553D01*
X276598Y221550D01*
X276600Y221548D01*
X276604Y221542D01*
X276610Y221534D01*
X276619Y221523D01*
X276627Y221511D01*
X276648Y221481D01*
X276671Y221443D01*
X276696Y221399D01*
X276720Y221351D01*
X276739Y221296D01*
Y221294D01*
X276741Y221290D01*
X276743Y221282D01*
X276747Y221271D01*
X276751Y221256D01*
X276755Y221240D01*
X276760Y221221D01*
X276764Y221198D01*
X276768Y221175D01*
X276772Y221149D01*
X276781Y221093D01*
X276787Y221028D01*
X276789Y220960D01*
Y220958D01*
Y220952D01*
Y220941D01*
Y220929D01*
X276787Y220912D01*
Y220893D01*
X276785Y220870D01*
X276783Y220847D01*
X276776Y220795D01*
X276768Y220738D01*
X276755Y220679D01*
X276739Y220620D01*
Y220618D01*
X276736Y220614D01*
X276734Y220605D01*
X276730Y220595D01*
X276724Y220582D01*
X276717Y220568D01*
X276703Y220532D01*
X276682Y220492D01*
X276659Y220450D01*
X276629Y220406D01*
X276596Y220364D01*
Y220362D01*
X276591Y220360D01*
X276579Y220347D01*
X276558Y220328D01*
X276533Y220305D01*
X276499Y220278D01*
X276459Y220251D01*
X276415Y220225D01*
X276367Y220202D01*
X276365D01*
X276361Y220200D01*
X276354Y220198D01*
X276344Y220194D01*
X276331Y220190D01*
X276316Y220183D01*
X276300Y220179D01*
X276281Y220175D01*
X276237Y220164D01*
X276186Y220154D01*
X276130Y220148D01*
X276069Y220146D01*
X276039D01*
X276025Y220148D01*
X276008D01*
X275989Y220150D01*
X275968Y220152D01*
X275920Y220160D01*
X275869Y220169D01*
X275817Y220183D01*
X275766Y220202D01*
X275764D01*
X275760Y220204D01*
X275754Y220209D01*
X275743Y220213D01*
X275733Y220219D01*
X275720Y220225D01*
X275689Y220244D01*
X275653Y220267D01*
X275615Y220295D01*
X275577Y220326D01*
X275539Y220364D01*
Y220366D01*
X275535Y220368D01*
X275531Y220374D01*
X275525Y220383D01*
X275516Y220393D01*
X275508Y220406D01*
X275487Y220435D01*
X275462Y220473D01*
X275439Y220517D01*
X275415Y220566D01*
X275395Y220620D01*
Y220622D01*
X275392Y220626D01*
X275390Y220635D01*
X275386Y220648D01*
X275384Y220660D01*
X275380Y220679D01*
X275376Y220698D01*
X275371Y220719D01*
X275365Y220744D01*
X275361Y220769D01*
X275355Y220828D01*
X275348Y220891D01*
X275346Y220960D01*
Y220963D01*
Y220969D01*
Y220979D01*
Y220992D01*
X275348Y221009D01*
Y221028D01*
X275350Y221049D01*
X275353Y221072D01*
X275359Y221124D01*
X275367Y221181D01*
X275378Y221240D01*
X275395Y221296D01*
Y221299D01*
X275397Y221303D01*
X275401Y221311D01*
X275403Y221322D01*
X275409Y221334D01*
X275415Y221349D01*
X275432Y221385D01*
X275451Y221425D01*
X275476Y221469D01*
X275506Y221511D01*
X275539Y221553D01*
X275541Y221555D01*
X275544Y221557D01*
X275556Y221569D01*
X275577Y221590D01*
X275602Y221614D01*
X275636Y221639D01*
X275676Y221666D01*
X275718Y221693D01*
X275766Y221716D01*
X275768D01*
X275773Y221719D01*
X275779Y221723D01*
X275789Y221725D01*
X275802Y221731D01*
X275817Y221735D01*
X275833Y221740D01*
X275854Y221746D01*
X275899Y221756D01*
X275949Y221767D01*
X276008Y221773D01*
X276069Y221775D01*
X276096D01*
X276111Y221773D01*
D02*
G37*
G36*
X272721Y219722D02*
X272744Y219718D01*
X272772Y219712D01*
X272797Y219703D01*
X272822Y219693D01*
X272841Y219676D01*
X272843Y219674D01*
X272847Y219668D01*
X272856Y219657D01*
X272864Y219642D01*
X272872Y219626D01*
X272881Y219605D01*
X272885Y219582D01*
X272887Y219556D01*
Y219500D01*
Y219498D01*
Y219489D01*
X272885Y219475D01*
X272881Y219460D01*
X272877Y219441D01*
X272868Y219422D01*
X272856Y219403D01*
X272841Y219384D01*
X272839Y219382D01*
X272832Y219378D01*
X272820Y219370D01*
X272805Y219361D01*
X272782Y219353D01*
X272755Y219344D01*
X272721Y219340D01*
X272681Y219338D01*
X272662D01*
X272643Y219340D01*
X272618Y219344D01*
X272593Y219349D01*
X272566Y219357D01*
X272543Y219370D01*
X272522Y219384D01*
X272520Y219386D01*
X272515Y219393D01*
X272507Y219403D01*
X272501Y219416D01*
X272492Y219432D01*
X272484Y219454D01*
X272480Y219475D01*
X272478Y219500D01*
Y219556D01*
Y219561D01*
Y219569D01*
X272480Y219582D01*
X272484Y219598D01*
X272488Y219617D01*
X272497Y219636D01*
X272507Y219657D01*
X272522Y219676D01*
X272524Y219678D01*
X272530Y219685D01*
X272543Y219691D01*
X272559Y219701D01*
X272581Y219710D01*
X272608Y219716D01*
X272641Y219722D01*
X272681Y219724D01*
X272700D01*
X272721Y219722D01*
D02*
G37*
G36*
X269101D02*
X269124Y219718D01*
X269151Y219712D01*
X269176Y219703D01*
X269202Y219693D01*
X269220Y219676D01*
X269223Y219674D01*
X269227Y219668D01*
X269235Y219657D01*
X269244Y219642D01*
X269252Y219626D01*
X269260Y219605D01*
X269265Y219582D01*
X269267Y219556D01*
Y219500D01*
Y219498D01*
Y219489D01*
X269265Y219475D01*
X269260Y219460D01*
X269256Y219441D01*
X269248Y219422D01*
X269235Y219403D01*
X269220Y219384D01*
X269218Y219382D01*
X269212Y219378D01*
X269199Y219370D01*
X269185Y219361D01*
X269162Y219353D01*
X269134Y219344D01*
X269101Y219340D01*
X269061Y219338D01*
X269042D01*
X269023Y219340D01*
X268998Y219344D01*
X268973Y219349D01*
X268945Y219357D01*
X268922Y219370D01*
X268901Y219384D01*
X268899Y219386D01*
X268895Y219393D01*
X268887Y219403D01*
X268880Y219416D01*
X268872Y219432D01*
X268864Y219454D01*
X268859Y219475D01*
X268857Y219500D01*
Y219556D01*
Y219561D01*
Y219569D01*
X268859Y219582D01*
X268864Y219598D01*
X268868Y219617D01*
X268876Y219636D01*
X268887Y219657D01*
X268901Y219676D01*
X268903Y219678D01*
X268910Y219685D01*
X268922Y219691D01*
X268939Y219701D01*
X268960Y219710D01*
X268987Y219716D01*
X269021Y219722D01*
X269061Y219724D01*
X269080D01*
X269101Y219722D01*
D02*
G37*
G36*
X265399Y219605D02*
X265420D01*
X265445Y219603D01*
X265474Y219601D01*
X265504Y219596D01*
X265571Y219586D01*
X265642Y219571D01*
X265714Y219550D01*
X265783Y219523D01*
X265785D01*
X265791Y219519D01*
X265800Y219514D01*
X265812Y219508D01*
X265827Y219500D01*
X265844Y219489D01*
X265884Y219462D01*
X265928Y219430D01*
X265976Y219391D01*
X266022Y219344D01*
X266064Y219292D01*
X265871Y219111D01*
Y219113D01*
X265867Y219115D01*
X265863Y219122D01*
X265856Y219130D01*
X265837Y219149D01*
X265812Y219176D01*
X265781Y219204D01*
X265745Y219233D01*
X265705Y219262D01*
X265661Y219290D01*
X265659D01*
X265655Y219292D01*
X265648Y219296D01*
X265640Y219300D01*
X265627Y219306D01*
X265613Y219311D01*
X265596Y219317D01*
X265577Y219325D01*
X265556Y219332D01*
X265533Y219338D01*
X265480Y219349D01*
X265422Y219357D01*
X265354Y219359D01*
X265335D01*
X265321Y219357D01*
X265304D01*
X265285Y219355D01*
X265264Y219353D01*
X265241Y219349D01*
X265191Y219338D01*
X265140Y219323D01*
X265090Y219302D01*
X265067Y219288D01*
X265046Y219273D01*
X265044D01*
X265041Y219269D01*
X265029Y219258D01*
X265012Y219237D01*
X264993Y219210D01*
X264972Y219174D01*
X264955Y219132D01*
X264943Y219080D01*
X264941Y219052D01*
X264939Y219021D01*
Y219019D01*
Y219015D01*
Y219008D01*
X264941Y218998D01*
X264943Y218973D01*
X264949Y218943D01*
X264957Y218907D01*
X264972Y218870D01*
X264991Y218834D01*
X265018Y218800D01*
X265023Y218796D01*
X265027Y218792D01*
X265035Y218788D01*
X265044Y218779D01*
X265056Y218773D01*
X265069Y218765D01*
X265086Y218754D01*
X265105Y218746D01*
X265125Y218735D01*
X265151Y218727D01*
X265178Y218716D01*
X265207Y218708D01*
X265239Y218698D01*
X265275Y218689D01*
X265312Y218683D01*
X265537Y218643D01*
X265539D01*
X265543Y218641D01*
X265552D01*
X265562Y218639D01*
X265575Y218635D01*
X265590Y218632D01*
X265625Y218624D01*
X265665Y218611D01*
X265707Y218599D01*
X265749Y218582D01*
X265789Y218563D01*
X265791D01*
X265793Y218561D01*
X265806Y218555D01*
X265825Y218542D01*
X265850Y218527D01*
X265877Y218509D01*
X265905Y218488D01*
X265934Y218462D01*
X265959Y218435D01*
X265961Y218431D01*
X265970Y218422D01*
X265982Y218406D01*
X265997Y218385D01*
X266012Y218359D01*
X266028Y218332D01*
X266043Y218299D01*
X266056Y218265D01*
X266058Y218261D01*
X266060Y218248D01*
X266064Y218229D01*
X266071Y218204D01*
X266077Y218175D01*
X266081Y218141D01*
X266083Y218103D01*
X266085Y218065D01*
Y218061D01*
Y218053D01*
X266083Y218036D01*
Y218017D01*
X266079Y217992D01*
X266075Y217963D01*
X266068Y217931D01*
X266060Y217895D01*
X266050Y217860D01*
X266037Y217822D01*
X266022Y217782D01*
X266003Y217744D01*
X265980Y217706D01*
X265955Y217669D01*
X265924Y217633D01*
X265890Y217599D01*
X265888Y217597D01*
X265881Y217593D01*
X265869Y217584D01*
X265854Y217572D01*
X265833Y217559D01*
X265810Y217545D01*
X265781Y217530D01*
X265747Y217515D01*
X265709Y217498D01*
X265667Y217484D01*
X265623Y217469D01*
X265573Y217456D01*
X265518Y217446D01*
X265461Y217438D01*
X265399Y217431D01*
X265333Y217429D01*
X265306D01*
X265287Y217431D01*
X265264D01*
X265237Y217435D01*
X265205Y217438D01*
X265172Y217442D01*
X265136Y217448D01*
X265098Y217454D01*
X265023Y217471D01*
X264945Y217496D01*
X264907Y217513D01*
X264871Y217530D01*
X264869Y217532D01*
X264863Y217534D01*
X264855Y217540D01*
X264840Y217549D01*
X264825Y217557D01*
X264806Y217570D01*
X264785Y217584D01*
X264764Y217601D01*
X264716Y217637D01*
X264666Y217683D01*
X264615Y217734D01*
X264567Y217790D01*
X264766Y217969D01*
X264769Y217967D01*
X264773Y217963D01*
X264779Y217954D01*
X264787Y217944D01*
X264800Y217931D01*
X264813Y217916D01*
X264846Y217885D01*
X264884Y217849D01*
X264928Y217811D01*
X264976Y217776D01*
X265027Y217746D01*
X265029D01*
X265033Y217744D01*
X265041Y217740D01*
X265052Y217736D01*
X265065Y217729D01*
X265079Y217725D01*
X265098Y217719D01*
X265117Y217713D01*
X265140Y217704D01*
X265165Y217698D01*
X265220Y217687D01*
X265281Y217679D01*
X265346Y217677D01*
X265367D01*
X265382Y217679D01*
X265401D01*
X265420Y217681D01*
X265443Y217685D01*
X265468Y217689D01*
X265522Y217700D01*
X265577Y217717D01*
X265630Y217742D01*
X265653Y217757D01*
X265676Y217774D01*
X265678Y217776D01*
X265680Y217778D01*
X265686Y217784D01*
X265692Y217792D01*
X265703Y217803D01*
X265711Y217813D01*
X265722Y217828D01*
X265732Y217845D01*
X265743Y217864D01*
X265753Y217885D01*
X265772Y217933D01*
X265785Y217990D01*
X265787Y218019D01*
X265789Y218053D01*
Y218055D01*
Y218059D01*
Y218068D01*
X265787Y218076D01*
Y218089D01*
X265785Y218103D01*
X265779Y218135D01*
X265768Y218170D01*
X265753Y218208D01*
X265732Y218246D01*
X265705Y218278D01*
X265701Y218282D01*
X265697Y218286D01*
X265688Y218290D01*
X265680Y218299D01*
X265669Y218305D01*
X265655Y218313D01*
X265638Y218324D01*
X265619Y218332D01*
X265598Y218343D01*
X265575Y218351D01*
X265550Y218361D01*
X265520Y218370D01*
X265489Y218378D01*
X265455Y218387D01*
X265417Y218393D01*
X265184Y218433D01*
X265182D01*
X265178Y218435D01*
X265170D01*
X265159Y218437D01*
X265146Y218439D01*
X265130Y218443D01*
X265094Y218452D01*
X265054Y218462D01*
X265010Y218475D01*
X264968Y218492D01*
X264926Y218511D01*
X264924D01*
X264922Y218513D01*
X264909Y218521D01*
X264890Y218534D01*
X264867Y218548D01*
X264840Y218569D01*
X264813Y218590D01*
X264785Y218618D01*
X264760Y218645D01*
X264758Y218649D01*
X264750Y218660D01*
X264739Y218674D01*
X264724Y218695D01*
X264710Y218721D01*
X264695Y218750D01*
X264682Y218781D01*
X264670Y218815D01*
Y218817D01*
X264668Y218819D01*
X264666Y218832D01*
X264661Y218851D01*
X264657Y218876D01*
X264651Y218905D01*
X264647Y218939D01*
X264645Y218975D01*
X264643Y219012D01*
Y219017D01*
Y219025D01*
X264645Y219040D01*
Y219061D01*
X264649Y219084D01*
X264653Y219113D01*
X264659Y219145D01*
X264666Y219178D01*
X264676Y219212D01*
X264689Y219250D01*
X264705Y219285D01*
X264722Y219323D01*
X264745Y219359D01*
X264771Y219393D01*
X264800Y219426D01*
X264834Y219456D01*
X264836Y219458D01*
X264842Y219462D01*
X264852Y219470D01*
X264869Y219479D01*
X264888Y219491D01*
X264911Y219504D01*
X264939Y219516D01*
X264970Y219531D01*
X265006Y219546D01*
X265046Y219559D01*
X265088Y219571D01*
X265134Y219584D01*
X265184Y219592D01*
X265239Y219601D01*
X265296Y219605D01*
X265356Y219607D01*
X265382D01*
X265399Y219605D01*
D02*
G37*
G36*
X276978Y219017D02*
X276623D01*
Y218924D01*
X276625D01*
X276627Y218922D01*
X276638Y218912D01*
X276655Y218897D01*
X276676Y218876D01*
X276699Y218851D01*
X276722Y218821D01*
X276745Y218788D01*
X276766Y218750D01*
Y218748D01*
X276768Y218746D01*
X276770Y218740D01*
X276774Y218731D01*
X276783Y218710D01*
X276791Y218683D01*
X276799Y218647D01*
X276808Y218609D01*
X276814Y218565D01*
X276816Y218517D01*
Y218515D01*
Y218511D01*
Y218504D01*
Y218496D01*
X276814Y218473D01*
X276810Y218443D01*
X276806Y218408D01*
X276797Y218370D01*
X276785Y218330D01*
X276770Y218292D01*
Y218290D01*
X276768Y218288D01*
X276762Y218275D01*
X276751Y218256D01*
X276739Y218233D01*
X276720Y218208D01*
X276699Y218179D01*
X276673Y218151D01*
X276644Y218124D01*
X276640Y218122D01*
X276629Y218114D01*
X276612Y218101D01*
X276589Y218084D01*
X276560Y218068D01*
X276526Y218049D01*
X276489Y218032D01*
X276447Y218015D01*
X276445D01*
X276442Y218013D01*
X276436Y218011D01*
X276428Y218009D01*
X276415Y218007D01*
X276402Y218002D01*
X276373Y217996D01*
X276335Y217990D01*
X276293Y217984D01*
X276245Y217979D01*
X276195Y217977D01*
X276140D01*
X276109Y217979D01*
X276102D01*
X276094Y217981D01*
X276083D01*
X276058Y217986D01*
X276029Y217992D01*
X276027D01*
X276022Y217990D01*
X276016Y217988D01*
X276008Y217986D01*
X275987Y217977D01*
X275961Y217969D01*
X275959D01*
X275955Y217967D01*
X275949Y217965D01*
X275940Y217960D01*
X275922Y217952D01*
X275899Y217937D01*
X275896D01*
X275894Y217933D01*
X275882Y217923D01*
X275865Y217908D01*
X275850Y217889D01*
Y217887D01*
X275848Y217885D01*
X275844Y217879D01*
X275842Y217870D01*
X275833Y217851D01*
X275831Y217826D01*
Y217824D01*
X275833Y217815D01*
X275835Y217803D01*
X275840Y217788D01*
X275848Y217771D01*
X275861Y217757D01*
X275877Y217744D01*
X275901Y217734D01*
X275905D01*
X275913Y217729D01*
X275928Y217727D01*
X275949Y217723D01*
X275974Y217719D01*
X276006Y217717D01*
X276039Y217713D01*
X276453D01*
X276474Y217710D01*
X276499Y217708D01*
X276529Y217706D01*
X276560Y217702D01*
X276596Y217698D01*
X276667Y217685D01*
X276741Y217664D01*
X276776Y217652D01*
X276810Y217635D01*
X276841Y217618D01*
X276869Y217597D01*
X276871Y217595D01*
X276875Y217591D01*
X276881Y217584D01*
X276890Y217576D01*
X276900Y217564D01*
X276913Y217551D01*
X276923Y217534D01*
X276938Y217515D01*
X276951Y217494D01*
X276961Y217471D01*
X276974Y217446D01*
X276984Y217419D01*
X276993Y217389D01*
X276999Y217358D01*
X277003Y217326D01*
X277005Y217290D01*
Y217288D01*
Y217280D01*
X277003Y217267D01*
Y217251D01*
X276999Y217232D01*
X276995Y217209D01*
X276988Y217183D01*
X276980Y217156D01*
X276970Y217129D01*
X276957Y217099D01*
X276940Y217070D01*
X276921Y217041D01*
X276900Y217013D01*
X276873Y216986D01*
X276844Y216961D01*
X276808Y216938D01*
X276806Y216936D01*
X276799Y216933D01*
X276787Y216927D01*
X276770Y216921D01*
X276749Y216913D01*
X276724Y216902D01*
X276694Y216892D01*
X276659Y216881D01*
X276619Y216870D01*
X276575Y216860D01*
X276524Y216852D01*
X276472Y216841D01*
X276413Y216835D01*
X276348Y216828D01*
X276281Y216826D01*
X276207Y216824D01*
X276157D01*
X276138Y216826D01*
X276115D01*
X276092Y216828D01*
X276039Y216831D01*
X275982Y216837D01*
X275928Y216843D01*
X275873Y216852D01*
X275871D01*
X275867Y216854D01*
X275861D01*
X275850Y216856D01*
X275827Y216862D01*
X275796Y216870D01*
X275760Y216881D01*
X275724Y216894D01*
X275686Y216910D01*
X275653Y216927D01*
X275649Y216929D01*
X275638Y216936D01*
X275623Y216946D01*
X275607Y216961D01*
X275586Y216978D01*
X275565Y216999D01*
X275546Y217022D01*
X275529Y217047D01*
X275527Y217051D01*
X275523Y217059D01*
X275516Y217074D01*
X275510Y217093D01*
X275504Y217116D01*
X275497Y217144D01*
X275493Y217173D01*
X275491Y217207D01*
Y217209D01*
Y217213D01*
Y217219D01*
X275493Y217228D01*
X275495Y217251D01*
X275500Y217278D01*
X275508Y217309D01*
X275520Y217343D01*
X275535Y217374D01*
X275558Y217404D01*
X275563Y217406D01*
X275571Y217414D01*
X275588Y217427D01*
X275609Y217442D01*
X275636Y217459D01*
X275670Y217475D01*
X275710Y217492D01*
X275754Y217505D01*
Y217538D01*
X275749Y217540D01*
X275741Y217545D01*
X275728Y217551D01*
X275712Y217561D01*
X275693Y217572D01*
X275674Y217587D01*
X275657Y217603D01*
X275640Y217622D01*
X275638Y217624D01*
X275634Y217633D01*
X275628Y217643D01*
X275621Y217658D01*
X275613Y217679D01*
X275607Y217702D01*
X275602Y217727D01*
X275600Y217757D01*
Y217759D01*
Y217763D01*
Y217767D01*
X275602Y217776D01*
X275605Y217799D01*
X275611Y217824D01*
X275619Y217853D01*
X275634Y217883D01*
X275653Y217910D01*
X275678Y217935D01*
X275682Y217937D01*
X275693Y217946D01*
X275710Y217956D01*
X275733Y217969D01*
X275762Y217984D01*
X275796Y217998D01*
X275835Y218013D01*
X275880Y218025D01*
Y218040D01*
X275877D01*
X275873Y218042D01*
X275865Y218046D01*
X275856Y218053D01*
X275844Y218059D01*
X275829Y218068D01*
X275798Y218086D01*
X275762Y218114D01*
X275724Y218145D01*
X275689Y218183D01*
X275657Y218225D01*
Y218227D01*
X275653Y218231D01*
X275651Y218238D01*
X275644Y218248D01*
X275638Y218259D01*
X275632Y218273D01*
X275625Y218290D01*
X275619Y218309D01*
X275605Y218351D01*
X275592Y218401D01*
X275584Y218456D01*
X275579Y218517D01*
Y218519D01*
Y218523D01*
Y218530D01*
Y218538D01*
X275581Y218561D01*
X275586Y218590D01*
X275590Y218624D01*
X275596Y218662D01*
X275607Y218702D01*
X275621Y218740D01*
Y218742D01*
X275623Y218744D01*
X275630Y218756D01*
X275640Y218775D01*
X275653Y218798D01*
X275672Y218826D01*
X275693Y218853D01*
X275718Y218882D01*
X275747Y218910D01*
X275751Y218912D01*
X275762Y218920D01*
X275779Y218933D01*
X275802Y218950D01*
X275831Y218966D01*
X275865Y218985D01*
X275903Y219002D01*
X275943Y219019D01*
X275945D01*
X275947Y219021D01*
X275953Y219023D01*
X275964Y219025D01*
X275974Y219027D01*
X275987Y219031D01*
X276016Y219040D01*
X276054Y219046D01*
X276096Y219052D01*
X276144Y219057D01*
X276195Y219059D01*
X276224D01*
X276241Y219057D01*
X276258D01*
X276276Y219055D01*
X276300Y219052D01*
X276346Y219044D01*
X276396Y219034D01*
X276447Y219019D01*
X276495Y219000D01*
Y219040D01*
Y219042D01*
Y219044D01*
Y219055D01*
X276497Y219071D01*
X276501Y219092D01*
X276505Y219117D01*
X276514Y219143D01*
X276526Y219168D01*
X276541Y219191D01*
X276543Y219193D01*
X276550Y219201D01*
X276562Y219210D01*
X276579Y219222D01*
X276600Y219233D01*
X276627Y219244D01*
X276659Y219250D01*
X276694Y219252D01*
X276978D01*
Y219017D01*
D02*
G37*
G36*
X274548Y219057D02*
X274569Y219055D01*
X274592Y219050D01*
X274620Y219046D01*
X274647Y219040D01*
X274678Y219031D01*
X274708Y219021D01*
X274741Y219008D01*
X274773Y218994D01*
X274804Y218975D01*
X274836Y218954D01*
X274867Y218931D01*
X274895Y218903D01*
X274897Y218901D01*
X274901Y218897D01*
X274907Y218886D01*
X274918Y218876D01*
X274928Y218859D01*
X274941Y218840D01*
X274956Y218817D01*
X274968Y218792D01*
X274983Y218763D01*
X274995Y218729D01*
X275008Y218693D01*
X275019Y218653D01*
X275029Y218611D01*
X275035Y218567D01*
X275040Y218519D01*
X275042Y218466D01*
Y217465D01*
X274760D01*
Y218416D01*
Y218418D01*
Y218420D01*
Y218433D01*
X274758Y218454D01*
X274754Y218479D01*
X274750Y218511D01*
X274741Y218544D01*
X274731Y218580D01*
X274716Y218618D01*
X274699Y218655D01*
X274676Y218691D01*
X274647Y218727D01*
X274613Y218756D01*
X274575Y218781D01*
X274527Y218802D01*
X274475Y218815D01*
X274445Y218817D01*
X274414Y218819D01*
X274389D01*
X274372Y218817D01*
X274351Y218815D01*
X274328Y218813D01*
X274279Y218802D01*
X274277D01*
X274269Y218800D01*
X274256Y218796D01*
X274239Y218790D01*
X274223Y218781D01*
X274202Y218773D01*
X274162Y218748D01*
X274160Y218746D01*
X274153Y218742D01*
X274145Y218733D01*
X274132Y218723D01*
X274120Y218710D01*
X274105Y218695D01*
X274093Y218676D01*
X274080Y218658D01*
X274078Y218655D01*
X274076Y218649D01*
X274069Y218637D01*
X274065Y218622D01*
X274059Y218603D01*
X274053Y218582D01*
X274050Y218559D01*
X274048Y218532D01*
Y217465D01*
X273769D01*
Y219021D01*
X274048D01*
Y218760D01*
X274061D01*
X274063Y218763D01*
X274065Y218771D01*
X274072Y218781D01*
X274078Y218796D01*
X274086Y218813D01*
X274097Y218832D01*
X274122Y218872D01*
X274124Y218874D01*
X274128Y218880D01*
X274137Y218891D01*
X274147Y218903D01*
X274160Y218918D01*
X274177Y218935D01*
X274212Y218966D01*
X274214Y218968D01*
X274223Y218973D01*
X274233Y218981D01*
X274248Y218991D01*
X274267Y219002D01*
X274288Y219012D01*
X274313Y219023D01*
X274338Y219034D01*
X274342Y219036D01*
X274351Y219038D01*
X274368Y219042D01*
X274387Y219046D01*
X274412Y219050D01*
X274441Y219055D01*
X274473Y219059D01*
X274531D01*
X274548Y219057D01*
D02*
G37*
G36*
X271415Y217465D02*
X271136D01*
Y217725D01*
X271119D01*
Y217723D01*
X271117Y217719D01*
X271113Y217710D01*
X271106Y217702D01*
X271100Y217689D01*
X271092Y217675D01*
X271071Y217643D01*
X271043Y217608D01*
X271012Y217572D01*
X270974Y217536D01*
X270932Y217505D01*
X270930D01*
X270926Y217500D01*
X270919Y217498D01*
X270911Y217492D01*
X270901Y217488D01*
X270886Y217482D01*
X270869Y217473D01*
X270852Y217467D01*
X270810Y217452D01*
X270760Y217442D01*
X270705Y217433D01*
X270642Y217429D01*
X270630D01*
X270615Y217431D01*
X270596Y217433D01*
X270573Y217435D01*
X270546Y217440D01*
X270514Y217446D01*
X270483Y217456D01*
X270447Y217467D01*
X270411Y217479D01*
X270375Y217498D01*
X270338Y217517D01*
X270302Y217543D01*
X270266Y217570D01*
X270233Y217601D01*
X270201Y217639D01*
X270199Y217641D01*
X270195Y217650D01*
X270186Y217662D01*
X270176Y217679D01*
X270163Y217700D01*
X270151Y217727D01*
X270136Y217759D01*
X270121Y217794D01*
X270105Y217834D01*
X270090Y217881D01*
X270077Y217929D01*
X270065Y217984D01*
X270054Y218042D01*
X270046Y218105D01*
X270042Y218173D01*
X270040Y218244D01*
Y218246D01*
Y218248D01*
Y218261D01*
X270042Y218282D01*
Y218309D01*
X270044Y218340D01*
X270048Y218378D01*
X270052Y218420D01*
X270060Y218466D01*
X270069Y218513D01*
X270079Y218563D01*
X270092Y218614D01*
X270109Y218664D01*
X270126Y218712D01*
X270149Y218760D01*
X270172Y218805D01*
X270201Y218847D01*
X270203Y218849D01*
X270210Y218855D01*
X270218Y218865D01*
X270231Y218880D01*
X270247Y218895D01*
X270266Y218914D01*
X270289Y218933D01*
X270317Y218954D01*
X270346Y218973D01*
X270380Y218991D01*
X270415Y219010D01*
X270455Y219025D01*
X270497Y219040D01*
X270544Y219050D01*
X270592Y219057D01*
X270642Y219059D01*
X270659D01*
X270672Y219057D01*
X270686D01*
X270703Y219055D01*
X270743Y219048D01*
X270789Y219040D01*
X270837Y219025D01*
X270886Y219006D01*
X270932Y218981D01*
X270934D01*
X270938Y218977D01*
X270942Y218973D01*
X270951Y218966D01*
X270972Y218950D01*
X270999Y218924D01*
X271029Y218895D01*
X271060Y218857D01*
X271092Y218811D01*
X271119Y218760D01*
X271136D01*
Y219697D01*
X271415D01*
Y217465D01*
D02*
G37*
G36*
X280426D02*
X280071D01*
X279842Y218721D01*
X279817D01*
X279582Y217465D01*
X279227D01*
X279000Y219021D01*
X279244D01*
X279408Y217692D01*
X279437D01*
X279685Y219021D01*
X279975D01*
X280224Y217692D01*
X280252D01*
X280418Y219021D01*
X280653D01*
X280426Y217465D01*
D02*
G37*
G36*
X287207Y217698D02*
X287738D01*
Y217465D01*
X286396D01*
Y217698D01*
X286926D01*
Y219464D01*
X286396D01*
Y219697D01*
X287207D01*
Y217698D01*
D02*
G37*
G36*
X281289Y218760D02*
X281302D01*
X281304Y218763D01*
X281306Y218771D01*
X281312Y218781D01*
X281319Y218796D01*
X281327Y218813D01*
X281337Y218832D01*
X281363Y218872D01*
X281365Y218874D01*
X281369Y218880D01*
X281377Y218891D01*
X281388Y218903D01*
X281400Y218918D01*
X281417Y218935D01*
X281453Y218966D01*
X281455Y218968D01*
X281464Y218973D01*
X281474Y218981D01*
X281489Y218991D01*
X281508Y219002D01*
X281529Y219012D01*
X281554Y219023D01*
X281579Y219034D01*
X281583Y219036D01*
X281592Y219038D01*
X281608Y219042D01*
X281627Y219046D01*
X281652Y219050D01*
X281682Y219055D01*
X281713Y219059D01*
X281772D01*
X281789Y219057D01*
X281810Y219055D01*
X281833Y219050D01*
X281860Y219046D01*
X281888Y219040D01*
X281919Y219031D01*
X281949Y219021D01*
X281982Y219008D01*
X282014Y218994D01*
X282045Y218975D01*
X282077Y218954D01*
X282108Y218931D01*
X282136Y218903D01*
X282138Y218901D01*
X282142Y218897D01*
X282148Y218886D01*
X282159Y218876D01*
X282169Y218859D01*
X282182Y218840D01*
X282196Y218817D01*
X282209Y218792D01*
X282224Y218763D01*
X282236Y218729D01*
X282249Y218693D01*
X282259Y218653D01*
X282270Y218611D01*
X282276Y218567D01*
X282280Y218519D01*
X282282Y218466D01*
Y217465D01*
X282001D01*
Y218416D01*
Y218418D01*
Y218420D01*
Y218433D01*
X281999Y218454D01*
X281995Y218479D01*
X281991Y218511D01*
X281982Y218544D01*
X281972Y218580D01*
X281957Y218618D01*
X281940Y218655D01*
X281917Y218691D01*
X281888Y218727D01*
X281854Y218756D01*
X281816Y218781D01*
X281768Y218802D01*
X281715Y218815D01*
X281686Y218817D01*
X281655Y218819D01*
X281629D01*
X281613Y218817D01*
X281592Y218815D01*
X281569Y218813D01*
X281520Y218802D01*
X281518D01*
X281510Y218800D01*
X281497Y218796D01*
X281480Y218790D01*
X281464Y218781D01*
X281442Y218773D01*
X281403Y218748D01*
X281400Y218746D01*
X281394Y218742D01*
X281386Y218733D01*
X281373Y218723D01*
X281361Y218710D01*
X281346Y218695D01*
X281333Y218676D01*
X281321Y218658D01*
X281319Y218655D01*
X281316Y218649D01*
X281310Y218637D01*
X281306Y218622D01*
X281300Y218603D01*
X281293Y218582D01*
X281291Y218559D01*
X281289Y218532D01*
Y217465D01*
X281010D01*
Y219697D01*
X281289D01*
Y218760D01*
D02*
G37*
G36*
X272822Y217698D02*
X273334D01*
Y217465D01*
X271995D01*
Y217698D01*
X272541D01*
Y218788D01*
X271995D01*
Y219021D01*
X272822D01*
Y217698D01*
D02*
G37*
G36*
X269202D02*
X269714D01*
Y217465D01*
X268374D01*
Y217698D01*
X268920D01*
Y218788D01*
X268374D01*
Y219021D01*
X269202D01*
Y217698D01*
D02*
G37*
G36*
X267295D02*
X267826D01*
Y217465D01*
X266484D01*
Y217698D01*
X267013D01*
Y219464D01*
X266484D01*
Y219697D01*
X267295D01*
Y217698D01*
D02*
G37*
G36*
X285309Y219057D02*
X285323D01*
X285363Y219052D01*
X285407Y219044D01*
X285456Y219036D01*
X285506Y219021D01*
X285556Y219002D01*
X285559D01*
X285563Y219000D01*
X285569Y218996D01*
X285577Y218991D01*
X285603Y218979D01*
X285632Y218960D01*
X285668Y218939D01*
X285703Y218912D01*
X285741Y218878D01*
X285777Y218842D01*
X285779Y218840D01*
X285781Y218838D01*
X285785Y218832D01*
X285792Y218824D01*
X285808Y218802D01*
X285829Y218775D01*
X285853Y218740D01*
X285876Y218698D01*
X285899Y218651D01*
X285920Y218601D01*
Y218599D01*
X285922Y218595D01*
X285924Y218586D01*
X285928Y218576D01*
X285932Y218563D01*
X285936Y218548D01*
X285941Y218530D01*
X285945Y218511D01*
X285953Y218464D01*
X285962Y218412D01*
X285968Y218353D01*
X285970Y218292D01*
Y218175D01*
X284834D01*
Y218109D01*
Y218107D01*
Y218101D01*
Y218091D01*
X284836Y218078D01*
X284838Y218061D01*
X284840Y218040D01*
X284844Y218019D01*
X284849Y217996D01*
X284863Y217946D01*
X284874Y217918D01*
X284884Y217891D01*
X284899Y217864D01*
X284914Y217839D01*
X284933Y217813D01*
X284954Y217788D01*
X284956Y217786D01*
X284960Y217782D01*
X284966Y217778D01*
X284977Y217769D01*
X284989Y217759D01*
X285004Y217748D01*
X285021Y217738D01*
X285042Y217727D01*
X285065Y217715D01*
X285090Y217704D01*
X285118Y217694D01*
X285147Y217683D01*
X285178Y217675D01*
X285214Y217671D01*
X285250Y217666D01*
X285290Y217664D01*
X285304D01*
X285315Y217666D01*
X285330D01*
X285344Y217669D01*
X285382Y217673D01*
X285424Y217681D01*
X285468Y217694D01*
X285512Y217708D01*
X285556Y217731D01*
X285559D01*
X285561Y217736D01*
X285567Y217738D01*
X285575Y217744D01*
X285594Y217759D01*
X285619Y217780D01*
X285649Y217807D01*
X285676Y217841D01*
X285705Y217879D01*
X285731Y217920D01*
X285922Y217771D01*
Y217769D01*
X285918Y217765D01*
X285913Y217757D01*
X285907Y217746D01*
X285899Y217734D01*
X285890Y217719D01*
X285863Y217683D01*
X285831Y217645D01*
X285789Y217603D01*
X285741Y217561D01*
X285684Y217524D01*
X285682D01*
X285678Y217519D01*
X285668Y217515D01*
X285655Y217509D01*
X285640Y217503D01*
X285622Y217494D01*
X285598Y217486D01*
X285575Y217477D01*
X285546Y217467D01*
X285517Y217459D01*
X285483Y217450D01*
X285449Y217444D01*
X285412Y217438D01*
X285372Y217433D01*
X285332Y217431D01*
X285288Y217429D01*
X285258D01*
X285244Y217431D01*
X285227D01*
X285206Y217433D01*
X285185Y217435D01*
X285136Y217444D01*
X285084Y217452D01*
X285029Y217467D01*
X284977Y217486D01*
X284975D01*
X284970Y217488D01*
X284964Y217492D01*
X284954Y217496D01*
X284941Y217503D01*
X284928Y217509D01*
X284895Y217528D01*
X284859Y217551D01*
X284819Y217578D01*
X284779Y217610D01*
X284742Y217648D01*
Y217650D01*
X284737Y217652D01*
X284733Y217658D01*
X284727Y217666D01*
X284718Y217677D01*
X284708Y217689D01*
X284687Y217719D01*
X284664Y217757D01*
X284641Y217801D01*
X284616Y217849D01*
X284595Y217904D01*
Y217906D01*
X284593Y217910D01*
X284590Y217918D01*
X284586Y217931D01*
X284582Y217944D01*
X284578Y217960D01*
X284574Y217979D01*
X284569Y218002D01*
X284565Y218025D01*
X284561Y218051D01*
X284553Y218107D01*
X284546Y218173D01*
X284544Y218240D01*
Y218242D01*
Y218248D01*
Y218259D01*
Y218271D01*
X284546Y218288D01*
Y218307D01*
X284548Y218328D01*
X284550Y218353D01*
X284557Y218404D01*
X284567Y218462D01*
X284580Y218519D01*
X284597Y218578D01*
Y218580D01*
X284599Y218584D01*
X284603Y218593D01*
X284607Y218603D01*
X284611Y218616D01*
X284620Y218632D01*
X284637Y218666D01*
X284658Y218708D01*
X284683Y218750D01*
X284712Y218794D01*
X284746Y218836D01*
X284748Y218838D01*
X284750Y218840D01*
X284763Y218853D01*
X284784Y218874D01*
X284809Y218897D01*
X284842Y218922D01*
X284882Y218950D01*
X284924Y218977D01*
X284973Y219000D01*
X284975D01*
X284979Y219002D01*
X284985Y219006D01*
X284996Y219008D01*
X285008Y219015D01*
X285023Y219019D01*
X285040Y219023D01*
X285061Y219029D01*
X285103Y219040D01*
X285153Y219050D01*
X285208Y219057D01*
X285267Y219059D01*
X285294D01*
X285309Y219057D01*
D02*
G37*
G36*
X283498D02*
X283513D01*
X283553Y219052D01*
X283597Y219044D01*
X283645Y219036D01*
X283696Y219021D01*
X283746Y219002D01*
X283748D01*
X283752Y219000D01*
X283759Y218996D01*
X283767Y218991D01*
X283792Y218979D01*
X283822Y218960D01*
X283857Y218939D01*
X283893Y218912D01*
X283931Y218878D01*
X283967Y218842D01*
X283969Y218840D01*
X283971Y218838D01*
X283975Y218832D01*
X283981Y218824D01*
X283998Y218802D01*
X284019Y218775D01*
X284042Y218740D01*
X284065Y218698D01*
X284088Y218651D01*
X284109Y218601D01*
Y218599D01*
X284112Y218595D01*
X284114Y218586D01*
X284118Y218576D01*
X284122Y218563D01*
X284126Y218548D01*
X284131Y218530D01*
X284135Y218511D01*
X284143Y218464D01*
X284152Y218412D01*
X284158Y218353D01*
X284160Y218292D01*
Y218175D01*
X283024D01*
Y218109D01*
Y218107D01*
Y218101D01*
Y218091D01*
X283026Y218078D01*
X283028Y218061D01*
X283030Y218040D01*
X283034Y218019D01*
X283038Y217996D01*
X283053Y217946D01*
X283064Y217918D01*
X283074Y217891D01*
X283089Y217864D01*
X283104Y217839D01*
X283122Y217813D01*
X283143Y217788D01*
X283146Y217786D01*
X283150Y217782D01*
X283156Y217778D01*
X283167Y217769D01*
X283179Y217759D01*
X283194Y217748D01*
X283211Y217738D01*
X283232Y217727D01*
X283255Y217715D01*
X283280Y217704D01*
X283307Y217694D01*
X283337Y217683D01*
X283368Y217675D01*
X283404Y217671D01*
X283440Y217666D01*
X283479Y217664D01*
X283494D01*
X283505Y217666D01*
X283519D01*
X283534Y217669D01*
X283572Y217673D01*
X283614Y217681D01*
X283658Y217694D01*
X283702Y217708D01*
X283746Y217731D01*
X283748D01*
X283750Y217736D01*
X283757Y217738D01*
X283765Y217744D01*
X283784Y217759D01*
X283809Y217780D01*
X283839Y217807D01*
X283866Y217841D01*
X283895Y217879D01*
X283921Y217920D01*
X284112Y217771D01*
Y217769D01*
X284107Y217765D01*
X284103Y217757D01*
X284097Y217746D01*
X284088Y217734D01*
X284080Y217719D01*
X284053Y217683D01*
X284021Y217645D01*
X283979Y217603D01*
X283931Y217561D01*
X283874Y217524D01*
X283872D01*
X283868Y217519D01*
X283857Y217515D01*
X283845Y217509D01*
X283830Y217503D01*
X283811Y217494D01*
X283788Y217486D01*
X283765Y217477D01*
X283736Y217467D01*
X283706Y217459D01*
X283673Y217450D01*
X283639Y217444D01*
X283601Y217438D01*
X283561Y217433D01*
X283522Y217431D01*
X283477Y217429D01*
X283448D01*
X283433Y217431D01*
X283417D01*
X283396Y217433D01*
X283375Y217435D01*
X283326Y217444D01*
X283274Y217452D01*
X283219Y217467D01*
X283167Y217486D01*
X283165D01*
X283160Y217488D01*
X283154Y217492D01*
X283143Y217496D01*
X283131Y217503D01*
X283118Y217509D01*
X283085Y217528D01*
X283049Y217551D01*
X283009Y217578D01*
X282969Y217610D01*
X282931Y217648D01*
Y217650D01*
X282927Y217652D01*
X282923Y217658D01*
X282917Y217666D01*
X282908Y217677D01*
X282898Y217689D01*
X282877Y217719D01*
X282854Y217757D01*
X282831Y217801D01*
X282805Y217849D01*
X282784Y217904D01*
Y217906D01*
X282782Y217910D01*
X282780Y217918D01*
X282776Y217931D01*
X282772Y217944D01*
X282768Y217960D01*
X282763Y217979D01*
X282759Y218002D01*
X282755Y218025D01*
X282751Y218051D01*
X282742Y218107D01*
X282736Y218173D01*
X282734Y218240D01*
Y218242D01*
Y218248D01*
Y218259D01*
Y218271D01*
X282736Y218288D01*
Y218307D01*
X282738Y218328D01*
X282740Y218353D01*
X282747Y218404D01*
X282757Y218462D01*
X282770Y218519D01*
X282786Y218578D01*
Y218580D01*
X282789Y218584D01*
X282793Y218593D01*
X282797Y218603D01*
X282801Y218616D01*
X282810Y218632D01*
X282826Y218666D01*
X282847Y218708D01*
X282873Y218750D01*
X282902Y218794D01*
X282936Y218836D01*
X282938Y218838D01*
X282940Y218840D01*
X282952Y218853D01*
X282973Y218874D01*
X282999Y218897D01*
X283032Y218922D01*
X283072Y218950D01*
X283114Y218977D01*
X283162Y219000D01*
X283165D01*
X283169Y219002D01*
X283175Y219006D01*
X283186Y219008D01*
X283198Y219015D01*
X283213Y219019D01*
X283230Y219023D01*
X283251Y219029D01*
X283293Y219040D01*
X283343Y219050D01*
X283398Y219057D01*
X283456Y219059D01*
X283484D01*
X283498Y219057D01*
D02*
G37*
G36*
X287039Y216311D02*
X287054D01*
X287089Y216308D01*
X287129Y216302D01*
X287171Y216296D01*
X287215Y216285D01*
X287257Y216271D01*
X287260D01*
X287262Y216269D01*
X287268Y216266D01*
X287276Y216264D01*
X287295Y216254D01*
X287322Y216241D01*
X287352Y216227D01*
X287383Y216208D01*
X287415Y216187D01*
X287444Y216161D01*
X287449Y216159D01*
X287457Y216149D01*
X287472Y216136D01*
X287491Y216117D01*
X287511Y216094D01*
X287535Y216067D01*
X287556Y216038D01*
X287577Y216006D01*
X287579Y216002D01*
X287585Y215991D01*
X287596Y215975D01*
X287608Y215951D01*
X287623Y215924D01*
X287640Y215893D01*
X287654Y215859D01*
X287669Y215823D01*
X287413Y215723D01*
X287411Y215727D01*
X287409Y215735D01*
X287402Y215748D01*
X287396Y215765D01*
X287386Y215786D01*
X287375Y215807D01*
X287352Y215853D01*
X287350Y215855D01*
X287346Y215863D01*
X287339Y215876D01*
X287329Y215891D01*
X287316Y215907D01*
X287304Y215926D01*
X287270Y215962D01*
X287268Y215964D01*
X287262Y215970D01*
X287251Y215979D01*
X287239Y215989D01*
X287222Y216002D01*
X287203Y216015D01*
X287182Y216027D01*
X287157Y216038D01*
X287155Y216040D01*
X287146Y216042D01*
X287131Y216046D01*
X287112Y216052D01*
X287089Y216056D01*
X287062Y216061D01*
X287033Y216063D01*
X286999Y216065D01*
X286980D01*
X286957Y216063D01*
X286930Y216059D01*
X286896Y216052D01*
X286863Y216044D01*
X286827Y216033D01*
X286793Y216017D01*
X286789Y216015D01*
X286779Y216008D01*
X286762Y215998D01*
X286743Y215983D01*
X286720Y215964D01*
X286695Y215941D01*
X286671Y215914D01*
X286648Y215882D01*
X286646Y215878D01*
X286640Y215867D01*
X286630Y215849D01*
X286617Y215823D01*
X286602Y215794D01*
X286588Y215758D01*
X286575Y215716D01*
X286562Y215672D01*
Y215670D01*
X286560Y215666D01*
Y215660D01*
X286558Y215651D01*
X286556Y215639D01*
X286554Y215626D01*
X286548Y215592D01*
X286541Y215550D01*
X286537Y215504D01*
X286535Y215452D01*
X286533Y215397D01*
Y215049D01*
Y215046D01*
Y215042D01*
Y215034D01*
Y215023D01*
Y215011D01*
X286535Y214994D01*
X286537Y214958D01*
X286539Y214914D01*
X286545Y214868D01*
X286552Y214822D01*
X286562Y214773D01*
Y214771D01*
X286564Y214767D01*
X286566Y214761D01*
X286569Y214752D01*
X286575Y214729D01*
X286583Y214700D01*
X286596Y214666D01*
X286611Y214633D01*
X286630Y214595D01*
X286648Y214561D01*
X286650Y214557D01*
X286659Y214547D01*
X286671Y214532D01*
X286688Y214513D01*
X286709Y214492D01*
X286735Y214469D01*
X286762Y214448D01*
X286793Y214429D01*
X286797Y214427D01*
X286808Y214423D01*
X286827Y214414D01*
X286852Y214406D01*
X286881Y214398D01*
X286917Y214389D01*
X286957Y214385D01*
X286999Y214383D01*
X287014D01*
X287033Y214385D01*
X287054Y214387D01*
X287079Y214389D01*
X287104Y214393D01*
X287131Y214400D01*
X287157Y214408D01*
X287159Y214410D01*
X287167Y214412D01*
X287180Y214419D01*
X287196Y214427D01*
X287213Y214437D01*
X287232Y214450D01*
X287270Y214481D01*
X287272Y214484D01*
X287278Y214490D01*
X287287Y214500D01*
X287299Y214513D01*
X287312Y214530D01*
X287325Y214549D01*
X287352Y214591D01*
X287354Y214593D01*
X287358Y214601D01*
X287365Y214614D01*
X287373Y214631D01*
X287381Y214652D01*
X287392Y214673D01*
X287413Y214723D01*
X287669Y214622D01*
X287667Y214618D01*
X287663Y214605D01*
X287654Y214586D01*
X287644Y214563D01*
X287629Y214534D01*
X287614Y214505D01*
X287577Y214437D01*
X287575Y214433D01*
X287568Y214423D01*
X287556Y214406D01*
X287541Y214385D01*
X287522Y214362D01*
X287499Y214337D01*
X287474Y214309D01*
X287444Y214282D01*
X287440Y214280D01*
X287430Y214271D01*
X287415Y214259D01*
X287392Y214244D01*
X287365Y214227D01*
X287333Y214209D01*
X287297Y214192D01*
X287257Y214175D01*
X287255D01*
X287253Y214173D01*
X287247Y214171D01*
X287239Y214169D01*
X287228Y214166D01*
X287215Y214162D01*
X287186Y214156D01*
X287148Y214148D01*
X287104Y214141D01*
X287056Y214137D01*
X287001Y214135D01*
X286984D01*
X286963Y214137D01*
X286936Y214139D01*
X286905Y214143D01*
X286867Y214150D01*
X286825Y214158D01*
X286781Y214171D01*
X286732Y214185D01*
X286684Y214204D01*
X286636Y214227D01*
X286588Y214255D01*
X286539Y214286D01*
X286493Y214324D01*
X286451Y214366D01*
X286413Y214416D01*
X286411Y214421D01*
X286405Y214429D01*
X286396Y214446D01*
X286384Y214469D01*
X286369Y214498D01*
X286352Y214534D01*
X286335Y214574D01*
X286319Y214622D01*
X286300Y214677D01*
X286283Y214738D01*
X286266Y214803D01*
X286251Y214876D01*
X286239Y214954D01*
X286230Y215038D01*
X286224Y215128D01*
X286222Y215223D01*
Y215225D01*
Y215229D01*
Y215235D01*
Y215246D01*
Y215259D01*
X286224Y215273D01*
Y215290D01*
Y215309D01*
X286228Y215353D01*
X286233Y215403D01*
X286239Y215460D01*
X286245Y215521D01*
X286256Y215584D01*
X286268Y215651D01*
X286285Y215718D01*
X286302Y215786D01*
X286325Y215851D01*
X286350Y215914D01*
X286380Y215975D01*
X286413Y216029D01*
X286415Y216033D01*
X286422Y216042D01*
X286434Y216054D01*
X286449Y216073D01*
X286470Y216094D01*
X286495Y216120D01*
X286525Y216145D01*
X286560Y216172D01*
X286598Y216197D01*
X286642Y216222D01*
X286690Y216248D01*
X286743Y216269D01*
X286800Y216287D01*
X286863Y216300D01*
X286930Y216311D01*
X287001Y216313D01*
X287026D01*
X287039Y216311D01*
D02*
G37*
G36*
X294948Y215723D02*
X294593D01*
Y215630D01*
X294595D01*
X294597Y215628D01*
X294607Y215618D01*
X294624Y215603D01*
X294645Y215582D01*
X294668Y215557D01*
X294691Y215527D01*
X294714Y215494D01*
X294736Y215456D01*
Y215454D01*
X294738Y215452D01*
X294740Y215445D01*
X294744Y215437D01*
X294752Y215416D01*
X294761Y215389D01*
X294769Y215353D01*
X294777Y215315D01*
X294784Y215271D01*
X294786Y215223D01*
Y215221D01*
Y215216D01*
Y215210D01*
Y215202D01*
X294784Y215179D01*
X294780Y215149D01*
X294775Y215114D01*
X294767Y215076D01*
X294754Y215036D01*
X294740Y214998D01*
Y214996D01*
X294738Y214994D01*
X294731Y214981D01*
X294721Y214962D01*
X294708Y214939D01*
X294689Y214914D01*
X294668Y214885D01*
X294643Y214857D01*
X294614Y214830D01*
X294609Y214828D01*
X294599Y214820D01*
X294582Y214807D01*
X294559Y214790D01*
X294530Y214773D01*
X294496Y214755D01*
X294458Y214738D01*
X294416Y214721D01*
X294414D01*
X294412Y214719D01*
X294406Y214717D01*
X294397Y214715D01*
X294385Y214713D01*
X294372Y214708D01*
X294343Y214702D01*
X294305Y214696D01*
X294263Y214689D01*
X294215Y214685D01*
X294164Y214683D01*
X294110D01*
X294078Y214685D01*
X294072D01*
X294063Y214687D01*
X294053D01*
X294028Y214691D01*
X293998Y214698D01*
X293996D01*
X293992Y214696D01*
X293986Y214694D01*
X293977Y214691D01*
X293956Y214683D01*
X293931Y214675D01*
X293929D01*
X293925Y214673D01*
X293919Y214670D01*
X293910Y214666D01*
X293891Y214658D01*
X293868Y214643D01*
X293866D01*
X293864Y214639D01*
X293851Y214629D01*
X293835Y214614D01*
X293820Y214595D01*
Y214593D01*
X293818Y214591D01*
X293814Y214584D01*
X293811Y214576D01*
X293803Y214557D01*
X293801Y214532D01*
Y214530D01*
X293803Y214521D01*
X293805Y214509D01*
X293809Y214494D01*
X293818Y214477D01*
X293830Y214463D01*
X293847Y214450D01*
X293870Y214440D01*
X293875D01*
X293883Y214435D01*
X293898Y214433D01*
X293919Y214429D01*
X293944Y214425D01*
X293975Y214423D01*
X294009Y214419D01*
X294423D01*
X294444Y214416D01*
X294469Y214414D01*
X294498Y214412D01*
X294530Y214408D01*
X294565Y214404D01*
X294637Y214391D01*
X294710Y214370D01*
X294746Y214358D01*
X294780Y214341D01*
X294811Y214324D01*
X294838Y214303D01*
X294841Y214301D01*
X294845Y214297D01*
X294851Y214290D01*
X294859Y214282D01*
X294870Y214269D01*
X294882Y214257D01*
X294893Y214240D01*
X294908Y214221D01*
X294920Y214200D01*
X294931Y214177D01*
X294943Y214152D01*
X294954Y214124D01*
X294962Y214095D01*
X294969Y214064D01*
X294973Y214032D01*
X294975Y213996D01*
Y213994D01*
Y213986D01*
X294973Y213973D01*
Y213956D01*
X294969Y213938D01*
X294964Y213914D01*
X294958Y213889D01*
X294950Y213862D01*
X294939Y213835D01*
X294927Y213805D01*
X294910Y213776D01*
X294891Y213747D01*
X294870Y213719D01*
X294843Y213692D01*
X294813Y213667D01*
X294777Y213644D01*
X294775Y213642D01*
X294769Y213639D01*
X294757Y213633D01*
X294740Y213627D01*
X294719Y213618D01*
X294693Y213608D01*
X294664Y213597D01*
X294628Y213587D01*
X294588Y213576D01*
X294544Y213566D01*
X294494Y213558D01*
X294442Y213547D01*
X294383Y213541D01*
X294318Y213534D01*
X294250Y213532D01*
X294177Y213530D01*
X294127D01*
X294108Y213532D01*
X294085D01*
X294061Y213534D01*
X294009Y213537D01*
X293952Y213543D01*
X293898Y213549D01*
X293843Y213558D01*
X293841D01*
X293837Y213560D01*
X293830D01*
X293820Y213562D01*
X293797Y213568D01*
X293765Y213576D01*
X293730Y213587D01*
X293694Y213599D01*
X293656Y213616D01*
X293622Y213633D01*
X293618Y213635D01*
X293608Y213642D01*
X293593Y213652D01*
X293576Y213667D01*
X293555Y213684D01*
X293534Y213704D01*
X293515Y213728D01*
X293499Y213753D01*
X293496Y213757D01*
X293492Y213765D01*
X293486Y213780D01*
X293480Y213799D01*
X293473Y213822D01*
X293467Y213849D01*
X293463Y213879D01*
X293461Y213912D01*
Y213914D01*
Y213919D01*
Y213925D01*
X293463Y213933D01*
X293465Y213956D01*
X293469Y213984D01*
X293478Y214015D01*
X293490Y214049D01*
X293505Y214080D01*
X293528Y214110D01*
X293532Y214112D01*
X293541Y214120D01*
X293557Y214133D01*
X293578Y214148D01*
X293606Y214164D01*
X293639Y214181D01*
X293679Y214198D01*
X293723Y214211D01*
Y214244D01*
X293719Y214246D01*
X293711Y214250D01*
X293698Y214257D01*
X293681Y214267D01*
X293662Y214278D01*
X293643Y214293D01*
X293627Y214309D01*
X293610Y214328D01*
X293608Y214330D01*
X293604Y214339D01*
X293597Y214349D01*
X293591Y214364D01*
X293583Y214385D01*
X293576Y214408D01*
X293572Y214433D01*
X293570Y214463D01*
Y214465D01*
Y214469D01*
Y214473D01*
X293572Y214481D01*
X293574Y214505D01*
X293581Y214530D01*
X293589Y214559D01*
X293604Y214589D01*
X293622Y214616D01*
X293648Y214641D01*
X293652Y214643D01*
X293662Y214652D01*
X293679Y214662D01*
X293702Y214675D01*
X293732Y214689D01*
X293765Y214704D01*
X293805Y214719D01*
X293849Y214731D01*
Y214746D01*
X293847D01*
X293843Y214748D01*
X293835Y214752D01*
X293826Y214759D01*
X293814Y214765D01*
X293799Y214773D01*
X293767Y214792D01*
X293732Y214820D01*
X293694Y214851D01*
X293658Y214889D01*
X293627Y214931D01*
Y214933D01*
X293622Y214937D01*
X293620Y214944D01*
X293614Y214954D01*
X293608Y214965D01*
X293601Y214979D01*
X293595Y214996D01*
X293589Y215015D01*
X293574Y215057D01*
X293562Y215107D01*
X293553Y215162D01*
X293549Y215223D01*
Y215225D01*
Y215229D01*
Y215235D01*
Y215244D01*
X293551Y215267D01*
X293555Y215296D01*
X293560Y215330D01*
X293566Y215368D01*
X293576Y215408D01*
X293591Y215445D01*
Y215447D01*
X293593Y215450D01*
X293599Y215462D01*
X293610Y215481D01*
X293622Y215504D01*
X293641Y215531D01*
X293662Y215559D01*
X293688Y215588D01*
X293717Y215616D01*
X293721Y215618D01*
X293732Y215626D01*
X293748Y215639D01*
X293772Y215655D01*
X293801Y215672D01*
X293835Y215691D01*
X293872Y215708D01*
X293912Y215725D01*
X293914D01*
X293917Y215727D01*
X293923Y215729D01*
X293933Y215731D01*
X293944Y215733D01*
X293956Y215737D01*
X293986Y215746D01*
X294024Y215752D01*
X294066Y215758D01*
X294114Y215762D01*
X294164Y215765D01*
X294194D01*
X294211Y215762D01*
X294227D01*
X294246Y215760D01*
X294269Y215758D01*
X294316Y215750D01*
X294366Y215739D01*
X294416Y215725D01*
X294465Y215706D01*
Y215746D01*
Y215748D01*
Y215750D01*
Y215760D01*
X294467Y215777D01*
X294471Y215798D01*
X294475Y215823D01*
X294483Y215849D01*
X294496Y215874D01*
X294511Y215897D01*
X294513Y215899D01*
X294519Y215907D01*
X294532Y215916D01*
X294549Y215928D01*
X294570Y215939D01*
X294597Y215949D01*
X294628Y215956D01*
X294664Y215958D01*
X294948D01*
Y215723D01*
D02*
G37*
G36*
X284086D02*
X283732D01*
Y215630D01*
X283734D01*
X283736Y215628D01*
X283746Y215618D01*
X283763Y215603D01*
X283784Y215582D01*
X283807Y215557D01*
X283830Y215527D01*
X283853Y215494D01*
X283874Y215456D01*
Y215454D01*
X283876Y215452D01*
X283878Y215445D01*
X283883Y215437D01*
X283891Y215416D01*
X283899Y215389D01*
X283908Y215353D01*
X283916Y215315D01*
X283923Y215271D01*
X283925Y215223D01*
Y215221D01*
Y215216D01*
Y215210D01*
Y215202D01*
X283923Y215179D01*
X283918Y215149D01*
X283914Y215114D01*
X283906Y215076D01*
X283893Y215036D01*
X283878Y214998D01*
Y214996D01*
X283876Y214994D01*
X283870Y214981D01*
X283860Y214962D01*
X283847Y214939D01*
X283828Y214914D01*
X283807Y214885D01*
X283782Y214857D01*
X283752Y214830D01*
X283748Y214828D01*
X283738Y214820D01*
X283721Y214807D01*
X283698Y214790D01*
X283668Y214773D01*
X283635Y214755D01*
X283597Y214738D01*
X283555Y214721D01*
X283553D01*
X283551Y214719D01*
X283545Y214717D01*
X283536Y214715D01*
X283524Y214713D01*
X283511Y214708D01*
X283482Y214702D01*
X283444Y214696D01*
X283402Y214689D01*
X283353Y214685D01*
X283303Y214683D01*
X283248D01*
X283217Y214685D01*
X283211D01*
X283202Y214687D01*
X283192D01*
X283167Y214691D01*
X283137Y214698D01*
X283135D01*
X283131Y214696D01*
X283125Y214694D01*
X283116Y214691D01*
X283095Y214683D01*
X283070Y214675D01*
X283068D01*
X283064Y214673D01*
X283057Y214670D01*
X283049Y214666D01*
X283030Y214658D01*
X283007Y214643D01*
X283005D01*
X283003Y214639D01*
X282990Y214629D01*
X282973Y214614D01*
X282959Y214595D01*
Y214593D01*
X282957Y214591D01*
X282952Y214584D01*
X282950Y214576D01*
X282942Y214557D01*
X282940Y214532D01*
Y214530D01*
X282942Y214521D01*
X282944Y214509D01*
X282948Y214494D01*
X282957Y214477D01*
X282969Y214463D01*
X282986Y214450D01*
X283009Y214440D01*
X283013D01*
X283022Y214435D01*
X283036Y214433D01*
X283057Y214429D01*
X283083Y214425D01*
X283114Y214423D01*
X283148Y214419D01*
X283561D01*
X283582Y214416D01*
X283608Y214414D01*
X283637Y214412D01*
X283668Y214408D01*
X283704Y214404D01*
X283776Y214391D01*
X283849Y214370D01*
X283885Y214358D01*
X283918Y214341D01*
X283950Y214324D01*
X283977Y214303D01*
X283979Y214301D01*
X283983Y214297D01*
X283990Y214290D01*
X283998Y214282D01*
X284009Y214269D01*
X284021Y214257D01*
X284032Y214240D01*
X284047Y214221D01*
X284059Y214200D01*
X284070Y214177D01*
X284082Y214152D01*
X284093Y214124D01*
X284101Y214095D01*
X284107Y214064D01*
X284112Y214032D01*
X284114Y213996D01*
Y213994D01*
Y213986D01*
X284112Y213973D01*
Y213956D01*
X284107Y213938D01*
X284103Y213914D01*
X284097Y213889D01*
X284088Y213862D01*
X284078Y213835D01*
X284065Y213805D01*
X284049Y213776D01*
X284030Y213747D01*
X284009Y213719D01*
X283981Y213692D01*
X283952Y213667D01*
X283916Y213644D01*
X283914Y213642D01*
X283908Y213639D01*
X283895Y213633D01*
X283878Y213627D01*
X283857Y213618D01*
X283832Y213608D01*
X283803Y213597D01*
X283767Y213587D01*
X283727Y213576D01*
X283683Y213566D01*
X283633Y213558D01*
X283580Y213547D01*
X283522Y213541D01*
X283456Y213534D01*
X283389Y213532D01*
X283316Y213530D01*
X283265D01*
X283246Y213532D01*
X283223D01*
X283200Y213534D01*
X283148Y213537D01*
X283091Y213543D01*
X283036Y213549D01*
X282982Y213558D01*
X282980D01*
X282976Y213560D01*
X282969D01*
X282959Y213562D01*
X282936Y213568D01*
X282904Y213576D01*
X282868Y213587D01*
X282833Y213599D01*
X282795Y213616D01*
X282761Y213633D01*
X282757Y213635D01*
X282747Y213642D01*
X282732Y213652D01*
X282715Y213667D01*
X282694Y213684D01*
X282673Y213704D01*
X282654Y213728D01*
X282637Y213753D01*
X282635Y213757D01*
X282631Y213765D01*
X282625Y213780D01*
X282618Y213799D01*
X282612Y213822D01*
X282606Y213849D01*
X282602Y213879D01*
X282600Y213912D01*
Y213914D01*
Y213919D01*
Y213925D01*
X282602Y213933D01*
X282604Y213956D01*
X282608Y213984D01*
X282616Y214015D01*
X282629Y214049D01*
X282644Y214080D01*
X282667Y214110D01*
X282671Y214112D01*
X282679Y214120D01*
X282696Y214133D01*
X282717Y214148D01*
X282745Y214164D01*
X282778Y214181D01*
X282818Y214198D01*
X282862Y214211D01*
Y214244D01*
X282858Y214246D01*
X282850Y214250D01*
X282837Y214257D01*
X282820Y214267D01*
X282801Y214278D01*
X282782Y214293D01*
X282766Y214309D01*
X282749Y214328D01*
X282747Y214330D01*
X282742Y214339D01*
X282736Y214349D01*
X282730Y214364D01*
X282721Y214385D01*
X282715Y214408D01*
X282711Y214433D01*
X282709Y214463D01*
Y214465D01*
Y214469D01*
Y214473D01*
X282711Y214481D01*
X282713Y214505D01*
X282719Y214530D01*
X282728Y214559D01*
X282742Y214589D01*
X282761Y214616D01*
X282786Y214641D01*
X282791Y214643D01*
X282801Y214652D01*
X282818Y214662D01*
X282841Y214675D01*
X282871Y214689D01*
X282904Y214704D01*
X282944Y214719D01*
X282988Y214731D01*
Y214746D01*
X282986D01*
X282982Y214748D01*
X282973Y214752D01*
X282965Y214759D01*
X282952Y214765D01*
X282938Y214773D01*
X282906Y214792D01*
X282871Y214820D01*
X282833Y214851D01*
X282797Y214889D01*
X282766Y214931D01*
Y214933D01*
X282761Y214937D01*
X282759Y214944D01*
X282753Y214954D01*
X282747Y214965D01*
X282740Y214979D01*
X282734Y214996D01*
X282728Y215015D01*
X282713Y215057D01*
X282700Y215107D01*
X282692Y215162D01*
X282688Y215223D01*
Y215225D01*
Y215229D01*
Y215235D01*
Y215244D01*
X282690Y215267D01*
X282694Y215296D01*
X282698Y215330D01*
X282705Y215368D01*
X282715Y215408D01*
X282730Y215445D01*
Y215447D01*
X282732Y215450D01*
X282738Y215462D01*
X282749Y215481D01*
X282761Y215504D01*
X282780Y215531D01*
X282801Y215559D01*
X282826Y215588D01*
X282856Y215616D01*
X282860Y215618D01*
X282871Y215626D01*
X282887Y215639D01*
X282910Y215655D01*
X282940Y215672D01*
X282973Y215691D01*
X283011Y215708D01*
X283051Y215725D01*
X283053D01*
X283055Y215727D01*
X283062Y215729D01*
X283072Y215731D01*
X283083Y215733D01*
X283095Y215737D01*
X283125Y215746D01*
X283162Y215752D01*
X283204Y215758D01*
X283253Y215762D01*
X283303Y215765D01*
X283332D01*
X283349Y215762D01*
X283366D01*
X283385Y215760D01*
X283408Y215758D01*
X283454Y215750D01*
X283505Y215739D01*
X283555Y215725D01*
X283603Y215706D01*
Y215746D01*
Y215748D01*
Y215750D01*
Y215760D01*
X283606Y215777D01*
X283610Y215798D01*
X283614Y215823D01*
X283622Y215849D01*
X283635Y215874D01*
X283650Y215897D01*
X283652Y215899D01*
X283658Y215907D01*
X283671Y215916D01*
X283687Y215928D01*
X283708Y215939D01*
X283736Y215949D01*
X283767Y215956D01*
X283803Y215958D01*
X284086D01*
Y215723D01*
D02*
G37*
G36*
X292518Y215762D02*
X292539Y215760D01*
X292562Y215756D01*
X292589Y215752D01*
X292617Y215746D01*
X292648Y215737D01*
X292677Y215727D01*
X292711Y215714D01*
X292743Y215700D01*
X292774Y215681D01*
X292806Y215660D01*
X292837Y215636D01*
X292864Y215609D01*
X292866Y215607D01*
X292871Y215603D01*
X292877Y215592D01*
X292887Y215582D01*
X292898Y215565D01*
X292911Y215546D01*
X292925Y215523D01*
X292938Y215498D01*
X292953Y215469D01*
X292965Y215435D01*
X292978Y215399D01*
X292988Y215359D01*
X292999Y215317D01*
X293005Y215273D01*
X293009Y215225D01*
X293011Y215172D01*
Y214171D01*
X292730D01*
Y215122D01*
Y215124D01*
Y215126D01*
Y215139D01*
X292728Y215160D01*
X292724Y215185D01*
X292720Y215216D01*
X292711Y215250D01*
X292701Y215286D01*
X292686Y215324D01*
X292669Y215361D01*
X292646Y215397D01*
X292617Y215433D01*
X292583Y215462D01*
X292545Y215487D01*
X292497Y215508D01*
X292444Y215521D01*
X292415Y215523D01*
X292384Y215525D01*
X292358D01*
X292341Y215523D01*
X292320Y215521D01*
X292297Y215519D01*
X292249Y215508D01*
X292247D01*
X292239Y215506D01*
X292226Y215502D01*
X292209Y215496D01*
X292192Y215487D01*
X292171Y215479D01*
X292131Y215454D01*
X292129Y215452D01*
X292123Y215447D01*
X292115Y215439D01*
X292102Y215429D01*
X292090Y215416D01*
X292075Y215401D01*
X292062Y215382D01*
X292050Y215364D01*
X292048Y215361D01*
X292045Y215355D01*
X292039Y215342D01*
X292035Y215328D01*
X292029Y215309D01*
X292022Y215288D01*
X292020Y215265D01*
X292018Y215237D01*
Y214171D01*
X291739D01*
Y215727D01*
X292018D01*
Y215466D01*
X292031D01*
X292033Y215469D01*
X292035Y215477D01*
X292041Y215487D01*
X292048Y215502D01*
X292056Y215519D01*
X292066Y215538D01*
X292092Y215578D01*
X292094Y215580D01*
X292098Y215586D01*
X292106Y215597D01*
X292117Y215609D01*
X292129Y215624D01*
X292146Y215641D01*
X292182Y215672D01*
X292184Y215674D01*
X292192Y215679D01*
X292203Y215687D01*
X292218Y215697D01*
X292236Y215708D01*
X292257Y215718D01*
X292283Y215729D01*
X292308Y215739D01*
X292312Y215741D01*
X292320Y215744D01*
X292337Y215748D01*
X292356Y215752D01*
X292381Y215756D01*
X292411Y215760D01*
X292442Y215765D01*
X292501D01*
X292518Y215762D01*
D02*
G37*
G36*
X281657D02*
X281678Y215760D01*
X281701Y215756D01*
X281728Y215752D01*
X281755Y215746D01*
X281787Y215737D01*
X281816Y215727D01*
X281850Y215714D01*
X281881Y215700D01*
X281913Y215681D01*
X281944Y215660D01*
X281976Y215636D01*
X282003Y215609D01*
X282005Y215607D01*
X282010Y215603D01*
X282016Y215592D01*
X282026Y215582D01*
X282037Y215565D01*
X282049Y215546D01*
X282064Y215523D01*
X282077Y215498D01*
X282091Y215469D01*
X282104Y215435D01*
X282117Y215399D01*
X282127Y215359D01*
X282138Y215317D01*
X282144Y215273D01*
X282148Y215225D01*
X282150Y215172D01*
Y214171D01*
X281869D01*
Y215122D01*
Y215124D01*
Y215126D01*
Y215139D01*
X281867Y215160D01*
X281862Y215185D01*
X281858Y215216D01*
X281850Y215250D01*
X281839Y215286D01*
X281825Y215324D01*
X281808Y215361D01*
X281785Y215397D01*
X281755Y215433D01*
X281722Y215462D01*
X281684Y215487D01*
X281636Y215508D01*
X281583Y215521D01*
X281554Y215523D01*
X281522Y215525D01*
X281497D01*
X281480Y215523D01*
X281459Y215521D01*
X281436Y215519D01*
X281388Y215508D01*
X281386D01*
X281377Y215506D01*
X281365Y215502D01*
X281348Y215496D01*
X281331Y215487D01*
X281310Y215479D01*
X281270Y215454D01*
X281268Y215452D01*
X281262Y215447D01*
X281254Y215439D01*
X281241Y215429D01*
X281228Y215416D01*
X281214Y215401D01*
X281201Y215382D01*
X281188Y215364D01*
X281186Y215361D01*
X281184Y215355D01*
X281178Y215342D01*
X281174Y215328D01*
X281167Y215309D01*
X281161Y215288D01*
X281159Y215265D01*
X281157Y215237D01*
Y214171D01*
X280878D01*
Y215727D01*
X281157D01*
Y215466D01*
X281170D01*
X281172Y215469D01*
X281174Y215477D01*
X281180Y215487D01*
X281186Y215502D01*
X281195Y215519D01*
X281205Y215538D01*
X281230Y215578D01*
X281233Y215580D01*
X281237Y215586D01*
X281245Y215597D01*
X281256Y215609D01*
X281268Y215624D01*
X281285Y215641D01*
X281321Y215672D01*
X281323Y215674D01*
X281331Y215679D01*
X281342Y215687D01*
X281356Y215697D01*
X281375Y215708D01*
X281396Y215718D01*
X281421Y215729D01*
X281447Y215739D01*
X281451Y215741D01*
X281459Y215744D01*
X281476Y215748D01*
X281495Y215752D01*
X281520Y215756D01*
X281550Y215760D01*
X281581Y215765D01*
X281640D01*
X281657Y215762D01*
D02*
G37*
G36*
X268985D02*
X269006Y215760D01*
X269029Y215756D01*
X269057Y215752D01*
X269084Y215746D01*
X269115Y215737D01*
X269145Y215727D01*
X269179Y215714D01*
X269210Y215700D01*
X269241Y215681D01*
X269273Y215660D01*
X269304Y215636D01*
X269332Y215609D01*
X269334Y215607D01*
X269338Y215603D01*
X269344Y215592D01*
X269355Y215582D01*
X269365Y215565D01*
X269378Y215546D01*
X269393Y215523D01*
X269405Y215498D01*
X269420Y215469D01*
X269433Y215435D01*
X269445Y215399D01*
X269456Y215359D01*
X269466Y215317D01*
X269473Y215273D01*
X269477Y215225D01*
X269479Y215172D01*
Y214171D01*
X269197D01*
Y215122D01*
Y215124D01*
Y215126D01*
Y215139D01*
X269195Y215160D01*
X269191Y215185D01*
X269187Y215216D01*
X269179Y215250D01*
X269168Y215286D01*
X269153Y215324D01*
X269137Y215361D01*
X269113Y215397D01*
X269084Y215433D01*
X269050Y215462D01*
X269013Y215487D01*
X268964Y215508D01*
X268912Y215521D01*
X268882Y215523D01*
X268851Y215525D01*
X268826D01*
X268809Y215523D01*
X268788Y215521D01*
X268765Y215519D01*
X268717Y215508D01*
X268714D01*
X268706Y215506D01*
X268693Y215502D01*
X268677Y215496D01*
X268660Y215487D01*
X268639Y215479D01*
X268599Y215454D01*
X268597Y215452D01*
X268590Y215447D01*
X268582Y215439D01*
X268569Y215429D01*
X268557Y215416D01*
X268542Y215401D01*
X268530Y215382D01*
X268517Y215364D01*
X268515Y215361D01*
X268513Y215355D01*
X268507Y215342D01*
X268502Y215328D01*
X268496Y215309D01*
X268490Y215288D01*
X268488Y215265D01*
X268485Y215237D01*
Y214171D01*
X268206D01*
Y215727D01*
X268485D01*
Y215466D01*
X268498D01*
X268500Y215469D01*
X268502Y215477D01*
X268509Y215487D01*
X268515Y215502D01*
X268523Y215519D01*
X268534Y215538D01*
X268559Y215578D01*
X268561Y215580D01*
X268565Y215586D01*
X268574Y215597D01*
X268584Y215609D01*
X268597Y215624D01*
X268614Y215641D01*
X268649Y215672D01*
X268651Y215674D01*
X268660Y215679D01*
X268670Y215687D01*
X268685Y215697D01*
X268704Y215708D01*
X268725Y215718D01*
X268750Y215729D01*
X268775Y215739D01*
X268779Y215741D01*
X268788Y215744D01*
X268805Y215748D01*
X268824Y215752D01*
X268849Y215756D01*
X268878Y215760D01*
X268910Y215765D01*
X268969D01*
X268985Y215762D01*
D02*
G37*
G36*
X276146D02*
X276167Y215760D01*
X276192Y215758D01*
X276218Y215756D01*
X276276Y215748D01*
X276340Y215737D01*
X276402Y215721D01*
X276463Y215697D01*
X276466D01*
X276470Y215695D01*
X276478Y215691D01*
X276491Y215685D01*
X276503Y215679D01*
X276518Y215670D01*
X276556Y215649D01*
X276598Y215624D01*
X276642Y215592D01*
X276686Y215557D01*
X276728Y215517D01*
X276556Y215347D01*
X276554Y215349D01*
X276552Y215353D01*
X276545Y215359D01*
X276537Y215368D01*
X276516Y215389D01*
X276486Y215414D01*
X276484Y215416D01*
X276478Y215420D01*
X276470Y215426D01*
X276459Y215435D01*
X276445Y215445D01*
X276428Y215456D01*
X276388Y215477D01*
X276386Y215479D01*
X276377Y215481D01*
X276367Y215487D01*
X276350Y215494D01*
X276331Y215500D01*
X276308Y215508D01*
X276283Y215517D01*
X276255Y215523D01*
X276251D01*
X276243Y215525D01*
X276226Y215529D01*
X276205Y215534D01*
X276180Y215536D01*
X276148Y215540D01*
X276115Y215542D01*
X276052D01*
X276037Y215540D01*
X276020D01*
X275982Y215534D01*
X275938Y215527D01*
X275894Y215517D01*
X275852Y215502D01*
X275815Y215481D01*
X275810Y215479D01*
X275800Y215471D01*
X275785Y215456D01*
X275770Y215437D01*
X275754Y215414D01*
X275739Y215385D01*
X275728Y215351D01*
X275726Y215332D01*
X275724Y215311D01*
Y215309D01*
Y215303D01*
X275726Y215292D01*
Y215277D01*
X275733Y215248D01*
X275745Y215216D01*
Y215214D01*
X275749Y215210D01*
X275754Y215204D01*
X275760Y215195D01*
X275779Y215177D01*
X275802Y215156D01*
X275804D01*
X275808Y215151D01*
X275817Y215147D01*
X275825Y215143D01*
X275838Y215137D01*
X275852Y215130D01*
X275884Y215120D01*
X275886D01*
X275892Y215118D01*
X275903Y215116D01*
X275915Y215114D01*
X275930Y215109D01*
X275947Y215107D01*
X275982Y215099D01*
X276228Y215063D01*
X276232D01*
X276243Y215061D01*
X276260Y215059D01*
X276283Y215055D01*
X276310Y215049D01*
X276342Y215042D01*
X276373Y215034D01*
X276409Y215025D01*
X276413D01*
X276426Y215021D01*
X276442Y215015D01*
X276466Y215009D01*
X276493Y214998D01*
X276520Y214985D01*
X276550Y214973D01*
X276579Y214956D01*
X276583Y214954D01*
X276591Y214948D01*
X276606Y214937D01*
X276623Y214922D01*
X276644Y214906D01*
X276665Y214883D01*
X276686Y214860D01*
X276705Y214830D01*
X276707Y214826D01*
X276713Y214815D01*
X276722Y214799D01*
X276730Y214775D01*
X276739Y214746D01*
X276747Y214713D01*
X276753Y214673D01*
X276755Y214629D01*
Y214626D01*
Y214618D01*
X276753Y214605D01*
Y214591D01*
X276749Y214570D01*
X276745Y214547D01*
X276741Y214521D01*
X276732Y214494D01*
X276724Y214467D01*
X276711Y214435D01*
X276696Y214406D01*
X276680Y214374D01*
X276659Y214345D01*
X276634Y214316D01*
X276606Y214288D01*
X276575Y214263D01*
X276573Y214261D01*
X276566Y214257D01*
X276556Y214250D01*
X276541Y214244D01*
X276524Y214234D01*
X276501Y214223D01*
X276476Y214211D01*
X276447Y214200D01*
X276413Y214188D01*
X276377Y214175D01*
X276337Y214164D01*
X276293Y214156D01*
X276245Y214148D01*
X276197Y214141D01*
X276142Y214137D01*
X276085Y214135D01*
X276062D01*
X276043Y214137D01*
X276022D01*
X275997Y214139D01*
X275970Y214141D01*
X275938Y214145D01*
X275907Y214150D01*
X275871Y214154D01*
X275800Y214169D01*
X275726Y214188D01*
X275657Y214215D01*
X275655D01*
X275649Y214219D01*
X275640Y214223D01*
X275628Y214229D01*
X275611Y214238D01*
X275594Y214248D01*
X275552Y214274D01*
X275506Y214305D01*
X275455Y214343D01*
X275407Y214387D01*
X275361Y214435D01*
X275539Y214595D01*
X275541Y214593D01*
X275544Y214591D01*
X275550Y214584D01*
X275558Y214576D01*
X275579Y214555D01*
X275609Y214530D01*
X275644Y214503D01*
X275684Y214473D01*
X275728Y214444D01*
X275777Y214419D01*
X275779D01*
X275783Y214416D01*
X275791Y214412D01*
X275800Y214410D01*
X275812Y214404D01*
X275829Y214400D01*
X275846Y214393D01*
X275867Y214389D01*
X275888Y214383D01*
X275913Y214376D01*
X275966Y214368D01*
X276027Y214360D01*
X276092Y214358D01*
X276121D01*
X276136Y214360D01*
X276153Y214362D01*
X276190Y214366D01*
X276237Y214372D01*
X276283Y214383D01*
X276329Y214398D01*
X276371Y214416D01*
X276373D01*
X276375Y214419D01*
X276388Y214429D01*
X276405Y214442D01*
X276426Y214463D01*
X276445Y214490D01*
X276461Y214524D01*
X276474Y214561D01*
X276476Y214584D01*
X276478Y214608D01*
Y214610D01*
Y214616D01*
Y214626D01*
X276476Y214639D01*
X276470Y214670D01*
X276457Y214700D01*
Y214702D01*
X276453Y214706D01*
X276449Y214713D01*
X276442Y214721D01*
X276424Y214742D01*
X276398Y214761D01*
X276396Y214763D01*
X276392Y214765D01*
X276384Y214769D01*
X276375Y214773D01*
X276363Y214780D01*
X276348Y214784D01*
X276316Y214794D01*
X276314D01*
X276308Y214796D01*
X276300Y214799D01*
X276287Y214803D01*
X276272Y214805D01*
X276255Y214809D01*
X276218Y214815D01*
X275974Y214853D01*
X275970D01*
X275959Y214855D01*
X275940Y214857D01*
X275917Y214862D01*
X275890Y214866D01*
X275861Y214872D01*
X275827Y214878D01*
X275791Y214887D01*
X275787Y214889D01*
X275777Y214891D01*
X275758Y214897D01*
X275735Y214904D01*
X275710Y214914D01*
X275680Y214927D01*
X275651Y214941D01*
X275621Y214958D01*
X275617Y214960D01*
X275609Y214967D01*
X275594Y214977D01*
X275577Y214992D01*
X275558Y215011D01*
X275537Y215032D01*
X275516Y215057D01*
X275495Y215084D01*
X275493Y215088D01*
X275487Y215099D01*
X275481Y215116D01*
X275472Y215139D01*
X275462Y215168D01*
X275455Y215204D01*
X275449Y215244D01*
X275447Y215288D01*
Y215290D01*
Y215294D01*
Y215298D01*
Y215307D01*
X275449Y215330D01*
X275453Y215357D01*
X275458Y215391D01*
X275466Y215424D01*
X275479Y215460D01*
X275493Y215494D01*
X275495Y215498D01*
X275502Y215508D01*
X275512Y215525D01*
X275527Y215546D01*
X275546Y215569D01*
X275569Y215595D01*
X275596Y215620D01*
X275625Y215643D01*
X275630Y215645D01*
X275640Y215653D01*
X275659Y215664D01*
X275684Y215676D01*
X275714Y215691D01*
X275749Y215706D01*
X275787Y215721D01*
X275831Y215733D01*
X275833D01*
X275838Y215735D01*
X275844D01*
X275852Y215737D01*
X275863Y215741D01*
X275877Y215744D01*
X275909Y215750D01*
X275947Y215754D01*
X275991Y215760D01*
X276039Y215762D01*
X276092Y215765D01*
X276127D01*
X276146Y215762D01*
D02*
G37*
G36*
X288398Y215466D02*
X288410D01*
X288412Y215469D01*
X288415Y215477D01*
X288421Y215487D01*
X288427Y215502D01*
X288436Y215519D01*
X288446Y215538D01*
X288471Y215578D01*
X288473Y215580D01*
X288477Y215586D01*
X288486Y215597D01*
X288496Y215609D01*
X288509Y215624D01*
X288526Y215641D01*
X288562Y215672D01*
X288564Y215674D01*
X288572Y215679D01*
X288582Y215687D01*
X288597Y215697D01*
X288616Y215708D01*
X288637Y215718D01*
X288662Y215729D01*
X288687Y215739D01*
X288692Y215741D01*
X288700Y215744D01*
X288717Y215748D01*
X288736Y215752D01*
X288761Y215756D01*
X288790Y215760D01*
X288822Y215765D01*
X288881D01*
X288897Y215762D01*
X288918Y215760D01*
X288942Y215756D01*
X288969Y215752D01*
X288996Y215746D01*
X289028Y215737D01*
X289057Y215727D01*
X289091Y215714D01*
X289122Y215700D01*
X289154Y215681D01*
X289185Y215660D01*
X289217Y215636D01*
X289244Y215609D01*
X289246Y215607D01*
X289250Y215603D01*
X289257Y215592D01*
X289267Y215582D01*
X289278Y215565D01*
X289290Y215546D01*
X289305Y215523D01*
X289317Y215498D01*
X289332Y215469D01*
X289345Y215435D01*
X289357Y215399D01*
X289368Y215359D01*
X289378Y215317D01*
X289385Y215273D01*
X289389Y215225D01*
X289391Y215172D01*
Y214171D01*
X289110D01*
Y215122D01*
Y215124D01*
Y215126D01*
Y215139D01*
X289107Y215160D01*
X289103Y215185D01*
X289099Y215216D01*
X289091Y215250D01*
X289080Y215286D01*
X289066Y215324D01*
X289049Y215361D01*
X289026Y215397D01*
X288996Y215433D01*
X288963Y215462D01*
X288925Y215487D01*
X288877Y215508D01*
X288824Y215521D01*
X288795Y215523D01*
X288763Y215525D01*
X288738D01*
X288721Y215523D01*
X288700Y215521D01*
X288677Y215519D01*
X288629Y215508D01*
X288627D01*
X288618Y215506D01*
X288606Y215502D01*
X288589Y215496D01*
X288572Y215487D01*
X288551Y215479D01*
X288511Y215454D01*
X288509Y215452D01*
X288503Y215447D01*
X288494Y215439D01*
X288482Y215429D01*
X288469Y215416D01*
X288454Y215401D01*
X288442Y215382D01*
X288429Y215364D01*
X288427Y215361D01*
X288425Y215355D01*
X288419Y215342D01*
X288415Y215328D01*
X288408Y215309D01*
X288402Y215288D01*
X288400Y215265D01*
X288398Y215237D01*
Y214171D01*
X288118D01*
Y216403D01*
X288398D01*
Y215466D01*
D02*
G37*
G36*
X277537D02*
X277549D01*
X277551Y215469D01*
X277553Y215477D01*
X277560Y215487D01*
X277566Y215502D01*
X277574Y215519D01*
X277585Y215538D01*
X277610Y215578D01*
X277612Y215580D01*
X277616Y215586D01*
X277625Y215597D01*
X277635Y215609D01*
X277648Y215624D01*
X277665Y215641D01*
X277700Y215672D01*
X277702Y215674D01*
X277711Y215679D01*
X277721Y215687D01*
X277736Y215697D01*
X277755Y215708D01*
X277776Y215718D01*
X277801Y215729D01*
X277826Y215739D01*
X277831Y215741D01*
X277839Y215744D01*
X277856Y215748D01*
X277875Y215752D01*
X277900Y215756D01*
X277929Y215760D01*
X277961Y215765D01*
X278019D01*
X278036Y215762D01*
X278057Y215760D01*
X278080Y215756D01*
X278108Y215752D01*
X278135Y215746D01*
X278167Y215737D01*
X278196Y215727D01*
X278229Y215714D01*
X278261Y215700D01*
X278292Y215681D01*
X278324Y215660D01*
X278356Y215636D01*
X278383Y215609D01*
X278385Y215607D01*
X278389Y215603D01*
X278395Y215592D01*
X278406Y215582D01*
X278416Y215565D01*
X278429Y215546D01*
X278444Y215523D01*
X278456Y215498D01*
X278471Y215469D01*
X278484Y215435D01*
X278496Y215399D01*
X278507Y215359D01*
X278517Y215317D01*
X278523Y215273D01*
X278528Y215225D01*
X278530Y215172D01*
Y214171D01*
X278248D01*
Y215122D01*
Y215124D01*
Y215126D01*
Y215139D01*
X278246Y215160D01*
X278242Y215185D01*
X278238Y215216D01*
X278229Y215250D01*
X278219Y215286D01*
X278204Y215324D01*
X278187Y215361D01*
X278164Y215397D01*
X278135Y215433D01*
X278101Y215462D01*
X278064Y215487D01*
X278015Y215508D01*
X277963Y215521D01*
X277933Y215523D01*
X277902Y215525D01*
X277877D01*
X277860Y215523D01*
X277839Y215521D01*
X277816Y215519D01*
X277767Y215508D01*
X277765D01*
X277757Y215506D01*
X277744Y215502D01*
X277728Y215496D01*
X277711Y215487D01*
X277690Y215479D01*
X277650Y215454D01*
X277648Y215452D01*
X277642Y215447D01*
X277633Y215439D01*
X277621Y215429D01*
X277608Y215416D01*
X277593Y215401D01*
X277581Y215382D01*
X277568Y215364D01*
X277566Y215361D01*
X277564Y215355D01*
X277557Y215342D01*
X277553Y215328D01*
X277547Y215309D01*
X277541Y215288D01*
X277539Y215265D01*
X277537Y215237D01*
Y214171D01*
X277257D01*
Y216403D01*
X277537D01*
Y215466D01*
D02*
G37*
G36*
X272635Y216275D02*
X272660Y216273D01*
X272690Y216269D01*
X272721Y216262D01*
X272755Y216256D01*
X272791Y216248D01*
X272828Y216237D01*
X272866Y216225D01*
X272904Y216208D01*
X272942Y216189D01*
X272977Y216168D01*
X273009Y216143D01*
X273040Y216113D01*
X273042Y216111D01*
X273047Y216105D01*
X273055Y216096D01*
X273066Y216084D01*
X273076Y216067D01*
X273089Y216046D01*
X273103Y216023D01*
X273118Y215996D01*
X273133Y215964D01*
X273148Y215931D01*
X273160Y215893D01*
X273171Y215853D01*
X273181Y215809D01*
X273189Y215760D01*
X273194Y215710D01*
X273196Y215657D01*
Y215653D01*
Y215645D01*
Y215630D01*
X273194Y215609D01*
X273192Y215584D01*
X273187Y215557D01*
X273183Y215525D01*
X273177Y215492D01*
X273168Y215456D01*
X273158Y215418D01*
X273145Y215380D01*
X273131Y215342D01*
X273112Y215305D01*
X273091Y215269D01*
X273068Y215233D01*
X273040Y215202D01*
X273038Y215200D01*
X273034Y215195D01*
X273024Y215187D01*
X273011Y215177D01*
X272996Y215164D01*
X272975Y215151D01*
X272952Y215137D01*
X272925Y215122D01*
X272896Y215105D01*
X272862Y215090D01*
X272824Y215078D01*
X272784Y215065D01*
X272740Y215055D01*
X272692Y215046D01*
X272641Y215042D01*
X272587Y215040D01*
X272104D01*
Y214171D01*
X271810D01*
Y216277D01*
X272616D01*
X272635Y216275D01*
D02*
G37*
G36*
X265331D02*
X265354Y216273D01*
X265382Y216269D01*
X265413Y216264D01*
X265445Y216258D01*
X265480Y216250D01*
X265516Y216241D01*
X265552Y216229D01*
X265587Y216214D01*
X265623Y216197D01*
X265659Y216176D01*
X265692Y216155D01*
X265722Y216128D01*
X265724Y216126D01*
X265728Y216122D01*
X265737Y216113D01*
X265747Y216101D01*
X265758Y216086D01*
X265770Y216069D01*
X265785Y216048D01*
X265800Y216023D01*
X265814Y215996D01*
X265829Y215966D01*
X265842Y215933D01*
X265852Y215897D01*
X265863Y215859D01*
X265871Y215819D01*
X265875Y215775D01*
X265877Y215729D01*
Y215727D01*
Y215721D01*
Y215710D01*
X265875Y215697D01*
Y215683D01*
X265873Y215664D01*
X265867Y215622D01*
X265854Y215574D01*
X265837Y215525D01*
X265816Y215477D01*
X265802Y215454D01*
X265785Y215433D01*
Y215431D01*
X265781Y215429D01*
X265768Y215416D01*
X265749Y215397D01*
X265722Y215374D01*
X265686Y215349D01*
X265646Y215321D01*
X265598Y215298D01*
X265546Y215277D01*
Y215267D01*
X265548D01*
X265554Y215265D01*
X265562Y215263D01*
X265575Y215259D01*
X265592Y215254D01*
X265609Y215248D01*
X265651Y215231D01*
X265697Y215210D01*
X265745Y215183D01*
X265795Y215147D01*
X265840Y215107D01*
X265842Y215105D01*
X265844Y215101D01*
X265850Y215095D01*
X265856Y215086D01*
X265867Y215074D01*
X265875Y215059D01*
X265886Y215040D01*
X265896Y215021D01*
X265907Y214998D01*
X265917Y214973D01*
X265928Y214946D01*
X265936Y214914D01*
X265942Y214883D01*
X265949Y214847D01*
X265951Y214809D01*
X265953Y214769D01*
Y214767D01*
Y214763D01*
Y214757D01*
Y214748D01*
X265951Y214736D01*
Y214723D01*
X265947Y214691D01*
X265942Y214656D01*
X265934Y214616D01*
X265924Y214574D01*
X265909Y214532D01*
Y214530D01*
X265907Y214528D01*
X265905Y214521D01*
X265900Y214513D01*
X265892Y214494D01*
X265877Y214467D01*
X265861Y214437D01*
X265842Y214406D01*
X265816Y214372D01*
X265789Y214341D01*
X265785Y214337D01*
X265776Y214328D01*
X265760Y214314D01*
X265739Y214295D01*
X265711Y214276D01*
X265680Y214255D01*
X265644Y214234D01*
X265606Y214215D01*
X265604D01*
X265602Y214213D01*
X265596Y214211D01*
X265587Y214209D01*
X265566Y214200D01*
X265537Y214194D01*
X265504Y214185D01*
X265464Y214177D01*
X265420Y214173D01*
X265373Y214171D01*
X264567D01*
Y216277D01*
X265312D01*
X265331Y216275D01*
D02*
G37*
G36*
X290607Y215762D02*
X290622D01*
X290662Y215758D01*
X290706Y215750D01*
X290754Y215741D01*
X290804Y215727D01*
X290855Y215708D01*
X290857D01*
X290861Y215706D01*
X290867Y215702D01*
X290876Y215697D01*
X290901Y215685D01*
X290930Y215666D01*
X290966Y215645D01*
X291002Y215618D01*
X291039Y215584D01*
X291075Y215548D01*
X291077Y215546D01*
X291079Y215544D01*
X291084Y215538D01*
X291090Y215529D01*
X291107Y215508D01*
X291128Y215481D01*
X291151Y215445D01*
X291174Y215403D01*
X291197Y215357D01*
X291218Y215307D01*
Y215305D01*
X291220Y215300D01*
X291222Y215292D01*
X291226Y215282D01*
X291231Y215269D01*
X291235Y215254D01*
X291239Y215235D01*
X291243Y215216D01*
X291252Y215170D01*
X291260Y215118D01*
X291266Y215059D01*
X291268Y214998D01*
Y214880D01*
X290132D01*
Y214815D01*
Y214813D01*
Y214807D01*
Y214796D01*
X290134Y214784D01*
X290137Y214767D01*
X290139Y214746D01*
X290143Y214725D01*
X290147Y214702D01*
X290162Y214652D01*
X290172Y214624D01*
X290183Y214597D01*
X290197Y214570D01*
X290212Y214545D01*
X290231Y214519D01*
X290252Y214494D01*
X290254Y214492D01*
X290258Y214488D01*
X290265Y214484D01*
X290275Y214475D01*
X290288Y214465D01*
X290302Y214454D01*
X290319Y214444D01*
X290340Y214433D01*
X290363Y214421D01*
X290388Y214410D01*
X290416Y214400D01*
X290445Y214389D01*
X290477Y214381D01*
X290512Y214376D01*
X290548Y214372D01*
X290588Y214370D01*
X290603D01*
X290613Y214372D01*
X290628D01*
X290643Y214374D01*
X290680Y214379D01*
X290722Y214387D01*
X290767Y214400D01*
X290811Y214414D01*
X290855Y214437D01*
X290857D01*
X290859Y214442D01*
X290865Y214444D01*
X290874Y214450D01*
X290893Y214465D01*
X290918Y214486D01*
X290947Y214513D01*
X290974Y214547D01*
X291004Y214584D01*
X291029Y214626D01*
X291220Y214477D01*
Y214475D01*
X291216Y214471D01*
X291212Y214463D01*
X291205Y214452D01*
X291197Y214440D01*
X291189Y214425D01*
X291161Y214389D01*
X291130Y214351D01*
X291088Y214309D01*
X291039Y214267D01*
X290983Y214229D01*
X290981D01*
X290977Y214225D01*
X290966Y214221D01*
X290953Y214215D01*
X290939Y214209D01*
X290920Y214200D01*
X290897Y214192D01*
X290874Y214183D01*
X290844Y214173D01*
X290815Y214164D01*
X290781Y214156D01*
X290748Y214150D01*
X290710Y214143D01*
X290670Y214139D01*
X290630Y214137D01*
X290586Y214135D01*
X290557D01*
X290542Y214137D01*
X290525D01*
X290504Y214139D01*
X290483Y214141D01*
X290435Y214150D01*
X290382Y214158D01*
X290328Y214173D01*
X290275Y214192D01*
X290273D01*
X290269Y214194D01*
X290263Y214198D01*
X290252Y214202D01*
X290239Y214209D01*
X290227Y214215D01*
X290193Y214234D01*
X290158Y214257D01*
X290118Y214284D01*
X290078Y214316D01*
X290040Y214353D01*
Y214355D01*
X290036Y214358D01*
X290032Y214364D01*
X290025Y214372D01*
X290017Y214383D01*
X290006Y214395D01*
X289985Y214425D01*
X289962Y214463D01*
X289939Y214507D01*
X289914Y214555D01*
X289893Y214610D01*
Y214612D01*
X289891Y214616D01*
X289889Y214624D01*
X289884Y214637D01*
X289880Y214650D01*
X289876Y214666D01*
X289872Y214685D01*
X289868Y214708D01*
X289863Y214731D01*
X289859Y214757D01*
X289851Y214813D01*
X289845Y214878D01*
X289843Y214946D01*
Y214948D01*
Y214954D01*
Y214965D01*
Y214977D01*
X289845Y214994D01*
Y215013D01*
X289847Y215034D01*
X289849Y215059D01*
X289855Y215109D01*
X289866Y215168D01*
X289878Y215225D01*
X289895Y215284D01*
Y215286D01*
X289897Y215290D01*
X289901Y215298D01*
X289906Y215309D01*
X289910Y215321D01*
X289918Y215338D01*
X289935Y215372D01*
X289956Y215414D01*
X289981Y215456D01*
X290010Y215500D01*
X290044Y215542D01*
X290046Y215544D01*
X290048Y215546D01*
X290061Y215559D01*
X290082Y215580D01*
X290107Y215603D01*
X290141Y215628D01*
X290181Y215655D01*
X290223Y215683D01*
X290271Y215706D01*
X290273D01*
X290277Y215708D01*
X290283Y215712D01*
X290294Y215714D01*
X290307Y215721D01*
X290321Y215725D01*
X290338Y215729D01*
X290359Y215735D01*
X290401Y215746D01*
X290452Y215756D01*
X290506Y215762D01*
X290565Y215765D01*
X290592D01*
X290607Y215762D01*
D02*
G37*
G36*
X279746D02*
X279760D01*
X279800Y215758D01*
X279844Y215750D01*
X279893Y215741D01*
X279943Y215727D01*
X279994Y215708D01*
X279996D01*
X280000Y215706D01*
X280006Y215702D01*
X280014Y215697D01*
X280040Y215685D01*
X280069Y215666D01*
X280105Y215645D01*
X280140Y215618D01*
X280178Y215584D01*
X280214Y215548D01*
X280216Y215546D01*
X280218Y215544D01*
X280222Y215538D01*
X280229Y215529D01*
X280245Y215508D01*
X280266Y215481D01*
X280290Y215445D01*
X280313Y215403D01*
X280336Y215357D01*
X280357Y215307D01*
Y215305D01*
X280359Y215300D01*
X280361Y215292D01*
X280365Y215282D01*
X280369Y215269D01*
X280374Y215254D01*
X280378Y215235D01*
X280382Y215216D01*
X280390Y215170D01*
X280399Y215118D01*
X280405Y215059D01*
X280407Y214998D01*
Y214880D01*
X279271D01*
Y214815D01*
Y214813D01*
Y214807D01*
Y214796D01*
X279273Y214784D01*
X279275Y214767D01*
X279277Y214746D01*
X279282Y214725D01*
X279286Y214702D01*
X279300Y214652D01*
X279311Y214624D01*
X279322Y214597D01*
X279336Y214570D01*
X279351Y214545D01*
X279370Y214519D01*
X279391Y214494D01*
X279393Y214492D01*
X279397Y214488D01*
X279403Y214484D01*
X279414Y214475D01*
X279427Y214465D01*
X279441Y214454D01*
X279458Y214444D01*
X279479Y214433D01*
X279502Y214421D01*
X279527Y214410D01*
X279555Y214400D01*
X279584Y214389D01*
X279615Y214381D01*
X279651Y214376D01*
X279687Y214372D01*
X279727Y214370D01*
X279742D01*
X279752Y214372D01*
X279767D01*
X279781Y214374D01*
X279819Y214379D01*
X279861Y214387D01*
X279905Y214400D01*
X279949Y214414D01*
X279994Y214437D01*
X279996D01*
X279998Y214442D01*
X280004Y214444D01*
X280012Y214450D01*
X280031Y214465D01*
X280057Y214486D01*
X280086Y214513D01*
X280113Y214547D01*
X280143Y214584D01*
X280168Y214626D01*
X280359Y214477D01*
Y214475D01*
X280355Y214471D01*
X280350Y214463D01*
X280344Y214452D01*
X280336Y214440D01*
X280327Y214425D01*
X280300Y214389D01*
X280269Y214351D01*
X280227Y214309D01*
X280178Y214267D01*
X280122Y214229D01*
X280119D01*
X280115Y214225D01*
X280105Y214221D01*
X280092Y214215D01*
X280078Y214209D01*
X280059Y214200D01*
X280035Y214192D01*
X280012Y214183D01*
X279983Y214173D01*
X279954Y214164D01*
X279920Y214156D01*
X279886Y214150D01*
X279849Y214143D01*
X279809Y214139D01*
X279769Y214137D01*
X279725Y214135D01*
X279695D01*
X279681Y214137D01*
X279664D01*
X279643Y214139D01*
X279622Y214141D01*
X279573Y214150D01*
X279521Y214158D01*
X279466Y214173D01*
X279414Y214192D01*
X279412D01*
X279408Y214194D01*
X279401Y214198D01*
X279391Y214202D01*
X279378Y214209D01*
X279366Y214215D01*
X279332Y214234D01*
X279296Y214257D01*
X279256Y214284D01*
X279217Y214316D01*
X279179Y214353D01*
Y214355D01*
X279174Y214358D01*
X279170Y214364D01*
X279164Y214372D01*
X279156Y214383D01*
X279145Y214395D01*
X279124Y214425D01*
X279101Y214463D01*
X279078Y214507D01*
X279053Y214555D01*
X279032Y214610D01*
Y214612D01*
X279030Y214616D01*
X279028Y214624D01*
X279023Y214637D01*
X279019Y214650D01*
X279015Y214666D01*
X279011Y214685D01*
X279007Y214708D01*
X279002Y214731D01*
X278998Y214757D01*
X278990Y214813D01*
X278983Y214878D01*
X278981Y214946D01*
Y214948D01*
Y214954D01*
Y214965D01*
Y214977D01*
X278983Y214994D01*
Y215013D01*
X278986Y215034D01*
X278988Y215059D01*
X278994Y215109D01*
X279004Y215168D01*
X279017Y215225D01*
X279034Y215284D01*
Y215286D01*
X279036Y215290D01*
X279040Y215298D01*
X279044Y215309D01*
X279048Y215321D01*
X279057Y215338D01*
X279074Y215372D01*
X279095Y215414D01*
X279120Y215456D01*
X279149Y215500D01*
X279183Y215542D01*
X279185Y215544D01*
X279187Y215546D01*
X279200Y215559D01*
X279221Y215580D01*
X279246Y215603D01*
X279279Y215628D01*
X279319Y215655D01*
X279361Y215683D01*
X279410Y215706D01*
X279412D01*
X279416Y215708D01*
X279422Y215712D01*
X279433Y215714D01*
X279445Y215721D01*
X279460Y215725D01*
X279477Y215729D01*
X279498Y215735D01*
X279540Y215746D01*
X279590Y215756D01*
X279645Y215762D01*
X279704Y215765D01*
X279731D01*
X279746Y215762D01*
D02*
G37*
G36*
X274307D02*
X274324D01*
X274342Y215760D01*
X274363Y215758D01*
X274410Y215750D01*
X274460Y215739D01*
X274513Y215725D01*
X274563Y215706D01*
X274565D01*
X274569Y215704D01*
X274575Y215700D01*
X274586Y215695D01*
X274597Y215689D01*
X274611Y215683D01*
X274643Y215664D01*
X274678Y215641D01*
X274716Y215613D01*
X274754Y215580D01*
X274792Y215542D01*
X274794Y215540D01*
X274796Y215538D01*
X274800Y215531D01*
X274806Y215523D01*
X274815Y215513D01*
X274823Y215500D01*
X274844Y215471D01*
X274867Y215433D01*
X274893Y215389D01*
X274916Y215340D01*
X274935Y215286D01*
Y215284D01*
X274937Y215280D01*
X274939Y215271D01*
X274943Y215261D01*
X274947Y215246D01*
X274951Y215229D01*
X274956Y215210D01*
X274960Y215187D01*
X274964Y215164D01*
X274968Y215139D01*
X274977Y215082D01*
X274983Y215017D01*
X274985Y214950D01*
Y214948D01*
Y214941D01*
Y214931D01*
Y214918D01*
X274983Y214901D01*
Y214883D01*
X274981Y214860D01*
X274979Y214836D01*
X274972Y214784D01*
X274964Y214727D01*
X274951Y214668D01*
X274935Y214610D01*
Y214608D01*
X274933Y214603D01*
X274930Y214595D01*
X274926Y214584D01*
X274920Y214572D01*
X274914Y214557D01*
X274899Y214521D01*
X274878Y214481D01*
X274855Y214440D01*
X274825Y214395D01*
X274792Y214353D01*
Y214351D01*
X274788Y214349D01*
X274775Y214337D01*
X274754Y214318D01*
X274729Y214295D01*
X274695Y214267D01*
X274655Y214240D01*
X274611Y214215D01*
X274563Y214192D01*
X274561D01*
X274557Y214190D01*
X274550Y214188D01*
X274540Y214183D01*
X274527Y214179D01*
X274513Y214173D01*
X274496Y214169D01*
X274477Y214164D01*
X274433Y214154D01*
X274382Y214143D01*
X274326Y214137D01*
X274265Y214135D01*
X274235D01*
X274221Y214137D01*
X274204D01*
X274185Y214139D01*
X274164Y214141D01*
X274116Y214150D01*
X274065Y214158D01*
X274013Y214173D01*
X273962Y214192D01*
X273960D01*
X273956Y214194D01*
X273950Y214198D01*
X273939Y214202D01*
X273929Y214209D01*
X273916Y214215D01*
X273885Y214234D01*
X273849Y214257D01*
X273811Y214284D01*
X273773Y214316D01*
X273735Y214353D01*
Y214355D01*
X273731Y214358D01*
X273727Y214364D01*
X273721Y214372D01*
X273712Y214383D01*
X273704Y214395D01*
X273683Y214425D01*
X273658Y214463D01*
X273635Y214507D01*
X273612Y214555D01*
X273591Y214610D01*
Y214612D01*
X273588Y214616D01*
X273586Y214624D01*
X273582Y214637D01*
X273580Y214650D01*
X273576Y214668D01*
X273572Y214687D01*
X273568Y214708D01*
X273561Y214734D01*
X273557Y214759D01*
X273551Y214818D01*
X273544Y214880D01*
X273542Y214950D01*
Y214952D01*
Y214958D01*
Y214969D01*
Y214981D01*
X273544Y214998D01*
Y215017D01*
X273547Y215038D01*
X273549Y215061D01*
X273555Y215114D01*
X273563Y215170D01*
X273574Y215229D01*
X273591Y215286D01*
Y215288D01*
X273593Y215292D01*
X273597Y215300D01*
X273599Y215311D01*
X273605Y215324D01*
X273612Y215338D01*
X273628Y215374D01*
X273647Y215414D01*
X273673Y215458D01*
X273702Y215500D01*
X273735Y215542D01*
X273738Y215544D01*
X273740Y215546D01*
X273752Y215559D01*
X273773Y215580D01*
X273798Y215603D01*
X273832Y215628D01*
X273872Y215655D01*
X273914Y215683D01*
X273962Y215706D01*
X273964D01*
X273969Y215708D01*
X273975Y215712D01*
X273985Y215714D01*
X273998Y215721D01*
X274013Y215725D01*
X274029Y215729D01*
X274050Y215735D01*
X274095Y215746D01*
X274145Y215756D01*
X274204Y215762D01*
X274265Y215765D01*
X274292D01*
X274307Y215762D01*
D02*
G37*
G36*
X267074D02*
X267089D01*
X267129Y215758D01*
X267173Y215750D01*
X267221Y215741D01*
X267272Y215727D01*
X267322Y215708D01*
X267324D01*
X267328Y215706D01*
X267335Y215702D01*
X267343Y215697D01*
X267368Y215685D01*
X267398Y215666D01*
X267433Y215645D01*
X267469Y215618D01*
X267507Y215584D01*
X267543Y215548D01*
X267545Y215546D01*
X267547Y215544D01*
X267551Y215538D01*
X267557Y215529D01*
X267574Y215508D01*
X267595Y215481D01*
X267618Y215445D01*
X267641Y215403D01*
X267664Y215357D01*
X267685Y215307D01*
Y215305D01*
X267688Y215300D01*
X267690Y215292D01*
X267694Y215282D01*
X267698Y215269D01*
X267702Y215254D01*
X267706Y215235D01*
X267711Y215216D01*
X267719Y215170D01*
X267727Y215118D01*
X267734Y215059D01*
X267736Y214998D01*
Y214880D01*
X266600D01*
Y214815D01*
Y214813D01*
Y214807D01*
Y214796D01*
X266602Y214784D01*
X266604Y214767D01*
X266606Y214746D01*
X266610Y214725D01*
X266614Y214702D01*
X266629Y214652D01*
X266640Y214624D01*
X266650Y214597D01*
X266665Y214570D01*
X266680Y214545D01*
X266698Y214519D01*
X266719Y214494D01*
X266722Y214492D01*
X266726Y214488D01*
X266732Y214484D01*
X266742Y214475D01*
X266755Y214465D01*
X266770Y214454D01*
X266787Y214444D01*
X266808Y214433D01*
X266831Y214421D01*
X266856Y214410D01*
X266883Y214400D01*
X266913Y214389D01*
X266944Y214381D01*
X266980Y214376D01*
X267016Y214372D01*
X267055Y214370D01*
X267070D01*
X267081Y214372D01*
X267095D01*
X267110Y214374D01*
X267148Y214379D01*
X267190Y214387D01*
X267234Y214400D01*
X267278Y214414D01*
X267322Y214437D01*
X267324D01*
X267326Y214442D01*
X267333Y214444D01*
X267341Y214450D01*
X267360Y214465D01*
X267385Y214486D01*
X267414Y214513D01*
X267442Y214547D01*
X267471Y214584D01*
X267496Y214626D01*
X267688Y214477D01*
Y214475D01*
X267683Y214471D01*
X267679Y214463D01*
X267673Y214452D01*
X267664Y214440D01*
X267656Y214425D01*
X267629Y214389D01*
X267597Y214351D01*
X267555Y214309D01*
X267507Y214267D01*
X267450Y214229D01*
X267448D01*
X267444Y214225D01*
X267433Y214221D01*
X267421Y214215D01*
X267406Y214209D01*
X267387Y214200D01*
X267364Y214192D01*
X267341Y214183D01*
X267312Y214173D01*
X267282Y214164D01*
X267249Y214156D01*
X267215Y214150D01*
X267177Y214143D01*
X267137Y214139D01*
X267097Y214137D01*
X267053Y214135D01*
X267024D01*
X267009Y214137D01*
X266992D01*
X266971Y214139D01*
X266950Y214141D01*
X266902Y214150D01*
X266850Y214158D01*
X266795Y214173D01*
X266742Y214192D01*
X266740D01*
X266736Y214194D01*
X266730Y214198D01*
X266719Y214202D01*
X266707Y214209D01*
X266694Y214215D01*
X266661Y214234D01*
X266625Y214257D01*
X266585Y214284D01*
X266545Y214316D01*
X266507Y214353D01*
Y214355D01*
X266503Y214358D01*
X266499Y214364D01*
X266493Y214372D01*
X266484Y214383D01*
X266474Y214395D01*
X266453Y214425D01*
X266430Y214463D01*
X266406Y214507D01*
X266381Y214555D01*
X266360Y214610D01*
Y214612D01*
X266358Y214616D01*
X266356Y214624D01*
X266352Y214637D01*
X266348Y214650D01*
X266343Y214666D01*
X266339Y214685D01*
X266335Y214708D01*
X266331Y214731D01*
X266327Y214757D01*
X266318Y214813D01*
X266312Y214878D01*
X266310Y214946D01*
Y214948D01*
Y214954D01*
Y214965D01*
Y214977D01*
X266312Y214994D01*
Y215013D01*
X266314Y215034D01*
X266316Y215059D01*
X266322Y215109D01*
X266333Y215168D01*
X266346Y215225D01*
X266362Y215284D01*
Y215286D01*
X266365Y215290D01*
X266369Y215298D01*
X266373Y215309D01*
X266377Y215321D01*
X266386Y215338D01*
X266402Y215372D01*
X266423Y215414D01*
X266448Y215456D01*
X266478Y215500D01*
X266512Y215542D01*
X266514Y215544D01*
X266516Y215546D01*
X266528Y215559D01*
X266549Y215580D01*
X266575Y215603D01*
X266608Y215628D01*
X266648Y215655D01*
X266690Y215683D01*
X266738Y215706D01*
X266740D01*
X266745Y215708D01*
X266751Y215712D01*
X266761Y215714D01*
X266774Y215721D01*
X266789Y215725D01*
X266806Y215729D01*
X266827Y215735D01*
X266868Y215746D01*
X266919Y215756D01*
X266973Y215762D01*
X267032Y215765D01*
X267060D01*
X267074Y215762D01*
D02*
G37*
%LPC*%
G36*
X318628Y219328D02*
X317086D01*
Y218444D01*
X318628D01*
Y219328D01*
D02*
G37*
G36*
Y218115D02*
X317086D01*
Y217196D01*
X318628D01*
Y218115D01*
D02*
G37*
G36*
X318593Y214859D02*
X318021D01*
X318024Y214852D01*
X318037Y214837D01*
X318059Y214811D01*
X318088Y214777D01*
X318126Y214742D01*
X318170Y214701D01*
X318224Y214660D01*
X318284Y214619D01*
X318287Y214622D01*
X318293Y214625D01*
X318306Y214631D01*
X318322Y214641D01*
X318359Y214669D01*
X318407Y214701D01*
X318457Y214739D01*
X318508Y214780D01*
X318555Y214821D01*
X318574Y214840D01*
X318593Y214859D01*
D02*
G37*
G36*
X317051Y214894D02*
X316688D01*
Y214600D01*
X317051D01*
Y214894D01*
D02*
G37*
G36*
X316394D02*
X316031D01*
Y214600D01*
X316394D01*
Y214894D01*
D02*
G37*
G36*
X318075Y213784D02*
X316637D01*
Y213595D01*
X318075D01*
Y213784D01*
D02*
G37*
G36*
Y213386D02*
X316637D01*
Y213162D01*
X318075D01*
Y213386D01*
D02*
G37*
G36*
Y212953D02*
X316637D01*
Y212694D01*
X318075Y212729D01*
Y212953D01*
D02*
G37*
G36*
X316827Y223921D02*
X316618D01*
Y223659D01*
X316827D01*
Y223921D01*
D02*
G37*
G36*
X317380Y223451D02*
X317121D01*
Y223296D01*
Y223289D01*
X317124Y223277D01*
X317130Y223258D01*
X317140Y223236D01*
X317159Y223214D01*
X317187Y223195D01*
X317203Y223188D01*
X317225Y223182D01*
X317247Y223176D01*
X317380D01*
Y223451D01*
D02*
G37*
G36*
X316305D02*
X316027D01*
Y223141D01*
X316037D01*
X316050Y223144D01*
X316065Y223147D01*
X316103Y223163D01*
X316125Y223173D01*
X316147Y223185D01*
X316173Y223204D01*
X316195Y223223D01*
X316220Y223248D01*
X316242Y223277D01*
X316261Y223312D01*
X316280Y223353D01*
X316293Y223400D01*
X316305Y223451D01*
D02*
G37*
G36*
X316827D02*
X316599D01*
Y223444D01*
X316596Y223429D01*
X316593Y223403D01*
X316590Y223372D01*
X316580Y223331D01*
X316565Y223286D01*
X316546Y223239D01*
X316524Y223188D01*
X316492Y223138D01*
X316454Y223087D01*
X316407Y223037D01*
X316353Y222989D01*
X316286Y222948D01*
X316211Y222914D01*
X316125Y222885D01*
X316078Y222872D01*
X316027Y222863D01*
Y222793D01*
X317380D01*
Y222967D01*
X317089D01*
X317076Y222970D01*
X317058D01*
X317039Y222977D01*
X317017Y222983D01*
X316991Y222992D01*
X316966Y223005D01*
X316937Y223021D01*
X316915Y223040D01*
X316890Y223062D01*
X316871Y223090D01*
X316852Y223125D01*
X316840Y223163D01*
X316830Y223211D01*
X316827Y223261D01*
Y223451D01*
D02*
G37*
G36*
X317380Y222585D02*
X316027D01*
Y222376D01*
X317380D01*
Y222585D01*
D02*
G37*
G36*
X285128Y221985D02*
X285101D01*
X284823Y221011D01*
X285405D01*
X285128Y221985D01*
D02*
G37*
G36*
X279966Y220883D02*
X279618D01*
X279603Y220881D01*
X279584D01*
X279540Y220876D01*
X279492Y220868D01*
X279443Y220858D01*
X279397Y220843D01*
X279376Y220834D01*
X279357Y220824D01*
X279353Y220822D01*
X279343Y220813D01*
X279328Y220801D01*
X279311Y220782D01*
X279292Y220759D01*
X279277Y220729D01*
X279267Y220696D01*
X279265Y220677D01*
X279263Y220658D01*
Y220595D01*
Y220593D01*
Y220591D01*
Y220585D01*
X279265Y220576D01*
X279267Y220555D01*
X279273Y220530D01*
X279282Y220503D01*
X279296Y220473D01*
X279315Y220446D01*
X279343Y220423D01*
X279347Y220421D01*
X279357Y220414D01*
X279376Y220404D01*
X279401Y220395D01*
X279433Y220385D01*
X279473Y220374D01*
X279517Y220368D01*
X279567Y220366D01*
X279584D01*
X279597Y220368D01*
X279611D01*
X279628Y220370D01*
X279668Y220377D01*
X279714Y220385D01*
X279760Y220400D01*
X279809Y220419D01*
X279853Y220444D01*
X279855D01*
X279857Y220448D01*
X279870Y220459D01*
X279889Y220475D01*
X279909Y220498D01*
X279930Y220526D01*
X279949Y220559D01*
X279962Y220597D01*
X279964Y220618D01*
X279966Y220639D01*
Y220883D01*
D02*
G37*
G36*
X276069Y221542D02*
X276050D01*
X276037Y221540D01*
X276020Y221538D01*
X276001Y221536D01*
X275980Y221532D01*
X275957Y221527D01*
X275909Y221513D01*
X275856Y221492D01*
X275831Y221479D01*
X275806Y221464D01*
X275783Y221445D01*
X275760Y221425D01*
X275758Y221422D01*
X275756Y221418D01*
X275749Y221412D01*
X275741Y221404D01*
X275733Y221391D01*
X275724Y221376D01*
X275714Y221357D01*
X275703Y221338D01*
X275691Y221313D01*
X275680Y221288D01*
X275672Y221259D01*
X275663Y221227D01*
X275655Y221194D01*
X275649Y221156D01*
X275646Y221116D01*
X275644Y221074D01*
Y220845D01*
Y220843D01*
Y220834D01*
Y220822D01*
X275646Y220807D01*
X275649Y220786D01*
X275651Y220765D01*
X275655Y220740D01*
X275659Y220713D01*
X275672Y220656D01*
X275693Y220597D01*
X275707Y220570D01*
X275722Y220543D01*
X275739Y220517D01*
X275760Y220494D01*
X275762Y220492D01*
X275766Y220490D01*
X275773Y220484D01*
X275781Y220475D01*
X275794Y220467D01*
X275806Y220459D01*
X275823Y220448D01*
X275842Y220438D01*
X275863Y220425D01*
X275886Y220414D01*
X275911Y220406D01*
X275938Y220398D01*
X275999Y220383D01*
X276033Y220381D01*
X276069Y220379D01*
X276087D01*
X276100Y220381D01*
X276117Y220383D01*
X276136Y220385D01*
X276157Y220389D01*
X276178Y220393D01*
X276228Y220406D01*
X276279Y220427D01*
X276304Y220442D01*
X276329Y220456D01*
X276352Y220473D01*
X276375Y220494D01*
X276377Y220496D01*
X276379Y220500D01*
X276386Y220507D01*
X276394Y220515D01*
X276402Y220528D01*
X276411Y220543D01*
X276421Y220561D01*
X276434Y220582D01*
X276445Y220605D01*
X276455Y220631D01*
X276463Y220660D01*
X276472Y220692D01*
X276480Y220725D01*
X276486Y220763D01*
X276489Y220803D01*
X276491Y220845D01*
Y221074D01*
Y221076D01*
Y221084D01*
Y221097D01*
X276489Y221112D01*
X276486Y221133D01*
X276484Y221154D01*
X276480Y221179D01*
X276476Y221206D01*
X276463Y221263D01*
X276442Y221322D01*
X276430Y221349D01*
X276413Y221376D01*
X276396Y221401D01*
X276375Y221425D01*
X276373Y221427D01*
X276369Y221429D01*
X276363Y221435D01*
X276354Y221443D01*
X276342Y221452D01*
X276329Y221462D01*
X276312Y221473D01*
X276293Y221483D01*
X276272Y221494D01*
X276249Y221504D01*
X276224Y221515D01*
X276197Y221523D01*
X276136Y221538D01*
X276104Y221540D01*
X276069Y221542D01*
D02*
G37*
G36*
X276226Y218853D02*
X276178D01*
X276167Y218851D01*
X276153D01*
X276136Y218849D01*
X276098Y218842D01*
X276058Y218834D01*
X276016Y218819D01*
X275976Y218798D01*
X275959Y218786D01*
X275943Y218771D01*
X275938Y218767D01*
X275930Y218756D01*
X275917Y218740D01*
X275905Y218714D01*
X275890Y218685D01*
X275877Y218647D01*
X275869Y218605D01*
X275865Y218559D01*
Y218475D01*
Y218473D01*
Y218469D01*
Y218462D01*
X275867Y218454D01*
X275869Y218429D01*
X275875Y218399D01*
X275884Y218366D01*
X275899Y218330D01*
X275917Y218294D01*
X275943Y218263D01*
X275947Y218259D01*
X275957Y218250D01*
X275976Y218238D01*
X276004Y218223D01*
X276039Y218208D01*
X276083Y218196D01*
X276109Y218191D01*
X276134Y218187D01*
X276163Y218183D01*
X276211D01*
X276222Y218185D01*
X276237D01*
X276253Y218187D01*
X276291Y218194D01*
X276331Y218202D01*
X276373Y218217D01*
X276413Y218235D01*
X276430Y218248D01*
X276447Y218263D01*
X276451Y218267D01*
X276459Y218278D01*
X276472Y218294D01*
X276489Y218320D01*
X276503Y218349D01*
X276516Y218387D01*
X276524Y218429D01*
X276529Y218475D01*
Y218559D01*
Y218561D01*
Y218565D01*
Y218571D01*
X276526Y218580D01*
X276524Y218605D01*
X276518Y218635D01*
X276510Y218668D01*
X276495Y218704D01*
X276474Y218740D01*
X276447Y218771D01*
X276442Y218775D01*
X276432Y218784D01*
X276413Y218796D01*
X276386Y218813D01*
X276350Y218828D01*
X276306Y218840D01*
X276283Y218845D01*
X276255Y218849D01*
X276226Y218853D01*
D02*
G37*
G36*
X276455Y217465D02*
X275884D01*
X275880Y217463D01*
X275873Y217459D01*
X275865Y217454D01*
X275842Y217440D01*
X275817Y217419D01*
X275791Y217393D01*
X275768Y217360D01*
X275760Y217341D01*
X275754Y217320D01*
X275749Y217297D01*
X275747Y217274D01*
Y217269D01*
X275749Y217257D01*
X275751Y217240D01*
X275758Y217217D01*
X275766Y217192D01*
X275779Y217162D01*
X275798Y217135D01*
X275823Y217108D01*
X275827Y217106D01*
X275838Y217097D01*
X275856Y217085D01*
X275869Y217078D01*
X275886Y217072D01*
X275903Y217066D01*
X275922Y217059D01*
X275943Y217053D01*
X275966Y217047D01*
X275993Y217043D01*
X276020Y217038D01*
X276052Y217036D01*
X276361D01*
X276377Y217038D01*
X276396Y217041D01*
X276417D01*
X276440Y217045D01*
X276489Y217051D01*
X276541Y217062D01*
X276589Y217076D01*
X276612Y217087D01*
X276634Y217097D01*
X276636D01*
X276638Y217099D01*
X276650Y217108D01*
X276667Y217123D01*
X276688Y217144D01*
X276709Y217169D01*
X276726Y217198D01*
X276739Y217234D01*
X276741Y217255D01*
X276743Y217276D01*
Y217280D01*
Y217290D01*
X276739Y217305D01*
X276734Y217324D01*
X276726Y217345D01*
X276713Y217368D01*
X276694Y217391D01*
X276671Y217412D01*
X276667Y217414D01*
X276659Y217421D01*
X276640Y217429D01*
X276615Y217440D01*
X276598Y217444D01*
X276581Y217448D01*
X276560Y217452D01*
X276537Y217456D01*
X276512Y217461D01*
X276486Y217463D01*
X276455Y217465D01*
D02*
G37*
G36*
X270785Y218819D02*
X270739D01*
X270724Y218817D01*
X270707Y218815D01*
X270688Y218813D01*
X270667Y218809D01*
X270644Y218805D01*
X270594Y218790D01*
X270569Y218779D01*
X270544Y218767D01*
X270516Y218752D01*
X270493Y218737D01*
X270468Y218716D01*
X270447Y218695D01*
X270445Y218693D01*
X270443Y218689D01*
X270436Y218683D01*
X270430Y218672D01*
X270422Y218662D01*
X270413Y218647D01*
X270403Y218628D01*
X270392Y218609D01*
X270382Y218588D01*
X270371Y218563D01*
X270363Y218536D01*
X270355Y218509D01*
X270348Y218477D01*
X270342Y218443D01*
X270340Y218410D01*
X270338Y218372D01*
Y218114D01*
Y218112D01*
Y218105D01*
Y218095D01*
X270340Y218080D01*
X270342Y218063D01*
X270344Y218044D01*
X270346Y218021D01*
X270352Y217998D01*
X270365Y217946D01*
X270384Y217893D01*
X270396Y217866D01*
X270411Y217839D01*
X270428Y217813D01*
X270447Y217790D01*
X270449Y217788D01*
X270451Y217786D01*
X270460Y217780D01*
X270468Y217771D01*
X270478Y217763D01*
X270493Y217753D01*
X270510Y217740D01*
X270527Y217729D01*
X270548Y217719D01*
X270571Y217706D01*
X270598Y217696D01*
X270625Y217687D01*
X270655Y217679D01*
X270686Y217675D01*
X270722Y217671D01*
X270758Y217669D01*
X270770D01*
X270785Y217671D01*
X270804D01*
X270825Y217673D01*
X270850Y217677D01*
X270901Y217687D01*
X270903D01*
X270911Y217692D01*
X270924Y217696D01*
X270940Y217702D01*
X270959Y217710D01*
X270980Y217719D01*
X271020Y217744D01*
X271022Y217746D01*
X271029Y217750D01*
X271039Y217759D01*
X271052Y217769D01*
X271064Y217784D01*
X271079Y217801D01*
X271092Y217818D01*
X271104Y217839D01*
X271106Y217841D01*
X271108Y217849D01*
X271115Y217862D01*
X271121Y217876D01*
X271125Y217897D01*
X271131Y217918D01*
X271134Y217944D01*
X271136Y217971D01*
Y218515D01*
Y218519D01*
Y218527D01*
X271134Y218542D01*
X271131Y218559D01*
X271127Y218580D01*
X271123Y218601D01*
X271115Y218624D01*
X271104Y218645D01*
X271102Y218647D01*
X271098Y218655D01*
X271092Y218666D01*
X271083Y218679D01*
X271071Y218693D01*
X271056Y218708D01*
X271039Y218725D01*
X271020Y218740D01*
X271018Y218742D01*
X271012Y218746D01*
X270999Y218754D01*
X270987Y218763D01*
X270968Y218771D01*
X270947Y218781D01*
X270926Y218790D01*
X270901Y218798D01*
X270898D01*
X270888Y218802D01*
X270875Y218805D01*
X270859Y218809D01*
X270835Y218813D01*
X270812Y218815D01*
X270785Y218819D01*
D02*
G37*
G36*
X285269Y218836D02*
X285252D01*
X285235Y218834D01*
X285210Y218832D01*
X285185Y218828D01*
X285155Y218821D01*
X285124Y218813D01*
X285094Y218802D01*
X285090Y218800D01*
X285082Y218796D01*
X285067Y218788D01*
X285048Y218779D01*
X285027Y218765D01*
X285004Y218750D01*
X284981Y218731D01*
X284958Y218710D01*
X284956Y218708D01*
X284947Y218700D01*
X284937Y218687D01*
X284924Y218670D01*
X284910Y218649D01*
X284895Y218626D01*
X284880Y218599D01*
X284865Y218569D01*
X284863Y218565D01*
X284861Y218555D01*
X284855Y218538D01*
X284851Y218517D01*
X284844Y218490D01*
X284838Y218460D01*
X284836Y218427D01*
X284834Y218391D01*
Y218368D01*
X285676D01*
Y218399D01*
Y218401D01*
Y218408D01*
Y218418D01*
X285674Y218433D01*
X285672Y218450D01*
X285670Y218469D01*
X285668Y218490D01*
X285661Y218513D01*
X285649Y218563D01*
X285630Y218616D01*
X285617Y218643D01*
X285603Y218668D01*
X285584Y218693D01*
X285565Y218716D01*
X285563Y218719D01*
X285561Y218721D01*
X285554Y218727D01*
X285544Y218735D01*
X285533Y218744D01*
X285521Y218754D01*
X285504Y218765D01*
X285487Y218777D01*
X285466Y218788D01*
X285443Y218798D01*
X285393Y218817D01*
X285365Y218826D01*
X285334Y218832D01*
X285302Y218834D01*
X285269Y218836D01*
D02*
G37*
G36*
X283458D02*
X283442D01*
X283425Y218834D01*
X283400Y218832D01*
X283375Y218828D01*
X283345Y218821D01*
X283314Y218813D01*
X283284Y218802D01*
X283280Y218800D01*
X283272Y218796D01*
X283257Y218788D01*
X283238Y218779D01*
X283217Y218765D01*
X283194Y218750D01*
X283171Y218731D01*
X283148Y218710D01*
X283146Y218708D01*
X283137Y218700D01*
X283127Y218687D01*
X283114Y218670D01*
X283099Y218649D01*
X283085Y218626D01*
X283070Y218599D01*
X283055Y218569D01*
X283053Y218565D01*
X283051Y218555D01*
X283045Y218538D01*
X283041Y218517D01*
X283034Y218490D01*
X283028Y218460D01*
X283026Y218427D01*
X283024Y218391D01*
Y218368D01*
X283866D01*
Y218399D01*
Y218401D01*
Y218408D01*
Y218418D01*
X283864Y218433D01*
X283862Y218450D01*
X283860Y218469D01*
X283857Y218490D01*
X283851Y218513D01*
X283839Y218563D01*
X283820Y218616D01*
X283807Y218643D01*
X283792Y218668D01*
X283773Y218693D01*
X283755Y218716D01*
X283752Y218719D01*
X283750Y218721D01*
X283744Y218727D01*
X283734Y218735D01*
X283723Y218744D01*
X283711Y218754D01*
X283694Y218765D01*
X283677Y218777D01*
X283656Y218788D01*
X283633Y218798D01*
X283582Y218817D01*
X283555Y218826D01*
X283524Y218832D01*
X283492Y218834D01*
X283458Y218836D01*
D02*
G37*
G36*
X294196Y215559D02*
X294147D01*
X294137Y215557D01*
X294122D01*
X294106Y215555D01*
X294068Y215548D01*
X294028Y215540D01*
X293986Y215525D01*
X293946Y215504D01*
X293929Y215492D01*
X293912Y215477D01*
X293908Y215473D01*
X293900Y215462D01*
X293887Y215445D01*
X293875Y215420D01*
X293860Y215391D01*
X293847Y215353D01*
X293839Y215311D01*
X293835Y215265D01*
Y215181D01*
Y215179D01*
Y215175D01*
Y215168D01*
X293837Y215160D01*
X293839Y215135D01*
X293845Y215105D01*
X293853Y215072D01*
X293868Y215036D01*
X293887Y215000D01*
X293912Y214969D01*
X293917Y214965D01*
X293927Y214956D01*
X293946Y214944D01*
X293973Y214929D01*
X294009Y214914D01*
X294053Y214901D01*
X294078Y214897D01*
X294103Y214893D01*
X294133Y214889D01*
X294181D01*
X294192Y214891D01*
X294206D01*
X294223Y214893D01*
X294261Y214899D01*
X294301Y214908D01*
X294343Y214922D01*
X294383Y214941D01*
X294399Y214954D01*
X294416Y214969D01*
X294421Y214973D01*
X294429Y214983D01*
X294442Y215000D01*
X294458Y215025D01*
X294473Y215055D01*
X294486Y215093D01*
X294494Y215135D01*
X294498Y215181D01*
Y215265D01*
Y215267D01*
Y215271D01*
Y215277D01*
X294496Y215286D01*
X294494Y215311D01*
X294488Y215340D01*
X294479Y215374D01*
X294465Y215410D01*
X294444Y215445D01*
X294416Y215477D01*
X294412Y215481D01*
X294402Y215490D01*
X294383Y215502D01*
X294355Y215519D01*
X294320Y215534D01*
X294276Y215546D01*
X294252Y215550D01*
X294225Y215555D01*
X294196Y215559D01*
D02*
G37*
G36*
X294425Y214171D02*
X293853D01*
X293849Y214169D01*
X293843Y214164D01*
X293835Y214160D01*
X293811Y214145D01*
X293786Y214124D01*
X293761Y214099D01*
X293738Y214066D01*
X293730Y214047D01*
X293723Y214026D01*
X293719Y214003D01*
X293717Y213980D01*
Y213975D01*
X293719Y213963D01*
X293721Y213946D01*
X293727Y213923D01*
X293736Y213898D01*
X293748Y213868D01*
X293767Y213841D01*
X293793Y213814D01*
X293797Y213812D01*
X293807Y213803D01*
X293826Y213791D01*
X293839Y213784D01*
X293856Y213778D01*
X293872Y213772D01*
X293891Y213765D01*
X293912Y213759D01*
X293935Y213753D01*
X293963Y213749D01*
X293990Y213744D01*
X294022Y213742D01*
X294330D01*
X294347Y213744D01*
X294366Y213747D01*
X294387D01*
X294410Y213751D01*
X294458Y213757D01*
X294511Y213768D01*
X294559Y213782D01*
X294582Y213793D01*
X294603Y213803D01*
X294605D01*
X294607Y213805D01*
X294620Y213814D01*
X294637Y213828D01*
X294658Y213849D01*
X294679Y213875D01*
X294696Y213904D01*
X294708Y213940D01*
X294710Y213961D01*
X294712Y213982D01*
Y213986D01*
Y213996D01*
X294708Y214011D01*
X294704Y214030D01*
X294696Y214051D01*
X294683Y214074D01*
X294664Y214097D01*
X294641Y214118D01*
X294637Y214120D01*
X294628Y214127D01*
X294609Y214135D01*
X294584Y214145D01*
X294567Y214150D01*
X294551Y214154D01*
X294530Y214158D01*
X294507Y214162D01*
X294481Y214166D01*
X294456Y214169D01*
X294425Y214171D01*
D02*
G37*
G36*
X283335Y215559D02*
X283286D01*
X283276Y215557D01*
X283261D01*
X283244Y215555D01*
X283207Y215548D01*
X283167Y215540D01*
X283125Y215525D01*
X283085Y215504D01*
X283068Y215492D01*
X283051Y215477D01*
X283047Y215473D01*
X283038Y215462D01*
X283026Y215445D01*
X283013Y215420D01*
X282999Y215391D01*
X282986Y215353D01*
X282978Y215311D01*
X282973Y215265D01*
Y215181D01*
Y215179D01*
Y215175D01*
Y215168D01*
X282976Y215160D01*
X282978Y215135D01*
X282984Y215105D01*
X282992Y215072D01*
X283007Y215036D01*
X283026Y215000D01*
X283051Y214969D01*
X283055Y214965D01*
X283066Y214956D01*
X283085Y214944D01*
X283112Y214929D01*
X283148Y214914D01*
X283192Y214901D01*
X283217Y214897D01*
X283242Y214893D01*
X283272Y214889D01*
X283320D01*
X283330Y214891D01*
X283345D01*
X283362Y214893D01*
X283400Y214899D01*
X283440Y214908D01*
X283482Y214922D01*
X283522Y214941D01*
X283538Y214954D01*
X283555Y214969D01*
X283559Y214973D01*
X283568Y214983D01*
X283580Y215000D01*
X283597Y215025D01*
X283612Y215055D01*
X283624Y215093D01*
X283633Y215135D01*
X283637Y215181D01*
Y215265D01*
Y215267D01*
Y215271D01*
Y215277D01*
X283635Y215286D01*
X283633Y215311D01*
X283627Y215340D01*
X283618Y215374D01*
X283603Y215410D01*
X283582Y215445D01*
X283555Y215477D01*
X283551Y215481D01*
X283540Y215490D01*
X283522Y215502D01*
X283494Y215519D01*
X283458Y215534D01*
X283414Y215546D01*
X283391Y215550D01*
X283364Y215555D01*
X283335Y215559D01*
D02*
G37*
G36*
X283563Y214171D02*
X282992D01*
X282988Y214169D01*
X282982Y214164D01*
X282973Y214160D01*
X282950Y214145D01*
X282925Y214124D01*
X282900Y214099D01*
X282877Y214066D01*
X282868Y214047D01*
X282862Y214026D01*
X282858Y214003D01*
X282856Y213980D01*
Y213975D01*
X282858Y213963D01*
X282860Y213946D01*
X282866Y213923D01*
X282875Y213898D01*
X282887Y213868D01*
X282906Y213841D01*
X282931Y213814D01*
X282936Y213812D01*
X282946Y213803D01*
X282965Y213791D01*
X282978Y213784D01*
X282994Y213778D01*
X283011Y213772D01*
X283030Y213765D01*
X283051Y213759D01*
X283074Y213753D01*
X283102Y213749D01*
X283129Y213744D01*
X283160Y213742D01*
X283469D01*
X283486Y213744D01*
X283505Y213747D01*
X283526D01*
X283549Y213751D01*
X283597Y213757D01*
X283650Y213768D01*
X283698Y213782D01*
X283721Y213793D01*
X283742Y213803D01*
X283744D01*
X283746Y213805D01*
X283759Y213814D01*
X283776Y213828D01*
X283797Y213849D01*
X283818Y213875D01*
X283834Y213904D01*
X283847Y213940D01*
X283849Y213961D01*
X283851Y213982D01*
Y213986D01*
Y213996D01*
X283847Y214011D01*
X283843Y214030D01*
X283834Y214051D01*
X283822Y214074D01*
X283803Y214097D01*
X283780Y214118D01*
X283776Y214120D01*
X283767Y214127D01*
X283748Y214135D01*
X283723Y214145D01*
X283706Y214150D01*
X283689Y214154D01*
X283668Y214158D01*
X283645Y214162D01*
X283620Y214166D01*
X283595Y214169D01*
X283563Y214171D01*
D02*
G37*
G36*
X272559Y216029D02*
X272104D01*
Y215288D01*
X272574D01*
X272587Y215290D01*
X272599D01*
X272614Y215292D01*
X272650Y215298D01*
X272690Y215307D01*
X272730Y215319D01*
X272769Y215338D01*
X272803Y215364D01*
X272807Y215368D01*
X272816Y215378D01*
X272830Y215395D01*
X272845Y215420D01*
X272860Y215452D01*
X272874Y215490D01*
X272883Y215536D01*
X272887Y215586D01*
Y215729D01*
Y215731D01*
Y215735D01*
Y215744D01*
X272885Y215752D01*
Y215765D01*
X272883Y215779D01*
X272877Y215811D01*
X272866Y215846D01*
X272851Y215884D01*
X272830Y215920D01*
X272803Y215951D01*
X272799Y215956D01*
X272788Y215964D01*
X272767Y215977D01*
X272742Y215991D01*
X272707Y216004D01*
X272664Y216017D01*
X272616Y216025D01*
X272559Y216029D01*
D02*
G37*
G36*
X265239Y216038D02*
X264857D01*
Y215366D01*
X265254D01*
X265266Y215368D01*
X265279D01*
X265296Y215370D01*
X265331Y215374D01*
X265371Y215382D01*
X265411Y215395D01*
X265451Y215410D01*
X265487Y215433D01*
X265491Y215437D01*
X265501Y215445D01*
X265514Y215462D01*
X265531Y215485D01*
X265548Y215515D01*
X265560Y215550D01*
X265571Y215595D01*
X265575Y215645D01*
Y215756D01*
Y215758D01*
Y215762D01*
Y215771D01*
X265573Y215779D01*
X265571Y215807D01*
X265564Y215838D01*
X265554Y215872D01*
X265537Y215907D01*
X265516Y215941D01*
X265487Y215968D01*
X265482Y215970D01*
X265470Y215979D01*
X265451Y215989D01*
X265424Y216004D01*
X265388Y216017D01*
X265346Y216027D01*
X265296Y216036D01*
X265239Y216038D01*
D02*
G37*
G36*
X265285Y215139D02*
X264857D01*
Y214410D01*
X265302D01*
X265315Y214412D01*
X265327D01*
X265344Y214414D01*
X265384Y214419D01*
X265426Y214429D01*
X265470Y214442D01*
X265514Y214458D01*
X265552Y214484D01*
X265554D01*
X265556Y214488D01*
X265566Y214498D01*
X265581Y214515D01*
X265600Y214540D01*
X265617Y214574D01*
X265632Y214614D01*
X265642Y214660D01*
X265646Y214687D01*
Y214717D01*
Y214834D01*
Y214836D01*
Y214841D01*
Y214849D01*
X265644Y214860D01*
Y214872D01*
X265642Y214887D01*
X265634Y214920D01*
X265623Y214958D01*
X265606Y214996D01*
X265583Y215032D01*
X265569Y215049D01*
X265552Y215063D01*
X265548Y215067D01*
X265541Y215070D01*
X265535Y215076D01*
X265525Y215080D01*
X265512Y215086D01*
X265482Y215101D01*
X265445Y215116D01*
X265399Y215126D01*
X265346Y215135D01*
X265285Y215139D01*
D02*
G37*
G36*
X290567Y215542D02*
X290550D01*
X290533Y215540D01*
X290508Y215538D01*
X290483Y215534D01*
X290454Y215527D01*
X290422Y215519D01*
X290393Y215508D01*
X290388Y215506D01*
X290380Y215502D01*
X290365Y215494D01*
X290347Y215485D01*
X290325Y215471D01*
X290302Y215456D01*
X290279Y215437D01*
X290256Y215416D01*
X290254Y215414D01*
X290246Y215406D01*
X290235Y215393D01*
X290223Y215376D01*
X290208Y215355D01*
X290193Y215332D01*
X290178Y215305D01*
X290164Y215275D01*
X290162Y215271D01*
X290160Y215261D01*
X290153Y215244D01*
X290149Y215223D01*
X290143Y215195D01*
X290137Y215166D01*
X290134Y215132D01*
X290132Y215097D01*
Y215074D01*
X290974D01*
Y215105D01*
Y215107D01*
Y215114D01*
Y215124D01*
X290972Y215139D01*
X290970Y215156D01*
X290968Y215175D01*
X290966Y215195D01*
X290960Y215219D01*
X290947Y215269D01*
X290928Y215321D01*
X290916Y215349D01*
X290901Y215374D01*
X290882Y215399D01*
X290863Y215422D01*
X290861Y215424D01*
X290859Y215426D01*
X290853Y215433D01*
X290842Y215441D01*
X290832Y215450D01*
X290819Y215460D01*
X290802Y215471D01*
X290785Y215483D01*
X290764Y215494D01*
X290741Y215504D01*
X290691Y215523D01*
X290664Y215531D01*
X290632Y215538D01*
X290601Y215540D01*
X290567Y215542D01*
D02*
G37*
G36*
X279706D02*
X279689D01*
X279672Y215540D01*
X279647Y215538D01*
X279622Y215534D01*
X279592Y215527D01*
X279561Y215519D01*
X279532Y215508D01*
X279527Y215506D01*
X279519Y215502D01*
X279504Y215494D01*
X279485Y215485D01*
X279464Y215471D01*
X279441Y215456D01*
X279418Y215437D01*
X279395Y215416D01*
X279393Y215414D01*
X279384Y215406D01*
X279374Y215393D01*
X279361Y215376D01*
X279347Y215355D01*
X279332Y215332D01*
X279317Y215305D01*
X279303Y215275D01*
X279300Y215271D01*
X279298Y215261D01*
X279292Y215244D01*
X279288Y215223D01*
X279282Y215195D01*
X279275Y215166D01*
X279273Y215132D01*
X279271Y215097D01*
Y215074D01*
X280113D01*
Y215105D01*
Y215107D01*
Y215114D01*
Y215124D01*
X280111Y215139D01*
X280109Y215156D01*
X280107Y215175D01*
X280105Y215195D01*
X280099Y215219D01*
X280086Y215269D01*
X280067Y215321D01*
X280054Y215349D01*
X280040Y215374D01*
X280021Y215399D01*
X280002Y215422D01*
X280000Y215424D01*
X279998Y215426D01*
X279991Y215433D01*
X279981Y215441D01*
X279970Y215450D01*
X279958Y215460D01*
X279941Y215471D01*
X279924Y215483D01*
X279903Y215494D01*
X279880Y215504D01*
X279830Y215523D01*
X279802Y215531D01*
X279771Y215538D01*
X279739Y215540D01*
X279706Y215542D01*
D02*
G37*
G36*
X274265Y215531D02*
X274246D01*
X274233Y215529D01*
X274216Y215527D01*
X274198Y215525D01*
X274177Y215521D01*
X274153Y215517D01*
X274105Y215502D01*
X274053Y215481D01*
X274027Y215469D01*
X274002Y215454D01*
X273979Y215435D01*
X273956Y215414D01*
X273954Y215412D01*
X273952Y215408D01*
X273945Y215401D01*
X273937Y215393D01*
X273929Y215380D01*
X273920Y215366D01*
X273910Y215347D01*
X273899Y215328D01*
X273887Y215303D01*
X273876Y215277D01*
X273868Y215248D01*
X273859Y215216D01*
X273851Y215183D01*
X273845Y215145D01*
X273843Y215105D01*
X273840Y215063D01*
Y214834D01*
Y214832D01*
Y214824D01*
Y214811D01*
X273843Y214796D01*
X273845Y214775D01*
X273847Y214755D01*
X273851Y214729D01*
X273855Y214702D01*
X273868Y214645D01*
X273889Y214586D01*
X273903Y214559D01*
X273918Y214532D01*
X273935Y214507D01*
X273956Y214484D01*
X273958Y214481D01*
X273962Y214479D01*
X273969Y214473D01*
X273977Y214465D01*
X273990Y214456D01*
X274002Y214448D01*
X274019Y214437D01*
X274038Y214427D01*
X274059Y214414D01*
X274082Y214404D01*
X274107Y214395D01*
X274134Y214387D01*
X274195Y214372D01*
X274229Y214370D01*
X274265Y214368D01*
X274284D01*
X274296Y214370D01*
X274313Y214372D01*
X274332Y214374D01*
X274353Y214379D01*
X274374Y214383D01*
X274424Y214395D01*
X274475Y214416D01*
X274500Y214431D01*
X274525Y214446D01*
X274548Y214463D01*
X274571Y214484D01*
X274573Y214486D01*
X274575Y214490D01*
X274582Y214496D01*
X274590Y214505D01*
X274599Y214517D01*
X274607Y214532D01*
X274618Y214551D01*
X274630Y214572D01*
X274641Y214595D01*
X274651Y214620D01*
X274659Y214650D01*
X274668Y214681D01*
X274676Y214715D01*
X274683Y214752D01*
X274685Y214792D01*
X274687Y214834D01*
Y215063D01*
Y215065D01*
Y215074D01*
Y215086D01*
X274685Y215101D01*
X274683Y215122D01*
X274680Y215143D01*
X274676Y215168D01*
X274672Y215195D01*
X274659Y215252D01*
X274639Y215311D01*
X274626Y215338D01*
X274609Y215366D01*
X274592Y215391D01*
X274571Y215414D01*
X274569Y215416D01*
X274565Y215418D01*
X274559Y215424D01*
X274550Y215433D01*
X274538Y215441D01*
X274525Y215452D01*
X274508Y215462D01*
X274489Y215473D01*
X274468Y215483D01*
X274445Y215494D01*
X274420Y215504D01*
X274393Y215513D01*
X274332Y215527D01*
X274300Y215529D01*
X274265Y215531D01*
D02*
G37*
G36*
X267034Y215542D02*
X267018D01*
X267001Y215540D01*
X266976Y215538D01*
X266950Y215534D01*
X266921Y215527D01*
X266890Y215519D01*
X266860Y215508D01*
X266856Y215506D01*
X266847Y215502D01*
X266833Y215494D01*
X266814Y215485D01*
X266793Y215471D01*
X266770Y215456D01*
X266747Y215437D01*
X266724Y215416D01*
X266722Y215414D01*
X266713Y215406D01*
X266703Y215393D01*
X266690Y215376D01*
X266675Y215355D01*
X266661Y215332D01*
X266646Y215305D01*
X266631Y215275D01*
X266629Y215271D01*
X266627Y215261D01*
X266621Y215244D01*
X266617Y215223D01*
X266610Y215195D01*
X266604Y215166D01*
X266602Y215132D01*
X266600Y215097D01*
Y215074D01*
X267442D01*
Y215105D01*
Y215107D01*
Y215114D01*
Y215124D01*
X267440Y215139D01*
X267438Y215156D01*
X267436Y215175D01*
X267433Y215195D01*
X267427Y215219D01*
X267414Y215269D01*
X267396Y215321D01*
X267383Y215349D01*
X267368Y215374D01*
X267349Y215399D01*
X267331Y215422D01*
X267328Y215424D01*
X267326Y215426D01*
X267320Y215433D01*
X267309Y215441D01*
X267299Y215450D01*
X267286Y215460D01*
X267270Y215471D01*
X267253Y215483D01*
X267232Y215494D01*
X267209Y215504D01*
X267158Y215523D01*
X267131Y215531D01*
X267099Y215538D01*
X267068Y215540D01*
X267034Y215542D01*
D02*
G37*
%LPD*%
D23*
X253940Y111432D02*
D03*
X258253Y115745D02*
D03*
X252759Y125211D02*
D03*
Y117337D02*
D03*
X257072Y121651D02*
D03*
Y129525D02*
D03*
X435227Y189952D02*
D03*
X430914Y185639D02*
D03*
X136802Y146251D02*
D03*
X132489Y141938D02*
D03*
D24*
X141316Y151181D02*
D03*
X133521Y158976D02*
D03*
X134635Y157862D02*
D03*
X135749Y156749D02*
D03*
X136862Y155635D02*
D03*
X137976Y154522D02*
D03*
X139089Y153408D02*
D03*
X140203Y152295D02*
D03*
X152283Y162148D02*
D03*
X151170Y163261D02*
D03*
X150056Y164375D02*
D03*
X148942Y165489D02*
D03*
X147829Y166602D02*
D03*
X146715Y167716D02*
D03*
X145602Y168829D02*
D03*
X144488Y169943D02*
D03*
D25*
X145481Y145070D02*
D03*
X447039Y195087D02*
D03*
X442725Y199401D02*
D03*
X149794Y140757D02*
D03*
X395087Y144676D02*
D03*
X399401Y140363D02*
D03*
D26*
X369094Y157284D02*
D03*
Y159253D02*
D03*
Y161222D02*
D03*
X387598Y149408D02*
D03*
Y151377D02*
D03*
Y153346D02*
D03*
Y155315D02*
D03*
Y157284D02*
D03*
Y159253D02*
D03*
Y161222D02*
D03*
Y163191D02*
D03*
X369094D02*
D03*
Y155315D02*
D03*
Y153346D02*
D03*
Y151377D02*
D03*
Y149408D02*
D03*
D27*
X144488Y151181D02*
D03*
X145602Y152295D02*
D03*
X146715Y153408D02*
D03*
X141316Y169943D02*
D03*
X140203Y168829D02*
D03*
X139089Y167716D02*
D03*
X137976Y166602D02*
D03*
X136862Y165489D02*
D03*
X135749Y164375D02*
D03*
X134635Y163261D02*
D03*
X133521Y162148D02*
D03*
X147829Y154522D02*
D03*
X148942Y155635D02*
D03*
X150056Y156749D02*
D03*
X151170Y157862D02*
D03*
X152283Y158976D02*
D03*
D28*
X454472Y185545D02*
D03*
X452078Y187939D02*
D03*
X464977Y130693D02*
D03*
X476410Y192488D02*
D03*
X474016Y194882D02*
D03*
X462582Y133087D02*
D03*
D29*
X479856Y187733D02*
D03*
X466003Y137690D02*
D03*
X447908Y155785D02*
D03*
X454868Y148825D02*
D03*
X452084Y151609D02*
D03*
X463219Y140474D02*
D03*
X490991Y176597D02*
D03*
X460435Y143257D02*
D03*
X459044Y144650D02*
D03*
X478464Y189125D02*
D03*
X467395Y136298D02*
D03*
X449300Y154393D02*
D03*
X446516Y157177D02*
D03*
X453476Y150217D02*
D03*
X481248Y186341D02*
D03*
X482640Y184949D02*
D03*
X484032Y183557D02*
D03*
X485424Y182165D02*
D03*
X486816Y180773D02*
D03*
X488207Y179381D02*
D03*
X489599Y177989D02*
D03*
X492383Y175205D02*
D03*
X493775Y173813D02*
D03*
X495167Y172422D02*
D03*
X496559Y171030D02*
D03*
X497951Y169638D02*
D03*
X499343Y168246D02*
D03*
X464611Y139082D02*
D03*
X461827Y141866D02*
D03*
X457652Y146041D02*
D03*
X456260Y147433D02*
D03*
X450692Y153001D02*
D03*
D30*
X497951Y155785D02*
D03*
X452084Y173813D02*
D03*
X447908Y169638D02*
D03*
X454868Y176597D02*
D03*
X449300Y171030D02*
D03*
X446516Y168246D02*
D03*
X499343Y157177D02*
D03*
X467395Y189125D02*
D03*
X453476Y175205D02*
D03*
X496559Y154393D02*
D03*
X495167Y153001D02*
D03*
X493775Y151609D02*
D03*
X492383Y150217D02*
D03*
X490991Y148825D02*
D03*
X489599Y147433D02*
D03*
X488207Y146041D02*
D03*
X486816Y144650D02*
D03*
X485424Y143257D02*
D03*
X484032Y141866D02*
D03*
X482640Y140474D02*
D03*
X481248Y139082D02*
D03*
X479856Y137690D02*
D03*
X478464Y136298D02*
D03*
X450692Y172422D02*
D03*
X456260Y177989D02*
D03*
X457652Y179381D02*
D03*
X459044Y180773D02*
D03*
X460435Y182165D02*
D03*
X461827Y183557D02*
D03*
X463219Y184949D02*
D03*
X464611Y186341D02*
D03*
X466003Y187733D02*
D03*
D31*
X409842Y219274D02*
D03*
X379921D02*
D03*
X333071Y53955D02*
D03*
X362992D02*
D03*
D32*
X389961Y207856D02*
D03*
X394882Y207856D02*
D03*
X399803Y207856D02*
D03*
X352953Y65372D02*
D03*
X348031D02*
D03*
X343110D02*
D03*
D33*
X130609Y152362D02*
D03*
X124509D02*
D03*
X353643Y153150D02*
D03*
X359743D02*
D03*
X495769Y187008D02*
D03*
X501869D02*
D03*
D34*
X364189Y149622D02*
D03*
X361795Y147228D02*
D03*
X459068Y133845D02*
D03*
X444110Y150410D02*
D03*
X443291Y178724D02*
D03*
X439354Y182661D02*
D03*
X441748Y185055D02*
D03*
X445685Y181118D02*
D03*
X441716Y148015D02*
D03*
X456674Y131451D02*
D03*
D35*
X381102Y135906D02*
D03*
Y124724D02*
D03*
X467717Y92598D02*
D03*
Y81417D02*
D03*
D36*
X383859Y162402D02*
D03*
X381103D02*
D03*
X378346D02*
D03*
X375590D02*
D03*
X372834D02*
D03*
Y150197D02*
D03*
X375590D02*
D03*
X378346D02*
D03*
X381103D02*
D03*
X383859D02*
D03*
D37*
X358476Y173413D02*
D03*
X363571Y168319D02*
D03*
D38*
X35433Y167528D02*
D03*
X29134D02*
D03*
X194488Y72441D02*
D03*
X200787D02*
D03*
X29134Y154929D02*
D03*
X35433D02*
D03*
X194488Y59842D02*
D03*
X200787D02*
D03*
X32283Y167528D02*
D03*
Y154929D02*
D03*
X197638Y72441D02*
D03*
Y59842D02*
D03*
D39*
X35783Y174178D02*
D03*
X28784D02*
D03*
X194138Y79092D02*
D03*
X490945Y190257D02*
D03*
X201138Y79092D02*
D03*
X490945Y196357D02*
D03*
X28784Y180278D02*
D03*
X194138Y85192D02*
D03*
X35783Y180278D02*
D03*
X201138Y85192D02*
D03*
X433943Y85206D02*
D03*
Y91306D02*
D03*
X458268Y106200D02*
D03*
X501092Y83706D02*
D03*
X440945Y98326D02*
D03*
X507592Y83706D02*
D03*
Y89806D02*
D03*
X458268Y100100D02*
D03*
X440945Y92226D02*
D03*
X501092Y89806D02*
D03*
D40*
X533054Y221276D02*
D03*
X542520Y211811D02*
D03*
D41*
X489694Y101768D02*
D03*
X493632D02*
D03*
X489694Y90350D02*
D03*
X491663Y101768D02*
D03*
X493632Y90350D02*
D03*
X491663D02*
D03*
D42*
X485954Y98027D02*
D03*
Y94090D02*
D03*
Y96059D02*
D03*
X497372Y98027D02*
D03*
Y96059D02*
D03*
Y94090D02*
D03*
D43*
X545276Y174016D02*
D03*
Y181890D02*
D03*
Y158268D02*
D03*
Y166142D02*
D03*
Y189764D02*
D03*
D44*
X200787Y62992D02*
D03*
X35433Y158079D02*
D03*
X200787Y66142D02*
D03*
X35433Y161228D02*
D03*
X29134Y164378D02*
D03*
Y161228D02*
D03*
Y158079D02*
D03*
X194488Y69291D02*
D03*
Y66142D02*
D03*
Y62992D02*
D03*
X35433Y164378D02*
D03*
X200787Y69291D02*
D03*
D45*
X465984Y217323D02*
D03*
Y214843D02*
D03*
X479921D02*
D03*
X493150D02*
D03*
Y219803D02*
D03*
Y217323D02*
D03*
X499213Y214843D02*
D03*
Y217323D02*
D03*
Y219803D02*
D03*
X479921D02*
D03*
Y217323D02*
D03*
X485984Y214843D02*
D03*
Y217323D02*
D03*
Y219803D02*
D03*
X472047Y214843D02*
D03*
Y217323D02*
D03*
X465984Y219803D02*
D03*
X472047Y219803D02*
D03*
D46*
X440942Y80858D02*
D03*
Y73654D02*
D03*
D47*
X35783Y148921D02*
D03*
X201138Y53835D02*
D03*
X29283Y148921D02*
D03*
X194638Y53835D02*
D03*
X481496Y194370D02*
D03*
X475902Y90861D02*
D03*
X481496Y197756D02*
D03*
X475902Y87475D02*
D03*
X519372Y89398D02*
D03*
Y102784D02*
D03*
X201138Y50449D02*
D03*
X194638D02*
D03*
X35783Y145535D02*
D03*
X29283D02*
D03*
X519372Y99398D02*
D03*
Y92783D02*
D03*
D48*
X503908Y155629D02*
D03*
X507294D02*
D03*
X506565Y96091D02*
D03*
X503179D02*
D03*
D54*
X528425Y106417D02*
D03*
X528426Y84764D02*
D03*
D55*
X519291Y85121D02*
D03*
Y81021D02*
D03*
D56*
X491663Y96059D02*
D03*
D57*
X528425Y101575D02*
D03*
X528426Y89607D02*
D03*
D58*
X519226Y96091D02*
D03*
X513517D02*
D03*
D59*
X528425Y97559D02*
D03*
Y93622D02*
D03*
D60*
X262402Y146496D02*
D03*
Y174370D02*
D03*
D61*
X272835Y149606D02*
D03*
Y151575D02*
D03*
Y153543D02*
D03*
Y155512D02*
D03*
Y157480D02*
D03*
X272835Y159449D02*
D03*
X272835Y161417D02*
D03*
Y163386D02*
D03*
Y165354D02*
D03*
Y167323D02*
D03*
Y169291D02*
D03*
Y171260D02*
D03*
D62*
X142902Y160562D02*
D03*
D63*
X452468Y89187D02*
D03*
D64*
X456921Y95112D02*
D03*
D65*
X450572Y96146D02*
D03*
D66*
X228740Y198031D02*
D03*
X218898D02*
D03*
X299213Y98425D02*
D03*
X289370D02*
D03*
X279528D02*
D03*
D67*
X344810Y117644D02*
D03*
X359842Y132677D02*
D03*
D68*
X248031Y57087D02*
D03*
Y66929D02*
D03*
X455905Y217717D02*
D03*
X476378Y59055D02*
D03*
X466535D02*
D03*
X456693D02*
D03*
X474409Y114567D02*
D03*
X427165Y59055D02*
D03*
X437008D02*
D03*
X446850D02*
D03*
X513779Y66929D02*
D03*
X503937D02*
D03*
X494095D02*
D03*
X432677Y110630D02*
D03*
X500000Y114173D02*
D03*
D69*
X448604Y79807D02*
D03*
Y82709D02*
D03*
Y85811D02*
D03*
X451163D02*
D03*
Y82709D02*
D03*
Y79807D02*
D03*
X456281D02*
D03*
Y82709D02*
D03*
Y85811D02*
D03*
X458840D02*
D03*
Y82709D02*
D03*
Y79807D02*
D03*
D70*
X484331Y85236D02*
D03*
Y80118D02*
D03*
Y82677D02*
D03*
X491732D02*
D03*
Y80118D02*
D03*
Y85236D02*
D03*
D71*
X488031Y85394D02*
D03*
D72*
X537787Y216544D02*
D03*
M02*
