G04*
G04 #@! TF.GenerationSoftware,Altium Limited,Altium Designer,26.4.1 (12)*
G04*
G04 Layer_Color=8421504*
%FSLAX25Y25*%
%MOIN*%
G70*
G04*
G04 #@! TF.SameCoordinates,AD265272-11AE-42C5-8713-C7FDCF95D33E*
G04*
G04*
G04 #@! TF.FilePolarity,Positive*
G04*
G01*
G75*
%ADD21R,0.02756X0.01260*%
G04:AMPARAMS|DCode=22|XSize=30mil|YSize=32mil|CornerRadius=0mil|HoleSize=0mil|Usage=FLASHONLY|Rotation=135.000|XOffset=0mil|YOffset=0mil|HoleType=Round|Shape=Rectangle|*
%AMROTATEDRECTD22*
4,1,4,0.02192,0.00071,-0.00071,-0.02192,-0.02192,-0.00071,0.00071,0.02192,0.02192,0.00071,0.0*
%
%ADD22ROTATEDRECTD22*%

G04:AMPARAMS|DCode=23|XSize=43.31mil|YSize=58.27mil|CornerRadius=5.41mil|HoleSize=0mil|Usage=FLASHONLY|Rotation=135.000|XOffset=0mil|YOffset=0mil|HoleType=Round|Shape=RoundedRectangle|*
%AMROUNDEDRECTD23*
21,1,0.04331,0.04744,0,0,135.0*
21,1,0.03248,0.05827,0,0,135.0*
1,1,0.01083,0.00529,0.02826*
1,1,0.01083,0.02826,0.00529*
1,1,0.01083,-0.00529,-0.02826*
1,1,0.01083,-0.02826,-0.00529*
%
%ADD23ROUNDEDRECTD23*%
G04:AMPARAMS|DCode=24|XSize=58.07mil|YSize=11.81mil|CornerRadius=0mil|HoleSize=0mil|Usage=FLASHONLY|Rotation=315.000|XOffset=0mil|YOffset=0mil|HoleType=Round|Shape=Rectangle|*
%AMROTATEDRECTD24*
4,1,4,-0.02471,0.01636,-0.01636,0.02471,0.02471,-0.01636,0.01636,-0.02471,-0.02471,0.01636,0.0*
%
%ADD24ROTATEDRECTD24*%

G04:AMPARAMS|DCode=25|XSize=58.07mil|YSize=11.81mil|CornerRadius=0mil|HoleSize=0mil|Usage=FLASHONLY|Rotation=45.000|XOffset=0mil|YOffset=0mil|HoleType=Round|Shape=Rectangle|*
%AMROTATEDRECTD25*
4,1,4,-0.01636,-0.02471,-0.02471,-0.01636,0.01636,0.02471,0.02471,0.01636,-0.01636,-0.02471,0.0*
%
%ADD25ROTATEDRECTD25*%

G04:AMPARAMS|DCode=26|XSize=8.03mil|YSize=29.53mil|CornerRadius=0mil|HoleSize=0mil|Usage=FLASHONLY|Rotation=225.000|XOffset=0mil|YOffset=0mil|HoleType=Round|Shape=Rectangle|*
%AMROTATEDRECTD26*
4,1,4,-0.00760,0.01328,0.01328,-0.00760,0.00760,-0.01328,-0.01328,0.00760,-0.00760,0.01328,0.0*
%
%ADD26ROTATEDRECTD26*%

G04:AMPARAMS|DCode=27|XSize=30mil|YSize=32mil|CornerRadius=0mil|HoleSize=0mil|Usage=FLASHONLY|Rotation=45.000|XOffset=0mil|YOffset=0mil|HoleType=Round|Shape=Rectangle|*
%AMROTATEDRECTD27*
4,1,4,0.00071,-0.02192,-0.02192,0.00071,-0.00071,0.02192,0.02192,-0.00071,0.00071,-0.02192,0.0*
%
%ADD27ROTATEDRECTD27*%

G04:AMPARAMS|DCode=28|XSize=66.93mil|YSize=31.5mil|CornerRadius=0mil|HoleSize=0mil|Usage=FLASHONLY|Rotation=45.000|XOffset=0mil|YOffset=0mil|HoleType=Round|Shape=Rectangle|*
%AMROTATEDRECTD28*
4,1,4,-0.01253,-0.03480,-0.03480,-0.01253,0.01253,0.03480,0.03480,0.01253,-0.01253,-0.03480,0.0*
%
%ADD28ROTATEDRECTD28*%

%ADD29R,0.03937X0.01181*%
%ADD30R,0.02756X0.01181*%
G04:AMPARAMS|DCode=31|XSize=8.03mil|YSize=29.53mil|CornerRadius=0mil|HoleSize=0mil|Usage=FLASHONLY|Rotation=135.000|XOffset=0mil|YOffset=0mil|HoleType=Round|Shape=Rectangle|*
%AMROTATEDRECTD31*
4,1,4,0.01328,0.00760,-0.00760,-0.01328,-0.01328,-0.00760,0.00760,0.01328,0.01328,0.00760,0.0*
%
%ADD31ROTATEDRECTD31*%

%ADD32R,0.03500X0.01000*%
G04:AMPARAMS|DCode=33|XSize=23.62mil|YSize=21.26mil|CornerRadius=0mil|HoleSize=0mil|Usage=FLASHONLY|Rotation=45.000|XOffset=0mil|YOffset=0mil|HoleType=Round|Shape=Rectangle|*
%AMROTATEDRECTD33*
4,1,4,-0.00084,-0.01587,-0.01587,-0.00084,0.00084,0.01587,0.01587,0.00084,-0.00084,-0.01587,0.0*
%
%ADD33ROTATEDRECTD33*%

%ADD34R,0.08700X0.12200*%
%ADD35R,0.03200X0.06700*%
%ADD36R,0.03000X0.03200*%
G04:AMPARAMS|DCode=37|XSize=23.62mil|YSize=21.26mil|CornerRadius=0mil|HoleSize=0mil|Usage=FLASHONLY|Rotation=135.000|XOffset=0mil|YOffset=0mil|HoleType=Round|Shape=Rectangle|*
%AMROTATEDRECTD37*
4,1,4,0.01587,-0.00084,0.00084,-0.01587,-0.01587,0.00084,-0.00084,0.01587,0.01587,-0.00084,0.0*
%
%ADD37ROTATEDRECTD37*%

G04:AMPARAMS|DCode=38|XSize=53.94mil|YSize=107.09mil|CornerRadius=6.74mil|HoleSize=0mil|Usage=FLASHONLY|Rotation=270.000|XOffset=0mil|YOffset=0mil|HoleType=Round|Shape=RoundedRectangle|*
%AMROUNDEDRECTD38*
21,1,0.05394,0.09360,0,0,270.0*
21,1,0.04045,0.10709,0,0,270.0*
1,1,0.01348,-0.04680,-0.02023*
1,1,0.01348,-0.04680,0.02023*
1,1,0.01348,0.04680,0.02023*
1,1,0.01348,0.04680,-0.02023*
%
%ADD38ROUNDEDRECTD38*%
%ADD39R,0.01000X0.09800*%
%ADD40R,0.01968X0.01968*%
%ADD41R,0.03200X0.03000*%
%ADD42R,0.01181X0.03347*%
%ADD43R,0.03347X0.01181*%
%ADD44R,0.15748X0.03937*%
%ADD45R,0.01968X0.01968*%
G04:AMPARAMS|DCode=46|XSize=43.31mil|YSize=58.27mil|CornerRadius=5.41mil|HoleSize=0mil|Usage=FLASHONLY|Rotation=90.000|XOffset=0mil|YOffset=0mil|HoleType=Round|Shape=RoundedRectangle|*
%AMROUNDEDRECTD46*
21,1,0.04331,0.04744,0,0,90.0*
21,1,0.03248,0.05827,0,0,90.0*
1,1,0.01083,0.02372,0.01624*
1,1,0.01083,0.02372,-0.01624*
1,1,0.01083,-0.02372,-0.01624*
1,1,0.01083,-0.02372,0.01624*
%
%ADD46ROUNDEDRECTD46*%
%ADD47R,0.02362X0.02126*%
%ADD48R,0.02126X0.02362*%
%ADD49R,0.03150X0.00984*%
%ADD50C,0.00100*%
%ADD51C,0.01329*%
%ADD52R,0.01181X0.02165*%
%ADD53C,0.01063*%
%ADD54R,0.04700X0.03200*%
%ADD55R,0.03300X0.01600*%
%ADD56R,0.06102X0.06102*%
%ADD57R,0.04700X0.03000*%
%ADD58R,0.02756X0.01654*%
%ADD59R,0.04700X0.02800*%
G36*
X146235Y164451D02*
X142902Y161119D01*
X139570Y164451D01*
X142902Y167783D01*
X146235Y164451D01*
D02*
G37*
G36*
X142345Y160562D02*
X139013Y157230D01*
X135681Y160562D01*
X139013Y163894D01*
X142345Y160562D01*
D02*
G37*
G36*
X150124Y160562D02*
X146791Y157230D01*
X143459Y160562D01*
X146791Y163894D01*
X150124Y160562D01*
D02*
G37*
G36*
X146235Y156673D02*
X142902Y153341D01*
X139570Y156673D01*
X142902Y160005D01*
X146235Y156673D01*
D02*
G37*
G36*
X457561Y96539D02*
Y95752D01*
X457954Y95358D01*
X460809D01*
X461005Y95161D01*
Y94571D01*
X460809Y94374D01*
X456380Y94374D01*
X456183Y94571D01*
Y96539D01*
X456380Y96736D01*
X457364D01*
X457561Y96539D01*
D02*
G37*
G36*
X451261D02*
Y94571D01*
X451065Y94374D01*
X446635Y94374D01*
X446439Y94571D01*
Y95161D01*
X446635Y95358D01*
X449490D01*
X449884Y95752D01*
Y96539D01*
X450080Y96736D01*
X451065D01*
X451261Y96539D01*
D02*
G37*
G36*
X461005Y93193D02*
Y92602D01*
X460809Y92405D01*
X459628D01*
X459431Y92209D01*
Y91618D01*
X459628Y91421D01*
X460809D01*
X461005Y91224D01*
Y90634D01*
X460809Y90437D01*
X456478D01*
X456281Y90634D01*
Y93193D01*
X456478Y93390D01*
X460809D01*
X461005Y93193D01*
D02*
G37*
G36*
X451456Y89258D02*
Y88569D01*
X451260Y88372D01*
X446633D01*
X446437Y88569D01*
Y89258D01*
X446633Y89455D01*
X451260D01*
X451456Y89258D01*
D02*
G37*
G36*
X453230Y93392D02*
Y88569D01*
X453033Y88372D01*
X452443D01*
X452246Y88569D01*
Y93392D01*
X452443Y93589D01*
X453033D01*
X453230Y93392D01*
D02*
G37*
G36*
X461005Y84768D02*
Y84177D01*
X460809Y83980D01*
X459431D01*
X459234Y84177D01*
Y84768D01*
X459431Y84965D01*
X460809D01*
X461005Y84768D01*
D02*
G37*
G36*
X448210D02*
Y84177D01*
X448013Y83980D01*
X446635D01*
X446439Y84177D01*
Y84768D01*
X446635Y84965D01*
X448013D01*
X448210Y84768D01*
D02*
G37*
G36*
X461005Y82799D02*
Y82209D01*
X460809Y82012D01*
X459431D01*
X459234Y82209D01*
Y82799D01*
X459431Y82996D01*
X460809D01*
X461005Y82799D01*
D02*
G37*
G36*
X448210D02*
Y82209D01*
X448013Y82012D01*
X446635D01*
X446439Y82209D01*
Y82799D01*
X446635Y82996D01*
X448013D01*
X448210Y82799D01*
D02*
G37*
G36*
X461005Y80831D02*
Y80240D01*
X460809Y80043D01*
X459431D01*
X459234Y80240D01*
Y80831D01*
X459431Y81028D01*
X460809D01*
X461005Y80831D01*
D02*
G37*
G36*
X448210D02*
Y80240D01*
X448013Y80043D01*
X446635D01*
X446439Y80240D01*
Y80831D01*
X446635Y81028D01*
X448013D01*
X448210Y80831D01*
D02*
G37*
G36*
X458448Y86291D02*
Y79323D01*
X458252Y79126D01*
X455791D01*
X455594Y79323D01*
Y86291D01*
X455791Y86488D01*
X458252D01*
X458448Y86291D01*
D02*
G37*
G36*
X451850D02*
Y79323D01*
X451653Y79126D01*
X449192D01*
X448996Y79323D01*
Y86291D01*
X449192Y86488D01*
X451653D01*
X451850Y86291D01*
D02*
G37*
D21*
X472047Y219803D02*
D03*
Y217323D02*
D03*
Y214843D02*
D03*
X465984D02*
D03*
Y217323D02*
D03*
Y219803D02*
D03*
X479921D02*
D03*
Y217323D02*
D03*
Y214843D02*
D03*
X485984D02*
D03*
Y217323D02*
D03*
Y219803D02*
D03*
X499213D02*
D03*
Y217323D02*
D03*
Y214843D02*
D03*
X493150D02*
D03*
Y217323D02*
D03*
Y219803D02*
D03*
D22*
X399401Y140363D02*
D03*
X395087Y144676D02*
D03*
X447039Y195087D02*
D03*
X145481Y145070D02*
D03*
X442725Y199401D02*
D03*
X149794Y140757D02*
D03*
D23*
X363571Y168319D02*
D03*
X358476Y173413D02*
D03*
D24*
X466003Y187733D02*
D03*
X464611Y186341D02*
D03*
X463219Y184949D02*
D03*
X461827Y183557D02*
D03*
X460435Y182165D02*
D03*
X459044Y180773D02*
D03*
X457652Y179381D02*
D03*
X456260Y177989D02*
D03*
X450692Y172422D02*
D03*
X478464Y136298D02*
D03*
X479856Y137690D02*
D03*
X481248Y139082D02*
D03*
X482640Y140474D02*
D03*
X484032Y141866D02*
D03*
X485424Y143257D02*
D03*
X486816Y144650D02*
D03*
X488207Y146041D02*
D03*
X489599Y147433D02*
D03*
X490991Y148825D02*
D03*
X492383Y150217D02*
D03*
X493775Y151609D02*
D03*
X495167Y153001D02*
D03*
X496559Y154393D02*
D03*
X453476Y175205D02*
D03*
X467395Y189125D02*
D03*
X499343Y157177D02*
D03*
X446516Y168246D02*
D03*
X449300Y171030D02*
D03*
X454868Y176597D02*
D03*
X447908Y169638D02*
D03*
X452084Y173813D02*
D03*
X497951Y155785D02*
D03*
D25*
X450692Y153001D02*
D03*
X456260Y147433D02*
D03*
X457652Y146041D02*
D03*
X461827Y141866D02*
D03*
X464611Y139082D02*
D03*
X499343Y168246D02*
D03*
X497951Y169638D02*
D03*
X496559Y171030D02*
D03*
X495167Y172422D02*
D03*
X493775Y173813D02*
D03*
X492383Y175205D02*
D03*
X489599Y177989D02*
D03*
X488207Y179381D02*
D03*
X486816Y180773D02*
D03*
X485424Y182165D02*
D03*
X484032Y183557D02*
D03*
X482640Y184949D02*
D03*
X481248Y186341D02*
D03*
X453476Y150217D02*
D03*
X446516Y157177D02*
D03*
X449300Y154393D02*
D03*
X467395Y136298D02*
D03*
X478464Y189125D02*
D03*
X459044Y144650D02*
D03*
X460435Y143257D02*
D03*
X490991Y176597D02*
D03*
X463219Y140474D02*
D03*
X452084Y151609D02*
D03*
X454868Y148825D02*
D03*
X447908Y155785D02*
D03*
X466003Y137690D02*
D03*
X479856Y187733D02*
D03*
D26*
X141316Y169943D02*
D03*
X140203Y168829D02*
D03*
X144488Y151181D02*
D03*
X145602Y152295D02*
D03*
X146715Y153408D02*
D03*
X139089Y167716D02*
D03*
X137976Y166602D02*
D03*
X136862Y165489D02*
D03*
X135749Y164375D02*
D03*
X134635Y163261D02*
D03*
X133521Y162148D02*
D03*
X147829Y154522D02*
D03*
X148942Y155635D02*
D03*
X150056Y156749D02*
D03*
X151170Y157862D02*
D03*
X152283Y158976D02*
D03*
D27*
X435227Y189952D02*
D03*
X253940Y111432D02*
D03*
X258253Y115745D02*
D03*
X252759Y125211D02*
D03*
Y117337D02*
D03*
X257072Y121651D02*
D03*
Y129525D02*
D03*
X430914Y185639D02*
D03*
X136802Y146251D02*
D03*
X132489Y141938D02*
D03*
D28*
X533054Y221276D02*
D03*
X542520Y211811D02*
D03*
D29*
X262402Y146496D02*
D03*
Y174370D02*
D03*
D30*
X272835Y149606D02*
D03*
Y151575D02*
D03*
Y153543D02*
D03*
Y155512D02*
D03*
Y157480D02*
D03*
X272835Y159449D02*
D03*
X272835Y161417D02*
D03*
Y163386D02*
D03*
Y165354D02*
D03*
Y167323D02*
D03*
Y169291D02*
D03*
Y171260D02*
D03*
D31*
X141316Y151181D02*
D03*
X133521Y158976D02*
D03*
X134635Y157862D02*
D03*
X135749Y156749D02*
D03*
X136862Y155635D02*
D03*
X137976Y154522D02*
D03*
X139089Y153408D02*
D03*
X140203Y152295D02*
D03*
X152283Y162148D02*
D03*
X151170Y163261D02*
D03*
X150056Y164375D02*
D03*
X148942Y165489D02*
D03*
X147829Y166602D02*
D03*
X146715Y167716D02*
D03*
X145602Y168829D02*
D03*
X144488Y169943D02*
D03*
D32*
X369094Y157284D02*
D03*
Y159253D02*
D03*
Y161222D02*
D03*
X387598Y149408D02*
D03*
Y151377D02*
D03*
Y153346D02*
D03*
Y155315D02*
D03*
Y157284D02*
D03*
Y159253D02*
D03*
Y161222D02*
D03*
Y163191D02*
D03*
X369094D02*
D03*
Y155315D02*
D03*
Y153346D02*
D03*
Y151377D02*
D03*
Y149408D02*
D03*
D33*
X454472Y185545D02*
D03*
X452078Y187939D02*
D03*
X464977Y130693D02*
D03*
X476410Y192488D02*
D03*
X474016Y194882D02*
D03*
X462582Y133087D02*
D03*
D34*
X409842Y219274D02*
D03*
X379921D02*
D03*
X333071Y53955D02*
D03*
X362992D02*
D03*
D35*
X389961Y207856D02*
D03*
X394882Y207856D02*
D03*
X399803Y207856D02*
D03*
X352953Y65372D02*
D03*
X348031D02*
D03*
X343110D02*
D03*
D36*
X130609Y152362D02*
D03*
X124509D02*
D03*
X353643Y153150D02*
D03*
X359743D02*
D03*
X495769Y187008D02*
D03*
X501869D02*
D03*
D37*
X364189Y149622D02*
D03*
X361795Y147228D02*
D03*
X459068Y133845D02*
D03*
X444110Y150410D02*
D03*
X443291Y178724D02*
D03*
X439354Y182661D02*
D03*
X441748Y185055D02*
D03*
X445685Y181118D02*
D03*
X441716Y148015D02*
D03*
X456674Y131451D02*
D03*
D38*
X381102Y135906D02*
D03*
Y124724D02*
D03*
X467717Y92598D02*
D03*
Y81417D02*
D03*
D39*
X383859Y162402D02*
D03*
X381103D02*
D03*
X378346D02*
D03*
X375590D02*
D03*
X372834D02*
D03*
Y150197D02*
D03*
X375590D02*
D03*
X378346D02*
D03*
X381103D02*
D03*
X383859D02*
D03*
D40*
X35433Y167528D02*
D03*
X29134D02*
D03*
X194488Y72441D02*
D03*
X200787D02*
D03*
X29134Y154929D02*
D03*
X35433D02*
D03*
X194488Y59842D02*
D03*
X200787D02*
D03*
X32283Y167528D02*
D03*
Y154929D02*
D03*
X197638Y72441D02*
D03*
Y59842D02*
D03*
D41*
X35783Y174178D02*
D03*
X28784D02*
D03*
X194138Y79092D02*
D03*
X490945Y190257D02*
D03*
X201138Y79092D02*
D03*
X490945Y196357D02*
D03*
X28784Y180278D02*
D03*
X194138Y85192D02*
D03*
X35783Y180278D02*
D03*
X201138Y85192D02*
D03*
X433943Y85206D02*
D03*
Y91306D02*
D03*
X458268Y106200D02*
D03*
X501092Y83706D02*
D03*
X440945Y98326D02*
D03*
X507592Y83706D02*
D03*
Y89806D02*
D03*
X458268Y100100D02*
D03*
X440945Y92226D02*
D03*
X501092Y89806D02*
D03*
D42*
X489694Y101768D02*
D03*
X493632D02*
D03*
X489694Y90350D02*
D03*
X491663Y101768D02*
D03*
X493632Y90350D02*
D03*
X491663D02*
D03*
D43*
X485954Y98027D02*
D03*
Y94090D02*
D03*
Y96059D02*
D03*
X497372Y98027D02*
D03*
Y96059D02*
D03*
Y94090D02*
D03*
D44*
X545276Y174016D02*
D03*
Y181890D02*
D03*
Y158268D02*
D03*
Y166142D02*
D03*
Y189764D02*
D03*
D45*
X200787Y62992D02*
D03*
X35433Y158079D02*
D03*
X200787Y66142D02*
D03*
X35433Y161228D02*
D03*
X29134Y164378D02*
D03*
Y161228D02*
D03*
Y158079D02*
D03*
X194488Y69291D02*
D03*
Y66142D02*
D03*
Y62992D02*
D03*
X35433Y164378D02*
D03*
X200787Y69291D02*
D03*
D46*
X440942Y80858D02*
D03*
Y73654D02*
D03*
D47*
X20472Y154213D02*
D03*
X185039Y59331D02*
D03*
X24803Y154213D02*
D03*
X189764Y59331D02*
D03*
X481496Y194370D02*
D03*
X475902Y90861D02*
D03*
X481496Y197756D02*
D03*
X475902Y87475D02*
D03*
X519372Y89398D02*
D03*
Y102784D02*
D03*
X185039Y62717D02*
D03*
X189764D02*
D03*
X20472Y157598D02*
D03*
X24803D02*
D03*
X519372Y99398D02*
D03*
Y92783D02*
D03*
D48*
X503908Y155629D02*
D03*
X507294D02*
D03*
X506565Y96091D02*
D03*
X503179D02*
D03*
D49*
X448013Y92898D02*
D03*
Y90929D02*
D03*
D50*
X452468Y89187D02*
D03*
D51*
X456921Y95112D02*
D03*
D52*
X452836Y95653D02*
D03*
D53*
X450572Y96146D02*
D03*
D54*
X528425Y106417D02*
D03*
X528426Y84764D02*
D03*
D55*
X519291Y85121D02*
D03*
Y81021D02*
D03*
D56*
X491663Y96059D02*
D03*
D57*
X528425Y101575D02*
D03*
X528426Y89607D02*
D03*
D58*
X519226Y96091D02*
D03*
X513517D02*
D03*
D59*
X528425Y97559D02*
D03*
Y93622D02*
D03*
M02*
