G04*
G04 #@! TF.GenerationSoftware,Altium Limited,Altium Designer,26.4.1 (12)*
G04*
G04 Layer_Color=16711935*
%FSLAX25Y25*%
%MOIN*%
G70*
G04*
G04 #@! TF.SameCoordinates,AD265272-11AE-42C5-8713-C7FDCF95D33E*
G04*
G04*
G04 #@! TF.FilePolarity,Negative*
G04*
G01*
G75*
%ADD44R,0.15748X0.03937*%
%ADD66C,0.06299*%
%ADD68C,0.01673*%
%ADD70C,0.05906*%
%ADD71C,0.00069*%
D44*
X545276Y181890D02*
D03*
Y174016D02*
D03*
Y166142D02*
D03*
Y189764D02*
D03*
Y158268D02*
D03*
D66*
X309055Y124016D02*
D03*
X299213D02*
D03*
X289370D02*
D03*
X421654Y138189D02*
D03*
X289370Y114173D02*
D03*
X238583Y198031D02*
D03*
X228740D02*
D03*
X218898D02*
D03*
X299213Y98425D02*
D03*
X289370D02*
D03*
X279528D02*
D03*
D68*
X537787Y216544D02*
D03*
D70*
X248031Y57087D02*
D03*
Y66929D02*
D03*
X455905Y217717D02*
D03*
X476378Y59055D02*
D03*
X466535D02*
D03*
X456693D02*
D03*
X474409Y114567D02*
D03*
X427165Y59055D02*
D03*
X437008D02*
D03*
X446850D02*
D03*
X513779Y66929D02*
D03*
X503937D02*
D03*
X494095D02*
D03*
X432677Y110630D02*
D03*
X500000Y114173D02*
D03*
D71*
X448604Y79807D02*
D03*
Y82709D02*
D03*
Y85811D02*
D03*
X451163D02*
D03*
Y82709D02*
D03*
Y79807D02*
D03*
X456281D02*
D03*
Y82709D02*
D03*
Y85811D02*
D03*
X458840D02*
D03*
Y82709D02*
D03*
Y79807D02*
D03*
M02*
