G04*
G04 #@! TF.GenerationSoftware,Altium Limited,Altium Designer,26.4.1 (12)*
G04*
G04 Layer_Physical_Order=2*
G04 Layer_Color=32768*
%FSLAX25Y25*%
%MOIN*%
G70*
G04*
G04 #@! TF.SameCoordinates,AD265272-11AE-42C5-8713-C7FDCF95D33E*
G04*
G04*
G04 #@! TF.FilePolarity,Negative*
G04*
G01*
G75*
%ADD87C,0.04000*%
%ADD88C,0.06378*%
%ADD89C,0.05709*%
%ADD90C,0.03162*%
G04:AMPARAMS|DCode=91|XSize=79.528mil|YSize=79.528mil|CornerRadius=0mil|HoleSize=0mil|Usage=FLASHONLY|Rotation=0.000|XOffset=0mil|YOffset=0mil|HoleType=Round|Shape=Relief|Width=11.81mil|Gap=11.81mil|Entries=4|*
%AMTHD91*
7,0,0,0.07953,0.05591,0.01181,45*
%
%ADD91THD91*%
%ADD92O,0.07062X0.04762*%
%ADD93C,0.03543*%
%ADD94C,0.03937*%
G36*
X40519Y212447D02*
X41235Y212150D01*
X41880Y211719D01*
X42428Y211171D01*
X42859Y210526D01*
X43156Y209810D01*
X43307Y209049D01*
Y208661D01*
Y208274D01*
X43156Y207513D01*
X42859Y206797D01*
X42428Y206152D01*
X41880Y205603D01*
X41235Y205172D01*
X40519Y204876D01*
X39758Y204724D01*
X38982D01*
X38222Y204876D01*
X37505Y205172D01*
X36860Y205603D01*
X36312Y206152D01*
X35881Y206797D01*
X35584Y207513D01*
X35433Y208274D01*
Y208661D01*
Y209049D01*
X35584Y209810D01*
X35881Y210526D01*
X36312Y211171D01*
X36860Y211719D01*
X37505Y212150D01*
X38222Y212447D01*
X38982Y212598D01*
X39758D01*
X40519Y212447D01*
D02*
G37*
G36*
X189849Y209520D02*
X190422Y209282D01*
X190938Y208938D01*
X191377Y208499D01*
X191722Y207983D01*
X191959Y207410D01*
X192080Y206802D01*
Y206491D01*
Y206181D01*
X191959Y205573D01*
X191722Y204999D01*
X191377Y204484D01*
X190938Y204045D01*
X190422Y203700D01*
X189849Y203463D01*
X189241Y203342D01*
X188620D01*
X188012Y203463D01*
X187439Y203700D01*
X186923Y204045D01*
X186484Y204484D01*
X186139Y204999D01*
X185902Y205573D01*
X185781Y206181D01*
Y206491D01*
Y206802D01*
X185902Y207410D01*
X186139Y207983D01*
X186484Y208499D01*
X186923Y208938D01*
X187439Y209282D01*
X188012Y209520D01*
X188620Y209641D01*
X189241D01*
X189849Y209520D01*
D02*
G37*
G36*
X143918Y188746D02*
X144545Y188486D01*
X145109Y188109D01*
X145589Y187629D01*
X145966Y187065D01*
X146226Y186438D01*
X146358Y185772D01*
Y185433D01*
Y185094D01*
X146226Y184428D01*
X145966Y183801D01*
X145589Y183237D01*
X145109Y182757D01*
X144545Y182380D01*
X143918Y182121D01*
X143253Y181988D01*
X142574D01*
X141909Y182121D01*
X141282Y182380D01*
X140717Y182757D01*
X140238Y183237D01*
X139861Y183801D01*
X139601Y184428D01*
X139469Y185094D01*
Y185433D01*
Y185772D01*
X139601Y186438D01*
X139861Y187065D01*
X140238Y187629D01*
X140717Y188109D01*
X141282Y188486D01*
X141909Y188746D01*
X142574Y188878D01*
X143253D01*
X143918Y188746D01*
D02*
G37*
G36*
X555118Y168898D02*
X544095Y168898D01*
X543859Y168898D01*
X543425Y169077D01*
X543093Y169410D01*
X542913Y169844D01*
Y170314D01*
X543093Y170748D01*
X543425Y171080D01*
X543859Y171260D01*
X544095Y171260D01*
X544095Y171260D01*
X555118D01*
Y168898D01*
D02*
G37*
G36*
X78872Y163658D02*
X79445Y163421D01*
X79961Y163076D01*
X80399Y162638D01*
X80744Y162122D01*
X80981Y161549D01*
X81102Y160940D01*
Y160630D01*
Y160320D01*
X80981Y159711D01*
X80744Y159138D01*
X80399Y158622D01*
X79961Y158183D01*
X79445Y157839D01*
X78872Y157601D01*
X78263Y157480D01*
X77643D01*
X77034Y157601D01*
X76461Y157839D01*
X75945Y158183D01*
X75506Y158622D01*
X75162Y159138D01*
X74924Y159711D01*
X74803Y160320D01*
Y160630D01*
Y160940D01*
X74924Y161549D01*
X75162Y162122D01*
X75506Y162638D01*
X75945Y163076D01*
X76461Y163421D01*
X77034Y163658D01*
X77643Y163779D01*
X78263D01*
X78872Y163658D01*
D02*
G37*
G36*
X532644Y141581D02*
X533361Y141284D01*
X534006Y140853D01*
X534554Y140305D01*
X534985Y139660D01*
X535282Y138944D01*
X535433Y138183D01*
Y137795D01*
Y137408D01*
X535282Y136647D01*
X534985Y135930D01*
X534554Y135286D01*
X534006Y134737D01*
X533361Y134306D01*
X532644Y134010D01*
X531884Y133858D01*
X531108D01*
X530348Y134010D01*
X529631Y134306D01*
X528986Y134737D01*
X528438Y135286D01*
X528007Y135930D01*
X527710Y136647D01*
X527559Y137408D01*
Y137795D01*
Y138183D01*
X527710Y138944D01*
X528007Y139660D01*
X528438Y140305D01*
X528986Y140853D01*
X529631Y141284D01*
X530348Y141581D01*
X531108Y141732D01*
X531884D01*
X532644Y141581D01*
D02*
G37*
G36*
X143918Y139139D02*
X144545Y138880D01*
X145109Y138503D01*
X145589Y138023D01*
X145966Y137459D01*
X146226Y136832D01*
X146358Y136166D01*
Y135827D01*
Y135487D01*
X146226Y134822D01*
X145966Y134195D01*
X145589Y133631D01*
X145109Y133151D01*
X144545Y132774D01*
X143918Y132514D01*
X143253Y132382D01*
X142574D01*
X141909Y132514D01*
X141282Y132774D01*
X140717Y133151D01*
X140238Y133631D01*
X139861Y134195D01*
X139601Y134822D01*
X139469Y135487D01*
Y135827D01*
Y136166D01*
X139601Y136832D01*
X139861Y137459D01*
X140238Y138023D01*
X140717Y138503D01*
X141282Y138880D01*
X141909Y139139D01*
X142574Y139272D01*
X143253D01*
X143918Y139139D01*
D02*
G37*
G36*
X189862Y117825D02*
X190435Y117587D01*
X190951Y117243D01*
X191390Y116804D01*
X191735Y116288D01*
X191972Y115715D01*
X192093Y115106D01*
Y114796D01*
Y114486D01*
X191972Y113877D01*
X191735Y113304D01*
X191390Y112788D01*
X190951Y112350D01*
X190435Y112005D01*
X189862Y111768D01*
X189254Y111647D01*
X188633D01*
X188025Y111768D01*
X187452Y112005D01*
X186936Y112350D01*
X186497Y112788D01*
X186152Y113304D01*
X185915Y113877D01*
X185794Y114486D01*
Y114796D01*
Y115106D01*
X185915Y115715D01*
X186152Y116288D01*
X186497Y116804D01*
X186936Y117243D01*
X187452Y117587D01*
X188025Y117825D01*
X188633Y117946D01*
X189254D01*
X189862Y117825D01*
D02*
G37*
G36*
X40519Y66778D02*
X41235Y66481D01*
X41880Y66050D01*
X42428Y65502D01*
X42859Y64857D01*
X43156Y64140D01*
X43307Y63380D01*
Y62992D01*
Y62604D01*
X43156Y61844D01*
X42859Y61127D01*
X42428Y60482D01*
X41880Y59934D01*
X41235Y59503D01*
X40519Y59206D01*
X39758Y59055D01*
X38982D01*
X38222Y59206D01*
X37505Y59503D01*
X36860Y59934D01*
X36312Y60482D01*
X35881Y61127D01*
X35584Y61844D01*
X35433Y62604D01*
Y62992D01*
Y63380D01*
X35584Y64140D01*
X35881Y64857D01*
X36312Y65502D01*
X36860Y66050D01*
X37505Y66481D01*
X38222Y66778D01*
X38982Y66929D01*
X39758D01*
X40519Y66778D01*
D02*
G37*
G36*
X532594Y66781D02*
X533314Y66483D01*
X533962Y66050D01*
X534513Y65499D01*
X534946Y64851D01*
X535244Y64131D01*
X535396Y63366D01*
Y62977D01*
Y62587D01*
X535244Y61822D01*
X534946Y61102D01*
X534513Y60454D01*
X533962Y59903D01*
X533314Y59470D01*
X532594Y59172D01*
X531829Y59020D01*
X531050D01*
X530286Y59172D01*
X529565Y59470D01*
X528918Y59903D01*
X528366Y60454D01*
X527933Y61102D01*
X527635Y61822D01*
X527483Y62587D01*
Y62977D01*
Y63366D01*
X527635Y64131D01*
X527933Y64851D01*
X528366Y65499D01*
X528918Y66050D01*
X529565Y66483D01*
X530286Y66781D01*
X531050Y66933D01*
X531829D01*
X532594Y66781D01*
D02*
G37*
D87*
X143253Y188878D02*
X143918Y188746D01*
X144545Y188486D01*
X145109Y188109D01*
X145589Y187629D01*
X145966Y187065D01*
X146226Y186438D01*
X146358Y185772D01*
Y185433D02*
Y185772D01*
Y185094D02*
Y185433D01*
X146226Y184428D02*
X146358Y185094D01*
X145966Y183801D02*
X146226Y184428D01*
X145589Y183237D02*
X145966Y183801D01*
X145109Y182757D02*
X145589Y183237D01*
X144545Y182380D02*
X145109Y182757D01*
X143918Y182121D02*
X144545Y182380D01*
X143253Y181988D02*
X143918Y182121D01*
X142574Y181988D02*
X143253D01*
X141909Y182121D02*
X142574Y181988D01*
X141282Y182380D02*
X141909Y182121D01*
X140717Y182757D02*
X141282Y182380D01*
X140238Y183237D02*
X140717Y182757D01*
X139861Y183801D02*
X140238Y183237D01*
X139601Y184428D02*
X139861Y183801D01*
X139469Y185094D02*
X139601Y184428D01*
X139469Y185094D02*
Y185433D01*
Y185772D01*
X139601Y186438D01*
X139861Y187065D01*
X140238Y187629D01*
X140717Y188109D01*
X141282Y188486D01*
X141909Y188746D01*
X142574Y188878D01*
X143253D01*
Y139272D02*
X143918Y139139D01*
X144545Y138880D01*
X145109Y138503D01*
X145589Y138023D01*
X145966Y137459D01*
X146226Y136832D01*
X146358Y136166D01*
Y135827D02*
Y136166D01*
Y135487D02*
Y135827D01*
X146226Y134822D02*
X146358Y135487D01*
X145966Y134195D02*
X146226Y134822D01*
X145589Y133631D02*
X145966Y134195D01*
X145109Y133151D02*
X145589Y133631D01*
X144545Y132774D02*
X145109Y133151D01*
X143918Y132514D02*
X144545Y132774D01*
X143253Y132382D02*
X143918Y132514D01*
X142574Y132382D02*
X143253D01*
X141909Y132514D02*
X142574Y132382D01*
X141282Y132774D02*
X141909Y132514D01*
X140717Y133151D02*
X141282Y132774D01*
X140238Y133631D02*
X140717Y133151D01*
X139861Y134195D02*
X140238Y133631D01*
X139601Y134822D02*
X139861Y134195D01*
X139469Y135487D02*
X139601Y134822D01*
X139469Y135487D02*
Y135827D01*
Y136166D01*
X139601Y136832D01*
X139861Y137459D01*
X140238Y138023D01*
X140717Y138503D01*
X141282Y138880D01*
X141909Y139139D01*
X142574Y139272D01*
X143253D01*
X189254Y117946D02*
X189862Y117825D01*
X190435Y117587D01*
X190951Y117243D01*
X191390Y116804D01*
X191735Y116288D01*
X191972Y115715D01*
X192093Y115106D01*
Y114796D02*
Y115106D01*
Y114486D02*
Y114796D01*
X191972Y113877D02*
X192093Y114486D01*
X191735Y113304D02*
X191972Y113877D01*
X191390Y112788D02*
X191735Y113304D01*
X190951Y112350D02*
X191390Y112788D01*
X190435Y112005D02*
X190951Y112350D01*
X189862Y111768D02*
X190435Y112005D01*
X189254Y111647D02*
X189862Y111768D01*
X188633Y111647D02*
X189254D01*
X188025Y111768D02*
X188633Y111647D01*
X187452Y112005D02*
X188025Y111768D01*
X186936Y112350D02*
X187452Y112005D01*
X186497Y112788D02*
X186936Y112350D01*
X186152Y113304D02*
X186497Y112788D01*
X185915Y113877D02*
X186152Y113304D01*
X185794Y114486D02*
X185915Y113877D01*
X185794Y114486D02*
Y114796D01*
Y115106D01*
X185915Y115715D01*
X186152Y116288D01*
X186497Y116804D01*
X186936Y117243D01*
X187452Y117587D01*
X188025Y117825D01*
X188633Y117946D01*
X189254D01*
X189241Y209641D02*
X189849Y209520D01*
X190422Y209282D01*
X190938Y208938D01*
X191377Y208499D01*
X191722Y207983D01*
X191959Y207410D01*
X192080Y206802D01*
Y206491D02*
Y206802D01*
Y206181D02*
Y206491D01*
X191959Y205573D02*
X192080Y206181D01*
X191722Y204999D02*
X191959Y205573D01*
X191377Y204484D02*
X191722Y204999D01*
X190938Y204045D02*
X191377Y204484D01*
X190422Y203700D02*
X190938Y204045D01*
X189849Y203463D02*
X190422Y203700D01*
X189241Y203342D02*
X189849Y203463D01*
X188620Y203342D02*
X189241D01*
X188012Y203463D02*
X188620Y203342D01*
X187439Y203700D02*
X188012Y203463D01*
X186923Y204045D02*
X187439Y203700D01*
X186484Y204484D02*
X186923Y204045D01*
X186139Y204999D02*
X186484Y204484D01*
X185902Y205573D02*
X186139Y204999D01*
X185781Y206181D02*
X185902Y205573D01*
X185781Y206181D02*
Y206491D01*
Y206802D01*
X185902Y207410D01*
X186139Y207983D01*
X186484Y208499D01*
X186923Y208938D01*
X187439Y209282D01*
X188012Y209520D01*
X188620Y209641D01*
X189241D01*
X78263Y163779D02*
X78872Y163658D01*
X79445Y163421D01*
X79961Y163076D01*
X80399Y162638D01*
X80744Y162122D01*
X80981Y161549D01*
X81102Y160940D01*
Y160630D02*
Y160940D01*
Y160320D02*
Y160630D01*
X80981Y159711D02*
X81102Y160320D01*
X80744Y159138D02*
X80981Y159711D01*
X80399Y158622D02*
X80744Y159138D01*
X79961Y158183D02*
X80399Y158622D01*
X79445Y157839D02*
X79961Y158183D01*
X78872Y157601D02*
X79445Y157839D01*
X78263Y157480D02*
X78872Y157601D01*
X77643Y157480D02*
X78263D01*
X77034Y157601D02*
X77643Y157480D01*
X76461Y157839D02*
X77034Y157601D01*
X75945Y158183D02*
X76461Y157839D01*
X75506Y158622D02*
X75945Y158183D01*
X75162Y159138D02*
X75506Y158622D01*
X74924Y159711D02*
X75162Y159138D01*
X74803Y160320D02*
X74924Y159711D01*
X74803Y160320D02*
Y160630D01*
Y160940D01*
X74924Y161549D01*
X75162Y162122D01*
X75506Y162638D01*
X75945Y163076D01*
X76461Y163421D01*
X77034Y163658D01*
X77643Y163779D01*
X78263D01*
X531829Y66933D02*
X532594Y66781D01*
X533314Y66483D01*
X533962Y66050D01*
X534513Y65499D01*
X534946Y64851D01*
X535244Y64131D01*
X535396Y63366D01*
Y62977D02*
Y63366D01*
Y62587D02*
Y62977D01*
X535244Y61822D02*
X535396Y62587D01*
X534946Y61102D02*
X535244Y61822D01*
X534513Y60454D02*
X534946Y61102D01*
X533962Y59903D02*
X534513Y60454D01*
X533314Y59470D02*
X533962Y59903D01*
X532594Y59172D02*
X533314Y59470D01*
X531829Y59020D02*
X532594Y59172D01*
X531050Y59020D02*
X531829D01*
X530286Y59172D02*
X531050Y59020D01*
X529565Y59470D02*
X530286Y59172D01*
X528918Y59903D02*
X529565Y59470D01*
X528366Y60454D02*
X528918Y59903D01*
X527933Y61102D02*
X528366Y60454D01*
X527635Y61822D02*
X527933Y61102D01*
X527483Y62587D02*
X527635Y61822D01*
X527483Y62587D02*
Y62977D01*
Y63366D01*
X527635Y64131D01*
X527933Y64851D01*
X528366Y65499D01*
X528918Y66050D01*
X529565Y66483D01*
X530286Y66781D01*
X531050Y66933D01*
X531829D01*
X39758Y212598D02*
X40519Y212447D01*
X41235Y212150D01*
X41880Y211719D01*
X42428Y211171D01*
X42859Y210526D01*
X43156Y209810D01*
X43307Y209049D01*
Y208661D02*
Y209049D01*
Y208274D02*
Y208661D01*
X43156Y207513D02*
X43307Y208274D01*
X42859Y206797D02*
X43156Y207513D01*
X42428Y206152D02*
X42859Y206797D01*
X41880Y205603D02*
X42428Y206152D01*
X41235Y205172D02*
X41880Y205603D01*
X40519Y204876D02*
X41235Y205172D01*
X39758Y204724D02*
X40519Y204876D01*
X38982Y204724D02*
X39758D01*
X38222Y204876D02*
X38982Y204724D01*
X37505Y205172D02*
X38222Y204876D01*
X36860Y205603D02*
X37505Y205172D01*
X36312Y206152D02*
X36860Y205603D01*
X35881Y206797D02*
X36312Y206152D01*
X35584Y207513D02*
X35881Y206797D01*
X35433Y208274D02*
X35584Y207513D01*
X35433Y208274D02*
Y208661D01*
Y209049D01*
X35584Y209810D01*
X35881Y210526D01*
X36312Y211171D01*
X36860Y211719D01*
X37505Y212150D01*
X38222Y212447D01*
X38982Y212598D01*
X39758D01*
Y66929D02*
X40519Y66778D01*
X41235Y66481D01*
X41880Y66050D01*
X42428Y65502D01*
X42859Y64857D01*
X43156Y64140D01*
X43307Y63380D01*
Y62992D02*
Y63380D01*
Y62604D02*
Y62992D01*
X43156Y61844D02*
X43307Y62604D01*
X42859Y61127D02*
X43156Y61844D01*
X42428Y60482D02*
X42859Y61127D01*
X41880Y59934D02*
X42428Y60482D01*
X41235Y59503D02*
X41880Y59934D01*
X40519Y59206D02*
X41235Y59503D01*
X39758Y59055D02*
X40519Y59206D01*
X38982Y59055D02*
X39758D01*
X38222Y59206D02*
X38982Y59055D01*
X37505Y59503D02*
X38222Y59206D01*
X36860Y59934D02*
X37505Y59503D01*
X36312Y60482D02*
X36860Y59934D01*
X35881Y61127D02*
X36312Y60482D01*
X35584Y61844D02*
X35881Y61127D01*
X35433Y62604D02*
X35584Y61844D01*
X35433Y62604D02*
Y62992D01*
Y63380D01*
X35584Y64140D01*
X35881Y64857D01*
X36312Y65502D01*
X36860Y66050D01*
X37505Y66481D01*
X38222Y66778D01*
X38982Y66929D01*
X39758D01*
X531884Y141732D02*
X532644Y141581D01*
X533361Y141284D01*
X534006Y140853D01*
X534554Y140305D01*
X534985Y139660D01*
X535282Y138944D01*
X535433Y138183D01*
Y137795D02*
Y138183D01*
Y137408D02*
Y137795D01*
X535282Y136647D02*
X535433Y137408D01*
X534985Y135930D02*
X535282Y136647D01*
X534554Y135286D02*
X534985Y135930D01*
X534006Y134737D02*
X534554Y135286D01*
X533361Y134306D02*
X534006Y134737D01*
X532644Y134010D02*
X533361Y134306D01*
X531884Y133858D02*
X532644Y134010D01*
X531108Y133858D02*
X531884D01*
X530348Y134010D02*
X531108Y133858D01*
X529631Y134306D02*
X530348Y134010D01*
X528986Y134737D02*
X529631Y134306D01*
X528438Y135286D02*
X528986Y134737D01*
X528007Y135930D02*
X528438Y135286D01*
X527710Y136647D02*
X528007Y135930D01*
X527559Y137408D02*
X527710Y136647D01*
X527559Y137408D02*
Y137795D01*
Y138183D01*
X527710Y138944D01*
X528007Y139660D01*
X528438Y140305D01*
X528986Y140853D01*
X529631Y141284D01*
X530348Y141581D01*
X531108Y141732D01*
X531884D01*
X555118Y168898D02*
X555118Y59055D01*
X544095Y168898D02*
X555118Y168898D01*
X543859D02*
X544095Y168898D01*
X543425Y169077D02*
X543859Y168898D01*
X543093Y169410D02*
X543425Y169077D01*
X542913Y169844D02*
X543093Y169410D01*
X542913Y169844D02*
Y170314D01*
X543093Y170748D01*
X543425Y171080D01*
X543859Y171260D01*
X544095Y171260D01*
X544095Y171260D01*
X555118D01*
X555118Y206924D02*
X555118Y171260D01*
X530152Y232283D02*
X530472Y232283D01*
X35433Y232283D02*
X530152Y232283D01*
X34143D02*
X35433Y232283D01*
X31584Y231947D02*
X34143Y232283D01*
X29092Y231279D02*
X31584Y231947D01*
X26708Y230291D02*
X29092Y231279D01*
X24473Y229001D02*
X26708Y230291D01*
X22426Y227430D02*
X24473Y229001D01*
X20601Y225606D02*
X22426Y227430D01*
X19030Y223558D02*
X20601Y225606D01*
X17740Y221324D02*
X19030Y223558D01*
X16753Y218939D02*
X17740Y221324D01*
X16085Y216447D02*
X16753Y218939D01*
X15748Y213889D02*
X16085Y216447D01*
X15748Y213889D02*
X15748Y212598D01*
Y59055D02*
Y212598D01*
X15748Y57765D02*
X15748Y59055D01*
X15748Y57765D02*
X16085Y55207D01*
X16753Y52714D01*
X17740Y50330D01*
X19030Y48095D01*
X20601Y46048D01*
X22426Y44223D01*
X24473Y42652D01*
X26708Y41362D01*
X29092Y40375D01*
X31584Y39707D01*
X34143Y39370D01*
X35433Y39370D01*
X535433Y39370D01*
X536723Y39370D01*
X539282Y39707D01*
X541774Y40375D01*
X544158Y41362D01*
X546393Y42652D01*
X548440Y44223D01*
X550265Y46048D01*
X551836Y48095D01*
X553126Y50330D01*
X554113Y52714D01*
X554781Y55206D01*
X555118Y57765D01*
X555118Y59055D01*
X555118Y206924D02*
X555118Y207337D01*
X554957Y208147D02*
X555118Y207337D01*
X554641Y208911D02*
X554957Y208147D01*
X554181Y209598D02*
X554641Y208911D01*
X553889Y209890D02*
X554181Y209598D01*
X532446Y231333D02*
X553889Y209890D01*
X532221Y231559D02*
X532446Y231333D01*
X531689Y231914D02*
X532221Y231559D01*
X531098Y232159D02*
X531689Y231914D01*
X530472Y232283D02*
X531098Y232159D01*
D88*
X309055Y124016D02*
D03*
X299213D02*
D03*
X289370D02*
D03*
X421654Y138189D02*
D03*
X289370Y114173D02*
D03*
X238583Y198031D02*
D03*
X228740D02*
D03*
X218898D02*
D03*
X299213Y98425D02*
D03*
X289370D02*
D03*
X279528D02*
D03*
X248031Y57087D02*
D03*
Y66929D02*
D03*
X455905Y217717D02*
D03*
X476378Y59055D02*
D03*
X466535D02*
D03*
X456693D02*
D03*
X474409Y114567D02*
D03*
X513779Y66929D02*
D03*
X503937D02*
D03*
X494095D02*
D03*
X432677Y110630D02*
D03*
X500000Y114173D02*
D03*
D89*
X537787Y216544D02*
D03*
D90*
X448604Y79807D02*
D03*
Y82709D02*
D03*
Y85811D02*
D03*
X451163D02*
D03*
Y82709D02*
D03*
Y79807D02*
D03*
X456281D02*
D03*
Y82709D02*
D03*
Y85811D02*
D03*
X458840D02*
D03*
Y82709D02*
D03*
Y79807D02*
D03*
D91*
X427165Y59055D02*
D03*
X437008D02*
D03*
X446850D02*
D03*
D92*
X543701Y112598D02*
D03*
Y78583D02*
D03*
X528740Y112598D02*
D03*
Y78583D02*
D03*
D93*
X22835Y151969D02*
D03*
X187402Y56299D02*
D03*
X201181Y55512D02*
D03*
X410630Y127953D02*
D03*
X445232Y135827D02*
D03*
X450000Y140595D02*
D03*
X427165Y130315D02*
D03*
X461417Y160236D02*
D03*
X118898Y189764D02*
D03*
X130709Y173228D02*
D03*
X129528Y170472D02*
D03*
X430315Y155512D02*
D03*
X448683Y147306D02*
D03*
X457480Y171653D02*
D03*
X457874Y157874D02*
D03*
X470866Y176378D02*
D03*
X528740Y212992D02*
D03*
X197638Y81102D02*
D03*
X392520Y150787D02*
D03*
X391732Y147638D02*
D03*
X396063Y150394D02*
D03*
Y154331D02*
D03*
X399213Y155905D02*
D03*
X402756Y137008D02*
D03*
X164869Y180013D02*
D03*
X169291Y181496D02*
D03*
X160798Y178179D02*
D03*
X156299Y175591D02*
D03*
X151575Y174016D02*
D03*
X127925Y148819D02*
D03*
X126378Y158661D02*
D03*
X262002Y132092D02*
D03*
X268898Y137795D02*
D03*
X267717Y132677D02*
D03*
X446457Y151181D02*
D03*
X126378Y170866D02*
D03*
X142520Y177165D02*
D03*
X123622Y200787D02*
D03*
X509449Y210236D02*
D03*
X507087Y183465D02*
D03*
X350394Y162205D02*
D03*
X263577Y120281D02*
D03*
X352362Y165354D02*
D03*
X261609Y124612D02*
D03*
X354331Y168898D02*
D03*
X440158Y202362D02*
D03*
X455512Y188976D02*
D03*
X389764Y200000D02*
D03*
X394882D02*
D03*
X415748Y157480D02*
D03*
X402360Y161021D02*
D03*
X407874Y162205D02*
D03*
X422564Y159326D02*
D03*
X466929Y128740D02*
D03*
X523228Y167716D02*
D03*
X503937Y159055D02*
D03*
X350787Y156299D02*
D03*
X368110Y138976D02*
D03*
X381102Y140157D02*
D03*
X450000Y179528D02*
D03*
X467323Y119685D02*
D03*
X500787Y137795D02*
D03*
X495276Y140551D02*
D03*
X472047Y119291D02*
D03*
X476378Y122441D02*
D03*
X475984Y126772D02*
D03*
X476378Y130315D02*
D03*
X481102Y119217D02*
D03*
X480010Y115050D02*
D03*
X523228Y163386D02*
D03*
X498032Y177165D02*
D03*
X502362Y176772D02*
D03*
X506693Y174803D02*
D03*
X488189Y108268D02*
D03*
X492876Y107480D02*
D03*
X483465Y111811D02*
D03*
X485039Y107087D02*
D03*
X187402Y79134D02*
D03*
X489764Y114961D02*
D03*
X520079Y172441D02*
D03*
X207874Y62992D02*
D03*
X483858Y174803D02*
D03*
X208661Y67716D02*
D03*
X481102Y177559D02*
D03*
X478346Y179528D02*
D03*
X464567Y192913D02*
D03*
X197638Y87142D02*
D03*
X38783Y150728D02*
D03*
X424410Y77166D02*
D03*
X425788Y79921D02*
D03*
X424410Y82677D02*
D03*
X425788Y85433D02*
D03*
X427166Y77166D02*
D03*
X428544Y79921D02*
D03*
X427166Y82677D02*
D03*
X428544Y85433D02*
D03*
X429922Y77166D02*
D03*
X431300Y79921D02*
D03*
X429922Y82677D02*
D03*
X432678Y77166D02*
D03*
X434056Y79921D02*
D03*
X435434Y77166D02*
D03*
X439568Y85433D02*
D03*
X442323D02*
D03*
X441644Y180371D02*
D03*
X529134Y189764D02*
D03*
X461811Y214961D02*
D03*
X479921Y212205D02*
D03*
X493307D02*
D03*
X436614Y184646D02*
D03*
X31956Y181577D02*
D03*
X505512Y187008D02*
D03*
X484646Y196063D02*
D03*
X490945Y200000D02*
D03*
X465749Y99213D02*
D03*
X467127Y101969D02*
D03*
X465749Y104725D02*
D03*
X467127Y107481D02*
D03*
X468505Y99213D02*
D03*
X469883Y101969D02*
D03*
X468505Y104725D02*
D03*
X469883Y107481D02*
D03*
X471261Y99213D02*
D03*
X472639Y101969D02*
D03*
X471261Y104725D02*
D03*
X472639Y107481D02*
D03*
X475394Y96457D02*
D03*
X474017Y99213D02*
D03*
X475394Y101969D02*
D03*
X474017Y104725D02*
D03*
X476772Y93701D02*
D03*
X478150Y96457D02*
D03*
X476772Y99213D02*
D03*
X479528Y88189D02*
D03*
Y93701D02*
D03*
X540551Y204331D02*
D03*
X512599Y80315D02*
D03*
X510236Y75591D02*
D03*
X507874Y80315D02*
D03*
X505512Y75591D02*
D03*
X500787D02*
D03*
X496063D02*
D03*
X491339D02*
D03*
X486614D02*
D03*
X522872Y96091D02*
D03*
D94*
X337795Y172047D02*
D03*
X340551Y165354D02*
D03*
X391732Y135039D02*
D03*
X370079Y129921D02*
D03*
M02*
